#N canvas 1156 304 450 300 12;
#X obj 279 135 inlet~;
#X obj 11 11 cnv 20 148 98 empty empty §Chorus/Vibrato°•· 2 8 0 14 #c6ffc7 #404040 0;
#X obj 279 260 outlet~;
#X obj 279 191 chorus-vibrato~;
#X obj 102 41 slider wave 0 1;
#X obj 15 41 slider mix 0 1;
#X msg 61 146 level \$1;
#X msg 86 181 rate \$1;
#X msg 129 215 intensity \$1;
#X msg 159 250 waveform \$1;
#X obj 73 41 slider int 0 6 3;
#X obj 44 41 slider rate 0 6 3;
#X connect 0 0 3 0;
#X connect 3 0 2 0;
#X connect 4 0 9 0;
#X connect 5 0 6 0;
#X connect 6 0 3 0;
#X connect 7 0 3 0;
#X connect 8 0 3 0;
#X connect 9 0 3 0;
#X connect 10 0 8 0;
#X connect 11 0 7 0;
#X coords 0 -1 1 1 150 100 2 10 10;
