#N canvas 1156 304 587 300 12;
#X obj 279 135 inlet~;
#X obj 11 11 cnv 20 346 98 empty empty «Delay••·· 2 8 0 14 #c7c6ff #404040 0;
#X obj 279 260 outlet~;
#X obj 279 231 delay~;
#X obj 15 41 slider dry 0 1 3 1;
#X obj 41 42 slider lvl 0 1 3;
#X obj 67 42 slider fdbk 0 1 3;
#X obj 94 42 slider time 0 1000 2;
#X obj 121 15 cnv 20 56 94 empty empty mod 10 6 0 10 #c6feff #404040 0;
#X msg 25 129 dry \$1;
#X msg 33 152 level \$1;
#X msg 48 177 feedback \$1;
#X msg 61 201 time \$1;
#X msg 75 225 modRate \$1;
#X msg 92 248 modInt \$1;
#X msg 366 145 pitch \$1;
#X obj 268 42 slider magic 0 1 1;
#X msg 380 169 magic \$1;
#X obj 183 14 cnv 20 52 94 empty empty filt. 10 6 0 10 #e3c6ff #404040 0;
#X obj 211 42 slider hi 0 19000 4;
#X msg 151 140 lp \$1;
#X msg 199 138 hp \$1;
#X obj 126 42 slider rate 0 6 2;
#X obj 153 42 slider int 0 6 2;
#X obj 240 42 slider tun -24 24 1 0 1;
#X obj 186 42 slider lo 0 19000 4 19000;
#X obj 300 20 tempo-ratio;
#X msg 389 70 time \$1;
#X connect 0 0 3 0;
#X connect 3 0 2 0;
#X connect 4 0 9 0;
#X connect 5 0 10 0;
#X connect 6 0 11 0;
#X connect 7 0 12 0;
#X connect 9 0 3 0;
#X connect 10 0 3 0;
#X connect 11 0 3 0;
#X connect 12 0 3 0;
#X connect 13 0 3 0;
#X connect 14 0 3 0;
#X connect 15 0 3 0;
#X connect 16 0 17 0;
#X connect 17 0 3 0;
#X connect 19 0 21 0;
#X connect 20 0 3 0;
#X connect 21 0 3 0;
#X connect 22 0 13 0;
#X connect 23 0 14 0;
#X connect 24 0 15 0;
#X connect 25 0 20 0;
#X connect 26 0 27 0;
#X connect 27 0 3 0;
#X coords 0 -1 1 1 348 100 2 10 10;
