#N canvas 1156 304 505 351 12;
#X obj 309 135 inlet~;
#X obj 309 160 fuzz~;
#X obj 309 185 overdrive~;
#X obj 11 13 cnv 20 252 94 empty empty .::Drive\ |\ Degrade:· 2 8 0 14 #ffe3c6 #404040 0;
#X obj 16 41 slider fuzz 0 1;
#X msg 47 125 gain \$1;
#X obj 309 210 else/crusher~;
#X obj 309 235 LP~;
#X obj 309 300 outlet~;
#X obj 106 41 slider crush 0 1 3;
#X obj 141 41 slider lofi 0 1 2;
#X msg 171 246 cutoff \$1;
#X msg 202 215 q \$1;
#X msg 232 182 poles \$1;
#X obj 202 42 slider Q 0.5 4;
#X obj 232 42 slider steep 0 1;
#X obj 47 41 slider O.D 0 50;
#X obj 76 41 slider gain 0 112 1 100;
#X obj 76 158 dbtorms;
#X obj 309 269 *~;
#X obj 76 183 lop~ 50;
#X obj 171 41 slider cut 0 19000 4 19000;
#X obj 429 242 inlet~;
#X connect 0 0 1 0;
#X connect 1 0 2 0;
#X connect 2 0 6 0;
#X connect 4 0 1 1;
#X connect 5 0 2 0;
#X connect 6 0 7 0;
#X connect 7 0 19 0;
#X connect 9 0 6 1;
#X connect 10 0 6 2;
#X connect 11 0 7 0;
#X connect 12 0 7 0;
#X connect 13 0 7 0;
#X connect 14 0 12 0;
#X connect 15 0 13 0;
#X connect 16 0 5 0;
#X connect 17 0 18 0;
#X connect 18 0 20 0;
#X connect 19 0 8 0;
#X connect 20 0 19 1;
#X connect 21 0 11 0;
#X connect 22 0 7 1;
#X coords 0 -1 1 1 254 100 2 10 10;
