#N canvas 747 305 450 300 12;
#X obj 11 13 cnv 20 206 92 empty empty LFO~ 2 8 0 14 #ff8300 #404040 0;
#X obj 15 84 nbx 5 18 -1e+37 1e+37 0 0 empty empty empty 0 -10 0 12 #fcfcfc #000000 #000000 0 256;
#X obj 92 84 nbx 5 18 -1e+37 1e+37 0 0 empty empty ~ -10 9 0 12 #fcfcfc #000000 #000000 0 256;
#X obj 100 62 hradio 18 1 0 3 empty empty cent/dB 12 -8 0 10 #fcfcfc #000000 #000000 0;
#X obj 160 16 tempo-ratio;
#X obj 15 62 nbx 5 18 0 18 0 0 empty empty Hz 66 10 0 12 #fcfcfc #000000 #000000 0 256;
#X obj 33 41 hradio 15 1 0 5 empty empty saw/tri/sqr/sin/s&h -14 -8 0 10 #fcfcfc #000000 #000000 0;
#X obj 275 217 outlet~;
#X obj 298 155 inlet~;
#X obj 356 153 inlet~;
#X msg 103 191 wave \$1;
#X msg 17 126 min \$1;
#X msg 96 119 max \$1;
#X msg 275 56 unit \$1;
#X obj 275 192 lfo~ tri 0 0;
#X obj 184 113 ms2hz;
#X msg 244 118 \$1 \, phase 0;
#X connect 1 0 11 0;
#X connect 2 0 12 0;
#X connect 3 0 13 0;
#X connect 4 0 15 0;
#X connect 5 0 14 0;
#X connect 6 0 10 0;
#X connect 8 0 14 1;
#X connect 9 0 14 2;
#X connect 10 0 14 0;
#X connect 11 0 14 0;
#X connect 12 0 14 0;
#X connect 13 0 14 0;
#X connect 14 0 7 0;
#X connect 15 0 16 0;
#X connect 16 0 14 0;
#X coords 0 -1 1 1 208 98 1 10 10;
