#N canvas 196 176 506 466 12;
#X obj 20 122 vsl 20 60 0 1 0 0 empty \$0args lo 0 -9 0 10 #fcfcfc #000000 #000000 0 1;
#X obj 209 43 loadbang;
#X msg 209 68 args;
#X obj 209 93 pdcontrol;
#X obj 20 10 inlet;
#X obj 82 416 outlet;
#X obj 82 351 AB;
#X obj 100 378 i;
#X obj 209 118 route list;
#X msg 209 173 label \$1;
#X obj 209 200 s \$0args;
#X obj 82 87 v ctrl-pressed;
#X obj 82 112 sel 1;
#X obj 82 137 v init\$0;
#X msg 91 171 set \$1;
#X obj 209 143 list split 1;
#X obj 20 192 t b f;
#X obj 82 300 * 1;
#X obj 82 325 + 0;
#X obj 82 275 pow 1;
#X obj 249 228 unpack f f f f f;
#X obj 330 272 pipe 20;
#X obj 249 407 v init\$0;
#X obj 198 287 swap;
#X obj 198 312 -, f 4;
#X obj 20 37 route float args;
#X text 296 24 args: label \, min \, max \; next is optional \; 4th arg is pow \; 5th arg is init value \; 6th arg is integer \; ctrl+click depends on ext. variable "ctrl-pressed" \;, f 26;
#X text 371 363 (init - min) / (max - min), f 13;
#X obj 249 363 expr ($f3 - $f1) / ($f2 - $f1), f 16;
#X obj 330 297 t b b f;
#X connect 0 0 16 0;
#X connect 1 0 2 0;
#X connect 2 0 3 0;
#X connect 3 0 8 0;
#X connect 4 0 25 0;
#X connect 6 0 5 0;
#X connect 6 1 7 0;
#X connect 7 0 5 0;
#X connect 8 0 15 0;
#X connect 9 0 10 0;
#X connect 11 0 12 0;
#X connect 12 0 13 0;
#X connect 13 0 14 0;
#X connect 13 0 19 0;
#X connect 14 0 0 0;
#X connect 15 0 9 0;
#X connect 15 1 20 0;
#X connect 16 0 11 0;
#X connect 16 1 19 0;
#X connect 17 0 18 0;
#X connect 18 0 6 0;
#X connect 19 0 17 0;
#X connect 20 0 18 1;
#X connect 20 0 23 0;
#X connect 20 0 28 0;
#X connect 20 1 23 1;
#X connect 20 1 28 1;
#X connect 20 2 19 1;
#X connect 20 3 21 0;
#X connect 20 4 6 1;
#X connect 21 0 29 0;
#X connect 23 0 24 0;
#X connect 23 1 24 1;
#X connect 24 0 17 1;
#X connect 25 0 0 0;
#X connect 25 1 15 0;
#X connect 28 0 22 0;
#X connect 29 0 13 0;
#X connect 29 1 28 0;
#X connect 29 2 28 2;
#X coords 0 -1 1 1 20 65 2 20 120;
