#N canvas 735 327 450 300 12;
#X obj 24 23 vradio 16 1 0 5 empty empty empty 0 -10 0 12 #fcfcfc #000000 #000000 0;
#X text 41 23 4th 6th 8th 12th 16h, f 4;
#X obj 263 113 r tempo;
#X obj 24 129 moses 3;
#X obj 185 115 swap 1;
#X obj 185 140 /, f 6;
#X obj 24 154 + 2;
#X obj 24 179 / 2;
#X obj 185 195 * 500;
#X obj 263 138 t b f;
#X obj 185 220 outlet;
#X floatatom 96 226 5 0 0 0 - - - 0;
#X connect 0 0 3 0;
#X connect 2 0 9 0;
#X connect 3 0 6 0;
#X connect 3 1 4 0;
#X connect 4 0 5 0;
#X connect 4 1 5 1;
#X connect 5 0 8 0;
#X connect 5 0 11 0;
#X connect 6 0 7 0;
#X connect 7 0 4 0;
#X connect 8 0 10 0;
#X connect 9 0 8 0;
#X connect 9 1 8 1;
#X coords 0 -1 1 1 53 87 2 20 20;
