#N canvas 1260 283 409 318 12;
#X obj 229 181 inlet~;
#X obj 11 11 cnv 20 230 98 empty empty /Tremolo~ 2 8 0 14 #feffc6 #404040 0;
#X obj 229 238 outlet~;
#X obj 229 208 tremolo~;
#X obj 72 41 vradio 20 1 0 3 empty empty empty 0 -10 0 12 #fcfcfc #000000 #000000 0;
#X text 94 41 tri;
#X text 93 61 sqr, f 4;
#X text 93 82 saw;
#X msg 16 127 rate \$1;
#X msg 72 189 wave \$1;
#X msg 45 158 intensity \$1;
#X obj 123 15 cnv 20 56 94 empty empty envelope 4 6 0 10 #ffe3c6 #404040 0;
#X obj 128 41 slider str 0 20 2;
#X obj 154 41 slider cmp 0 20 2;
#X msg 128 122 env \$1;
#X msg 154 148 env-growth \$1;
#X obj 44 41 slider int 0 -100 4;
#X obj 16 41 slider rate 0 18 2;
#X obj 184 19 tempo-ratio;
#X obj 283 37 ms2hz;
#X msg 283 62 rate \$1;
#X obj 297 99 r bar;
#X obj 297 124 spigot;
#X msg 360 135 0;
#X msg 344 91 1;
#X msg 297 184 phase;
#X connect 0 0 3 0;
#X connect 3 0 2 0;
#X connect 4 0 9 0;
#X connect 8 0 3 0;
#X connect 9 0 3 0;
#X connect 10 0 3 0;
#X connect 12 0 14 0;
#X connect 13 0 15 0;
#X connect 14 0 3 0;
#X connect 15 0 3 0;
#X connect 16 0 10 0;
#X connect 17 0 8 0;
#X connect 18 0 19 0;
#X connect 19 0 20 0;
#X connect 20 0 3 0;
#X connect 20 0 24 0;
#X connect 21 0 22 0;
#X connect 22 0 23 0;
#X connect 22 0 25 0;
#X connect 23 0 22 1;
#X connect 24 0 22 1;
#X connect 25 0 3 0;
#X coords 0 -1 1 1 232 100 2 10 10;
