#N canvas 260 106 450 300 12;
#X obj 28 79 inlet;
#X obj 28 104 b;
#X obj 88 39 inlet;
#X obj 88 64 b;
#X obj 28 155 spigot \$1;
#X obj 28 190 outlet;
#X msg 128 175 0;
#X msg 88 89 1;
#X obj 178 184 outlet;
#X obj 178 155 spigot;
#X obj 217 80 loadbang;
#X obj 217 105 \$1;
#X obj 217 130 == 0;
#X connect 0 0 1 0;
#X connect 1 0 4 0;
#X connect 1 0 9 0;
#X connect 2 0 3 0;
#X connect 3 0 7 0;
#X connect 4 0 5 0;
#X connect 4 0 6 0;
#X connect 6 0 4 1;
#X connect 6 0 12 0;
#X connect 7 0 4 1;
#X connect 7 0 12 0;
#X connect 9 0 8 0;
#X connect 10 0 11 0;
#X connect 11 0 12 0;
#X connect 12 0 9 1;
