#N canvas 5 95 450 300 12;
#X obj 81 52 inlet;
#X obj 81 107 spigot 1;
#X obj 81 132 outlet;
#X obj 240 42 inlet;
#X obj 201 132 outlet;
#X obj 201 107 spigot;
#X obj 134 34 == 0;
#X obj 240 72 == 1;
#X text 37 164 *: 0-1 opens/close \, anything else close all;
#X connect 0 0 1 0;
#X connect 0 0 5 0;
#X connect 1 0 2 0;
#X connect 3 0 6 0;
#X connect 3 0 7 0;
#X connect 5 0 4 0;
#X connect 6 0 1 1;
#X connect 7 0 5 1;
