#N canvas 272 217 390 431 12;
#X obj 49 363 outlet~;
#X obj 49 53 inlet~ fwd;
#X obj 274 103 r \$0voices;
#X obj 49 217 clone Sawtooth~ 8, f 22;
#X obj 274 297 /;
#X msg 274 272 1 \$1;
#X obj 274 322 lop~ 50;
#X obj 49 245 *~;
#X obj 274 26 loadbang;
#X obj 274 51 \$1;
#X obj 274 76 s \$0voices;
#X obj 274 153 t f b;
#X msg 306 232 all 0;
#X obj 266 181 numSeq, f 7;
#X msg 200 160 \$1 1;
#X obj 274 128 clip 0 8;
#N canvas 0 95 450 300 detune 0;
#X obj 164 21 r \$0detune;
#X obj 164 146 variate;
#X obj 164 198 list prepend;
#X msg 164 71 8;
#X obj 164 96 numSeq;
#X obj 164 121 t b f;
#X obj 164 46 t b f, f 7;
#X obj 164 223 outlet;
#X obj 164 170 expr pow(2 \, $f1/1200) - 1;
#X connect 0 0 6 0;
#X connect 1 0 8 0;
#X connect 2 0 7 0;
#X connect 3 0 4 0;
#X connect 4 0 5 0;
#X connect 5 0 1 0;
#X connect 5 1 2 1;
#X connect 6 0 3 0;
#X connect 6 1 1 1;
#X connect 8 0 2 0;
#X restore 79 120 pd detune;
#X obj 67 309 pot~ \$0level 1;
#X obj 49 335 *~;
#X obj 65 281 outlet~;
#X obj 169 105 r \$0waveform;
#X obj 169 130 clip 0 2;
#X obj 109 153 r \$0PW;
#X obj 139 37 inlet~;
#X msg 169 189 all \$1;
#X msg 109 189 all \$1;
#X obj 116 78 broadcast \$0;
#X connect 1 0 3 0;
#X connect 1 1 26 0;
#X connect 2 0 15 0;
#X connect 3 0 7 0;
#X connect 4 0 6 0;
#X connect 5 0 4 0;
#X connect 6 0 7 1;
#X connect 7 0 18 0;
#X connect 7 0 19 0;
#X connect 8 0 9 0;
#X connect 9 0 10 0;
#X connect 11 0 13 0;
#X connect 11 0 5 0;
#X connect 11 1 12 0;
#X connect 12 0 3 5;
#X connect 13 0 14 0;
#X connect 14 0 3 5;
#X connect 15 0 11 0;
#X connect 16 0 3 1;
#X connect 17 0 18 1;
#X connect 18 0 0 0;
#X connect 20 0 21 0;
#X connect 21 0 24 0;
#X connect 22 0 25 0;
#X connect 23 0 3 3;
#X connect 24 0 3 4;
#X connect 25 0 3 2;
