#N canvas 807 219 358 320 12;
#N canvas 0 36 318 330 \$0graph 0;
#X obj 10 10 cnv 15 32 32 empty \$1_\$2button empty 0 0 0 4 #444444
#fcfcfc 0;
#X obj 46 10 cnv 15 32 32 empty \$1_\$2button empty 0 0 0 4 #444444
#fcfcfc 0;
#X obj 82 10 cnv 15 32 32 empty \$1_\$2button empty 0 0 0 4 #444444
#fcfcfc 0;
#X obj 118 10 cnv 15 32 32 empty \$1_\$2button empty 0 0 0 4 #444444
#fcfcfc 0;
#X obj 154 10 cnv 15 32 32 empty \$1_\$2button empty 0 0 0 4 #444444
#fcfcfc 0;
#X obj 190 10 cnv 15 32 32 empty \$1_\$2button empty 0 0 0 4 #444444
#fcfcfc 0;
#X obj 226 10 cnv 15 32 32 empty \$1_\$2button empty 0 0 0 4 #444444
#fcfcfc 0;
#X obj 262 10 cnv 15 32 32 empty \$1_\$2button empty 0 0 0 4 #444444
#fcfcfc 0;
#X obj 10 46 cnv 15 32 32 empty \$1_\$2button empty 0 0 0 4 #444444
#fcfcfc 0;
#X obj 46 46 cnv 15 32 32 empty \$1_\$2button empty 0 0 0 4 #444444
#fcfcfc 0;
#X obj 82 46 cnv 15 32 32 empty \$1_\$2button empty 0 0 0 4 #444444
#fcfcfc 0;
#X obj 118 46 cnv 15 32 32 empty \$1_\$2button empty 0 0 0 4 #444444
#fcfcfc 0;
#X obj 154 46 cnv 15 32 32 empty \$1_\$2button empty 0 0 0 4 #444444
#fcfcfc 0;
#X obj 190 46 cnv 15 32 32 empty \$1_\$2button empty 0 0 0 4 #444444
#fcfcfc 0;
#X obj 226 46 cnv 15 32 32 empty \$1_\$2button empty 0 0 0 4 #444444
#fcfcfc 0;
#X obj 262 46 cnv 15 32 32 empty \$1_\$2button empty 0 0 0 4 #444444
#fcfcfc 0;
#X obj 10 82 cnv 15 32 32 empty \$1_\$2button empty 0 0 0 4 #444444
#fcfcfc 0;
#X obj 46 82 cnv 15 32 32 empty \$1_\$2button empty 0 0 0 4 #444444
#fcfcfc 0;
#X obj 82 82 cnv 15 32 32 empty \$1_\$2button empty 0 0 0 4 #444444
#fcfcfc 0;
#X obj 118 82 cnv 15 32 32 empty \$1_\$2button empty 0 0 0 4 #444444
#fcfcfc 0;
#X obj 154 82 cnv 15 32 32 empty \$1_\$2button empty 0 0 0 4 #444444
#fcfcfc 0;
#X obj 190 82 cnv 15 32 32 empty \$1_\$2button empty 0 0 0 4 #444444
#fcfcfc 0;
#X obj 226 82 cnv 15 32 32 empty \$1_\$2button empty 0 0 0 4 #444444
#fcfcfc 0;
#X obj 262 82 cnv 15 32 32 empty \$1_\$2button empty 0 0 0 4 #444444
#fcfcfc 0;
#X obj 10 118 cnv 15 32 32 empty \$1_\$2button empty 0 0 0 4 #444444
#fcfcfc 0;
#X obj 46 118 cnv 15 32 32 empty \$1_\$2button empty 0 0 0 4 #444444
#fcfcfc 0;
#X obj 82 118 cnv 15 32 32 empty \$1_\$2button empty 0 0 0 4 #444444
#fcfcfc 0;
#X obj 118 118 cnv 15 32 32 empty \$1_\$2button empty 0 0 0 4 #444444
#fcfcfc 0;
#X obj 154 118 cnv 15 32 32 empty \$1_\$2button empty 0 0 0 4 #444444
#fcfcfc 0;
#X obj 190 118 cnv 15 32 32 empty \$1_\$2button empty 0 0 0 4 #444444
#fcfcfc 0;
#X obj 226 118 cnv 15 32 32 empty \$1_\$2button empty 0 0 0 4 #444444
#fcfcfc 0;
#X obj 262 118 cnv 15 32 32 empty \$1_\$2button empty 0 0 0 4 #444444
#fcfcfc 0;
#X obj 10 154 cnv 15 32 32 empty \$1_\$2button empty 0 0 0 4 #444444
#fcfcfc 0;
#X obj 46 154 cnv 15 32 32 empty \$1_\$2button empty 0 0 0 4 #444444
#fcfcfc 0;
#X obj 82 154 cnv 15 32 32 empty \$1_\$2button empty 0 0 0 4 #444444
#fcfcfc 0;
#X obj 118 154 cnv 15 32 32 empty \$1_\$2button empty 0 0 0 4 #444444
#fcfcfc 0;
#X obj 154 154 cnv 15 32 32 empty \$1_\$2button empty 0 0 0 4 #444444
#fcfcfc 0;
#X obj 190 154 cnv 15 32 32 empty \$1_\$2button empty 0 0 0 4 #444444
#fcfcfc 0;
#X obj 226 154 cnv 15 32 32 empty \$1_\$2button empty 0 0 0 4 #444444
#fcfcfc 0;
#X obj 262 154 cnv 15 32 32 empty \$1_\$2button empty 0 0 0 4 #444444
#fcfcfc 0;
#X obj 10 190 cnv 15 32 32 empty \$1_\$2button empty 0 0 0 4 #444444
#fcfcfc 0;
#X obj 46 190 cnv 15 32 32 empty \$1_\$2button empty 0 0 0 4 #444444
#fcfcfc 0;
#X obj 82 190 cnv 15 32 32 empty \$1_\$2button empty 0 0 0 4 #444444
#fcfcfc 0;
#X obj 118 190 cnv 15 32 32 empty \$1_\$2button empty 0 0 0 4 #444444
#fcfcfc 0;
#X obj 154 190 cnv 15 32 32 empty \$1_\$2button empty 0 0 0 4 #444444
#fcfcfc 0;
#X obj 190 190 cnv 15 32 32 empty \$1_\$2button empty 0 0 0 4 #444444
#fcfcfc 0;
#X obj 226 190 cnv 15 32 32 empty \$1_\$2button empty 0 0 0 4 #444444
#fcfcfc 0;
#X obj 262 190 cnv 15 32 32 empty \$1_\$2button empty 0 0 0 4 #444444
#fcfcfc 0;
#X obj 10 226 cnv 15 32 32 empty \$1_\$2button empty 0 0 0 4 #444444
#fcfcfc 0;
#X obj 46 226 cnv 15 32 32 empty \$1_\$2button empty 0 0 0 4 #444444
#fcfcfc 0;
#X obj 82 226 cnv 15 32 32 empty \$1_\$2button empty 0 0 0 4 #444444
#fcfcfc 0;
#X obj 118 226 cnv 15 32 32 empty \$1_\$2button empty 0 0 0 4 #444444
#fcfcfc 0;
#X obj 154 226 cnv 15 32 32 empty \$1_\$2button empty 0 0 0 4 #444444
#fcfcfc 0;
#X obj 190 226 cnv 15 32 32 empty \$1_\$2button empty 0 0 0 4 #444444
#fcfcfc 0;
#X obj 226 226 cnv 15 32 32 empty \$1_\$2button empty 0 0 0 4 #444444
#fcfcfc 0;
#X obj 262 226 cnv 15 32 32 empty \$1_\$2button empty 0 0 0 4 #444444
#fcfcfc 0;
#X obj 10 262 cnv 15 32 32 empty \$1_\$2button empty 0 0 0 4 #444444
#fcfcfc 0;
#X obj 46 262 cnv 15 32 32 empty \$1_\$2button empty 0 0 0 4 #444444
#fcfcfc 0;
#X obj 82 262 cnv 15 32 32 empty \$1_\$2button empty 0 0 0 4 #444444
#fcfcfc 0;
#X obj 118 262 cnv 15 32 32 empty \$1_\$2button empty 0 0 0 4 #444444
#fcfcfc 0;
#X obj 154 262 cnv 15 32 32 empty \$1_\$2button empty 0 0 0 4 #444444
#fcfcfc 0;
#X obj 190 262 cnv 15 32 32 empty \$1_\$2button empty 0 0 0 4 #444444
#fcfcfc 0;
#X obj 226 262 cnv 15 32 32 empty \$1_\$2button empty 0 0 0 4 #444444
#fcfcfc 0;
#X obj 262 262 cnv 15 32 32 empty \$1_\$2button empty 0 0 0 4 #444444
#fcfcfc 0;
#X obj 65 305 namecanvas APC;
#X restore 144 38 pd \$0graph;
#N canvas 458 221 343 353 make-grid 0;
#X msg 65 49 64;
#X obj 65 100 t f f, f 6;
#X obj 65 137 % 8;
#X obj 102 138 div 8;
#X obj 65 214 pack f f s, f 11;
#X obj 65 162 * 36;
#X obj 102 163 * 36;
#X obj 65 74 num-seq;
#X obj 65 188 + 10;
#X obj 102 189 + 10;
#X msg 64 240 obj \$1 \$2 cnv 15 32 32 empty \$3 empty 0 0 0 0 #444444
0 0, f 28;
#X msg 165 194 symbol \$1_\$2button;
#X obj 65 23 inlet;
#X obj 65 280 send APC;
#X connect 0 0 7 0;
#X connect 1 0 2 0;
#X connect 1 1 3 0;
#X connect 1 1 11 0;
#X connect 2 0 5 0;
#X connect 3 0 6 0;
#X connect 4 0 10 0;
#X connect 5 0 8 0;
#X connect 6 0 9 0;
#X connect 7 0 1 0;
#X connect 8 0 4 0;
#X connect 9 0 4 1;
#X connect 10 0 13 0;
#X connect 11 0 4 2;
#X connect 12 0 0 0;
#X restore 44 37 pd make-grid;
#X obj 44 18 bng 15 250 50 0 empty empty empty 17 7 0 10 #fcfcfc #000000
#000000;
#X obj 243 26 inlet;
#X obj 243 51 tgl 15 0 empty empty empty 17 7 0 10 #fcfcfc #000000
#000000 0 1;
#X msg 243 71 vis \$1;
#X obj 243 96 s pd-\$0graph;
#X obj 52 101 inlet;
#X obj 52 126 unpack;
#X connect 2 0 1 0;
#X connect 3 0 4 0;
#X connect 4 0 5 0;
#X connect 5 0 6 0;
#X connect 7 0 8 0;
