#N canvas 115 152 469 403 12;
#X obj 70 51 route list;
#X msg 70 129 \$2 \$1;
#X obj 70 154 route 0;
#X obj 207 319 text define \$0sequence;
#X f 11;
#X msg 207 293 sort;
#X obj 70 78 AB;
#X obj 108 78 r \$0bypass;
#X obj 88 104 s \$0Dout;
#X msg 116 179 \$2;
#X obj 174 237 text set \$0sequence 1e+09, f 10;
#X obj 102 336 text delete \$0sequence, f 11;
#X obj 102 296 text search \$0sequence, f 11;
#X obj 116 205 t b b f;
#X obj 21 235 text size \$0sequence, f 10;
#X obj 70 205 t b f;
#X obj 21 275 sel 0;
#X obj 21 349 s \$0play;
#X msg 116 234 1, f 2;
#X msg 21 300 0;
#X obj 277 62 r \$0play;
#X obj 277 112 t f b;
#X obj 277 192 text get \$0sequence;
#X obj 70 24 inlet;
#X obj 277 242 outlet;
#X obj 277 87 change;
#X obj 277 139 metro 100;
#X obj 277 217 makePair 90, f 14;
#X obj 372 119 r \$0rate;
#X obj 372 143 * 0.9;
#N canvas 177 245 575 441 countModes 0;
#X obj 31 24 inlet;
#X obj 106 221 outlet;
#X obj 138 155 text size \$0sequence, f 10;
#X obj 340 55 inlet;
#X obj 386 60 r \$0mode;
#X obj 340 80 AB;
#X msg 290 134 0, f 2;
#X msg 340 136 1, f 2;
#X obj 420 110 text size \$0sequence, f 10;
#X obj 368 136 f;
#X msg 400 177 -1, f 2;
#X obj 368 110 t b b;
#X obj 420 150 - 1;
#X obj 31 104 f;
#X obj 130 78 r \$0_add;
#X obj 49 78 r \$0_set;
#X obj 290 207 s \$0_set;
#X obj 363 207 s \$0_add;
#X obj 106 104 + 1;
#X obj 31 49 b;
#X obj 106 129 t f b;
#X obj 106 170 mod;
#X obj 173 270 + 1;
#X obj 173 295 sel;
#X obj 173 319 onePass;
#X obj 278 274 r \$0play;
#X obj 278 299 sel 0;
#X obj 260 339 tgl 15 0 empty empty empty 17 7 0 10 -262144 -1 -1 0
1;
#X obj 260 386 + 1;
#X obj 260 413 s \$0_add;
#X obj 214 264 sel 0;
#X obj 214 289 onePass;
#X obj 212 204 r \$0alt;
#X obj 173 231 spigot;
#X obj 260 360 * -2;
#X msg 294 335 0;
#X connect 0 0 19 0;
#X connect 2 0 21 1;
#X connect 2 0 23 1;
#X connect 3 0 5 0;
#X connect 4 0 5 1;
#X connect 5 0 6 0;
#X connect 5 0 7 0;
#X connect 5 1 11 0;
#X connect 6 0 16 0;
#X connect 7 0 17 0;
#X connect 8 0 12 0;
#X connect 9 0 16 0;
#X connect 10 0 17 0;
#X connect 11 0 9 0;
#X connect 11 1 8 0;
#X connect 11 1 10 0;
#X connect 12 0 9 1;
#X connect 13 0 18 0;
#X connect 14 0 18 1;
#X connect 15 0 13 1;
#X connect 18 0 20 0;
#X connect 19 0 13 0;
#X connect 20 0 21 0;
#X connect 20 1 2 0;
#X connect 21 0 13 1;
#X connect 21 0 1 0;
#X connect 21 0 33 0;
#X connect 22 0 23 0;
#X connect 23 0 24 0;
#X connect 24 1 27 0;
#X connect 25 0 26 0;
#X connect 26 0 24 1;
#X connect 26 0 31 1;
#X connect 26 0 35 0;
#X connect 27 0 34 0;
#X connect 28 0 29 0;
#X connect 30 0 31 0;
#X connect 31 1 27 0;
#X connect 32 0 33 1;
#X connect 33 0 30 0;
#X connect 33 0 22 0;
#X connect 34 0 28 0;
#X connect 35 0 27 0;
#X restore 277 167 pd countModes;
#X obj 375 251 hradio 15 1 0 2 empty empty empty 0 -8 0 10 -262144
-1 -1 1;
#X obj 375 272 s \$0mode;
#X floatatom 376 302 5 0 0 0 - - -;
#X obj 376 326 s \$0rate;
#X obj 377 353 tgl 15 0 empty empty empty 17 7 0 10 -262144 -1 -1 0
1;
#X obj 377 374 s \$0alt;
#X obj 157 51 broadcast \$0;
#X connect 0 0 5 0;
#X connect 0 1 36 0;
#X connect 1 0 2 0;
#X connect 2 0 14 0;
#X connect 2 1 8 0;
#X connect 4 0 3 0;
#X connect 5 0 1 0;
#X connect 5 1 7 0;
#X connect 6 0 5 1;
#X connect 8 0 12 0;
#X connect 11 0 10 0;
#X connect 12 0 17 0;
#X connect 12 1 4 0;
#X connect 12 2 9 0;
#X connect 13 0 15 0;
#X connect 14 0 13 0;
#X connect 14 1 11 0;
#X connect 15 0 18 0;
#X connect 17 0 16 0;
#X connect 18 0 16 0;
#X connect 19 0 24 0;
#X connect 20 0 25 0;
#X connect 20 1 29 1;
#X connect 21 0 26 0;
#X connect 22 0 0 0;
#X connect 24 0 20 0;
#X connect 25 0 29 0;
#X connect 26 0 23 0;
#X connect 27 0 25 1;
#X connect 27 0 28 0;
#X connect 28 0 26 1;
#X connect 29 0 21 0;
#X connect 30 0 31 0;
#X connect 32 0 33 0;
#X connect 34 0 35 0;
