#N canvas 475 227 450 457 12;
#X obj 87 26 inlet;
#X obj 87 51 list split 1;
#X msg 87 181 symbol \$2\$1;
#X obj 87 206 t b s;
#X obj 182 56 inlet;
#X obj 102 241 list;
#X obj 94 295 send;
#X obj 136 378 outlet;
#X obj 136 325 list prepend;
#X obj 136 351 list trim;
#X obj 94 269 list trim;
#X obj 87 76 list append;
#X obj 242 31 loadbang;
#X msg 242 56 args;
#X obj 242 81 pdcontrol;
#X obj 87 102 t l l;
#X obj 87 127 AB;
#X obj 105 153 symbol;
#X obj 148 103 list length;
#X obj 148 128 == 1;
#X connect 0 0 1 0;
#X connect 1 0 11 0;
#X connect 1 1 5 1;
#X connect 2 0 3 0;
#X connect 3 0 5 0;
#X connect 3 1 6 1;
#X connect 3 1 8 1;
#X connect 4 0 11 1;
#X connect 5 0 8 0;
#X connect 5 0 10 0;
#X connect 8 0 9 0;
#X connect 9 0 7 0;
#X connect 10 0 6 0;
#X connect 11 0 15 0;
#X connect 12 0 13 0;
#X connect 13 0 14 0;
#X connect 14 0 11 1;
#X connect 15 0 16 0;
#X connect 15 1 18 0;
#X connect 16 0 2 0;
#X connect 16 1 17 0;
#X connect 17 0 3 0;
#X connect 18 0 19 0;
#X connect 19 0 16 1;
