#N canvas 0 95 450 300 12;
#X obj 171 87 loadbang;
#X obj 171 112 \$1;
#X obj 171 162 sig~;
#X obj 171 187 outlet~;
#X obj 171 136 expr pow(2 \, $f1/1200)- 1;
#X obj 254 173 outlet;
#X connect 0 0 1 0;
#X connect 1 0 4 0;
#X connect 2 0 3 0;
#X connect 4 0 2 0;
#X connect 4 0 5 0;
