#N canvas 458 221 450 300 12;
#X obj 20 16 adc~ \$1;
#X obj 20 221 outlet~;
#X obj 20 129 delay-block;
#X obj 20 40 gain~;
#A saved 0;
#X obj 20 153 gain~;
#A saved 0;
#X obj 20 81 drive-block;
#X obj 20 105 modulation-block;
#X obj 128 41 cnv 15 41 16 empty \$0n ch10 4 8 0 14 #202020 #ffe3c6
0;
#X obj 240 146 loadbang;
#X obj 240 171 \$1;
#X msg 240 236 label \$1;
#X obj 240 261 s \$0n;
#X obj 324 86 edit-cnv \$0n;
#A saved 41 16;
#X obj 262 205 makefilename ch:%d;
#X connect 0 0 3 0;
#X connect 2 0 4 0;
#X connect 3 0 5 0;
#X connect 4 0 1 0;
#X connect 5 0 6 0;
#X connect 6 0 2 0;
#X connect 8 0 9 0;
#X connect 9 0 13 0;
#X connect 10 0 11 0;
#X connect 13 0 10 0;
#X coords 0 -1 1 1 150 151 2 20 40;
