#N canvas 168 183 334 263 12;
#X obj 51 57 unpack;
#X obj 51 109 list 0 4 7;
#X obj 51 82 t b f;
#X obj 51 159 +, f 5;
#X obj 65 193 pack;
#X obj 170 81 loadbang;
#X msg 170 106 args;
#X obj 170 131 pdcontrol;
#X obj 51 32 inlet;
#X obj 65 218 outlet;
#X obj 118 81 inlet;
#X obj 170 156 route bang;
#X obj 51 134 listStream;
#X connect 0 0 2 0;
#X connect 0 1 4 1;
#X connect 1 0 12 0;
#X connect 2 0 1 0;
#X connect 2 1 3 1;
#X connect 3 0 4 0;
#X connect 4 0 9 0;
#X connect 5 0 6 0;
#X connect 6 0 7 0;
#X connect 7 0 11 0;
#X connect 8 0 0 0;
#X connect 10 0 1 1;
#X connect 11 1 1 1;
#X connect 12 0 3 0;
