#N canvas 0 95 450 300 12;
#X obj 140 36 inlet~;
#X obj 173 100 phasor~ 0.8;
#X obj 173 151 delread4~ \$0chorus;
#X obj 140 212 outlet~;
#X obj 140 177 xfade~ 0.5;
#X obj 173 76 delwrite~ \$0chorus 100;
#X obj 173 125 expr~ (abs($v1-.5)*8)+4;
#X connect 0 0 4 0;
#X connect 0 0 5 0;
#X connect 1 0 6 0;
#X connect 2 0 4 1;
#X connect 4 0 3 0;
#X connect 4 1 3 0;
#X connect 6 0 2 0;
