#N canvas 450 95 450 486 12;
#X obj 160 83 list fromsymbol;
#X obj 227 128 list length;
#X obj 160 176 list split;
#X obj 193 202 list tosymbol;
#X obj 160 108 t l l;
#X obj 160 328 list tosymbol, f 8;
#X obj 160 368 f;
#X obj 193 227 list trim;
#X obj 160 58 inlet;
#X obj 246 409 b;
#X text 294 434 refuse;
#X obj 160 303 spigot;
#X msg 199 278 1, f 2;
#X msg 224 283 0, f 2;
#X obj 160 435 outlet;
#X obj 246 435 outlet;
#X obj 227 152 - 1;
#X obj 193 252 route c, f 8;
#X obj 160 394 expr pow(2 \, $f1/12)-1, f 11;
#X text 19 14 accepts symbols with a float plus a "c" suffix and convert
to tone ratio. Bangs 2nd outlet if the suffix doesn't match.;
#X connect 0 0 4 0;
#X connect 1 0 16 0;
#X connect 2 0 11 0;
#X connect 2 1 3 0;
#X connect 3 0 7 0;
#X connect 4 0 2 0;
#X connect 4 1 1 0;
#X connect 5 0 6 0;
#X connect 6 0 18 0;
#X connect 7 0 17 0;
#X connect 8 0 0 0;
#X connect 9 0 15 0;
#X connect 11 0 5 0;
#X connect 12 0 11 1;
#X connect 13 0 11 1;
#X connect 16 0 2 1;
#X connect 17 0 12 0;
#X connect 17 1 9 0;
#X connect 17 1 13 0;
#X connect 18 0 14 0;
