#N canvas 0 95 450 486 12;
#X obj 155 82 list fromsymbol;
#X obj 222 108 list length;
#X obj 222 133 - 2;
#X obj 155 160 list split;
#X obj 188 186 list tosymbol;
#X obj 155 107 t l l;
#X obj 155 312 list tosymbol, f 8;
#X obj 155 352 f;
#X obj 188 211 list trim;
#X obj 188 236 route dB, f 9;
#X obj 155 57 inlet;
#X obj 155 377 + 100;
#X obj 155 402 dbtorms;
#X obj 248 402 b;
#X text 296 426 refuse;
#X obj 155 287 spigot;
#X msg 194 262 1, f 2;
#X msg 223 281 0, f 2;
#X obj 155 427 outlet;
#X obj 248 427 outlet;
#X text 19 13 accepts symbols with a float plus a "dB" suffix and convert
to rms. Bangs 2nd outlet if the suffix doesn't match.;
#X connect 0 0 5 0;
#X connect 1 0 2 0;
#X connect 2 0 3 1;
#X connect 3 0 15 0;
#X connect 3 1 4 0;
#X connect 4 0 8 0;
#X connect 5 0 3 0;
#X connect 5 1 1 0;
#X connect 6 0 7 0;
#X connect 7 0 11 0;
#X connect 8 0 9 0;
#X connect 9 0 16 0;
#X connect 9 1 13 0;
#X connect 9 1 17 0;
#X connect 10 0 0 0;
#X connect 11 0 12 0;
#X connect 12 0 18 0;
#X connect 13 0 19 0;
#X connect 15 0 6 0;
#X connect 16 0 15 1;
#X connect 17 0 15 1;
