#N canvas 246 164 639 453 12;
#X obj 26 364 send;
#X obj 62 126 + 1;
#X obj 24 153 t f f, f 9;
#X obj 24 210 * 22;
#X obj 92 210 * 22;
#X obj 24 126 f;
#X text 214 358 template \; obj X Y cnv size width height send receive
label x_off y_off font font_size bg color 0, f 31;
#X obj 71 364 else/canvas.wname 1;
#X obj 327 78 loadbang;
#X msg 354 142 args;
#X obj 354 167 pdcontrol;
#X obj 24 19 r \$0iterate;
#X msg 26 322 obj \$1 \$2 cnv \$4 \$4 \$4 empty \$3sqr empty 2 10 0
12 \$5 #000000 0, f 34;
#X obj 164 176 r \$0size;
#X obj 164 210 + 2;
#X obj 24 238 +;
#X obj 92 236 +;
#X obj 163 97 r \$0X;
#X obj 163 123 r \$0Y;
#X obj 332 315 s \$0X;
#X obj 455 371 s \$0Y;
#X obj 498 371 s \$0columns;
#X obj 519 346 s \$0rows;
#X obj 300 340 s \$0iterate;
#X obj 519 321 s \$0size;
#X obj 532 296 s \$0bg;
#X obj 26 269 pack f f f 20;
#X obj 26 295 list append #aaaaaa;
#X obj 300 283 t b f;
#X obj 362 288 *;
#X obj 327 104 t b b;
#X obj 300 308 16;
#X obj 354 217 route bang;
#X obj 142 150 r \$0rows;
#X obj 429 172 savestate;
#X obj 354 192 spigot 1;
#X msg 489 198 0;
#X text 434 122 stops canvases to be overlayed each time \;, f 15
;
#X text 275 42 arguments: X \, Y \, columns \, rows \, size \, bg \,
bg2 (for checkers) \, gap, f 34;
#N canvas 141 174 414 296 switcheroo 0;
#X obj 171 170 r \$0bg;
#X obj 76 40 inlet;
#X obj 98 253 outlet;
#X obj 76 91 % 2;
#X obj 76 147 moses 1;
#X obj 76 172 b;
#X obj 122 173 b;
#X obj 76 197 symbol #aaaaaa;
#X obj 122 223 symbol #aaaaaa;
#X obj 217 196 r \$0bg2;
#X obj 249 41 r \$0iterate;
#X obj 249 66 % 2;
#X obj 163 71 r \$0columns;
#X obj 145 96 %;
#X obj 145 121 sel 0;
#X obj 249 91 == 0;
#X obj 145 46 spigot;
#X obj 145 146 tgl 15 0 empty empty empty 17 7 0 10 -262144 -1 -1 0
1;
#X obj 76 117 == 1;
#X obj 76 63 t f f;
#X connect 0 0 7 1;
#X connect 1 0 19 0;
#X connect 3 0 18 0;
#X connect 4 0 5 0;
#X connect 4 1 6 0;
#X connect 5 0 7 0;
#X connect 6 0 8 0;
#X connect 7 0 2 0;
#X connect 8 0 2 0;
#X connect 9 0 8 1;
#X connect 10 0 11 0;
#X connect 11 0 15 0;
#X connect 12 0 13 1;
#X connect 13 0 14 0;
#X connect 14 0 17 0;
#X connect 15 0 16 1;
#X connect 16 0 13 0;
#X connect 17 0 18 1;
#X connect 18 0 4 0;
#X connect 19 0 3 0;
#X connect 19 1 16 0;
#X restore 156 244 pd switcheroo;
#X obj 202 210 r \$0gap;
#X obj 354 246 unpack f f f f f s s f;
#X obj 525 271 s \$0bg2;
#X obj 525 246 s \$0gap;
#X obj 24 44 t b f;
#X obj 100 82 !=;
#X obj 100 107 sel 1;
#X obj 24 185 mod 4;
#X obj 92 185 div 4;
#X obj 31 84 delay 80;
#X connect 1 0 5 1;
#X connect 1 0 45 0;
#X connect 2 0 47 0;
#X connect 2 1 26 2;
#X connect 2 1 39 0;
#X connect 2 1 48 0;
#X connect 3 0 15 0;
#X connect 4 0 16 0;
#X connect 5 0 1 0;
#X connect 5 0 2 0;
#X connect 7 0 0 1;
#X connect 8 0 30 0;
#X connect 9 0 10 0;
#X connect 10 0 35 0;
#X connect 11 0 44 0;
#X connect 12 0 0 0;
#X connect 13 0 14 0;
#X connect 13 0 26 3;
#X connect 14 0 4 1;
#X connect 14 0 3 1;
#X connect 15 0 26 0;
#X connect 16 0 26 1;
#X connect 17 0 15 1;
#X connect 18 0 16 1;
#X connect 26 0 27 0;
#X connect 27 0 12 0;
#X connect 28 0 31 0;
#X connect 28 1 19 0;
#X connect 29 0 31 1;
#X connect 30 0 9 0;
#X connect 30 1 7 0;
#X connect 31 0 23 0;
#X connect 32 0 31 0;
#X connect 32 1 41 0;
#X connect 33 0 47 1;
#X connect 33 0 48 1;
#X connect 34 0 35 1;
#X connect 34 1 36 0;
#X connect 35 0 32 0;
#X connect 36 0 34 0;
#X connect 39 0 27 1;
#X connect 40 0 14 1;
#X connect 41 0 28 0;
#X connect 41 1 20 0;
#X connect 41 2 21 0;
#X connect 41 2 29 0;
#X connect 41 3 22 0;
#X connect 41 3 29 1;
#X connect 41 4 24 0;
#X connect 41 5 25 0;
#X connect 41 6 42 0;
#X connect 41 7 43 0;
#X connect 44 0 5 0;
#X connect 44 1 45 1;
#X connect 45 0 46 0;
#X connect 46 0 49 0;
#X connect 47 0 3 0;
#X connect 48 0 4 0;
#X connect 49 0 5 0;
