#N canvas 66 158 908 511 12;
#X obj 233 255 *~;
#X obj 25 367 *~;
#N canvas 253 155 450 300 reverse 0;
#X obj 190 149 phasor~;
#X obj 190 50 t f f;
#X obj 190 174 *~, f 5;
#X obj 243 266 outlet~;
#X obj 111 30 inlet~;
#X obj 111 80 > 60;
#X obj 111 105 change;
#X obj 111 130 sel 1;
#X msg 111 155 0;
#X obj 190 107 lop~ 40;
#X obj 190 74 expr (1/$f1)*2000;
#X obj 190 24 r \$0delay;
#X obj 320 168 r \$0reverse;
#X obj 320 193 != 0;
#X obj 320 218 lop~ 50;
#X obj 243 237 *~;
#X obj 261 162 inlet~;
#X obj 243 205 +~;
#X obj 111 55 env~;
#X connect 0 0 2 0;
#X connect 1 0 10 0;
#X connect 1 1 2 1;
#X connect 2 0 17 0;
#X connect 4 0 18 0;
#X connect 5 0 6 0;
#X connect 6 0 7 0;
#X connect 7 0 8 0;
#X connect 8 0 0 1;
#X connect 9 0 0 0;
#X connect 10 0 9 0;
#X connect 11 0 1 0;
#X connect 12 0 13 0;
#X connect 13 0 14 0;
#X connect 14 0 15 1;
#X connect 15 0 3 0;
#X connect 16 0 17 1;
#X connect 17 0 15 0;
#X connect 18 0 5 0;
#X restore 49 274 pd reverse;
#X obj 25 74 inlet~ fwd;
#X obj 113 73 prefixMsg \$0;
#X obj 63 407 outlet~;
#N canvas 0 95 450 300 normal 0;
#X obj 161 85 r \$0delay;
#X obj 161 110 lop~ 50;
#X obj 143 193 outlet~;
#X obj 244 90 r \$0reverse;
#X obj 244 140 lop~ 50;
#X obj 143 166 *~;
#X obj 244 115 == 0;
#X obj 143 56 inlet~;
#X obj 143 136 +~;
#X connect 0 0 1 0;
#X connect 1 0 8 1;
#X connect 3 0 6 0;
#X connect 4 0 5 1;
#X connect 5 0 2 0;
#X connect 6 0 4 0;
#X connect 7 0 8 0;
#X connect 8 0 5 0;
#X restore 128 274 pd normal;
#X obj 66 206 delwrite~ \$0buffer 5000;
#X obj 129 313 delread4~ \$0buffer;
#X obj 113 22 loadbang;
#X obj 43 340 pot~ \$0dry;
#X obj 251 229 pot~ \$0feedback;
#N canvas 0 95 429 447 modulation 0;
#X obj 252 375 outlet~;
#X obj 186 65 phasor~;
#X obj 105 94 expr~ abs($v1-.5)*2;
#X obj 252 325 *~;
#X obj 252 350 +~;
#X obj 186 13 r \$0modRate;
#X obj 186 39 lop~ 50;
#X obj 290 270 r \$0modInt;
#X obj 290 325 * 0.5;
#X obj 290 350 lop~ 50;
#X obj 270 297 lop~ 50;
#X obj 106 245 *~;
#X obj 124 194 == 0;
#X obj 124 219 lop~ 50;
#X obj 187 245 *~;
#X obj 205 219 lop~ 50;
#X obj 205 194 == 1;
#X obj 186 120 cos~;
#X obj 289 149 r \$0waveform;
#X connect 1 0 2 0;
#X connect 1 0 17 0;
#X connect 2 0 11 0;
#X connect 3 0 4 0;
#X connect 4 0 0 0;
#X connect 5 0 6 0;
#X connect 6 0 1 0;
#X connect 7 0 8 0;
#X connect 7 0 10 0;
#X connect 8 0 9 0;
#X connect 9 0 4 1;
#X connect 10 0 3 1;
#X connect 11 0 3 0;
#X connect 12 0 13 0;
#X connect 13 0 11 1;
#X connect 14 0 3 0;
#X connect 15 0 14 1;
#X connect 16 0 15 0;
#X connect 17 0 14 0;
#X connect 18 0 16 0;
#X connect 18 0 12 0;
#X restore 122 248 pd modulation;
#X obj 66 155 feedForward~;
#X obj 233 281 limit~ 94 8;
#N canvas 0 95 390 300 pitchshift 0;
#X obj 157 109 *~;
#X obj 88 194 outlet~;
#N canvas 715 148 416 373 doubleBuffering 0;
#X obj 22 231 *~;
#X obj 110 319 outlet~;
#X obj 22 151 -~ 0.5;
#X obj 22 176 *~ 0.5;
#X obj 22 201 cos~;
#X obj 228 294 *~;
#X obj 208 215 -~ 0.5;
#X obj 208 240 *~ 0.5;
#X obj 208 265 cos~;
#X obj 208 152 +~ 0.5;
#X obj 208 177 wrap~;
#X obj 110 290 +~;
#X obj 48 108 phasor~;
#X obj 48 84 /~;
#X obj 272 173 *~;
#X obj 77 177 *~;
#X obj 86 84 *~ 0.001;
#X obj 48 38 expr (pow(2 \, $f1/12)-1)*-1;
#X obj 48 12 r \$0pitch;
#X obj 165 89 max~ 1;
#X obj 165 64 r \$0window;
#X obj 77 229 delread4~ \$0pitch;
#X obj 272 225 delread4~ \$0pitch;
#X obj 77 203 +~;
#X obj 272 198 +~;
#X obj 272 55 r \$0magic;
#X obj 254 32 r \$0delay;
#X obj 254 103 *~;
#X obj 272 79 > 0;
#X connect 0 0 11 0;
#X connect 2 0 3 0;
#X connect 3 0 4 0;
#X connect 4 0 0 0;
#X connect 5 0 11 1;
#X connect 6 0 7 0;
#X connect 7 0 8 0;
#X connect 8 0 5 0;
#X connect 9 0 10 0;
#X connect 10 0 6 0;
#X connect 10 0 14 0;
#X connect 11 0 1 0;
#X connect 12 0 2 0;
#X connect 12 0 9 0;
#X connect 12 0 15 0;
#X connect 13 0 12 0;
#X connect 14 0 24 0;
#X connect 15 0 23 0;
#X connect 16 0 13 1;
#X connect 17 0 13 0;
#X connect 18 0 17 0;
#X connect 19 0 16 0;
#X connect 19 0 15 1;
#X connect 19 0 14 1;
#X connect 20 0 19 0;
#X connect 21 0 0 1;
#X connect 22 0 5 1;
#X connect 23 0 21 0;
#X connect 24 0 22 0;
#X connect 25 0 28 0;
#X connect 26 0 27 0;
#X connect 27 0 24 1;
#X connect 27 0 23 1;
#X connect 28 0 27 1;
#X restore 88 167 pd doubleBuffering;
#X obj 88 55 delwrite~ \$0pitch 1000;
#X obj 175 82 pot~ \$0magic;
#X obj 87 26 inlet~;
#X obj 157 136 limit~ 90 8;
#X connect 0 0 6 0;
#X connect 2 0 0 0;
#X connect 2 0 1 0;
#X connect 4 0 0 1;
#X connect 5 0 3 0;
#X connect 6 0 3 0;
#X restore 66 181 pd pitchshift;
#X msg 113 47 dry 1 \, reverse 0 \, pitch 0 \, window 80;
#N canvas 0 95 450 300 filtering 0;
#X obj 119 45 inlet~;
#X obj 119 120 hip~;
#X obj 119 145 hip~;
#X obj 119 170 outlet~;
#X obj 211 50 freq \$0lp;
#X obj 203 116 freq \$0hp;
#X obj 119 70 lop~ 21000;
#X obj 119 95 lop~ 21000;
#X connect 0 0 6 0;
#X connect 1 0 2 0;
#X connect 2 0 3 0;
#X connect 4 0 6 1;
#X connect 4 0 7 1;
#X connect 5 0 2 1;
#X connect 5 0 1 1;
#X connect 6 0 7 0;
#X connect 7 0 1 0;
#X restore 129 339 pd filtering;
#X obj 387 47 cnv 15 75 120 empty empty empty 20 12 0 14 -233017 -66577
0;
#X obj 464 47 cnv 15 115 120 empty empty empty 20 12 0 14 -233017 -66577
0;
#X obj 581 47 cnv 15 102 120 empty empty empty 20 12 0 14 -233017 -66577
0;
#X obj 685 47 cnv 15 78 120 empty empty empty 20 12 0 14 -233017 -66577
0;
#X obj 765 47 cnv 15 116 120 empty empty empty 20 12 0 14 -233017 -66577
0;
#X obj 394 64 vsl 17 70 0 1 0 0 \$0dry empty dry 0 -9 0 10 -262144
-1 -1 6900 1;
#X obj 421 64 vsl 17 70 0 1 0 0 \$0wet empty wet 0 -9 0 10 -262144
-1 -1 6100 1;
#X obj 515 64 vsl 17 70 0 1 0 0 \$0feedback empty feedback -13 -9 0
10 -262144 -1 -1 6700 1;
#X obj 478 64 vsl 17 70 0 2000 0 0 empty empty delay -10 -9 0 10 -262144
-1 -1 900 1;
#X obj 545 94 tgl 22 0 \$0reverse empty reverse -9 -7 0 10 -262144
-1 -1 0 1;
#X obj 614 64 vsl 17 70 0 1 0 0 \$0lp empty LP 0 -9 0 10 -262144 -1
-1 4800 1;
#X obj 641 64 vsl 17 70 0 1 0 0 \$0hp empty HP 0 -9 0 10 -262144 -1
-1 2500 1;
#X floatatom 600 142 5 0 0 0 Hz - -;
#X floatatom 641 142 5 0 0 0 - - -;
#X floatatom 478 142 5 0 0 1 ms - #0delay;
#X obj 694 64 vsl 17 70 0 16 0 0 \$0modRate empty rate -6 -9 0 10 -262144
-1 -1 600 1;
#X obj 721 64 vsl 17 70 0 10 0 0 \$0modInt empty int. 0 -9 0 10 -262144
-1 -1 1700 1;
#X obj 775 64 vsl 17 70 -24 24 0 0 empty empty tune -7 -9 0 10 -262144
-1 -1 3450 1;
#X obj 802 64 vsl 17 70 0 1 0 0 \$0magic empty magic 0 -9 0 10 -262144
-1 -1 0 1;
#X floatatom 775 142 5 0 0 1 semitones - #0pitch;
#X obj 629 173 freq;
#X obj 670 173 freq;
#X msg 361 9 set 1;
#X obj 694 141 hradio 15 1 0 2 empty \$0waveLabel sin 32 8 0 10 -262144
-1 -1 1;
#X msg 683 232 tri;
#X msg 717 232 sin;
#X msg 717 289 label \$1;
#X obj 717 314 s \$0waveLabel;
#X obj 717 264 symbol;
#X obj 628 201 loadbang;
#X obj 713 175 s \$0waveform;
#X obj 694 201 sel 0 1;
#X obj 66 129 *~;
#X obj 84 104 pot~ \$0wet;
#X obj 815 175 r \$0pitch;
#X msg 815 200 set \$1;
#X connect 0 0 14 0;
#X connect 1 0 5 0;
#X connect 2 0 8 0;
#X connect 3 0 1 0;
#X connect 3 0 2 0;
#X connect 3 0 50 0;
#X connect 3 1 4 0;
#X connect 6 0 8 0;
#X connect 8 0 17 0;
#X connect 9 0 16 0;
#X connect 9 0 40 0;
#X connect 10 0 1 1;
#X connect 11 0 0 1;
#X connect 12 0 2 1;
#X connect 12 0 6 0;
#X connect 13 0 15 0;
#X connect 14 0 7 0;
#X connect 15 0 7 0;
#X connect 16 0 4 0;
#X connect 17 0 0 0;
#X connect 17 0 5 0;
#X connect 26 0 32 0;
#X connect 28 0 38 0;
#X connect 29 0 39 0;
#X connect 35 0 37 0;
#X connect 38 0 30 0;
#X connect 39 0 31 0;
#X connect 40 0 23 0;
#X connect 41 0 48 0;
#X connect 41 0 49 0;
#X connect 42 0 46 0;
#X connect 43 0 46 0;
#X connect 44 0 45 0;
#X connect 46 0 44 0;
#X connect 47 0 42 0;
#X connect 49 0 42 0;
#X connect 49 1 43 0;
#X connect 50 0 13 0;
#X connect 51 0 50 1;
#X connect 52 0 53 0;
#X connect 53 0 35 0;
#X coords 0 -1 1 1 496 140 1 386 30;
