#N canvas 0 95 450 300 12;
#X msg 50 152 vis_size \$1 \$2;
#X obj 50 125 pack;
#X floatatom 98 52 5 0 0 0 width - - 0;
#X floatatom 98 75 5 0 0 0 height - - 0;
#X obj 186 60 b;
#X obj 103 196 send \$1;
#X symbolatom 99 98 10 0 0 0 color - - 0;
#X msg 165 152 color \$1;
#X text 166 196 1st arg is receive of target cnv;
#X connect 0 0 5 0;
#X connect 1 0 0 0;
#X connect 2 0 1 0;
#X connect 3 0 1 1;
#X connect 3 0 4 0;
#X connect 4 0 2 0;
#X connect 6 0 7 0;
#X connect 7 0 5 0;
#X coords 0 -1 1 1 125 90 1 50 30;
