#N canvas 98 132 450 354 12;
#X obj 81 21 cnv 15 83 98 empty empty ::..Amp..:: 2 8 0 12 -233017
-66577 0;
#X obj 86 51 vsl 16 60 0 1 0 0 empty empty A 5 -9 0 10 -262144 -1 -1
0 1;
#X obj 105 51 vsl 16 60 0 1 0 0 empty empty D 5 -9 0 10 -262144 -1
-1 5900 1;
#X obj 124 51 vsl 16 60 0 1 0 0 empty empty S 5 -9 0 10 -262144 -1
-1 1200 1;
#X obj 143 51 vsl 16 60 0 1 0 0 empty empty R 5 -9 0 10 -262144 -1
-1 0 1;
#X obj 124 251 pack f f f f;
#X msg 124 276 env \$1 \$2 \$3 \$4;
#X obj 124 225 b;
#X obj 124 301 outlet;
#X obj 158 181 pow 2;
#X obj 36 158 pow 3;
#X obj 205 158 pow 3;
#X obj 93 154 pow 3;
#X obj 36 183 * 10000;
#X obj 93 183 * 10000;
#X obj 205 185 * 10000;
#X connect 1 0 10 0;
#X connect 2 0 12 0;
#X connect 2 0 7 0;
#X connect 3 0 9 0;
#X connect 3 0 7 0;
#X connect 4 0 7 0;
#X connect 4 0 11 0;
#X connect 5 0 6 0;
#X connect 6 0 8 0;
#X connect 7 0 5 0;
#X connect 9 0 5 2;
#X connect 10 0 13 0;
#X connect 11 0 15 0;
#X connect 12 0 14 0;
#X connect 13 0 5 0;
#X connect 14 0 5 1;
#X connect 15 0 5 3;
#X coords 0 -1 1 1 85 100 2 80 20;
