#N canvas 671 239 450 300 12;
#X obj 198 158 inlet~;
#X obj 198 183 delwrite~ \$0ff 100;
#X obj 198 233 outlet~;
#X obj 198 208 delread~ \$0ff 30;
#X obj 122 83 samplerate~;
#X obj 122 108 / 1000;
#X obj 104 164 /;
#X text 72 15 \$1: analysis window;
#X obj 72 89 \$1;
#X obj 72 114 sel 0;
#X obj 72 63 t b b;
#X obj 72 37 loadbang;
#X msg 72 139 1024;
#X floatatom 104 189 5 0 0 0 - - -;
#X connect 0 0 1 0;
#X connect 3 0 2 0;
#X connect 4 0 5 0;
#X connect 5 0 6 1;
#X connect 6 0 13 0;
#X connect 8 0 9 0;
#X connect 9 0 12 0;
#X connect 9 1 6 0;
#X connect 10 0 8 0;
#X connect 10 1 4 0;
#X connect 11 0 10 0;
#X connect 12 0 6 0;
#X connect 13 0 3 0;
