#N canvas 0 95 450 300 12;
#X obj 69 141 writesf~;
#X obj 144 56 inlet~ fwd;
#X obj 211 107 sel 1 0;
#X obj 248 167 else/count;
#X obj 301 192 timestamp;
#X obj 248 217 pack f s;
#X obj 211 133 t b b b;
#X msg 185 165 start;
#X msg 150 95 stop;
#X obj 211 82 route rec;
#X msg 248 241 open /tmp/\$1\\\ \$2.wav;
#X connect 1 0 0 0;
#X connect 1 1 9 0;
#X connect 2 0 6 0;
#X connect 2 1 8 0;
#X connect 3 0 5 0;
#X connect 4 0 5 1;
#X connect 5 0 10 0;
#X connect 6 0 7 0;
#X connect 6 1 3 0;
#X connect 6 2 4 0;
#X connect 7 0 0 0;
#X connect 8 0 0 0;
#X connect 9 0 2 0;
#X connect 10 0 0 0;
