#N canvas 496 185 602 453 12;
#X obj 31 16 cnv 15 178 108 empty \$0name ::..::..Filter-1..::.. 14
8 0 12 -233017 -66577 0;
#X obj 78 46 vsl 16 60 0 1 0 0 empty empty Cutoff -9 -9 0 10 -262144
-1 -1 0 1;
#X obj 105 46 vsl 16 60 0 1 0 0 empty empty Q 5 -9 0 10 -262144 -1
-1 0 1;
#X obj 131 46 vsl 16 60 0 1 0 0 empty empty 2p-4p -7 -9 0 10 -262144
-1 -1 0 1;
#X obj 189 46 vsl 16 60 0 0.999 0 0 empty empty EG 2 -9 0 10 -262144
-1 -1 0 1;
#X obj 158 46 vsl 16 60 0 1 0 0 empty empty Key 0 -9 0 10 -262144 -1
-1 0 1;
#X obj 182 33 cnv 1 1 76 empty empty empty 20 12 0 14 -1 -66577 0;
#X msg 83 178 cutoff \$1;
#X obj 156 174 * 4;
#X msg 253 219 track \$1;
#X msg 207 191 poles \$1;
#X obj 174 323 list trim;
#X msg 237 164 envLevel \$1;
#X msg 156 224 Q \$1;
#X obj 174 348 outlet;
#X obj 174 298 list prepend;
#X obj 277 295 loadbang;
#X obj 277 320 \$1;
#X msg 277 395 symbol filter\$1;
#X obj 35 45 vradio 15 1 0 5 empty empty type 0 -8 0 10 -262144 -1
-1 2;
#X text 50 43 off;
#X text 50 74 LP;
#X text 50 89 HP;
#X text 50 104 BP;
#X msg 35 330 type \$1;
#X msg 321 321 label ::..::..Filter-\$1..::..;
#X obj 321 346 s \$0name;
#X obj 277 345 max 1;
#X obj 156 199 + 0.75;
#X obj 83 152 freq;
#X obj 210 15 envPanel;
#X text 50 57 bp;
#X obj 35 232 - 1;
#X connect 1 0 29 0;
#X connect 2 0 8 0;
#X connect 3 0 10 0;
#X connect 4 0 12 0;
#X connect 5 0 9 0;
#X connect 7 0 15 0;
#X connect 8 0 28 0;
#X connect 9 0 15 0;
#X connect 10 0 15 0;
#X connect 11 0 14 0;
#X connect 12 0 15 0;
#X connect 13 0 15 0;
#X connect 15 0 11 0;
#X connect 16 0 17 0;
#X connect 17 0 27 0;
#X connect 18 0 15 1;
#X connect 19 0 32 0;
#X connect 24 0 15 0;
#X connect 25 0 26 0;
#X connect 27 0 25 0;
#X connect 27 0 18 0;
#X connect 28 0 13 0;
#X connect 29 0 7 0;
#X connect 30 0 15 0;
#X connect 32 0 24 0;
#X coords 0 -1 1 1 265 110 2 30 15;
