#N canvas 0 95 450 300 12;
#X obj 136 62 loadbang;
#X obj 136 87 samplerate~, f 12;
#X obj 136 112 list prepend \$1;
#X obj 136 137 /;
#X msg 136 162 set 64 1 \$1;
#X obj 136 187 outlet;
#X text 186 190 connect this to a [block~];
#X connect 0 0 1 0;
#X connect 1 0 2 0;
#X connect 2 0 3 0;
#X connect 3 0 4 0;
#X connect 4 0 5 0;
