#N canvas 0 95 450 300 12;
#X obj 276 84 r \$1;
#X obj 276 109 clip 0 1;
#X obj 276 134 pow 3;
#X obj 276 159 * 21000;
#X obj 276 184 outlet;
#X obj 240 53 inlet;
#X connect 0 0 1 0;
#X connect 1 0 2 0;
#X connect 2 0 3 0;
#X connect 3 0 4 0;
#X connect 5 0 1 0;
