#N canvas 0 95 450 300 12;
#X obj 203 44 inlet;
#X obj 203 71 t f f;
#X obj 235 97 % 2;
#X msg 239 144 1 \$1;
#X obj 239 169 /;
#X obj 221 204 outlet;
#X obj 203 124 AB;
#X msg 203 169 0;
#X connect 0 0 1 0;
#X connect 1 0 6 0;
#X connect 1 1 2 0;
#X connect 2 0 6 1;
#X connect 3 0 4 0;
#X connect 4 0 5 0;
#X connect 6 0 7 0;
#X connect 6 1 3 0;
#X connect 7 0 5 0;
