#N canvas 0 95 450 300 12;
#X obj 149 89 inlet;
#X msg 149 114 1 \$1;
#X obj 149 139 /;
#X obj 149 164 outlet;
#X text 91 64 sawtooth function for sinesum \;;
#X connect 0 0 1 0;
#X connect 1 0 2 0;
#X connect 2 0 3 0;
