#N canvas 789 216 450 300 12;
#X obj 103 24 inlet;
#X obj 103 51 t f f;
#X obj 135 77 % 2;
#X obj 153 198 outlet;
#X obj 103 97 AB;
#X msg 103 140 0;
#X obj 199 84 v invert\$0;
#X obj 199 33 loadbang;
#X msg 199 58 1;
#X obj 138 134 expr invert\$0 = invert\$0*-1 \; 1/pow($f1 \, 2)*invert\$0
;
#X connect 0 0 1 0;
#X connect 1 0 4 0;
#X connect 1 1 2 0;
#X connect 2 0 4 1;
#X connect 4 0 5 0;
#X connect 4 1 9 0;
#X connect 5 0 3 0;
#X connect 7 0 8 0;
#X connect 8 0 6 0;
#X connect 9 1 3 0;
