#N canvas 0 95 450 300 12;
#X obj 175 18 inlet;
#X obj 108 78 random \$1;
#X msg 108 128 1 \$1;
#X obj 108 153 /;
#X obj 293 46 inlet;
#X obj 108 203 outlet;
#X obj 207 147 random 2;
#X obj 207 172 * 2;
#X obj 207 197 - 1;
#X obj 108 102 pow 1;
#X obj 268 88 random 6;
#X obj 268 113 / 2;
#X obj 108 178 * 1;
#X obj 175 43 t b b;
#X connect 0 0 13 0;
#X connect 1 0 9 0;
#X connect 2 0 3 0;
#X connect 3 0 12 0;
#X connect 4 0 1 1;
#X connect 6 0 7 0;
#X connect 7 0 8 0;
#X connect 8 0 12 1;
#X connect 9 0 2 0;
#X connect 10 0 11 0;
#X connect 11 0 9 1;
#X connect 12 0 5 0;
#X connect 13 0 1 0;
#X connect 13 1 6 0;
#X connect 13 1 10 0;
