#N canvas 0 95 450 300 12;
#X obj 178 83 inlet;
#X obj 178 108 t l l;
#X obj 215 134 list length;
#X obj 215 159 - 1;
#X obj 166 186 list split;
#X obj 186 227 outlet;
#X connect 0 0 1 0;
#X connect 1 0 4 0;
#X connect 1 1 2 0;
#X connect 2 0 3 0;
#X connect 3 0 4 1;
#X connect 4 1 5 0;
