#N canvas 0 95 450 300 12;
#X obj 70 105 tecla Space;
#X obj 70 132 spigot;
#X obj 70 157 sel 1;
#X obj 153 45 tecla Control_L;
#X msg 70 182 1;
#X obj 160 105 tecla .;
#X obj 160 132 spigot;
#X obj 160 157 sel 1;
#X msg 160 182 0;
#X obj 108 219 outlet;
#X connect 0 0 1 0;
#X connect 1 0 2 0;
#X connect 2 0 4 0;
#X connect 3 0 1 1;
#X connect 3 0 6 1;
#X connect 4 0 9 0;
#X connect 5 0 6 0;
#X connect 6 0 7 0;
#X connect 7 0 8 0;
#X connect 8 0 9 0;
