#N canvas 180 225 445 228 12;
#X obj 34 21 text define entries;
#X obj 82 74 loadbang;
#X obj 34 74 bng 15 250 50 0 empty empty empty 17 7 0 10 -262144 -1
-1;
#X obj 34 122 s ping;
#X obj 34 147 r pong;
#X obj 34 172 text set entries 1e+09;
#X msg 89 114 -1;
#X obj 89 139 text delete entries;
#X obj 34 94 t b b;
#X obj 34 49 r forcePing;
#N canvas 39 147 409 281 chooseLead 1;
#X obj 57 51 text get entries;
#X obj 57 156 s setLead;
#X obj 57 25 r chooseLead;
#X obj 57 104 route player;
#X obj 57 130 list split 1;
#X obj 57 77 list trim;
#X connect 0 0 5 0;
#X connect 2 0 0 0;
#X connect 3 0 4 0;
#X connect 4 0 1 0;
#X connect 5 0 3 0;
#X restore 243 24 pd chooseLead;
#X text 236 79 Use the [register] object inside abstractions to add
them to the pool. Feed [register] with additional info for better filtering
\, and use [text get entries] to do stuff., f 27;
#X connect 1 0 8 0;
#X connect 2 0 8 0;
#X connect 4 0 5 0;
#X connect 6 0 7 0;
#X connect 8 0 3 0;
#X connect 8 1 6 0;
#X connect 9 0 2 0;
