#N canvas 894 196 402 372 12;
#X obj 39 241 tabread4~;
#X obj 39 266 *~;
#X obj 39 291 outlet~;
#X obj 232 222 vline~;
#X obj 232 247 pow~ 3;
#X msg 232 197 \$1 \$2 \, 0 \$3 \$4;
#X obj 193 6 inlet;
#X obj 253 57 prefixMsg \$0;
#X obj 135 274 r \$0table;
#X msg 135 299 set \$1;
#X obj 193 31 route pos;
#X obj 193 88 unpack;
#X obj 39 214 line~;
#X obj 39 163 pack f f f;
#X obj 57 72 r \$0sr;
#X msg 39 189 \$1 \, \$2 \$3;
#X obj 39 134 *;
#X obj 39 47 t f f;
#X obj 71 108 +;
#X obj 71 134 *;
#X obj 148 174 r \$0pitch;
#X obj 148 199 t b f;
#X obj 106 127 / 1;
#N canvas 0 95 450 300 duration 0;
#X obj 112 86 r \$0dur;
#X obj 172 86 r \$0atk;
#X obj 232 86 r \$0dec;
#X obj 114 124 expr $f1+$f2+$f3 \; $f1+$f2;
#X obj 114 251 outlet;
#X obj 230 164 outlet;
#X obj 144 42 b;
#X obj 300 125 r \$0reverse;
#X obj 154 224 t b f;
#X obj 114 224 * 1;
#X obj 300 150 sel 1;
#X msg 293 176 -1;
#X msg 332 176 1;
#X obj 212 251 outlet;
#X connect 0 0 3 0;
#X connect 1 0 3 1;
#X connect 1 0 6 0;
#X connect 2 0 3 2;
#X connect 2 0 6 0;
#X connect 3 0 9 0;
#X connect 3 0 13 0;
#X connect 3 1 5 0;
#X connect 6 0 3 0;
#X connect 7 0 10 0;
#X connect 8 0 9 0;
#X connect 8 1 9 1;
#X connect 9 0 4 0;
#X connect 10 0 11 0;
#X connect 10 1 12 0;
#X connect 11 0 8 0;
#X connect 12 0 8 0;
#X restore 106 32 pd duration;
#X obj 259 92 r \$0atk;
#X obj 286 118 r \$0dec;
#X obj 232 171 pack f f f f;
#X connect 0 0 1 0;
#X connect 1 0 2 0;
#X connect 3 0 4 0;
#X connect 4 0 1 1;
#X connect 5 0 3 0;
#X connect 6 0 10 0;
#X connect 8 0 9 0;
#X connect 9 0 0 0;
#X connect 10 0 11 0;
#X connect 10 1 7 0;
#X connect 11 0 17 0;
#X connect 11 1 26 0;
#X connect 12 0 0 0;
#X connect 13 0 15 0;
#X connect 14 0 16 1;
#X connect 14 0 19 1;
#X connect 15 0 12 0;
#X connect 16 0 13 0;
#X connect 17 0 16 0;
#X connect 17 1 18 0;
#X connect 18 0 19 0;
#X connect 19 0 13 1;
#X connect 20 0 21 0;
#X connect 21 0 22 0;
#X connect 21 1 22 1;
#X connect 22 0 13 2;
#X connect 23 0 18 1;
#X connect 23 1 22 0;
#X connect 23 2 26 3;
#X connect 24 0 26 1;
#X connect 25 0 26 2;
#X connect 26 0 5 0;
