#N canvas 756 173 450 300 12;
#X obj 87 41 notein;
#X obj 87 66 pack;
#X obj 87 91 grid_control;
#X obj 87 206 noteout;
#N canvas 458 221 355 369 reducer 1;
#X obj 68 30 inlet;
#X obj 68 198 t f f;
#X msg 149 197 stop;
#X msg 223 197 play;
#X msg 188 197 rec;
#X obj 68 253 pack;
#X obj 68 280 list append, f 12;
#X obj 68 306 outlet;
#X obj 68 169 limit-range 0 63;
#X obj 68 223 % 8;
#X obj 100 223 div 8;
#X msg 68 55 \$2 \$1;
#X obj 68 80 route 1 3 5;
#X obj 68 112 t f b;
#X obj 112 112 t f b;
#X obj 155 112 t f b;
#X connect 0 0 11 0;
#X connect 2 0 6 1;
#X connect 3 0 6 1;
#X connect 4 0 6 1;
#X connect 5 0 6 0;
#X connect 6 0 7 0;
#X connect 8 0 1 0;
#X connect 9 0 5 0;
#X connect 10 0 5 1;
#X connect 11 0 12 0;
#X connect 12 0 13 0;
#X connect 12 1 14 0;
#X connect 12 2 15 0;
#X connect 13 0 8 0;
#X connect 13 1 2 0;
#X connect 14 0 8 0;
#X connect 14 1 4 0;
#X connect 15 0 8 0;
#X connect 15 1 3 0;
#X restore 99 123 pd reducer;
#X obj 276 23 metronome;
#X obj 191 49 sel 0;
#X obj 191 24 r beat;
#X msg 247 176 mode-set columnsAsTracks, f 15;
#X obj 99 148 print;
#X obj 242 93 click~;
#X obj 242 118 out~;
#X connect 0 0 1 0;
#X connect 0 1 1 1;
#X connect 1 0 2 0;
#X connect 2 0 3 0;
#X connect 2 0 4 0;
#X connect 4 0 9 0;
#X connect 6 0 2 1;
#X connect 6 0 10 1;
#X connect 6 1 10 0;
#X connect 7 0 6 0;
#X connect 8 0 2 1;
#X connect 10 0 11 0;
