#N canvas 0 95 450 609 12;
#X obj 138 19 inlet;
#X obj 138 480 chord;
#X obj 138 505 outlet;
#X obj 170 123 % 12;
#X obj 138 46 route list;
#X obj 138 72 t l l;
#X obj 170 98 unpack;
#X obj 170 148 -;
#X obj 233 148 r \$0key;
#X obj 233 173 % 12;
#X obj 170 173 mod 12;
#X obj 170 199 listFind 0 2 4 5 7 9 11;
#X floatatom 328 224 5 0 0 0 - - - 0;
#X obj 170 224 t b f, f 6;
#X msg 170 249 4;
#X obj 170 274 numSeq;
#X obj 170 299 * 2;
#X obj 170 325 listSink 4;
#X obj 170 350 print;
#X obj 205 73 broadcast \$0;
#X connect 0 0 4 0;
#X connect 1 0 2 0;
#X connect 3 0 7 0;
#X connect 4 0 5 0;
#X connect 4 1 19 0;
#X connect 5 0 1 0;
#X connect 5 1 6 0;
#X connect 6 0 3 0;
#X connect 7 0 10 0;
#X connect 8 0 9 0;
#X connect 9 0 7 1;
#X connect 10 0 11 0;
#X connect 11 0 13 0;
#X connect 11 1 12 0;
#X connect 13 0 14 0;
#X connect 13 1 15 1;
#X connect 14 0 15 0;
#X connect 15 0 16 0;
#X connect 16 0 17 0;
#X connect 17 0 18 0;
