#N canvas 850 473 496 393 12;
#X obj 11 354 hcs/sys_gui;
#X msg 11 314 \$1 configure -menu "";
#X obj 254 224 bng 20 250 50 0 empty theme.obj empty 0 -10 0 12 #272822 #fd971f #e6db74;
#X obj 11 137 bng 20 250 50 0 empty theme.obj empty 0 -10 0 12 #272822 #fd971f #e6db74;
#X text 13 41 ps: drag no edit mode falha!;
#X obj 11 220 t s s;
#X obj 11 164 t b b;
#X obj 254 294 pack s s;
#X obj 43 249 pack s s;
#X obj 155 109 loadbang;
#X obj 155 164 \$0;
#X msg 155 189 symbol winmenu_ctl_\$1;
#X obj 155 136 bng 20 250 50 0 empty empty empty 0 -10 0 12 #fcfcfc #000000 #000000;
#X msg 254 334 \$1 configure -menu $\$2;
#X msg 43 277 set \$2 [\$1 cget -menu];
#X obj 254 252 else/canvas.name 1;
#X obj 11 195 else/canvas.name 1;
#X obj 231 14 else/click;
#X obj 231 41 tgl 20 0 empty empty empty 0 -10 0 12 #fcfcfc #000000 #000000 0 1;
#X obj 231 66 sel 1 0;
#X connect 1 0 0 0;
#X connect 2 0 15 0;
#X connect 3 0 6 0;
#X connect 5 0 1 0;
#X connect 5 1 8 0;
#X connect 6 0 16 0;
#X connect 7 0 13 0;
#X connect 8 0 14 0;
#X connect 9 0 12 0;
#X connect 10 0 11 0;
#X connect 11 0 8 1;
#X connect 11 0 7 1;
#X connect 12 0 10 0;
#X connect 13 0 0 0;
#X connect 14 0 0 0;
#X connect 15 0 7 0;
#X connect 16 0 5 0;
#X connect 17 0 18 0;
#X connect 18 0 19 0;
#X connect 19 0 3 0;
#X connect 19 1 2 0;
