#N canvas 5 92 450 300 12;
#X obj 79 88 inlet;
#X obj 79 113 spigot 1;
#X obj 160 255 outlet;
#X obj 197 133 stripnote;
#X obj 197 158 pack;
#X obj 219 188 bag;
#X msg 288 130 flush;
#X msg 219 213 \$1 0;
#X obj 236 70 inlet;
#X obj 197 108 spigot;
#X obj 132 78 == 0;
#X obj 288 104 sel 0;
#X obj 187 19 loadbang;
#X obj 187 44 \$1;
#X connect 0 0 1 0;
#X connect 0 0 9 0;
#X connect 1 0 2 0;
#X connect 3 0 4 0;
#X connect 3 1 4 1;
#X connect 4 0 2 0;
#X connect 4 0 5 0;
#X connect 5 0 7 0;
#X connect 6 0 5 0;
#X connect 7 0 2 0;
#X connect 8 0 9 1;
#X connect 8 0 10 0;
#X connect 8 0 11 0;
#X connect 9 0 3 0;
#X connect 10 0 1 1;
#X connect 11 0 6 0;
#X connect 12 0 13 0;
#X connect 13 0 10 0;
#X connect 13 0 9 1;
