#N canvas 89 216 450 300 12;
#X obj 99 53 inlet;
#X obj 99 80 list split 1;
#X obj 99 136 moses \$1;
#X obj 152 161 moses \$2;
#X obj 152 187 list append;
#X obj 152 212 outlet;
#X obj 99 109 route float;
#X obj 242 80 inlet;
#X obj 242 105 unpack;
#X connect 0 0 1 0;
#X connect 1 0 6 0;
#X connect 1 1 4 1;
#X connect 2 1 3 0;
#X connect 3 0 4 0;
#X connect 4 0 5 0;
#X connect 6 0 2 0;
#X connect 7 0 8 0;
#X connect 8 0 2 1;
#X connect 8 1 3 1;
