#N canvas 207 137 574 352 12;
#N canvas 0 95 450 300 lowpass 0;
#X obj 89 52 inlet~;
#X obj 297 68 r \$0type;
#X obj 297 118 switch~;
#X obj 89 125 xfade~;
#X obj 89 181 outlet~;
#X obj 258 21 r \$0Q;
#X obj 193 21 inlet~;
#X obj 155 110 r \$0poles;
#X obj 297 93 == 1;
#X obj 89 80 else/lowpass~ 0 0.5;
#X obj 128 153 else/lowpass~ 0 0.5;
#X obj 258 58 / 127;
#X obj 258 83 * 4;
#X connect 0 0 9 0;
#X connect 1 0 8 0;
#X connect 3 0 4 0;
#X connect 3 1 10 0;
#X connect 5 0 11 0;
#X connect 6 0 9 1;
#X connect 6 0 10 1;
#X connect 7 0 3 2;
#X connect 8 0 2 0;
#X connect 9 0 3 0;
#X connect 9 0 3 1;
#X connect 10 0 4 0;
#X connect 11 0 12 0;
#X connect 12 0 10 2;
#X connect 12 0 9 2;
#X restore 65 255 pd lowpass;
#X obj 26 128 inlet~;
#X obj 26 303 outlet~;
#N canvas 0 95 450 300 highpass 0;
#X obj 89 72 inlet~;
#X obj 297 68 r \$0type;
#X obj 297 118 switch~;
#X obj 89 125 xfade~;
#X obj 89 181 outlet~;
#X obj 223 72 r \$0Q;
#X obj 175 41 inlet~;
#X obj 206 105 r \$0poles;
#X obj 89 100 else/highpass~;
#X obj 128 153 else/highpass~;
#X obj 297 93 == 2;
#X connect 0 0 8 0;
#X connect 1 0 10 0;
#X connect 3 0 4 0;
#X connect 3 1 9 0;
#X connect 5 0 8 2;
#X connect 5 0 9 2;
#X connect 6 0 8 1;
#X connect 6 0 9 1;
#X connect 7 0 3 2;
#X connect 8 0 3 0;
#X connect 8 0 3 1;
#X connect 9 0 4 0;
#X connect 10 0 2 0;
#X restore 153 255 pd highpass;
#N canvas 0 95 450 300 bandpass 0;
#X obj 89 72 inlet~;
#X obj 297 68 r \$0type;
#X obj 297 118 switch~;
#X obj 89 125 xfade~;
#X obj 89 181 outlet~;
#X obj 223 72 r \$0Q;
#X obj 175 41 inlet~;
#X obj 206 105 r \$0poles;
#X obj 89 100 else/bandpass~;
#X obj 128 153 else/bandpass~;
#X obj 297 93 == 3;
#X connect 0 0 8 0;
#X connect 1 0 10 0;
#X connect 3 0 4 0;
#X connect 3 1 9 0;
#X connect 5 0 8 2;
#X connect 5 0 9 2;
#X connect 6 0 8 1;
#X connect 6 0 9 1;
#X connect 7 0 3 2;
#X connect 8 0 3 0;
#X connect 8 0 3 1;
#X connect 9 0 4 0;
#X connect 10 0 2 0;
#X restore 245 255 pd bandpass;
#X obj 254 101 inlet~ fwd;
#X obj 78 103 r \$0type;
#X obj 78 128 == 0;
#X obj 26 255 *~ 1;
#X obj 349 176 EG~;
#X obj 349 201 *~;
#X obj 349 151 r \$0gate;
#X obj 169 155 modulate~;
#X obj 349 226 -~;
#X obj 169 18 r \$0cutoff;
#X obj 169 73 lop~ 100;
#X obj 392 181 r \$0envLevel;
#X obj 415 156 r \$0env;
#X obj 390 247 loadbang;
#X obj 390 272 \$1;
#X obj 390 297 s \$0type;
#X obj 261 18 r \$0key;
#X obj 261 43 *;
#X obj 261 68 lop~ 50;
#X obj 324 18 r \$0track;
#X obj 324 46 clip 0 1;
#X obj 458 273 != -1;
#X obj 458 298 switch~;
#X obj 458 247 r \$0type;
#X obj 169 129 max~;
#X obj 169 46 mtof;
#X obj 398 208 / 127;
#X obj 321 126 broadcast \$0;
#X connect 0 0 2 0;
#X connect 1 0 0 0;
#X connect 1 0 4 0;
#X connect 1 0 3 0;
#X connect 1 0 8 0;
#X connect 3 0 2 0;
#X connect 4 0 2 0;
#X connect 5 0 12 1;
#X connect 5 1 32 0;
#X connect 6 0 7 0;
#X connect 7 0 8 1;
#X connect 8 0 2 0;
#X connect 9 0 10 0;
#X connect 10 0 13 0;
#X connect 11 0 9 0;
#X connect 12 0 3 1;
#X connect 12 0 4 1;
#X connect 12 0 0 1;
#X connect 13 0 12 1;
#X connect 14 0 30 0;
#X connect 15 0 29 0;
#X connect 16 0 31 0;
#X connect 17 0 9 1;
#X connect 18 0 19 0;
#X connect 19 0 20 0;
#X connect 21 0 22 0;
#X connect 22 0 23 0;
#X connect 23 0 29 1;
#X connect 24 0 25 0;
#X connect 25 0 22 1;
#X connect 26 0 27 0;
#X connect 28 0 26 0;
#X connect 29 0 12 0;
#X connect 30 0 15 0;
#X connect 31 0 13 1;
#X connect 31 0 10 1;
