#N canvas 0 95 450 300 12;
#X msg 112 183 0;
#X msg 172 183 1;
#X obj 112 133 until;
#X obj 140 70 t b f;
#X obj 112 107 1;
#X obj 140 44 inlet;
#X obj 207 62 inlet;
#X obj 207 108 max 1;
#X obj 254 37 loadbang;
#X obj 254 62 \$1;
#X obj 127 218 outlet;
#X obj 112 158 chance 50;
#X connect 0 0 10 0;
#X connect 1 0 10 0;
#X connect 2 0 11 0;
#X connect 3 0 4 0;
#X connect 3 1 11 1;
#X connect 4 0 2 0;
#X connect 5 0 3 0;
#X connect 6 0 7 0;
#X connect 7 0 4 1;
#X connect 8 0 9 0;
#X connect 9 0 7 0;
#X connect 11 0 0 0;
#X connect 11 1 1 0;
