#N canvas 0 36 1366 671 12;
#X obj 116 68 adc~ 1;
#X obj 116 93 *~ 1;
#X obj 177 420 else/meter~;
#X obj 178 629 dac~ 1;
#X floatatom 448 90 5 0 0 0 - - - 0;
#X obj 184 124 delay~;
#X obj 730 481 reverbs/reverb282~ 5000;
#X obj 739 443 catch~ verb;
#X obj 162 33 hsl 128 15 0 4 0 0 empty empty empty -2 -8 0 10 #fcfcfc
#000000 #000000 0 1;
#X obj 303 341 throw~ verb;
#X msg 180 77 dry 0 \, time 410 \, feedback 0.5 \, level 0.3 \, modInt
4 \, modRate 1.3, f 31;
#X obj 522 244 tecla t;
#X obj 522 269 sel 1;
#X obj 522 294 t b b;
#X obj 522 319 timer;
#X msg 505 399 time \$1;
#X floatatom 554 363 5 0 0 0 - - - 0;
#X obj 40 217 micro-loop;
#X obj 471 360 s tempo;
#X obj 1010 183 adc~ 2;
#X obj 1010 208 overdrive~;
#X obj 1149 272 lop~ 50;
#X floatatom 1177 131 5 0 0 0 - - - 0;
#X obj 1177 155 lop~ 50;
#X floatatom 1107 103 5 0 0 0 - - - 0;
#X msg 1109 127 gain \$1;
#X obj 39 250 *~;
#X obj 1021 284 delay~;
#X obj 1069 327 r tempo;
#X obj 1069 352 * 2;
#X obj 90 242 hsl 128 15 0 1 0 0 empty empty empty -2 -8 0 10 #fcfcfc
#000000 #000000 0 1;
#X obj 90 267 lop~ 50;
#X obj 612 519 random-seq;
#X floatatom 612 544 5 0 0 0 - - - 0;
#X obj 612 445 r tempo;
#X msg 612 495 rate \$1;
#X obj 513 505 LP~;
#X obj 612 568 mtof;
#X msg 612 593 cutoff \$1;
#X msg 505 543 poles 1 \, q 3;
#X obj 407 594 else/crusher~;
#X floatatom 528 606 5 0 0 0 - - - 0;
#X floatatom 519 573 5 0 0 0 - - - 0;
#X obj 993 396 else/meter~;
#X obj 993 542 dac~ 2;
#X obj 558 441 tgl 15 0 empty empty empty 17 7 0 10 #fcfcfc #000000
#000000 0 1;
#X obj 285 249 *~;
#X obj 311 179 hsl 128 15 0 1 0 0 empty empty empty -2 -8 0 10 #fcfcfc
#000000 #000000 0 1;
#X obj 311 204 lop~ 50;
#X obj 612 468 / 4;
#X floatatom 1164 239 5 0 0 0 - - - 0;
#X obj 1023 233 *~ 2;
#X floatatom 1076 241 5 0 0 0 - - - 0;
#X msg 1069 377 time \$1 \, level 0.1 \, feedback 0.2 \, modInt 3 \,
modRate 1.6, f 24;
#X obj 184 583 *~;
#X obj 221 568 hsl 128 15 0 1 0 0 empty empty empty -2 -8 0 10 #fcfcfc
#000000 #000000 0 1;
#X obj 221 593 lop~ 50;
#X floatatom 271 389 5 0 0 0 - - - 0;
#X obj 162 371 else/crusher~;
#X connect 0 0 1 0;
#X connect 1 0 5 0;
#X connect 1 0 17 0;
#X connect 1 0 46 0;
#X connect 1 0 58 0;
#X connect 2 0 54 0;
#X connect 6 0 36 0;
#X connect 7 0 6 0;
#X connect 8 0 1 1;
#X connect 10 0 5 0;
#X connect 11 0 12 0;
#X connect 12 0 13 0;
#X connect 13 0 14 0;
#X connect 13 1 14 1;
#X connect 14 0 16 0;
#X connect 14 0 18 0;
#X connect 15 0 5 0;
#X connect 16 0 15 0;
#X connect 17 0 26 0;
#X connect 19 0 20 0;
#X connect 20 0 51 0;
#X connect 22 0 23 0;
#X connect 24 0 25 0;
#X connect 25 0 20 0;
#X connect 26 0 9 0;
#X connect 26 0 2 0;
#X connect 27 0 43 0;
#X connect 28 0 29 0;
#X connect 29 0 53 0;
#X connect 30 0 31 0;
#X connect 31 0 26 1;
#X connect 32 0 33 0;
#X connect 33 0 37 0;
#X connect 34 0 49 0;
#X connect 35 0 32 0;
#X connect 36 0 40 0;
#X connect 37 0 38 0;
#X connect 38 0 36 0;
#X connect 39 0 36 0;
#X connect 40 0 2 0;
#X connect 41 0 40 1;
#X connect 42 0 40 2;
#X connect 43 0 44 0;
#X connect 45 0 32 0;
#X connect 46 0 9 0;
#X connect 47 0 48 0;
#X connect 48 0 46 1;
#X connect 49 0 35 0;
#X connect 50 0 21 0;
#X connect 51 0 43 0;
#X connect 51 0 27 0;
#X connect 52 0 51 1;
#X connect 53 0 27 0;
#X connect 54 0 3 0;
#X connect 55 0 56 0;
#X connect 56 0 54 1;
#X connect 57 0 58 1;
#X connect 58 0 2 0;
