#N canvas 0 36 1366 671 12;
#X obj 492 590 dac~ 1;
#X obj 301 138 gain~;
#A saved 0.629961;
#X obj 67 162 gain~;
#A saved 0.629961;
#X obj 178 59 adc~ 3 2 1;
#X obj 296 326 fuzz~;
#X obj 366 335 hsl 80 20 0 1 0 0 empty empty empty -2 -8 0 10 #fcfcfc
#000000 #000000 0 1;
#X obj 296 278 else/noisegate~ -40;
#X obj 441 419 else/meter~;
#X obj 503 142 gain~;
#A saved 0.835443;
#X obj 850 152 tecla T;
#X obj 850 177 sel 1;
#X obj 850 202 s tap-tempo;
#X obj 190 23 metronome;
#X obj 699 195 r tempo;
#X msg 696 278 time \$1;
#X obj 546 517 reverbs/reverb282~ 6000;
#X obj 538 490 catch~ verb;
#X floatatom 699 247 5 0 0 0 - - - 0;
#X obj 165 402 gain~;
#A saved 0;
#X obj 165 449 throw~ verb;
#X obj 699 220 * 1;
#X obj 98 295 overdrive~;
#X floatatom 123 225 5 0 0 0 - - - 0;
#X msg 123 249 gain \$1;
#X obj 516 234 overdrive~;
#X floatatom 617 208 5 0 0 0 - - - 0;
#X msg 617 232 gain \$1;
#X msg 686 372 dry 1 \, level 0.6 \, feedback 0.4 \, modRate 1.8 \,
modInt 2 \, lowpass 2000, f 20;
#X obj 941 331 random-seq;
#X obj 990 239 r tempo;
#X obj 990 264 / 4;
#X floatatom 941 356 5 0 0 0 - - - 0;
#X floatatom 631 339 7 0 0 0 - - - 0;
#X msg 570 396 interp 1;
#X obj 532 365 else/downsample~;
#X obj 504 279 LP~;
#X msg 534 268 cutoff 4000 \, poles 1;
#X obj 556 303 rev3~ 96 90 5000 30;
#X connect 1 0 6 0;
#X connect 2 0 21 0;
#X connect 3 0 2 0;
#X connect 3 1 1 0;
#X connect 3 2 8 0;
#X connect 4 0 7 0;
#X connect 5 0 4 1;
#X connect 6 0 4 0;
#X connect 7 0 0 0;
#X connect 8 0 24 0;
#X connect 9 0 10 0;
#X connect 10 0 11 0;
#X connect 13 0 20 0;
#X connect 15 0 7 0;
#X connect 16 0 15 0;
#X connect 17 0 14 0;
#X connect 18 0 19 0;
#X connect 20 0 17 0;
#X connect 21 0 7 0;
#X connect 21 0 18 0;
#X connect 22 0 23 0;
#X connect 23 0 21 0;
#X connect 24 0 35 0;
#X connect 25 0 26 0;
#X connect 26 0 24 0;
#X connect 28 0 31 0;
#X connect 29 0 30 0;
#X connect 30 0 28 0;
#X connect 32 0 34 1;
#X connect 33 0 34 0;
#X connect 34 0 7 0;
#X connect 35 0 37 0;
#X connect 35 0 34 0;
#X connect 36 0 35 0;
#X connect 37 0 34 0;
