#N canvas 137 151 510 443 12;
#X obj 82 111 keyup;
#X obj 128 111 key;
#X msg 82 136 \$1 0;
#X obj 370 91 text define -k \$0.keyboard;
#A set 122 \; 115 \; 120 \; 100 \; 99 \; 118 \; 103 \; 98 \; 104 \;
110 \; 106 \; 109 \; 44 \; 50 \; 119 \; 51 \; 101 \; 114 \; 53 \; 116
\; 54 \; 121 \; 55 \; 117 \; 105 \; 113 \;;
#X f 14;
#X obj 213 161 text set \$0.keyboard 1e+06, f 17;
#X obj 214 131 spigot;
#X obj 253 96 tgl 15 0 empty empty empty 17 7 0 10 -262144 -1 -1 0
1;
#X text 270 92 build!;
#X obj 352 156 sel 1;
#X msg 352 181 -1;
#X obj 352 206 text delete \$0.keyboard, f 11;
#X obj 82 174 unpack;
#X obj 202 346 pack;
#X obj 82 199 text search \$0.keyboard, f 11;
#X msg 112 265 12;
#X obj 142 293 + \$1;
#X obj 202 396 outlet;
#X obj 206 234 inlet;
#X obj 82 239 sel -1 25;
#X obj 189 20 loadbang;
#X obj 189 45 \$2;
#X obj 189 74 sel 0;
#X obj 128 136 pack f 127;
#X obj 202 371 limit 0 128;
#X connect 0 0 2 0;
#X connect 1 0 5 0;
#X connect 1 0 22 0;
#X connect 2 0 11 0;
#X connect 5 0 4 0;
#X connect 6 0 5 1;
#X connect 6 0 8 0;
#X connect 8 0 9 0;
#X connect 9 0 10 0;
#X connect 11 0 13 0;
#X connect 11 1 12 1;
#X connect 12 0 23 0;
#X connect 13 0 18 0;
#X connect 14 0 15 0;
#X connect 15 0 12 0;
#X connect 17 0 15 1;
#X connect 18 1 14 0;
#X connect 18 2 15 0;
#X connect 19 0 20 0;
#X connect 20 0 21 0;
#X connect 21 1 22 1;
#X connect 22 0 11 0;
#X connect 23 0 16 0;
