#N canvas 322 163 521 300 12;
#X obj 26 93 modulate~;
#X obj 26 118 phasor~;
#X obj 256 38 r \$0wave;
#X obj 256 63 route float;
#N canvas 806 394 378 215 sine 0;
#X obj 52 36 inlet~;
#X obj 52 61 +~ 0.25;
#X obj 52 86 cos~;
#X obj 52 164 outlet~;
#X obj 52 137 +~;
#X obj 122 76 -;
#X obj 146 107 t b f;
#X obj 112 106 / 2;
#X obj 52 111 *~ 1;
#X obj 273 88 == 0;
#X obj 273 113 switch~;
#X obj 112 131 +;
#X obj 273 62 r \$0setWave;
#X obj 122 51 r \$0setmax;
#X obj 195 87 r \$0setmin;
#X connect 0 0 1 0;
#X connect 1 0 2 0;
#X connect 2 0 8 0;
#X connect 4 0 3 0;
#X connect 5 0 7 0;
#X connect 6 0 5 0;
#X connect 6 1 5 1;
#X connect 6 1 11 1;
#X connect 7 0 8 1;
#X connect 7 0 11 0;
#X connect 8 0 4 0;
#X connect 9 0 10 0;
#X connect 11 0 4 1;
#X connect 12 0 9 0;
#X connect 13 0 5 0;
#X connect 14 0 6 0;
#X restore 25 195 pd sine;
#N canvas 158 275 334 300 square 0;
#X obj 50 89 wrap~;
#X obj 32 113 -~;
#X obj 97 119 lop~ 20;
#X obj 32 138 +~;
#X obj 50 64 +~;
#X obj 106 90 sig~ 0.5;
#X obj 97 66 inlet~;
#X obj 33 27 inlet~;
#X obj 32 213 outlet~;
#X obj 208 112 switch~;
#X obj 208 87 == 2;
#X obj 90 176 -, f 5;
#X obj 143 209 t b f;
#X obj 32 188 +~;
#X obj 32 163 *~ 1;
#X obj 208 62 r \$0setWave;
#X obj 90 149 r \$0setmax;
#X obj 143 176 r \$0setmin;
#X connect 0 0 1 1;
#X connect 1 0 3 0;
#X connect 2 0 4 1;
#X connect 2 0 3 1;
#X connect 3 0 14 0;
#X connect 4 0 0 0;
#X connect 5 0 2 0;
#X connect 6 0 2 0;
#X connect 7 0 4 0;
#X connect 7 0 1 0;
#X connect 10 0 9 0;
#X connect 11 0 14 1;
#X connect 12 0 11 0;
#X connect 12 1 11 1;
#X connect 12 1 13 1;
#X connect 13 0 8 0;
#X connect 14 0 13 0;
#X connect 15 0 10 0;
#X connect 16 0 11 0;
#X connect 17 0 12 0;
#X restore 141 195 pd square;
#N canvas 104 225 450 205 SH 0;
#X obj 37 36 noise~;
#X obj 37 62 samphold~;
#X obj 97 34 inlet~;
#X obj 38 143 outlet~;
#X obj 295 61 == 5;
#X obj 295 86 switch~;
#X obj 152 68 -, f 5;
#X obj 198 94 t b f;
#X obj 38 90 *~ 1;
#X obj 38 117 +~;
#X obj 152 126 +;
#X obj 295 36 r \$0setWave;
#X obj 152 43 r \$0setmax;
#X obj 198 68 r \$0setmin;
#X obj 152 95 / 2;
#X connect 0 0 1 0;
#X connect 1 0 8 0;
#X connect 2 0 1 1;
#X connect 4 0 5 0;
#X connect 6 0 14 0;
#X connect 7 0 6 0;
#X connect 7 1 6 1;
#X connect 7 1 10 1;
#X connect 8 0 9 0;
#X connect 9 0 3 0;
#X connect 10 0 9 1;
#X connect 11 0 4 0;
#X connect 12 0 6 0;
#X connect 13 0 7 0;
#X connect 14 0 10 0;
#X connect 14 0 8 1;
#X restore 333 195 pd SH;
#N canvas 814 208 371 236 tri 0;
#X obj 29 24 inlet~;
#X obj 84 171 outlet~;
#X obj 28 77 min~ 0;
#X obj 29 50 -~ 0.5;
#X obj 85 43 *~ -0.5;
#X obj 84 96 +~ 0.5;
#X obj 157 76 -;
#X obj 200 102 t b f;
#X obj 84 146 +~;
#X obj 84 121 *~ 1;
#X obj 284 77 switch~;
#X obj 284 52 == 1;
#X obj 157 101 * 4;
#X obj 284 28 r \$0setWave;
#X obj 157 51 r \$0setmax;
#X obj 200 76 r \$0setmin;
#X connect 0 0 3 0;
#X connect 0 0 4 0;
#X connect 2 0 5 0;
#X connect 3 0 2 0;
#X connect 4 0 5 0;
#X connect 5 0 9 0;
#X connect 6 0 12 0;
#X connect 7 0 6 0;
#X connect 7 1 6 1;
#X connect 7 1 8 1;
#X connect 8 0 1 0;
#X connect 9 0 8 0;
#X connect 11 0 10 0;
#X connect 12 0 9 1;
#X connect 13 0 11 0;
#X connect 14 0 6 0;
#X connect 15 0 7 0;
#X restore 87 195 pd tri;
#N canvas 780 303 377 197 ramp 0;
#X obj 16 16 inlet~;
#X obj 71 40 -;
#X obj 103 81 t b f;
#X obj 16 42 *~ 1;
#X obj 16 67 +~;
#X obj 16 92 outlet~;
#X obj 218 62 == 3;
#X obj 218 87 switch~;
#X obj 218 37 r \$0setWave;
#X obj 71 15 r \$0setmax;
#X obj 123 41 r \$0setmin;
#X connect 0 0 3 0;
#X connect 1 0 3 1;
#X connect 2 0 1 0;
#X connect 2 1 1 1;
#X connect 2 1 4 1;
#X connect 3 0 4 0;
#X connect 4 0 5 0;
#X connect 6 0 7 0;
#X connect 8 0 6 0;
#X connect 9 0 1 0;
#X connect 10 0 2 0;
#X restore 218 195 pd ramp;
#N canvas 242 404 328 202 saw 0;
#X obj 27 57 inlet~;
#X obj 27 132 outlet~;
#X obj 231 75 == 4;
#X obj 27 82 *~ -1;
#X obj 27 107 +~ 1;
#X obj 231 100 switch~;
#X obj 81 56 -;
#X obj 133 107 t b f;
#X obj 81 82 * -1;
#X obj 123 138 +;
#X obj 231 50 r \$0setWave;
#X obj 81 31 r \$0setmax;
#X obj 153 68 r \$0setmin;
#X connect 0 0 3 0;
#X connect 2 0 5 0;
#X connect 3 0 4 0;
#X connect 4 0 1 0;
#X connect 6 0 8 0;
#X connect 6 0 9 0;
#X connect 7 0 6 0;
#X connect 7 1 6 1;
#X connect 7 1 9 1;
#X connect 8 0 3 1;
#X connect 9 0 4 1;
#X connect 10 0 2 0;
#X connect 11 0 6 0;
#X connect 12 0 7 0;
#X restore 278 195 pd saw;
#X obj 256 146 s \$0setWave;
#N canvas 641 202 416 223 init 0;
#X obj 107 45 loadbang;
#X msg 107 98 args;
#X obj 107 123 pdcontrol;
#X obj 107 148 listMerge min max rate wave;
#X obj 107 173 outlet;
#X obj 107 71 t b b;
#X msg 165 91 -1 1 1 0;
#X connect 0 0 5 0;
#X connect 1 0 2 0;
#X connect 2 0 3 0;
#X connect 3 0 4 0;
#X connect 5 0 1 0;
#X connect 5 1 6 0;
#X connect 6 0 3 0;
#X restore 167 38 pd init;
#X obj 18 65 r \$0rate;
#X obj 86 38 inlet~ fwd;
#X obj 189 237 *~ 1;
#X obj 189 262 outlet~;
#N canvas 5 95 450 300 table 0;
#X obj 122 129 inlet~;
#X obj 137 216 outlet~;
#X obj 312 83 switch~;
#X obj 312 33 r \$0setWave;
#X obj 312 58 == 6;
#X obj 184 30 r \$0table;
#X obj 122 154 *~ 1024;
#X obj 184 55 symbol;
#X msg 176 83 set \$1;
#X obj 183 134 array size;
#X obj 183 109 t b s;
#X obj 137 189 tabread~;
#X connect 0 0 6 0;
#X connect 3 0 4 0;
#X connect 4 0 2 0;
#X connect 5 0 7 0;
#X connect 6 0 11 0;
#X connect 7 0 8 0;
#X connect 7 0 10 0;
#X connect 8 0 11 0;
#X connect 9 0 6 1;
#X connect 10 0 9 0;
#X connect 10 1 9 1;
#X connect 11 0 1 0;
#X restore 377 195 pd table;
#N canvas 0 95 450 300 keyReset 0;
#X obj 154 137 EG~;
#X obj 172 164 sel 1;
#X obj 154 86 route list;
#X obj 172 234 outlet;
#X obj 217 169 r \$0phase;
#X obj 154 61 inlet;
#X msg 154 111 \$2;
#X obj 172 189 f;
#X connect 0 1 1 0;
#X connect 1 0 7 0;
#X connect 2 0 6 0;
#X connect 4 0 3 0;
#X connect 4 0 7 1;
#X connect 5 0 2 0;
#X connect 6 0 0 0;
#X connect 7 0 3 0;
#X restore 113 98 pd keyReset;
#X obj 330 90 listFind sine tri square rampup rampdown samphold table
, f 22;
#N canvas 116 166 450 300 cookRange 0;
#X obj 232 24 r \$0max;
#X obj 292 102 convert_dB;
#X obj 306 155 convertTone;
#X obj 111 102 convert_dB;
#X obj 124 154 convertTone;
#X obj 50 24 r \$0min;
#X obj 232 184 s \$0setmax;
#X obj 50 185 s \$0setmin;
#X obj 50 50 route float;
#X obj 124 75 symbol;
#X obj 232 50 route float;
#X obj 306 75 symbol;
#X obj 111 127 - 1;
#X obj 292 128 - 1;
#X connect 0 0 10 0;
#X connect 1 0 13 0;
#X connect 2 0 6 0;
#X connect 3 0 12 0;
#X connect 4 0 7 0;
#X connect 5 0 8 0;
#X connect 8 0 7 0;
#X connect 8 1 9 0;
#X connect 9 0 3 0;
#X connect 9 0 4 0;
#X connect 10 0 6 0;
#X connect 10 1 11 0;
#X connect 11 0 1 0;
#X connect 11 0 2 0;
#X connect 12 0 7 0;
#X connect 13 0 6 0;
#X restore 402 38 pd cookRange;
#X obj 153 72 broadcast \$0;
#X connect 0 0 1 0;
#X connect 1 0 4 0;
#X connect 1 0 9 0;
#X connect 1 0 8 0;
#X connect 1 0 7 0;
#X connect 1 0 6 0;
#X connect 1 0 5 0;
#X connect 1 0 16 0;
#X connect 2 0 3 0;
#X connect 3 0 10 0;
#X connect 3 1 18 0;
#X connect 4 0 14 0;
#X connect 5 0 14 0;
#X connect 6 0 14 0;
#X connect 7 0 14 0;
#X connect 8 0 14 0;
#X connect 9 0 14 0;
#X connect 11 0 20 0;
#X connect 12 0 0 0;
#X connect 13 0 0 1;
#X connect 13 1 17 0;
#X connect 13 1 20 0;
#X connect 14 0 15 0;
#X connect 16 0 14 0;
#X connect 17 0 1 1;
#X connect 18 0 10 0;
#X coords 0 300 1 299 100 100 0;
