#N canvas 270 220 433 300 12;
#X obj 26 69 feedForward~;
#X obj 26 204 *~;
#X obj 26 229 outlet~;
#X obj 127 63 env~;
#X obj 127 113 b;
#X msg 127 138 1;
#X obj 44 178 lop~ 50;
#X obj 127 88 moses 10;
#X obj 180 159 expr (($f1 - $f3) / $f2) - $f1 + $f3, f 24;
#X obj 180 204 + 100;
#X obj 180 229 dbtorms;
#X obj 26 34 inlet~ fwd;
#X obj 165 40 prefixMsg \$0;
#X obj 311 68 r \$0threshold;
#X obj 262 130 r \$0ratio;
#N canvas 0 95 450 300 init 1;
#X obj 213 71 loadbang;
#X obj 153 111 \$1;
#X obj 153 136 sel 0;
#X obj 262 107 \$2;
#X obj 262 132 sel 0;
#X msg 153 161 100;
#X msg 153 186 threshold \$1;
#X msg 262 158 1;
#X msg 262 186 ratio \$1;
#X obj 218 223 outlet;
#X connect 0 0 1 0;
#X connect 0 0 3 0;
#X connect 1 0 2 0;
#X connect 2 0 5 0;
#X connect 2 1 6 0;
#X connect 3 0 4 0;
#X connect 4 0 7 0;
#X connect 4 1 8 0;
#X connect 5 0 6 0;
#X connect 6 0 9 0;
#X connect 7 0 8 0;
#X connect 8 0 9 0;
#X restore 165 13 pd init;
#X connect 0 0 1 0;
#X connect 1 0 2 0;
#X connect 3 0 7 0;
#X connect 4 0 5 0;
#X connect 5 0 6 0;
#X connect 6 0 1 1;
#X connect 7 0 4 0;
#X connect 7 1 8 0;
#X connect 8 0 9 0;
#X connect 9 0 10 0;
#X connect 10 0 6 0;
#X connect 11 0 0 0;
#X connect 11 0 3 0;
#X connect 11 1 12 0;
#X connect 13 0 7 1;
#X connect 13 0 8 2;
#X connect 14 0 8 1;
#X connect 15 0 12 0;
