#N canvas 520 246 450 300 12;
#X obj 195 67 loadbang;
#X msg 195 92 args;
#X obj 195 117 pdcontrol;
#X obj 117 137 list;
#X obj 117 46 inlet;
#X obj 150 109 inlet;
#X obj 117 162 list split;
#X obj 117 71 t b f;
#X msg 150 190 \$1;
#X obj 150 215 outlet;
#X connect 0 0 1 0;
#X connect 1 0 2 0;
#X connect 2 0 3 1;
#X connect 3 0 6 0;
#X connect 4 0 7 0;
#X connect 5 0 3 1;
#X connect 6 1 8 0;
#X connect 7 0 3 0;
#X connect 7 1 6 1;
#X connect 8 0 9 0;
