#N canvas 872 293 406 374 12;
#X obj 15 146 inlet;
#X obj 133 270 list store;
#X obj 273 250 b;
#X text 28 21 N argument list \, where \$1 is fixed length \;;
#X obj 273 192 spigot;
#X msg 281 220 0;
#X obj 15 172 t b a b;
#X msg 273 161 1;
#X text 25 47 When reaches N \, output the list and allow next input
to reset \;, f 22;
#X obj 133 295 outlet;
#X obj 83 313 inlet;
#X obj 15 306 sel \$1;
#X obj 15 209 f;
#X obj 15 234 + 1;
#X msg 65 231 0;
#X obj 133 202 list prepend append, f 12;
#X obj 133 243 list trim;
#X connect 0 0 6 0;
#X connect 1 0 9 0;
#X connect 2 0 1 1;
#X connect 4 0 2 0;
#X connect 4 0 5 0;
#X connect 5 0 4 1;
#X connect 6 0 12 0;
#X connect 6 1 15 0;
#X connect 6 2 4 0;
#X connect 7 0 4 1;
#X connect 10 0 11 1;
#X connect 11 0 7 0;
#X connect 11 0 1 0;
#X connect 11 0 14 0;
#X connect 12 0 13 0;
#X connect 13 0 12 1;
#X connect 13 0 11 0;
#X connect 14 0 12 1;
#X connect 15 0 16 0;
#X connect 16 0 1 0;
