#N canvas 342 242 450 373 12;
#X obj 37 28 inlet;
#X obj 131 37 inlet;
#X obj 37 117 listStream;
#X obj 191 21 loadbang;
#X msg 191 46 args;
#X obj 191 71 pdcontrol;
#X obj 37 91 list;
#X obj 37 53 t b a;
#X obj 37 143 t a b;
#X obj 213 267 f;
#X obj 251 267 + 1;
#X obj 66 262 b;
#X obj 66 287 f;
#X obj 66 312 outlet;
#X msg 231 241 0;
#X obj 37 213 route;
#X obj 101 213 route symbol;
#X obj 37 180 AB;
#X msg 121 149 0;
#X msg 148 174 1;
#X text 266 106 the ugly mess is because [route] can't be set freely
between floats and symbols. pure gambiarra., f 21;
#X obj 121 120 route float list;
#X obj 182 154 symbol;
#X connect 0 0 7 0;
#X connect 1 0 6 1;
#X connect 2 0 8 0;
#X connect 3 0 4 0;
#X connect 4 0 5 0;
#X connect 5 0 6 1;
#X connect 6 0 2 0;
#X connect 7 0 6 0;
#X connect 7 1 14 0;
#X connect 7 1 21 0;
#X connect 8 0 17 0;
#X connect 8 1 9 0;
#X connect 9 0 10 0;
#X connect 9 0 12 1;
#X connect 10 0 9 1;
#X connect 11 0 12 0;
#X connect 12 0 13 0;
#X connect 14 0 9 1;
#X connect 15 0 11 0;
#X connect 16 0 11 0;
#X connect 17 0 15 0;
#X connect 17 1 16 0;
#X connect 18 0 17 1;
#X connect 19 0 17 1;
#X connect 21 0 15 1;
#X connect 21 0 18 0;
#X connect 21 2 22 0;
#X connect 22 0 16 1;
#X connect 22 0 19 0;
