#N canvas 735 399 506 265 12;
#X obj 29 21 netreceive 7779;
#X obj 29 46 list split 1;
#X obj 36 169 send;
#X obj 44 106 list;
#X obj 29 71 t b a;
#X obj 36 141 list trim;
#X obj 185 53 samplerate~;
#X obj 185 78 v sr;
#X obj 185 25 loadbang;
#X obj 343 67 atoms/shell;
#X msg 343 37 xset -r;
#X msg 405 37 xset r;
#X connect 0 0 1 0;
#X connect 1 0 4 0;
#X connect 1 1 3 1;
#X connect 3 0 5 0;
#X connect 4 0 3 0;
#X connect 4 1 2 1;
#X connect 5 0 2 0;
#X connect 6 0 7 0;
#X connect 8 0 6 0;
#X connect 10 0 9 0;
#X connect 11 0 9 0;
