#N struct 1283-cell float x float y float cellsize float color;
#N canvas 23 36 851 954 12;
#N canvas 738 507 450 300 connection 0;
#X obj 154 36 netreceive 7779;
#X obj 154 61 list split 1;
#X obj 161 165 send;
#X obj 169 112 list;
#X obj 154 86 t b a;
#X obj 161 137 list trim;
#X connect 0 0 1 0;
#X connect 1 0 4 0;
#X connect 1 1 3 1;
#X connect 3 0 5 0;
#X connect 4 0 3 0;
#X connect 4 1 2 1;
#X connect 5 0 2 0;
#X restore 45 223 pd connection;
#N canvas 515 710 371 280 (subpatch) 0;
#N canvas 735 424 450 250 (subpatch) 0;
#X array slot1 128 float 1;
#A 0 0 0 0 0 0 0 0 0 0 0 0 0 0 0 0 0 0 0 0 0 0 0 0 0 0 0 0 0 0 0 0 0 0 0 0 0 0 0 0 0 0 0 0 0 0 0 0 0 0 0 0 0 0 0 0 0 0 0 0 0 0 0 0 0 0 0 0 0 0 0 0 0 0 0 0 0 0 0 0 0 0 0 0 0 0 0 0 0 0 0 0 0 0 0 0 0 0 0 0 0 0 0 0 0 0 0 0 0 0 0 0 0 0 0 0 0 0 0 0 0 0 0 0 0 0 0 0 0;
#X coords 0 1 128 0 95 35 1 0 0;
#X restore 14 58 graph;
#N canvas 739 568 377 250 (subpatch) 0;
#X obj 203 30 hsl 90 12 0 1 0 0 empty empty empty -2 -10 0 12 #fcfcfc #000000 #000000 0 1;
#X obj 203 42 hsl 90 12 0 1 0 0 empty empty empty -2 -10 0 12 #fcfcfc #000000 #000000 0 1;
#X obj 49 130 scripts/sample_trimmer;
#X obj 49 42 t f f;
#X obj 200 101 -;
#X obj 287 100 +;
#X msg 287 125 set \$1;
#X obj 119 200 outlet;
#X msg 49 155 trim_start \$1;
#X msg 200 155 trim_end \$1;
#X connect 0 0 3 0;
#X connect 1 0 4 0;
#X connect 2 0 8 0;
#X connect 2 1 5 0;
#X connect 2 1 9 0;
#X connect 3 0 2 0;
#X connect 3 1 4 1;
#X connect 3 1 5 1;
#X connect 4 0 2 1;
#X connect 5 0 6 0;
#X connect 6 0 1 0;
#X connect 8 0 7 0;
#X connect 9 0 7 0;
#X coords 0 1 100 -1 95 24 1 200 30;
#X restore 14 117 graph;
#X obj 14 97 panels/label;
#X obj 14 154 s smp.ctl_1;
#X obj 123 77 r smp.label_1;
#X connect 1 0 3 0;
#X connect 4 0 2 0;
#X coords 0 1 100 -1 105 105 1 10 40;
#X restore 36 320 graph;
#N canvas 501 349 371 222 (subpatch) 0;
#N canvas 735 424 450 250 (subpatch) 0;
#X array slot5 128 float 1;
#A 0 0 0 0 0 0 0 0 0 0 0 0 0 0 0 0 0 0 0 0 0 0 0 0 0 0 0 0 0 0 0 0 0 0 0 0 0 0 0 0 0 0 0 0 0 0 0 0 0 0 0 0 0 0 0 0 0 0 0 0 0 0 0 0 0 0 0 0 0 0 0 0 0 0 0 0 0 0 0 0 0 0 0 0 0 0 0 0 0 0 0 0 0 0 0 0 0 0 0 0 0 0 0 0 0 0 0 0 0 0 0 0 0 0 0 0 0 0 0 0 0 0 0 0 0 0 0 0 0;
#X coords 0 1 128 0 95 35 1 0 0;
#X restore 14 58 graph;
#X obj 142 135 atoms/timestamp;
#N canvas 739 568 377 250 (subpatch) 0;
#X obj 203 30 hsl 90 12 0 1 0 0 empty empty empty -2 -10 0 12 #fcfcfc #000000 #000000 0 1;
#X obj 203 42 hsl 90 12 0 1 0 0 empty empty empty -2 -10 0 12 #fcfcfc #000000 #000000 0 1;
#X obj 49 130 scripts/sample_trimmer;
#X obj 49 42 t f f;
#X obj 200 101 -;
#X obj 287 100 +;
#X msg 287 125 set \$1;
#X obj 119 200 outlet;
#X msg 49 155 trim_start \$1;
#X msg 200 155 trim_end \$1;
#X connect 0 0 3 0;
#X connect 1 0 4 0;
#X connect 2 0 8 0;
#X connect 2 1 5 0;
#X connect 2 1 9 0;
#X connect 3 0 2 0;
#X connect 3 1 4 1;
#X connect 3 1 5 1;
#X connect 4 0 2 1;
#X connect 5 0 6 0;
#X connect 6 0 1 0;
#X connect 8 0 7 0;
#X connect 9 0 7 0;
#X coords 0 1 100 -1 95 24 1 200 30;
#X restore 14 117 graph;
#X obj 14 97 panels/label;
#X obj 123 77 r smp.label_5;
#X obj 14 154 s smp.ctl_5;
#X connect 2 0 5 0;
#X connect 4 0 3 0;
#X coords 0 1 100 -1 105 105 1 10 40;
#X restore 36 430 graph;
#N canvas 502 385 371 222 (subpatch) 0;
#N canvas 735 424 450 250 (subpatch) 0;
#X array slot2 128 float 1;
#A 0 0 0 0 0 0 0 0 0 0 0 0 0 0 0 0 0 0 0 0 0 0 0 0 0 0 0 0 0 0 0 0 0 0 0 0 0 0 0 0 0 0 0 0 0 0 0 0 0 0 0 0 0 0 0 0 0 0 0 0 0 0 0 0 0 0 0 0 0 0 0 0 0 0 0 0 0 0 0 0 0 0 0 0 0 0 0 0 0 0 0 0 0 0 0 0 0 0 0 0 0 0 0 0 0 0 0 0 0 0 0 0 0 0 0 0 0 0 0 0 0 0 0 0 0 0 0 0 0;
#X coords 0 1 128 0 95 35 1 0 0;
#X restore 14 58 graph;
#X obj 142 135 atoms/timestamp;
#N canvas 739 568 377 250 (subpatch) 0;
#X obj 203 30 hsl 90 12 0 1 0 0 empty empty empty -2 -10 0 12 #fcfcfc #000000 #000000 0 1;
#X obj 203 42 hsl 90 12 0 1 0 0 empty empty empty -2 -10 0 12 #fcfcfc #000000 #000000 0 1;
#X obj 49 130 scripts/sample_trimmer;
#X obj 49 42 t f f;
#X obj 200 101 -;
#X obj 287 100 +;
#X msg 287 125 set \$1;
#X obj 119 200 outlet;
#X msg 49 155 trim_start \$1;
#X msg 200 155 trim_end \$1;
#X connect 0 0 3 0;
#X connect 1 0 4 0;
#X connect 2 0 8 0;
#X connect 2 1 5 0;
#X connect 2 1 9 0;
#X connect 3 0 2 0;
#X connect 3 1 4 1;
#X connect 3 1 5 1;
#X connect 4 0 2 1;
#X connect 5 0 6 0;
#X connect 6 0 1 0;
#X connect 8 0 7 0;
#X connect 9 0 7 0;
#X coords 0 1 100 -1 95 24 1 200 30;
#X restore 14 117 graph;
#X obj 14 97 panels/label;
#X obj 123 77 r smp.label_2;
#X obj 14 154 s smp.ctl_2;
#X connect 2 0 5 0;
#X connect 4 0 3 0;
#X coords 0 1 100 -1 105 105 1 10 40;
#X restore 146 320 graph;
#N canvas 501 349 371 222 (subpatch) 0;
#N canvas 736 460 450 250 (subpatch) 0;
#X array slot6 128 float 1;
#A 0 0 0 0 0 0 0 0 0 0 0 0 0 0 0 0 0 0 0 0 0 0 0 0 0 0 0 0 0 0 0 0 0 0 0 0 0 0 0 0 0 0 0 0 0 0 0 0 0 0 0 0 0 0 0 0 0 0 0 0 0 0 0 0 0 0 0 0 0 0 0 0 0 0 0 0 0 0 0 0 0 0 0 0 0 0 0 0 0 0 0 0 0 0 0 0 0 0 0 0 0 0 0 0 0 0 0 0 0 0 0 0 0 0 0 0 0 0 0 0 0 0 0 0 0 0 0 0 0;
#X coords 0 1 128 0 95 35 1 0 0;
#X restore 14 58 graph;
#X obj 142 135 atoms/timestamp;
#N canvas 739 568 377 250 (subpatch) 0;
#X obj 203 30 hsl 90 12 0 1 0 0 empty empty empty -2 -10 0 12 #fcfcfc #000000 #000000 0 1;
#X obj 203 42 hsl 90 12 0 1 0 0 empty empty empty -2 -10 0 12 #fcfcfc #000000 #000000 0 1;
#X obj 49 130 scripts/sample_trimmer;
#X obj 49 42 t f f;
#X obj 200 101 -;
#X obj 287 100 +;
#X msg 287 125 set \$1;
#X obj 119 200 outlet;
#X msg 49 155 trim_start \$1;
#X msg 200 155 trim_end \$1;
#X connect 0 0 3 0;
#X connect 1 0 4 0;
#X connect 2 0 8 0;
#X connect 2 1 5 0;
#X connect 2 1 9 0;
#X connect 3 0 2 0;
#X connect 3 1 4 1;
#X connect 3 1 5 1;
#X connect 4 0 2 1;
#X connect 5 0 6 0;
#X connect 6 0 1 0;
#X connect 8 0 7 0;
#X connect 9 0 7 0;
#X coords 0 1 100 -1 95 24 1 200 30;
#X restore 14 117 graph;
#X obj 14 97 panels/label;
#X obj 123 77 r smp.label_6;
#X obj 14 154 s smp.ctl_6;
#X connect 2 0 5 0;
#X connect 4 0 3 0;
#X coords 0 1 100 -1 105 105 1 10 40;
#X restore 146 430 graph;
#N canvas 501 349 371 222 (subpatch) 0;
#N canvas 735 424 450 250 (subpatch) 0;
#X array slot3 128 float 1;
#A 0 0 0 0 0 0 0 0 0 0 0 0 0 0 0 0 0 0 0 0 0 0 0 0 0 0 0 0 0 0 0 0 0 0 0 0 0 0 0 0 0 0 0 0 0 0 0 0 0 0 0 0 0 0 0 0 0 0 0 0 0 0 0 0 0 0 0 0 0 0 0 0 0 0 0 0 0 0 0 0 0 0 0 0 0 0 0 0 0 0 0 0 0 0 0 0 0 0 0 0 0 0 0 0 0 0 0 0 0 0 0 0 0 0 0 0 0 0 0 0 0 0 0 0 0 0 0 0 0;
#X coords 0 1 128 0 95 35 1 0 0;
#X restore 14 58 graph;
#X obj 142 135 atoms/timestamp;
#N canvas 739 568 377 250 (subpatch) 0;
#X obj 203 30 hsl 90 12 0 1 0 0 empty empty empty -2 -10 0 12 #fcfcfc #000000 #000000 0 1;
#X obj 203 42 hsl 90 12 0 1 0 0 empty empty empty -2 -10 0 12 #fcfcfc #000000 #000000 0 1;
#X obj 49 130 scripts/sample_trimmer;
#X obj 49 42 t f f;
#X obj 200 101 -;
#X obj 287 100 +;
#X msg 287 125 set \$1;
#X obj 119 200 outlet;
#X msg 49 155 trim_start \$1;
#X msg 200 155 trim_end \$1;
#X connect 0 0 3 0;
#X connect 1 0 4 0;
#X connect 2 0 8 0;
#X connect 2 1 5 0;
#X connect 2 1 9 0;
#X connect 3 0 2 0;
#X connect 3 1 4 1;
#X connect 3 1 5 1;
#X connect 4 0 2 1;
#X connect 5 0 6 0;
#X connect 6 0 1 0;
#X connect 8 0 7 0;
#X connect 9 0 7 0;
#X coords 0 1 100 -1 95 24 1 200 30;
#X restore 14 117 graph;
#X obj 14 97 panels/label;
#X obj 123 77 r smp.label_3;
#X obj 14 154 s smp.ctl_3;
#X connect 2 0 5 0;
#X connect 4 0 3 0;
#X coords 0 1 100 -1 105 105 1 10 40;
#X restore 256 320 graph;
#N canvas 501 349 371 222 (subpatch) 0;
#N canvas 735 424 450 250 (subpatch) 0;
#X array slot7 128 float 1;
#A 0 0 0 0 0 0 0 0 0 0 0 0 0 0 0 0 0 0 0 0 0 0 0 0 0 0 0 0 0 0 0 0 0 0 0 0 0 0 0 0 0 0 0 0 0 0 0 0 0 0 0 0 0 0 0 0 0 0 0 0 0 0 0 0 0 0 0 0 0 0 0 0 0 0 0 0 0 0 0 0 0 0 0 0 0 0 0 0 0 0 0 0 0 0 0 0 0 0 0 0 0 0 0 0 0 0 0 0 0 0 0 0 0 0 0 0 0 0 0 0 0 0 0 0 0 0 0 0 0;
#X coords 0 1 128 0 95 35 1 0 0;
#X restore 14 58 graph;
#X obj 142 135 atoms/timestamp;
#N canvas 739 568 377 250 (subpatch) 0;
#X obj 203 30 hsl 90 12 0 1 0 0 empty empty empty -2 -10 0 12 #fcfcfc #000000 #000000 0 1;
#X obj 203 42 hsl 90 12 0 1 0 0 empty empty empty -2 -10 0 12 #fcfcfc #000000 #000000 0 1;
#X obj 49 130 scripts/sample_trimmer;
#X obj 49 42 t f f;
#X obj 200 101 -;
#X obj 287 100 +;
#X msg 287 125 set \$1;
#X obj 119 200 outlet;
#X msg 49 155 trim_start \$1;
#X msg 200 155 trim_end \$1;
#X connect 0 0 3 0;
#X connect 1 0 4 0;
#X connect 2 0 8 0;
#X connect 2 1 5 0;
#X connect 2 1 9 0;
#X connect 3 0 2 0;
#X connect 3 1 4 1;
#X connect 3 1 5 1;
#X connect 4 0 2 1;
#X connect 5 0 6 0;
#X connect 6 0 1 0;
#X connect 8 0 7 0;
#X connect 9 0 7 0;
#X coords 0 1 100 -1 95 24 1 200 30;
#X restore 14 117 graph;
#X obj 14 97 panels/label;
#X obj 123 77 r smp.label_7;
#X obj 14 154 s smp.ctl_7;
#X connect 2 0 5 0;
#X connect 4 0 3 0;
#X coords 0 1 100 -1 105 105 1 10 40;
#X restore 256 430 graph;
#N canvas 507 565 393 293 (subpatch) 0;
#N canvas 735 424 450 250 (subpatch) 0;
#X array slot4 128 float 1;
#A 0 0 0 0 0 0 0 0 0 0 0 0 0 0 0 0 0 0 0 0 0 0 0 0 0 0 0 0 0 0 0 0 0 0 0 0 0 0 0 0 0 0 0 0 0 0 0 0 0 0 0 0 0 0 0 0 0 0 0 0 0 0 0 0 0 0 0 0 0 0 0 0 0 0 0 0 0 0 0 0 0 0 0 0 0 0 0 0 0 0 0 0 0 0 0 0 0 0 0 0 0 0 0 0 0 0 0 0 0 0 0 0 0 0 0 0 0 0 0 0 0 0 0 0 0 0 0 0 0;
#X coords 0 1 128 0 95 35 1 0 0;
#X restore 14 58 graph;
#N canvas 740 604 377 250 (subpatch) 0;
#X obj 203 30 hsl 90 12 0 1 0 0 empty empty empty -2 -10 0 12 #fcfcfc #000000 #000000 0 1;
#X obj 203 42 hsl 90 12 0 1 0 0 empty empty empty -2 -10 0 12 #fcfcfc #000000 #000000 0 1;
#X obj 49 130 scripts/sample_trimmer;
#X obj 49 42 t f f;
#X obj 200 101 -;
#X obj 287 100 +;
#X msg 287 125 set \$1;
#X obj 119 200 outlet;
#X msg 49 155 trim_start \$1;
#X msg 200 155 trim_end \$1;
#X connect 0 0 3 0;
#X connect 1 0 4 0;
#X connect 2 0 8 0;
#X connect 2 1 5 0;
#X connect 2 1 9 0;
#X connect 3 0 2 0;
#X connect 3 1 4 1;
#X connect 3 1 5 1;
#X connect 4 0 2 1;
#X connect 5 0 6 0;
#X connect 6 0 1 0;
#X connect 8 0 7 0;
#X connect 9 0 7 0;
#X coords 0 1 100 -1 95 24 1 200 30;
#X restore 14 117 graph;
#X obj 14 97 panels/label;
#X obj 122 15 r smp.label_4;
#X obj 14 154 s smp.ctl_4;
#X connect 1 0 4 0;
#X connect 3 0 2 0;
#X coords 0 1 100 -1 105 105 1 10 40;
#X restore 366 320 graph;
#N canvas 503 421 371 222 (subpatch) 0;
#N canvas 735 424 450 250 (subpatch) 0;
#X array slot8 128 float 1;
#A 0 0 0 0 0 0 0 0 0 0 0 0 0 0 0 0 0 0 0 0 0 0 0 0 0 0 0 0 0 0 0 0 0 0 0 0 0 0 0 0 0 0 0 0 0 0 0 0 0 0 0 0 0 0 0 0 0 0 0 0 0 0 0 0 0 0 0 0 0 0 0 0 0 0 0 0 0 0 0 0 0 0 0 0 0 0 0 0 0 0 0 0 0 0 0 0 0 0 0 0 0 0 0 0 0 0 0 0 0 0 0 0 0 0 0 0 0 0 0 0 0 0 0 0 0 0 0 0 0;
#X coords 0 1 128 0 95 35 1 0 0;
#X restore 14 58 graph;
#X obj 142 135 atoms/timestamp;
#N canvas 741 640 377 250 (subpatch) 0;
#X obj 203 30 hsl 90 12 0 1 0 0 empty empty empty -2 -10 0 12 #fcfcfc #000000 #000000 0 1;
#X obj 203 42 hsl 90 12 0 1 0 0 empty empty empty -2 -10 0 12 #fcfcfc #000000 #000000 0 1;
#X obj 49 130 scripts/sample_trimmer;
#X obj 49 42 t f f;
#X obj 200 101 -;
#X obj 287 100 +;
#X msg 287 125 set \$1;
#X obj 119 200 outlet;
#X msg 49 155 trim_start \$1;
#X msg 200 155 trim_end \$1;
#X connect 0 0 3 0;
#X connect 1 0 4 0;
#X connect 2 0 8 0;
#X connect 2 1 5 0;
#X connect 2 1 9 0;
#X connect 3 0 2 0;
#X connect 3 1 4 1;
#X connect 3 1 5 1;
#X connect 4 0 2 1;
#X connect 5 0 6 0;
#X connect 6 0 1 0;
#X connect 8 0 7 0;
#X connect 9 0 7 0;
#X coords 0 1 100 -1 95 24 1 200 30;
#X restore 14 117 graph;
#X obj 14 97 panels/label;
#X obj 123 77 r smp.label_8;
#X obj 14 154 s smp.ctl_8;
#X connect 2 0 5 0;
#X connect 4 0 3 0;
#X coords 0 1 100 -1 105 105 1 10 40;
#X restore 366 430 graph;
#X obj 641 35 tgl 40 0 empty empty Keyboard 0 -10 0 20 #fcfcfc #000000 #000000 0 1;
#X obj 44 271 cnv 20 30 24 empty is.rec.at :1 2 12 0 20 #202020 #ff0400 0;
#X obj 75 271 bng 24 250 50 0 empty rec.click empty 0 -10 0 12 #000000 #ff0400 #000000;
#N canvas 736 435 450 300 isrec 0;
#X obj 111 51 r is.rec;
#X obj 111 76 unpack;
#X obj 111 144 metro 240;
#X obj 111 169 s rec.click;
#X msg 209 135 label :\$1;
#X obj 209 160 s is.rec.at;
#X obj 44 212 atoms/timestamp;
#X obj 44 182 sel 0;
#X msg 44 237 set \$1;
#X obj 44 262 send;
#X msg 251 213 symbol smp.label_\$1;
#X connect 0 0 1 0;
#X connect 1 0 2 0;
#X connect 1 0 7 0;
#X connect 1 1 4 0;
#X connect 1 1 10 0;
#X connect 2 0 3 0;
#X connect 4 0 5 0;
#X connect 6 0 8 0;
#X connect 7 0 6 0;
#X connect 8 0 9 0;
#X connect 10 0 9 1;
#X restore 45 246 pd isrec;
#X obj 511 220 macros/sample-unit 1;
#X obj 686 414 macros/sample-unit 8;
#X obj 536 247 macros/sample-unit 2;
#X obj 561 274 macros/sample-unit 3;
#X obj 587 301 macros/sample-unit 4;
#X obj 611 329 macros/sample-unit 5;
#X obj 636 357 macros/sample-unit 6;
#X obj 661 385 macros/sample-unit 7;
#N canvas 762 551 513 439 (subpatch) 0;
#X obj 18 259 inlet~;
#X obj 68 259 inlet~;
#X obj 118 259 inlet~;
#X obj 168 259 inlet~;
#X obj 218 259 inlet~;
#X obj 268 259 inlet~;
#X obj 318 259 inlet~;
#X obj 368 259 inlet~;
#X obj 133 311 else/mtx~ 8 4, f 20;
#X obj 133 336 dac~ 1 2 3 4, f 15;
#X obj 27 29 else/mtx.ctl 8 4 20 0 0 0 0 0 0 0 0 0 0 0 0;
#X text 28 11 1...output-matrix....8;
#X obj 221 46 bng 20 250 50 0 empty empty empty 0 -10 0 12 #fcfcfc #000000 #000000;
#X obj 221 71 atoms/num-seq 8;
#X obj 221 21 loadbang;
#X msg 221 96 \$1 0 1 \, \$1 1 1 \, \$1 2 0 \, \$1 3 0;
#X text 13 38 1 2 3 4, f 1;
#X connect 0 0 8 0;
#X connect 1 0 8 1;
#X connect 2 0 8 2;
#X connect 3 0 8 3;
#X connect 4 0 8 4;
#X connect 5 0 8 5;
#X connect 6 0 8 6;
#X connect 7 0 8 7;
#X connect 8 0 9 0;
#X connect 8 1 9 1;
#X connect 8 2 9 2;
#X connect 8 3 9 3;
#X connect 10 0 8 0;
#X connect 12 0 13 0;
#X connect 13 0 15 0;
#X connect 14 0 12 0;
#X connect 15 0 10 0;
#X coords 0 1 100 -1 182 105 1 10 10;
#X restore 511 442 graph;
#N canvas 746 634 450 356 vox-fx 0;
#X obj 62 255 outlet~;
#X obj 168 135 atoms/chorus~;
#X obj 95 196 else/downsample~;
#X obj 298 81 tgl 20 0 empty empty empty 0 -10 0 12 #fcfcfc #000000 #000000 0 1;
#X obj 168 110 macros/freeze-adsr~;
#X obj 27 90 loadbang;
#X obj 95 39 adc~ 2;
#X obj 141 242 output~;
#X floatatom 232 56 5 0 0 0 - - - 0;
#X msg 232 81 rel \$1;
#X obj 254 161 hsl 170 20 0 1 0 0 empty empty empty -2 -10 0 12 #fcfcfc #000000 #000000 0 1;
#X obj 251 186 pow 3;
#X obj 251 211 * 48000;
#X obj 27 126 tgl 20 0 empty empty empty 0 -10 0 12 #fcfcfc #000000 #000000 0 1;
#X msg 27 163 interp \$1;
#X obj 298 52 r vox.freeze;
#X connect 1 0 2 0;
#X connect 2 0 0 0;
#X connect 2 0 7 0;
#X connect 3 0 4 1;
#X connect 4 0 1 0;
#X connect 5 0 13 0;
#X connect 6 0 4 0;
#X connect 6 0 2 0;
#X connect 8 0 9 0;
#X connect 9 0 4 1;
#X connect 10 0 11 0;
#X connect 11 0 12 0;
#X connect 12 0 2 1;
#X connect 13 0 14 0;
#X connect 14 0 2 0;
#X connect 15 0 3 0;
#X restore 646 153 pd vox-fx;
#X msg 745 81 \; pd dsp \$1;
#X obj 745 35 tgl 40 0 empty empty DSP 0 -10 0 20 #fcfcfc #000000 #000000 0 1;
#N canvas 1088 36 830 956 ctl 0;
#X obj 64 23 inlet;
#X obj 75 54 sel 1 0;
#X msg 75 81 xset -r;
#X msg 137 81 xset r;
#X obj 25 134 keyname, f 8;
#X obj 25 189 spigot;
#X obj 25 159 pack f s;
#X obj 75 108 atoms/shell;
#X obj 25 269 scripts/if_float;
#X obj 25 243 route 1;
#X obj 341 12 panels/rgb;
#X listbox 35 219 12 0 0 0 - - - 0;
#X msg 160 209 \$2 \$1;
#X obj 160 234 route Shift_L;
#X obj 160 259 v l_shift;
#X msg 48 397 \; load.smp_\$1 bang \;;
#X obj 48 372 v sel;
#X obj 182 372 v sel;
#X msg 182 397 \; smp.ctl_\$1 rec \;;
#X obj 303 372 v sel;
#X msg 303 397 \; smp.ctl_\$1 1 \;;
#X obj 410 372 v sel;
#X msg 410 397 \; smp.ctl_\$1 0 \;;
#N canvas 752 472 457 384 ch-selector 0;
#X obj 45 36 inlet;
#X obj 45 120 atoms/range 1 8;
#X obj 45 172 change;
#X obj 52 147 v sel;
#X obj 54 66 loadbang;
#X msg 54 91 1;
#X obj 45 199 atoms/trail;
#X msg 119 258 \; smp.label_\$1 color #e2e2e2 1 #000000 \;;
#X msg 45 300 \; smp.label_\$1 color #ff0000 1 #000000 \;;
#X obj 119 229 atoms/range 1 8;
#X connect 0 0 1 0;
#X connect 1 0 2 0;
#X connect 1 0 3 0;
#X connect 2 0 6 0;
#X connect 4 0 5 0;
#X connect 5 0 1 0;
#X connect 6 0 8 0;
#X connect 6 1 9 0;
#X connect 9 0 7 0;
#X restore 25 455 pd ch-selector;
#X obj 535 372 v sel;
#X msg 535 397 \; smp.ctl_\$1 clear \;;
#X obj 152 458 atoms/tap-tempo;
#X obj 152 483 s set-global-bpm;
#X obj 134 297 sel l r Space ' C T f;
#X obj 286 483 s vox.freeze;
#X connect 0 0 1 0;
#X connect 0 0 5 1;
#X connect 1 0 2 0;
#X connect 1 1 3 0;
#X connect 2 0 7 0;
#X connect 3 0 7 0;
#X connect 4 0 6 0;
#X connect 4 1 6 1;
#X connect 5 0 9 0;
#X connect 5 0 11 0;
#X connect 5 0 12 0;
#X connect 6 0 5 0;
#X connect 8 0 23 0;
#X connect 8 1 28 0;
#X connect 9 0 8 0;
#X connect 12 0 13 0;
#X connect 13 0 14 0;
#X connect 16 0 15 0;
#X connect 17 0 18 0;
#X connect 19 0 20 0;
#X connect 21 0 22 0;
#X connect 24 0 25 0;
#X connect 26 0 27 0;
#X connect 28 0 16 0;
#X connect 28 1 17 0;
#X connect 28 2 19 0;
#X connect 28 3 21 0;
#X connect 28 4 24 0;
#X connect 28 5 26 0;
#X connect 28 6 29 0;
#X restore 641 82 pd ctl;
#X text 45 26 ToDo!!! \; -facilidade pra carregar OU gravar N samples \; -escolher um deles e manipular \; --tocar slices \; --tocar ao contrário \; --aplicar envelope \; - ter um sequenciador disso aí \; --ter "slots" e poder pular entre eles \; --poder gravar comandos \, nao só nota \; --quantizing tbm seria bom \; -aplicar efeitos: reverb \, delay \, distorção \, modulação \; -um seletor de samples - organizar os arquivos tbm \;;
#N canvas 740 604 525 257 (subpatch) 0;
#X floatatom 25 104 5 0 0 1 dB - - 10;
#X obj 25 17 vsl 20 80 0 112 0 0 empty empty empty 0 -9 0 12 #fcfcfc #000000 #000000 0 1;
#N canvas 188 420 450 300 guts 0;
#X obj 126 209 outlet;
#X obj 191 69 inlet;
#X obj 301 167 outlet;
#X obj 301 117 - 100;
#X msg 301 142 set \$1;
#X obj 121 69 inlet;
#X obj 121 94 + 100;
#X obj 196 204 outlet;
#X connect 1 0 3 0;
#X connect 1 0 0 0;
#X connect 3 0 4 0;
#X connect 4 0 2 0;
#X connect 5 0 6 0;
#X connect 6 0 7 0;
#X restore 15 139 pd guts;
#X obj 15 176 s vol_1;
#X floatatom 85 104 5 0 0 1 dB - - 10;
#X obj 85 17 vsl 20 80 0 112 0 0 empty empty empty 0 -9 0 12 #fcfcfc #000000 #000000 0 1;
#N canvas 187 384 450 300 guts 0;
#X obj 126 209 outlet;
#X obj 191 69 inlet;
#X obj 301 167 outlet;
#X obj 301 117 - 100;
#X msg 301 142 set \$1;
#X obj 121 69 inlet;
#X obj 121 94 + 100;
#X obj 196 204 outlet;
#X connect 1 0 3 0;
#X connect 1 0 0 0;
#X connect 3 0 4 0;
#X connect 4 0 2 0;
#X connect 5 0 6 0;
#X connect 6 0 7 0;
#X restore 75 139 pd guts;
#X floatatom 145 104 5 0 0 1 dB - - 10;
#X obj 145 17 vsl 20 80 0 112 0 0 empty empty empty 0 -9 0 12 #fcfcfc #000000 #000000 0 1;
#N canvas 187 384 450 300 guts 0;
#X obj 126 209 outlet;
#X obj 191 69 inlet;
#X obj 301 167 outlet;
#X obj 301 117 - 100;
#X msg 301 142 set \$1;
#X obj 121 69 inlet;
#X obj 121 94 + 100;
#X obj 196 204 outlet;
#X connect 1 0 3 0;
#X connect 1 0 0 0;
#X connect 3 0 4 0;
#X connect 4 0 2 0;
#X connect 5 0 6 0;
#X connect 6 0 7 0;
#X restore 135 139 pd guts;
#X floatatom 205 104 5 0 0 1 dB - - 10;
#X obj 205 17 vsl 20 80 0 112 0 0 empty empty empty 0 -9 0 12 #fcfcfc #000000 #000000 0 1;
#N canvas 187 384 450 300 guts 0;
#X obj 126 209 outlet;
#X obj 191 69 inlet;
#X obj 301 167 outlet;
#X obj 301 117 - 100;
#X msg 301 142 set \$1;
#X obj 121 69 inlet;
#X obj 121 94 + 100;
#X obj 196 204 outlet;
#X connect 1 0 3 0;
#X connect 1 0 0 0;
#X connect 3 0 4 0;
#X connect 4 0 2 0;
#X connect 5 0 6 0;
#X connect 6 0 7 0;
#X restore 195 139 pd guts;
#X floatatom 266 104 5 0 0 1 dB - - 10;
#X obj 266 17 vsl 20 80 0 112 0 0 empty empty empty 0 -9 0 12 #fcfcfc #000000 #000000 0 1;
#N canvas 187 384 450 300 guts 0;
#X obj 126 209 outlet;
#X obj 191 69 inlet;
#X obj 301 167 outlet;
#X obj 301 117 - 100;
#X msg 301 142 set \$1;
#X obj 121 69 inlet;
#X obj 121 94 + 100;
#X obj 196 204 outlet;
#X connect 1 0 3 0;
#X connect 1 0 0 0;
#X connect 3 0 4 0;
#X connect 4 0 2 0;
#X connect 5 0 6 0;
#X connect 6 0 7 0;
#X restore 256 139 pd guts;
#X floatatom 326 104 5 0 0 1 dB - - 10;
#X obj 326 17 vsl 20 80 0 112 0 0 empty empty empty 0 -9 0 12 #fcfcfc #000000 #000000 0 1;
#N canvas 187 384 450 300 guts 0;
#X obj 126 209 outlet;
#X obj 191 69 inlet;
#X obj 301 167 outlet;
#X obj 301 117 - 100;
#X msg 301 142 set \$1;
#X obj 121 69 inlet;
#X obj 121 94 + 100;
#X obj 196 204 outlet;
#X connect 1 0 3 0;
#X connect 1 0 0 0;
#X connect 3 0 4 0;
#X connect 4 0 2 0;
#X connect 5 0 6 0;
#X connect 6 0 7 0;
#X restore 316 139 pd guts;
#X floatatom 386 104 5 0 0 1 dB - - 10;
#X obj 386 17 vsl 20 80 0 112 0 0 empty empty empty 0 -9 0 12 #fcfcfc #000000 #000000 0 1;
#N canvas 187 384 450 300 guts 0;
#X obj 126 209 outlet;
#X obj 191 69 inlet;
#X obj 301 167 outlet;
#X obj 301 117 - 100;
#X msg 301 142 set \$1;
#X obj 121 69 inlet;
#X obj 121 94 + 100;
#X obj 196 204 outlet;
#X connect 1 0 3 0;
#X connect 1 0 0 0;
#X connect 3 0 4 0;
#X connect 4 0 2 0;
#X connect 5 0 6 0;
#X connect 6 0 7 0;
#X restore 376 139 pd guts;
#X floatatom 446 104 5 0 0 1 dB - - 10;
#X obj 446 17 vsl 20 80 0 112 0 0 empty empty empty 0 -9 0 12 #fcfcfc #000000 #000000 0 1;
#N canvas 187 384 450 300 guts 0;
#X obj 126 209 outlet;
#X obj 191 69 inlet;
#X obj 301 167 outlet;
#X obj 301 117 - 100;
#X msg 301 142 set \$1;
#X obj 121 69 inlet;
#X obj 121 94 + 100;
#X obj 196 204 outlet;
#X connect 1 0 3 0;
#X connect 1 0 0 0;
#X connect 3 0 4 0;
#X connect 4 0 2 0;
#X connect 5 0 6 0;
#X connect 6 0 7 0;
#X restore 436 139 pd guts;
#X obj 75 176 s vol_2;
#X obj 135 176 s vol_3;
#X obj 195 176 s vol_4;
#X obj 256 176 s vol_5;
#X obj 316 176 s vol_6;
#X obj 376 176 s vol_7;
#X obj 436 176 s vol_8;
#X connect 0 0 2 0;
#X connect 1 0 2 1;
#X connect 2 0 3 0;
#X connect 2 1 1 0;
#X connect 2 2 0 0;
#X connect 4 0 6 0;
#X connect 5 0 6 1;
#X connect 6 0 25 0;
#X connect 6 1 5 0;
#X connect 6 2 4 0;
#X connect 7 0 9 0;
#X connect 8 0 9 1;
#X connect 9 0 26 0;
#X connect 9 1 8 0;
#X connect 9 2 7 0;
#X connect 10 0 12 0;
#X connect 11 0 12 1;
#X connect 12 0 27 0;
#X connect 12 1 11 0;
#X connect 12 2 10 0;
#X connect 13 0 15 0;
#X connect 14 0 15 1;
#X connect 15 0 28 0;
#X connect 15 1 14 0;
#X connect 15 2 13 0;
#X connect 16 0 18 0;
#X connect 17 0 18 1;
#X connect 18 0 29 0;
#X connect 18 1 17 0;
#X connect 18 2 16 0;
#X connect 19 0 21 0;
#X connect 20 0 21 1;
#X connect 21 0 30 0;
#X connect 21 1 20 0;
#X connect 21 2 19 0;
#X connect 22 0 24 0;
#X connect 23 0 24 1;
#X connect 24 0 31 0;
#X connect 24 1 23 0;
#X connect 24 2 22 0;
#X coords 0 1 100 -1 475 115 1 20 10;
#X restore 36 563 graph;
#X obj 472 35 panels/global-bpm;
#X obj 778 245 adc~ 5 6;
#X obj 778 270 +~;
#X obj 528 575 bng 30 250 50 0 empty empty save\ sample\ (selected) 0 -10 0 16 #fcfcfc #000000 #000000;
#X obj 528 610 v sel;
#X msg 528 635 \; save.smp_\$1 bang \;;
#X obj 544 173 macros/gt-fx~;
#X obj 473 777 panels/virtual-grid;
#X listbox 473 802 20 0 0 0 - - - 0;
#X connect 9 0 25 0;
#X connect 13 0 21 0;
#X connect 14 0 21 7;
#X connect 15 0 21 1;
#X connect 16 0 21 2;
#X connect 17 0 21 3;
#X connect 18 0 21 4;
#X connect 19 0 21 5;
#X connect 20 0 21 6;
#X connect 24 0 23 0;
#X connect 29 0 30 0;
#X connect 29 1 30 1;
#X connect 30 0 14 0;
#X connect 31 0 32 0;
#X connect 32 0 33 0;
#X connect 34 0 13 0;
#X connect 34 0 17 0;
#X connect 34 0 16 0;
#X connect 34 0 15 0;
#X connect 35 0 36 0;
