#N canvas 733 327 506 367 12;
#X obj 29 21 netreceive 7779;
#X obj 29 46 list split 1;
#X obj 36 169 send;
#X obj 44 106 list;
#X obj 29 71 t b a;
#X obj 36 141 list trim;
#X obj 166 62 samplerate~;
#X obj 166 87 v sr;
#X obj 264 148 cputime;
#X obj 264 28 loadbang;
#X obj 264 92 metro 1000;
#X obj 264 120 t b b;
#X obj 264 208 * 0.1;
#X obj 264 177 int;
#X obj 264 59 tgl 19 0 empty empty empty 17 7 0 10 #dfdfdf #000000 #000000 0 1;
#X text 288 59 <-- on/off;
#X obj 264 269 atoms/send-osc param;
#X msg 264 238 cpu \$1;
#X connect 0 0 1 0;
#X connect 1 0 4 0;
#X connect 1 1 3 1;
#X connect 3 0 5 0;
#X connect 4 0 3 0;
#X connect 4 1 2 1;
#X connect 5 0 2 0;
#X connect 6 0 7 0;
#X connect 8 0 13 0;
#X connect 9 0 14 0;
#X connect 9 0 6 0;
#X connect 10 0 11 0;
#X connect 11 0 8 0;
#X connect 11 1 8 1;
#X connect 12 0 17 0;
#X connect 13 0 12 0;
#X connect 14 0 10 0;
#X connect 17 0 16 0;
