#N canvas 0 95 450 300 12;
#X obj 107 106 inlet;
#X obj 107 131 unpack;
#X obj 107 182 pack, f 6;
#X obj 107 207 outlet;
#X obj 146 157 * 1;
#X obj 174 83 inlet;
#X obj 107 157 + \$2;
#X obj 218 39 loadbang;
#X msg 218 64 args;
#X obj 218 89 pdcontrol;
#X obj 199 128 route float;
#X obj 273 154 convertRatio;
#X connect 0 0 1 0;
#X connect 1 0 6 0;
#X connect 1 1 4 0;
#X connect 2 0 3 0;
#X connect 4 0 2 1;
#X connect 5 0 10 0;
#X connect 6 0 2 0;
#X connect 7 0 8 0;
#X connect 8 0 9 0;
#X connect 9 0 10 0;
#X connect 10 0 4 1;
#X connect 10 1 11 0;
#X connect 11 0 4 1;
