#N canvas 0 95 450 300 12;
#X obj 230 85 inlet;
#X obj 230 110 unpack;
#X obj 230 187 pack, f 6;
#X obj 230 212 outlet;
#X obj 269 162 i;
#X obj 269 136 * 1;
#X obj 346 35 loadbang;
#X obj 346 60 \$1;
#X obj 281 60 inlet;
#X connect 0 0 1 0;
#X connect 1 0 2 0;
#X connect 1 1 5 0;
#X connect 2 0 3 0;
#X connect 4 0 2 1;
#X connect 5 0 4 0;
#X connect 6 0 7 0;
#X connect 7 0 5 1;
#X connect 8 0 5 1;
