#N canvas 0 95 450 300 12;
#X obj 230 85 inlet;
#X obj 230 110 unpack;
#X obj 230 161 pack, f 6;
#X obj 230 186 outlet;
#X obj 269 136 * 1;
#X obj 343 35 loadbang;
#X obj 343 60 \$1;
#X obj 287 60 inlet;
#X obj 343 84 sel 0;
#X obj 230 136 + \$2;
#X connect 0 0 1 0;
#X connect 1 0 9 0;
#X connect 1 1 4 0;
#X connect 2 0 3 0;
#X connect 4 0 2 1;
#X connect 5 0 6 0;
#X connect 6 0 8 0;
#X connect 7 0 4 1;
#X connect 8 1 4 1;
#X connect 9 0 2 0;
