#N canvas 484 204 450 300 12;
#X obj 160 65 inlet;
#X obj 160 152 outlet;
#X obj 212 65 inlet;
#X obj 160 125 expr $f1+($f1*$f2);
#X obj 212 90 t b f;
#X connect 0 0 3 0;
#X connect 2 0 4 0;
#X connect 3 0 1 0;
#X connect 4 0 3 0;
#X connect 4 1 3 1;
