#N canvas 5 95 450 300 12;
#X obj 97 125 inlet~;
#X obj 97 159 snapshot~;
#X obj 161 47 loadbang;
#X obj 161 127 metro 40;
#X obj 97 185 outlet;
#X obj 182 75 \$1;
#X obj 182 100 sel 0;
#X floatatom 46 24 10 0 0 0 rms - - 0;
#X connect 0 0 1 0;
#X connect 1 0 4 0;
#X connect 1 0 7 0;
#X connect 2 0 3 0;
#X connect 2 0 5 0;
#X connect 3 0 1 0;
#X connect 5 0 6 0;
#X connect 6 1 3 1;
#X coords 0 -1 1 1 100 27 2 20 20;
