#N canvas 916 409 450 300 12;
#X obj 181 75 inlet;
#X obj 181 150 outlet;
#X obj 229 64 inlet;
#X obj 229 89 t b f;
#X text 73 24 convenience for operator* with hot inlets;
#X obj 181 125 *;
#X connect 0 0 5 0;
#X connect 2 0 3 0;
#X connect 3 0 5 0;
#X connect 3 1 5 1;
#X connect 5 0 1 0;
