#N canvas 70 127 412 218 12;
#X obj 44 38 inlet;
#X obj 44 158 outlet;
#X obj 165 160 outlet;
#X obj 165 123 spigot;
#X obj 204 92 == 0;
#X msg 118 123 0;
#X obj 139 25 inlet;
#X msg 139 50 1;
#X obj 44 103 spigot 1;
#X connect 0 0 3 0;
#X connect 0 0 8 0;
#X connect 3 0 2 0;
#X connect 4 0 3 1;
#X connect 5 0 8 1;
#X connect 5 0 4 0;
#X connect 6 0 7 0;
#X connect 7 0 4 0;
#X connect 7 0 8 1;
#X connect 8 0 1 0;
#X connect 8 0 5 0;
