#N canvas 485 129 450 419 12;
#X obj 304 69 table \$0buffer;
#X msg 167 60 symbol ~/samples;
#X obj 167 85 openpanel;
#X obj 167 110 pack s \$0;
#X msg 167 135 read -resize \$1 \$2buffer;
#X obj 167 160 soundfiler;
#X obj 167 189 b;
#X obj 184 312 outlet;
#X obj 234 209 i;
#X obj 234 234 / 1000;
#X msg 234 259 sr \$1;
#X obj 118 235 \$0;
#X msg 118 260 table \$1buffer;
#X obj 167 35 else/click;
#X obj 354 105 s2l /;
#X msg 296 258 name \$1;
#X obj 272 169 inlet;
#X obj 354 130 getLast;
#X obj 296 231 symbol;
#X obj 41 216 f;
#X msg 41 292 length \$1;
#X obj 57 180 /;
#X obj 85 52 inlet;
#X obj 85 77 b;
#X text 279 319 2nd inlet: reload!;
#X connect 1 0 2 0;
#X connect 2 0 3 0;
#X connect 2 0 14 0;
#X connect 3 0 4 0;
#X connect 4 0 5 0;
#X connect 5 0 6 0;
#X connect 5 0 21 0;
#X connect 5 1 8 0;
#X connect 6 0 11 0;
#X connect 8 0 9 0;
#X connect 9 0 10 0;
#X connect 9 0 21 1;
#X connect 10 0 7 0;
#X connect 11 0 12 0;
#X connect 12 0 7 0;
#X connect 13 0 1 0;
#X connect 14 0 17 0;
#X connect 15 0 7 0;
#X connect 16 0 18 0;
#X connect 16 0 8 0;
#X connect 16 0 6 0;
#X connect 16 0 19 0;
#X connect 17 0 18 0;
#X connect 18 0 15 0;
#X connect 19 0 20 0;
#X connect 20 0 7 0;
#X connect 21 0 19 0;
#X connect 22 0 23 0;
#X connect 23 0 1 0;
