#N canvas 283 181 400 291 12;
#X obj 95 148 *~;
#X obj 26 240 outlet~;
#X obj 113 121 pot~ \$0feedback;
#X obj 25 65 inlet~ fwd;
#X obj 116 61 prefixMsg \$0;
#X obj 26 203 *~;
#N canvas 715 148 415 373 doubleBuffering 1;
#X obj 22 261 *~;
#X obj 110 349 outlet~;
#X obj 22 181 -~ 0.5;
#X obj 22 206 *~ 0.5;
#X obj 22 231 cos~;
#X obj 228 324 *~;
#X obj 208 245 -~ 0.5;
#X obj 208 270 *~ 0.5;
#X obj 208 295 cos~;
#X obj 208 182 +~ 0.5;
#X obj 208 207 wrap~;
#X obj 110 320 +~;
#X obj 48 138 phasor~;
#X obj 48 114 /~;
#X obj 272 203 *~;
#X obj 77 207 *~;
#X obj 86 114 *~ 0.001;
#X obj 165 119 max~ 1;
#X obj 165 94 r \$0window;
#X obj 77 229 delread4~ \$0pitch;
#X obj 272 227 delread4~ \$0pitch;
#X obj 48 81 lop~ 50;
#X obj 48 53 expr~ (pow(2 \, $v1/12)-1)*-1;
#X obj 47 27 inlet~;
#X connect 0 0 11 0;
#X connect 2 0 3 0;
#X connect 3 0 4 0;
#X connect 4 0 0 0;
#X connect 5 0 11 1;
#X connect 6 0 7 0;
#X connect 7 0 8 0;
#X connect 8 0 5 0;
#X connect 9 0 10 0;
#X connect 10 0 6 0;
#X connect 10 0 14 0;
#X connect 11 0 1 0;
#X connect 12 0 2 0;
#X connect 12 0 9 0;
#X connect 12 0 15 0;
#X connect 13 0 12 0;
#X connect 14 0 20 0;
#X connect 15 0 19 0;
#X connect 16 0 13 1;
#X connect 17 0 16 0;
#X connect 17 0 15 1;
#X connect 17 0 14 1;
#X connect 18 0 17 0;
#X connect 19 0 0 1;
#X connect 20 0 5 1;
#X connect 21 0 13 0;
#X connect 22 0 21 0;
#X connect 23 0 22 0;
#X restore 26 176 pd doubleBuffering;
#X obj 116 12 loadbang;
#X msg 116 37 level 1 \, window 80;
#X obj 64 203 pot~ \$0level;
#X obj 26 94 delwrite~ \$0pitch 1000;
#X obj 180 155 inlet~;
#X obj 348 126 \$1;
#X obj 348 151 sig~;
#X obj 180 184 expr~ if($v1 != 0 \, $v2 \, $v1);
#X connect 0 0 10 0;
#X connect 2 0 0 1;
#X connect 3 0 10 0;
#X connect 3 1 4 0;
#X connect 5 0 1 0;
#X connect 6 0 0 0;
#X connect 6 0 5 0;
#X connect 7 0 8 0;
#X connect 7 0 12 0;
#X connect 8 0 4 0;
#X connect 9 0 5 1;
#X connect 11 0 14 0;
#X connect 12 0 13 0;
#X connect 13 0 14 1;
#X connect 14 0 6 0;
