#N canvas 94 124 611 419 12;
#X obj 45 298 -~;
#X obj 373 110 -~;
#X obj 264 219 sig~ 1;
#X obj 160 62 /~;
#X obj 15 334 outlet~;
#X obj 45 234 *~;
#X obj 145 238 *~;
#X obj 45 113 *~;
#X obj 145 208 -~;
#N canvas 715 297 191 233 @hv_obj 0;
#X obj 49 83 -~;
#X obj 50 109 clip~ -1e-37 0;
#X obj 48 22 inlet~;
#X obj 100 39 inlet~;
#X obj 50 190 outlet~;
#X obj 50 164 *~ 1e+37;
#X obj 49 58 min~;
#X obj 50 137 +~ 1e-37;
#X connect 0 0 1 0;
#X connect 1 0 7 0;
#X connect 2 0 6 0;
#X connect 2 0 0 1;
#X connect 3 0 6 1;
#X connect 5 0 4 0;
#X connect 6 0 0 0;
#X connect 7 0 5 0;
#X restore 100 145 pd @hv_obj __lte~f;
#N canvas 258 270 284 226 @hv_obj 0;
#X obj 23 69 -~;
#X obj 23 94 clip~ -1e-37 0;
#X obj 23 18 inlet~;
#X obj 67 19 inlet~;
#X obj 23 159 outlet~;
#X obj 23 136 *~ 1e+37;
#X obj 23 44 min~;
#X obj 23 115 +~ 1e-37;
#X connect 0 0 1 0;
#X connect 1 0 7 0;
#X connect 2 0 6 0;
#X connect 3 0 6 1;
#X connect 3 0 0 1;
#X connect 5 0 4 0;
#X connect 6 0 0 0;
#X connect 7 0 5 0;
#X restore 250 145 pd @hv_obj __gte~f;
#X obj 160 178 -~;
#X obj 45 204 -~;
#X obj 145 264 *~;
#X obj 45 261 *~;
#X obj 369 60 *~;
#N canvas 4 227 253 235 1/Fs 0;
#X obj 55 77 samplerate~;
#X obj 55 47 loadbang;
#X msg 55 105 1 \$1;
#X obj 55 135 /;
#X obj 55 162 sig~;
#X obj 55 189 outlet~;
#X connect 0 0 2 0;
#X connect 1 0 0 0;
#X connect 2 0 3 0;
#X connect 3 0 4 0;
#X connect 4 0 5 0;
#X restore 387 32 pd 1/Fs;
#X obj 369 7 inlet~ Freq;
#X obj 32 43 inlet~ phase~;
#X connect 0 0 4 0;
#X connect 1 0 10 1;
#X connect 2 0 3 0;
#X connect 2 0 1 0;
#X connect 2 0 11 1;
#X connect 2 0 12 1;
#X connect 3 0 7 1;
#X connect 3 0 11 0;
#X connect 5 0 14 0;
#X connect 6 0 13 0;
#X connect 7 0 8 0;
#X connect 7 0 12 0;
#X connect 8 0 6 0;
#X connect 8 0 6 1;
#X connect 9 0 14 1;
#X connect 10 0 13 1;
#X connect 11 0 8 1;
#X connect 12 0 5 0;
#X connect 12 0 5 1;
#X connect 13 0 0 1;
#X connect 14 0 0 0;
#X connect 15 0 1 1;
#X connect 15 0 3 1;
#X connect 15 0 9 1;
#X connect 16 0 15 1;
#X connect 17 0 15 0;
#X connect 18 0 7 0;
#X connect 18 0 9 0;
#X connect 18 0 10 0;
