#N canvas 106 106 413 416 12;
#X obj 73 173 r \$1;
#X obj 83 347 lop~ 50;
#X obj 83 373 outlet~;
#X obj 34 252 clip 0 1;
#X obj 34 278 pow 2;
#X obj 29 173 inlet;
#X obj 124 91 loadbang;
#X msg 124 116 args;
#X obj 124 141 pdcontrol;
#X obj 124 166 list split 1;
#X obj 164 191 route float symbol;
#X text 19 15 1st value must be empty or a receive name \;;
#X obj 51 215 AB, f 5;
#X msg 127 239 1;
#X text 21 39 Initial value can be an absolute value or dB \; eg: [pot~
gain 1] || [pot~ level -3dB];
#X obj 225 219 convertdB;
#X connect 0 0 12 0;
#X connect 1 0 2 0;
#X connect 3 0 4 0;
#X connect 4 0 1 0;
#X connect 5 0 12 0;
#X connect 6 0 7 0;
#X connect 7 0 8 0;
#X connect 8 0 9 0;
#X connect 9 1 10 0;
#X connect 10 0 3 0;
#X connect 10 1 15 0;
#X connect 12 0 3 0;
#X connect 12 1 1 0;
#X connect 13 0 12 1;
#X connect 15 0 1 0;
#X connect 15 0 13 0;
