#N canvas 106 106 413 267 12;
#X obj 114 27 r \$1;
#X obj 114 103 lop~ 50;
#X obj 114 128 outlet~;
#X obj 114 52 clip 0 1;
#X obj 189 60 loadbang;
#X obj 189 85 \$2;
#X obj 114 77 pow 2;
#X obj 64 20 inlet;
#X connect 0 0 3 0;
#X connect 1 0 2 0;
#X connect 3 0 6 0;
#X connect 4 0 5 0;
#X connect 5 0 6 0;
#X connect 6 0 1 0;
#X connect 7 0 3 0;
