#N canvas 475 227 450 344 12;
#X obj 87 26 inlet;
#X obj 87 51 list split 1;
#X obj 87 76 list append \$1;
#X msg 87 101 symbol \$2\$1;
#X obj 87 126 t b s;
#X obj 203 35 inlet;
#X obj 102 161 list;
#X obj 94 215 send;
#X obj 136 298 outlet;
#X obj 136 245 list prepend;
#X obj 136 271 list trim;
#X obj 94 189 list trim;
#X connect 0 0 1 0;
#X connect 1 0 2 0;
#X connect 1 1 6 1;
#X connect 2 0 3 0;
#X connect 3 0 4 0;
#X connect 4 0 6 0;
#X connect 4 1 7 1;
#X connect 4 1 9 1;
#X connect 5 0 2 1;
#X connect 6 0 9 0;
#X connect 6 0 11 0;
#X connect 9 0 10 0;
#X connect 10 0 8 0;
#X connect 11 0 7 0;
