#N canvas 89 131 373 281 12;
#X obj 103 120 text define \$0buffer;
#X obj 71 19 inlet;
#X msg 103 95 read \$1;
#X msg 71 146 line 0 \, bang;
#X obj 71 171 text sequence \$0buffer;
#X obj 71 196 list trim;
#X obj 71 221 outlet;
#X obj 71 69 t b s;
#X obj 71 44 symbol;
#X text 109 15 receive text file;
#X connect 1 0 8 0;
#X connect 2 0 0 0;
#X connect 3 0 4 0;
#X connect 4 0 5 0;
#X connect 5 0 6 0;
#X connect 7 0 3 0;
#X connect 7 1 2 0;
#X connect 8 0 7 0;
