#N canvas 193 188 853 470 12;
#X obj 30 367 numSeq;
#X obj 449 41 inlet;
#X obj 449 67 list split 1;
#X obj 449 403 text set \$0parameters;
#X obj 449 215 text get \$0parameters;
#X obj 449 240 list split;
#X obj 516 94 list split 1;
#X obj 516 187 + 1;
#X obj 482 270 list split 1;
#X obj 449 317 list;
#X obj 522 297 list prepend;
#X obj 497 375 r \$0selected;
#X text 494 40 msg = [id] [param] [value];
#X obj 516 119 listFind;
#X text 586 186 arguments = param list \;;
#X obj 26 82 inlet;
#X obj 45 137 prefixMsg \$0;
#X obj 30 288 r \$0setDefaults;
#X obj 30 315 list split 1;
#X obj 30 392 list;
#X obj 30 417 text set \$0parameters;
#X obj 618 99 r \$0setParams;
#X text 447 21 2rd inlet = set bank;
#X obj 142 108 text get \$0parameters;
#X obj 209 158 list split 1;
#X obj 26 106 route float;
#X obj 142 133 route bang;
#X obj 89 361 - 1;
#X obj 30 341 t f f;
#X obj 26 165 s \$0selected;
#X obj 618 326 list length;
#X obj 449 346 list split;
#X text 591 346 trim exceeding msgs \;;
#X msg 488 154 1, f 2;
#X msg 528 154 0, f 2;
#X obj 449 185 spigot;
#X obj 249 184 listMerge;
#X obj 309 157 r \$0setParams;
#X obj 249 209 listStream;
#X obj 249 234 listSink 2;
#X obj 249 259 outlet;
#X text 16 22 This needs two messages at load time: setParams [names
of parameters] \; setDefaults [N entries] [default values] \;, f 42
;
#X obj 329 38 text define -k \$0parameters;
#A set 0 10 20 30 \; 1 10 20 30 \; 2 10 20 30 \; 3 10 20 30 \;;
#X f 14;
#X obj 153 236 r \$0new;
#X obj 153 286 list;
#X obj 153 312 text set \$0parameters 1e+09, f 18;
#X obj 153 261 b;
#X text 68 81 <= get param list by id;
#X connect 0 0 19 0;
#X connect 1 0 2 0;
#X connect 2 0 35 0;
#X connect 2 1 6 0;
#X connect 4 0 5 0;
#X connect 5 0 9 0;
#X connect 5 1 8 0;
#X connect 6 0 13 0;
#X connect 6 1 10 1;
#X connect 7 0 5 1;
#X connect 8 1 10 0;
#X connect 9 0 31 0;
#X connect 10 0 9 1;
#X connect 11 0 3 1;
#X connect 13 0 7 0;
#X connect 13 0 33 0;
#X connect 13 1 34 0;
#X connect 15 0 25 0;
#X connect 17 0 18 0;
#X connect 18 0 28 0;
#X connect 18 1 19 1;
#X connect 18 1 44 1;
#X connect 19 0 20 0;
#X connect 21 0 13 1;
#X connect 21 0 30 0;
#X connect 23 0 26 0;
#X connect 24 1 36 0;
#X connect 25 0 23 0;
#X connect 25 0 29 0;
#X connect 25 1 16 0;
#X connect 26 1 24 0;
#X connect 27 0 20 1;
#X connect 28 0 0 0;
#X connect 28 1 27 0;
#X connect 30 0 31 1;
#X connect 31 0 3 0;
#X connect 33 0 35 1;
#X connect 34 0 35 1;
#X connect 35 0 4 0;
#X connect 36 0 38 0;
#X connect 37 0 36 1;
#X connect 38 0 39 0;
#X connect 39 0 40 0;
#X connect 43 0 46 0;
#X connect 44 0 45 0;
#X connect 46 0 44 0;
