#N canvas 193 188 774 443 12;
#X obj 37 305 numSeq;
#X obj 28 19 text define \$0parameters;
#X obj 451 35 inlet;
#X obj 451 61 list split 1;
#X obj 451 397 text set \$0parameters;
#X obj 451 209 text get \$0parameters;
#X obj 451 234 list split;
#X obj 518 88 list split 1;
#X obj 518 181 + 1;
#X obj 484 264 list split 1;
#X obj 451 311 list;
#X obj 524 291 list prepend;
#X obj 499 369 r \$0selected;
#X text 496 34 msg = [id] [param] [value];
#X obj 518 113 listFind;
#X text 588 180 arguments = param list \;;
#X obj 26 47 inlet;
#X obj 45 102 prefixMsg \$0;
#X obj 37 228 r \$0setDefaults;
#X obj 37 253 list split 1;
#X obj 37 330 list;
#X obj 37 355 text set \$0parameters;
#X text 40 190 1st arg = N of entries \; rest of list = defaults;
#X obj 620 93 r \$0setParams;
#X text 449 15 2rd inlet = set bank;
#X obj 142 73 text get \$0parameters;
#X obj 209 123 list split 1;
#X obj 26 71 route float;
#X obj 142 98 route bang;
#X obj 96 299 - 1;
#X obj 37 279 t f f;
#X obj 26 130 s \$0selected;
#X obj 156 247 loadbang;
#X msg 156 272 args;
#X obj 156 297 pdcontrol;
#X obj 156 322 s \$0setParams;
#X obj 620 320 list length;
#X obj 451 340 list split;
#X text 593 340 trim exceeding msgs \;;
#X msg 490 148 1, f 2;
#X msg 530 148 0, f 2;
#X obj 451 179 spigot;
#X obj 249 149 listMerge;
#X obj 309 122 r \$0setParams;
#X obj 249 174 listStream;
#X obj 249 199 listSink 2;
#X obj 249 224 outlet;
#X connect 0 0 20 0;
#X connect 2 0 3 0;
#X connect 3 0 41 0;
#X connect 3 1 7 0;
#X connect 5 0 6 0;
#X connect 6 0 10 0;
#X connect 6 1 9 0;
#X connect 7 0 14 0;
#X connect 7 1 11 1;
#X connect 8 0 6 1;
#X connect 9 1 11 0;
#X connect 10 0 37 0;
#X connect 11 0 10 1;
#X connect 12 0 4 1;
#X connect 14 0 8 0;
#X connect 14 0 39 0;
#X connect 14 1 40 0;
#X connect 16 0 27 0;
#X connect 18 0 19 0;
#X connect 19 0 30 0;
#X connect 19 1 20 1;
#X connect 20 0 21 0;
#X connect 23 0 14 1;
#X connect 23 0 36 0;
#X connect 25 0 28 0;
#X connect 26 1 42 0;
#X connect 27 0 25 0;
#X connect 27 0 31 0;
#X connect 27 1 17 0;
#X connect 28 1 26 0;
#X connect 29 0 21 1;
#X connect 30 0 0 0;
#X connect 30 1 29 0;
#X connect 32 0 33 0;
#X connect 33 0 34 0;
#X connect 34 0 35 0;
#X connect 36 0 37 1;
#X connect 37 0 4 0;
#X connect 39 0 41 1;
#X connect 40 0 41 1;
#X connect 41 0 5 0;
#X connect 42 0 44 0;
#X connect 43 0 42 1;
#X connect 44 0 45 0;
#X connect 45 0 46 0;
