#N canvas 852 119 462 339 10;
#N canvas 368 279 391 268 to_disk 0;
#X obj 78 102 inlet~;
#X obj 103 145 writesf~;
#X obj 158 14 inlet;
#X obj 158 36 sel 1 0;
#X obj 158 86 t b b;
#X msg 158 115 start;
#X obj 185 144 \$0;
#X msg 185 169 open /tmp/\$1_record.wav;
#X msg 177 63 stop;
#X connect 0 0 1 0;
#X connect 2 0 3 0;
#X connect 3 0 4 0;
#X connect 3 1 8 0;
#X connect 4 0 5 0;
#X connect 4 1 6 0;
#X connect 5 0 1 0;
#X connect 6 0 7 0;
#X connect 7 0 1 0;
#X connect 8 0 1 0;
#X restore 26 203 pd to_disk;
#X obj 134 185 tgl 15 0 empty empty empty 17 7 0 10 #fcfcfc #000000
#000000 0 1;
#N canvas 396 266 381 233 to_ram 0;
#X obj 71 78 inlet~;
#X obj 71 123 tabwrite~ \$0buffer;
#X obj 192 45 inlet;
#X obj 192 68 sel 1 0;
#X msg 211 92 stop;
#X obj 249 122 /;
#X obj 249 75 loadbang;
#X text 197 157 1 block delay;
#X msg 249 99 64 48;
#X obj 192 140 del;
#X connect 0 0 1 0;
#X connect 2 0 3 0;
#X connect 3 0 9 0;
#X connect 3 1 4 0;
#X connect 4 0 1 0;
#X connect 5 0 9 1;
#X connect 6 0 8 0;
#X connect 8 0 5 0;
#X connect 9 0 1 0;
#X restore 36 176 pd to_ram;
#X obj 221 149 table \$0buffer;
#X obj 134 205 t f f;
#X obj 26 148 inlet~ fwd;
#X obj 134 162 r \$0rec;
#X obj 221 196 block~;
#X obj 221 172 fixSampleRate 48000;
#X obj 161 251 outlet;
#N canvas 283 240 433 434 resolve 0;
#X obj 15 21 inlet;
#X obj 15 89 sel 1 0;
#X obj 56 125 timer;
#X obj 15 207 * 48;
#X obj 258 229 soundfiler;
#X obj 243 42 b;
#X obj 243 65 del 80;
#X obj 243 88 symbol \$0buffer;
#X obj 243 111 pack s \$0;
#X msg 243 183 read -resize /tmp/\$2_record.wav \$1, f 21;
#X obj 15 232 t b f, f 8;
#X obj 15 257 symbol \$0buffer;
#X obj 15 280 pack s f;
#X msg 15 305 \; \$1 resize \$2;
#X obj 15 65 t f f;
#X obj 15 125 40000;
#X obj 56 148 moses 40000;
#X obj 15 43 change;
#X obj 141 144 r \$0noResize;
#X msg 258 158 read /tmp/\$2_record.wav \$1;
#X obj 243 133 AB;
#X obj 15 184 spigot 1;
#X obj 141 166 == 0;
#X obj 174 277 \$0;
#X msg 174 314 table \$1buffer \, sr 48;
#X obj 174 340 outlet;
#X obj 174 247 b;
#X obj 212 265 timestamp;
#X msg 212 288 name \$1;
#X obj 101 108 s \$0length;
#X obj 101 86 prettyTime;
#X obj 174 213 r \$0reload;
#X obj 108 297 f;
#X msg 108 322 length \$1;
#X connect 0 0 17 0;
#X connect 1 0 2 0;
#X connect 1 0 15 0;
#X connect 1 1 2 1;
#X connect 2 0 16 0;
#X connect 2 0 30 0;
#X connect 2 0 32 0;
#X connect 3 0 10 0;
#X connect 4 0 26 0;
#X connect 5 0 6 0;
#X connect 6 0 7 0;
#X connect 7 0 8 0;
#X connect 8 0 20 0;
#X connect 9 0 4 0;
#X connect 10 0 11 0;
#X connect 10 1 12 1;
#X connect 11 0 12 0;
#X connect 12 0 13 0;
#X connect 14 0 1 0;
#X connect 15 0 21 0;
#X connect 16 0 21 0;
#X connect 16 0 26 0;
#X connect 16 1 5 0;
#X connect 17 0 14 0;
#X connect 18 0 20 1;
#X connect 18 0 22 0;
#X connect 19 0 4 0;
#X connect 20 0 9 0;
#X connect 20 1 19 0;
#X connect 21 0 3 0;
#X connect 22 0 21 1;
#X connect 23 0 24 0;
#X connect 24 0 25 0;
#X connect 26 0 23 0;
#X connect 26 0 27 0;
#X connect 27 0 28 0;
#X connect 28 0 25 0;
#X connect 30 0 29 0;
#X connect 31 0 26 0;
#X connect 31 0 32 0;
#X connect 32 0 33 0;
#X connect 33 0 25 0;
#X restore 161 228 pd resolve;
#X text 275 208 features: \; fixed samplerate \; 'infinite' rec \;
< 40s direct \, else read from disk \;, f 19;
#X obj 64 266 metro 300;
#X obj 64 21 cnv 15 50 15 empty \$0dollarzero id:8372 2 8 0 10 #e8e4e0
#000000 0;
#X obj 147 27 loadbang;
#X obj 147 50 \$0;
#X msg 147 73 label id:\$1;
#X obj 147 96 s \$0dollarzero;
#X obj 96 61 bng 15 250 50 0 \$0reload empty resend -38 7 0 10 #fcfcfc
#000000 #000000;
#X obj 64 37 cnv 15 50 15 empty \$0length 0.0ms 2 8 0 10 #e8e4e0 #000000
0;
#X obj 24 41 bng 30 250 50 0 \$0rec empty empty 17 7 0 10 #e8e4e0 #000000
#000000;
#X obj 24 72 bng 14 250 50 0 empty \$0status empty 17 7 0 10 #000000
#fc0400 #000000;
#X obj 64 289 s \$0status;
#X obj 307 24 monitor;
#X obj 307 57 rmstodb;
#X obj 307 80 > 60;
#X obj 307 103 change;
#X obj 307 126 sel 1;
#X obj 40 72 bng 14 250 50 0 empty \$0status empty 17 7 0 10 #000000
#f8fc00 #000000;
#X obj 114 135 broadcast \$0;
#X connect 1 0 4 0;
#X connect 1 0 12 0;
#X connect 4 0 2 1;
#X connect 4 0 0 1;
#X connect 4 1 10 0;
#X connect 5 0 0 0;
#X connect 5 0 2 0;
#X connect 5 0 23 0;
#X connect 5 1 29 0;
#X connect 6 0 1 0;
#X connect 8 0 7 0;
#X connect 10 0 9 0;
#X connect 12 0 22 0;
#X connect 14 0 15 0;
#X connect 15 0 16 0;
#X connect 16 0 17 0;
#X connect 23 0 24 0;
#X connect 24 0 25 0;
#X connect 25 0 26 0;
#X connect 26 0 27 0;
#X connect 27 0 28 0;
#X coords 0 -1 1 1 95 70 1 20 20;
