#N canvas 99 228 466 308 12;
#X obj 31 172 r ping;
#X msg 31 196 args;
#X obj 31 221 pdcontrol;
#X obj 31 271 s pong;
#X obj 31 123 loadbang;
#X obj 145 154 inlet;
#X obj 31 148 s forcePing;
#X obj 31 246 list append;
#X obj 145 179 t b a;
#X text 23 8 Pd uses the \$0 variable to make abstractions unique \,
but doesn't keep track of existent patches. This patch acts like an
index \, pointing to it's 1st argument (you can use the \$0 of the
parent as it's 1st argument)., f 32;
#X connect 0 0 1 0;
#X connect 1 0 2 0;
#X connect 2 0 7 0;
#X connect 4 0 6 0;
#X connect 5 0 8 0;
#X connect 7 0 3 0;
#X connect 8 0 6 0;
#X connect 8 1 7 1;
