#N canvas 0 95 450 300 12;
#X obj 150 58 inlet;
#X obj 150 158 list, f 5;
#X obj 150 183 list trim;
#X obj 150 208 outlet;
#X obj 150 132 until, f 6;
#X obj 150 108 1;
#X obj 150 83 t b a;
#X obj 268 95 loadbang;
#X obj 213 73 inlet;
#X obj 213 112 max 1;
#X obj 268 120 \$1;
#X connect 0 0 6 0;
#X connect 1 0 2 0;
#X connect 2 0 3 0;
#X connect 4 0 1 0;
#X connect 5 0 4 0;
#X connect 6 0 5 0;
#X connect 6 1 1 1;
#X connect 7 0 10 0;
#X connect 8 0 9 0;
#X connect 9 0 5 1;
#X connect 10 0 9 0;
