#N canvas 545 211 489 300 12;
#X obj 29 116 hold 1;
#X obj 29 216 outlet~;
#X msg 29 166 \$1 play \$2;
#X obj 36 12 loadbang;
#X obj 96 91 pack, f 5;
#X obj 29 141 inputRange;
#X obj 29 91 inlet;
#X obj 30 191 clone -s \$1 samplePlayer~ 16;
#X obj 185 119 tableBank 16 \$0 \$1;
#X text 101 12 key range: \$1 + \$2 || 8;
#X obj 36 37 expr \$1 \; \$1 + if(\$2 > 0 \, \$2 \, 8);
#X obj 294 61 cnv 18 65 18 empty \$0name - 2 9 0 12 -233017 -1 0;
#X msg 308 144 label \$1;
#X obj 308 169 s \$0name;
#X obj 274 60 bng 20 250 50 0 empty empty empty 17 7 0 10 -191407 -1
-1;
#X obj 385 78 loadbang;
#X msg 385 103 s -;
#X connect 0 0 5 0;
#X connect 2 0 7 0;
#X connect 3 0 10 0;
#X connect 4 0 5 1;
#X connect 5 0 2 0;
#X connect 6 0 0 0;
#X connect 7 0 1 0;
#X connect 8 0 7 0;
#X connect 8 1 12 0;
#X connect 10 0 4 0;
#X connect 10 1 4 1;
#X connect 12 0 13 0;
#X connect 14 0 8 0;
#X connect 15 0 16 0;
#X connect 16 0 12 0;
#X coords 0 -1 1 1 160 20 1 200 60;
