#N canvas 0 95 683 673 12;
#X obj 363 193 cnv 15 88 300 empty empty empty 2 7 0 12 -233017 -66577
0;
#X obj 237 103 hold 1;
#X obj 24 573 outlet~;
#X obj 237 78 inlet;
#X obj 25 46 tableBank 16 \$0 \$1;
#X obj 293 197 cnv 18 65 18 empty \$0name raw 2 9 0 12 -233017 -1 0
;
#X msg 148 71 label \$1;
#X obj 148 96 s \$0name;
#X obj 273 196 bng 20 250 50 0 \$0load empty load: -30 11 0 10 -191407
-1 -1;
#X obj 172 15 loadbang;
#X msg 172 40 s -;
#X obj 86 221 singlePad;
#X obj 156 221 singlePad;
#X obj 86 291 singlePad;
#X obj 156 291 singlePad;
#X obj 86 361 singlePad;
#X obj 156 361 singlePad;
#X obj 86 431 singlePad;
#X obj 156 431 singlePad;
#X obj 226 221 singlePad;
#X obj 296 221 singlePad;
#X obj 226 291 singlePad;
#X obj 296 291 singlePad;
#X obj 226 361 singlePad;
#X obj 296 361 singlePad;
#X obj 226 431 singlePad;
#X obj 296 431 singlePad;
#X obj 86 153 route 0 1 2 3 4 5 6 7 8 9 10 11 12 13 14 15;
#X obj 25 19 r \$0load;
#X obj 57 512 inputRange 0 15;
#X obj 25 543 clone samplePlayer~ 16;
#X obj 100 573 outlet~;
#X obj 369 244 tgl 15 0 empty \$0setreverse reverse 17 7 0 10 -262144
-1 -1 0 1;
#X obj 372 274 hsl 70 15 0.25 2 0 0 empty \$0setspeed speed -2 -8 0
10 -262144 -1 -1 0 1;
#X obj 372 306 hsl 70 15 0 4 0 0 empty \$0setlevel level -2 -8 0 10
-262144 -1 -1 0 1;
#X obj 372 337 hsl 70 15 0 1 0 0 empty \$0setbalance balance -2 -8
0 10 -262144 -1 -1 0 1;
#X obj 468 501 list prepend 0;
#X obj 468 540 list trim;
#X msg 532 397 level \$1;
#X msg 536 428 balance \$1;
#X msg 518 365 speed \$1;
#X msg 514 334 reverse \$1;
#N canvas 205 270 449 366 newSelection 0;
#X obj 30 27 inlet;
#X obj 53 58 s \$0selected;
#X obj 178 131 loadbang;
#X msg 42 87 label id:\$1;
#X obj 42 112 s \$0showId;
#X obj 160 94 inlet;
#X obj 30 141 presetBank reverse speed level balance startcut endcut
, f 19;
#X msg 178 156 setDefaults 16 0 1 1 0.5 0 1, f 14;
#X obj 30 227 prefixMsg \$0set;
#X msg 30 199 \$1 set \$2;
#X connect 0 0 1 0;
#X connect 0 0 3 0;
#X connect 0 0 6 0;
#X connect 2 0 7 0;
#X connect 3 0 4 0;
#X connect 5 0 6 1;
#X connect 6 0 9 0;
#X connect 7 0 6 0;
#X connect 9 0 8 0;
#X restore 225 521 pd newSelection;
#X obj 425 58 loadbang;
#X obj 425 33 table \$0empty 1;
#N canvas 77 171 403 220 labelize 0;
#X obj 88 20 inlet;
#X obj 88 45 t b s, f 8;
#X obj 88 109 pack f s;
#X obj 88 79 f;
#X obj 166 79 + 1;
#X obj 88 162 outlet;
#X obj 184 22 r \$0load;
#X msg 184 47 0;
#X msg 88 134 \$1 label \$2;
#X connect 0 0 1 0;
#X connect 1 0 3 0;
#X connect 1 1 2 1;
#X connect 2 0 8 0;
#X connect 3 0 4 0;
#X connect 3 0 2 0;
#X connect 4 0 3 1;
#X connect 6 0 7 0;
#X connect 7 0 3 1;
#X connect 8 0 5 0;
#X restore 86 124 pd labelize;
#X msg 425 83 16;
#X obj 425 108 numSeq;
#X msg 425 133 \$1 id \$1;
#N canvas 652 340 479 325 eraseUnused 0;
#X obj 169 12 inlet;
#X obj 169 37 t b b;
#X msg 201 66 stop;
#X obj 169 93 del 50;
#X obj 260 48 r \$0load;
#X msg 260 73 0;
#X obj 242 99 f;
#X obj 242 123 + 1;
#X obj 169 143 -;
#X msg 169 118 16;
#X obj 169 168 until;
#X obj 169 193 f;
#X obj 229 193 + 1;
#X obj 169 218 pack f \$0;
#X msg 169 243 \$1 table \$2empty;
#X obj 169 268 outlet;
#X obj 331 267 outlet;
#X msg 331 242 \$1 label -;
#X connect 0 0 1 0;
#X connect 1 0 3 0;
#X connect 1 1 2 0;
#X connect 1 1 6 0;
#X connect 2 0 3 0;
#X connect 3 0 9 0;
#X connect 4 0 5 0;
#X connect 5 0 6 1;
#X connect 6 0 7 0;
#X connect 7 0 6 1;
#X connect 7 0 8 1;
#X connect 7 0 11 1;
#X connect 8 0 10 0;
#X connect 9 0 8 0;
#X connect 10 0 11 0;
#X connect 11 0 12 0;
#X connect 11 0 13 0;
#X connect 11 0 17 0;
#X connect 12 0 11 1;
#X connect 13 0 14 0;
#X connect 14 0 15 0;
#X connect 17 0 16 0;
#X restore 39 85 pd eraseUnused;
#X obj 549 464 r \$0selected;
#X obj 365 221 cnv 15 40 15 empty \$0showId id:1 2 7 0 12 -33289 -262130
0;
#X obj 372 369 hsl 70 10 0 1 0 0 empty \$0setstartcut trim -2 -8 0
10 -262144 -1 -1 0 1;
#X obj 372 379 hsl 70 10 0 1 0 0 empty \$0setendcut empty -2 -8 0 10
-262144 -1 -1 0 1;
#N canvas 0 95 450 300 individualLoad 0;
#X obj 99 54 inlet;
#X obj 306 81 r \$0selected;
#X obj 99 88 openFile;
#X obj 99 123 outlet;
#X obj 169 108 route name;
#X obj 169 157 list trim;
#X obj 169 182 outlet;
#X obj 169 132 list prepend 0 label;
#X msg 306 106 list \$1 label;
#X connect 0 0 2 0;
#X connect 1 0 8 0;
#X connect 2 0 3 0;
#X connect 2 0 4 0;
#X connect 4 0 7 0;
#X connect 5 0 6 0;
#X connect 7 0 5 0;
#X connect 8 0 7 1;
#X restore 500 305 pd individualLoad;
#X obj 409 221 bng 15 250 50 0 empty empty load 17 7 0 10 -262144 -1
-1;
#X connect 1 0 27 0;
#X connect 3 0 1 0;
#X connect 4 0 30 0;
#X connect 4 1 45 0;
#X connect 4 1 49 0;
#X connect 4 2 6 0;
#X connect 6 0 7 0;
#X connect 9 0 10 0;
#X connect 10 0 6 0;
#X connect 11 0 29 0;
#X connect 11 1 42 0;
#X connect 12 0 29 0;
#X connect 12 1 42 0;
#X connect 13 0 29 0;
#X connect 13 1 42 0;
#X connect 14 0 29 0;
#X connect 14 1 42 0;
#X connect 15 0 29 0;
#X connect 15 1 42 0;
#X connect 16 0 29 0;
#X connect 16 1 42 0;
#X connect 17 0 29 0;
#X connect 17 1 42 0;
#X connect 18 0 29 0;
#X connect 18 1 42 0;
#X connect 19 0 29 0;
#X connect 19 1 42 0;
#X connect 20 0 29 0;
#X connect 20 1 42 0;
#X connect 21 0 29 0;
#X connect 21 1 42 0;
#X connect 22 0 29 0;
#X connect 22 1 42 0;
#X connect 23 0 29 0;
#X connect 23 1 42 0;
#X connect 24 0 29 0;
#X connect 24 1 42 0;
#X connect 25 0 29 0;
#X connect 25 1 42 0;
#X connect 26 0 29 0;
#X connect 26 1 42 0;
#X connect 27 0 11 0;
#X connect 27 1 12 0;
#X connect 27 2 19 0;
#X connect 27 3 20 0;
#X connect 27 4 13 0;
#X connect 27 5 14 0;
#X connect 27 6 21 0;
#X connect 27 7 22 0;
#X connect 27 8 15 0;
#X connect 27 9 16 0;
#X connect 27 10 23 0;
#X connect 27 11 24 0;
#X connect 27 12 17 0;
#X connect 27 13 18 0;
#X connect 27 14 25 0;
#X connect 27 15 26 0;
#X connect 28 0 4 0;
#X connect 29 0 30 0;
#X connect 30 0 2 0;
#X connect 30 1 31 0;
#X connect 32 0 41 0;
#X connect 33 0 40 0;
#X connect 34 0 38 0;
#X connect 35 0 39 0;
#X connect 36 0 37 0;
#X connect 36 0 42 1;
#X connect 37 0 30 0;
#X connect 38 0 36 0;
#X connect 39 0 36 0;
#X connect 40 0 36 0;
#X connect 41 0 36 0;
#X connect 43 0 46 0;
#X connect 45 0 27 0;
#X connect 46 0 47 0;
#X connect 47 0 48 0;
#X connect 48 0 27 0;
#X connect 49 0 30 0;
#X connect 49 1 27 0;
#X connect 50 0 36 1;
#X connect 54 0 36 0;
#X connect 54 1 27 0;
#X connect 55 0 54 0;
#X coords 0 -1 1 1 372 306 1 80 192;
