#N canvas 702 367 399 314 12;
#X obj 128 144 hold 1;
#X obj 73 250 outlet~;
#X obj 128 90 inlet;
#X obj 13 38 tableBank 16 \$0 \$1;
#X obj 13 13 r \$0load;
#X obj 128 170 inputRange 0 15;
#X obj 74 224 clone samplePlayer~ 16;
#X obj 149 250 outlet~;
#N canvas 799 383 479 325 eraseUnused 1;
#X obj 169 12 inlet;
#X obj 169 37 t b b;
#X msg 201 66 stop;
#X obj 169 93 del 50;
#X msg 260 73 0;
#X obj 242 99 f;
#X obj 242 123 + 1;
#X obj 169 143 -;
#X msg 169 118 16;
#X obj 169 168 until;
#X obj 169 193 f;
#X obj 229 193 + 1;
#X obj 169 218 pack f \$0;
#X obj 169 268 outlet;
#X msg 169 243 \$1 table \$2empty \, \$1 sr 48;
#X obj 263 46 r \$0load;
#X obj 58 98 loadbang;
#X text 41 76 starts empty!;
#X obj 325 132 table \$0empty 100;
#X connect 0 0 1 0;
#X connect 1 0 3 0;
#X connect 1 1 2 0;
#X connect 1 1 5 0;
#X connect 2 0 3 0;
#X connect 3 0 8 0;
#X connect 4 0 5 1;
#X connect 5 0 6 0;
#X connect 6 0 5 1;
#X connect 6 0 7 1;
#X connect 6 0 10 1;
#X connect 7 0 9 0;
#X connect 8 0 7 0;
#X connect 9 0 10 0;
#X connect 10 0 11 0;
#X connect 10 0 12 0;
#X connect 11 0 10 1;
#X connect 12 0 14 0;
#X connect 14 0 13 0;
#X connect 15 0 4 0;
#X connect 16 0 8 0;
#X restore 74 64 pd eraseUnused;
#X text 148 38 \$1: starting midi note;
#X obj 188 144 s \$0load;
#X msg 128 196 \$1 play \$2;
#X obj 128 115 route list bang;
#X connect 0 0 5 0;
#X connect 2 0 12 0;
#X connect 3 0 6 0;
#X connect 3 1 8 0;
#X connect 4 0 3 0;
#X connect 5 0 11 0;
#X connect 6 0 1 0;
#X connect 6 1 7 0;
#X connect 8 0 6 0;
#X connect 11 0 6 0;
#X connect 12 0 0 0;
#X connect 12 1 10 0;
#X connect 12 2 6 0;
