#N canvas 463 179 903 464 12;
#X obj 192 286 tabread4~;
#X obj 192 311 *~;
#X obj 144 414 outlet~;
#X obj 296 292 EG~;
#X obj 203 211 r \$0table;
#X msg 203 259 set \$1;
#N canvas 778 416 474 300 setLength 0;
#X obj 144 83 r \$0start;
#X obj 68 83 r \$0end;
#X obj 16 178 *~;
#X obj 16 206 +~;
#X obj 16 235 outlet~;
#X obj 16 124 inlet~;
#X obj 220 83 r \$0sr;
#X obj 296 189 s \$0length;
#X obj 97 56 b;
#X obj 296 8 r \$0table;
#X obj 296 83 array size;
#X obj 296 32 t b a, f 10;
#X obj 68 108 expr $f4 - max(2 \, ($f1+$f2)*$f3) \; max(1 \, $f2*$f3)
\; ($f4 / max(1 \, $f3)) - ($f1+$f2);
#X text 114 236 totalSize - max(2 \, (end+start)*sr) \; max(1 \, start*sr)
\; (totalSize / max(1 \, sr)) - (end+start);
#X obj 363 57 symbol;
#X obj 296 163 max 100;
#X connect 0 0 12 1;
#X connect 0 0 8 0;
#X connect 1 0 12 0;
#X connect 2 0 3 0;
#X connect 3 0 4 0;
#X connect 5 0 2 0;
#X connect 6 0 12 2;
#X connect 6 0 8 0;
#X connect 8 0 12 0;
#X connect 9 0 11 0;
#X connect 10 0 12 3;
#X connect 10 0 8 0;
#X connect 11 0 10 0;
#X connect 11 1 14 0;
#X connect 12 0 2 1;
#X connect 12 1 3 1;
#X connect 12 2 15 0;
#X connect 14 0 10 1;
#X connect 15 0 7 0;
#X restore 192 184 pd setLength;
#N canvas 279 377 410 326 setRate 0;
#X obj 85 47 r \$0length;
#X obj 233 101 r \$0reverse;
#X obj 106 199 lop~ 50;
#X obj 106 225 outlet~;
#X obj 210 187 r \$0transition;
#X msg 210 212 1000 \$1;
#X obj 210 237 /;
#X obj 85 101 /;
#X msg 85 74 1000 \$1;
#X text 238 238 in ms;
#X obj 167 55 inlet~;
#X obj 106 142 modulate~;
#X obj 106 171 *~ 1;
#X obj 233 126 * -2;
#X obj 233 151 + 1;
#X obj 225 55 r \$0speed;
#X obj 167 115 +~;
#X connect 0 0 8 0;
#X connect 1 0 13 0;
#X connect 2 0 3 0;
#X connect 4 0 5 0;
#X connect 5 0 6 0;
#X connect 6 0 2 1;
#X connect 7 0 11 0;
#X connect 8 0 7 0;
#X connect 10 0 16 0;
#X connect 11 0 12 0;
#X connect 12 0 2 0;
#X connect 13 0 14 0;
#X connect 14 0 12 1;
#X connect 15 0 16 1;
#X connect 16 0 11 1;
#X restore 192 106 pd setRate;
#N canvas 714 418 481 274 setSlices 0;
#X obj 204 57 r \$0jump;
#X obj 280 87 r \$0sliceCount;
#X obj 204 82 clip 0 8;
#X obj 204 107 /;
#X obj 322 113 r \$0reverse;
#X msg 280 113 1 \$1;
#X obj 204 132 +;
#X obj 322 139 t b f;
#X obj 280 138 /;
#X obj 280 170 * 0.125;
#X obj 204 157 outlet;
#X connect 0 0 2 0;
#X connect 1 0 3 1;
#X connect 1 0 2 2;
#X connect 1 0 5 0;
#X connect 2 0 3 0;
#X connect 3 0 6 0;
#X connect 4 0 7 0;
#X connect 5 0 8 0;
#X connect 6 0 10 0;
#X connect 7 0 9 0;
#X connect 7 1 9 1;
#X connect 8 0 9 0;
#X connect 9 0 6 1;
#X restore 238 130 pd setSlices;
#X obj 34 67 inlet;
#X obj 296 259 r \$0env;
#N canvas 0 95 414 198 playMsg 0;
#X obj 182 53 r \$0play;
#X obj 182 78 t f b;
#X msg 217 106 0;
#X obj 217 131 s \$0jump;
#X obj 159 131 s \$0env;
#X connect 0 0 1 0;
#X connect 1 0 4 0;
#X connect 1 1 2 0;
#X connect 2 0 3 0;
#X restore 371 48 pd playMsg;
#N canvas 71 141 427 291 resetMsg 0;
#X obj 18 11 r \$0reset;
#X obj 18 61 \$0;
#X obj 18 36 bng 15 250 50 0 empty empty empty 17 7 0 10 -262144 -1
-1;
#X msg 20 86 \; \$1end 0 \; \$1start 0 \; \$1loop 0 \; \$1speed 1 \;
\$1reverse 0 \; \$1env 0 0 1 0 \; \$1sliceCount 8 \; \$1transition
10 \; \$1resolution 1 \; \$1divisor 2 \; \$1sync 0 \;;
#X connect 0 0 2 0;
#X connect 1 0 3 0;
#X connect 2 0 1 0;
#X restore 371 24 pd resetMsg;
#X obj 203 235 symbol;
#X obj 192 156 phasor~;
#X obj 314 322 switch~;
#X obj 302 200 outlet;
#N canvas 88 195 545 367 findTempo 0;
#X obj 124 30 r \$0length;
#X obj 184 118 / 2;
#X obj 124 60 f;
#X obj 124 91 moses 750;
#X obj 327 239 f;
#X obj 380 240 r \$0sync;
#X text 225 115 750ms = 80bpm;
#X obj 140 313 s \$0speed;
#X obj 191 188 r masterTempo;
#X obj 124 262 swap 500;
#X obj 140 287 /;
#X obj 145 159 r \$0sync;
#X obj 145 184 t b f;
#X obj 124 210 f;
#X text 187 262 500ms = 120bpm;
#X obj 191 213 t b f;
#X obj 327 315 s masterTempo;
#X obj 124 124 t f f;
#X obj 327 163 == \$0;
#X obj 327 290 spigot;
#X obj 327 188 t f f, f 6;
#X obj 327 213 sel 1;
#X obj 327 138 r setLead;
#X obj 124 236 spigot, f 8;
#X obj 327 265 spigot, f 8;
#X obj 27 183 s \$0aproxbpm;
#X obj 27 158 /;
#X msg 27 133 60000 \$1;
#X obj 278 292 sel 0;
#X msg 278 317 0;
#X connect 0 0 2 0;
#X connect 1 0 3 0;
#X connect 2 0 3 0;
#X connect 3 0 17 0;
#X connect 3 1 1 0;
#X connect 4 0 24 0;
#X connect 5 0 24 1;
#X connect 5 0 28 0;
#X connect 8 0 15 0;
#X connect 9 0 10 0;
#X connect 9 1 10 1;
#X connect 10 0 7 0;
#X connect 11 0 12 0;
#X connect 12 0 13 0;
#X connect 12 1 23 1;
#X connect 13 0 23 0;
#X connect 13 0 27 0;
#X connect 15 0 13 0;
#X connect 15 1 9 1;
#X connect 17 0 13 0;
#X connect 17 1 4 0;
#X connect 18 0 20 0;
#X connect 19 0 16 0;
#X connect 20 0 21 0;
#X connect 20 1 19 1;
#X connect 21 0 4 0;
#X connect 22 0 18 0;
#X connect 23 0 9 0;
#X connect 24 0 19 0;
#X connect 26 0 25 0;
#X connect 27 0 26 0;
#X connect 28 0 29 0;
#X connect 29 0 7 0;
#X restore 371 73 pd findTempo;
#X obj 302 175 monitor;
#X text 358 171 *it's the [switch~] that ensures the stopping of that
output!!, f 24;
#X obj 192 79 inlet~;
#N canvas 654 222 484 315 autoStop 0;
#X obj 115 36 r \$0env;
#X obj 115 61 route float;
#X obj 156 262 r \$0loop;
#X obj 115 111 metro 1;
#X obj 115 138 f;
#X obj 115 165 + 1;
#X obj 115 86 t b b;
#X msg 193 173 0;
#X obj 115 206 >=;
#X obj 115 234 sel 1;
#X obj 115 262 AB;
#X msg 39 145 0;
#X obj 184 91 r \$0resolution;
#X obj 39 240 outlet;
#X obj 300 80 r \$0length;
#X obj 383 166 r \$0env;
#X obj 383 191 route list;
#X msg 383 216 \$4;
#X obj 300 186 -;
#X text 411 215 decay;
#X obj 383 241 t b f;
#X obj 353 105 r \$0speed;
#X obj 353 131 invertRatio;
#X obj 300 155 modulate;
#X connect 0 0 1 0;
#X connect 1 0 6 0;
#X connect 2 0 10 1;
#X connect 3 0 4 0;
#X connect 4 0 5 0;
#X connect 5 0 4 1;
#X connect 5 0 8 0;
#X connect 6 0 3 0;
#X connect 6 1 7 0;
#X connect 7 0 4 1;
#X connect 8 0 9 0;
#X connect 9 0 10 0;
#X connect 10 0 11 0;
#X connect 10 1 7 0;
#X connect 11 0 3 0;
#X connect 11 0 13 0;
#X connect 12 0 3 1;
#X connect 12 0 5 1;
#X connect 14 0 23 0;
#X connect 15 0 16 0;
#X connect 16 0 17 0;
#X connect 17 0 20 0;
#X connect 18 0 8 1;
#X connect 20 0 18 0;
#X connect 20 1 18 1;
#X connect 21 0 22 0;
#X connect 22 0 23 1;
#X connect 23 0 18 0;
#X restore 353 272 pd autoStop;
#X obj 715 94 tgl 22 0 \$0reverse empty reverse -18 -7 0 12 -262144
-1 -1 0 1;
#X obj 748 94 tgl 22 0 \$0loop empty loop 0 -7 0 12 -262144 -1 -1 0
1;
#X obj 741 170 r \$0name;
#X msg 741 222 label \$1;
#X obj 741 247 s \$0nameview;
#X obj 566 58 cnv 15 102 22 empty \$0nameview empty 2 10 0 12 -1 -4034
0;
#X floatatom 614 97 5 0 0 2 start - #0start;
#X floatatom 654 97 5 0 0 2 end - #0end;
#X text 693 97 ms;
#X obj 779 94 tgl 22 0 \$0sync empty sync 0 -7 0 12 -262144 -1 -1 0
1;
#X floatatom 742 58 4 0 0 1 BPM #0aproxbpm -;
#X floatatom 674 58 6 0 0 1 ms #0length -;
#X floatatom 810 96 5 0 0 1 % - -;
#X obj 810 141 / 100;
#X obj 810 166 s \$0speed;
#X floatatom 800 58 5 0 0 1 div. - #0divisor;
#X text 739 39 tempo:;
#N canvas 111 164 450 273 animation 0;
#X obj 237 6 inlet;
#X obj 237 56 i;
#X obj 237 81 change;
#X msg 237 161 color #00ff00 0 #000000;
#X msg 255 189 color #212121 0 #00ff00;
#X obj 60 84 sel 0;
#X obj 149 214 s \$0status;
#X msg 92 109 label playing;
#X msg 60 135 label stopped \, color #212121 0 #ff0000, f 20;
#X obj 60 56 inlet;
#X obj 29 26 loadbang;
#X obj 275 31 r \$0divisor;
#X obj 237 107 % 2;
#X obj 237 132 sel 0;
#X obj 237 31 * 8;
#X obj 275 55 * 2;
#X connect 0 0 14 0;
#X connect 1 0 2 0;
#X connect 2 0 12 0;
#X connect 3 0 6 0;
#X connect 4 0 6 0;
#X connect 5 0 8 0;
#X connect 5 1 7 0;
#X connect 7 0 6 0;
#X connect 8 0 6 0;
#X connect 9 0 5 0;
#X connect 10 0 8 0;
#X connect 11 0 15 0;
#X connect 12 0 13 0;
#X connect 13 0 3 0;
#X connect 13 1 4 0;
#X connect 14 0 1 0;
#X connect 15 0 14 1;
#X restore 416 312 pd animation;
#X obj 741 196 clipSymbol 14;
#X obj 676 196 loadbang;
#X msg 676 221 symbol;
#X obj 564 94 bng 15 250 50 0 empty empty empty 17 7 0 10 -262144 -1
-1;
#X obj 579 94 bng 15 250 50 0 empty empty empty 17 7 0 10 -262144 -1
-1;
#X obj 594 94 bng 15 250 50 0 empty empty empty 17 7 0 10 -262144 -1
-1;
#X obj 564 94 cnv 15 45 15 empty \$0status stopped 2 7 0 10 -33289
-258049 0;
#X text 808 77 speed+;
#X msg 745 137 set 4;
#X msg 261 258 0;
#X text 31 118 SamplePlayer~ needs at least 2 values on the input:
1 table name \; 2 sr / 1000 \; For playing \, messages w/ jump and
play are required. *all factors that modulates speed must be calculated
outside patch \;, f 19;
#X text 34 39 NEAR FUTURE: TIME STRETCH - phase vocoder;
#X obj 192 381 balance~;
#X obj 255 411 outlet~;
#X obj 281 386 r \$0balance;
#X obj 192 350 *~;
#X obj 230 350 pot~ \$0level 1;
#X obj 579 124 tgl 15 0 empty empty empty 17 7 0 10 -262144 -1 -1 0
1;
#X obj 579 149 s \$0play;
#X obj 34 92 broadcast \$0;
#X connect 0 0 1 0;
#X connect 1 0 55 0;
#X connect 3 0 1 1;
#X connect 3 1 15 0;
#X connect 3 1 39 0;
#X connect 4 0 13 0;
#X connect 4 0 49 0;
#X connect 5 0 0 0;
#X connect 6 0 0 0;
#X connect 7 0 14 0;
#X connect 8 0 14 1;
#X connect 9 0 59 0;
#X connect 10 0 3 0;
#X connect 13 0 5 0;
#X connect 14 0 6 0;
#X connect 14 0 18 0;
#X connect 18 0 16 0;
#X connect 18 0 39 1;
#X connect 20 0 7 0;
#X connect 21 0 3 0;
#X connect 21 0 57 0;
#X connect 24 0 40 0;
#X connect 25 0 26 0;
#X connect 34 0 35 0;
#X connect 35 0 36 0;
#X connect 40 0 25 0;
#X connect 41 0 42 0;
#X connect 41 0 48 0;
#X connect 42 0 25 0;
#X connect 43 0 57 0;
#X connect 44 0 57 0;
#X connect 45 0 57 0;
#X connect 48 0 37 0;
#X connect 49 0 3 0;
#X connect 52 0 2 0;
#X connect 52 1 53 0;
#X connect 54 0 52 1;
#X connect 55 0 52 0;
#X connect 56 0 55 1;
#X connect 57 0 58 0;
#X coords 0 -1 1 1 306 80 1 560 40;
