#N canvas 376 246 607 444 12;
#X obj 101 92 phasor~;
#X obj 121 26 inlet~;
#X obj 121 52 modulate~;
#X obj 113 407 outlet~;
#X obj 527 76 switch~;
#X obj 527 26 inlet;
#X obj 527 51 change;
#X obj 192 111 +~;
#X obj 192 136 wrap~;
#X obj 252 42 sig~ 0.5;
#X obj 61 146 polyblep~;
#X obj 43 211 +~;
#X obj 23 146 +~;
#X obj 23 171 -~ 1;
#X obj 61 171 *~ 1;
#X obj 113 353 -~;
#X obj 212 334 *~;
#X obj 230 178 polyblep~;
#X obj 212 244 +~;
#X obj 192 204 -~ 1;
#X obj 192 179 +~;
#X obj 230 204 *~ 1;
#X obj 42 262 max~;
#X obj 212 306 max~;
#X obj 67 236 *~ 1;
#X obj 237 280 *~ 1;
#X obj 113 380 +~;
#X obj 252 92 wrap~;
#X obj 337 197 -~ 0.5;
#X obj 337 222 *~ 2;
#X obj 337 361 samphold~;
#X obj 134 151 r \$0AA;
#X obj 92 210 r \$0max1;
#X obj 262 254 r \$0max2;
#X obj 413 26 inlet;
#X obj 413 51 sel 0 1 2;
#X obj 413 112 \$0, f 4;
#X obj 433 210 \$0;
#X obj 493 111 \$0;
#X obj 254 314 r \$0saw2;
#X obj 252 67 modulate~;
#X obj 332 92 loadbang;
#X msg 413 137 \; \$1AA 1 \; \$1max1 1 \; \$1saw2 0;
#X obj 322 37 inlet~;
#X obj 252 17 inlet;
#X msg 433 235 \; \$1AA 1 \; \$1max1 1 \; \$1max2 1 \; \$1saw2 1 \;
;
#X msg 493 136 \; \$1AA 0 \; \$1max1 -1 \; \$1max2 -1 \; \$1saw2 1
\;;
#X obj 181 26 inlet;
#X text 505 248 AntiAliasing;
#X connect 0 0 7 0;
#X connect 0 0 10 0;
#X connect 0 0 12 0;
#X connect 0 0 12 1;
#X connect 1 0 2 0;
#X connect 2 0 0 0;
#X connect 2 0 10 1;
#X connect 2 0 17 1;
#X connect 5 0 6 0;
#X connect 6 0 4 0;
#X connect 7 0 8 0;
#X connect 8 0 20 0;
#X connect 8 0 20 1;
#X connect 8 0 17 0;
#X connect 8 0 30 1;
#X connect 9 0 40 0;
#X connect 10 0 14 0;
#X connect 11 0 22 0;
#X connect 11 0 24 0;
#X connect 12 0 13 0;
#X connect 13 0 11 0;
#X connect 14 0 11 1;
#X connect 15 0 26 0;
#X connect 16 0 15 1;
#X connect 17 0 21 0;
#X connect 18 0 23 0;
#X connect 18 0 25 0;
#X connect 19 0 18 0;
#X connect 20 0 19 0;
#X connect 21 0 18 1;
#X connect 22 0 15 0;
#X connect 23 0 16 0;
#X connect 24 0 22 1;
#X connect 25 0 23 1;
#X connect 26 0 3 0;
#X connect 27 0 7 1;
#X connect 27 0 28 0;
#X connect 28 0 29 0;
#X connect 29 0 30 0;
#X connect 30 0 26 1;
#X connect 31 0 21 1;
#X connect 31 0 14 1;
#X connect 32 0 24 1;
#X connect 33 0 25 1;
#X connect 34 0 35 0;
#X connect 35 0 36 0;
#X connect 35 1 37 0;
#X connect 35 2 38 0;
#X connect 36 0 42 0;
#X connect 37 0 45 0;
#X connect 38 0 46 0;
#X connect 39 0 16 1;
#X connect 40 0 27 0;
#X connect 41 0 36 0;
#X connect 43 0 40 1;
#X connect 44 0 9 0;
#X connect 47 0 2 1;
