#N canvas 0 95 450 335 12;
#X obj 131 22 inlet;
#X obj 131 47 t f f;
#X obj 131 91 mod;
#X obj 163 91 div;
#X obj 268 69 inlet;
#X obj 268 94 t a a;
#X obj 181 49 list length;
#X obj 163 116 * 12;
#X obj 112 185 list split;
#X obj 112 160 list;
#X obj 112 130 t b f;
#X obj 145 211 f;
#X obj 145 236 +;
#X obj 145 261 outlet;
#X obj 323 24 loadbang;
#X msg 323 49 args;
#X obj 323 74 pdcontrol;
#X connect 0 0 1 0;
#X connect 1 0 2 0;
#X connect 1 1 3 0;
#X connect 2 0 10 0;
#X connect 3 0 7 0;
#X connect 4 0 5 0;
#X connect 5 0 6 0;
#X connect 5 1 9 1;
#X connect 6 0 3 1;
#X connect 6 0 2 1;
#X connect 7 0 12 1;
#X connect 8 1 11 0;
#X connect 9 0 8 0;
#X connect 10 0 9 0;
#X connect 10 1 8 1;
#X connect 11 0 12 0;
#X connect 12 0 13 0;
#X connect 14 0 15 0;
#X connect 15 0 16 0;
#X connect 16 0 5 0;
