#N canvas 702 247 450 327 12;
#X obj 19 216 functionSaw;
#X obj 228 238 functionSquare;
#X obj 106 235 functionTriangle;
#X obj 127 102 numSeq 1;
#X obj 106 293 renderWave \$1;
#X obj 127 46 inlet;
#X obj 127 71 t f f;
#X obj 106 208 spigot;
#X obj 228 213 spigot;
#X obj 19 189 spigot 1;
#X obj 267 43 loadbang;
#X obj 290 85 inlet;
#X obj 72 162 == 0;
#X obj 145 181 == 1;
#X obj 267 187 == 2;
#X obj 106 268 listSink;
#X obj 187 71 \$2;
#X obj 235 82 \$3;
#X text 205 281 \$1: table \$2: partials \$3: wave;
#X obj 235 107 t b f;
#X connect 0 0 15 0;
#X connect 1 0 15 0;
#X connect 2 0 15 0;
#X connect 3 0 9 0;
#X connect 3 0 8 0;
#X connect 3 0 7 0;
#X connect 5 0 6 0;
#X connect 6 0 3 0;
#X connect 6 1 15 1;
#X connect 7 0 2 0;
#X connect 8 0 1 0;
#X connect 9 0 0 0;
#X connect 10 0 17 0;
#X connect 11 0 17 0;
#X connect 12 0 9 1;
#X connect 13 0 7 1;
#X connect 14 0 8 1;
#X connect 15 0 4 0;
#X connect 16 0 6 0;
#X connect 17 0 19 0;
#X connect 19 0 16 0;
#X connect 19 1 14 0;
#X connect 19 1 13 0;
#X connect 19 1 12 0;
