#N canvas 343 244 450 320 12;
#X obj 181 71 bng 60 250 50 0 empty empty empty 17 7 0 10 -262144 -1
-1;
#X obj 181 71 cnv 15 60 60 empty \$0style shaker03 2 10 0 12 -174763
-1 0;
#X msg 33 176 label \$1;
#X obj 33 151 clipSymbol 8;
#X obj 33 16 inlet;
#X obj 33 201 s \$0style;
#X obj 181 246 outlet;
#X obj 33 95 s2l /;
#X obj 33 122 getLast;
#X obj 33 68 symbol;
#X obj 181 196 pack f 1;
#X msg 181 221 \$1 play \$2;
#X obj 181 169 f;
#X obj 33 41 route label id float;
#X obj 124 66 t b f;
#N canvas 0 95 450 300 blink 0;
#X obj 276 157 s \$0style;
#X obj 276 80 del 160;
#X msg 276 105 color #aaaaaa;
#X msg 261 131 color #dddddd;
#X obj 201 60 inlet;
#X obj 201 85 b;
#X connect 1 0 2 0;
#X connect 2 0 0 0;
#X connect 3 0 0 0;
#X connect 4 0 5 0;
#X connect 5 0 3 0;
#X connect 5 0 1 0;
#X restore 111 244 pd blink;
#X obj 279 190 f;
#X obj 279 215 outlet;
#X obj 107 180 loadbang;
#X msg 107 205 s -;
#X connect 0 0 12 0;
#X connect 0 0 16 0;
#X connect 2 0 5 0;
#X connect 3 0 2 0;
#X connect 4 0 13 0;
#X connect 7 0 8 0;
#X connect 8 0 3 0;
#X connect 9 0 7 0;
#X connect 10 0 11 0;
#X connect 11 0 6 0;
#X connect 12 0 10 0;
#X connect 12 0 15 0;
#X connect 13 0 9 0;
#X connect 13 1 12 1;
#X connect 13 1 16 1;
#X connect 13 2 14 0;
#X connect 14 0 12 0;
#X connect 14 1 10 1;
#X connect 16 0 17 0;
#X connect 18 0 19 0;
#X connect 19 0 2 0;
#X coords 0 -1 1 1 62 62 2 180 70;
