#N canvas 443 230 413 221 12;
#X obj 112 82 inlet;
#X obj 112 117 spigot 1;
#X obj 112 162 outlet;
#X msg 208 66 0;
#X obj 208 91 b;
#X msg 208 141 1;
#X obj 244 36 loadbang;
#X obj 244 61 \$1;
#X obj 244 86 sel 0;
#X obj 208 116 del 20;
#X connect 0 0 1 0;
#X connect 1 0 2 0;
#X connect 1 0 3 0;
#X connect 3 0 4 0;
#X connect 3 0 1 1;
#X connect 4 0 9 0;
#X connect 5 0 1 1;
#X connect 6 0 7 0;
#X connect 7 0 8 0;
#X connect 8 1 9 1;
#X connect 9 0 5 0;
