#N canvas 0 95 450 300 12;
#X obj 104 160 lop~ 50;
#X obj 104 185 outlet~;
#X floatatom 103 117 7 0 0 0 - - -;
#X obj 105 40 loadbang;
#X obj 105 65 \$1;
#X connect 0 0 1 0;
#X connect 2 0 0 0;
#X connect 3 0 4 0;
#X connect 4 0 2 0;
#X coords 0 -1 1 1 60 40 1 100 100;
