#N canvas 385 138 387 313 12;
#X obj 11 11 cnv 15 83 110 empty empty //SYNTH-1::. 1 8 0 12 -228856
-258113 0;
#X obj 20 40 hradio 16 1 0 2 empty empty poly|mono -10 -9 0 10 -262144
-1 -1 0;
#X obj 23 76 hsl 60 12 0 1 0 0 empty empty detune 8 7 0 10 -262144
-1 -1 5900 1;
#X obj 23 91 hsl 60 12 0 1 0 0 empty empty glide 8 7 0 10 -262144 -1
-1 0 1;
#X obj 54 156 * 2000;
#X msg 54 181 glide \$1;
#X msg 240 103 mode \$1;
#X msg 120 185 detune \$1;
#X obj 136 234 outlet;
#X obj 120 157 * 100;
#X obj 23 61 hsl 60 12 0 1 0 0 empty empty master 8 7 0 10 -262144
-1 -1 5900 1;
#X msg 201 191 master \$1;
#X obj 201 137 pow 3;
#X obj 54 131 pow 2;
#X obj 23 106 hsl 60 12 0 1 0 0 empty empty voices 8 7 0 10 -262144
-1 -1 5900 1;
#X msg 20 239 voices \$1;
#X obj 56 43 tgl 13 0 empty empty leg. 15 7 0 10 -262144 -1 -1 0 1
;
#X msg 152 46 legato \$1;
#X connect 1 0 6 0;
#X connect 2 0 9 0;
#X connect 3 0 13 0;
#X connect 4 0 5 0;
#X connect 5 0 8 0;
#X connect 6 0 8 0;
#X connect 7 0 8 0;
#X connect 9 0 7 0;
#X connect 10 0 12 0;
#X connect 11 0 8 0;
#X connect 12 0 11 0;
#X connect 13 0 4 0;
#X connect 14 0 15 0;
#X connect 15 0 8 0;
#X connect 16 0 17 0;
#X connect 17 0 8 0;
#X coords 0 -1 1 1 85 112 2 10 10;
