#N canvas 380 95 514 569 12;
#X obj 118 184 text define \$2bank;
#X obj 86 14 inlet;
#X obj 86 110 openpanel;
#X msg 118 158 read \$1;
#X obj 86 39 bng 15 250 50 0 empty empty empty 17 7 0 10 -262144 -1
-1;
#X msg 13 185 line 0 \, bang;
#X obj 13 210 text sequence \$2bank;
#X obj 13 259 pack s s;
#X obj 86 60 symbol ~/samples/;
#X obj 86 85 t s s;
#X obj 86 135 t b s;
#X msg 13 284 symbol \$2\$1.wav;
#X obj 13 310 pack s \$2 f;
#X msg 13 336 read -resize \$1 \$2slot_\$3;
#X obj 13 361 soundfiler;
#X obj 129 413 f;
#X obj 187 433 + 1;
#X msg 193 393 0;
#X obj 80 386 t f b;
#X obj 55 413 / 1000;
#X obj 55 535 outlet;
#X obj 55 483 pack f \$2 f f;
#X obj 143 456 + \$3;
#X msg 55 510 \$4 table \$2slot_\$3 \, \$4 sr \$1;
#X text 289 403 1st arguments defines how many slots \; 2nd arg fetches
parent \$0 for outside management \; 3rd arg defines addressing for
the clone object containing the players \;, f 27;
#X obj 13 234 listStream, f 11;
#X obj 292 14 cnv 15 190 340 empty empty dynamic-table-creation 2 8
0 12 -228856 -1 0;
#X obj 304 137 f;
#X obj 342 137 + 1;
#X obj 304 162 t f f, f 6;
#X obj 304 212 + 10;
#X obj 304 187 * 22;
#X obj 304 32 loadbang;
#X obj 304 112 until;
#X obj 304 87 \$1;
#X msg 304 262 obj 10 \$1 table \$3slot_\$2, f 15;
#X obj 304 303 s pd-\$0dynamicPatch;
#N canvas 0 95 450 300 \$0dynamicPatch 0;
#X obj 10 10 table 3239slot_0;
#X obj 10 32 table 3239slot_1;
#X obj 10 54 table 3239slot_2;
#X obj 10 76 table 3239slot_3;
#X obj 10 98 table 3239slot_4;
#X obj 10 120 table 3239slot_5;
#X obj 10 142 table 3239slot_6;
#X obj 10 164 table 3239slot_7;
#X obj 10 186 table 3239slot_8;
#X obj 10 208 table 3239slot_9;
#X obj 10 230 table 3239slot_10;
#X obj 10 252 table 3239slot_11;
#X obj 10 274 table 3239slot_12;
#X obj 10 296 table 3239slot_13;
#X obj 10 318 table 3239slot_14;
#X obj 10 340 table 3239slot_15;
#X restore 309 329 pd \$0dynamicPatch;
#X obj 304 236 pack f f \$2;
#X text 346 215 Y \, index \, bank ID;
#X obj 230 130 outlet;
#N canvas 0 95 450 300 name 0;
#X obj 167 62 s2l /;
#X obj 167 35 inlet;
#X obj 167 112 s2l .;
#X obj 167 137 list split 1;
#X obj 167 163 outlet;
#X obj 167 87 getLast;
#X connect 0 0 5 0;
#X connect 1 0 0 0;
#X connect 2 0 3 0;
#X connect 3 0 4 0;
#X connect 5 0 2 0;
#X restore 230 105 pd name;
#X obj 202 8 inlet;
#X obj 175 264 outlet;
#X obj 175 238 symbol;
#X obj 304 60 t b b;
#X msg 408 143 clear;
#X connect 1 0 4 0;
#X connect 2 0 10 0;
#X connect 3 0 0 0;
#X connect 4 0 8 0;
#X connect 5 0 6 0;
#X connect 6 0 25 0;
#X connect 7 0 11 0;
#X connect 8 0 9 0;
#X connect 9 0 2 0;
#X connect 9 1 7 1;
#X connect 9 1 17 0;
#X connect 10 0 5 0;
#X connect 10 1 3 0;
#X connect 10 1 41 0;
#X connect 11 0 12 0;
#X connect 12 0 13 0;
#X connect 13 0 14 0;
#X connect 14 1 18 0;
#X connect 15 0 16 0;
#X connect 15 0 21 2;
#X connect 15 0 22 0;
#X connect 16 0 15 1;
#X connect 17 0 15 1;
#X connect 18 0 19 0;
#X connect 18 1 15 0;
#X connect 19 0 21 0;
#X connect 21 0 23 0;
#X connect 22 0 21 3;
#X connect 23 0 20 0;
#X connect 25 0 7 0;
#X connect 25 0 44 0;
#X connect 25 1 12 2;
#X connect 27 0 28 0;
#X connect 27 0 29 0;
#X connect 28 0 27 1;
#X connect 29 0 31 0;
#X connect 29 1 38 1;
#X connect 30 0 38 0;
#X connect 31 0 30 0;
#X connect 32 0 45 0;
#X connect 33 0 27 0;
#X connect 34 0 33 0;
#X connect 35 0 36 0;
#X connect 38 0 35 0;
#X connect 41 0 40 0;
#X connect 42 0 8 1;
#X connect 44 0 43 0;
#X connect 45 0 34 0;
#X connect 45 1 46 0;
#X connect 46 0 36 0;
