#N canvas 298 370 582 621 12;
#X obj 237 51 bng 30 250 50 0 empty theme.obj list\ themes 0 -10 0 12 #ffffff #000000 #000000;
#X obj 237 117 theme;
#N canvas 753 536 450 455 theme-list 0;
#X obj 130 363 s set-theme;
#X obj 20 20 bng 20 250 50 0 empty theme.obj obsidian_bloom 24 10 0 12 #ffffff #000000 #000000;
#X msg 200 20 symbol obsidian_bloom;
#X obj 20 46 bng 20 250 50 0 empty theme.obj ashen_veil 24 10 0 12 #ffffff #000000 #000000;
#X msg 200 46 symbol ashen_veil;
#X obj 20 72 bng 20 250 50 0 empty theme.obj lunar_alloy 24 10 0 12 #ffffff #000000 #000000;
#X msg 200 72 symbol lunar_alloy;
#X obj 20 98 bng 20 250 50 0 empty theme.obj ember_glow 24 10 0 12 #ffffff #000000 #000000;
#X msg 200 98 symbol ember_glow;
#X obj 20 124 bng 20 250 50 0 empty theme.obj twilight_haze 24 10 0 12 #ffffff #000000 #000000;
#X msg 200 124 symbol twilight_haze;
#X obj 20 150 bng 20 250 50 0 empty theme.obj crimson_tide 24 10 0 12 #ffffff #000000 #000000;
#X msg 200 150 symbol crimson_tide;
#X obj 20 176 bng 20 250 50 0 empty theme.obj mosslight 24 10 0 12 #ffffff #000000 #000000;
#X msg 200 176 symbol mosslight;
#X obj 20 202 bng 20 250 50 0 empty theme.obj neon_abyss 24 10 0 12 #ffffff #000000 #000000;
#X msg 200 202 symbol neon_abyss;
#X obj 20 228 bng 20 250 50 0 empty theme.obj saffron_mist 24 10 0 12 #ffffff #000000 #000000;
#X msg 200 228 symbol saffron_mist;
#X obj 20 254 bng 20 250 50 0 empty theme.obj velvet_ash 24 10 0 12 #ffffff #000000 #000000;
#X msg 200 254 symbol velvet_ash;
#X obj 20 280 bng 20 250 50 0 empty theme.obj monokai 24 10 0 12 #ffffff #000000 #000000;
#X msg 200 280 symbol monokai;
#X obj 20 306 bng 20 250 50 0 empty theme.obj petal_clay 24 10 0 12 #ffffff #000000 #000000;
#X msg 200 306 symbol petal_clay;
#X obj 20 332 bng 20 250 50 0 empty theme.obj coral_drift 24 10 0 12 #ffffff #000000 #000000;
#X msg 200 332 symbol coral_drift;
#X connect 1 0 2 0;
#X connect 2 0 0 0;
#X connect 3 0 4 0;
#X connect 4 0 0 0;
#X connect 5 0 6 0;
#X connect 6 0 0 0;
#X connect 7 0 8 0;
#X connect 8 0 0 0;
#X connect 9 0 10 0;
#X connect 10 0 0 0;
#X connect 11 0 12 0;
#X connect 12 0 0 0;
#X connect 13 0 14 0;
#X connect 14 0 0 0;
#X connect 15 0 16 0;
#X connect 16 0 0 0;
#X connect 17 0 18 0;
#X connect 18 0 0 0;
#X connect 19 0 20 0;
#X connect 20 0 0 0;
#X connect 21 0 22 0;
#X connect 22 0 0 0;
#X connect 23 0 24 0;
#X connect 24 0 0 0;
#X connect 25 0 26 0;
#X connect 26 0 0 0;
#X coords 0 -1 1 1 130 343 2 15 15;
#X restore 17 32 pd theme-list;
#X obj 237 247 list split 1;
#X obj 237 209 list;
#X obj 237 552 s pd-theme-list;
#X obj 320 282 f;
#X obj 378 302 + 1;
#X msg 386 262 0;
#X obj 237 272 t s b;
#X obj 268 348 + 20;
#X obj 237 143 t l l;
#X obj 386 49 list length;
#X obj 268 323 * 26;
#X obj 386 74 * 26;
#X obj 386 99 + 5;
#X obj 237 435 pack s f f f, f 14;
#X obj 320 313 * 2;
#X obj 386 125 t f f;
#X obj 386 175 pack, f 5;
#X obj 418 149 + 20;
#X msg 386 201 clear \, goprect 15 15 130 \$1 \, obj 130 \$2 s set-theme, f 21;
#X obj 300 409 + 1;
#X obj 332 409 + 2;
#X obj 248 86 r set-theme;
#X obj 494 404 bng 30 250 50 0 empty theme.obj Test! 0 -10 0 12 #ffffff #000000 #000000;
#X obj 385 357 hsl 170 20 0 127 0 0 empty theme.obj empty -2 -10 0 12 #ffffff #000000 #000000 0 1;
#X msg 237 468 obj 20 \$2 bng 20 250 50 0 empty theme.obj \$1 24 10 0 12 #fcfcfc #000000 #000000 \, msg 200 \$2 symbol \$1 \, connect \$3 0 \$4 0 \, connect \$4 0 0 0, f 31;
#X msg 377 18 symbol default;
#X obj 537 386 vradio 20 1 0 8 empty theme.obj empty 0 -10 0 12 #ffffff #000000 #000000 0;
#X obj 410 400 nbx 5 18 -1e+37 1e+37 0 0 empty theme.obj empty 0 -10 0 12 #ffffff #000000 #000000 0 256;
#X connect 0 0 1 0;
#X connect 1 0 11 0;
#X connect 3 0 9 0;
#X connect 3 1 4 0;
#X connect 4 0 3 0;
#X connect 6 0 7 0;
#X connect 6 0 13 0;
#X connect 6 0 17 0;
#X connect 7 0 6 1;
#X connect 8 0 6 1;
#X connect 9 0 16 0;
#X connect 9 1 6 0;
#X connect 10 0 16 1;
#X connect 11 0 4 0;
#X connect 11 1 12 0;
#X connect 12 0 14 0;
#X connect 13 0 10 0;
#X connect 14 0 15 0;
#X connect 15 0 18 0;
#X connect 16 0 27 0;
#X connect 17 0 23 0;
#X connect 17 0 22 0;
#X connect 18 0 19 0;
#X connect 18 1 20 0;
#X connect 19 0 21 0;
#X connect 20 0 19 1;
#X connect 21 0 5 0;
#X connect 21 0 8 0;
#X connect 22 0 16 2;
#X connect 23 0 16 3;
#X connect 24 0 1 0;
#X connect 27 0 5 0;
#X connect 28 0 1 0;
#X coords 0 621 1 620 172 239 0;
