#N canvas 255 161 603 519 12;
#X obj 241 55 tgl 15 0 empty empty empty 17 7 0 10 #fcfcfc #000000
#000000 0 1;
#X floatatom 294 54 5 0 0 0 - - - 0;
#X obj 70 254 delay~;
#X obj 140 217 fftease/pvharm~;
#X obj 242 189 sig~ 0.001;
#X obj 314 77 list length;
#X obj 314 103 - 1;
#X obj 241 78 metro 90;
#X obj 214 165 t2r;
#X obj 241 128 listIndex 0 5 7 10 12 14 17;
#X obj 241 103 random 7;
#X obj 196 191 + 1;
#X msg 203 273 delay 360 \, feedback 0.5 \, wet 0.6 \, dry 0.7;
#X obj 106 81 inlet~;
#X obj 72 439 outlet~;
#X connect 0 0 7 0;
#X connect 1 0 7 1;
#X connect 2 0 14 0;
#X connect 3 0 2 0;
#X connect 4 0 3 3;
#X connect 5 0 6 0;
#X connect 6 0 10 1;
#X connect 7 0 10 0;
#X connect 8 0 11 0;
#X connect 9 0 8 0;
#X connect 10 0 9 0;
#X connect 11 0 3 1;
#X connect 11 0 3 2;
#X connect 12 0 2 0;
#X connect 13 0 3 0;
#X connect 13 0 2 0;
