#N canvas 803 246 393 433 12;
#X obj 166 148 s \$0disp;
#X obj 30 30 bng 19 250 50 0 empty empty empty 2 7 0 10 -262144 -1
-1;
#X obj 49 30 bng 19 250 50 0 empty empty empty 17 7 0 10 -262144 -1
-1;
#X obj 68 30 bng 19 250 50 0 empty empty empty 17 7 0 10 -262144 -1
-1;
#X obj 248 113 loadbang;
#X msg 248 138 label;
#X obj 87 30 bng 19 250 50 0 empty empty empty 2 7 0 10 -262144 -1
-1;
#X obj 106 30 bng 19 250 50 0 empty empty empty 17 7 0 10 -262144 -1
-1;
#X obj 125 30 bng 19 250 50 0 empty empty empty 17 7 0 10 -262144 -1
-1;
#X obj 51 203 outlet;
#X obj 144 30 bng 19 250 50 0 empty empty empty 17 7 0 10 -262144 -1
-1;
#X obj 31 31 cnv 17 131 18 empty \$0disp empty 2 8 0 12 -233017 -1
0;
#X obj 165 85 r tty_stop;
#X obj 73 67 t b b;
#X obj 165 58 s tty_stop;
#N canvas 362 230 479 391 keyboard 0;
#X obj 111 54 key;
#X obj 150 59 tgl 15 0 empty empty empty 17 7 0 10 -262144 -1 -1 0
1;
#X obj 194 228 list tosymbol;
#X msg 195 84 0;
#X obj 215 187 list store;
#X msg 215 123 append \$1 \, bang;
#X obj 155 256 symbol;
#X msg 150 34 1;
#X obj 155 281 outlet;
#X obj 150 9 inlet;
#X obj 111 103 sel 0 8 10;
#N canvas 5 92 450 300 backspace 0;
#X obj 193 149 list length;
#X obj 193 174 - 1;
#X obj 126 129 t l l;
#X obj 126 200 list split;
#X obj 302 166 list, f 7;
#X obj 248 63 inlet;
#X obj 202 63 inlet;
#X obj 302 191 outlet;
#X obj 334 96 inlet clean;
#X connect 0 0 1 0;
#X connect 1 0 3 1;
#X connect 2 0 3 0;
#X connect 2 1 0 0;
#X connect 3 0 4 1;
#X connect 4 0 7 0;
#X connect 5 0 2 0;
#X connect 6 0 4 0;
#X connect 8 0 4 1;
#X restore 54 163 pd backspace;
#X obj 54 190 t b l;
#X obj 332 74 tgl 15 0 empty empty empty 17 7 0 10 -262144 -1 -1 0
1;
#X obj 332 46 metro 400;
#X obj 111 79 spigot;
#X obj 332 247 outlet;
#X msg 215 314 label \$1;
#X msg 332 216 color \$2 \$2 \$1;
#X obj 332 97 t f f;
#X obj 332 191 pack f f;
#X obj 332 166 + 22;
#X obj 385 138 * -1;
#X obj 385 166 + 10;
#X obj 209 14 inlet;
#X msg 209 39 0;
#X obj 252 74 t f f;
#X obj 215 287 list tosymbol;
#N canvas 40 198 450 300 18-char 0;
#X obj 84 23 inlet;
#X obj 117 185 outlet;
#X obj 84 158 list split;
#X obj 84 52 t a a;
#X obj 135 72 list length;
#X obj 135 97 - 18;
#X obj 135 122 max 0;
#X connect 0 0 3 0;
#X connect 2 1 1 0;
#X connect 3 0 2 0;
#X connect 3 1 4 0;
#X connect 4 0 5 0;
#X connect 5 0 6 0;
#X connect 6 0 2 1;
#X restore 215 257 pd 18-char;
#X text 41 103 10: enter;
#X msg 115 334 label;
#X obj 115 309 del 5;
#X connect 0 0 15 0;
#X connect 1 0 15 1;
#X connect 1 0 26 0;
#X connect 2 0 6 1;
#X connect 3 0 1 0;
#X connect 4 0 2 0;
#X connect 4 0 11 1;
#X connect 4 0 28 0;
#X connect 5 0 4 0;
#X connect 6 0 8 0;
#X connect 7 0 1 0;
#X connect 9 0 7 0;
#X connect 10 1 11 0;
#X connect 10 2 4 1;
#X connect 10 2 3 0;
#X connect 10 2 6 0;
#X connect 10 2 31 0;
#X connect 10 2 11 2;
#X connect 10 3 5 0;
#X connect 11 0 12 0;
#X connect 12 0 4 0;
#X connect 12 1 4 1;
#X connect 13 0 19 0;
#X connect 14 0 13 0;
#X connect 15 0 10 0;
#X connect 17 0 16 0;
#X connect 18 0 16 0;
#X connect 19 0 21 0;
#X connect 19 1 22 0;
#X connect 20 0 18 0;
#X connect 21 0 20 0;
#X connect 22 0 23 0;
#X connect 23 0 20 1;
#X connect 24 0 25 0;
#X connect 24 0 4 1;
#X connect 25 0 1 0;
#X connect 26 0 13 0;
#X connect 26 1 14 0;
#X connect 27 0 17 0;
#X connect 28 0 27 0;
#X connect 30 0 16 0;
#X connect 31 0 30 0;
#X restore 73 95 pd keyboard;
#X obj 139 202 list split 1;
#X obj 154 262 list;
#X obj 146 317 send;
#X obj 139 227 t b a;
#X text 199 222 takes 1st argument and use as a send, f 18;
#X obj 139 177 route list;
#X text 268 14 for future: up arrow for past msgs, f 13;
#X obj 73 120 s2l;
#X obj 51 177 list trim;
#X obj 171 292 symbol;
#X connect 1 0 13 0;
#X connect 2 0 13 0;
#X connect 3 0 13 0;
#X connect 4 0 5 0;
#X connect 5 0 0 0;
#X connect 6 0 13 0;
#X connect 7 0 13 0;
#X connect 8 0 13 0;
#X connect 10 0 13 0;
#X connect 12 0 15 1;
#X connect 13 0 15 0;
#X connect 13 1 14 0;
#X connect 15 0 23 0;
#X connect 15 1 0 0;
#X connect 16 0 19 0;
#X connect 16 1 17 1;
#X connect 17 0 18 0;
#X connect 19 0 17 0;
#X connect 19 1 25 0;
#X connect 21 0 16 0;
#X connect 23 0 21 0;
#X connect 23 0 24 0;
#X connect 24 0 9 0;
#X connect 25 0 18 1;
#X coords 0 -1 1 1 133 22 2 30 30;
