#N canvas 315 186 450 317 12;
#X obj 128 67 phasor~;
#X obj 61 176 tabread4~;
#X obj 101 258 outlet~;
#X obj 128 42 inlet~ fwd;
#X obj 101 229 xfade~;
#X obj 171 176 tabread4~;
#X obj 195 67 prefixMsg \$0;
#X text 13 11 idea for interpolation of waves \;;
#X obj 160 229 r \$0xfade;
#X obj 30 72 r \$0head1;
#X obj 295 75 r \$0head2;
#X obj 277 120 r \$0wavelength;
#X obj 295 154 r \$0table;
#X obj 295 179 symbol;
#X msg 295 204 set \$1;
#X obj 61 126 *~ 1024;
#X obj 61 151 +~ 1;
#X obj 171 126 *~ 1024;
#X obj 171 152 +~ 1024;
#X obj 251 13 r \$0phase;
#X msg 251 38 0;
#X connect 0 0 15 0;
#X connect 0 0 17 0;
#X connect 1 0 4 0;
#X connect 3 0 0 0;
#X connect 3 1 6 0;
#X connect 4 0 2 0;
#X connect 4 1 2 0;
#X connect 5 0 4 1;
#X connect 8 0 4 2;
#X connect 9 0 16 1;
#X connect 10 0 18 1;
#X connect 11 0 17 1;
#X connect 11 0 15 1;
#X connect 12 0 13 0;
#X connect 13 0 14 0;
#X connect 14 0 5 0;
#X connect 14 0 1 0;
#X connect 15 0 16 0;
#X connect 16 0 1 0;
#X connect 17 0 18 0;
#X connect 18 0 5 0;
#X connect 19 0 20 0;
#X connect 20 0 0 1;
