#N canvas 163 228 530 300 12;
#X obj 27 204 *~;
#X obj 27 233 outlet~;
#N canvas 166 288 450 414 voiceMode 0;
#X obj 132 75 inlet;
#X obj 188 110 route float;
#X obj 132 146 AB;
#X obj 112 348 outlet;
#X obj 51 239 pack f f f;
#X obj 150 197 monophonic;
#X msg 186 156 clear;
#X msg 275 227 12, f 2;
#X obj 275 252 until;
#X msg 275 328 \$1 0;
#X obj 275 176 inlet;
#X obj 188 75 inlet;
#X obj 275 277 f;
#X obj 275 302 + 1;
#X obj 275 202 t b b;
#X msg 307 227 0, f 2;
#N canvas 0 95 450 300 Nvoice 0;
#X obj 184 70 inlet;
#X obj 184 122 1;
#X obj 184 147 until, f 6;
#X obj 184 198 list, f 5;
#X obj 184 223 outlet;
#X obj 184 96 t b a;
#X obj 303 76 inlet;
#X obj 303 102 max 1;
#X obj 216 172 midiVol;
#X msg 303 127 1 \$1;
#X obj 303 152 /;
#X connect 0 0 5 0;
#X connect 1 0 2 0;
#X connect 2 0 3 0;
#X connect 3 0 4 0;
#X connect 5 0 1 0;
#X connect 5 1 8 0;
#X connect 6 0 7 0;
#X connect 7 0 1 1;
#X connect 7 0 9 0;
#X connect 8 0 3 1;
#X connect 9 0 10 0;
#X connect 10 0 8 1;
#X restore 51 115 pd Nvoice;
#X obj 239 54 inlet;
#X obj 101 35 * 5;
#X obj 101 60 + 1;
#X obj 101 85 i;
#X obj 51 214 poly 24 1, f 10;
#N canvas 0 95 450 300 Nvoice 0;
#X obj 182 56 inlet;
#X obj 182 108 1;
#X obj 182 195 outlet;
#X obj 182 82 t b a, f 11;
#X obj 323 62 inlet;
#X obj 323 88 max 1;
#X obj 182 134 numSeq 1;
#X obj 182 170 list append;
#X obj 256 129 midiVol;
#X msg 323 113 1 \$1;
#X obj 323 138 /;
#X connect 0 0 3 0;
#X connect 1 0 6 0;
#X connect 3 0 1 0;
#X connect 3 1 8 0;
#X connect 4 0 5 0;
#X connect 5 0 1 1;
#X connect 5 0 9 0;
#X connect 6 0 7 0;
#X connect 7 0 2 0;
#X connect 8 0 7 1;
#X connect 9 0 10 0;
#X connect 10 0 8 1;
#X restore 140 254 pd Nvoice;
#X obj 239 226 + 1;
#X obj 239 251 i;
#X obj 239 201 * 12;
#X connect 0 0 2 0;
#X connect 1 0 2 1;
#X connect 2 0 16 0;
#X connect 2 1 5 0;
#X connect 4 0 3 0;
#X connect 5 0 22 0;
#X connect 6 0 5 0;
#X connect 6 0 21 0;
#X connect 7 0 8 0;
#X connect 8 0 12 0;
#X connect 9 0 3 0;
#X connect 10 0 6 0;
#X connect 10 0 14 0;
#X connect 11 0 1 0;
#X connect 12 0 13 0;
#X connect 13 0 12 1;
#X connect 13 0 9 0;
#X connect 14 0 7 0;
#X connect 14 1 15 0;
#X connect 15 0 8 1;
#X connect 16 0 21 0;
#X connect 17 0 18 0;
#X connect 17 0 25 0;
#X connect 18 0 19 0;
#X connect 19 0 20 0;
#X connect 20 0 16 1;
#X connect 21 0 4 0;
#X connect 21 1 4 1;
#X connect 21 2 4 2;
#X connect 22 0 3 0;
#X connect 23 0 24 0;
#X connect 24 0 22 1;
#X connect 25 0 23 0;
#X restore 27 82 pd voiceMode;
#X obj 85 138 inlet~;
#X obj 145 138 inlet~;
#X obj 205 138 inlet~;
#X obj 265 138 inlet~;
#X obj 27 6 inlet;
#X obj 221 71 list prepend all;
#X obj 221 96 list trim;
#X obj 77 203 pot~ none 1;
#X text 289 19 still missing \; smart unison mono AND poly \; wavescanning
mechanism \;;
#X obj 27 31 route list mode voices panic master;
#X obj 27 173 clone -s 1 wavetableVoice~ 36;
#X connect 0 0 1 0;
#X connect 2 0 13 0;
#X connect 3 0 13 1;
#X connect 4 0 13 2;
#X connect 5 0 13 3;
#X connect 6 0 13 4;
#X connect 7 0 12 0;
#X connect 8 0 9 0;
#X connect 9 0 13 0;
#X connect 10 0 0 1;
#X connect 12 0 2 0;
#X connect 12 1 2 1;
#X connect 12 2 2 2;
#X connect 12 3 2 3;
#X connect 12 4 10 0;
#X connect 12 5 8 0;
#X connect 13 0 0 0;
