#N canvas 540 155 450 483 12;
#X obj 77 27 inlet;
#X obj 157 47 route list;
#X obj 157 72 unpack f f;
#X obj 157 97 mtof;
#X obj 56 256 wavetableOsc~;
#X obj 220 256 wavetableOsc~;
#X obj 56 230 modulate~;
#X obj 220 230 modulate~;
#X obj 268 67 prefixMsg \$0;
#X obj 231 97 / 127;
#X obj 288 102 r \$0glide;
#X obj 143 298 +~;
#X obj 15 195 r \$0osc1;
#X obj 266 173 r \$0osc2;
#X obj 116 201 inlet~;
#X obj 280 201 inlet~;
#X obj 157 147 line~;
#X obj 157 122 pack;
#X obj 234 394 EG~;
#X obj 139 413 *~;
#X obj 139 438 outlet~;
#X obj 83 336 invoiceFilter~;
#X obj 139 378 +~;
#X obj 336 201 inlet~;
#X obj 390 201 inlet~;
#X obj 231 127 s \$0gate;
#X obj 234 368 r \$0gate;
#X obj 178 296 r \$0filter1;
#X obj 320 301 r \$0filter2;
#X text 9 60 still missing \; cross modulation \; hard sync \; wave
distortion \; (wraparound shapes) \; noise gen \;;
#X obj 272 394 r \$0env;
#X obj 254 428 switch~;
#X obj 204 336 invoiceFilter~ -1;
#N canvas 0 95 450 300 noteToFilters 0;
#X obj 157 72 unpack f f;
#X obj 157 97 mtof;
#X obj 241 97 / 127;
#X obj 141 211 s \$0filter1;
#X obj 241 211 s \$0filter2;
#X msg 241 122 gate \$1;
#X msg 157 122 key \$1;
#X obj 156 32 inlet;
#X connect 0 0 1 0;
#X connect 0 1 2 0;
#X connect 1 0 6 0;
#X connect 2 0 5 0;
#X connect 5 0 3 0;
#X connect 5 0 4 0;
#X connect 6 0 3 0;
#X connect 6 0 4 0;
#X connect 7 0 0 0;
#X restore 243 20 pd noteToFilters;
#X obj 176 201 pot~ \$0xmod;
#X obj 158 232 *~;
#X connect 0 0 1 0;
#X connect 1 0 2 0;
#X connect 1 0 33 0;
#X connect 1 1 8 0;
#X connect 2 0 3 0;
#X connect 2 1 9 0;
#X connect 3 0 17 0;
#X connect 4 0 11 0;
#X connect 4 0 35 0;
#X connect 5 0 11 1;
#X connect 6 0 4 0;
#X connect 7 0 5 0;
#X connect 9 0 25 0;
#X connect 10 0 17 1;
#X connect 11 0 21 0;
#X connect 11 0 32 0;
#X connect 12 0 4 0;
#X connect 13 0 5 0;
#X connect 14 0 6 1;
#X connect 15 0 7 1;
#X connect 16 0 6 0;
#X connect 16 0 7 0;
#X connect 17 0 16 0;
#X connect 18 0 19 1;
#X connect 18 1 31 0;
#X connect 19 0 20 0;
#X connect 21 0 22 0;
#X connect 22 0 19 0;
#X connect 23 0 21 1;
#X connect 24 0 32 1;
#X connect 26 0 18 0;
#X connect 27 0 21 1;
#X connect 28 0 32 1;
#X connect 30 0 18 1;
#X connect 32 0 22 1;
#X connect 34 0 35 1;
#X connect 35 0 7 0;
