#N canvas 67 158 450 558 12;
#X obj 77 81 inlet;
#X obj 157 101 route list;
#X obj 157 126 unpack f f;
#X obj 157 177 mtof;
#X obj 56 336 wavetableOsc~;
#X obj 220 336 wavetableOsc~;
#X obj 56 310 modulate~;
#X obj 220 310 modulate~;
#X obj 319 26 prefixMsg \$0;
#X obj 224 177 / 127;
#X obj 343 157 r \$0glide;
#X obj 143 378 +~;
#X obj 15 275 r \$0osc1;
#X obj 266 253 r \$0osc2;
#X obj 116 281 inlet~;
#X obj 280 281 inlet~;
#X obj 157 227 line~;
#X obj 157 202 pack;
#X obj 234 474 EG~;
#X obj 139 493 *~;
#X obj 139 518 outlet~;
#X obj 83 416 invoiceFilter~;
#X obj 139 458 +~;
#X obj 336 281 inlet~;
#X obj 390 281 inlet~;
#X obj 224 207 s \$0gate;
#X obj 234 448 r \$0gate;
#X obj 178 376 r \$0filter1;
#X obj 320 381 r \$0filter2;
#X text 9 140 still missing \; cross modulation \; hard sync \; wave
distortion \; (wraparound shapes) \; noise gen \;;
#X obj 272 474 r \$0env;
#X obj 252 499 switch~;
#X obj 204 416 invoiceFilter~ -1;
#N canvas 0 95 450 300 noteToFilters 0;
#X obj 157 72 unpack f f;
#X obj 157 97 mtof;
#X obj 241 97 / 127;
#X obj 141 211 s \$0filter1;
#X obj 241 211 s \$0filter2;
#X msg 241 122 gate \$1;
#X msg 157 122 key \$1;
#X obj 156 32 inlet;
#X connect 0 0 1 0;
#X connect 0 1 2 0;
#X connect 1 0 6 0;
#X connect 2 0 5 0;
#X connect 5 0 3 0;
#X connect 5 0 4 0;
#X connect 6 0 3 0;
#X connect 6 0 4 0;
#X connect 7 0 0 0;
#X restore 61 25 pd noteToFilters;
#X obj 176 281 pot~ \$0xmod;
#X obj 158 312 *~;
#X obj 182 7 r \$0detune;
#X obj 157 152 + 0;
#N canvas 0 95 450 300 detuning 0;
#X obj 232 64 inlet;
#X obj 232 89 clip 0 1;
#X obj 232 139 t b f, f 6;
#X obj 232 164 random;
#X obj 232 213 / 100;
#X obj 232 238 outlet;
#X obj 232 114 * 30;
#X obj 232 188 - 15;
#X connect 0 0 1 0;
#X connect 1 0 6 0;
#X connect 2 0 3 0;
#X connect 2 1 3 1;
#X connect 3 0 7 0;
#X connect 4 0 5 0;
#X connect 6 0 2 0;
#X connect 7 0 4 0;
#X restore 182 32 pd detuning;
#X obj 182 57 t b f;
#X obj 333 51 r \$0legato;
#X obj 343 182 f;
#X obj 294 76 spigot;
#X obj 294 100 > 0;
#X obj 294 125 sel 1;
#X obj 294 150 del 2;
#X connect 0 0 1 0;
#X connect 1 0 2 0;
#X connect 1 0 33 0;
#X connect 1 1 8 0;
#X connect 2 0 37 0;
#X connect 2 1 9 0;
#X connect 2 1 42 0;
#X connect 3 0 17 0;
#X connect 4 0 11 0;
#X connect 4 0 35 0;
#X connect 5 0 11 1;
#X connect 6 0 4 0;
#X connect 7 0 5 0;
#X connect 9 0 25 0;
#X connect 10 0 41 0;
#X connect 11 0 21 0;
#X connect 11 0 32 0;
#X connect 12 0 4 0;
#X connect 13 0 5 0;
#X connect 14 0 6 1;
#X connect 15 0 7 1;
#X connect 16 0 6 0;
#X connect 16 0 7 0;
#X connect 17 0 16 0;
#X connect 18 0 19 1;
#X connect 18 1 31 0;
#X connect 19 0 20 0;
#X connect 21 0 22 0;
#X connect 22 0 19 0;
#X connect 23 0 21 1;
#X connect 24 0 32 1;
#X connect 26 0 18 0;
#X connect 27 0 21 1;
#X connect 28 0 32 1;
#X connect 30 0 18 1;
#X connect 32 0 22 1;
#X connect 34 0 35 1;
#X connect 35 0 7 0;
#X connect 36 0 38 0;
#X connect 37 0 3 0;
#X connect 38 0 39 0;
#X connect 39 0 37 0;
#X connect 39 1 37 1;
#X connect 40 0 42 1;
#X connect 41 0 17 1;
#X connect 42 0 43 0;
#X connect 43 0 44 0;
#X connect 44 0 45 0;
#X connect 44 1 17 1;
#X connect 45 0 41 0;
