#N canvas 539 264 450 300 12;
#X obj 34 193 clone -s 1 wavetableVoice~ 12;
#X obj 34 224 *~;
#X obj 34 253 outlet~;
#N canvas 419 202 450 414 voiceMode 1;
#X obj 127 35 inlet;
#X obj 257 86 listFind poly mono;
#X obj 183 60 route float;
#X obj 127 106 AB;
#X obj 116 241 outlet;
#X obj 51 174 poly 12 1, f 10;
#X obj 51 199 pack f f f;
#X obj 150 157 monophonic;
#X msg 186 116 clear;
#X msg 275 187 12, f 2;
#X obj 275 212 until;
#X msg 275 288 \$1 0;
#X obj 150 183 list prepend all;
#X obj 150 210 list trim;
#X obj 275 136 inlet;
#X obj 183 35 inlet;
#X obj 275 237 f;
#X obj 275 262 + 1;
#X obj 275 162 t b b;
#X msg 307 187 0, f 2;
#X connect 0 0 3 0;
#X connect 1 0 3 1;
#X connect 2 0 3 1;
#X connect 2 1 1 0;
#X connect 3 0 5 0;
#X connect 3 1 7 0;
#X connect 5 0 6 0;
#X connect 5 1 6 1;
#X connect 5 2 6 2;
#X connect 6 0 4 0;
#X connect 7 0 12 0;
#X connect 8 0 7 0;
#X connect 8 0 5 0;
#X connect 9 0 10 0;
#X connect 10 0 16 0;
#X connect 11 0 4 0;
#X connect 12 0 13 0;
#X connect 13 0 4 0;
#X connect 14 0 8 0;
#X connect 14 0 18 0;
#X connect 15 0 2 0;
#X connect 16 0 17 0;
#X connect 17 0 16 1;
#X connect 17 0 11 0;
#X connect 18 0 9 0;
#X connect 18 1 19 0;
#X connect 19 0 10 1;
#X restore 34 162 pd voiceMode;
#X obj 135 148 inlet~;
#X obj 195 148 inlet~;
#X obj 255 148 inlet~;
#X obj 315 148 inlet~;
#X obj 34 36 inlet;
#X obj 185 96 list prepend all;
#X obj 185 121 list trim;
#X obj 84 223 pot~ none 1;
#X text 223 12 still missing \; smart unison mono AND poly \; wavescanning
mechanism \;;
#X obj 34 61 route list mode level panic;
#X connect 0 0 1 0;
#X connect 1 0 2 0;
#X connect 3 0 0 0;
#X connect 4 0 0 1;
#X connect 5 0 0 2;
#X connect 6 0 0 3;
#X connect 7 0 0 4;
#X connect 8 0 13 0;
#X connect 9 0 10 0;
#X connect 10 0 0 0;
#X connect 11 0 1 1;
#X connect 13 0 3 0;
#X connect 13 1 3 1;
#X connect 13 2 11 0;
#X connect 13 3 3 2;
#X connect 13 4 9 0;
