#N canvas 0 95 450 418 12;
#X obj 74 203 cos~;
#X obj 156 153 min~;
#X obj 180 101 *~ -1;
#X obj 181 127 wrap~;
#X obj 247 103 wrap~;
#X obj 229 128 +~;
#X obj 156 178 *~ 4;
#X obj 156 203 -~ 1;
#X obj 229 203 -~ 1;
#X obj 229 178 *~ 2;
#X obj 295 134 samphold~;
#X obj 229 153 -~;
#X obj 295 59 sig~ 0.5;
#X obj 247 78 +~, f 5;
#X obj 156 368 outlet~;
#X obj 74 320 *~;
#X obj 156 320 *~;
#X obj 229 320 *~;
#X obj 248 293 lop~ 50;
#X obj 174 293 lop~ 50;
#X obj 92 293 lop~ 50;
#X obj 295 33 inlet;
#X obj 248 229 inlet;
#X obj 92 267 == 0;
#X obj 174 267 == 1;
#X obj 248 267 == 2;
#X obj 156 53 inlet~;
#X connect 0 0 15 0;
#X connect 1 0 6 0;
#X connect 2 0 3 0;
#X connect 2 0 13 0;
#X connect 3 0 1 1;
#X connect 4 0 5 1;
#X connect 5 0 11 0;
#X connect 6 0 7 0;
#X connect 7 0 16 0;
#X connect 8 0 17 0;
#X connect 9 0 8 0;
#X connect 10 0 11 1;
#X connect 11 0 9 0;
#X connect 12 0 10 0;
#X connect 12 0 13 1;
#X connect 13 0 4 0;
#X connect 15 0 14 0;
#X connect 16 0 14 0;
#X connect 17 0 14 0;
#X connect 18 0 17 1;
#X connect 19 0 16 1;
#X connect 20 0 15 1;
#X connect 21 0 12 0;
#X connect 22 0 23 0;
#X connect 22 0 24 0;
#X connect 22 0 25 0;
#X connect 23 0 20 0;
#X connect 24 0 19 0;
#X connect 25 0 18 0;
#X connect 26 0 0 0;
#X connect 26 0 1 0;
#X connect 26 0 2 0;
#X connect 26 0 5 0;
#X connect 26 0 10 1;
