#N canvas 71 154 373 300 12;
#X obj 74 177 inlet~;
#X obj 74 212 *~;
#X obj 74 237 outlet~;
#X obj 154 212 *~;
#X obj 154 237 outlet~;
#X obj 213 34 inlet;
#X obj 153 42 - 1;
#X obj 153 67 abs;
#X obj 153 92 sqrt;
#X obj 153 117 sig~ 1;
#X obj 153 142 lop~ 50;
#X obj 213 92 sqrt;
#X obj 213 142 lop~ 50;
#X obj 213 117 sig~;
#X obj 154 177 inlet~;
#X obj 213 58 clip 0 1;
#X obj 288 50 loadbang;
#X obj 288 75 \$1;
#X connect 0 0 1 0;
#X connect 1 0 2 0;
#X connect 3 0 4 0;
#X connect 5 0 15 0;
#X connect 6 0 7 0;
#X connect 7 0 8 0;
#X connect 8 0 9 0;
#X connect 9 0 10 0;
#X connect 10 0 1 1;
#X connect 11 0 13 0;
#X connect 12 0 3 1;
#X connect 13 0 12 0;
#X connect 14 0 3 0;
#X connect 15 0 11 0;
#X connect 15 0 6 0;
#X connect 16 0 17 0;
#X connect 17 0 15 0;
