#N canvas 371 339 450 300 12;
#X obj 207 54 inlet;
#X msg 237 105 stop;
#X obj 207 160 outlet;
#X obj 207 79 sel 127 0;
#X obj 207 134 delay 1200;
#X connect 0 0 3 0;
#X connect 1 0 4 0;
#X connect 3 0 4 0;
#X connect 3 1 1 0;
#X connect 4 0 2 0;
