#N canvas 604 30 597 735 12;
#X obj 258 41 notein, f 10;
#X obj 258 66 pack f f f;
#X msg 258 91 \$3 \$1 \$2;
#X obj 346 237 noteout;
#X obj 258 140 t b a;
#X obj 385 40 bng 30 250 50 0 reset\$0 empty reset 0 -10 0 12 #ff0400 #000000 #000000;
#N canvas 1234 109 605 689 grid-state 0;
#X obj 31 75 inlet;
#X msg 31 190 \$2 \$1;
#X obj 31 300 tabread \$0state;
#X obj 31 274 t f f f, f 16;
#X obj 31 385 pack f f f;
#X obj 64 328 % 8;
#X obj 98 328 div 8;
#X obj 322 81 inlet;
#X obj 31 410 route 0 1 3 5, f 18;
#X obj 322 128 t b b, f 7;
#X msg 322 153 64, f 2;
#X obj 322 178 until;
#X obj 322 203 f;
#X obj 360 203 + 1;
#X msg 368 155 0, f 2;
#X obj 322 257 tabread \$0state;
#X obj 322 228 t f f f, f 16;
#X obj 322 311 pack f f f;
#X obj 355 284 % 8;
#X obj 389 284 div 8;
#N canvas 849 327 450 502 column-side-effect 0;
#X obj 138 64 inlet;
#X obj 138 90 t b f;
#X msg 138 117 8, f 2;
#X obj 138 146 until, f 8;
#X obj 138 174 f;
#X msg 178 118 0, f 2;
#X obj 176 174 + 1;
#X obj 138 199 * 8;
#X obj 138 226 +, f 5;
#X obj 138 281 tabread \$0state;
#X text 39 11 this should only cancel cues on the same column \;;
#X text 121 43 column number;
#X msg 138 341 0, f 2;
#X obj 138 386 tabwrite \$0state;
#X text 256 86 cue cancelling \; 4 -> 0 \; 6 -> 1 \;;
#X msg 168 341 1, f 2;
#X obj 138 309 route 4 6;
#X obj 138 254 t f f, f 16;
#X obj 276 382 swap;
#X obj 276 407 pack;
#X obj 276 432 s to-grid\$0;
#X connect 0 0 1 0;
#X connect 1 0 2 0;
#X connect 1 1 8 1;
#X connect 1 1 5 0;
#X connect 2 0 3 0;
#X connect 3 0 4 0;
#X connect 4 0 6 0;
#X connect 4 0 7 0;
#X connect 5 0 4 1;
#X connect 6 0 4 1;
#X connect 7 0 8 0;
#X connect 8 0 17 0;
#X connect 9 0 16 0;
#X connect 12 0 13 0;
#X connect 12 0 18 0;
#X connect 15 0 13 0;
#X connect 15 0 18 0;
#X connect 16 0 12 0;
#X connect 16 1 15 0;
#X connect 17 0 9 0;
#X connect 17 1 13 1;
#X connect 17 1 18 1;
#X connect 18 0 19 0;
#X connect 18 1 19 1;
#X connect 19 0 20 0;
#X restore 72 356 pd column-side-effect;
#X obj 31 100 unpack;
#X obj 31 125 moses 64;
#X obj 31 159 pack, f 6;
#X obj 31 567 tabwrite \$0state;
#X msg 61 465 6, f 2;
#X msg 123 466 6, f 2;
#X msg 92 465 7, f 2;
#X obj 481 620 outlet;
#X msg 92 525 4, f 2;
#N canvas 735 327 450 506 column-side-effect 0;
#X obj 302 140 inlet;
#X obj 98 130 t b f;
#X msg 98 157 8, f 2;
#X obj 98 186 until, f 8;
#X obj 98 214 f;
#X msg 138 158 0, f 2;
#X obj 136 214 + 1;
#X obj 98 239 * 8;
#X obj 98 266 +, f 5;
#X obj 137 349 tabread \$0state;
#X obj 137 454 tabwrite \$0state;
#X msg 137 421 1, f 2;
#X obj 137 320 t f f, f 16;
#X obj 98 54 inlet;
#X obj 98 79 b;
#X obj 98 104 f;
#X text 301 121 button;
#X obj 98 292 select;
#X obj 287 384 swap;
#X obj 287 409 pack;
#X msg 274 269 \$1 rec \$2;
#X obj 302 165 t f f;
#X obj 302 190 % 8;
#X obj 334 190 div 8;
#X obj 302 215 pack, f 5;
#X obj 274 243 list;
#X obj 263 215 b;
#X text 10 11 this should stop active recordings on the column \; but only at columns that a button is transitioning to 3 or 5;
#X obj 137 379 route 3 5;
#X obj 287 434 s to-grid\$0;
#X obj 274 294 s to-engine\$0;
#X connect 0 0 17 1;
#X connect 0 0 21 0;
#X connect 1 0 2 0;
#X connect 1 1 8 1;
#X connect 1 1 5 0;
#X connect 2 0 3 0;
#X connect 3 0 4 0;
#X connect 4 0 6 0;
#X connect 4 0 7 0;
#X connect 5 0 4 1;
#X connect 6 0 4 1;
#X connect 7 0 8 0;
#X connect 8 0 17 0;
#X connect 9 0 28 0;
#X connect 11 0 10 0;
#X connect 11 0 18 0;
#X connect 12 0 9 0;
#X connect 12 1 10 1;
#X connect 12 1 18 1;
#X connect 13 0 14 0;
#X connect 14 0 15 0;
#X connect 15 0 1 0;
#X connect 17 1 12 0;
#X connect 18 0 19 0;
#X connect 18 1 19 1;
#X connect 19 0 29 0;
#X connect 20 0 30 0;
#X connect 21 0 22 0;
#X connect 21 1 23 0;
#X connect 22 0 15 1;
#X connect 22 0 24 0;
#X connect 23 0 24 1;
#X connect 24 0 25 1;
#X connect 25 0 20 0;
#X connect 26 0 25 0;
#X connect 28 0 11 0;
#X connect 28 0 26 0;
#X connect 28 1 11 0;
#X restore 322 481 pd column-side-effect;
#X msg 322 398 1, f 2;
#X msg 357 398 3, f 2;
#X msg 383 398 5, f 2;
#X text 481 28 start cues \; 0 -> 4 \; 1 -> 6 \; 3 -> 7 \; 5 -> 6 \;;
#X obj 322 444 tabwrite \$0state;
#X obj 30 634 outlet;
#X obj 182 545 swap;
#X obj 182 570 pack;
#X obj 481 446 swap;
#X obj 481 471 pack;
#N canvas 1059 470 450 300 engine-commands 0;
#X obj 99 37 inlet;
#X text 266 24 2 = stop cue \; 4 = start rec cue \; 6 = play cue \; 7 = stop rec cue \;;
#X text 63 19 current state \, row \, col;
#X obj 99 62 t l l, f 17;
#X msg 81 165 stop;
#X msg 123 165 rec;
#X msg 172 165 play;
#X obj 172 128 t b b;
#X obj 141 203 list append;
#X msg 141 228 \$3 \$1 \$4;
#X obj 141 253 s to-engine\$0;
#X obj 99 90 route 2 4 6 7 8, f 18;
#X connect 0 0 3 0;
#X connect 3 0 11 0;
#X connect 3 1 8 1;
#X connect 4 0 8 0;
#X connect 5 0 8 0;
#X connect 6 0 8 0;
#X connect 7 0 6 0;
#X connect 7 1 5 0;
#X connect 8 0 9 0;
#X connect 9 0 10 0;
#X connect 11 0 4 0;
#X connect 11 1 5 0;
#X connect 11 2 6 0;
#X connect 11 3 7 0;
#X connect 11 4 4 0;
#X restore 330 339 pd engine-commands;
#N canvas 0 50 450 250 (subpatch) 0;
#X array \$0state 64 float 2;
#X coords 0 7 64 0 232 39 1 0 0;
#X restore 105 25 graph;
#X obj 182 595 s to-grid\$0;
#X obj 30 608 r to-engine\$0;
#X obj 491 590 r to-grid\$0;
#X obj 213 81 inlet;
#N canvas 209 139 498 403 done 0;
#X obj 87 17 inlet;
#X obj 87 42 route list;
#X obj 87 68 unpack f f;
#X obj 154 95 - 1;
#X text 186 125 convert to button;
#X text 165 68 <- col \, row;
#X obj 154 120 * 8;
#X obj 87 140 +;
#X obj 87 191 tabread \$0state;
#X obj 87 165 t f f, f 7;
#X msg 87 291 1, f 2;
#X obj 87 334 tabwrite \$0state;
#X obj 225 344 s to-grid\$0;
#X obj 225 315 pack;
#X obj 225 288 swap;
#X obj 87 216 route 5 3 7;
#X text 256 176 3 or 7 means that something stopped the recording ahead of time \; in this case \, it should cue for playing., f 25;
#X msg 136 265 6, f 2;
#X connect 0 0 1 0;
#X connect 1 0 2 0;
#X connect 2 0 7 0;
#X connect 2 1 3 0;
#X connect 3 0 6 0;
#X connect 6 0 7 1;
#X connect 7 0 9 0;
#X connect 8 0 15 0;
#X connect 9 0 8 0;
#X connect 9 1 11 1;
#X connect 9 1 14 1;
#X connect 10 0 11 0;
#X connect 10 0 14 0;
#X connect 13 0 12 0;
#X connect 14 0 13 0;
#X connect 14 1 13 1;
#X connect 15 0 10 0;
#X connect 15 1 17 0;
#X connect 15 2 17 0;
#X connect 17 0 11 0;
#X restore 213 116 pd done;
#N canvas 495 217 450 323 toggle-params 0;
#X obj 237 33 inlet;
#X obj 28 27 inlet;
#X obj 28 240 s to-engine\$0;
#X obj 237 62 route 82 83 84 85 86 87 88;
#X obj 288 152 sel 127;
#X obj 288 177 tgl 20 0 empty empty empty 0 -10 0 12 #fcfcfc #000000 #000000 0 1;
#X obj 288 202 v rec-arm\$0;
#X msg 234 216 84 \$1;
#X obj 234 241 s to-grid\$0;
#X msg 389 221 86 \$1;
#X obj 339 100 v select\$0;
#X obj 28 52 t f b;
#X obj 67 79 v select\$0;
#X obj 28 107 spigot;
#X obj 28 132 t f f;
#X obj 28 157 % 8;
#X obj 60 157 div 8;
#X obj 28 182 pack, f 5;
#X msg 28 207 \$1 set-tempo \$2;
#X connect 0 0 3 0;
#X connect 1 0 11 0;
#X connect 3 2 4 0;
#X connect 3 4 9 0;
#X connect 3 4 10 0;
#X connect 4 0 5 0;
#X connect 5 0 6 0;
#X connect 5 0 7 0;
#X connect 7 0 8 0;
#X connect 9 0 8 0;
#X connect 11 0 13 0;
#X connect 11 1 12 0;
#X connect 12 0 13 1;
#X connect 13 0 14 0;
#X connect 14 0 15 0;
#X connect 14 1 16 0;
#X connect 15 0 17 0;
#X connect 16 0 17 1;
#X connect 17 0 18 0;
#X connect 18 0 2 0;
#X restore 40 244 pd toggle-params;
#X obj 84 159 pack;
#X obj 31 215 route 127;
#N canvas 735 327 450 300 rec-or-stop 0;
#X obj 131 23 inlet;
#X obj 131 74 v rec-arm\$0;
#X obj 131 99 sel 0 1, f 11;
#X msg 131 124 8, f 2;
#X msg 168 124 4, f 2;
#X obj 131 189 outlet;
#X obj 199 189 outlet;
#X msg 199 156 2, f 2;
#X obj 131 48 b;
#X connect 0 0 8 0;
#X connect 1 0 2 0;
#X connect 2 0 3 0;
#X connect 2 1 4 0;
#X connect 3 0 5 0;
#X connect 3 0 7 0;
#X connect 4 0 5 0;
#X connect 4 0 6 0;
#X connect 7 0 6 0;
#X connect 8 0 1 0;
#X restore 31 438 pd rec-or-stop;
#X f 18;
#X obj 322 366 route 2 4 6 7 8, f 17;
#X msg 414 398 0, f 2;
#X text 381 26 resolve cues \; 6 -> 5 \; 4 -> 3 \; 2 -> 1 \; 7 -> 5 \; 8 -> 0 \;;
#N canvas 439 321 450 378 reset 0;
#X msg 180 69 64, f 2;
#X obj 180 94 until, f 7;
#X obj 180 119 f, f 5;
#X obj 232 119 + 1;
#X msg 212 70 0, f 2;
#X msg 112 209 \$1 0;
#X obj 112 234 s to-grid\$0;
#X msg 92 73 const 0;
#X obj 92 98 s \$0state;
#X obj 157 41 t b b b;
#X obj 199 184 tabread \$0state;
#X obj 199 209 route 3 5, f 11;
#X obj 180 144 t f f f f, f 21;
#X obj 218 273 list append;
#X msg 199 234 rec;
#X msg 236 234 stop;
#X obj 292 217 % 8;
#X obj 324 217 div 8;
#X obj 292 244 pack, f 5;
#X msg 218 298 \$2 \$1 \$3;
#X obj 218 323 s to-engine\$0;
#X obj 157 14 r reset\$0;
#X connect 0 0 1 0;
#X connect 1 0 2 0;
#X connect 2 0 3 0;
#X connect 2 0 12 0;
#X connect 3 0 2 1;
#X connect 4 0 2 1;
#X connect 5 0 6 0;
#X connect 7 0 8 0;
#X connect 9 0 7 0;
#X connect 9 1 0 0;
#X connect 9 2 4 0;
#X connect 10 0 11 0;
#X connect 11 0 14 0;
#X connect 11 1 15 0;
#X connect 12 0 5 0;
#X connect 12 1 10 0;
#X connect 12 2 16 0;
#X connect 12 3 17 0;
#X connect 13 0 19 0;
#X connect 14 0 13 0;
#X connect 15 0 13 0;
#X connect 16 0 18 0;
#X connect 17 0 18 1;
#X connect 18 0 13 1;
#X connect 19 0 20 0;
#X connect 21 0 9 0;
#X restore 475 177 pd reset;
#N canvas 684 334 450 300 clear-slot 0;
#X obj 158 54 clone delete-timeout 64, f 17;
#X obj 158 238 s to-engine\$0;
#X obj 158 26 inlet;
#X obj 158 94 t f f;
#X obj 158 159 % 8;
#X obj 190 159 div 8;
#X obj 158 184 pack, f 5;
#X msg 158 209 \$1 clear \$2;
#X obj 281 185 tabwrite \$0state;
#X msg 281 160 0;
#X msg 31 133 \$1 0;
#X obj 31 158 s to-grid\$0;
#X connect 0 0 3 0;
#X connect 2 0 0 0;
#X connect 3 0 4 0;
#X connect 3 0 9 0;
#X connect 3 0 10 0;
#X connect 3 1 5 0;
#X connect 3 1 8 1;
#X connect 4 0 6 0;
#X connect 5 0 6 1;
#X connect 6 0 7 0;
#X connect 7 0 1 0;
#X connect 9 0 8 0;
#X connect 10 0 11 0;
#X restore 143 194 pd clear-slot;
#X connect 0 0 21 0;
#X connect 1 0 50 0;
#X connect 2 0 4 0;
#X connect 3 0 2 0;
#X connect 3 1 5 0;
#X connect 3 2 6 0;
#X connect 3 2 24 1;
#X connect 3 2 37 1;
#X connect 4 0 8 0;
#X connect 5 0 4 1;
#X connect 5 0 20 0;
#X connect 6 0 4 2;
#X connect 7 0 9 0;
#X connect 8 0 51 0;
#X connect 8 1 25 0;
#X connect 8 2 27 0;
#X connect 8 3 26 0;
#X connect 9 0 10 0;
#X connect 9 1 14 0;
#X connect 10 0 11 0;
#X connect 11 0 12 0;
#X connect 12 0 13 0;
#X connect 12 0 16 0;
#X connect 13 0 12 1;
#X connect 14 0 12 1;
#X connect 15 0 17 0;
#X connect 16 0 15 0;
#X connect 16 1 18 0;
#X connect 16 2 19 0;
#X connect 16 2 35 1;
#X connect 16 2 39 1;
#X connect 16 2 30 1;
#X connect 17 0 41 0;
#X connect 17 0 52 0;
#X connect 18 0 17 1;
#X connect 19 0 17 2;
#X connect 21 0 22 0;
#X connect 21 1 23 1;
#X connect 21 1 49 1;
#X connect 22 0 23 0;
#X connect 22 1 49 0;
#X connect 23 0 1 0;
#X connect 23 0 56 0;
#X connect 25 0 24 0;
#X connect 25 0 37 0;
#X connect 26 0 24 0;
#X connect 26 0 37 0;
#X connect 27 0 24 0;
#X connect 27 0 29 0;
#X connect 29 0 37 0;
#X connect 31 0 35 0;
#X connect 31 0 39 0;
#X connect 32 0 35 0;
#X connect 32 0 39 0;
#X connect 32 0 30 0;
#X connect 33 0 35 0;
#X connect 33 0 39 0;
#X connect 33 0 30 0;
#X connect 37 0 38 0;
#X connect 37 1 38 1;
#X connect 38 0 43 0;
#X connect 39 0 40 0;
#X connect 39 1 40 1;
#X connect 40 0 28 0;
#X connect 44 0 36 0;
#X connect 45 0 28 0;
#X connect 46 0 47 0;
#X connect 49 0 48 1;
#X connect 50 0 3 0;
#X connect 50 0 48 0;
#X connect 51 0 24 0;
#X connect 51 1 37 0;
#X connect 52 0 31 0;
#X connect 52 1 32 0;
#X connect 52 2 33 0;
#X connect 52 3 33 0;
#X connect 52 4 53 0;
#X connect 53 0 35 0;
#X connect 53 0 39 0;
#X connect 53 0 30 0;
#X restore 258 212 pd grid-state;
#X obj 258 379 clone smp 8, f 14;
#X obj 258 456 outlet~;
#X obj 346 185 spigot;
#X obj 258 116 route 1;
#X obj 404 192 spigot 1;
#X obj 404 154 r bar;
#X obj 385 88 tgl 30 0 empty empty disable-cues 0 -10 0 12 #faff00 #000000 #000000 0 1;
#X obj 385 127 == 1;
#X obj 457 118 == 0;
#X obj 305 265 adc~ 1 2 3 4, f 26;
#X obj 333 456 outlet~;
#X obj 27 113 r rec-thru-n-bars;
#X obj 90 138 r tempo;
#X obj 90 163 r n-beats;
#X obj 27 158 mul 500;
#X obj 27 183 mul 4;
#X obj 27 208 sel 0;
#X msg 27 260 all max-smp-time \$1, f 12;
#X msg 27 233 60000;
#X obj 158 438 ctlin, f 10;
#X obj 158 463 pack f f f;
#X msg 158 488 \$3 \$2 \$1;
#X obj 158 513 route 1;
#X msg 26 49 127;
#X msg 66 49 1023;
#X obj 26 74 s knob-resolution;
#X obj 158 563 - 48;
#X obj 158 538 unpack;
#X obj 158 613 pack, f 6;
#X msg 158 638 \$1 level \$2;
#X obj 26 21 loadbang;
#X msg 27 396 \$1 show-fx;
#X obj 27 369 r show-fx-window;
#X obj 227 328 r params;
#X obj 24 468 r show-input-fx;
#X obj 24 494 + 1;
#N canvas 775 348 450 300 global-sends 0;
#X obj 47 108 reverbs/reverbCH~;
#X obj 163 55 catch~ global-fx-send-R;
#X obj 47 29 catch~ global-fx-send-L;
#X obj 47 163 outlet~;
#X obj 163 163 outlet~;
#X connect 0 0 3 0;
#X connect 0 1 4 0;
#X connect 0 2 3 0;
#X connect 0 3 4 0;
#X connect 1 0 0 1;
#X connect 2 0 0 0;
#X restore 406 438 pd global-sends;
#X obj 406 466 outlet~;
#X obj 508 466 outlet~;
#X obj 158 663 s params;
#X obj 27 421 s params;
#X obj 27 315 s params;
#X msg 24 519 \; pd-fx-\$1 vis 1;
#N canvas 280 115 430 678 fx-1 0;
#X obj 32 21 inlet~;
#X obj 32 625 outlet~;
#X obj 161 490 r dout-1;
#X obj 116 562 *~;
#X obj 157 625 outlet~;
#X obj 161 515 lop~ 50;
#X obj 32 493 gain~;
#A saved 0.629961;
#X obj 116 589 pan~;
#X obj 100 625 outlet~;
#X obj 151 559 r fx-pan-1;
#X obj 244 596 throw~ global-fx-send-L;
#X obj 244 552 gain~ 0;
#A saved 0;
#X connect 0 0 6 0;
#X connect 2 0 5 0;
#X connect 3 0 7 0;
#X connect 5 0 3 1;
#X connect 6 0 1 0;
#X connect 6 0 3 0;
#X connect 6 0 11 0;
#X connect 7 0 8 0;
#X connect 7 1 4 0;
#X connect 9 0 7 1;
#X connect 11 0 10 0;
#X restore 305 292 pd fx-1;
#N canvas 735 327 378 471 fx-2 0;
#X obj 33 11 inlet~;
#X obj 33 426 outlet~;
#X obj 33 326 gain~;
#A saved 0.629961;
#X obj 221 363 *~;
#X obj 262 426 outlet~;
#X obj 256 326 lop~ 50;
#X obj 221 390 pan~;
#X obj 205 426 outlet~;
#X obj 256 301 r dout-2;
#X obj 256 360 r fx-pan-2;
#X connect 0 0 2 0;
#X connect 2 0 1 0;
#X connect 2 0 3 0;
#X connect 3 0 6 0;
#X connect 5 0 3 1;
#X connect 6 0 7 0;
#X connect 6 1 4 0;
#X connect 8 0 5 0;
#X connect 9 0 6 1;
#X restore 364 292 pd fx-2;
#N canvas 720 181 378 691 fx-3 0;
#X obj 13 11 inlet~;
#X obj 13 646 outlet~;
#X obj 13 546 gain~;
#A saved 0.629961;
#X obj 140 583 *~;
#X obj 181 646 outlet~;
#X obj 175 546 lop~ 50;
#X obj 140 610 pan~;
#X obj 124 646 outlet~;
#X obj 175 521 r dout-3;
#X obj 175 580 r fx-pan-3;
#X connect 0 0 2 0;
#X connect 2 0 1 0;
#X connect 2 0 3 0;
#X connect 3 0 6 0;
#X connect 5 0 3 1;
#X connect 6 0 7 0;
#X connect 6 1 4 0;
#X connect 8 0 5 0;
#X connect 9 0 6 1;
#X restore 424 292 pd fx-3;
#N canvas 710 115 444 678 fx-4 0;
#X obj 23 11 inlet~;
#X obj 23 636 outlet~;
#X obj 23 505 gain~;
#A saved 0.629961;
#X obj 121 573 *~;
#X obj 162 636 outlet~;
#X obj 166 526 lop~ 50;
#X obj 121 600 pan~;
#X obj 105 636 outlet~;
#X obj 166 501 r dout-4;
#X obj 156 570 r fx-pan-4;
#X obj 244 611 throw~ global-fx-send-L;
#X obj 244 565 gain~ 0;
#A saved 0;
#X connect 0 0 2 0;
#X connect 2 0 1 0;
#X connect 2 0 3 0;
#X connect 2 0 11 0;
#X connect 3 0 6 0;
#X connect 5 0 3 1;
#X connect 6 0 7 0;
#X connect 6 1 4 0;
#X connect 8 0 5 0;
#X connect 9 0 6 1;
#X connect 11 0 10 0;
#X restore 484 292 pd fx-4;
#X obj 24 563 keyname, f 8;
#X obj 24 588 pack f s;
#X obj 24 638 route Control_L;
#X msg 24 613 \$2 \$1;
#X obj 24 663 v ctrl-pressed;
#X obj 158 588 moses 8;
#X obj 388 372 *~ 1;
#X obj 456 372 *~ 1;
#X msg 138 15 dsp 1;
#X obj 138 40 s pd;
#X connect 0 0 1 0;
#X connect 0 1 1 1;
#X connect 0 2 1 2;
#X connect 1 0 2 0;
#X connect 2 0 10 0;
#X connect 4 0 9 0;
#X connect 4 1 6 0;
#X connect 6 0 7 0;
#X connect 6 1 3 0;
#X connect 7 0 8 0;
#X connect 7 1 17 0;
#X connect 7 2 6 1;
#X connect 9 0 6 2;
#X connect 10 0 4 0;
#X connect 11 0 6 2;
#X connect 12 0 11 0;
#X connect 13 0 14 0;
#X connect 13 0 15 0;
#X connect 14 0 9 1;
#X connect 15 0 11 1;
#X connect 16 0 50 0;
#X connect 16 1 51 0;
#X connect 16 2 52 0;
#X connect 16 3 53 0;
#X connect 18 0 21 0;
#X connect 19 0 21 1;
#X connect 20 0 22 1;
#X connect 21 0 22 0;
#X connect 22 0 23 0;
#X connect 23 0 25 0;
#X connect 23 1 24 0;
#X connect 24 0 48 0;
#X connect 25 0 24 0;
#X connect 26 0 27 0;
#X connect 26 1 27 1;
#X connect 26 2 27 2;
#X connect 27 0 28 0;
#X connect 28 0 29 0;
#X connect 29 0 34 0;
#X connect 30 0 32 0;
#X connect 31 0 32 0;
#X connect 33 0 59 0;
#X connect 34 0 33 0;
#X connect 34 1 35 1;
#X connect 35 0 36 0;
#X connect 36 0 46 0;
#X connect 37 0 30 0;
#X connect 37 0 62 0;
#X connect 38 0 47 0;
#X connect 39 0 38 0;
#X connect 40 0 7 0;
#X connect 41 0 42 0;
#X connect 42 0 49 0;
#X connect 43 0 44 0;
#X connect 43 1 45 0;
#X connect 50 0 7 0;
#X connect 50 1 60 0;
#X connect 50 2 61 0;
#X connect 51 0 7 1;
#X connect 51 1 60 0;
#X connect 51 2 61 0;
#X connect 52 0 7 2;
#X connect 52 1 60 0;
#X connect 52 2 61 0;
#X connect 53 0 7 3;
#X connect 53 1 60 0;
#X connect 53 2 61 0;
#X connect 54 0 55 0;
#X connect 54 1 55 1;
#X connect 55 0 57 0;
#X connect 56 0 58 0;
#X connect 57 0 56 0;
#X connect 59 0 35 0;
#X connect 60 0 8 0;
#X connect 61 0 17 0;
#X connect 62 0 63 0;
