#N canvas 1012 172 364 534 12;
#X obj 20 19 metronome;
#X obj 18 191 cnv 20 146 30 empty empty rec\ thru 2 15 0 14 #e0e0e0 #404040 0;
#X obj 88 196 nbx 2 18 0 8 0 0 rec-thru-n-bars empty bars 40 10 0 14 #dfdfdf #ff0400 #404040 0 256;
#X obj 223 73 hradio 20 1 0 4 show-input-fx empty Audio\ ch.\ FX 0 -10 0 12 #bbbbbb #000000 #000000 0;
#X obj 205 235 else/meter4~;
#X obj 223 33 tgl 20 0 dout-1 empty Direct\ Out 0 -10 0 12 #fcfcfc #000000 #000000 0 1;
#X obj 243 33 tgl 20 0 dout-2 empty empty 0 -10 0 12 #fcfcfc #000000 #000000 0 1;
#X obj 263 33 tgl 20 0 dout-3 empty empty 0 -10 0 12 #fcfcfc #000000 #000000 0 1;
#X obj 283 33 tgl 20 0 dout-4 empty empty 0 -10 0 12 #fcfcfc #000000 #000000 0 1;
#N canvas 735 352 354 250 (subpatch) 0;
#X obj 47 63 bng 20 250 50 0 empty empty ext.\ MIDI\ start 0 -10 0 12 #fcfcfc #000000 #000000;
#X obj 172 48 r bar;
#X obj 172 73 bng 20 250 50 0 empty empty empty 0 -10 0 12 #fcfcfc #000000 #000000;
#X obj 172 100 spigot;
#X msg 251 120 0;
#X msg 47 110 1;
#X obj 238 154 loadbang;
#X msg 238 179 2;
#X msg 172 154 250;
#X obj 172 179 midiout;
#X obj 136 83 bng 20 100 100 0 empty empty empty 0 -10 0 12 #000000 #ff0400 #000000;
#X obj 94 141 metro 200;
#X connect 0 0 5 0;
#X connect 1 0 2 0;
#X connect 2 0 3 0;
#X connect 3 0 4 0;
#X connect 3 0 8 0;
#X connect 4 0 3 1;
#X connect 4 0 11 0;
#X connect 5 0 3 1;
#X connect 5 0 11 0;
#X connect 6 0 7 0;
#X connect 7 0 9 1;
#X connect 8 0 9 0;
#X connect 11 0 10 0;
#X coords 0 1 100 -1 118 65 1 40 40;
#X restore 18 116 graph;
#N canvas 735 352 450 250 (subpatch) 0;
#X obj 27 32 hsl 50 12 0 1 0 0 fx-pan-1 empty pan -2 -6 0 10 #fcfcfc #000000 #000000 0 1;
#X obj 27 47 hsl 50 12 0 1 0 0 fx-pan-2 empty empty -2 -10 0 12 #fcfcfc #000000 #000000 0 1;
#X text 80 29 1 2 3 4, f 2;
#X obj 27 62 hsl 50 12 0 1 0 0 fx-pan-3 empty empty -2 -10 0 12 #fcfcfc #000000 #000000 0 1;
#X obj 27 77 hsl 50 12 0 1 0 0 fx-pan-4 empty empty -2 -10 0 12 #fcfcfc #000000 #000000 0 1;
#X obj 104 33 bng 15 250 50 0 empty empty reset -5 -6 0 10 #fcfcfc #000000 #000000;
#X msg 117 107 0.5;
#X obj 186 133 loadbang;
#X connect 5 0 6 0;
#X connect 6 0 3 0;
#X connect 6 0 4 0;
#X connect 6 0 1 0;
#X connect 6 0 0 0;
#X connect 7 0 6 0;
#X coords 0 1 100 -1 110 75 1 20 20;
#X restore 223 103 graph;
#N canvas 735 352 593 414 (subpatch) 0;
#X obj 24 40 hradio 20 1 0 8 show-fx-window empty show\ FX\ for\ sample\ ch. 0 -10 0 12 #bbbbbb #000000 #000000 0;
#X obj 27 77 vradio 14 1 0 4 empty empty audio\ src. 0 -7 0 12 #fcfcfc #000000 #000000 0;
#X obj 47 77 vradio 14 1 0 4 empty empty empty 0 -10 0 12 #fcfcfc #000000 #000000 0;
#X obj 67 77 vradio 14 1 0 4 empty empty empty 0 -10 0 12 #fcfcfc #000000 #000000 0;
#X obj 87 77 vradio 14 1 0 4 empty empty empty 0 -10 0 12 #fcfcfc #000000 #000000 0;
#X obj 107 77 vradio 14 1 0 4 empty empty empty 0 -10 0 12 #fcfcfc #000000 #000000 0;
#X obj 127 77 vradio 14 1 0 4 empty empty empty 0 -10 0 12 #fcfcfc #000000 #000000 0;
#X obj 147 77 vradio 14 1 0 4 empty empty empty 0 -10 0 12 #fcfcfc #000000 #000000 0;
#X obj 167 77 vradio 14 1 0 4 empty empty empty 0 -10 0 12 #fcfcfc #000000 #000000 0;
#X obj 27 170 + 1;
#X obj 230 362 s params;
#X obj 27 195 pack f 0;
#X obj 164 170 + 1;
#X obj 296 170 + 1;
#X obj 442 170 + 1;
#X obj 95 170 + 1;
#X obj 229 170 + 1;
#X obj 371 170 + 1;
#X obj 511 170 + 1;
#X obj 95 195 pack f 1;
#X obj 164 195 pack f 2;
#X obj 229 195 pack f 3;
#X obj 296 195 pack f 4;
#X obj 371 195 pack f 5;
#X obj 442 195 pack f 6;
#X obj 511 195 pack f 7;
#X msg 230 337 \$2 input \$1;
#X connect 1 0 9 0;
#X connect 2 0 15 0;
#X connect 3 0 12 0;
#X connect 4 0 16 0;
#X connect 5 0 13 0;
#X connect 6 0 17 0;
#X connect 7 0 14 0;
#X connect 8 0 18 0;
#X connect 9 0 11 0;
#X connect 11 0 26 0;
#X connect 12 0 20 0;
#X connect 13 0 22 0;
#X connect 14 0 24 0;
#X connect 15 0 19 0;
#X connect 16 0 21 0;
#X connect 17 0 23 0;
#X connect 18 0 25 0;
#X connect 19 0 26 0;
#X connect 20 0 26 0;
#X connect 21 0 26 0;
#X connect 22 0 26 0;
#X connect 23 0 26 0;
#X connect 24 0 26 0;
#X connect 25 0 26 0;
#X connect 26 0 10 0;
#X coords 0 1 100 -1 168 116 1 20 20;
#X restore 18 230 graph;
#N canvas 735 352 360 288 (subpatch) 0;
#X obj 27 32 hsl 50 12 0 127 0 0 empty empty pan -2 -6 0 10 #fcfcfc #000000 #000000 0 1;
#X obj 27 47 hsl 50 12 0 127 0 0 empty empty empty -2 -10 0 12 #fcfcfc #000000 #000000 0 1;
#X text 80 29 1 2 3 4, f 1;
#X obj 170 34 bng 15 250 50 0 empty empty reset -5 -6 0 10 #fcfcfc #000000 #000000;
#X obj 256 62 loadbang;
#X text 152 29 5 6 7 8, f 1;
#X obj 27 62 hsl 50 12 0 127 0 0 empty empty empty -2 -10 0 12 #fcfcfc #000000 #000000 0 1;
#X obj 27 77 hsl 50 12 0 127 0 0 empty empty empty -2 -10 0 12 #fcfcfc #000000 #000000 0 1;
#X obj 99 47 hsl 50 12 0 127 0 0 empty empty empty -2 -10 0 12 #fcfcfc #000000 #000000 0 1;
#X obj 99 62 hsl 50 12 0 127 0 0 empty empty empty -2 -10 0 12 #fcfcfc #000000 #000000 0 1;
#X obj 99 77 hsl 50 12 0 127 0 0 empty empty empty -2 -10 0 12 #fcfcfc #000000 #000000 0 1;
#X obj 99 32 hsl 50 12 0 127 0 0 empty empty empty -2 -10 0 12 #fcfcfc #000000 #000000 0 1;
#X msg 63 120 0 pan \$1;
#X msg 72 146 1 pan \$1;
#X msg 83 170 2 pan \$1;
#X msg 92 196 3 pan \$1;
#X msg 143 120 4 pan \$1;
#X msg 152 146 5 pan \$1;
#X msg 163 170 6 pan \$1;
#X msg 172 196 7 pan \$1;
#X obj 63 248 s params;
#X msg 256 89 64;
#X connect 0 0 12 0;
#X connect 1 0 13 0;
#X connect 3 0 21 0;
#X connect 4 0 21 0;
#X connect 6 0 14 0;
#X connect 7 0 15 0;
#X connect 8 0 17 0;
#X connect 9 0 18 0;
#X connect 10 0 19 0;
#X connect 11 0 16 0;
#X connect 12 0 20 0;
#X connect 13 0 20 0;
#X connect 14 0 20 0;
#X connect 15 0 20 0;
#X connect 16 0 20 0;
#X connect 17 0 20 0;
#X connect 18 0 20 0;
#X connect 19 0 20 0;
#X connect 21 0 11 0;
#X connect 21 0 10 0;
#X connect 21 0 9 0;
#X connect 21 0 8 0;
#X connect 21 0 7 0;
#X connect 21 0 6 0;
#X connect 21 0 1 0;
#X connect 21 0 0 0;
#X coords 0 1 100 -1 177 74 1 20 20;
#X restore 18 446 graph;
#X obj 232 206 engine~;
#N canvas 735 352 450 346 (subpatch) 0;
#X obj 24 38 vsl 14 60 0 127 0 0 empty empty reverb-send 0 -9 0 12 #fcfcfc #000000 #000000 0 1;
#X obj 44 38 vsl 14 60 0 127 0 0 empty empty empty 0 -9 0 12 #fcfcfc #000000 #000000 0 1;
#X obj 64 38 vsl 14 60 0 127 0 0 empty empty empty 0 -9 0 12 #fcfcfc #000000 #000000 0 1;
#X obj 84 38 vsl 14 60 0 127 0 0 empty empty empty 0 -9 0 12 #fcfcfc #000000 #000000 0 1;
#X obj 104 38 vsl 14 60 0 127 0 0 empty empty empty 0 -9 0 12 #fcfcfc #000000 #000000 0 1;
#X obj 124 38 vsl 14 60 0 127 0 0 empty empty empty 0 -9 0 12 #fcfcfc #000000 #000000 0 1;
#X obj 144 38 vsl 14 60 0 127 0 0 empty empty empty 0 -9 0 12 #fcfcfc #000000 #000000 0 1;
#X obj 164 38 vsl 14 60 0 127 0 0 empty empty empty 0 -9 0 12 #fcfcfc #000000 #000000 0 1;
#X obj 24 128 pack f 0;
#X msg 182 261 \$2 send \$1;
#X obj 182 286 s params;
#X obj 84 183 pack f 1;
#X obj 114 128 pack f 2;
#X obj 174 183 pack f 3;
#X obj 204 128 pack f 4;
#X obj 264 183 pack f 5;
#X obj 294 128 pack f 6;
#X obj 354 183 pack f 7;
#X connect 0 0 8 0;
#X connect 1 0 11 0;
#X connect 2 0 12 0;
#X connect 3 0 13 0;
#X connect 4 0 14 0;
#X connect 5 0 15 0;
#X connect 6 0 16 0;
#X connect 7 0 17 0;
#X connect 8 0 9 0;
#X connect 9 0 10 0;
#X connect 11 0 9 0;
#X connect 12 0 9 0;
#X connect 13 0 9 0;
#X connect 14 0 9 0;
#X connect 15 0 9 0;
#X connect 16 0 9 0;
#X connect 17 0 9 0;
#X coords 0 1 100 -1 163 85 1 20 20;
#X restore 18 355 graph;
#X text 219 425 TODO \; save/load to disk \; slicing mode \; sync button;
#X obj 229 383 dac~;
#X connect 4 0 16 0;
#X connect 4 1 16 1;
#X connect 4 2 16 0;
#X connect 4 3 16 1;
#X connect 13 0 4 0;
#X connect 13 1 4 1;
#X connect 13 2 4 2;
#X connect 13 3 4 3;
