#N canvas 234 215 571 485 12;
#X obj 40 134 inlet;
#X obj 40 413 outlet;
#X obj 273 120 loadbang;
#X msg 273 145 args;
#X obj 273 170 pdcontrol;
#X obj 273 195 route list;
#X obj 176 358 tabwrite;
#X obj 305 258 list split 2;
#X obj 345 285 unpack f s;
#X msg 176 325 set \$1-\$2-preset\$3;
#X obj 144 145 inlet;
#X obj 176 278 list prepend;
#X obj 144 198 1;
#X obj 345 312 - 1;
#X obj 345 338 max 0;
#X obj 273 225 t b l;
#X msg 412 365 0.5;
#X obj 40 184 / 1023;
#X obj 412 338 route center inv;
#X msg 466 365 1;
#X obj 412 311 list trim;
#X obj 144 171 clip 1 8;
#X text 17 49 1st argument is position of preset table + 1 \; 2nd and 3nd args are parent IDs \; 4th argument is start position, f 46;
#X obj 435 393 pipe 10;
#X obj 144 249 t b f;
#X obj 75 358 tabread;
#X obj 75 303 \$3;
#X obj 75 328 - 1;
#X obj 40 159 clip 0 1023;
#X text 20 12 cooks up a range 0-1024 or 0-127 and also saves it in a buffer called "\$1-\$2-presetX" \, where X is 2nd inlet.;
#X obj 114 111 r knob-resolution;
#X connect 0 0 28 0;
#X connect 2 0 3 0;
#X connect 3 0 4 0;
#X connect 4 0 5 0;
#X connect 5 0 15 0;
#X connect 7 0 11 1;
#X connect 7 1 8 0;
#X connect 8 0 13 0;
#X connect 8 1 20 0;
#X connect 9 0 6 0;
#X connect 9 0 25 0;
#X connect 10 0 21 0;
#X connect 11 0 9 0;
#X connect 12 0 24 0;
#X connect 13 0 14 0;
#X connect 14 0 6 1;
#X connect 15 0 12 0;
#X connect 15 1 7 0;
#X connect 16 0 23 0;
#X connect 17 0 1 0;
#X connect 17 0 6 0;
#X connect 18 0 16 0;
#X connect 18 1 19 0;
#X connect 19 0 23 0;
#X connect 20 0 18 0;
#X connect 21 0 12 0;
#X connect 23 0 6 0;
#X connect 23 0 1 0;
#X connect 24 0 26 0;
#X connect 24 1 11 0;
#X connect 25 0 1 0;
#X connect 26 0 27 0;
#X connect 27 0 25 0;
#X connect 28 0 17 0;
#X connect 30 0 28 2;
#X connect 30 0 17 1;
