#N canvas 875 39 620 864 12;
#X obj 55 28 inlet~;
#X obj 360 152 loadbang;
#X obj 94 165 v \$0-rec;
#X obj 94 190 sel 0 1;
#X obj 94 367 t b b;
#X msg 126 400 1;
#X obj 126 425 v \$0-rec;
#X msg 117 294 0;
#X obj 117 319 v \$0-rec;
#X msg 15 251 stop;
#X obj 168 348 timer;
#X obj 187 695 *~;
#X obj 167 806 outlet~;
#X obj 55 588 +~ 1;
#N canvas 413 95 809 768 params 1;
#X obj 35 42 inlet;
#X obj 26 443 /, f 9;
#X obj 101 443 - 2;
#X obj 63 374 r duration\$0;
#X obj 26 576 s rate\$0;
#X obj 35 201 expr pow(2 \, $f1);
#X obj 35 152 * 4;
#X obj 35 177 - 2;
#X obj 26 551 mul 1;
#X obj 101 552 mul 1;
#X obj 35 226 s speed\$0;
#X obj 188 230 expr $f1 - max(0 \, $f1 + $f2 - 1), f 17;
#X obj 289 193 t b f;
#X obj 101 577 s sample-length\$0;
#X obj 321 230 * 48;
#X obj 321 255 s start-point\$0;
#X obj 205 180 s level\$0;
#X obj 26 418 swap 1000;
#X obj 321 292 expr max(0 \, $f1 - ($f2+$f3));
#X obj 205 153 pow 3;
#X obj 365 21 r set-slot\$0;
#X obj 156 418 mul 1;
#X obj 156 543 s real-dur\$0;
#X obj 489 158 s loop\$0;
#X obj 35 112 range \$0 \$1 1 center, f 11;
#X obj 130 112 range \$0 \$1 2 inv, f 8;
#X obj 205 111 range \$0 \$1 3 inv, f 8;
#X obj 274 111 range \$0 \$1 4, f 7;
#X obj 338 111 range \$0 \$1 5, f 7;
#X obj 413 111 range \$0 \$1 6, f 7;
#X obj 338 158 s atk\$0;
#X obj 413 158 s dec\$0;
#X obj 321 376 s time-before-decay\$0;
#X obj 546 284 loadbang;
#X obj 546 309 delay 20;
#X text 546 215 after populating 1st preset table \, be sure to replicate to others \; this should happen once and before any saved preset \;, f 34;
#X obj 546 334 array get \$0-\$1-preset1;
#X obj 546 359 t b l, f 12;
#X msg 546 386 7, f 2;
#X obj 546 411 until;
#X obj 546 436 f;
#X obj 581 436 + 1;
#X msg 590 390 0, f 2;
#X obj 581 488 list prepend \$0 \$1;
#X msg 581 513 symbol \$1-\$2-preset\$3;
#X obj 581 538 t b s;
#X obj 581 596 array set;
#X obj 581 566 list, f 7;
#X obj 581 462 + 1;
#X obj 565 158 s pan\$0;
#X obj 565 110 range \$0 \$1 8 center, f 11;
#X obj 35 72 route speed length level start atk dec loop pan send, f 96;
#X obj 654 111 range \$0 \$1 9, f 7;
#X obj 654 158 s send\$0;
#X obj 489 111 switcher \$0 \$1 7 1, f 9;
#X obj 101 418 *;
#X obj 90 273 loadbang;
#X obj 90 321 samplerate~;
#X obj 90 346 / 1000;
#X obj 90 298 bng 20 250 50 0 empty empty empty 0 -10 0 12 #fcfcfc #000000 #000000;
#X obj 156 517 mul 1;
#X obj 235 355 r speed\$0;
#X msg 235 380 1 \$1;
#X obj 235 405 /;
#X obj 321 346 mul 1;
#X floatatom 271 504 5 0 0 0 - - - 0;
#X connect 0 0 51 0;
#X connect 1 0 8 0;
#X connect 2 0 9 0;
#X connect 3 0 17 0;
#X connect 3 0 21 0;
#X connect 3 0 55 0;
#X connect 5 0 10 0;
#X connect 6 0 7 0;
#X connect 7 0 5 0;
#X connect 8 0 4 0;
#X connect 9 0 13 0;
#X connect 11 0 9 1;
#X connect 11 0 18 0;
#X connect 11 0 21 1;
#X connect 12 0 11 0;
#X connect 12 1 11 1;
#X connect 12 1 14 0;
#X connect 14 0 15 0;
#X connect 17 0 1 0;
#X connect 17 1 1 1;
#X connect 18 0 64 0;
#X connect 19 0 16 0;
#X connect 20 0 24 1;
#X connect 20 0 28 1;
#X connect 20 0 25 1;
#X connect 20 0 26 1;
#X connect 20 0 27 1;
#X connect 20 0 29 1;
#X connect 20 0 54 1;
#X connect 21 0 60 0;
#X connect 24 0 6 0;
#X connect 25 0 11 0;
#X connect 26 0 19 0;
#X connect 27 0 12 0;
#X connect 28 0 18 1;
#X connect 28 0 30 0;
#X connect 29 0 18 2;
#X connect 29 0 31 0;
#X connect 33 0 34 0;
#X connect 34 0 36 0;
#X connect 36 0 37 0;
#X connect 37 0 38 0;
#X connect 37 1 42 0;
#X connect 37 1 47 1;
#X connect 38 0 39 0;
#X connect 39 0 40 0;
#X connect 40 0 41 0;
#X connect 41 0 40 1;
#X connect 41 0 48 0;
#X connect 42 0 40 1;
#X connect 43 0 44 0;
#X connect 44 0 45 0;
#X connect 45 0 47 0;
#X connect 45 1 46 2;
#X connect 47 0 46 0;
#X connect 48 0 43 0;
#X connect 50 0 49 0;
#X connect 51 0 24 0;
#X connect 51 1 25 0;
#X connect 51 2 26 0;
#X connect 51 3 27 0;
#X connect 51 4 28 0;
#X connect 51 5 29 0;
#X connect 51 6 54 0;
#X connect 51 7 50 0;
#X connect 51 8 52 0;
#X connect 52 0 53 0;
#X connect 54 0 23 0;
#X connect 55 0 2 0;
#X connect 56 0 59 0;
#X connect 57 0 58 0;
#X connect 58 0 55 1;
#X connect 59 0 57 0;
#X connect 60 0 22 0;
#X connect 61 0 8 1;
#X connect 61 0 62 0;
#X connect 62 0 63 0;
#X connect 63 0 60 1;
#X connect 63 0 64 1;
#X connect 63 0 65 0;
#X connect 64 0 32 0;
#X restore 189 166 pd params;
#X obj 55 496 r rate\$0;
#X obj 100 588 r start-point\$0;
#X text 386 177 <- max sampling time (sec.);
#X obj 317 212 * 1000;
#X obj 175 232 delay;
#X obj 283 262 table \$0-\$1-buff1;
#X obj 283 286 table \$0-\$1-buff2;
#X obj 283 309 table \$0-\$1-buff3;
#X obj 283 332 table \$0-\$1-buff4;
#X obj 283 356 table \$0-\$1-buff5;
#X obj 283 379 table \$0-\$1-buff6;
#X obj 283 402 table \$0-\$1-buff7;
#X obj 283 425 table \$0-\$1-buff8;
#X obj 410 262 table \$0-\$1-preset1 16;
#X obj 410 286 table \$0-\$1-preset2 16;
#X obj 410 309 table \$0-\$1-preset3 16;
#X obj 410 332 table \$0-\$1-preset4 16;
#X obj 410 356 table \$0-\$1-preset5 16;
#X obj 410 379 table \$0-\$1-preset6 16;
#X obj 410 402 table \$0-\$1-preset7 16;
#X obj 410 425 table \$0-\$1-preset8 16;
#N canvas 1024 307 348 375 resize-buffers 0;
#X obj 115 22 inlet;
#X obj 115 47 t b f;
#X obj 115 72 samplerate~;
#X obj 115 97 *, f 5;
#X msg 115 149 8;
#X obj 115 174 until, f 6;
#X obj 115 224 + 1;
#X obj 115 199 f;
#X obj 115 122 t b f;
#X obj 80 329 array size;
#X obj 115 252 swap, f 5;
#X obj 147 278 pack f \$0 \$1;
#X msg 147 303 symbol \$2-\$3-buff\$1;
#X connect 0 0 1 0;
#X connect 1 0 2 0;
#X connect 1 1 3 1;
#X connect 2 0 3 0;
#X connect 3 0 8 0;
#X connect 4 0 5 0;
#X connect 5 0 7 0;
#X connect 6 0 7 1;
#X connect 6 0 10 0;
#X connect 7 0 6 0;
#X connect 8 0 4 0;
#X connect 8 1 10 1;
#X connect 10 0 9 0;
#X connect 10 1 11 0;
#X connect 11 0 12 0;
#X connect 12 0 9 1;
#X restore 390 213 pd resize-buffers;
#X obj 55 614 tabread4~ \$0-\$1-buff1;
#X obj 55 466 tabwrite~ \$0-\$1-buff1;
#X obj 227 642 vline~;
#X obj 227 605 r env\$0;
#X obj 55 563 *~;
#X obj 93 563 r sample-length\$0;
#X obj 227 667 pow~ 3;
#X obj 55 676 *~;
#X obj 95 640 r level\$0;
#X obj 95 665 lop~ 50;
#X obj 122 496 r phase\$0;
#X obj 241 473 r set-buff\$0;
#X msg 241 498 set \$1;
#X obj 435 575 route list;
#X obj 435 717 outlet;
#X obj 435 600 list length;
#X obj 435 625 sel 3;
#X obj 435 650 delay;
#X obj 487 650 r real-dur\$0;
#X obj 487 690 r set-slot\$0;
#X obj 435 691 1;
#X obj 114 28 inlet~;
#X obj 172 28 inlet~;
#X obj 231 28 inlet~;
#X obj 114 93 *~;
#X obj 172 93 *~;
#X obj 231 93 *~;
#X obj 55 126 +~;
#X obj 291 28 inlet~;
#X obj 350 28 inlet~;
#X obj 408 28 inlet~;
#X obj 467 28 inlet~;
#X obj 350 93 *~;
#X obj 408 93 *~;
#X obj 467 93 *~;
#X obj 291 93 *~;
#N canvas 735 327 525 203 channel-switcher 0;
#X obj 168 21 r input-channel\$0;
#X obj 19 105 == 1;
#X obj 19 156 outlet~;
#X obj 19 130 lop~ 50;
#X obj 79 156 outlet~;
#X obj 79 130 lop~ 50;
#X obj 139 156 outlet~;
#X obj 139 130 lop~ 50;
#X obj 199 156 outlet~;
#X obj 199 130 lop~ 50;
#X obj 259 156 outlet~;
#X obj 259 130 lop~ 50;
#X obj 319 156 outlet~;
#X obj 319 130 lop~ 50;
#X obj 379 156 outlet~;
#X obj 379 130 lop~ 50;
#X obj 439 156 outlet~;
#X obj 439 130 lop~ 50;
#X obj 79 105 == 2;
#X obj 139 105 == 3;
#X obj 199 105 == 4;
#X obj 259 105 == 5;
#X obj 319 105 == 6;
#X obj 379 105 == 7;
#X obj 439 105 == 8;
#X obj 19 21 loadbang;
#X msg 19 46 1;
#X connect 0 0 1 0;
#X connect 0 0 18 0;
#X connect 0 0 24 0;
#X connect 0 0 23 0;
#X connect 0 0 22 0;
#X connect 0 0 21 0;
#X connect 0 0 20 0;
#X connect 0 0 19 0;
#X connect 1 0 3 0;
#X connect 3 0 2 0;
#X connect 5 0 4 0;
#X connect 7 0 6 0;
#X connect 9 0 8 0;
#X connect 11 0 10 0;
#X connect 13 0 12 0;
#X connect 15 0 14 0;
#X connect 17 0 16 0;
#X connect 18 0 5 0;
#X connect 19 0 7 0;
#X connect 20 0 9 0;
#X connect 21 0 11 0;
#X connect 22 0 13 0;
#X connect 23 0 15 0;
#X connect 24 0 17 0;
#X connect 25 0 26 0;
#X connect 26 0 1 0;
#X restore 212 56 pd channel-switcher;
#X obj 117 268 t b b b;
#X obj 55 93 *~;
#N canvas 212 276 605 482 play 0;
#X obj 283 136 mul 1;
#X obj 87 77 r play\$0;
#X obj 258 274 list;
#X obj 283 167 pack f f f;
#X text 365 166 length \, atk \, dec;
#X msg 23 186 0;
#X obj 23 211 s phase\$0;
#X obj 383 136 mul 0;
#X obj 327 136 mul 0;
#X obj 283 61 r duration\$0;
#X obj 415 110 r dec\$0;
#X obj 415 86 r atk\$0;
#X obj 415 61 r time-before-decay\$0;
#X text 366 30 one-shot;
#X obj 87 102 t b b;
#X obj 236 33 r loop\$0;
#X obj 183 213 spigot 1;
#X obj 236 186 == 0;
#X obj 158 248 == 1;
#X obj 119 276 spigot;
#X msg 119 301 1;
#X obj 190 351 s env\$0;
#X obj 398 246 inlet;
#X text 366 225 phase wrap around;
#X msg 258 302 1 \$2 \, 0 \$3 \$1;
#X obj 398 307 spigot;
#X msg 398 331 0;
#X obj 398 403 outlet;
#X obj 398 368 b;
#X obj 398 277 spigot;
#X obj 479 253 r play\$0;
#X msg 479 308 1;
#X obj 479 333 r stop\$0;
#X msg 479 358 0;
#X obj 479 383 r loop\$0;
#X obj 479 408 == 0;
#X obj 479 281 del 10;
#X text 360 424 bang 2nd outlet;
#X connect 0 0 3 0;
#X connect 1 0 14 0;
#X connect 2 0 24 0;
#X connect 3 0 2 1;
#X connect 5 0 6 0;
#X connect 7 0 3 2;
#X connect 8 0 3 1;
#X connect 9 0 8 0;
#X connect 9 0 7 0;
#X connect 9 0 0 0;
#X connect 10 0 7 1;
#X connect 11 0 8 1;
#X connect 12 0 0 1;
#X connect 14 0 5 0;
#X connect 14 1 16 0;
#X connect 14 1 19 0;
#X connect 15 0 17 0;
#X connect 15 0 18 0;
#X connect 16 0 2 0;
#X connect 17 0 16 1;
#X connect 18 0 19 1;
#X connect 19 0 20 0;
#X connect 20 0 21 0;
#X connect 22 0 29 0;
#X connect 24 0 21 0;
#X connect 25 0 26 0;
#X connect 26 0 21 0;
#X connect 26 0 28 0;
#X connect 26 0 29 1;
#X connect 26 0 25 1;
#X connect 28 0 27 0;
#X connect 29 0 25 0;
#X connect 30 0 36 0;
#X connect 31 0 29 1;
#X connect 32 0 33 0;
#X connect 33 0 29 1;
#X connect 34 0 35 0;
#X connect 35 0 25 1;
#X connect 36 0 31 0;
#X restore 227 573 pd play;
#X msg 360 177 60;
#X obj 226 806 outlet~;
#X obj 186 775 pan~;
#X obj 211 748 r pan\$0;
#X obj 191 196 r max-smp-time\$0;
#N canvas 491 207 452 625 \$0-\$1-fx 0;
#X obj 41 45 inlet~;
#X obj 42 437 outlet~;
#X obj 166 20 fx/lfo;
#X obj 41 256 fx/drive;
#X connect 0 0 3 0;
#X connect 2 0 3 1;
#X connect 3 0 1 0;
#X restore 186 723 pd \$0-\$1-fx;
#X obj 317 662 r send\$0;
#X obj 354 752 *~;
#X obj 317 687 pow 3;
#X obj 317 712 lop~ 50;
#X obj 354 779 throw~ global-fx-send-R;
#X obj 300 778 *~;
#X obj 301 805 throw~ global-fx-send-L;
#X obj 410 449 table \$0-durations 8;
#N canvas 507 259 394 249 set-duration 0;
#X obj 122 27 inlet;
#X obj 137 62 s duration\$0;
#X obj 266 49 r set-slot\$0;
#X obj 122 103 tabwrite \$0-durations;
#X obj 266 74 - 1;
#X obj 71 166 tabwrite \$0-tempos;
#X obj 38 113 500;
#X obj 38 35 b;
#X obj 56 85 r tempo;
#X connect 0 0 1 0;
#X connect 0 0 3 0;
#X connect 0 0 7 0;
#X connect 2 0 4 0;
#X connect 4 0 3 1;
#X connect 4 0 5 1;
#X connect 6 0 5 0;
#X connect 7 0 6 0;
#X connect 8 0 6 1;
#X restore 168 375 pd set-duration;
#X f 12;
#N canvas 208 550 447 300 clear-slot 0;
#X obj 171 10 r clear\$0;
#X obj 31 210 list prepend \$0 \$1;
#X obj 200 185 t b f;
#X msg 200 210 0;
#X obj 200 235 tabwrite \$0-durations, f 12;
#X msg 313 178 0;
#X obj 313 203 s env\$0;
#X obj 171 35 t f b;
#X msg 31 235 \; \$1-\$2-buff\$3 const 0;
#X obj 31 170 + 1;
#X connect 0 0 7 0;
#X connect 1 0 8 0;
#X connect 2 0 3 0;
#X connect 2 1 4 1;
#X connect 3 0 4 0;
#X connect 5 0 6 0;
#X connect 7 0 2 0;
#X connect 7 0 9 0;
#X connect 7 1 5 0;
#X connect 9 0 1 0;
#X restore 410 508 pd clear-slot;
#X obj 410 473 table \$0-tempos 8;
#N canvas 489 199 634 523 commands 0;
#X obj 38 27 inlet;
#X obj 567 80 outlet;
#X obj 17 150 outlet;
#X msg 170 120 0;
#X obj 170 145 s env\$0;
#X obj 182 17 inlet;
#X obj 17 93 t b f;
#X obj 83 93 t b f;
#X obj 48 201 + 1;
#X obj 48 226 clip 1 8;
#X obj 48 251 t f f;
#X obj 48 304 pack f \$0 \$1;
#X msg 48 332 symbol \$2-\$3-buff\$1;
#X obj 83 125 s play\$0;
#X obj 48 357 s set-buff\$0;
#X obj 80 278 s set-slot\$0;
#X obj 236 186 clip 1 8;
#X obj 236 211 s input-channel\$0;
#X obj 302 151 s max-smp-time\$0;
#X msg 337 90 vis 1;
#X obj 337 115 s pd-\$0-\$1-fx;
#X obj 196 266 tabread \$0-durations;
#X obj 196 240 - 1;
#X obj 196 291 s duration\$0;
#X obj 434 207 s clear\$0;
#X obj 474 107 tabread \$0-tempos;
#X obj 474 135 s set-tempo;
#X obj 38 52 route rec play stop input max-smp-time show-fx clear set-tempo, f 76;
#X connect 0 0 27 0;
#X connect 3 0 4 0;
#X connect 5 0 3 0;
#X connect 6 0 2 0;
#X connect 6 1 8 0;
#X connect 7 0 13 0;
#X connect 7 1 8 0;
#X connect 8 0 9 0;
#X connect 9 0 10 0;
#X connect 10 0 11 0;
#X connect 10 1 15 0;
#X connect 10 1 22 0;
#X connect 11 0 12 0;
#X connect 12 0 14 0;
#X connect 16 0 17 0;
#X connect 19 0 20 0;
#X connect 21 0 23 0;
#X connect 22 0 21 0;
#X connect 25 0 26 0;
#X connect 27 0 6 0;
#X connect 27 1 7 0;
#X connect 27 2 3 0;
#X connect 27 3 16 0;
#X connect 27 4 18 0;
#X connect 27 5 19 0;
#X connect 27 6 24 0;
#X connect 27 7 25 0;
#X connect 27 8 1 0;
#X restore 94 138 pd commands;
#X f 14;
#X obj 55 525 else/pimp~;
#X obj 227 544 else/trig2bang~;
#X connect 0 0 75 0;
#X connect 0 1 94 0;
#X connect 1 0 77 0;
#X connect 2 0 3 0;
#X connect 3 0 94 1;
#X connect 3 0 19 0;
#X connect 3 0 4 0;
#X connect 3 1 74 0;
#X connect 4 0 10 0;
#X connect 4 0 38 0;
#X connect 4 1 5 0;
#X connect 5 0 6 0;
#X connect 7 0 8 0;
#X connect 9 0 19 0;
#X connect 9 0 38 0;
#X connect 10 0 91 0;
#X connect 11 0 82 0;
#X connect 13 0 37 0;
#X connect 15 0 95 0;
#X connect 16 0 13 1;
#X connect 18 0 19 1;
#X connect 19 0 74 0;
#X connect 19 0 57 0;
#X connect 37 0 44 0;
#X connect 39 0 43 0;
#X connect 40 0 39 0;
#X connect 40 0 50 0;
#X connect 41 0 13 0;
#X connect 42 0 41 1;
#X connect 43 0 11 1;
#X connect 44 0 11 0;
#X connect 45 0 46 0;
#X connect 46 0 44 1;
#X connect 47 0 95 1;
#X connect 48 0 49 0;
#X connect 49 0 38 0;
#X connect 49 0 37 0;
#X connect 50 0 52 0;
#X connect 52 0 53 0;
#X connect 53 0 54 0;
#X connect 54 0 57 0;
#X connect 55 0 54 1;
#X connect 56 0 57 1;
#X connect 57 0 51 0;
#X connect 58 0 61 0;
#X connect 59 0 62 0;
#X connect 60 0 63 0;
#X connect 61 0 64 1;
#X connect 62 0 64 1;
#X connect 63 0 64 1;
#X connect 64 0 38 0;
#X connect 65 0 72 0;
#X connect 66 0 69 0;
#X connect 67 0 70 0;
#X connect 68 0 71 0;
#X connect 69 0 64 1;
#X connect 70 0 64 1;
#X connect 71 0 64 1;
#X connect 72 0 64 1;
#X connect 73 0 75 1;
#X connect 73 1 61 1;
#X connect 73 2 62 1;
#X connect 73 3 63 1;
#X connect 73 4 72 1;
#X connect 73 5 69 1;
#X connect 73 6 70 1;
#X connect 73 7 71 1;
#X connect 74 0 7 0;
#X connect 74 1 9 0;
#X connect 74 1 10 1;
#X connect 75 0 64 0;
#X connect 76 0 57 0;
#X connect 77 0 18 0;
#X connect 77 0 36 0;
#X connect 79 0 12 0;
#X connect 79 0 88 0;
#X connect 79 1 78 0;
#X connect 79 1 84 0;
#X connect 80 0 79 1;
#X connect 81 0 19 1;
#X connect 82 0 79 0;
#X connect 83 0 85 0;
#X connect 84 0 87 0;
#X connect 85 0 86 0;
#X connect 86 0 84 1;
#X connect 86 0 88 1;
#X connect 88 0 89 0;
#X connect 94 0 2 0;
#X connect 94 1 14 0;
#X connect 95 0 41 0;
#X connect 95 1 96 0;
#X connect 96 0 76 0;
