#N canvas 735 327 522 440 12;
#X text 15 15 receives a bang \, then looks in the select preset table \; then outputs the oposite value and stores it \;;
#X obj 48 272 tabread;
#X obj 336 99 loadbang;
#X msg 336 124 args;
#X obj 336 149 pdcontrol;
#X obj 336 174 route list;
#X obj 48 114 inlet;
#X obj 48 139 b;
#X obj 48 297 == 0;
#X obj 200 388 tabwrite;
#X obj 48 388 outlet;
#X obj 168 110 inlet;
#X obj 168 135 clip 1 8;
#X obj 168 160 1;
#X obj 336 199 t b l;
#X obj 200 264 list prepend;
#X msg 200 289 set \$1-\$2-preset\$3;
#X obj 368 244 list split 2;
#X obj 408 342 - 1;
#X obj 408 368 max 0;
#X obj 168 213 t b f;
#X obj 112 251 tabread;
#X obj 112 202 \$3;
#X obj 112 227 - 1;
#X obj 48 221 \$3;
#X obj 48 247 - 1;
#X text 17 48 1st and 2nd args are parent ID and clone Id \; 3rd argument is position of preset table + 1 \; 4th argument is initial value, f 46;
#X obj 408 272 list split 1;
#X obj 311 336 pipe 20;
#X connect 1 0 8 0;
#X connect 2 0 3 0;
#X connect 3 0 4 0;
#X connect 4 0 5 0;
#X connect 5 0 14 0;
#X connect 6 0 7 0;
#X connect 7 0 24 0;
#X connect 8 0 9 0;
#X connect 8 0 10 0;
#X connect 11 0 12 0;
#X connect 12 0 13 0;
#X connect 13 0 20 0;
#X connect 14 0 13 0;
#X connect 14 1 17 0;
#X connect 15 0 16 0;
#X connect 16 0 1 0;
#X connect 16 0 9 0;
#X connect 16 0 21 0;
#X connect 17 0 15 1;
#X connect 17 1 27 0;
#X connect 18 0 19 0;
#X connect 19 0 9 1;
#X connect 20 0 22 0;
#X connect 20 1 15 0;
#X connect 21 0 10 0;
#X connect 22 0 23 0;
#X connect 23 0 21 0;
#X connect 24 0 25 0;
#X connect 25 0 1 0;
#X connect 27 0 18 0;
#X connect 27 1 28 0;
#X connect 28 0 9 0;
#X connect 28 0 10 0;
