#N canvas 735 327 450 300 12;
#X obj 132 54 keyname, f 11;
#X obj 132 79 list append;
#X obj 132 104 route 1;
#X obj 132 129 route t;
#X obj 132 154 t b b;
#X obj 132 179 timer;
#X obj 132 204 outlet;
#X obj 196 185 outlet;
#X connect 0 0 1 0;
#X connect 0 1 1 1;
#X connect 1 0 2 0;
#X connect 2 0 3 0;
#X connect 3 0 4 0;
#X connect 4 0 5 0;
#X connect 4 1 5 1;
#X connect 4 1 7 0;
#X connect 5 0 6 0;
