#N canvas 402 518 450 472 12;
#X obj 41 34 inlet;
#X obj 41 59 unpack f f;
#X obj 202 372 else/adsr~;
#X obj 28 271 else/bl.saw~ -midi;
#X obj 144 391 *~;
#X obj 202 337 sig~;
#X obj 144 416 outlet~;
#X obj 276 58 inlet;
#X obj 249 337 unpack f f f f;
#X obj 46 244 else/bl.saw~ -midi;
#X obj 28 153 pack f 0;
#X obj 28 178 line~;
#X obj 28 372 +~;
#X obj 46 345 *~;
#X obj 199 243 clip 0 1;
#X obj 199 268 lop~ 10;
#X obj 276 85 route glide osc2 env;
#X obj 179 157 inlet~;
#X obj 47 217 +~;
#X connect 0 0 1 0;
#X connect 1 0 10 0;
#X connect 1 1 5 0;
#X connect 2 0 4 1;
#X connect 3 0 12 0;
#X connect 4 0 6 0;
#X connect 5 0 2 0;
#X connect 7 0 16 0;
#X connect 8 0 2 1;
#X connect 8 1 2 2;
#X connect 8 2 2 3;
#X connect 8 3 2 4;
#X connect 9 0 13 0;
#X connect 10 0 11 0;
#X connect 11 0 18 0;
#X connect 11 0 3 0;
#X connect 12 0 4 0;
#X connect 13 0 12 1;
#X connect 14 0 15 0;
#X connect 15 0 13 1;
#X connect 16 0 10 1;
#X connect 16 1 14 0;
#X connect 16 2 8 0;
#X connect 17 0 18 1;
#X connect 18 0 9 0;
