#N canvas 432 362 516 522 12;
#X obj 28 34 inlet;
#X obj 28 59 unpack f f;
#X obj 331 376 else/adsr~;
#X obj 28 271 else/bl.saw~ -midi;
#X obj 217 460 *~;
#X obj 331 341 sig~;
#X obj 217 485 outlet~;
#X obj 236 28 inlet;
#X obj 378 341 unpack f f f f;
#X obj 46 244 else/bl.saw~ -midi;
#X obj 28 153 pack f 0;
#X obj 28 178 line~;
#X obj 28 372 +~;
#X obj 46 345 *~;
#X obj 318 247 clip 0 1;
#X obj 318 272 lop~ 10;
#X obj 141 31 inlet~;
#X obj 47 217 +~;
#X obj 236 55 route glide osc2 env filter;
#X obj 375 80 list trim;
#N canvas 733 327 450 381 filt 1;
#X obj 141 142 line~;
#X obj 84 272 else/lowpass~ 0 1;
#X obj 72 39 loadbang;
#X msg 72 64 21000;
#X msg 141 117 \$1 100;
#X obj 84 128 inlet~;
#X obj 84 297 outlet~;
#X obj 206 142 r note\$0;
#X obj 206 167 mtof;
#X obj 141 186 +~;
#X obj 206 191 atoms/mul;
#X obj 154 21 inlet;
#X obj 288 293 else/adsr~;
#X obj 141 52 route cutoff q key env env_lvl;
#X obj 322 264 unpack f f f f;
#X obj 288 152 r vel\$0;
#X obj 288 237 *~;
#X obj 288 182 > 0;
#X obj 141 238 +~;
#X obj 288 318 else/numbox~ 6 12 100 #C0C0C4 #440008 10 0 0 0;
#N canvas 733 327 450 300 mtof 0;
#X obj 170 82 inlet;
#X obj 170 107 moses 0;
#X obj 228 142 mtof;
#X obj 182 234 outlet;
#X obj 142 139 abs;
#X obj 142 164 mtof;
#X obj 142 189 * -1;
#X connect 0 0 1 0;
#X connect 1 0 4 0;
#X connect 1 1 2 0;
#X connect 2 0 3 0;
#X connect 4 0 5 0;
#X connect 5 0 6 0;
#X connect 6 0 3 0;
#X restore 306 90 pd mtof;
#X connect 0 0 9 0;
#X connect 1 0 6 0;
#X connect 2 0 3 0;
#X connect 3 0 4 0;
#X connect 4 0 0 0;
#X connect 5 0 1 0;
#X connect 7 0 8 0;
#X connect 8 0 10 0;
#X connect 9 0 18 0;
#X connect 10 0 9 1;
#X connect 11 0 13 0;
#X connect 12 0 18 1;
#X connect 12 0 19 0;
#X connect 13 0 4 0;
#X connect 13 1 1 2;
#X connect 13 2 10 1;
#X connect 13 3 14 0;
#X connect 13 4 20 0;
#X connect 14 0 12 1;
#X connect 14 1 12 2;
#X connect 14 2 12 3;
#X connect 14 3 12 4;
#X connect 15 0 17 0;
#X connect 16 0 12 0;
#X connect 17 0 16 0;
#X connect 18 0 1 1;
#X connect 20 0 16 1;
#X restore 134 391 pd filt;
#X obj 39 94 s note\$0;
#X obj 133 89 s vel\$0;
#X connect 0 0 1 0;
#X connect 1 0 10 0;
#X connect 1 0 21 0;
#X connect 1 1 5 0;
#X connect 1 1 22 0;
#X connect 2 0 4 1;
#X connect 3 0 12 0;
#X connect 4 0 6 0;
#X connect 5 0 2 0;
#X connect 7 0 18 0;
#X connect 8 0 2 1;
#X connect 8 1 2 2;
#X connect 8 2 2 3;
#X connect 8 3 2 4;
#X connect 9 0 13 0;
#X connect 10 0 11 0;
#X connect 11 0 17 0;
#X connect 11 0 3 0;
#X connect 12 0 20 0;
#X connect 13 0 12 1;
#X connect 14 0 15 0;
#X connect 15 0 13 1;
#X connect 16 0 17 1;
#X connect 17 0 9 0;
#X connect 18 0 10 1;
#X connect 18 1 14 0;
#X connect 18 2 8 0;
#X connect 18 3 19 0;
#X connect 19 0 20 1;
#X connect 20 0 4 0;
