#N canvas 960 349 381 254 12;
#X obj 50 120 bng 24 250 50 0 empty rec rec -4 -7 0 12 #ffffff #000000 #000000;
#X obj 122 18 loadbang;
#X msg 122 43 args;
#X obj 122 68 pdcontrol;
#X msg 98 100 receive \$1 \, label \$1;
#X obj 122 126 list split 8;
#X obj 50 163 list prepend;
#X obj 50 188 s \$2;
#X connect 0 0 6 0;
#X connect 1 0 2 0;
#X connect 2 0 3 0;
#X connect 3 0 5 0;
#X connect 3 0 4 0;
#X connect 4 0 0 0;
#X connect 5 1 6 1;
#X connect 6 0 7 0;
#X coords 0 -1 1 1 24 24 2 50 120;
