#N canvas 733 327 375 304 12;
#X obj 147 61 hsl 90 15 -1 1 0 0 empty empty empty -2 -10 0 12 #fcfcfc #000000 #000000 0 1;
#X obj 50 171 atoms/accum;
#X obj 144 96 expr if($f1>0 \, 1 \, -1);
#X obj 144 121 t b f;
#X msg 32 55 stop \, bang;
#X obj 32 85 delay 100;
#X msg 87 131 set 0;
#X obj 32 234 outlet;
#X obj 92 13 inlet;
#X text 134 12 <- sets time window;
#X obj 32 200 f;
#X connect 0 0 2 0;
#X connect 1 0 10 0;
#X connect 2 0 3 0;
#X connect 3 0 4 0;
#X connect 3 1 1 0;
#X connect 4 0 5 0;
#X connect 5 0 6 0;
#X connect 6 0 0 0;
#X connect 6 0 1 1;
#X connect 8 0 5 1;
#X connect 10 0 7 0;
#X coords 0 -1 1 1 103 40 1 140 40;
