#N canvas 775 445 450 300 12;
#X obj 54 54 hradio 20 1 0 2 empty empty empty 0 -10 0 12 #fcfcfc #000000 #000000 0;
#X obj 54 100 * 2;
#X obj 54 125 - 1;
#X obj 54 150 list prepend \$1;
#X obj 54 175 outlet;
#X obj 97 54 cnv 20 20 20 empty \$0l :1 2 9 0 12 #e0e0e0 #404040 0;
#X obj 210 110 \$1;
#X obj 210 160 s \$0l;
#X msg 210 135 label :\$1;
#X obj 210 85 bng 20 250 50 0 empty empty empty 0 -10 0 12 #fcfcfc #000000 #000000;
#X obj 235 86 loadbang;
#X connect 0 0 1 0;
#X connect 1 0 2 0;
#X connect 2 0 3 0;
#X connect 3 0 4 0;
#X connect 6 0 8 0;
#X connect 8 0 7 0;
#X connect 9 0 6 0;
#X connect 10 0 6 0;
#X coords 0 -1 1 1 70 28 2 50 50;
