#N canvas 743 687 402 262 12;
#X obj 117 28 inlet;
#X obj 117 92 atoms/filename;
#X msg 117 141 label \$1;
#X obj 117 117 atoms/trim-symbol 11;
#X obj 10 10 cnv 15 95 17 empty \$0name - 4 8 0 12 #e0e0e0 #404040 0;
#X obj 37 92 loadbang;
#X msg 37 117 label -;
#X obj 117 195 s \$0name;
#X obj 117 57 route set;
#X connect 0 0 8 0;
#X connect 1 0 3 0;
#X connect 2 0 7 0;
#X connect 3 0 2 0;
#X connect 5 0 6 0;
#X connect 6 0 7 0;
#X connect 8 0 1 0;
#X connect 8 1 7 0;
#X coords 0 -1 1 1 95 17 2 10 10;
