#N canvas 470 384 614 606 12;
#X obj 14 50 else/button 30 30 255 255 255 128 128 159;
#X obj 47 50 else/button 30 30 255 255 255 128 128 159;
#X obj 80 50 else/button 30 30 255 255 255 128 128 159;
#X obj 14 83 else/button 30 30 255 255 255 128 128 159;
#X obj 47 83 else/button 30 30 255 255 255 128 128 159;
#X obj 80 83 else/button 30 30 255 255 255 128 128 159;
#X obj 134 83 else/button 30 30 255 255 255 128 128 159;
#X obj 167 83 else/button 30 30 255 255 255 128 128 159;
#X obj 200 83 else/button 30 30 255 255 255 128 128 159;
#X obj 233 83 else/button 30 30 255 255 255 128 128 159;
#X obj 266 83 else/button 30 30 255 255 255 128 128 159;
#X obj 299 83 else/button 30 30 255 255 255 128 128 159;
#X obj 332 83 else/button 30 30 255 255 255 128 128 159;
#X obj 365 83 else/button 30 30 255 255 255 128 128 159;
#X obj 155 38 else/button 20 30 255 255 255 128 128 159;
#X obj 175 38 else/button 20 30 255 255 255 128 128 159;
#X obj 215 38 else/button 20 30 255 255 255 128 128 159;
#X obj 235 38 else/button 20 30 255 255 255 128 128 159;
#X obj 275 38 else/button 20 30 255 255 255 128 128 159;
#X obj 295 38 else/button 20 30 255 255 255 128 128 159;
#X obj 335 38 else/button 20 30 255 255 255 128 128 159;
#X obj 355 38 else/button 20 30 255 255 255 128 128 159;
#X msg 27 147 1 \$1;
#X msg 158 220 1 \$1;
#X msg 68 147 2 \$1;
#X msg 110 147 3 \$1;
#X msg 27 177 4 \$1;
#X msg 68 177 5 \$1;
#X msg 110 177 6 \$1;
#X msg 199 220 2 \$1;
#X msg 241 220 3 \$1;
#X msg 283 220 4 \$1;
#X msg 324 220 5 \$1;
#X msg 366 220 6 \$1;
#X msg 408 220 7 \$1;
#X msg 450 220 8 \$1;
#X obj 431 405 pack s f;
#X obj 53 316 pack s f;
#X obj 431 430 list prepend seq-buttons;
#X obj 53 341 list prepend nav-buttons;
#X obj 242 554 outlet;
#X obj 242 529 list trim;
#X obj 53 264 + 48;
#X obj 53 289 list tosymbol;
#X obj 431 352 + 48;
#X obj 431 377 list tosymbol;
#X obj 242 307 unpack f f f;
#X msg 187 137 \$1 1 -1;
#X msg 267 137 \$1 2 -1;
#X msg 347 137 \$1 3 -1;
#X msg 427 137 \$1 4 -1;
#X obj 242 447 list;
#X msg 201 161 \$1 1 1;
#X msg 281 161 \$1 2 1;
#X msg 361 161 \$1 3 1;
#X msg 441 161 \$1 4 1;
#X obj 270 419 pack s f;
#X obj 242 472 list prepend encoders;
#X obj 270 366 + 48;
#X obj 270 391 list tosymbol;
#X obj 431 327 unpack, f 8;
#X obj 53 239 unpack, f 8;
#N canvas 734 363 450 300 send-osc 0;
#X obj 75 203 oscformat;
#X obj 75 228 netsend -u -b;
#X msg 243 145 connect localhost 9001;
#X obj 75 134 list;
#X obj 75 97 t b a;
#X obj 61 63 list split 2;
#X msg 124 134 set \$1/\$2;
#X obj 243 117 loadbang;
#X obj 61 31 inlet;
#X connect 0 0 1 0;
#X connect 2 0 1 0;
#X connect 3 0 0 0;
#X connect 4 0 3 0;
#X connect 4 1 6 0;
#X connect 5 0 4 0;
#X connect 5 1 3 1;
#X connect 6 0 0 0;
#X connect 7 0 2 0;
#X connect 8 0 5 0;
#X restore 37 538 pd send-osc;
#X obj 37 510 spigot;
#X obj 122 15 tgl 20 0 \$0osc empty send\ OSC 22 8 0 12 #fcfcfc #000000 #000000 0 1;
#X obj 76 479 r \$0osc;
#N canvas 774 384 450 300 proghold 0;
#X msg 179 170 get \$1;
#X obj 179 111 f;
#X obj 220 111 + 1;
#X obj 197 21 sel 0;
#X msg 197 46 0;
#X obj 57 217 metro 500;
#X obj 179 86 metro 200;
#X obj 57 242 outlet;
#X obj 57 66 inlet;
#X obj 179 197 list store 500 200 80 40 15 5;
#X obj 220 136 clip 0 5;
#X connect 0 0 9 0;
#X connect 1 0 2 0;
#X connect 1 0 0 0;
#X connect 2 0 10 0;
#X connect 3 0 4 0;
#X connect 4 0 1 1;
#X connect 5 0 7 0;
#X connect 6 0 1 0;
#X connect 8 0 5 0;
#X connect 8 0 6 0;
#X connect 8 0 3 0;
#X connect 9 0 5 1;
#X connect 10 0 1 1;
#X restore 242 332 pd proghold;
#X connect 0 0 22 0;
#X connect 1 0 24 0;
#X connect 2 0 25 0;
#X connect 3 0 26 0;
#X connect 4 0 27 0;
#X connect 5 0 28 0;
#X connect 6 0 23 0;
#X connect 7 0 29 0;
#X connect 8 0 30 0;
#X connect 9 0 31 0;
#X connect 10 0 32 0;
#X connect 11 0 33 0;
#X connect 12 0 34 0;
#X connect 13 0 35 0;
#X connect 14 0 47 0;
#X connect 15 0 52 0;
#X connect 16 0 48 0;
#X connect 17 0 53 0;
#X connect 18 0 49 0;
#X connect 19 0 54 0;
#X connect 20 0 50 0;
#X connect 21 0 55 0;
#X connect 22 0 61 0;
#X connect 23 0 60 0;
#X connect 24 0 61 0;
#X connect 25 0 61 0;
#X connect 26 0 61 0;
#X connect 27 0 61 0;
#X connect 28 0 61 0;
#X connect 29 0 60 0;
#X connect 30 0 60 0;
#X connect 31 0 60 0;
#X connect 32 0 60 0;
#X connect 33 0 60 0;
#X connect 34 0 60 0;
#X connect 35 0 60 0;
#X connect 36 0 38 0;
#X connect 37 0 39 0;
#X connect 38 0 41 0;
#X connect 39 0 41 0;
#X connect 41 0 40 0;
#X connect 41 0 63 0;
#X connect 42 0 43 0;
#X connect 43 0 37 0;
#X connect 44 0 45 0;
#X connect 45 0 36 0;
#X connect 46 0 66 0;
#X connect 46 1 58 0;
#X connect 46 2 56 1;
#X connect 47 0 46 0;
#X connect 48 0 46 0;
#X connect 49 0 46 0;
#X connect 50 0 46 0;
#X connect 51 0 57 0;
#X connect 52 0 46 0;
#X connect 53 0 46 0;
#X connect 54 0 46 0;
#X connect 55 0 46 0;
#X connect 56 0 51 1;
#X connect 57 0 41 0;
#X connect 58 0 59 0;
#X connect 59 0 56 0;
#X connect 60 0 44 0;
#X connect 60 1 36 1;
#X connect 61 0 42 0;
#X connect 61 1 37 1;
#X connect 63 0 62 0;
#X connect 65 0 63 1;
#X connect 66 0 51 0;
#X coords 0 -1 1 1 389 107 1 10 10;
