#N canvas 747 559 450 300 12;
#X obj 21 61 cnv 20 150 20 empty \$0name - 2 10 0 12 #e2ddd9 #000000 0;
#X obj 171 61 bng 20 250 50 0 empty empty empty 0 -10 0 12 #fcfcfc #000000 #000000;
#X obj 171 61 cnv 15 20 20 empty empty ▶ 6 9 0 20 #aa02fe #ffffff 0;
#X obj 215 79 loadbang;
#X msg 215 104 args;
#X obj 215 129 pdcontrol;
#X obj 215 154 route symbol;
#X obj 215 179 atoms/trim-symbol 18;
#X msg 215 204 label \$1;
#X obj 215 229 s \$0name;
#X obj 21 250 s load-patch;
#X obj 21 174 symbol;
#X connect 1 0 11 0;
#X connect 3 0 4 0;
#X connect 4 0 5 0;
#X connect 5 0 6 0;
#X connect 6 0 7 0;
#X connect 6 0 11 1;
#X connect 7 0 8 0;
#X connect 8 0 9 0;
#X connect 11 0 10 0;
#X coords 0 -1 1 1 172 22 2 20 60;
