#N canvas 499 568 450 300 12;
#X obj 21 40 cnv 20 74 164 empty \$0test empty 20 12 0 12 #ff7482 #fcfcfc 0;
#X obj 63 46 vsl 15 128 0 255 0 0 empty empty empty 0 -9 0 10 #0800fc #fcfcfc #000000 0 1;
#X obj 44 46 vsl 15 128 0 255 0 0 empty empty empty 0 -9 0 10 #00fc00 #000000 #000000 0 1;
#X obj 25 46 vsl 15 128 0 255 0 0 empty empty empty 0 -9 0 10 #fc0000 #000000 #000000 0 1;
#X obj 287 118 makefilename %02x;
#X obj 313 69 makefilename %02x;
#X obj 298 93 makefilename %02x;
#X obj 287 183 pack s s s;
#X msg 287 208 symbol #\$1\$2\$3;
#X obj 287 253 outlet;
#X obj 258 140 b;
#X obj 298 15 loadbang;
#X msg 298 40 0;
#X msg 25 228 color \$1 0 0;
#X obj 25 253 s \$0test;
#X listbox 25 182 9 0 0 0 - - - 0;
#X msg 110 179 set \$1;
#X connect 1 0 5 0;
#X connect 1 0 10 0;
#X connect 2 0 6 0;
#X connect 2 0 10 0;
#X connect 3 0 4 0;
#X connect 4 0 7 0;
#X connect 5 0 7 2;
#X connect 6 0 7 1;
#X connect 7 0 8 0;
#X connect 8 0 9 0;
#X connect 8 0 13 0;
#X connect 8 0 16 0;
#X connect 10 0 7 0;
#X connect 11 0 12 0;
#X connect 12 0 6 0;
#X connect 12 0 5 0;
#X connect 13 0 14 0;
#X connect 15 0 13 0;
#X connect 16 0 15 0;
#X coords 0 -1 1 1 76 187 1 20 20;
