#N canvas 735 328 477 499 12;
#X obj 51 23 cnv 20 110 60 empty \$0title 1:crash03 2 10 0 12 #e0e0e0 #404040 0;
#X obj 54 61 bng 20 250 50 0 empty empty open 0 -10 0 12 #fcfcfc #000000 #000000;
#X obj 54 190 openpanel;
#X obj 54 266 soundfiler;
#X msg 54 240 read -resize \$1 \$2smp;
#X msg 147 312 \$1;
#X obj 147 337 v \$0smprate;
#N canvas 0 50 450 250 (subpatch) 0;
#X array \$0vis 128 float 4;
#X coords 0 1 127 0 65 24 1 0 0;
#X restore 91 56 graph;
#X obj 54 336 v \$0smprate;
#X obj 54 361 outlet;
#X obj 54 291 bng 20 250 50 0 empty empty empty 0 -10 0 12 #fcfcfc #000000 #000000;
#X obj 202 44 table \$1smp;
#X obj 54 215 list append \$1;
#X obj 274 210 atoms/trim-filename;
#X obj 310 392 s \$0title;
#X obj 310 340 list append \$1;
#X obj 357 274 loadbang;
#X msg 357 299 symbol none;
#X msg 310 367 label \$2:\$1;
#X obj 274 239 atoms/trim-symbol 13;
#X obj 150 418 atoms/table-resample \$1smp \$0vis, f 20;
#X text 169 463 TODO: more info! duration;
#X obj 240 138 atoms/trim-filename;
#X obj 54 112 symbol;
#X msg 54 157 symbol ~/samples/\$1;
#X obj 177 392 b;
#X obj 177 367 r \$1smp-update;
#X connect 1 0 23 0;
#X connect 2 0 12 0;
#X connect 2 0 13 0;
#X connect 3 0 10 0;
#X connect 3 1 5 0;
#X connect 4 0 3 0;
#X connect 5 0 6 0;
#X connect 8 0 9 0;
#X connect 10 0 8 0;
#X connect 10 0 20 0;
#X connect 12 0 4 0;
#X connect 13 0 19 0;
#X connect 13 1 22 0;
#X connect 15 0 18 0;
#X connect 16 0 17 0;
#X connect 17 0 15 0;
#X connect 18 0 14 0;
#X connect 19 0 15 0;
#X connect 22 0 23 1;
#X connect 23 0 24 0;
#X connect 24 0 2 0;
#X connect 25 0 20 0;
#X connect 26 0 25 0;
#X coords 0 -1 1 1 112 66 2 50 20;
