#N canvas 469 309 575 422 12;
#X obj 303 50 table \$0smp;
#X obj 28 160 atoms/load-file \$0smp;
#X obj 248 267 macros/stretch-player~ \$0smp;
#X obj 248 295 outlet~;
#X obj 139 95 inlet;
#X obj 264 206 sel 1;
#X msg 264 231 rewind;
#X obj 139 121 route load, f 16;
#X msg 100 297 \$1;
#X floatatom 24 49 6 0 0 1 BPM \$0show_bpm \$0set_bpm 0;
#X obj 35 324 scripts/find_bpm;
#X obj 35 379 s \$0show_bpm;
#X msg 35 349 set \$1;
#X obj 118 50 bng 20 250 50 0 empty empty empty 0 -10 0 12 #fcfcfc #000000 #000000;
#X obj 114 49 cnv 20 28 21 empty empty load 2 11 0 10 #e0e0e0 #404040 0;
#X obj 28 268 s \$0show_name;
#X obj 28 187 scripts/filename;
#X obj 24 24 cnv 20 118 21 empty \$0show_name - 4 10 0 12 #e0e0e0 #404040 0;
#X msg 28 241 label \$1;
#X obj 28 214 atoms/trim-symbol 16;
#X obj 151 364 v original_bpm\$0;
#X obj 359 168 r \$0set_bpm;
#X msg 359 233 speed \$1;
#X msg 192 231 reload;
#X obj 192 205 del 50;
#X obj 264 181 route play;
#X obj 93 54 bng 10 250 50 0 empty empty empty 0 -10 0 12 #ff0400 #202020 #000000;
#X obj 165 25 v original_bpm\$0;
#X obj 165 50 s \$0show_bpm;
#X obj 192 180 b;
#X obj 431 48 loadbang;
#X msg 431 73 label -;
#X obj 431 98 s \$0show_name;
#X obj 359 193 expr ($f1 / original_bpm\$0 ) * 100, f 22;
#X connect 1 0 16 0;
#X connect 1 1 8 0;
#X connect 1 2 10 1;
#X connect 1 2 29 0;
#X connect 2 0 3 0;
#X connect 4 0 7 0;
#X connect 5 0 6 0;
#X connect 6 0 2 0;
#X connect 7 0 1 0;
#X connect 7 1 2 0;
#X connect 7 1 25 0;
#X connect 8 0 10 0;
#X connect 10 0 12 0;
#X connect 10 0 20 0;
#X connect 12 0 11 0;
#X connect 13 0 1 0;
#X connect 16 0 19 0;
#X connect 18 0 15 0;
#X connect 19 0 18 0;
#X connect 21 0 33 0;
#X connect 22 0 2 0;
#X connect 23 0 2 0;
#X connect 24 0 23 0;
#X connect 25 0 5 0;
#X connect 26 0 27 0;
#X connect 27 0 28 0;
#X connect 29 0 24 0;
#X connect 30 0 31 0;
#X connect 31 0 32 0;
#X connect 33 0 22 0;
#X coords 0 -1 1 1 126 54 2 20 20;
