#N canvas 865 374 560 487 12;
#X obj 41 51 cnv 20 132 42 empty \$0cnv_name volume 4 7 0 12 #e0e0e0 #000000 0;
#X obj 47 68 hsl 120 20 0 1 0 0 empty volume :1.00 4 10 0 12 #000000 #7c7c7c #ffffff 0 1;
#X obj 437 23 loadbang;
#X msg 437 48 args;
#X obj 437 73 pdcontrol;
#X obj 44 379 list prepend;
#X obj 44 407 send fx-ctrl;
#X obj 287 353 r reset_slider;
#X msg 234 341 set 0;
#X obj 326 57 list split 3;
#X msg 44 18 range \$2 \$3 \, receive \$1 \, label empty;
#X msg 326 102 label \$1;
#X obj 57 343 s \$1;
#X msg 57 318 label :\$1;
#X obj 118 159 list split 4;
#X obj 57 291 makefilename %.2f;
#X obj 426 246 else/receiver;
#X msg 426 219 symbol \$1;
#X obj 426 271 route set;
#X msg 235 373 0, f 2;
#X text 179 409 args: label/rcv \, min \, max \, pow \, mult \, int \, add \; arg 8 onward: path (label split by "/") \;;
#X obj 326 127 s \$0cnv_name;
#X obj 44 184 list append;
#X obj 456 349 v v\$0;
#X obj 44 211 expr if(\$4 > 0 \, int( v\$0 ) \, v\$0 ) \; v\$0 = pow($f1 \, $f2)*$f3 + $f5;
#X obj 60 130 s raw-values;
#X obj 61 105 list prepend;
#X msg 189 85 symbol \$1;
#X obj 44 258 change 1e+06;
#X connect 1 0 22 0;
#X connect 1 0 26 0;
#X connect 2 0 3 0;
#X connect 3 0 4 0;
#X connect 4 0 9 0;
#X connect 5 0 6 0;
#X connect 7 0 8 0;
#X connect 7 0 19 0;
#X connect 8 0 1 0;
#X connect 9 0 11 0;
#X connect 9 0 17 0;
#X connect 9 0 10 0;
#X connect 9 0 27 0;
#X connect 9 1 14 0;
#X connect 10 0 1 0;
#X connect 11 0 21 0;
#X connect 13 0 12 0;
#X connect 14 0 22 1;
#X connect 14 1 5 1;
#X connect 15 0 13 0;
#X connect 16 0 18 0;
#X connect 17 0 16 0;
#X connect 18 0 15 0;
#X connect 19 0 15 0;
#X connect 22 0 24 0;
#X connect 24 1 28 0;
#X connect 26 0 25 0;
#X connect 27 0 26 1;
#X connect 28 0 5 0;
#X connect 28 0 15 0;
#X coords 0 -1 1 1 134 44 2 40 50;
