#N canvas 395 225 546 487 12;
#X obj 41 51 cnv 20 132 42 empty \$0cnv_name volume 4 7 0 12 #e0e0e0 #000000 0;
#X obj 47 68 hsl 120 20 0 1 0 0 empty volume :0.00 4 10 0 12 #000000 #7c7c7c #ffffff 0 1;
#X obj 437 31 loadbang;
#X msg 437 56 args;
#X obj 437 81 pdcontrol;
#X obj 44 379 list prepend;
#X obj 287 353 r reset_slider;
#X msg 234 341 set 0;
#X msg 326 106 label \$1;
#X obj 57 311 s \$1;
#X msg 57 286 label :\$1;
#X obj 118 159 list split 4;
#X obj 57 259 makefilename %.2f;
#X obj 386 214 else/receiver;
#X msg 386 187 symbol \$1;
#X obj 386 239 route set;
#X msg 235 373 0, f 2;
#X obj 326 131 s \$0cnv_name;
#X obj 44 184 list append;
#X obj 241 185 v v\$0;
#X obj 60 130 s raw-values;
#X obj 61 105 list prepend;
#X msg 189 85 symbol \$1;
#X obj 44 211 expr if($f4 == 1 \, int( v\$0 ) \, v\$0 ) \; v\$0 = pow($f1 \, $f2)*$f3 + $f5;
#X obj 326 65 list split 4;
#X text 149 419 args: label/rcv \, send \, min \, max \, pow \, mult \, int \, add \; arg 8 onward: path (label split by "/") \;;
#X msg 44 18 range \$3 \$4 \, receive \$1 \, label empty;
#X obj 44 407 s \$2;
#X connect 1 0 18 0;
#X connect 1 0 21 0;
#X connect 2 0 3 0;
#X connect 3 0 4 0;
#X connect 4 0 24 0;
#X connect 5 0 27 0;
#X connect 6 0 7 0;
#X connect 6 0 16 0;
#X connect 7 0 1 0;
#X connect 8 0 17 0;
#X connect 10 0 9 0;
#X connect 11 0 18 1;
#X connect 11 1 5 1;
#X connect 12 0 10 0;
#X connect 13 0 15 0;
#X connect 14 0 13 0;
#X connect 15 0 12 0;
#X connect 16 0 12 0;
#X connect 18 0 23 0;
#X connect 21 0 20 0;
#X connect 22 0 21 1;
#X connect 23 0 12 0;
#X connect 23 0 5 0;
#X connect 24 0 8 0;
#X connect 24 0 14 0;
#X connect 24 0 26 0;
#X connect 24 0 22 0;
#X connect 24 1 11 0;
#X connect 26 0 1 0;
#X coords 0 -1 1 1 134 44 2 40 50;
