#N canvas 855 420 560 467 12;
#X obj 41 51 cnv 20 132 42 empty \$0name volume 4 7 0 12 #e0e0e0 #000000 0;
#X obj 47 68 hsl 120 20 0 1 0 0 empty volume :0 4 10 0 12 #000000 #7c7c7c #ffffff 0 1;
#X obj 426 40 loadbang;
#X msg 426 65 args;
#X obj 426 90 pdcontrol;
#X obj 44 372 list prepend;
#X obj 44 400 send fx-ctrl;
#X obj 284 299 r reset_slider;
#X msg 284 324 set 0;
#X obj 44 105 pow 1;
#X obj 44 131 * 1;
#X obj 44 192 atoms/AB;
#X obj 97 218 i;
#X obj 426 123 list split 3;
#X msg 67 17 range \$2 \$3 \, receive \$1 \, label empty;
#X msg 229 143 label \$1;
#X obj 229 168 s \$0name;
#X obj 67 335 s \$1;
#X msg 67 310 label :\$1;
#X obj 44 248 change;
#X obj 122 100 unpack f f f f;
#X obj 44 162 +;
#X obj 270 200 list split 4;
#X obj 67 283 makefilename %.2f;
#X obj 426 238 else/receiver;
#X msg 426 211 symbol \$1;
#X obj 426 263 route set;
#X msg 221 319 0, f 2;
#X connect 1 0 9 0;
#X connect 2 0 3 0;
#X connect 3 0 4 0;
#X connect 4 0 13 0;
#X connect 5 0 6 0;
#X connect 7 0 8 0;
#X connect 7 0 27 0;
#X connect 8 0 1 0;
#X connect 9 0 10 0;
#X connect 10 0 21 0;
#X connect 11 0 19 0;
#X connect 11 1 12 0;
#X connect 12 0 19 0;
#X connect 13 0 14 0;
#X connect 13 0 15 0;
#X connect 13 0 25 0;
#X connect 13 1 22 0;
#X connect 14 0 1 0;
#X connect 15 0 16 0;
#X connect 18 0 17 0;
#X connect 19 0 5 0;
#X connect 19 0 23 0;
#X connect 20 0 9 1;
#X connect 20 1 10 1;
#X connect 20 2 11 1;
#X connect 20 3 21 1;
#X connect 21 0 11 0;
#X connect 22 0 20 0;
#X connect 22 1 5 1;
#X connect 23 0 18 0;
#X connect 24 0 26 0;
#X connect 25 0 24 0;
#X connect 26 0 23 0;
#X connect 27 0 23 0;
#X coords 0 -1 1 1 134 44 2 40 50;
