#N canvas 733 327 450 401 12;
#X obj 15 73 vsl 20 80 0 1 0 0 empty empty length 0 -11 0 12 #fcfcfc #000000 #000000 0 1;
#X msg 15 209 0 \$1;
#X obj 40 73 vsl 20 80 0 1 0 0 empty empty empty 0 -9 0 12 #fcfcfc #000000 #000000 0 1;
#X obj 65 73 vsl 20 80 0 1 0 0 empty empty empty 0 -9 0 12 #fcfcfc #000000 #000000 0 1;
#X obj 90 73 vsl 20 80 0 1 0 0 empty empty empty 0 -9 0 12 #fcfcfc #000000 #000000 0 1;
#X obj 115 73 vsl 20 80 0 1 0 0 empty empty empty 0 -9 0 12 #fcfcfc #000000 #000000 0 1;
#X obj 140 73 vsl 20 80 0 1 0 0 empty empty empty 0 -9 0 12 #fcfcfc #000000 #000000 0 1;
#X obj 165 73 vsl 20 80 0 1 0 0 empty empty empty 0 -9 0 12 #fcfcfc #000000 #000000 0 1;
#X obj 190 73 vsl 20 80 0 1 0 0 empty empty empty 0 -9 0 12 #fcfcfc #000000 #000000 0 1;
#X obj 278 73 loadbang;
#X msg 278 98 args;
#X obj 278 123 pdcontrol;
#X msg 278 173 label \$1;
#X msg 40 239 1 \$1;
#X msg 65 209 2 \$1;
#X msg 90 239 3 \$1;
#X msg 115 209 4 \$1;
#X msg 140 239 5 \$1;
#X msg 165 209 6 \$1;
#X msg 190 239 7 \$1;
#X obj 155 336 list trim;
#X obj 155 361 outlet;
#X obj 155 311 list prepend \$1;
#X obj 278 148 unpack s f;
#X obj 192 10 f;
#X obj 195 54 bng 15 250 50 0 empty empty reset -36 7 0 12 #fcfcfc #000000 #000000;
#X connect 0 0 1 0;
#X connect 1 0 22 0;
#X connect 2 0 13 0;
#X connect 3 0 14 0;
#X connect 4 0 15 0;
#X connect 5 0 16 0;
#X connect 6 0 17 0;
#X connect 7 0 18 0;
#X connect 8 0 19 0;
#X connect 9 0 10 0;
#X connect 10 0 11 0;
#X connect 11 0 23 0;
#X connect 12 0 0 0;
#X connect 13 0 22 0;
#X connect 14 0 22 0;
#X connect 15 0 22 0;
#X connect 16 0 22 0;
#X connect 17 0 22 0;
#X connect 18 0 22 0;
#X connect 19 0 22 0;
#X connect 20 0 21 0;
#X connect 22 0 20 0;
#X connect 23 0 12 0;
#X connect 23 1 24 0;
#X connect 24 0 8 0;
#X connect 24 0 7 0;
#X connect 24 0 6 0;
#X connect 24 0 5 0;
#X connect 24 0 4 0;
#X connect 24 0 3 0;
#X connect 24 0 2 0;
#X connect 24 0 0 0;
#X connect 25 0 24 0;
#X coords 0 -1 1 1 205 110 2 10 50;
