#N canvas 1201 322 450 300 12;
#X obj 15 32 tgl 20 0 empty empty reverse 0 -10 0 12 #fcfcfc #000000 #000000 0 1;
#X obj 181 14 tgl 15 0 empty empty all -22 8 0 12 #ffc7c6 #000000 #000000 0 1;
#X obj 38 32 tgl 20 0 empty empty empty 0 -10 0 12 #fcfcfc #000000 #000000 0 1;
#X obj 61 32 tgl 20 0 empty empty empty 0 -10 0 12 #fcfcfc #000000 #000000 0 1;
#X obj 84 32 tgl 20 0 empty empty empty 0 -10 0 12 #fcfcfc #000000 #000000 0 1;
#X obj 107 32 tgl 20 0 empty empty empty 0 -10 0 12 #fcfcfc #000000 #000000 0 1;
#X obj 130 32 tgl 20 0 empty empty empty 0 -10 0 12 #fcfcfc #000000 #000000 0 1;
#X obj 153 32 tgl 20 0 empty empty empty 0 -10 0 12 #fcfcfc #000000 #000000 0 1;
#X obj 176 32 tgl 20 0 empty empty empty 0 -10 0 12 #fcfcfc #000000 #000000 0 1;
#X obj 327 7 loadbang;
#X msg 327 32 args;
#X obj 327 57 pdcontrol;
#X msg 31 133 0 \$1;
#X msg 41 155 1 \$1;
#X msg 111 133 2 \$1;
#X msg 121 155 3 \$1;
#X msg 191 133 4 \$1;
#X msg 201 155 5 \$1;
#X msg 271 133 6 \$1;
#X msg 281 155 7 \$1;
#X obj 161 219 list prepend \$1;
#X obj 161 274 outlet;
#X msg 59 92 label \$1;
#X obj 327 82 unpack s f;
#X obj 161 246 list trim;
#X connect 0 0 12 0;
#X connect 1 0 8 0;
#X connect 1 0 7 0;
#X connect 1 0 6 0;
#X connect 1 0 5 0;
#X connect 1 0 4 0;
#X connect 1 0 3 0;
#X connect 1 0 2 0;
#X connect 1 0 0 0;
#X connect 2 0 13 0;
#X connect 3 0 14 0;
#X connect 4 0 15 0;
#X connect 5 0 16 0;
#X connect 6 0 17 0;
#X connect 7 0 18 0;
#X connect 8 0 19 0;
#X connect 9 0 10 0;
#X connect 10 0 11 0;
#X connect 11 0 23 0;
#X connect 12 0 20 0;
#X connect 13 0 20 0;
#X connect 14 0 20 0;
#X connect 15 0 20 0;
#X connect 16 0 20 0;
#X connect 17 0 20 0;
#X connect 18 0 20 0;
#X connect 19 0 20 0;
#X connect 20 0 24 0;
#X connect 22 0 0 0;
#X connect 23 0 22 0;
#X connect 23 1 1 0;
#X connect 23 1 8 0;
#X connect 23 1 7 0;
#X connect 23 1 6 0;
#X connect 23 1 5 0;
#X connect 23 1 4 0;
#X connect 23 1 3 0;
#X connect 23 1 2 0;
#X connect 23 1 0 0;
#X connect 24 0 21 0;
#X coords 0 -1 1 1 192 47 2 10 10;
