#N canvas 733 327 450 300 12;
#X obj 122 18 loadbang;
#X msg 122 43 args;
#X obj 122 68 pdcontrol;
#X msg 98 100 receive \$1 \, label \$1;
#X obj 122 126 list split 8;
#X obj 50 163 list prepend;
#X obj 50 188 s \$2;
#X obj 50 120 tgl 24 0 empty empty empty 0 -10 0 12 #fcfcfc #000000 #000000 0 1;
#X connect 0 0 1 0;
#X connect 1 0 2 0;
#X connect 2 0 4 0;
#X connect 2 0 3 0;
#X connect 3 0 7 0;
#X connect 4 1 5 1;
#X connect 5 0 6 0;
#X connect 7 0 5 0;
#X coords 0 -1 1 1 24 24 2 50 120;
