#N canvas 113 79 450 300 12;
#X obj 93 33 inlet;
#N canvas 259 64 406 546 table-reader 0;
#X obj 42 310 *~;
#X obj 42 390 tabread4~;
#X obj 42 428 *~;
#X obj 42 475 outlet~;
#X obj 122 149 r smp-length\$0;
#X msg 122 203 \$1 20;
#X obj 122 228 line~;
#X msg 204 254 \$1 20;
#X obj 204 279 line~;
#X obj 252 329 EG~;
#X obj 232 404 env~;
#X obj 232 455 dbtorms;
#X obj 49 363 r set-table\$0;
#X obj 252 302 r set-level\$0;
#X obj 290 329 r set-env\$0;
#X obj 75 175 r set-phase\$0;
#X obj 47 26 r smp-rate\$0;
#X obj 29 51 /;
#X msg 29 76 1 \$1;
#X obj 29 101 /;
#X msg 29 151 \$1 20;
#X obj 29 176 line~;
#X obj 232 482 outlet;
#X obj 290 482 outlet;
#X obj 29 126 mul 1;
#X obj 42 209 else/pimp~;
#X obj 109 455 else/trig2bang~;
#X obj 109 482 outlet;
#X obj 99 106 expr $f1 * ($f2*-2+1);
#X obj 99 78 r \$0speed;
#X obj 203 78 r \$0reverse;
#X obj 172 78 b;
#X obj 148 26 loadbang;
#X msg 148 51 1;
#X obj 232 429 change;
#X obj 232 378 *~;
#X obj 109 428 *~;
#X obj 42 335 +~ 1;
#X obj 41 237 *~;
#X obj 41 262 +~;
#X obj 236 182 r \$0trim;
#X obj 236 207 unpack;
#X connect 0 0 37 0;
#X connect 1 0 2 0;
#X connect 2 0 3 0;
#X connect 4 0 17 0;
#X connect 4 0 5 0;
#X connect 5 0 6 0;
#X connect 6 0 0 1;
#X connect 7 0 8 0;
#X connect 9 0 2 1;
#X connect 9 1 23 0;
#X connect 9 1 35 1;
#X connect 9 1 36 1;
#X connect 10 0 34 0;
#X connect 11 0 22 0;
#X connect 12 0 1 0;
#X connect 13 0 9 0;
#X connect 14 0 9 1;
#X connect 15 0 25 1;
#X connect 16 0 17 1;
#X connect 17 0 18 0;
#X connect 18 0 19 0;
#X connect 19 0 24 0;
#X connect 20 0 21 0;
#X connect 21 0 25 0;
#X connect 24 0 20 0;
#X connect 25 0 38 0;
#X connect 25 1 36 0;
#X connect 26 0 27 0;
#X connect 28 0 24 1;
#X connect 29 0 28 0;
#X connect 30 0 28 1;
#X connect 30 0 31 0;
#X connect 31 0 28 0;
#X connect 32 0 33 0;
#X connect 33 0 28 0;
#X connect 34 0 11 0;
#X connect 35 0 10 0;
#X connect 36 0 26 0;
#X connect 37 0 1 0;
#X connect 38 0 39 0;
#X connect 39 0 0 0;
#X connect 39 0 35 0;
#X connect 40 0 41 0;
#X restore 93 141 pd table-reader;
#X obj 82 172 outlet~;
#X obj 180 206 outlet;
#X obj 93 60 broadcast \$0;
#N canvas 444 137 423 320 set_values 0;
#X obj 82 19 r \$0table;
#X msg 26 64 set \$1;
#X obj 26 95 s set-table\$0;
#X obj 281 35 r \$0trim;
#X obj 281 60 unpack;
#X obj 268 93 clip 0 1;
#X obj 333 93 clip 0 1;
#X obj 291 130 --;
#X obj 122 120 t f f;
#X obj 161 97 s smp-rate\$0;
#X obj 122 200 s smp-length\$0;
#X obj 250 168 mul;
#X obj 250 219 s smp-offset\$0;
#X obj 122 175 - 2;
#X obj 250 193 max 1;
#X obj 82 44 list split 1;
#X obj 122 70 unpack;
#X obj 122 150 mul 1;
#X floatatom 28 232 13 0 0 0 - - - 0;
#X floatatom 66 262 13 0 0 0 - - - 0;
#X connect 0 0 15 0;
#X connect 1 0 2 0;
#X connect 3 0 4 0;
#X connect 4 0 5 0;
#X connect 4 1 6 0;
#X connect 5 0 7 1;
#X connect 5 0 11 1;
#X connect 6 0 7 0;
#X connect 7 0 17 1;
#X connect 8 0 17 0;
#X connect 8 1 11 0;
#X connect 11 0 14 0;
#X connect 13 0 10 0;
#X connect 13 0 18 0;
#X connect 14 0 12 0;
#X connect 14 0 19 0;
#X connect 15 0 1 0;
#X connect 15 1 16 0;
#X connect 16 0 8 0;
#X connect 16 1 9 0;
#X connect 17 0 13 0;
#X restore 93 87 pd set_values;
#N canvas 373 78 305 410 play_messages 0;
#X obj 46 36 r \$0play;
#X obj 125 52 > 0;
#X obj 46 72 spigot;
#X obj 46 152 unpack f f;
#X obj 46 362 s set-level\$0;
#X obj 113 178 s set-phase\$0;
#X obj 125 26 r smp-length\$0;
#X obj 79 211 inlet;
#X obj 139 309 spigot 1;
#X msg 139 334 0;
#X obj 228 263 r \$0loop;
#X obj 228 289 == 0;
#X obj 86 238 spigot;
#X obj 46 96 route list float;
#X msg 100 122 \$1 0;
#X obj 144 203 > 0;
#X obj 86 283 one-pass;
#X obj 144 228 sel 1;
#X obj 176 275 b;
#X connect 0 0 2 0;
#X connect 1 0 2 1;
#X connect 1 0 12 1;
#X connect 2 0 13 0;
#X connect 3 0 4 0;
#X connect 3 1 15 0;
#X connect 3 1 5 0;
#X connect 6 0 1 0;
#X connect 7 0 12 0;
#X connect 8 0 9 0;
#X connect 8 0 18 0;
#X connect 9 0 4 0;
#X connect 10 0 11 0;
#X connect 11 0 8 1;
#X connect 12 0 16 0;
#X connect 13 0 3 0;
#X connect 13 1 14 0;
#X connect 14 0 3 0;
#X connect 15 0 17 0;
#X connect 16 1 8 0;
#X connect 17 0 16 0;
#X connect 17 1 18 0;
#X connect 18 0 16 1;
#X restore 93 114 pd play_messages;
#X msg 144 172 pos \$1;
#X msg 206 172 isPlaying \$1;
#X connect 0 0 4 0;
#X connect 1 0 2 0;
#X connect 1 1 6 0;
#X connect 1 2 7 0;
#X connect 1 3 8 0;
#X connect 7 0 3 0;
#X connect 8 0 3 0;
