#N canvas 532 36 551 482 12;
#X obj 232 109 tgl 15 0 empty empty empty 17 7 0 10 #fcfcfc #000000
#000000 0 1;
#X obj 232 134 sel 1 0;
#X obj 25 362 timer;
#X obj 435 100 loadbang;
#X obj 435 126 samplerate~;
#X obj 232 301 t b b;
#X msg 301 186 stop;
#X obj 255 160 t b b b;
#X obj 416 260 t b b, f 10;
#X obj 416 365 pack s f f;
#X obj 416 390 prepend table;
#X obj 119 283 delay 60000;
#X msg 27 263 stop;
#X obj 416 415 outlet;
#X obj 46 203 r recording\$0;
#X obj 449 314 v size\$0;
#X obj 483 340 v sr\$0;
#X obj 435 151 v sr\$0;
#X obj 25 335 r beginCount\$0;
#X obj 57 310 r endCount\$0;
#X obj 264 357 expr 60 * sr\$0;
#X obj 232 408 s recording\$0;
#X obj 301 211 s recording\$0;
#X obj 278 237 s endCount\$0;
#X obj 255 263 s sendData\$0;
#X obj 416 234 r sendData\$0;
#X obj 275 332 s beginCount\$0;
#X obj 25 387 expr size\$0 = $f1*( sr\$0 / 1000), f 18;
#X obj 25 68 inlet~ fwd;
#X obj 435 187 outlet;
#X obj 25 229 tabwrite~;
#X obj 25 430 array size;
#X obj 264 382 array size;
#X obj 416 288 symbol;
#X msg 36 177 set \$1;
#X obj 92 139 symbol;
#X text 31 4 Basic audio recorder abstraction.;
#X text 31 20 Bang starts/stops recording \, "table" msg sets array
\, left outlet outputs rec info and right outlet rec state.;
#X obj 349 81 b;
#X obj 92 93 route table reload bang, f 11;
#X connect 0 0 1 0;
#X connect 0 0 29 0;
#X connect 1 0 5 0;
#X connect 1 1 7 0;
#X connect 2 0 27 0;
#X connect 3 0 4 0;
#X connect 4 0 17 0;
#X connect 5 0 21 0;
#X connect 5 1 20 0;
#X connect 5 1 26 0;
#X connect 6 0 22 0;
#X connect 7 0 24 0;
#X connect 7 1 23 0;
#X connect 7 2 6 0;
#X connect 8 0 33 0;
#X connect 8 1 15 0;
#X connect 8 1 16 0;
#X connect 9 0 10 0;
#X connect 10 0 13 0;
#X connect 11 0 0 0;
#X connect 12 0 11 0;
#X connect 14 0 30 0;
#X connect 15 0 9 1;
#X connect 16 0 9 2;
#X connect 18 0 2 0;
#X connect 18 0 11 0;
#X connect 19 0 2 1;
#X connect 19 0 12 0;
#X connect 20 0 32 0;
#X connect 25 0 8 0;
#X connect 27 0 31 0;
#X connect 28 0 30 0;
#X connect 28 1 39 0;
#X connect 33 0 9 0;
#X connect 34 0 30 0;
#X connect 35 0 34 0;
#X connect 35 0 31 1;
#X connect 35 0 32 1;
#X connect 35 0 33 1;
#X connect 38 0 8 0;
#X connect 39 0 35 0;
#X connect 39 1 38 0;
#X connect 39 2 0 0;
