#N canvas 532 36 597 517 12;
#X obj 329 167 tgl 15 0 empty empty empty 17 7 0 10 #fcfcfc #000000 #000000 0 1;
#X obj 389 212 sel 1 0;
#X obj 25 392 timer;
#X obj 453 111 loadbang;
#X obj 453 137 samplerate~;
#X obj 389 369 t b b;
#X msg 458 264 stop;
#X obj 412 238 t b b b;
#X obj 210 321 t b b, f 10;
#X obj 210 426 pack s f f;
#X obj 210 451 prepend table;
#X obj 119 313 delay 60000;
#X msg 27 293 stop;
#X obj 210 476 outlet;
#X obj 46 233 r recording\$0;
#X obj 243 375 v size\$0;
#X obj 277 401 v sr\$0;
#X obj 453 162 v sr\$0;
#X obj 25 365 r beginCount\$0;
#X obj 57 340 r endCount\$0;
#X obj 421 426 expr 60 * sr\$0;
#X obj 389 482 s recording\$0;
#X obj 458 289 s recording\$0;
#X obj 435 315 s endCount\$0;
#X obj 430 398 s beginCount\$0;
#X obj 25 417 expr size\$0 = $f1*( sr\$0 / 1000), f 18;
#X obj 25 98 inlet~ fwd;
#X obj 329 476 outlet;
#X obj 25 259 tabwrite~;
#X obj 25 460 array size;
#X obj 421 454 array size;
#X obj 210 349 symbol;
#X msg 36 207 set \$1;
#X obj 92 172 symbol;
#X text 31 4 Basic audio recorder abstraction.;
#X obj 210 215 b;
#X obj 329 192 change;
#X text 31 49 2nd inlet reloads table info.;
#X obj 92 123 route symbol bang;
#X obj 210 184 inlet;
#X text 31 20 Bang starts/stops recording \, symbol sets array \; left outlet outputs table info and right outlet rec state.;
#X connect 0 0 36 0;
#X connect 1 0 5 0;
#X connect 1 1 7 0;
#X connect 2 0 25 0;
#X connect 3 0 4 0;
#X connect 4 0 17 0;
#X connect 5 0 21 0;
#X connect 5 1 20 0;
#X connect 5 1 24 0;
#X connect 6 0 22 0;
#X connect 7 0 8 0;
#X connect 7 1 23 0;
#X connect 7 2 6 0;
#X connect 8 0 31 0;
#X connect 8 1 15 0;
#X connect 8 1 16 0;
#X connect 9 0 10 0;
#X connect 10 0 13 0;
#X connect 11 0 0 0;
#X connect 12 0 11 0;
#X connect 14 0 28 0;
#X connect 15 0 9 1;
#X connect 16 0 9 2;
#X connect 18 0 2 0;
#X connect 18 0 11 0;
#X connect 19 0 2 1;
#X connect 19 0 12 0;
#X connect 20 0 30 0;
#X connect 25 0 29 0;
#X connect 26 0 28 0;
#X connect 26 1 38 0;
#X connect 31 0 9 0;
#X connect 32 0 28 0;
#X connect 33 0 32 0;
#X connect 33 0 29 1;
#X connect 33 0 30 1;
#X connect 33 0 31 1;
#X connect 35 0 8 0;
#X connect 36 0 27 0;
#X connect 36 0 1 0;
#X connect 38 0 33 0;
#X connect 38 1 0 0;
#X connect 39 0 35 0;
