#N canvas 389 229 615 259 12;
#X obj 24 46 delwrite~ \$0ff 100;
#X floatatom 24 71 5 0 0 0 - - -;
#X obj 24 121 *~;
#X obj 24 146 outlet~;
#X obj 143 70 loadbang;
#X obj 143 95 samplerate~;
#X obj 143 120 / 1000;
#X msg 143 145 1024 \$1;
#X obj 143 170 /;
#X obj 241 40 env~ 1024;
#X obj 24 21 inlet~;
#X obj 241 65 moses;
#X obj 241 107 b;
#X obj 273 117 expr (($f1 - $f3) / $f2) - $f1 + $f3, f 19;
#X obj 273 157 + 100;
#X obj 273 182 dbtorms;
#X obj 315 45 inlet;
#X obj 390 45 inlet;
#X text 250 15 inlets: threshold & ratio;
#X msg 452 90 args;
#X obj 452 115 pdcontrol;
#X obj 452 140 route bang float list;
#X msg 452 165 98 2;
#X obj 500 192 unpack;
#X msg 500 165 \$1 4;
#X obj 24 95 delread~ \$0ff;
#X msg 233 156 1;
#X obj 143 229 outlet~;
#X obj 143 202 lop~ 50;
#X connect 1 0 25 0;
#X connect 2 0 3 0;
#X connect 4 0 5 0;
#X connect 4 0 19 0;
#X connect 5 0 6 0;
#X connect 6 0 7 0;
#X connect 7 0 8 0;
#X connect 8 0 1 0;
#X connect 9 0 11 0;
#X connect 10 0 0 0;
#X connect 10 0 9 0;
#X connect 11 0 12 0;
#X connect 11 1 13 0;
#X connect 12 0 26 0;
#X connect 13 0 14 0;
#X connect 14 0 15 0;
#X connect 15 0 28 0;
#X connect 16 0 11 1;
#X connect 16 0 13 2;
#X connect 17 0 13 1;
#X connect 19 0 20 0;
#X connect 20 0 21 0;
#X connect 21 0 22 0;
#X connect 21 1 24 0;
#X connect 21 2 23 0;
#X connect 22 0 23 0;
#X connect 23 0 13 2;
#X connect 23 0 11 1;
#X connect 23 1 13 1;
#X connect 24 0 23 0;
#X connect 25 0 2 0;
#X connect 26 0 28 0;
#X connect 28 0 2 1;
#X connect 28 0 27 0;
