#N canvas 458 221 450 300 12;
#X obj 69 79 abs~;
#X obj 69 107 pow~ 1;
#X obj 69 134 lop~ 5;
#X obj 69 217 outlet~;
#X obj 69 20 inlet~ fwd;
#X obj 69 161 +~ 0;
#X obj 69 189 clip~ -1 1;
#X obj 136 47 route gain decay floor ceil;
#X obj 69 50 *~ 1;
#X connect 0 0 1 0;
#X connect 1 0 2 0;
#X connect 2 0 5 0;
#X connect 4 0 8 0;
#X connect 4 1 7 0;
#X connect 5 0 6 0;
#X connect 6 0 3 0;
#X connect 7 0 8 1;
#X connect 7 1 1 1;
#X connect 7 2 5 1;
#X connect 7 3 6 2;
#X connect 8 0 0 0;
