#N canvas 458 221 450 300 12;
#X obj 39 109 abs~;
#X obj 39 137 pow~ 1;
#X obj 39 164 lop~ 5;
#X obj 39 247 outlet~;
#X obj 39 50 inlet~ fwd;
#X obj 39 191 +~ 0;
#X obj 39 219 clip~ -1 1;
#X obj 106 77 route gain decay floor ceil;
#X obj 39 80 *~ 1;
#X obj 236 145 loadbang;
#X msg 236 170 args;
#X obj 236 195 pdcontrol;
#X obj 236 220 route list;
#X obj 236 245 unpack f f f f;
#X connect 0 0 1 0;
#X connect 1 0 2 0;
#X connect 2 0 5 0;
#X connect 4 0 8 0;
#X connect 4 1 7 0;
#X connect 5 0 6 0;
#X connect 6 0 3 0;
#X connect 7 0 8 1;
#X connect 7 1 1 1;
#X connect 7 2 5 1;
#X connect 7 3 6 2;
#X connect 8 0 0 0;
#X connect 9 0 10 0;
#X connect 10 0 11 0;
#X connect 11 0 12 0;
#X connect 12 0 13 0;
#X connect 13 0 8 1;
#X connect 13 1 1 1;
#X connect 13 2 5 1;
#X connect 13 3 6 2;
