#N canvas 860 134 450 412 12;
#X obj 237 318 delread~ ar 0;
#X obj 281 242 *~;
#X obj 20 122 *~;
#X obj 169 143 tgl 15 0 empty empty empty 17 7 0 10 #fcfcfc #000000
#000000 0 1;
#X obj 59 123 == 0;
#X obj 281 216 delread4~ ar 200;
#X obj 184 42 metro 300;
#X obj 184 69 random 100;
#X obj 281 115 sel 1;
#X obj 184 95 > 70;
#X obj 281 166 + 200;
#X obj 281 141 random;
#X obj 281 192 lop~ 2;
#X obj 237 283 delwrite~ ar 1000;
#X obj 235 351 outlet~;
#X obj 19 54 inlet~ fwd;
#X obj 184 16 r \$0auto;
#X obj 191 123 r \$0freeze;
#X obj 268 75 r \$0chance;
#X obj 269 22 r \$0rate;
#X obj 342 146 r \$0delay;
#X obj 341 113 r \$0random;
#X obj 86 79 broadcast \$0;
#X obj 48 258 tgl 15 0 empty empty empty 17 7 0 10 #fcfcfc #000000
#000000 0 1;
#X obj 48 283 s \$0auto;
#X floatatom 45 311 5 0 0 0 - - - 0;
#X obj 45 335 s \$0rate;
#X floatatom 43 364 5 0 0 0 - - - 0;
#X obj 43 388 s \$0delay;
#X connect 0 0 14 0;
#X connect 1 0 13 0;
#X connect 2 0 13 0;
#X connect 3 0 4 0;
#X connect 3 0 1 1;
#X connect 4 0 2 1;
#X connect 5 0 1 0;
#X connect 6 0 7 0;
#X connect 7 0 9 0;
#X connect 8 0 11 0;
#X connect 9 0 8 0;
#X connect 9 0 3 0;
#X connect 10 0 12 0;
#X connect 11 0 10 0;
#X connect 12 0 5 0;
#X connect 15 0 2 0;
#X connect 15 1 22 0;
#X connect 16 0 6 0;
#X connect 17 0 3 0;
#X connect 18 0 9 1;
#X connect 19 0 6 1;
#X connect 20 0 10 1;
#X connect 21 0 11 1;
#X connect 23 0 24 0;
#X connect 25 0 26 0;
#X connect 27 0 28 0;
