#N canvas 857 154 458 497 12;
#X obj 49 438 outlet~;
#X obj 48 356 rifft~;
#X obj 47 109 rfft~;
#X obj 49 386 /~ 6144;
#X obj 114 267 tabreceive~ \$0-freeze2;
#X obj 26 281 tabreceive~ \$0-freeze1, f 11;
#X obj 25 211 tabwrite~ \$0-freeze1, f 10;
#X obj 114 226 tabwrite~ \$0-freeze2;
#X obj 276 27 table \$0-freeze1 1024;
#X obj 276 53 table \$0-freeze2 1024;
#X msg 273 168 const 0;
#X obj 273 195 s \$0-freeze1;
#X obj 305 221 s \$0-freeze2;
#X obj 114 171 cyclone/framedelta~;
#X obj 114 296 cyclone/frameaccum~;
#X obj 114 198 cyclone/phasewrap~;
#X obj 26 325 else/pol2car~;
#X obj 26 139 else/car2pol~;
#X obj 153 124 route bang clear;
#X obj 47 28 inlet~ fwd;
#X obj 276 88 block~ 1024 4;
#X obj 47 72 else/hann~;
#X obj 49 414 else/hann~;
#X connect 1 0 3 0;
#X connect 2 0 17 0;
#X connect 2 1 17 1;
#X connect 3 0 22 0;
#X connect 4 0 14 0;
#X connect 5 0 16 0;
#X connect 10 0 11 0;
#X connect 10 0 12 0;
#X connect 13 0 15 0;
#X connect 14 0 16 1;
#X connect 15 0 7 0;
#X connect 16 0 1 0;
#X connect 16 1 1 1;
#X connect 17 0 6 0;
#X connect 17 1 13 0;
#X connect 18 0 6 0;
#X connect 18 0 7 0;
#X connect 18 1 10 0;
#X connect 19 0 21 0;
#X connect 19 1 18 0;
#X connect 21 0 2 0;
#X connect 22 0 0 0;
