#N canvas 458 221 321 375 12;
#X obj 39 47 inlet;
#X obj 99 210 t f f;
#X msg 180 235 stop;
#X msg 254 235 play;
#X msg 219 235 rec;
#X obj 99 320 outlet;
#X obj 99 181 limit-range 0 63;
#X obj 99 235 % 8;
#X obj 131 235 div 8;
#X msg 99 67 \$2 \$1;
#X obj 99 92 route 1 3 5;
#X obj 99 124 t f b;
#X obj 143 124 t f b;
#X obj 186 124 t f b;
#X text 32 18 to be used with [grid_control];
#X obj 39 320 outlet;
#X obj 131 267 list prepend;
#X obj 99 294 list append;
#X connect 0 0 9 0;
#X connect 0 0 15 0;
#X connect 1 0 7 0;
#X connect 1 1 8 0;
#X connect 2 0 16 1;
#X connect 3 0 16 1;
#X connect 4 0 16 1;
#X connect 6 0 1 0;
#X connect 7 0 17 0;
#X connect 8 0 16 0;
#X connect 9 0 10 0;
#X connect 10 0 11 0;
#X connect 10 1 12 0;
#X connect 10 2 13 0;
#X connect 11 0 6 0;
#X connect 11 1 2 0;
#X connect 12 0 6 0;
#X connect 12 1 4 0;
#X connect 13 0 6 0;
#X connect 13 1 3 0;
#X connect 16 0 17 1;
#X connect 17 0 5 0;
