#N canvas 52 104 672 416 12;
#X obj 251 156 timer;
#X obj 251 131 t b b;
#N canvas 205 156 451 349 minimum-taps 0;
#X obj 226 57 t b f, f 6;
#X msg 87 143 0;
#X obj 264 202 f, f 6;
#X obj 196 118 f;
#X obj 251 119 + 1;
#X obj 87 94 b;
#X obj 264 227 outlet;
#X obj 226 27 inlet;
#X obj 87 118 delay 1000;
#X obj 196 172 sel 1;
#X obj 196 147 % 2;
#X connect 0 0 3 0;
#X connect 0 1 2 1;
#X connect 1 0 3 1;
#X connect 2 0 6 0;
#X connect 3 0 4 0;
#X connect 3 0 5 0;
#X connect 3 0 10 0;
#X connect 4 0 3 1;
#X connect 5 0 8 0;
#X connect 7 0 0 0;
#X connect 8 0 1 0;
#X connect 9 0 2 0;
#X connect 10 0 9 0;
#X restore 251 235 pd minimum-taps;
#X obj 251 105 inlet;
#X obj 108 63 bng 14 250 50 0 empty empty empty 17 7 0 10 #202020 #ffe3c6
#000000;
#X obj 160 309 s tempo;
#X obj 43 77 nbx 3 20 -1e+37 1e+37 0 0 empty empty Bpm 52 11 0 14 #202020
#feffc6 #000000 0 256;
#X msg 165 226 set \$1;
#X msg 165 176 60000 \$1;
#X obj 165 201 /;
#X msg 43 264 60000 \$1;
#X obj 43 289 /;
#X obj 371 21 loadbang;
#X obj 371 134 metro;
#X obj 380 77 / 8;
#X obj 371 374 s tick;
#X obj 383 263 sel 0;
#X obj 383 349 s beat;
#X obj 380 51 r tempo;
#X obj 436 349 s bar;
#X obj 436 323 sel 0;
#X msg 198 71 120;
#X obj 383 289 else/count 3;
#X obj 57 100 nbx 3 15 1 1e+09 0 0 empty empty beats 38 8 0 10 #202020
#ff8300 #000000 0 256;
#X msg 198 97 4;
#X obj 371 231 else/count 7;
#X obj 57 167 s beats\$0;
#X obj 567 121 r beats\$0;
#X obj 484 84 * 2;
#X obj 484 109 - 1;
#X msg 408 180 max \$1;
#X obj 567 146 - 1;
#X msg 491 228 max \$1;
#X obj 466 155 f;
#X msg 466 180 set \$1;
#X obj 549 203 f;
#X msg 549 228 set \$1;
#X obj 380 105 t b f b;
#X obj 413 77 t b f;
#X obj 128 63 bng 14 250 50 0 empty empty empty 17 7 0 10 #feffc6 #202020
#000000;
#X msg 325 158 set 0;
#X obj 320 66 t b b;
#X obj 43 120 hradio 12 1 0 4 empty empty empty 0 -8 0 10 #202020 #ffe3c6
#000000 0;
#X msg 77 193 number \$1;
#X obj 108 6 r taptempo;
#X obj 128 31 r resetmetro;
#X connect 0 0 2 0;
#X connect 1 0 0 0;
#X connect 1 1 0 1;
#X connect 2 0 5 0;
#X connect 2 0 8 0;
#X connect 3 0 1 0;
#X connect 4 0 1 0;
#X connect 6 0 10 0;
#X connect 7 0 6 0;
#X connect 8 0 9 0;
#X connect 9 0 7 0;
#X connect 10 0 11 0;
#X connect 11 0 5 0;
#X connect 12 0 13 0;
#X connect 12 0 21 0;
#X connect 12 0 24 0;
#X connect 13 0 25 0;
#X connect 14 0 37 0;
#X connect 16 0 22 0;
#X connect 18 0 14 0;
#X connect 20 0 19 0;
#X connect 21 0 6 0;
#X connect 22 0 17 0;
#X connect 22 0 20 0;
#X connect 22 0 42 0;
#X connect 23 0 26 0;
#X connect 23 0 43 0;
#X connect 24 0 23 0;
#X connect 25 0 16 0;
#X connect 25 0 15 0;
#X connect 27 0 28 0;
#X connect 27 0 31 0;
#X connect 28 0 29 0;
#X connect 28 0 38 0;
#X connect 29 0 30 0;
#X connect 29 0 33 1;
#X connect 30 0 25 0;
#X connect 31 0 32 0;
#X connect 31 0 35 1;
#X connect 32 0 22 0;
#X connect 33 0 34 0;
#X connect 34 0 25 0;
#X connect 35 0 36 0;
#X connect 36 0 22 0;
#X connect 37 0 13 0;
#X connect 37 1 13 1;
#X connect 37 2 33 0;
#X connect 37 2 35 0;
#X connect 38 0 14 0;
#X connect 38 1 14 1;
#X connect 39 0 41 0;
#X connect 40 0 25 0;
#X connect 40 0 22 0;
#X connect 41 0 13 0;
#X connect 41 1 40 0;
#X connect 43 0 42 0;
#X connect 44 0 4 0;
#X connect 45 0 39 0;
#X coords 0 -1 1 1 105 76 1 40 60;
