#N canvas 500 98 537 442 12;
#X obj 26 26 loadbang;
#X obj 272 53 r BPM;
#X obj 272 104 /;
#X msg 272 79 60000 \$1;
#X obj 207 69 timer;
#X obj 207 44 t b b;
#X msg 350 145 label \$1;
#X obj 350 170 s bpmLabel;
#X obj 350 120 makefilename Bpm:\ %.1f;
#X obj 26 219 metro;
#X obj 26 51 t b b;
#X obj 37 160 / 8;
#X obj 26 255 count 8;
#X obj 26 403 s tick;
#X obj 38 287 sel 0;
#X obj 38 373 s beat;
#X obj 207 257 t b b f;
#X msg 230 284 0, f 2;
#X obj 37 134 r tempo;
#X obj 260 284 s tempo;
#X obj 272 129 s tempo;
#X msg 58 81 120;
#X obj 58 106 s BPM;
#X obj 283 229 /;
#X msg 283 204 60000 \$1;
#X obj 38 313 count 4;
#X obj 91 373 s bar;
#X obj 91 347 sel 0;
#N canvas 209 189 450 360 lightcontrol 0;
#X obj 51 30 r beat;
#X obj 125 280 s grid-light;
#X text 276 28 it should work with ANY number of lights \;, f 21;
#X obj 156 48 r bar-length;
#X obj 125 252 prepend 0;
#X msg 156 73 8 \$1;
#X obj 156 98 -;
#X obj 72 91 -1;
#X obj 51 232 pack;
#X obj 51 60 t f f b f;
#X obj 154 137 == 0;
#X obj 154 162 sel 0 1;
#X obj 72 118 + 4;
#X obj 72 143 pack f 0;
#X obj 51 205 + 4;
#X msg 154 187 5, f 2;
#X msg 177 187 3, f 2;
#X obj 282 109 r metro-line;
#X connect 0 0 9 0;
#X connect 3 0 5 0;
#X connect 4 0 1 0;
#X connect 5 0 6 0;
#X connect 6 0 12 1;
#X connect 6 0 14 1;
#X connect 7 0 12 0;
#X connect 8 0 4 0;
#X connect 9 0 14 0;
#X connect 9 1 7 1;
#X connect 9 2 7 0;
#X connect 9 3 10 0;
#X connect 10 0 11 0;
#X connect 11 0 15 0;
#X connect 11 1 16 0;
#X connect 12 0 13 0;
#X connect 13 0 4 0;
#X connect 14 0 8 0;
#X connect 15 0 8 1;
#X connect 16 0 8 1;
#X connect 17 0 4 1;
#X restore 372 274 pd lightcontrol;
#X obj 359 10 r apc-grid;
#N canvas 458 221 450 300 tap-tempo 0;
#X obj 155 44 inlet;
#X obj 155 69 route 0;
#X obj 243 34 r metro-line;
#X obj 155 94 stripnote;
#X obj 155 119 b;
#X obj 155 144 s tapTempo;
#X connect 0 0 1 0;
#X connect 1 0 3 0;
#X connect 2 0 1 1;
#X connect 3 0 4 0;
#X connect 4 0 5 0;
#X restore 359 35 pd tap-tempo;
#X obj 37 188 t b f;
#X msg 84 223 set 0;
#N canvas 205 156 451 349 minimum-taps 0;
#X obj 226 57 t b f, f 6;
#X msg 87 143 0;
#X obj 264 202 f, f 6;
#X obj 196 118 f;
#X obj 251 119 + 1;
#X obj 87 94 b;
#X obj 264 227 outlet;
#X obj 226 27 inlet;
#X obj 87 118 delay 1000;
#X obj 196 172 sel 1;
#X obj 196 147 % 2;
#X connect 0 0 3 0;
#X connect 0 1 2 1;
#X connect 1 0 3 1;
#X connect 2 0 6 0;
#X connect 3 0 4 0;
#X connect 3 0 5 0;
#X connect 3 0 10 0;
#X connect 4 0 3 1;
#X connect 5 0 8 0;
#X connect 7 0 0 0;
#X connect 8 0 1 0;
#X connect 9 0 2 0;
#X connect 10 0 9 0;
#X restore 207 166 pd minimum-taps;
#X obj 207 18 r tap-tempo;
#X connect 0 0 10 0;
#X connect 1 0 3 0;
#X connect 1 0 8 0;
#X connect 2 0 20 0;
#X connect 3 0 2 0;
#X connect 4 0 33 0;
#X connect 5 0 4 0;
#X connect 5 1 4 1;
#X connect 6 0 7 0;
#X connect 8 0 6 0;
#X connect 9 0 12 0;
#X connect 10 0 9 0;
#X connect 10 1 21 0;
#X connect 11 0 31 0;
#X connect 12 0 14 0;
#X connect 12 0 13 0;
#X connect 14 0 25 0;
#X connect 16 0 9 0;
#X connect 16 1 17 0;
#X connect 16 2 19 0;
#X connect 16 2 24 0;
#X connect 17 0 12 1;
#X connect 18 0 11 0;
#X connect 21 0 22 0;
#X connect 23 0 8 0;
#X connect 24 0 23 0;
#X connect 25 0 15 0;
#X connect 25 0 27 0;
#X connect 27 0 26 0;
#X connect 29 0 30 0;
#X connect 31 0 9 0;
#X connect 31 1 9 1;
#X connect 31 1 32 0;
#X connect 32 0 12 1;
#X connect 32 0 25 1;
#X connect 33 0 16 0;
#X connect 34 0 5 0;
