#N canvas 357 159 749 435 12;
#X obj 390 201 env~ 2048;
#X obj 390 226 > 80;
#X obj 390 251 change;
#X obj 390 277 sel 1;
#X obj 390 375 del 800;
#X msg 390 400 stop;
#X msg 58 90 1000 \$1;
#X obj 58 115 /;
#X obj 58 140 phasor~;
#X obj 58 175 *~;
#X obj 58 200 +~ 1;
#X floatatom 556 309 5 0 0 0 - - - 0;
#X obj 147 155 - 2;
#X floatatom 466 207 5 0 0 0 - - - 0;
#X obj 390 302 t b b;
#X msg 422 330 stop;
#X floatatom 556 200 5 0 0 1 BPM - - 0;
#X msg 556 224 60000 \$1;
#X obj 556 249 /;
#X obj 556 283 / 4;
#X floatatom 622 276 5 0 0 1 division - - 0;
#X obj 622 299 t b f;
#X obj 390 177 *~;
#X obj 408 157 tgl 15 0 empty empty empty 17 7 0 10 #fcfcfc #000000
#000000 0 1;
#X msg 480 75 const 0;
#X obj 172 21 loadbang;
#X obj 172 46 samplerate~;
#X obj 172 71 / 1000;
#X msg 273 36 resize \$1;
#X obj 147 96 * 96;
#X obj 193 142 t b f;
#X obj 209 279 tabwrite~ \$0t;
#X obj 353 35 table \$0t;
#X obj 480 100 s \$0t;
#X obj 58 291 outlet~;
#X obj 147 125 * 1;
#X obj 273 61 s \$0t;
#X obj 58 226 tabread4~ \$0t;
#X obj 193 109 r \$0octave;
#X obj 480 49 r \$0clear;
#X obj 556 174 r \$0tempo;
#X obj 408 132 r \$0capture;
#X obj 466 181 r \$0sens;
#X obj 622 251 r \$0division;
#X obj 210 225 inlet~ fwd;
#X obj 277 252 broadcast \$0;
#X obj 556 333 s \$0-length;
#X obj 453 355 r \$0-length;
#X obj 58 64 r \$0-length;
#X connect 0 0 1 0;
#X connect 1 0 2 0;
#X connect 2 0 3 0;
#X connect 3 0 14 0;
#X connect 4 0 5 0;
#X connect 5 0 31 0;
#X connect 6 0 7 0;
#X connect 7 0 8 0;
#X connect 8 0 9 0;
#X connect 9 0 10 0;
#X connect 10 0 37 0;
#X connect 11 0 46 0;
#X connect 12 0 9 1;
#X connect 13 0 1 1;
#X connect 14 0 4 0;
#X connect 14 1 15 0;
#X connect 14 1 31 0;
#X connect 15 0 4 0;
#X connect 16 0 17 0;
#X connect 17 0 18 0;
#X connect 18 0 19 0;
#X connect 19 0 11 0;
#X connect 20 0 21 0;
#X connect 21 0 19 0;
#X connect 21 1 19 1;
#X connect 22 0 0 0;
#X connect 23 0 22 1;
#X connect 24 0 33 0;
#X connect 25 0 26 0;
#X connect 26 0 27 0;
#X connect 26 0 28 0;
#X connect 27 0 29 1;
#X connect 28 0 36 0;
#X connect 29 0 35 0;
#X connect 30 0 35 0;
#X connect 30 1 35 1;
#X connect 35 0 12 0;
#X connect 37 0 34 0;
#X connect 38 0 30 0;
#X connect 39 0 24 0;
#X connect 40 0 16 0;
#X connect 41 0 23 0;
#X connect 42 0 13 0;
#X connect 43 0 20 0;
#X connect 44 0 34 0;
#X connect 44 0 22 0;
#X connect 44 0 31 0;
#X connect 44 1 45 0;
#X connect 47 0 4 1;
#X connect 48 0 6 0;
#X connect 48 0 29 0;
