#N canvas 447 174 388 343 10;
#X msg 75 61 \$2 \$1;
#X obj 75 86 route 0;
#X obj 239 61 text define \$0.mono;
#X msg 209 104 \$2 \$1;
#X obj 236 197 text set \$0.mono;
#X obj 263 174 1e+06;
#X obj 15 161 text search \$0.mono, f 11;
#X obj 15 196 moses 0;
#X obj 15 268 text delete \$0.mono, f 11;
#X obj 209 282 outlet;
#X obj 75 15 inlet;
#X obj 236 151 t l b;
#X msg 140 130 \$2;
#X obj 96 148 ==;
#X obj 63 116 t f f;
#X obj 96 171 sel 1;
#X obj 96 194 text size \$0.mono;
#X obj 96 218 moses 1;
#X obj 236 237 text get \$0.mono;
#X obj 135 241 - 1;
#X msg 146 165 \$1;
#X obj 96 241 pack;
#X msg 96 264 \$2 \$1;
#X msg 15 242 -1;
#X obj 209 126 t l l;
#X obj 15 220 r \$0.clear;
#X obj 75 38 route list;
#X obj 132 61 broadcast \$0;
#X connect 0 0 1 0;
#X connect 1 0 14 0;
#X connect 1 1 3 0;
#X connect 1 1 12 0;
#X connect 3 0 24 0;
#X connect 5 0 4 1;
#X connect 6 0 7 0;
#X connect 7 1 8 0;
#X connect 10 0 26 0;
#X connect 11 0 4 0;
#X connect 11 1 5 0;
#X connect 12 0 13 1;
#X connect 12 0 21 1;
#X connect 13 0 15 0;
#X connect 14 0 13 0;
#X connect 14 1 6 0;
#X connect 15 0 16 0;
#X connect 16 0 17 0;
#X connect 17 0 21 0;
#X connect 17 1 19 0;
#X connect 18 0 9 0;
#X connect 18 0 20 0;
#X connect 19 0 18 0;
#X connect 20 0 13 1;
#X connect 20 0 21 1;
#X connect 21 0 22 0;
#X connect 22 0 9 0;
#X connect 23 0 8 0;
#X connect 24 0 9 0;
#X connect 24 1 11 0;
#X connect 25 0 23 0;
#X connect 26 0 0 0;
#X connect 26 1 27 0;
