#N canvas 458 275 450 300 12;
#X obj 186 21 r pads;
#X obj 186 74 hold 1;
#X obj 186 99 clone sample-pad~ 8;
#X obj 186 124 outlet~;
#X obj 82 94 load-kit;
#X obj 29 45 bng 20 250 50 0 empty empty empty 0 -10 0 12 #fcfcfc #000000 #000000;
#X obj 55 45 bng 20 250 50 0 empty empty empty 0 -10 0 12 #fcfcfc #000000 #000000;
#X obj 29 45 cnv 20 20 20 empty reclbl\$0 REC 1 10 0 10 #d5d7e8 #000000 0;
#X obj 55 45 cnv 20 20 20 empty playlbl\$0 PLAY 1 10 0 8 #9c00ff #ffffff 0;
#X msg 28 131 all rec;
#X msg 45 168 all play;
#X obj 80 45 bng 20 250 50 0 empty empty kit 0 -10 0 12 #fcfcfc #000000 #000000;
#X obj 266 182 rec-signal;
#X obj 266 207 s reclbl\$0;
#X obj 316 129 route 0;
#X obj 186 48 limit-range 0 8;
#X obj 356 182 rec-signal;
#X obj 316 154 route rec play;
#X obj 356 207 s playlbl\$0;
#X connect 0 0 15 0;
#X connect 1 0 2 0;
#X connect 2 0 3 0;
#X connect 2 1 14 0;
#X connect 4 0 2 0;
#X connect 5 0 9 0;
#X connect 6 0 10 0;
#X connect 9 0 2 0;
#X connect 10 0 2 0;
#X connect 11 0 4 0;
#X connect 12 0 13 0;
#X connect 14 0 17 0;
#X connect 15 0 1 0;
#X connect 16 0 18 0;
#X connect 17 0 12 0;
#X connect 17 1 16 0;
#X coords 0 -1 1 1 85 50 1 20 20;
