#N canvas 451 133 511 455 12;
#N canvas 458 221 388 309 absolute-times 0;
#X obj 128 92 inlet;
#X obj 128 117 t b b;
#X obj 128 168 timer;
#X msg 128 219 0;
#X obj 128 143 one-pass;
#X obj 128 193 one-pass;
#X obj 215 130 inlet;
#X obj 215 155 b;
#X obj 128 246 outlet;
#X text 46 20 1st bang sets base time \, other bangs output time difference
from base time, f 37;
#X text 255 130 <-reset;
#X connect 0 0 1 0;
#X connect 1 0 4 0;
#X connect 1 1 2 1;
#X connect 2 0 5 0;
#X connect 3 0 8 0;
#X connect 4 0 2 0;
#X connect 5 0 3 0;
#X connect 5 1 8 0;
#X connect 6 0 7 0;
#X connect 7 0 4 1;
#X connect 7 0 5 1;
#X restore 234 286 pd absolute-times;
#X obj 254 145 unpack;
#X obj 214 113 t b b l b;
#X obj 153 199 + 1;
#X msg 18 125 const 0;
#X obj 214 87 spigot;
#X obj 312 26 inlet;
#X obj 214 28 inlet;
#X obj 14 24 table time\$0 1024;
#X obj 14 49 table velocity\$0 1024;
#X obj 14 74 table note\$0 1024;
#X obj 28 150 s time\$0;
#X obj 28 175 s velocity\$0;
#X obj 18 200 s note\$0;
#X obj 234 316 tabwrite time\$0;
#X obj 293 198 tabwrite velocity\$0;
#X obj 254 172 tabwrite note\$0;
#X obj 336 133 v index\$0;
#X obj 153 174 v index\$0;
#X obj 153 224 v index\$0;
#X text 356 25 rec start/stop;
#X obj 312 61 sel 1 0;
#X obj 275 232 t b b;
#X connect 0 0 14 0;
#X connect 1 0 16 0;
#X connect 1 1 15 0;
#X connect 2 0 18 0;
#X connect 2 1 0 0;
#X connect 2 2 1 0;
#X connect 2 3 17 0;
#X connect 3 0 19 0;
#X connect 4 0 11 0;
#X connect 4 0 12 0;
#X connect 4 0 13 0;
#X connect 5 0 2 0;
#X connect 6 0 21 0;
#X connect 6 0 5 1;
#X connect 7 0 5 0;
#X connect 17 0 14 1;
#X connect 17 0 15 1;
#X connect 17 0 16 1;
#X connect 18 0 3 0;
#X connect 21 0 22 0;
#X connect 22 1 0 1;
