#N canvas 458 221 376 369 12;
#X obj 67 289 prepend add;
#X obj 67 263 list prepend;
#X obj 67 157 spigot;
#X obj 264 211 sel 1;
#N canvas 458 221 450 300 absolute-times 0;
#X obj 128 92 inlet;
#X obj 128 117 t b b;
#X obj 128 168 timer;
#X msg 128 219 0;
#X obj 128 143 one-pass;
#X obj 128 193 one-pass;
#X obj 215 130 inlet;
#X obj 215 155 b;
#X obj 128 246 outlet;
#X text 73 28 1st bang sets base time \, other bangs output time difference
from base time, f 37;
#X obj 191 246 outlet;
#X obj 191 225 bng 15 250 50 0 empty empty empty 17 7 0 10 #fcfcfc
#000000 #000000;
#X connect 0 0 1 0;
#X connect 1 0 4 0;
#X connect 1 1 2 1;
#X connect 2 0 5 0;
#X connect 3 0 8 0;
#X connect 4 0 2 0;
#X connect 5 0 3 0;
#X connect 5 0 11 0;
#X connect 5 1 8 0;
#X connect 6 0 7 0;
#X connect 7 0 4 1;
#X connect 7 0 5 1;
#X connect 11 0 10 0;
#X restore 148 237 pd absolute-times;
#X obj 67 217 t l b;
#X obj 67 316 outlet;
#X obj 67 130 inlet;
#X obj 142 170 sel 0;
#X msg 142 197 symbol end;
#X obj 240 294 outlet;
#X msg 264 263 1;
#X msg 212 263 0;
#X obj 159 111 inlet;
#X obj 159 137 change;
#X text 37 23 1st inlet receives data to be recorded \; 1st outlet
sends timestamped data and end signal to narray \; 2nd inlet receives
arm message (0 or 1) \; 2nd outlet sends recording state (0 or 1),
f 42;
#X connect 0 0 6 0;
#X connect 1 0 0 0;
#X connect 2 0 5 0;
#X connect 3 0 4 1;
#X connect 4 0 1 1;
#X connect 4 1 11 0;
#X connect 5 0 1 0;
#X connect 5 1 4 0;
#X connect 7 0 2 0;
#X connect 8 0 9 0;
#X connect 8 0 12 0;
#X connect 9 0 5 0;
#X connect 11 0 10 0;
#X connect 12 0 10 0;
#X connect 13 0 14 0;
#X connect 14 0 8 0;
#X connect 14 0 3 0;
#X connect 14 0 2 1;
