#N canvas 226 71 446 423 12;
#X obj 30 95 inlet;
#X obj 209 277 list split 1;
#X msg 209 187 get \$1;
#X obj 209 161 else/count;
#X msg 209 135 0;
#N canvas 207 237 450 300 relative-times 0;
#X obj 173 68 inlet;
#X obj 181 160 t b f;
#X obj 181 185 delay;
#X obj 181 210 outlet;
#X obj 173 93 t f f;
#X obj 181 131 -;
#X obj 257 93 inlet;
#X msg 257 118 stop;
#X connect 0 0 4 0;
#X connect 1 0 2 0;
#X connect 1 1 2 1;
#X connect 2 0 3 0;
#X connect 4 0 5 1;
#X connect 4 1 5 0;
#X connect 5 0 1 0;
#X connect 6 0 7 0;
#X connect 7 0 2 0;
#X restore 209 304 pd relative-times;
#X obj 30 376 outlet;
#X obj 369 274 sel end;
#X obj 209 212 outlet;
#X obj 209 252 inlet;
#X obj 209 356 route list symbol;
#X text 87 11 Needs to interact with narray object \;;
#X obj 302 115 sel 1 0;
#X text 87 31 1st inlet starts/stops playing \, 1st outlet outputs
data. 2nd outlet asks for narray data \, 2nd inlet receives and process.
, f 39;
#X obj 209 331 list;
#X obj 133 249 b;
#X msg 52 199 isPlaying \$1;
#X obj 52 223 outlet;
#X obj 52 174 change;
#X text 208 232 narray;
#X text 29 144 implementar length;
#X connect 0 0 12 0;
#X connect 1 0 5 0;
#X connect 1 1 14 1;
#X connect 2 0 8 0;
#X connect 3 0 2 0;
#X connect 4 0 3 0;
#X connect 5 0 14 0;
#X connect 7 0 4 0;
#X connect 9 0 1 0;
#X connect 10 0 6 0;
#X connect 10 0 15 0;
#X connect 10 1 7 0;
#X connect 12 0 4 0;
#X connect 12 1 5 1;
#X connect 14 0 10 0;
#X connect 15 0 3 0;
#X connect 16 0 17 0;
#X connect 18 0 16 0;
