#N canvas 479 117 450 478 12;
#X obj 68 52 inlet~;
#X obj 68 227 +~;
#X obj 68 252 outlet~;
#X obj 144 71 rzero_rev~;
#X obj 144 96 rpole~;
#X obj 144 121 rzero_rev~;
#X obj 144 146 rpole~;
#X obj 144 171 rzero_rev~;
#X obj 144 196 rpole~;
#X obj 144 221 rzero_rev~;
#X obj 144 246 rpole~;
#X obj 255 30 inlet;
#X obj 255 64 phasor~ 0.8;
#X obj 255 89 expr~ abs($v1*.5);
#X obj 255 114 expr~ 0.97 - 0.6*$v1*$v1;
#X obj 144 271 rzero_rev~;
#X obj 144 296 rpole~;
#X obj 144 321 rzero_rev~;
#X obj 144 346 rpole~;
#X obj 144 371 rzero_rev~;
#X obj 144 396 rpole~;
#X obj 144 421 rzero_rev~;
#X obj 144 446 rpole~;
#X connect 0 0 1 0;
#X connect 0 0 3 0;
#X connect 1 0 2 0;
#X connect 3 0 4 0;
#X connect 4 0 5 0;
#X connect 5 0 6 0;
#X connect 6 0 7 0;
#X connect 7 0 8 0;
#X connect 8 0 9 0;
#X connect 9 0 10 0;
#X connect 10 0 15 0;
#X connect 11 0 12 0;
#X connect 12 0 13 0;
#X connect 13 0 14 0;
#X connect 14 0 3 1;
#X connect 14 0 10 1;
#X connect 14 0 9 1;
#X connect 14 0 8 1;
#X connect 14 0 7 1;
#X connect 14 0 6 1;
#X connect 14 0 5 1;
#X connect 14 0 4 1;
#X connect 14 0 15 1;
#X connect 14 0 22 1;
#X connect 14 0 21 1;
#X connect 14 0 20 1;
#X connect 14 0 19 1;
#X connect 14 0 18 1;
#X connect 14 0 17 1;
#X connect 14 0 16 1;
#X connect 15 0 16 0;
#X connect 16 0 17 0;
#X connect 17 0 18 0;
#X connect 18 0 19 0;
#X connect 19 0 20 0;
#X connect 20 0 21 0;
#X connect 21 0 22 0;
#X connect 22 0 1 1;
