#N canvas 514 36 547 452 12;
#X obj 212 21 tgl 15 0 empty empty empty 17 7 0 10 #fcfcfc #000000
#000000 0 1;
#X obj 212 46 sel 1 0;
#X obj 25 294 timer;
#X obj 425 12 loadbang;
#X obj 425 38 samplerate~;
#X obj 212 263 t b b;
#X msg 281 98 stop;
#X obj 235 72 t b b b;
#X obj 396 235 t b b, f 10;
#X obj 396 340 pack s f f;
#X obj 396 365 prepend table;
#X obj 75 198 delay 60000;
#X msg 17 198 stop;
#X obj 396 390 outlet;
#X obj 36 130 r recording\$0;
#X obj 429 289 v size\$0;
#X obj 463 315 v sr\$0;
#X obj 425 63 v sr\$0;
#X obj 25 267 r beginCount\$0;
#X obj 57 242 r endCount\$0;
#X obj 244 319 expr 60 * sr\$0;
#X obj 212 370 s recording\$0;
#X obj 281 123 s recording\$0;
#X obj 258 149 s endCount\$0;
#X obj 235 175 s sendData\$0;
#X obj 396 209 r sendData\$0;
#X obj 255 294 s beginCount\$0;
#X obj 25 319 expr size\$0 = $f1*( sr\$0 / 1000), f 18;
#X obj 25 21 inlet~ fwd;
#X obj 425 94 outlet;
#X text 389 411 to player;
#X text 411 114 to control;
#X obj 25 161 tabwrite~;
#X obj 25 362 array size;
#X obj 244 344 array size;
#X obj 396 263 symbol;
#X obj 92 46 route set;
#X obj 152 70 b;
#X connect 0 0 1 0;
#X connect 0 0 29 0;
#X connect 1 0 5 0;
#X connect 1 1 7 0;
#X connect 2 0 27 0;
#X connect 3 0 4 0;
#X connect 4 0 17 0;
#X connect 5 0 21 0;
#X connect 5 1 20 0;
#X connect 5 1 26 0;
#X connect 6 0 22 0;
#X connect 7 0 24 0;
#X connect 7 1 23 0;
#X connect 7 2 6 0;
#X connect 8 0 35 0;
#X connect 8 1 15 0;
#X connect 8 1 16 0;
#X connect 9 0 10 0;
#X connect 10 0 13 0;
#X connect 11 0 0 0;
#X connect 12 0 11 0;
#X connect 14 0 32 0;
#X connect 15 0 9 1;
#X connect 16 0 9 2;
#X connect 18 0 2 0;
#X connect 18 0 11 0;
#X connect 19 0 2 1;
#X connect 19 0 12 0;
#X connect 20 0 34 0;
#X connect 25 0 8 0;
#X connect 27 0 33 0;
#X connect 28 0 32 0;
#X connect 28 1 36 0;
#X connect 35 0 9 0;
#X connect 36 1 37 0;
#X connect 37 0 0 0;
