#N canvas 711 147 507 433 12;
#X obj 134 143 load-file;
#N canvas 458 221 450 300 FX 0;
#X obj 37 37 inlet~;
#X obj 37 62 outlet~;
#X connect 0 0 1 0;
#X restore 230 330 pd FX;
#X obj 230 385 outlet~;
#X obj 54 143 audio-rec~;
#X obj 345 385 outlet;
#X obj 54 34 inlet~ fwd;
#N canvas 458 221 360 343 patterns 0;
#X obj 35 194 pattern-play;
#X obj 136 163 pattern-rec;
#X obj 49 15 inlet;
#X obj 210 305 outlet;
#X obj 35 286 outlet;
#X msg 164 88 clear;
#X obj 67 102 spigot;
#X msg 67 127 0;
#X obj 35 75 t f b;
#X msg 35 258 play \$2 \$1;
#X msg 224 98 getAll;
#X msg 210 270 rec \$1;
#N canvas 261 189 450 300 narrays 0;
#X obj 112 150 narray;
#X obj 172 150 narray;
#X obj 136 180 narray;
#X obj 196 180 narray;
#X obj 230 151 narray;
#X obj 259 179 narray;
#X obj 158 247 outlet;
#X obj 137 46 inlet;
#X obj 137 111 route 1 2 3 4 5 6;
#X obj 248 42 inlet;
#X obj 137 78 list prepend 1;
#X obj 245 248 outlet;
#X connect 0 0 6 0;
#X connect 0 1 11 0;
#X connect 1 0 6 0;
#X connect 1 1 11 0;
#X connect 2 0 6 0;
#X connect 2 1 11 0;
#X connect 3 0 6 0;
#X connect 3 1 11 0;
#X connect 4 0 6 0;
#X connect 4 1 11 0;
#X connect 5 0 6 0;
#X connect 5 1 11 0;
#X connect 7 0 10 0;
#X connect 8 0 0 0;
#X connect 8 1 2 0;
#X connect 8 2 1 0;
#X connect 8 3 3 0;
#X connect 8 4 4 0;
#X connect 8 5 5 0;
#X connect 9 0 10 1;
#X connect 10 0 8 0;
#X restore 136 194 pd narrays;
#X obj 167 226 print;
#X obj 49 41 route play rec input clear getAll bank;
#X connect 0 0 9 0;
#X connect 0 1 3 0;
#X connect 0 2 12 0;
#X connect 1 0 12 0;
#X connect 1 1 11 0;
#X connect 2 0 14 0;
#X connect 5 0 12 0;
#X connect 6 0 7 0;
#X connect 7 0 1 1;
#X connect 8 0 0 0;
#X connect 8 1 6 0;
#X connect 9 0 4 0;
#X connect 10 0 12 0;
#X connect 11 0 3 0;
#X connect 12 0 0 1;
#X connect 12 1 13 0;
#X connect 14 0 8 0;
#X connect 14 1 1 1;
#X connect 14 1 6 1;
#X connect 14 2 1 0;
#X connect 14 2 9 0;
#X connect 14 3 5 0;
#X connect 14 4 10 0;
#X connect 14 5 12 1;
#X restore 271 160 pd patterns;
#X obj 75 209 sel 1;
#X msg 75 244 play 0;
#X obj 134 286 audio-player~;
#X msg 245 251 loaded;
#X msg 121 174 rec \$1;
#X obj 245 283 prepend audio;
#X obj 345 283 prepend pattern;
#N canvas 458 221 450 300 save-file 0;
#X obj 99 48 inlet;
#X msg 99 103 symbol ~/samples;
#X obj 99 128 savepanel;
#X msg 99 183 write -bytes 3 \$1 \$2;
#X obj 99 208 soundfiler;
#X obj 99 157 list append;
#X obj 99 73 route bang table;
#X connect 0 0 6 0;
#X connect 1 0 2 0;
#X connect 2 0 5 0;
#X connect 3 0 4 0;
#X connect 5 0 3 0;
#X connect 6 0 1 0;
#X connect 6 1 5 1;
#X restore 311 135 pd save-file;
#N canvas 458 221 450 300 set-table 0;
#X obj 186 15 inlet;
#X obj 62 70 unpack s f f;
#X msg 62 96 rec table \$1 \, load table \$1 \, save table \$1, f
14;
#X obj 177 205 outlet;
#X obj 216 108 prepend player table;
#X connect 0 0 1 0;
#X connect 0 0 4 0;
#X connect 1 0 2 0;
#X connect 2 0 3 0;
#X connect 4 0 3 0;
#X restore 204 39 pd set-table;
#X obj 230 357 balance~, f 9;
#X obj 290 385 outlet~;
#X obj 108 67 route rec load player fx pattern save table pan;
#N canvas 261 191 450 300 rec-load-ctrl 0;
#X obj 121 115 inlet;
#X obj 121 140 outlet;
#X obj 295 118 inlet;
#X obj 295 143 outlet;
#X obj 214 119 inlet;
#X text 139 70 if recording \, load stops rec;
#X obj 202 190 spigot;
#X msg 202 215 0;
#X connect 0 0 1 0;
#X connect 2 0 3 0;
#X connect 2 0 6 0;
#X connect 4 0 6 1;
#X connect 6 0 7 0;
#X connect 7 0 1 0;
#X restore 60 108 pd rec-load-ctrl;
#X connect 0 0 9 0;
#X connect 0 0 10 0;
#X connect 0 0 8 0;
#X connect 1 0 16 0;
#X connect 3 0 9 0;
#X connect 3 1 7 0;
#X connect 3 1 11 0;
#X connect 3 1 19 1;
#X connect 5 0 3 0;
#X connect 5 1 18 0;
#X connect 6 0 9 0;
#X connect 6 1 13 0;
#X connect 7 0 8 0;
#X connect 8 0 9 0;
#X connect 9 0 1 0;
#X connect 9 1 12 0;
#X connect 10 0 12 0;
#X connect 11 0 12 0;
#X connect 12 0 4 0;
#X connect 13 0 4 0;
#X connect 15 0 18 0;
#X connect 16 0 2 0;
#X connect 16 1 17 0;
#X connect 18 0 19 0;
#X connect 18 1 19 2;
#X connect 18 2 9 0;
#X connect 18 3 1 0;
#X connect 18 4 6 0;
#X connect 18 5 14 0;
#X connect 18 6 15 0;
#X connect 18 7 16 1;
#X connect 19 0 3 0;
#X connect 19 1 0 0;
#X coords 0 433 1 432 85 60 0;
