#N canvas 124 204 507 353 12;
#X obj 30 210 outlet~;
#X obj 30 32 inlet;
#X obj 30 57 broadcast \$0;
#N canvas 825 66 412 565 table-reader 0;
#X obj 36 229 phasor~;
#X obj 36 35 r rate_\$0;
#X obj 36 310 *~;
#X obj 36 362 +~;
#X obj 54 284 r length_\$0;
#X obj 36 416 tabread4~ b_\$0;
#X obj 179 275 env~;
#X obj 179 300 dbtorms;
#X obj 36 498 outlet~;
#X obj 179 334 outlet;
#X obj 118 23 r \$0speed;
#X obj 118 49 / 100;
#X obj 54 337 r start-pnt_\$0;
#X obj 238 103 r \$0reverse;
#X obj 36 123 pack f 50;
#X obj 36 148 line~;
#X obj 36 95 mul 1;
#X msg 144 117 -1, f 2;
#X msg 176 117 1, f 2;
#X obj 144 92 sel 1;
#X obj 36 443 *~;
#X obj 172 424 EG~;
#X obj 172 395 r \$0play;
#X obj 245 404 r \$0env;
#X obj 190 449 s is_playing\$0;
#X obj 36 69 mul 1;
#X obj 36 469 *~;
#X obj 74 469 pot~ \$0level 1;
#X obj 238 300 b;
#X obj 238 335 f;
#X obj 82 153 r \$0location;
#X obj 238 360 s \$0location;
#X obj 43 389 r setTable\$0;
#X obj 36 199 modulate~;
#X obj 115 198 inlet~;
#N canvas 711 118 375 366 process-range 0;
#X obj 162 22 r \$0loop-range;
#X obj 18 53 inlet~;
#X obj 18 103 +~;
#X obj 18 78 *~ 1;
#X obj 18 128 outlet~;
#X obj 267 242 s \$0reverse;
#X obj 236 271 s adjust_speed\$0;
#X msg 34 270 1;
#X obj 34 295 s \$0play;
#X obj 239 107 unpack;
#X obj 239 136 >;
#X floatatom 239 209 5 0 0 0 - - - 0;
#X obj 177 107 unpack;
#X obj 198 161 abs;
#X obj 198 136 -;
#X obj 162 281 f;
#X obj 162 306 s \$0location;
#X msg 295 97 1;
#X obj 295 122 s \$0loop;
#X obj 162 57 t b l;
#N canvas 458 221 450 300 sw 0;
#X obj 78 88 inlet;
#X obj 78 174 spigot 1;
#X obj 131 249 outlet;
#X obj 178 88 inlet;
#X obj 233 88 inlet;
#X obj 178 174 spigot;
#X obj 131 148 == 0;
#X connect 0 0 1 0;
#X connect 1 0 2 0;
#X connect 3 0 5 0;
#X connect 4 0 5 1;
#X connect 4 0 6 0;
#X connect 5 0 2 0;
#X connect 6 0 1 1;
#X restore 107 228 pd sw;
#X connect 0 0 19 0;
#X connect 1 0 3 0;
#X connect 2 0 4 0;
#X connect 3 0 2 0;
#X connect 7 0 8 0;
#X connect 9 0 10 0;
#X connect 9 1 10 1;
#X connect 10 0 11 0;
#X connect 11 0 5 0;
#X connect 11 0 15 1;
#X connect 11 0 20 2;
#X connect 12 0 14 0;
#X connect 12 0 20 0;
#X connect 12 1 14 1;
#X connect 12 1 20 1;
#X connect 13 0 3 1;
#X connect 13 0 6 0;
#X connect 14 0 13 0;
#X connect 15 0 16 0;
#X connect 17 0 18 0;
#X connect 19 0 7 0;
#X connect 19 0 15 0;
#X connect 19 1 9 0;
#X connect 19 1 17 0;
#X connect 19 1 12 0;
#X connect 20 0 2 1;
#X restore 36 256 pd process-range;
#X connect 0 0 35 0;
#X connect 1 0 25 0;
#X connect 2 0 3 0;
#X connect 3 0 5 0;
#X connect 4 0 2 1;
#X connect 5 0 20 0;
#X connect 6 0 7 0;
#X connect 7 0 29 1;
#X connect 7 0 9 0;
#X connect 10 0 11 0;
#X connect 11 0 25 1;
#X connect 12 0 3 1;
#X connect 13 0 19 0;
#X connect 13 0 28 0;
#X connect 14 0 15 0;
#X connect 15 0 33 0;
#X connect 16 0 14 0;
#X connect 17 0 16 1;
#X connect 18 0 16 1;
#X connect 19 0 17 0;
#X connect 19 1 18 0;
#X connect 20 0 26 0;
#X connect 21 0 20 1;
#X connect 21 1 24 0;
#X connect 22 0 21 0;
#X connect 23 0 21 1;
#X connect 25 0 16 0;
#X connect 26 0 8 0;
#X connect 27 0 26 1;
#X connect 28 0 29 0;
#X connect 29 0 31 0;
#X connect 30 0 0 1;
#X connect 32 0 5 0;
#X connect 33 0 0 0;
#X connect 34 0 33 1;
#X connect 35 0 2 0;
#X connect 35 0 6 0;
#X restore 30 181 pd table-reader;
#N canvas 425 66 400 477 trim 0;
#X obj 50 90 s length_\$0;
#X obj 267 91 *;
#X obj 32 141 /;
#X obj 41 196 swap 1;
#X obj 41 221 /, f 6;
#X obj 41 246 s rate_\$0;
#X obj 32 26 r total-length_\$0;
#X obj 50 115 r smprate_\$0;
#X obj 32 413 s duration_\$0;
#X obj 32 274 * 1000;
#X obj 32 59 --;
#X obj 169 59 r \$0trim-end;
#X obj 267 59 r \$0trim-start;
#X obj 51 301 r \$0speed;
#X obj 32 386 / 1;
#X obj 51 356 t b f;
#X obj 51 328 / 100;
#X text 81 276 sec to ms \;;
#X obj 169 86 *;
#X obj 169 111 ++;
#X obj 267 116 s start-pnt_\$0;
#X text 220 32 receives 0-1;
#X obj 32 167 mul 1;
#X obj 114 158 r adjust_speed\$0;
#X connect 1 0 19 1;
#X connect 1 0 20 0;
#X connect 2 0 22 0;
#X connect 3 0 4 0;
#X connect 3 1 4 1;
#X connect 4 0 5 0;
#X connect 6 0 10 0;
#X connect 6 0 18 1;
#X connect 6 0 1 1;
#X connect 7 0 2 1;
#X connect 9 0 14 0;
#X connect 10 0 0 0;
#X connect 10 0 2 0;
#X connect 11 0 18 0;
#X connect 12 0 1 0;
#X connect 13 0 16 0;
#X connect 14 0 8 0;
#X connect 15 0 14 0;
#X connect 15 1 14 1;
#X connect 16 0 15 0;
#X connect 18 0 19 0;
#X connect 19 0 10 1;
#X connect 22 0 9 0;
#X connect 22 0 3 0;
#X connect 23 0 22 1;
#X restore 30 85 pd trim;
#N canvas 773 102 409 486 looping 0;
#X obj 60 260 r duration_\$0;
#X obj 22 344 delay;
#X msg 22 401 0, f 2;
#X msg 54 314 stop;
#X msg 22 210 1 \$1;
#X obj 22 235 -;
#X obj 22 260 *;
#X obj 22 286 t f b;
#X obj 117 355 r \$0loop;
#X text 58 239 don't restart delay;
#X obj 22 375 AB;
#X obj 22 183 t f b;
#X obj 22 427 s is_playing\$0;
#X obj 84 351 b;
#X obj 125 70 r \$0reverse;
#X text 18 22 if normal direction \, time left = 0 - now position \;
if reversed \, time left = 1 - now position \;, f 51;
#X obj 22 133 -;
#X obj 22 158 abs;
#X obj 125 99 t b f;
#X obj 22 60 r \$0location;
#X obj 22 85 pack f 0;
#X msg 22 109 \$2 \$1;
#X connect 0 0 6 1;
#X connect 1 0 10 0;
#X connect 2 0 12 0;
#X connect 3 0 1 0;
#X connect 4 0 5 0;
#X connect 5 0 6 0;
#X connect 6 0 7 0;
#X connect 7 0 1 0;
#X connect 7 1 3 0;
#X connect 8 0 10 1;
#X connect 10 0 2 0;
#X connect 10 1 13 0;
#X connect 11 0 4 0;
#X connect 13 0 1 0;
#X connect 14 0 18 0;
#X connect 16 0 17 0;
#X connect 17 0 11 0;
#X connect 18 0 20 0;
#X connect 18 1 20 1;
#X connect 19 0 20 0;
#X connect 20 0 21 0;
#X connect 21 0 16 0;
#X restore 30 111 pd looping;
#X obj 238 183 openpanel;
#X obj 238 208 s \$0file;
#X floatatom 399 171 5 0 0 0 - - - 0;
#X obj 399 194 s \$0speed;
#X obj 399 223 tgl 15 0 empty empty empty 17 7 0 10 #fcfcfc #000000
#000000 0 1;
#X obj 399 244 s \$0loop;
#X floatatom 371 19 5 0 0 0 - - - 0;
#X obj 371 43 s \$0trim-start;
#X floatatom 371 69 5 0 0 0 - - - 0;
#X obj 371 93 s \$0trim-end;
#N canvas 0 50 450 250 (subpatch) 0;
#X array b_\$0 182857 float 0;
#X coords 0 1 182856 -1 96 60 1 0 0;
#X restore 258 26 graph;
#X obj 242 273 tgl 15 0 empty empty empty 17 7 0 10 #fcfcfc #000000
#000000 0 1;
#X obj 242 295 s \$0reverse;
#X msg 238 142 symbol ~/samples, f 9;
#X obj 340 274 bng 15 250 50 0 empty empty empty 17 7 0 10 #fcfcfc
#000000 #000000;
#N canvas 667 200 450 157 play 0;
#X obj 37 37 inlet;
#X msg 37 62 1;
#X obj 37 87 s \$0play;
#X obj 104 82 s \$0location;
#X obj 122 29 r \$0reverse;
#X obj 104 57 f;
#X connect 0 0 1 0;
#X connect 0 0 5 0;
#X connect 1 0 2 0;
#X connect 4 0 5 1;
#X connect 5 0 3 0;
#X restore 340 295 pd play;
#X obj 132 59 r is_playing\$0;
#X msg 399 270 0;
#X obj 399 295 s \$0play;
#X obj 132 84 switch~;
#X obj 399 122 loadbang;
#X msg 399 146 100;
#X obj 132 210 outlet;
#N canvas 223 165 463 236 fill-table 0;
#X msg 279 78 read -resize \$1 b_\$2;
#X obj 279 103 soundfiler;
#X obj 279 52 pack s \$0;
#X msg 346 128 \$1;
#X obj 346 159 s smprate_\$0;
#X obj 279 185 s total-length_\$0;
#X obj 279 27 r \$0file;
#X obj 43 57 r \$0table;
#X obj 177 103 unpack s f f;
#X text 33 37 name \, size \, sampRate;
#X msg 177 160 set \$1;
#X obj 177 185 s setTable\$0;
#X obj 43 83 route reset;
#X obj 43 120 b;
#X obj 43 145 \$0;
#X msg 43 170 \; setTable\$1 b_\$1;
#X connect 0 0 1 0;
#X connect 1 0 5 0;
#X connect 1 1 3 0;
#X connect 2 0 0 0;
#X connect 3 0 4 0;
#X connect 6 0 2 0;
#X connect 7 0 12 0;
#X connect 8 0 10 0;
#X connect 8 1 5 0;
#X connect 8 2 4 0;
#X connect 10 0 11 0;
#X connect 12 0 13 0;
#X connect 12 1 8 0;
#X connect 13 0 14 0;
#X connect 14 0 15 0;
#X restore 132 32 pd fill-table;
#X obj 66 151 inlet~;
#X floatatom 149 271 5 0 0 0 - - - 0;
#X obj 149 295 s \$0location;
#X obj 32 296 s \$0loop-range;
#X msg 32 269 0 1;
#X msg 76 269 0 0.5;
#X connect 1 0 2 0;
#X connect 3 0 0 0;
#X connect 3 1 28 0;
#X connect 6 0 7 0;
#X connect 8 0 9 0;
#X connect 10 0 11 0;
#X connect 12 0 13 0;
#X connect 14 0 15 0;
#X connect 17 0 18 0;
#X connect 19 0 6 0;
#X connect 20 0 21 0;
#X connect 22 0 25 0;
#X connect 23 0 24 0;
#X connect 26 0 27 0;
#X connect 27 0 8 0;
#X connect 30 0 3 0;
#X connect 31 0 32 0;
#X connect 34 0 33 0;
#X connect 35 0 33 0;
