#N canvas 687 36 679 671 12;
#X obj 33 161 adc~ 1;
#X obj 50 411 else/meter~;
#X obj 450 349 tgl 15 0 empty empty empty 17 7 0 10 #fcfcfc #000000
#000000 0 1;
#X msg 111 159 rec;
#X obj 453 161 hsl 128 15 0 1 0 0 empty empty empty -2 -8 0 10 #fcfcfc
#000000 #000000 0 1;
#X obj 453 232 hsl 128 15 0 1 0 0 empty empty empty -2 -8 0 10 #fcfcfc
#000000 #000000 0 1;
#X obj 453 249 hsl 128 15 0 1 0 0 empty empty empty -2 -8 0 10 #fcfcfc
#000000 #000000 0 1;
#X obj 449 442 tgl 15 0 empty empty empty 17 7 0 10 #fcfcfc #000000
#000000 0 1;
#X msg 449 463 player reverse \$1;
#X floatatom 449 492 5 0 0 0 - - - 0;
#X msg 449 515 player speed \$1;
#X msg 450 416 player loop \$1;
#X obj 450 395 tgl 15 0 empty empty empty 17 7 0 10 #fcfcfc #000000
#000000 0 1;
#X msg 118 183 rec reload;
#X obj 93 300 sample-track;
#X msg 450 369 player play \$1 0;
#X obj 450 270 t b f;
#X obj 450 295 pack, f 5;
#X msg 450 320 player trim \$1 \$2;
#X msg 143 231 load reload;
#X obj 316 53 keys;
#X msg 316 105 pattern input \$1 \$2;
#X msg 316 197 pattern rec \$1;
#X obj 316 178 tgl 15 0 empty empty empty 17 7 0 10 #fcfcfc #000000
#000000 0 1;
#X obj 316 134 tgl 15 0 empty empty empty 17 7 0 10 #fcfcfc #000000
#000000 0 1;
#X msg 316 154 pattern play \$1;
#X msg 316 223 pattern clear;
#N canvas 458 221 322 266 prepare-input 0;
#X obj 109 37 inlet;
#X obj 109 62 hold 1;
#X obj 109 87 unpack f f;
#X obj 109 113 / 12;
#X obj 109 138 wrap;
#X obj 176 143 / 127;
#X obj 109 163 pack;
#X obj 109 188 outlet;
#X connect 0 0 1 0;
#X connect 1 0 2 0;
#X connect 2 0 3 0;
#X connect 2 1 5 0;
#X connect 3 0 4 0;
#X connect 4 0 6 0;
#X connect 5 0 6 1;
#X connect 6 0 7 0;
#X restore 316 78 pd prepare-input;
#X msg 316 247 pattern print;
#N canvas 0 50 450 250 (subpatch) 0;
#X array \$0vis 512 float 0;
#X coords 0 1 511 0 133 69 1 0 0;
#X restore 450 161 graph;
#X obj 305 561 bng 15 250 50 0 empty empty empty 17 7 0 10 #fcfcfc
#000000 #000000;
#X obj 305 530 sel 0;
#X obj 174 406 route pattern audio;
#X obj 174 431 route isPlaying rec;
#X msg 226 294 set \$1;
#X msg 286 294 set \$1;
#X obj 305 509 tgl 15 0 empty empty empty 17 7 0 10 #fcfcfc #000000
#000000 0 1;
#X msg 214 485 set \$1;
#X obj 50 386 drive-block;
#X obj 50 345 gain~;
#A saved 0.629961;
#X msg 141 552 normalize;
#X obj 141 577 s smp;
#X msg 139 207 load;
#X obj 50 552 dac~;
#X msg 101 135 save;
#X obj 174 457 route pos isPlaying loaded rec;
#X obj 305 580 table-resample \$0smp \$0vis;
#X obj 492 73 table \$0smp;
#X obj 93 50 loadbang;
#X obj 93 75 \$0;
#X msg 93 110 table \$1smp;
#X connect 0 0 14 0;
#X connect 1 0 43 0;
#X connect 1 0 43 1;
#X connect 2 0 15 0;
#X connect 3 0 14 0;
#X connect 5 0 17 0;
#X connect 6 0 16 0;
#X connect 7 0 8 0;
#X connect 8 0 14 0;
#X connect 9 0 10 0;
#X connect 10 0 14 0;
#X connect 11 0 14 0;
#X connect 12 0 11 0;
#X connect 13 0 14 0;
#X connect 14 0 39 0;
#X connect 14 1 32 0;
#X connect 15 0 14 0;
#X connect 16 0 17 0;
#X connect 16 1 17 1;
#X connect 17 0 18 0;
#X connect 18 0 14 0;
#X connect 19 0 14 0;
#X connect 20 0 27 0;
#X connect 21 0 14 0;
#X connect 22 0 14 0;
#X connect 23 0 22 0;
#X connect 24 0 25 0;
#X connect 25 0 14 0;
#X connect 26 0 14 0;
#X connect 27 0 21 0;
#X connect 28 0 14 0;
#X connect 30 0 46 0;
#X connect 31 0 30 0;
#X connect 32 0 33 0;
#X connect 32 1 45 0;
#X connect 33 0 34 0;
#X connect 33 1 35 0;
#X connect 34 0 24 0;
#X connect 35 0 23 0;
#X connect 36 0 31 0;
#X connect 37 0 2 0;
#X connect 38 0 1 0;
#X connect 39 0 38 0;
#X connect 40 0 41 0;
#X connect 42 0 14 0;
#X connect 44 0 14 0;
#X connect 45 0 4 0;
#X connect 45 1 37 0;
#X connect 45 2 30 0;
#X connect 45 3 36 0;
#X connect 48 0 49 0;
#X connect 49 0 50 0;
#X connect 50 0 14 0;
