#N canvas 458 221 427 377 12;
#X obj 98 106 load-file;
#N canvas 458 221 450 300 FX 0;
#X obj 37 37 inlet~;
#X obj 37 62 outlet~;
#X connect 0 0 1 0;
#X restore 204 291 pd FX;
#X obj 204 316 outlet~;
#X obj 18 106 audio-rec~;
#X obj 322 266 outlet;
#X obj 18 35 inlet~ fwd;
#X obj 72 68 route rec load player fx pattern;
#X msg 295 219 rec/audio \$1;
#N canvas 458 221 382 326 patterns 0;
#X obj 144 213 narray;
#X obj 43 213 pattern-play;
#X obj 155 158 pattern-rec;
#X msg 43 239 location \$1 \, play \$2, f 12;
#X msg 229 194 prec/pattern \$1;
#X obj 55 29 inlet;
#X obj 229 219 outlet;
#X obj 43 279 outlet;
#X msg 144 84 clear;
#X obj 75 114 spigot;
#X msg 75 139 0;
#X obj 43 87 t f b;
#X obj 55 55 route play rec input clear;
#X connect 0 0 1 1;
#X connect 1 0 3 0;
#X connect 1 1 0 0;
#X connect 2 0 0 0;
#X connect 2 1 4 0;
#X connect 3 0 7 0;
#X connect 4 0 6 0;
#X connect 5 0 12 0;
#X connect 8 0 0 0;
#X connect 9 0 10 0;
#X connect 10 0 2 1;
#X connect 11 0 1 0;
#X connect 11 1 9 0;
#X connect 12 0 11 0;
#X connect 12 1 2 1;
#X connect 12 1 9 1;
#X connect 12 2 8 0;
#X connect 12 3 2 0;
#X restore 248 156 pd patterns;
#X obj 39 172 sel 1;
#X msg 39 196 play 0;
#X obj 98 246 sample-player;
#X connect 0 0 11 0;
#X connect 1 0 2 0;
#X connect 3 0 11 0;
#X connect 3 1 7 0;
#X connect 3 1 9 0;
#X connect 5 0 3 0;
#X connect 5 1 6 0;
#X connect 6 0 3 0;
#X connect 6 1 0 0;
#X connect 6 2 11 0;
#X connect 6 3 1 0;
#X connect 6 4 8 0;
#X connect 7 0 4 0;
#X connect 8 0 11 0;
#X connect 8 1 4 0;
#X connect 9 0 10 0;
#X connect 10 0 11 0;
#X connect 11 0 1 0;
#X connect 11 1 4 0;
#X coords 0 377 1 376 85 60 0;
