#N canvas 455 180 380 308 12;
#X obj 46 213 audio-player~;
#X obj 46 29 inlet;
#X msg 46 169 play \$1;
#X obj 153 240 outlet;
#X obj 46 238 outlet~;
#X obj 46 139 / 127;
#X obj 214 152 table buff\$0;
#X obj 183 193 load-file buff\$0;
#X obj 58 92 single-pattern;
#X obj 46 54 route float rec play;
#X connect 0 0 4 0;
#X connect 0 1 3 0;
#X connect 1 0 9 0;
#X connect 2 0 0 0;
#X connect 5 0 2 0;
#X connect 7 0 0 0;
#X connect 8 0 5 0;
#X connect 8 1 3 0;
#X connect 9 0 5 0;
#X connect 9 0 8 0;
#X connect 9 1 8 0;
#X connect 9 2 8 1;
#X connect 9 3 0 0;
#X connect 9 3 7 0;
