#N canvas 359 200 448 339 12;
#X obj 37 18 metronome;
#X obj 148 18 sample-controller;
#X obj 235 44 click~;
#X obj 192 167 clone sample-track~ 8;
#X obj 194 239 out~;
#X obj 192 141 adc~ 1;
#X obj 336 192 s positions;
#X obj 148 44 sample-bank;
#X obj 58 104 else/meter~;
#X obj 174 205 delay-block;
#X obj 318 62 apc-mock;
#X obj 371 41 tgl 15 0 empty empty empty 17 7 0 10 #fcfcfc #000000
#000000 0 1;
#X connect 3 0 9 0;
#X connect 3 0 4 0;
#X connect 3 1 6 0;
#X connect 5 0 3 0;
#X connect 5 0 8 0;
#X connect 8 0 9 0;
#X connect 8 0 4 0;
#X connect 9 0 4 0;
#X connect 11 0 10 1;
