#N canvas 467 77 418 412 12;
#X obj 75 86 audio-rec~;
#X obj 75 131 audio-player~;
#X obj 98 28 loadbang;
#X obj 98 53 symbol buff\$0;
#X obj 224 293 gain~;
#A saved 0.64557;
#X obj 223 365 outlet~;
#X obj 227 267 bng 20 250 50 0 empty empty empty 0 -10 0 12 #fcfcfc #000000 #000000;
#X obj 227 247 hsl 89 12 0 1 0 0 empty empty empty -2 -10 0 12 #e3c6ff #000000 #000000 0 1;
#X msg 160 101 play;
#X obj 253 267 bng 20 250 50 0 empty empty empty 0 -10 0 12 #fcfcfc #000000 #000000;
#X obj 227 267 cnv 20 20 20 empty reclbl\$0 REC 1 10 0 10 #d5d7e8 #000000 0;
#X obj 253 267 cnv 20 20 20 empty empty PLAY 1 10 0 8 #9c00ff #ffffff 0;
#X obj 229 64 rec-signal;
#X obj 229 89 s reclbl\$0;
#X obj 201 129 route pos;
#X obj 279 267 bng 20 250 50 0 empty empty empty 0 -10 0 12 #fcfcfc #000000 #000000;
#X obj 279 267 cnv 20 20 20 empty looplbl\$0 LOOP 1 10 0 8 #061930 #ffffff 0;
#X obj 18 140 tgl 20 0 empty empty empty 0 -10 0 12 #fcfcfc #000000 #000000 0 1;
#X msg 18 181 loop \$1;
#X obj 58 228 color-toggle;
#X obj 58 253 s looplbl\$0;
#X obj 323 195 else/meter2~;
#X msg 18 54 play 0;
#X obj 36 368 table buff\$0;
#N canvas 0 50 450 250 (subpatch) 0;
#X array graph\$0 256 float 0;
#X coords 0 1 255 0 94 52 1 0 0;
#X restore 224 191 graph;
#X obj 18 29 sel 1 0;
#X obj 273 21 inlet~;
#X obj 41 316 table_analyze buff\$0 graph\$0, f 14;
#X obj 41 284 del 50;
#X connect 0 0 1 0;
#X connect 0 1 12 0;
#X connect 0 1 25 0;
#X connect 1 0 4 0;
#X connect 1 1 14 0;
#X connect 2 0 3 0;
#X connect 3 0 0 0;
#X connect 4 0 5 0;
#X connect 4 0 21 0;
#X connect 6 0 0 0;
#X connect 8 0 1 0;
#X connect 9 0 8 0;
#X connect 12 0 13 0;
#X connect 14 0 7 0;
#X connect 15 0 17 0;
#X connect 17 0 18 0;
#X connect 17 0 19 0;
#X connect 18 0 1 0;
#X connect 19 0 20 0;
#X connect 22 0 1 0;
#X connect 25 0 22 0;
#X connect 25 1 28 0;
#X connect 26 0 0 0;
#X connect 26 0 21 1;
#X connect 28 0 27 0;
#X coords 0 -1 1 1 180 175 1 220 160;
