#N canvas 458 221 450 300 12;
#X obj 126 86 track-reducer \$1;
#X obj 126 121 audio-rec~;
#X obj 126 191 gain~;
#A saved 0;
#X obj 126 156 audio-player~;
#X obj 256 176 route pos;
#X obj 126 235 outlet~;
#X obj 43 48 inlet~;
#X obj 207 17 r slicer;
#X obj 126 15 r grid;
#X obj 292 42 r slider;
#X obj 126 40 route \$1;
#X obj 207 42 route \$1;
#X obj 292 68 route \$1;
#X obj 256 201 list prepend \$1;
#X obj 256 226 s positions;
#X connect 0 0 1 0;
#X connect 0 1 3 0;
#X connect 1 0 3 0;
#X connect 2 0 5 0;
#X connect 3 0 2 0;
#X connect 3 1 4 0;
#X connect 4 0 13 0;
#X connect 6 0 1 0;
#X connect 7 0 11 0;
#X connect 8 0 10 0;
#X connect 9 0 12 0;
#X connect 10 0 0 0;
#X connect 11 0 3 0;
#X connect 12 0 2 1;
#X connect 13 0 14 0;
