#N canvas 1333 251 484 558 12;
#X obj 50 24 inlet;
#X obj 124 353 audio-rec~;
#X obj 174 423 audio-player~;
#X obj 174 453 gain~;
#A saved 0.866142;
#X obj 174 503 outlet~;
#X obj 50 49 route level;
#X obj 50 420 / 127;
#X obj 124 76 list split 1;
#N canvas 735 337 575 411 set-table 0;
#X obj 267 95 expr $f1 * 8 + \$1;
#X obj 218 208 array size;
#X obj 299 199 tabread sample-rates, f 12;
#X msg 185 151 symbol smp\$1;
#X obj 267 120 t f f;
#X msg 185 260 table \$1 \$2 \$3;
#X msg 104 245 table \$1;
#X obj 185 178 t s b s;
#X obj 185 234 pack s f f;
#X obj 104 270 outlet;
#X obj 185 285 outlet;
#X obj 267 42 inlet;
#X obj 267 70 change -1;
#X connect 0 0 4 0;
#X connect 1 0 8 1;
#X connect 2 0 8 2;
#X connect 3 0 7 0;
#X connect 4 0 3 0;
#X connect 4 1 2 0;
#X connect 5 0 10 0;
#X connect 6 0 9 0;
#X connect 7 0 8 0;
#X connect 7 0 6 0;
#X connect 7 1 1 0;
#X connect 7 2 1 1;
#X connect 8 0 5 0;
#X connect 11 0 12 0;
#X connect 12 0 0 0;
#X restore 164 104 pd set-table;
#X obj 279 460 route pos isPlaying;
#X obj 279 503 outlet;
#X msg 274 384 play 0;
#X obj 104 313 inlet~;
#X obj 124 131 list trim;
#X obj 124 273 route record play stop delete;
#X obj 191 382 v is-rec\$0;
#X obj 124 157 t a b, f 6;
#X obj 163 184 v is-rec\$0;
#X obj 163 209 sel 1;
#X msg 163 234 record;
#X msg 174 299 play 1;
#X obj 71 347 inlet;
#X connect 0 0 5 0;
#X connect 1 0 2 0;
#X connect 1 1 15 0;
#X connect 2 0 3 0;
#X connect 2 1 9 0;
#X connect 3 0 4 0;
#X connect 5 0 6 0;
#X connect 5 1 7 0;
#X connect 6 0 3 1;
#X connect 7 0 13 0;
#X connect 7 1 8 0;
#X connect 8 0 1 0;
#X connect 8 1 2 0;
#X connect 9 0 10 0;
#X connect 11 0 2 0;
#X connect 12 0 1 0;
#X connect 13 0 16 0;
#X connect 14 0 1 0;
#X connect 14 0 11 0;
#X connect 14 1 20 0;
#X connect 14 2 11 0;
#X connect 14 3 11 0;
#X connect 16 0 14 0;
#X connect 16 1 17 0;
#X connect 17 0 18 0;
#X connect 18 0 19 0;
#X connect 19 0 14 0;
#X connect 20 0 2 0;
#X connect 21 0 2 0;
