#N canvas 232 178 450 300 12;
#X obj 167 32 inlet;
#X msg 125 77 8;
#X obj 125 102 until;
#X obj 167 57 t b l;
#X text 207 29 line \, light;
#X obj 125 203 s grid-light;
#X obj 125 127 count 8;
#X obj 125 152 list append;
#X msg 125 177 \$2 \$1 \$3;
#X connect 0 0 3 0;
#X connect 1 0 2 0;
#X connect 2 0 6 0;
#X connect 3 0 1 0;
#X connect 3 1 7 1;
#X connect 6 0 7 0;
#X connect 7 0 8 0;
#X connect 8 0 5 0;
