#N canvas 567 149 423 288 12;
#X obj 24 178 *~;
#X obj 24 203 outlet~;
#X obj 24 21 inlet~ fwd;
#X obj 118 18 broadcast \$0;
#X obj 318 108 r \$0ratio;
#X obj 153 204 dbtorms;
#X obj 235 17 inlet~;
#X obj 344 139 loadbang;
#X msg 344 164 1;
#X obj 153 148 expr (($f1 - (100-$f2)) / $f3) - $f1 + (100-$f2) + 100
, f 24;
#X obj 235 120 *;
#X obj 253 68 r \$0strength;
#X obj 253 94 dbtorms;
#X obj 24 63 feed-forward~;
#X obj 153 59 env~;
#X obj 42 151 lop~ 20;
#X obj 235 42 env~ 2048;
#X connect 0 0 1 0;
#X connect 2 0 13 0;
#X connect 2 0 14 0;
#X connect 2 1 3 0;
#X connect 4 0 9 2;
#X connect 5 0 15 0;
#X connect 6 0 16 0;
#X connect 7 0 8 0;
#X connect 8 0 9 2;
#X connect 9 0 5 0;
#X connect 10 0 9 1;
#X connect 11 0 12 0;
#X connect 12 0 10 1;
#X connect 13 0 0 0;
#X connect 14 0 9 0;
#X connect 15 0 0 1;
#X connect 16 0 10 0;
