#N canvas 747 123 426 638 12;
#X obj 124 439 *~;
#X obj 124 125 mtof;
#X obj 237 150 / 127;
#X obj 173 495 rev3~ 94 94 6000 30;
#X obj 124 397 else/lowpass~ 1600 1.2;
#X obj 172 527 modulation-block;
#X obj 134 216 mtof;
#X obj 145 296 mtof;
#X obj 83 73 monophonic;
#X obj 124 356 else/lowpass~ 1200 1;
#X obj 145 321 else/bl.square~;
#X obj 172 442 delay-block;
#X floatatom 302 341 5 0 0 0 - - - 0;
#X obj 302 365 mtof;
#X obj 134 241 else/bl.square~;
#X obj 124 151 else/bl.saw~;
#X obj 134 191 + 0.1;
#X obj 145 271 + 0.18;
#X obj 237 175 EG~ 0 200 0.1 180;
#X obj 90 45 inlet;
#X obj 124 575 outlet~;
#X connect 0 0 11 0;
#X connect 0 0 20 0;
#X connect 1 0 15 0;
#X connect 2 0 18 0;
#X connect 3 0 5 0;
#X connect 4 0 0 0;
#X connect 5 0 20 0;
#X connect 6 0 14 0;
#X connect 7 0 10 0;
#X connect 8 0 1 0;
#X connect 8 0 16 0;
#X connect 8 0 17 0;
#X connect 8 1 2 0;
#X connect 9 0 4 0;
#X connect 10 0 9 0;
#X connect 11 0 3 0;
#X connect 11 0 20 0;
#X connect 12 0 13 0;
#X connect 13 0 4 1;
#X connect 13 0 9 1;
#X connect 15 0 9 0;
#X connect 16 0 6 0;
#X connect 17 0 7 0;
#X connect 18 0 0 1;
#X connect 19 0 8 0;
