#N canvas 672 47 627 617 12;
#X obj 63 87 inlet;
#X obj 22 355 timer;
#X obj 63 112 route bang float;
#X obj 63 143 tgl 20 0 empty empty empty 0 -10 0 12 #fcfcfc #000000 #000000 0 1;
#X obj 117 224 spigot;
#X obj 22 400 tabwrite timer\$0;
#X obj 86 372 tabwrite velocity\$0;
#X msg 74 269 0;
#X obj 374 93 inlet;
#X obj 374 143 tgl 20 0 empty empty empty 0 -10 0 12 #fcfcfc #000000 #000000 0 1;
#X text 34 18 1st inlet: bang start/stop rec \, floats are velocities to be recorded \; 2nd outlet: bang start/stop play \, clear reset table \;, f 53;
#X msg 86 322 -1;
#X obj 54 322 b;
#X obj 374 173 sel 1 0;
#X obj 351 337 tabread timer\$0;
#X obj 351 432 t b f;
#X obj 351 457 delay;
#X obj 351 483 v play\$0;
#X obj 351 509 tabread velocity\$0;
#X obj 351 540 sel -1;
#X obj 390 569 outlet;
#X obj 351 309 v play\$0;
#X msg 438 405 stop;
#X obj 255 427 + 1;
#X obj 351 364 t f f;
#X obj 351 403 -;
#X msg 351 242 0;
#X obj 255 399 v play\$0;
#X obj 255 371 b;
#X msg 470 163 const 0;
#X obj 470 188 s timer\$0;
#X obj 453 213 s velocity\$0;
#X obj 22 220 sel 0 1;
#X obj 177 340 f;
#X obj 215 340 + 1;
#X obj 117 269 t b b f;
#X obj 374 118 route bang clear;
#X msg 428 144 0;
#X msg 191 163 rec \$1;
#X obj 227 193 s notify\$0;
#X obj 485 569 outlet;
#X obj 485 544 r notify\$0;
#X msg 254 163 play \$1;
#X msg 397 383 0;
#X msg 239 98 0;
#X obj 425 18 table timer\$0 20;
#X obj 425 43 table velocity\$0 20;
#X obj 22 270 t b b;
#X obj 63 172 change;
#X msg 240 131 0;
#X obj 351 212 t b b;
#X obj 351 279 t b f;
#X obj 500 401 t b b;
#X connect 0 0 2 0;
#X connect 1 0 5 0;
#X connect 2 0 3 0;
#X connect 2 1 4 0;
#X connect 3 0 38 0;
#X connect 3 0 48 0;
#X connect 4 0 35 0;
#X connect 7 0 33 0;
#X connect 8 0 36 0;
#X connect 9 0 13 0;
#X connect 9 0 42 0;
#X connect 11 0 6 0;
#X connect 12 0 1 1;
#X connect 13 0 50 0;
#X connect 13 1 22 0;
#X connect 14 0 24 0;
#X connect 15 0 16 0;
#X connect 15 1 16 1;
#X connect 16 0 17 0;
#X connect 17 0 18 0;
#X connect 18 0 19 0;
#X connect 19 0 52 0;
#X connect 19 1 20 0;
#X connect 19 1 28 0;
#X connect 21 0 14 0;
#X connect 22 0 16 0;
#X connect 23 0 51 0;
#X connect 24 0 25 1;
#X connect 24 1 25 0;
#X connect 25 0 15 0;
#X connect 26 0 51 0;
#X connect 27 0 23 0;
#X connect 28 0 27 0;
#X connect 29 0 30 0;
#X connect 29 0 31 0;
#X connect 32 0 47 0;
#X connect 32 1 1 0;
#X connect 32 1 7 0;
#X connect 32 1 44 0;
#X connect 33 0 34 0;
#X connect 33 0 6 1;
#X connect 33 0 5 1;
#X connect 34 0 33 1;
#X connect 35 0 33 0;
#X connect 35 1 12 0;
#X connect 35 2 6 0;
#X connect 36 0 9 0;
#X connect 36 1 37 0;
#X connect 36 1 29 0;
#X connect 37 0 9 0;
#X connect 38 0 39 0;
#X connect 41 0 40 0;
#X connect 42 0 39 0;
#X connect 43 0 25 1;
#X connect 44 0 9 0;
#X connect 47 0 12 0;
#X connect 47 1 11 0;
#X connect 48 0 32 0;
#X connect 48 0 4 1;
#X connect 49 0 3 0;
#X connect 50 0 26 0;
#X connect 50 1 49 0;
#X connect 50 1 43 0;
#X connect 51 0 21 0;
#X connect 51 1 21 0;
#X connect 52 0 26 0;
#X connect 52 1 43 0;
