#N canvas 473 178 469 282 12;
#X obj 23 15 inlet;
#X obj 294 240 table \$0resamp 512;
#X obj 23 66 else/iterate;
#X obj 106 136 + 1;
#X obj 23 141 sel 0, f 6;
#X obj 23 91 t b f;
#X obj 23 193 f, f 5;
#X obj 146 42 list length;
#X obj 146 67 / 512;
#X obj 146 92 + 0.5;
#X obj 146 117 i;
#X floatatom 146 142 5 0 0 0 - - -;
#X obj 106 161 mod;
#X obj 23 238 tabwrite \$0resamp;
#X obj 79 186 f;
#X obj 23 166 t b b, f 6;
#X obj 23 116 f;
#X obj 23 40 t l l;
#X msg 97 96 0;
#X obj 115 186 + 1;
#X obj 162 187 sel 511;
#X obj 162 212 array get \$0resamp;
#X obj 162 237 outlet;
#X obj 79 212 t f f;
#X obj 236 37 loadbang;
#X obj 236 62 \$1;
#X obj 236 87 moses 1;
#X obj 282 137 array size \$0resamp;
#X obj 208 162 - 1;
#X connect 0 0 17 0;
#X connect 2 0 5 0;
#X connect 3 0 12 0;
#X connect 4 0 15 0;
#X connect 5 0 16 0;
#X connect 5 1 6 1;
#X connect 6 0 13 0;
#X connect 7 0 8 0;
#X connect 8 0 9 0;
#X connect 9 0 10 0;
#X connect 10 0 11 0;
#X connect 11 0 12 1;
#X connect 12 0 16 1;
#X connect 14 0 19 0;
#X connect 14 0 23 0;
#X connect 15 0 6 0;
#X connect 15 1 14 0;
#X connect 16 0 3 0;
#X connect 16 0 4 0;
#X connect 17 0 2 0;
#X connect 17 1 7 0;
#X connect 17 1 18 0;
#X connect 18 0 16 1;
#X connect 18 0 14 1;
#X connect 19 0 14 1;
#X connect 20 0 21 0;
#X connect 21 0 22 0;
#X connect 23 0 20 0;
#X connect 23 1 13 1;
#X connect 24 0 25 0;
#X connect 25 0 26 0;
#X connect 26 1 27 0;
#X connect 26 1 28 0;
#X connect 26 1 8 1;
#X connect 28 0 20 1;
