#N canvas 595 184 519 441 12;
#X obj 121 22 inlet;
#X obj 74 169 + \$1;
#X obj 121 48 route rec play stop;
#X msg 74 195 table smp\$1;
#X obj 59 374 outlet;
#X obj 354 369 outlet;
#X obj 37 110 t b f;
#X obj 74 144 * 8;
#X obj 164 103 + \$1;
#X obj 164 78 * 8;
#X msg 397 243 play 0;
#X obj 235 209 array size;
#X msg 316 175 symbol smp\$1;
#X obj 235 260 list prepend;
#X obj 235 285 list prepend table;
#X obj 235 310 list trim;
#X msg 235 234 \$1 48000;
#X msg 164 291 play 1 \, loop 1, f 7;
#X obj 164 128 t b b f b;
#X text 225 17 receives track data from grid-reducer \;;
#X msg 24 194 rec 1;
#X msg 178 378 rec 0;
#X connect 0 0 2 0;
#X connect 1 0 3 0;
#X connect 2 0 6 0;
#X connect 2 1 9 0;
#X connect 2 2 10 0;
#X connect 2 2 21 0;
#X connect 3 0 4 0;
#X connect 6 0 20 0;
#X connect 6 1 7 0;
#X connect 7 0 1 0;
#X connect 8 0 18 0;
#X connect 9 0 8 0;
#X connect 10 0 5 0;
#X connect 11 0 16 0;
#X connect 12 0 11 1;
#X connect 12 0 13 1;
#X connect 13 0 14 0;
#X connect 14 0 15 0;
#X connect 15 0 5 0;
#X connect 16 0 13 0;
#X connect 17 0 5 0;
#X connect 18 0 17 0;
#X connect 18 1 11 0;
#X connect 18 2 12 0;
#X connect 18 3 21 0;
#X connect 20 0 4 0;
#X connect 21 0 4 0;
