#N canvas 416 165 572 404 12;
#X obj 26 147 inlet~;
#X obj 26 294 *~;
#X obj 26 319 outlet~;
#X obj 189 22 inlet;
#X msg 222 233 min \$1;
#X obj 316 221 sel 0 1;
#X msg 316 247 symbol tri;
#X msg 339 275 symbol square;
#X floatatom 222 204 5 0 0 0 - - - 0;
#X floatatom 148 206 5 0 0 0 - - - 0;
#X obj 316 194 hradio 20 1 0 2 empty empty empty 0 -10 0 12 #fcfcfc #000000 #000000 0;
#X msg 316 301 wave \$1;
#X obj 84 59 r tempo;
#X obj 84 95 mul 1;
#X floatatom 189 76 5 0 0 0 - - - 0;
#X obj 84 123 ms2hz;
#X msg 137 95 1 \$1;
#X obj 137 123 /;
#X obj 148 233 modulate~;
#X msg 403 106 gain \$1;
#X obj 208 159 env-follower~ 0 2 0 2;
#X floatatom 403 80 5 0 0 0 - - - 0;
#X obj 189 47 route tempo-ratio rate intensity wave env env-growth;
#X floatatom 474 82 5 0 0 0 - - - 0;
#X msg 474 106 ceil \$1;
#X obj 148 267 lfo~ square 0 0 5 db, f 11;
#X connect 0 0 1 0;
#X connect 0 0 20 0;
#X connect 1 0 2 0;
#X connect 3 0 22 0;
#X connect 4 0 25 2;
#X connect 5 0 6 0;
#X connect 5 1 7 0;
#X connect 6 0 11 0;
#X connect 7 0 11 0;
#X connect 8 0 4 0;
#X connect 9 0 18 0;
#X connect 10 0 5 0;
#X connect 11 0 25 2;
#X connect 12 0 13 0;
#X connect 13 0 15 0;
#X connect 14 0 16 0;
#X connect 15 0 9 0;
#X connect 16 0 17 0;
#X connect 17 0 13 1;
#X connect 18 0 25 0;
#X connect 19 0 20 0;
#X connect 20 0 18 1;
#X connect 21 0 19 0;
#X connect 22 0 14 0;
#X connect 22 1 9 0;
#X connect 22 2 8 0;
#X connect 22 3 10 0;
#X connect 22 4 21 0;
#X connect 22 5 23 0;
#X connect 23 0 24 0;
#X connect 24 0 20 0;
#X connect 25 0 1 1;
