#N canvas 211 159 450 300 12;
#X obj 173 43 loadbang;
#X obj 84 112 \$0;
#X msg 84 137 seed \$1;
#X obj 84 189 / 1000;
#X obj 84 214 pow;
#X obj 84 239 *;
#X obj 84 264 outlet;
#X obj 84 164 random 1000;
#X obj 221 74 \$1;
#X obj 173 169 \$2;
#X obj 253 219 max 1;
#X obj 173 194 max 1;
#X obj 31 91 inlet;
#X obj 221 99 t f f;
#X obj 158 134 spigot;
#X obj 222 134 > 1000;
#X text 50 17 unique seed \, weighted float random generator;
#X connect 0 0 1 0;
#X connect 0 0 8 0;
#X connect 0 0 9 0;
#X connect 1 0 2 0;
#X connect 2 0 7 0;
#X connect 3 0 4 0;
#X connect 4 0 5 0;
#X connect 5 0 6 0;
#X connect 7 0 3 0;
#X connect 8 0 13 0;
#X connect 9 0 11 0;
#X connect 10 0 5 1;
#X connect 11 0 4 1;
#X connect 12 0 7 0;
#X connect 13 0 14 0;
#X connect 13 1 10 0;
#X connect 13 1 15 0;
#X connect 14 0 7 1;
#X connect 14 0 3 1;
#X connect 15 0 14 1;
