#N canvas 211 159 450 364 12;
#X obj 188 56 loadbang;
#X obj 138 106 \$0;
#X msg 138 131 seed \$1;
#X obj 95 192 / 1000;
#X obj 178 314 outlet;
#X obj 95 167 random 1000;
#X obj 95 106 inlet;
#X text 50 17 unique seed \, weighted float random generator;
#X msg 234 96 args;
#X obj 234 121 pdcontrol;
#X obj 234 146 route float list;
#X obj 178 287 +;
#X obj 178 234 pow 1;
#X obj 178 261 * 1;
#X obj 288 175 unpack f f f;
#X obj 288 216 swap;
#X obj 288 241 -, f 4;
#X obj 328 99 inlet;
#X connect 0 0 1 0;
#X connect 0 0 8 0;
#X connect 1 0 2 0;
#X connect 2 0 5 0;
#X connect 3 0 12 0;
#X connect 5 0 3 0;
#X connect 6 0 5 0;
#X connect 8 0 9 0;
#X connect 9 0 10 0;
#X connect 10 0 13 1;
#X connect 10 1 14 0;
#X connect 11 0 4 0;
#X connect 12 0 13 0;
#X connect 13 0 11 0;
#X connect 14 0 11 1;
#X connect 14 0 15 0;
#X connect 14 1 15 1;
#X connect 14 2 12 1;
#X connect 15 0 16 0;
#X connect 15 1 16 1;
#X connect 16 0 13 1;
#X connect 17 0 10 0;
