#N canvas 665 318 449 351 12;
#X obj 14 196 inlet~;
#X obj 14 246 outlet~;
#X msg 146 77 vis 1;
#X obj 135 181 r \$0params;
#X obj 300 181 r \$0preseter;
#X obj 135 299 s \$0set-panel;
#N canvas 273 273 319 269 \$0delay 0;
#N canvas 1020 318 490 496 (subpatch) 0;
#X obj 11 81 cnv 15 280 230 empty \$0delpanel .::Delay::. 0 10 0 17 #e0e0e0 #404040 0;
#X obj 24 123 components/slider dry volume;
#X obj 147 123 components/slider time time;
#X obj 86 123 components/slider level volume;
#X obj 210 123 components/slider feedback volume;
#X obj 15 158 cnv 15 196 68 empty empty modulation 4 8 0 12 #bbbbbb #404040 0;
#X obj 85 186 components/slider int generic 10;
#X obj 148 186 components/slider wave generic 1;
#X obj 15 231 cnv 15 130 68 empty empty filters 4 8 0 12 #bbbbbb #404040 0;
#X obj 22 186 components/slider rate rate;
#X obj 21 260 components/slider lowpass f-sweep;
#X obj 83 260 components/slider highpass f-sweep;
#X obj 155 231 cnv 15 130 68 empty empty pitch 4 8 0 12 #bbbbbb #404040 0;
#X obj 161 263 components/slider pitch tone;
#X obj 222 263 components/slider magic volume;
#X msg 23 326 dry \$1;
#X msg 77 326 level \$1;
#X msg 147 326 time \$1;
#X msg 210 326 feedback \$1;
#X msg 23 361 modRate \$1;
#X msg 111 361 modInt \$1;
#X msg 197 398 pitch \$1;
#X msg 268 398 magic \$1;
#X msg 204 361 waveform \$1;
#X obj 140 84 cnv 15 80 15 empty \$0pname slapback-del 4 8 0 12 #404040 #feffc6 0;
#X obj 225 84 bng 15 250 50 0 empty empty empty 17 7 0 10 #fcfcfc #000000 #000000;
#X obj 241 84 bng 15 250 50 0 empty empty empty 17 7 0 10 #fcfcfc #000000 #000000;
#X obj 257 84 bng 15 250 50 0 empty empty empty 17 7 0 10 #fcfcfc #000000 #000000;
#X obj 273 84 bng 15 250 50 0 empty empty empty 17 7 0 10 #fcfcfc #000000 #000000;
#X obj 225 84 cnv 15 63 15 empty empty save\ load 5 8 0 12 #202020 #feffc6 0;
#X msg 317 126 save;
#X msg 364 126 load;
#X obj 81 453 s \$0params;
#X obj 338 160 s \$0preseter;
#X obj 8 7 r \$0set-panel;
#X obj 323 271 edit-cnv \$0delpanel;
#X obj 324 215 s \$0tempo-ratio;
#X obj 233 173 nbx 3 15 0 128 0 0 empty empty tempo\ ratio -13 -8 0 10 #fcfcfc #000000 #000000 0 256;
#X obj 243 208 tgl 15 0 empty empty reverse -12 -8 0 10 #fcfcfc #000000 #000000 0 1;
#X msg 300 361 reverse \$1;
#X obj 8 32 route dry level time feedback modRate modInt waveform lowpass highpass pitch magic reverse, f 45;
#X msg 23 398 lp \$1;
#X msg 105 398 hp \$1;
#X connect 1 0 15 0;
#X connect 2 0 17 0;
#X connect 3 0 16 0;
#X connect 4 0 18 0;
#X connect 6 0 20 0;
#X connect 7 0 23 0;
#X connect 9 0 19 0;
#X connect 10 0 41 0;
#X connect 11 0 42 0;
#X connect 13 0 21 0;
#X connect 14 0 22 0;
#X connect 15 0 32 0;
#X connect 16 0 32 0;
#X connect 17 0 32 0;
#X connect 18 0 32 0;
#X connect 19 0 32 0;
#X connect 20 0 32 0;
#X connect 21 0 32 0;
#X connect 22 0 32 0;
#X connect 23 0 32 0;
#X connect 25 0 30 0;
#X connect 26 0 30 0;
#X connect 27 0 31 0;
#X connect 28 0 31 0;
#X connect 30 0 33 0;
#X connect 31 0 33 0;
#X connect 34 0 40 0;
#X connect 37 0 36 0;
#X connect 38 0 39 0;
#X connect 39 0 32 0;
#X connect 40 0 1 0;
#X connect 40 1 3 0;
#X connect 40 2 2 0;
#X connect 40 3 4 0;
#X connect 40 4 9 0;
#X connect 40 5 6 0;
#X connect 40 6 7 0;
#X connect 40 7 10 0;
#X connect 40 8 11 0;
#X connect 40 9 13 0;
#X connect 40 10 14 0;
#X connect 40 11 38 0;
#X connect 41 0 32 0;
#X connect 42 0 32 0;
#X coords 0 1 100 -1 282 232 1 10 80;
#X restore 13 10 graph;
#X restore 290 94 pd \$0delay;
#X obj 146 102 s pd-\$0delay;
#N canvas 458 221 450 300 set-name 0;
#X obj 37 37 inlet;
#X obj 37 62 trim-symbol 10;
#X msg 37 87 label \$1;
#X obj 37 112 s \$0ctrl;
#X msg 157 87 label \$1;
#X obj 157 112 s \$0pname;
#X obj 157 62 trim-symbol 12;
#X connect 0 0 1 0;
#X connect 0 0 6 0;
#X connect 1 0 2 0;
#X connect 2 0 3 0;
#X connect 4 0 5 0;
#X connect 6 0 4 0;
#X restore 300 300 pd set-name;
#N canvas 458 221 450 300 tempo-ratio 0;
#X obj 89 70 r tempo;
#X obj 189 23 r \$0tempo-ratio;
#X obj 142 146 /;
#X obj 142 225 outlet;
#X msg 142 198 time \$1;
#X obj 142 172 spigot;
#X obj 153 115 t b f;
#X obj 221 86 > 0;
#X obj 189 48 t f f;
#X obj 157 85 moses 1;
#X connect 0 0 2 0;
#X connect 1 0 8 0;
#X connect 2 0 5 0;
#X connect 4 0 3 0;
#X connect 5 0 4 0;
#X connect 6 0 2 0;
#X connect 6 1 2 1;
#X connect 7 0 5 1;
#X connect 8 0 9 0;
#X connect 8 1 7 0;
#X connect 9 1 6 0;
#X restore 112 155 pd tempo-ratio;
#X obj 146 48 else/click;
#X obj 135 207 macros/preset dry level time feedback modInt modRate waveform reverse lowpass highpass pitch magic, f 24;
#A saved ;
#X obj 14 221 macros/delay~;
#X connect 0 0 12 0;
#X connect 2 0 7 0;
#X connect 3 0 11 0;
#X connect 3 0 12 0;
#X connect 4 0 11 1;
#X connect 9 0 5 0;
#X connect 9 0 11 0;
#X connect 9 0 12 0;
#X connect 10 0 2 0;
#X connect 11 0 5 0;
#X connect 11 0 12 0;
#X connect 11 1 8 0;
#X connect 12 0 1 0;
#X coords 0 351 1 350 160 20 0;
