#N canvas 660 138 398 290 12;
#X obj 24 86 inlet~;
#X obj 24 111 delay~;
#X obj 24 136 outlet~;
#X msg 127 50 vis 1;
#X obj 152 22 bng 16 250 50 0 empty empty empty 17 7 0 10 #fcfcfc #000000
#000000;
#X obj 135 22 bng 16 250 50 0 empty empty empty 17 7 0 10 #fcfcfc #000000
#000000;
#X obj 118 22 bng 16 250 50 0 empty empty empty 17 7 0 10 #fcfcfc #000000
#000000;
#X obj 101 22 bng 16 250 50 0 empty empty empty 17 7 0 10 #fcfcfc #000000
#000000;
#X obj 101 21 cnv 15 68 18 empty \$0ctrl big-fifth 4 10 0 10 #e0e0e0
#404040 0;
#X msg 280 209 label \$1;
#X obj 280 236 s \$0ctrl;
#X obj 115 111 r \$0params;
#X obj 280 111 r \$0preseter;
#X obj 115 209 s \$0set-panel;
#N canvas 457 266 315 258 \$0delay 1;
#N canvas 615 135 357 496 (subpatch) 1;
#X obj 11 81 cnv 15 280 230 empty \$0delpanel .::Delay::. 0 10 0 17
#e0e0e0 #404040 0;
#X obj 24 123 components/slider dry volume;
#X obj 147 123 components/slider time time;
#X obj 86 123 components/slider level volume;
#X obj 210 123 components/slider feedback volume;
#X obj 45 158 cnv 15 196 68 empty empty modulation 4 8 0 12 #bbbbbb
#404040 0;
#X obj 115 186 components/slider int generic 10;
#X obj 178 186 components/slider wave generic 1;
#X obj 15 231 cnv 15 130 68 empty empty filters 4 8 0 12 #bbbbbb #404040
0;
#X obj 52 186 components/slider rate rate;
#X obj 21 260 components/slider lowpass f-sweep;
#X obj 83 260 components/slider highpass f-sweep;
#X obj 155 231 cnv 15 130 68 empty empty pitch 4 8 0 12 #bbbbbb #404040
0;
#X obj 161 263 components/slider pitch tone;
#X obj 222 263 components/slider magic volume;
#X msg 23 326 dry \$1;
#X msg 77 326 level \$1;
#X msg 147 326 time \$1;
#X msg 210 326 feedback \$1;
#X msg 23 361 modRate \$1;
#X msg 111 361 modInt \$1;
#X msg 23 398 lowpass \$1;
#X msg 105 398 highpass \$1;
#X msg 197 398 pitch \$1;
#X msg 268 398 magic \$1;
#X msg 204 361 waveform \$1;
#X obj 140 84 cnv 15 80 15 empty \$0ctrl big-fifth 2 7 0 10 #404040
#feffc6 0;
#X obj 225 84 bng 15 250 50 0 empty empty empty 17 7 0 10 #fcfcfc #000000
#000000;
#X obj 241 84 bng 15 250 50 0 empty empty empty 17 7 0 10 #fcfcfc #000000
#000000;
#X obj 257 84 bng 15 250 50 0 empty empty empty 17 7 0 10 #fcfcfc #000000
#000000;
#X obj 273 84 bng 15 250 50 0 empty empty empty 17 7 0 10 #fcfcfc #000000
#000000;
#X obj 225 84 cnv 15 63 15 empty empty save\\\ load 5 8 0 10 #202020
#feffc6 0;
#X msg 309 182 save;
#X msg 310 131 load;
#X obj 81 453 s \$0params;
#X obj 225 453 s \$0preseter;
#X obj 8 7 r \$0set-panel;
#X obj 8 32 route dry level time feedback modRate modInt wave lowpass
highpass pitch magic, f 40;
#X connect 1 0 15 0;
#X connect 2 0 17 0;
#X connect 3 0 16 0;
#X connect 4 0 18 0;
#X connect 6 0 20 0;
#X connect 7 0 25 0;
#X connect 9 0 19 0;
#X connect 10 0 21 0;
#X connect 11 0 22 0;
#X connect 13 0 23 0;
#X connect 14 0 24 0;
#X connect 15 0 34 0;
#X connect 16 0 34 0;
#X connect 17 0 34 0;
#X connect 18 0 34 0;
#X connect 19 0 34 0;
#X connect 20 0 34 0;
#X connect 21 0 34 0;
#X connect 22 0 34 0;
#X connect 23 0 34 0;
#X connect 24 0 34 0;
#X connect 25 0 34 0;
#X connect 27 0 32 0;
#X connect 28 0 32 0;
#X connect 29 0 33 0;
#X connect 30 0 33 0;
#X connect 32 0 35 0;
#X connect 33 0 35 0;
#X connect 36 0 37 0;
#X connect 37 0 1 0;
#X connect 37 1 3 0;
#X connect 37 2 2 0;
#X connect 37 3 4 0;
#X connect 37 4 9 0;
#X connect 37 5 6 0;
#X connect 37 6 7 0;
#X connect 37 7 10 0;
#X connect 37 8 11 0;
#X connect 37 9 13 0;
#X connect 37 10 14 0;
#X coords 0 1 100 -1 282 232 1 10 80;
#X restore 7 7 graph;
#X restore 270 44 pd \$0delay;
#X obj 127 75 s pd-\$0delay;
#X obj 115 137 preset dry level time feedback modInt modRate waveform
reverse lowpass highpass pitch magic, f 24;
#A saved /home/me/Pd/core-lib/presets/big-fifth;
#X connect 0 0 1 0;
#X connect 1 0 2 0;
#X connect 3 0 15 0;
#X connect 4 0 3 0;
#X connect 5 0 3 0;
#X connect 6 0 3 0;
#X connect 7 0 3 0;
#X connect 9 0 10 0;
#X connect 11 0 16 0;
#X connect 11 0 1 0;
#X connect 12 0 16 1;
#X connect 16 0 1 0;
#X connect 16 0 13 0;
#X connect 16 1 9 0;
#X coords 0 -1 1 1 150 20 1 20 20;
