#N canvas 196 178 414 272 12;
#X obj 22 112 inlet~;
#X obj 22 137 fuzz~;
#X obj 22 162 overdrive~;
#X obj 22 187 else/crusher~;
#X obj 22 242 outlet~;
#X obj 22 215 LP~;
#X obj 84 102 route fuzz drive crush downsamp filter, f 21;
#X obj 171 218 inlet~;
#X obj 105 21 bng 18 250 50 0 empty empty empty 17 7 0 10 #fcfcfc #000000
#000000;
#X obj 101 21 cnv 15 22 18 empty empty chg 2 10 0 10 #e0e0e0 #404040
0;
#X msg 105 45 vis 1;
#X obj 105 70 s pd-\$0drive;
#N canvas 790 192 291 183 \$0drive 1;
#N canvas 670 192 441 404 (subpatch) 0;
#X obj 11 81 cnv 15 256 152 empty \$0panel .::Drive-Degrade::. 0 11
0 19 #e0e0e0 #404040 0;
#X obj 78 119 components/slider fuzz generic 1;
#X obj 17 119 components/slider drive generic 80;
#X obj 140 119 components/slider bitcrush generic 1;
#X obj 202 119 components/slider downsamp generic 1;
#X obj 41 158 cnv 15 196 68 empty empty filter 4 8 0 12 #bbbbbb #404040
0;
#X obj 175 191 components/slider 2p-4p generic 1;
#X obj 49 189 components/slider cutoff f-sweep;
#X obj 110 189 components/slider Q generic 4;
#X msg 17 240 drive/gain \$1;
#X msg 21 281 filter/cutoff \$1;
#X msg 153 276 filter/q \$1;
#X msg 250 278 filter/poles \$1;
#X msg 126 244 fuzz \$1;
#X msg 185 243 crush \$1;
#X msg 255 242 downsamp \$1;
#X obj 177 332 s \$0params;
#X connect 1 0 13 0;
#X connect 2 0 9 0;
#X connect 3 0 14 0;
#X connect 4 0 15 0;
#X connect 6 0 12 0;
#X connect 7 0 10 0;
#X connect 8 0 11 0;
#X connect 9 0 16 0;
#X connect 10 0 16 0;
#X connect 11 0 16 0;
#X connect 12 0 16 0;
#X connect 13 0 16 0;
#X connect 14 0 16 0;
#X connect 15 0 16 0;
#X coords 0 1 100 -1 258 154 1 10 80;
#X restore 16 14 graph;
#X restore 225 28 pd \$0drive;
#X obj 260 78 r \$0params;
#X obj 260 103 parse-uri;
#X connect 0 0 1 0;
#X connect 1 0 2 0;
#X connect 2 0 3 0;
#X connect 3 0 5 0;
#X connect 5 0 4 0;
#X connect 6 0 1 1;
#X connect 6 1 2 0;
#X connect 6 2 3 1;
#X connect 6 3 3 2;
#X connect 6 4 5 0;
#X connect 7 0 5 1;
#X connect 8 0 10 0;
#X connect 10 0 11 0;
#X connect 13 0 14 0;
#X connect 14 0 6 0;
#X coords 0 -1 1 1 104 20 1 20 20;
