#N canvas 173 133 340 228 12;
#X obj 40 124 inlet~;
#X obj 40 149 env-follower~;
#X obj 40 174 outlet~;
#X msg 121 44 vis 1;
#X obj 121 69 s pd-\$0env;
#N canvas 458 221 315 152 \$0env 1;
#N canvas 245 331 450 288 (subpatch) 0;
#X obj 118 249 s \$0params;
#X msg 14 210 gain \$1;
#X msg 81 210 decay \$1;
#X msg 160 210 floor \$1;
#X msg 234 210 ceil \$1;
#X obj 278 101 edit-cnv \$0p;
#A saved 180 80;
#X obj 21 61 cnv 15 180 80 empty \$0p .::Envelope-Filter::. 0 7 0 17 #e0e0e0 #404040 0;
#X obj 25 91 components/slider gain generic 100;
#X obj 86 91 components/slider decay generic 10;
#X obj 145 120 nbx 3 15 -1e+37 1e+37 0 0 empty empty floor 0 -6 0 16 #fcfcfc #000000 #000000 0 256;
#X obj 145 91 nbx 3 15 -1e+37 1e+37 0 0 empty empty ceil 0 -6 0 16 #fcfcfc #000000 #000000 0 256;
#X connect 1 0 0 0;
#X connect 2 0 0 0;
#X connect 3 0 0 0;
#X connect 4 0 0 0;
#X connect 7 0 1 0;
#X connect 8 0 2 0;
#X connect 9 0 3 0;
#X connect 10 0 4 0;
#X coords 0 1 100 -1 182 82 1 20 60;
#X restore 69 38 graph;
#X text 46 16 decay-factor = signal power of...;
#X restore 209 39 pd \$0env;
#X obj 150 124 r \$0params;
#X obj 121 18 else/click;
#X connect 0 0 1 0;
#X connect 1 0 2 0;
#X connect 3 0 4 0;
#X connect 6 0 1 0;
#X connect 7 0 3 0;
#X coords 0 228 1 227 120 20 0;
