#N canvas 458 221 319 201 12;
#X obj 31 137 lfo~;
#X obj 31 162 outlet~;
#N canvas 458 221 322 202 \$0lfo 1;
#N canvas 859 204 399 250 (subpatch) 1;
#X obj 21 61 cnv 15 155 135 empty \$0panel .::LFO::. 0 11 0 19 #e0e0e0 #404040 0;
#X obj 60 175 hradio 15 1 0 5 empty empty sin|tri|sqr|rmp|saw -15 -8 0 15 #fcfcfc #000000 #000000 0;
#X obj 30 97 components/slider rate rate;
#X obj 30 142 nbx 3 15 -1e+37 1e+37 0 0 empty empty min 0 -6 0 10 #fcfcfc #000000 #000000 0 256;
#X obj 70 142 nbx 3 15 -1e+37 1e+37 0 0 empty empty max 0 -6 0 10 #fcfcfc #000000 #000000 0 256;
#X obj 262 12 edit-cnv \$0panel;
#A saved 155 135;
#X msg 256 98 min \$1;
#X msg 256 123 max \$1;
#X msg 256 148 wave \$1;
#X msg 256 173 rate \$1;
#X obj 302 205 s \$0params;
#X obj 153 79 vradio 15 1 0 3 empty empty empty 0 -8 0 10 #fcfcfc #000000 #000000 0;
#X text 121 76 none;
#X text 135 105 db;
#X text 114 91 cents;
#X msg 254 66 unit \$1;
#X obj 25 10 r \$0set-panel;
#X obj 25 35 route rate unit min max wave;
#X obj 132 142 nbx 3 15 0 128 0 0 empty empty tempo\ ratio -24 -8 0 10 #fcfcfc #000000 #000000 0 256;
#X obj 177 209 s \$0tempo-ratio;
#X connect 1 0 8 0;
#X connect 2 0 9 0;
#X connect 3 0 6 0;
#X connect 4 0 7 0;
#X connect 6 0 10 0;
#X connect 7 0 10 0;
#X connect 8 0 10 0;
#X connect 9 0 10 0;
#X connect 11 0 15 0;
#X connect 15 0 10 0;
#X connect 16 0 17 0;
#X connect 17 0 2 0;
#X connect 18 0 19 0;
#X coords 0 1 100 -1 157 137 1 20 60;
#X restore 84 27 graph;
#X restore 185 120 pd \$0lfo;
#X msg 86 47 vis 1;
#X obj 86 72 s pd-\$0lfo;
#X obj 184 147 r \$0params;
#X obj 31 112 inlet~;
#N canvas 458 221 450 300 tempo-ratio 0;
#X obj 89 70 r tempo;
#X obj 189 23 r \$0tempo-ratio;
#X obj 142 146 /;
#X obj 142 273 outlet;
#X obj 142 172 spigot;
#X obj 153 115 t b f;
#X obj 221 86 > 0;
#X obj 189 48 t f f;
#X obj 157 85 moses 1;
#X msg 142 248 rate \$1;
#X obj 142 222 /;
#X msg 142 197 1000 \$1;
#X connect 0 0 2 0;
#X connect 1 0 7 0;
#X connect 2 0 4 0;
#X connect 4 0 11 0;
#X connect 5 0 2 0;
#X connect 5 1 2 1;
#X connect 6 0 4 1;
#X connect 7 0 8 0;
#X connect 7 1 6 0;
#X connect 8 1 5 0;
#X connect 9 0 3 0;
#X connect 10 0 9 0;
#X connect 11 0 10 0;
#X restore 198 44 pd tempo-ratio;
#X obj 198 69 s \$0set-panel;
#X obj 86 19 else/click;
#X connect 0 0 1 0;
#X connect 3 0 4 0;
#X connect 5 0 0 0;
#X connect 6 0 0 0;
#X connect 7 0 0 0;
#X connect 7 0 8 0;
#X connect 9 0 3 0;
#X coords 0 201 1 200 85 20 0;
