#N canvas 458 221 320 222 12;
#X obj 89 122 inlet~;
#X obj 89 172 outlet~;
#X msg 141 46 vis 1;
#X obj 141 71 s pd-\$0mod;
#N canvas 458 221 291 175 \$0mod 0;
#N canvas 458 246 450 290 (subpatch) 0;
#X obj 21 61 cnv 15 129 123 empty \$0panel .::Modulation::. 0 8 0 14 #e0e0e0 #404040 0;
#X obj 286 23 edit-cnv \$0panel;
#A saved 129 123;
#X obj 26 101 components/slider level volume;
#X obj 88 101 components/slider rate rate;
#X obj 26 147 components/slider int generic 16;
#X obj 88 147 components/slider wave generic 1;
#X msg 86 214 rate \$1;
#X msg 151 215 intensity \$1;
#X msg 252 218 waveform \$1;
#X msg 18 213 level \$1;
#X obj 155 257 s \$0params;
#X connect 2 0 9 0;
#X connect 3 0 6 0;
#X connect 4 0 7 0;
#X connect 5 0 8 0;
#X connect 6 0 10 0;
#X connect 7 0 10 0;
#X connect 8 0 10 0;
#X connect 9 0 10 0;
#X coords 0 1 100 -1 131 125 1 20 60;
#X restore 80 25 graph;
#X restore 51 71 pd \$0mod;
#X obj 160 105 r \$0params;
#X obj 141 21 else/click;
#X obj 89 147 chorus-vibrato~;
#X connect 0 0 7 0;
#X connect 2 0 3 0;
#X connect 5 0 7 0;
#X connect 6 0 2 0;
#X connect 7 0 1 0;
#X coords 0 222 1 221 140 20 0;
