#N canvas 807 161 494 388 12;
#X obj 23 100 hsl 50 15 0 1 0 0 empty empty fuzz -2 -8 0 12 #fcfcfc #000000 #000000 0 1;
#X obj 256 42 loadbang;
#X msg 256 67 args;
#X obj 256 92 pdcontrol;
#X obj 20 174 outlet;
#X obj 20 35 inlet;
#X msg 111 70 label \$1;
#X msg 226 285 -50 50 1 0;
#X obj 256 145 list trim;
#X obj 20 115 cnv 15 55 15 empty \$0t 0.00 2 7 0 10 #000000 #ffffff 0;
#N canvas 134 133 526 436 cook-unit 0;
#X obj 39 36 inlet;
#X msg 192 365 label \$1;
#X obj 192 390 s \$0t;
#X obj 85 36 inlet;
#X obj 39 232 rmstodb;
#X obj 182 207 moses 1000;
#X obj 39 61 prepend;
#X obj 134 173 makefilename %dc;
#X obj 182 233 makefilename %dms;
#X obj 249 263 / 1000;
#X obj 249 288 makefilename %.2fs;
#X obj 39 287 makefilename %.1fdB;
#X obj 39 259 - 100;
#X obj 230 333 makefilename %.2f;
#X obj 277 201 makefilename %.1fhz;
#X obj 288 119 makefilename %.1fhz;
#X obj 302 162 makefilename %dst;
#X obj 39 88 route volume gain detune time generic rate f-sweep tone;
#X connect 0 0 6 0;
#X connect 1 0 2 0;
#X connect 3 0 6 1;
#X connect 4 0 12 0;
#X connect 5 0 8 0;
#X connect 5 1 9 0;
#X connect 6 0 17 0;
#X connect 7 0 1 0;
#X connect 8 0 1 0;
#X connect 9 0 10 0;
#X connect 10 0 1 0;
#X connect 11 0 1 0;
#X connect 12 0 11 0;
#X connect 13 0 1 0;
#X connect 14 0 1 0;
#X connect 15 0 1 0;
#X connect 16 0 1 0;
#X connect 17 0 4 0;
#X connect 17 1 4 0;
#X connect 17 2 7 0;
#X connect 17 3 5 0;
#X connect 17 4 13 0;
#X connect 17 5 14 0;
#X connect 17 6 15 0;
#X connect 17 7 16 0;
#X restore 104 122 pd cook-unit;
#X msg 219 259 -24 24 1 1;
#X msg 187 207 0 1 3 0;
#X msg 212 233 0 4 3 0;
#X msg 242 313 0 2000 3 0;
#X obj 256 117 unpack s s f;
#X obj 336 235 f;
#X msg 336 260 0 \$1 1 0;
#X text 377 25 *types* \; volume \; gain \; tone \; detune \; time \; generic \; rate \; f-sweep;
#X obj 256 172 route volume gain tone detune time generic rate f-sweep, f 29;
#X msg 341 284 0 20 2 0;
#X msg 353 313 0 21000 4 0;
#N canvas 493 196 328 262 uncook 0;
#X obj 56 53 inlet;
#X obj 56 208 outlet;
#X obj 155 61 unpack f f f f;
#X obj 155 36 r \$0params;
#X obj 56 81 -;
#X obj 56 109 /;
#X obj 137 115 --;
#X msg 56 181 set \$1;
#X obj 56 146 expr pow($f1 \, 1/$f2);
#X obj 196 191 outlet;
#X connect 0 0 4 0;
#X connect 0 0 9 0;
#X connect 2 0 4 1;
#X connect 2 0 6 1;
#X connect 2 1 6 0;
#X connect 2 2 8 1;
#X connect 3 0 2 0;
#X connect 4 0 5 0;
#X connect 5 0 8 0;
#X connect 6 0 5 1;
#X connect 7 0 1 0;
#X connect 8 0 7 0;
#X restore 20 62 pd uncook;
#X obj 306 340 s \$0params;
#N canvas 177 191 450 300 cook 1;
#X obj 83 81 pow 1;
#X obj 83 109 * 1;
#X obj 83 164 AB;
#X obj 101 189 i;
#X obj 83 54 inlet;
#X obj 83 227 outlet;
#X obj 210 81 unpack f f f f;
#X obj 185 156 --;
#X obj 83 137 +;
#X obj 210 56 r \$0params;
#X text 186 23 min \, max \, pow \, integer;
#X connect 0 0 1 0;
#X connect 1 0 8 0;
#X connect 2 0 5 0;
#X connect 2 1 3 0;
#X connect 3 0 5 0;
#X connect 4 0 0 0;
#X connect 6 0 7 1;
#X connect 6 0 8 1;
#X connect 6 1 7 0;
#X connect 6 2 0 1;
#X connect 6 3 2 1;
#X connect 7 0 1 1;
#X connect 8 0 2 0;
#X connect 9 0 6 0;
#X restore 20 140 pd cook;
#X text 82 10 args: label \, type \, max for generic;
#X connect 0 0 24 0;
#X connect 1 0 2 0;
#X connect 2 0 3 0;
#X connect 3 0 15 0;
#X connect 5 0 22 0;
#X connect 6 0 0 0;
#X connect 7 0 23 0;
#X connect 8 0 10 1;
#X connect 8 0 19 0;
#X connect 11 0 23 0;
#X connect 12 0 23 0;
#X connect 13 0 23 0;
#X connect 14 0 23 0;
#X connect 15 0 6 0;
#X connect 15 1 8 0;
#X connect 15 2 16 1;
#X connect 16 0 17 0;
#X connect 17 0 23 0;
#X connect 19 0 12 0;
#X connect 19 1 13 0;
#X connect 19 2 11 0;
#X connect 19 3 7 0;
#X connect 19 4 14 0;
#X connect 19 5 16 0;
#X connect 19 6 20 0;
#X connect 19 7 21 0;
#X connect 20 0 23 0;
#X connect 21 0 23 0;
#X connect 22 0 0 0;
#X connect 22 1 10 0;
#X connect 24 0 4 0;
#X connect 24 0 10 0;
#X coords 0 -1 1 1 55 30 2 20 100;
