#N canvas 735 399 450 300 12;
#X obj 21 21 cnv 20 150 20 empty \$0name - 4 10 0 12 #e2ddd9 #000000 0;
#X obj 32 210 symbol;
#X obj 220 66 loadbang;
#X obj 220 236 s \$0name;
#X msg 220 91 args;
#X obj 220 116 pdcontrol;
#X msg 220 211 label \$1;
#X obj 220 176 atoms/trim-symbol 18;
#X obj 151 21 bng 20 250 50 0 empty empty empty 0 -10 0 12 #fcfcfc #000000 #000000;
#X obj 151 21 cnv 15 20 20 empty empty ▶ 6 9 0 20 #0fff14 #ffffff 0;
#X obj 32 236 s folder_view;
#X obj 220 141 unpack s s;
#X text 190 12 arg1 is showing name \; arg2 is FULL PATH including name \;;
#X connect 1 0 10 0;
#X connect 2 0 4 0;
#X connect 4 0 5 0;
#X connect 5 0 11 0;
#X connect 6 0 3 0;
#X connect 7 0 6 0;
#X connect 8 0 1 0;
#X connect 11 0 7 0;
#X connect 11 1 1 1;
#X coords 0 -1 1 1 152 22 2 20 20;
