#N canvas 189 411 452 332 12;
#X obj 21 61 cnv 20 150 20 empty \$0name - 22 10 0 12 #e2ddd9 #000000 0;
#X obj 21 61 bng 20 250 50 0 empty empty empty 0 -10 0 12 #fcfcfc #000000 #000000;
#X obj 21 61 cnv 15 20 20 empty empty ▶ 6 9 0 20 #aa02fe #ffffff 0;
#X obj 21 282 s smp_preview;
#X obj 271 70 loadbang;
#X obj 271 222 s \$0name;
#X msg 271 95 args;
#X obj 271 120 pdcontrol;
#X msg 271 197 label \$1;
#X obj 271 171 atoms/trim-symbol 18;
#X obj 271 145 unpack s s;
#X text 29 24 arg1 is showing name. arg2 is path to be appended;
#X msg 351 227 symbol -;
#X msg 135 159 symbol \$2/\$1;
#X obj 21 252 symbol;
#X obj 171 286 s load_sample;
#X obj 171 61 bng 20 250 50 0 empty empty empty 0 -10 0 12 #fcfcfc #000000 #000000;
#X obj 171 61 cnv 15 20 20 empty empty ▶ 6 9 0 20 #ff1c86 #ffffff 0;
#X obj 171 253 symbol;
#X connect 1 0 14 0;
#X connect 4 0 6 0;
#X connect 6 0 7 0;
#X connect 7 0 13 0;
#X connect 7 0 10 0;
#X connect 8 0 5 0;
#X connect 9 0 8 0;
#X connect 10 0 9 0;
#X connect 12 0 8 0;
#X connect 13 0 14 1;
#X connect 13 0 18 1;
#X connect 14 0 3 0;
#X connect 16 0 18 0;
#X connect 18 0 15 0;
#X coords 0 -1 1 1 172 22 2 20 60;
