#N canvas 400 151 436 456 12;
#X obj 37 85 inlet;
#X msg 37 174 symbol ~/samples;
#X obj 37 199 openpanel;
#X msg 37 250 read -resize \$1 \$2;
#X obj 37 275 soundfiler;
#X obj 37 320 pack f f;
#X obj 104 300 f;
#X obj 37 225 pack s s;
#X msg 146 328 table \$1;
#X obj 306 266 b;
#X obj 90 139 symbol;
#X obj 306 210 inlet;
#X text 40 18 1st inlet: symbol sets table name \, bang opens selector \; 2nd outlet: re-send message \;, f 29;
#X obj 98 80 else/click;
#X obj 37 110 route bang symbol file;
#X obj 296 33 loadbang;
#X msg 296 58 args;
#X obj 296 83 pdcontrol;
#X obj 296 108 route symbol;
#X obj 37 348 list prepend;
#X obj 37 373 list trim;
#X obj 37 398 outlet;
#X connect 0 0 14 0;
#X connect 1 0 2 0;
#X connect 2 0 7 0;
#X connect 3 0 4 0;
#X connect 4 0 5 0;
#X connect 4 1 6 0;
#X connect 5 0 19 0;
#X connect 6 0 5 1;
#X connect 7 0 3 0;
#X connect 8 0 19 1;
#X connect 9 0 5 0;
#X connect 10 0 7 1;
#X connect 10 0 8 0;
#X connect 11 0 9 0;
#X connect 13 0 14 0;
#X connect 14 0 1 0;
#X connect 14 1 10 0;
#X connect 14 2 7 0;
#X connect 15 0 16 0;
#X connect 16 0 17 0;
#X connect 17 0 18 0;
#X connect 18 0 14 0;
#X connect 19 0 20 0;
#X connect 20 0 21 0;
