#N canvas 455 180 380 308 12;
#X obj 46 29 inlet;
#X msg 46 169 play \$1;
#X obj 153 240 outlet;
#X obj 46 238 outlet~;
#X obj 46 139 / 127;
#X obj 214 122 table buff\$0;
#X obj 58 92 single-pattern;
#X obj 46 54 route float rec play;
#X obj 46 213 macros/audio-player~;
#X obj 183 153 load-file buff\$0;
#X connect 0 0 7 0;
#X connect 1 0 8 0;
#X connect 4 0 1 0;
#X connect 6 0 4 0;
#X connect 6 1 2 0;
#X connect 7 0 4 0;
#X connect 7 0 6 0;
#X connect 7 1 6 0;
#X connect 7 2 6 1;
#X connect 7 3 8 0;
#X connect 7 3 9 0;
#X connect 8 0 3 0;
#X connect 8 1 2 0;
#X connect 9 0 8 0;
