#N canvas 733 327 637 388 12;
#X obj 119 109 else/pimp~;
#X obj 187 136 else/trig2bang~;
#X obj 240 238 scripts/BDSM;
#X obj 436 78 notein 1;
#X msg 127 230 all bang;
#X msg 395 239 1;
#X obj 349 264 noteout;
#X obj 395 214 loadbang;
#X obj 47 258 clone -d SSD-strip~ 8;
#X obj 47 323 outlet~;
#X obj 47 53 inlet~;
#X obj 251 331 outlet;
#X obj 436 134 scripts/sequencer;
#X obj 436 106 pack, f 8;
#X obj 480 165 route rec play;
#X obj 480 190 tgl 20 0 empty empty empty 0 -10 0 12 #fcfcfc #000000 #000000 0 1;
#X obj 527 190 tgl 20 0 empty empty empty 0 -10 0 12 #fcfcfc #000000 #000000 0 1;
#X obj 335 99 r core;
#X obj 251 305 atoms/ramp2slice 4;
#X obj 505 89 r slice-seq;
#X obj 119 81 atoms/bpm2hz;
#X obj 119 54 r global-bpm;
#X connect 0 0 18 0;
#X connect 0 0 8 1;
#X connect 0 1 1 0;
#X connect 1 0 4 0;
#X connect 1 0 2 1;
#X connect 2 0 8 2;
#X connect 2 1 6 0;
#X connect 3 0 13 0;
#X connect 3 1 13 1;
#X connect 4 0 8 1;
#X connect 5 0 6 2;
#X connect 7 0 5 0;
#X connect 8 0 9 0;
#X connect 8 1 2 2;
#X connect 10 0 8 0;
#X connect 12 0 2 0;
#X connect 12 1 14 0;
#X connect 13 0 12 0;
#X connect 13 0 2 0;
#X connect 14 0 15 0;
#X connect 14 1 16 0;
#X connect 17 0 2 0;
#X connect 18 0 11 0;
#X connect 19 0 12 1;
#X connect 20 0 0 0;
#X connect 21 0 20 0;
