#N canvas 48 291 591 502 12;
#X obj 41 22 inlet~;
#X obj 400 28 inlet;
#X obj 400 53 atoms/broadcast \$0;
#N canvas 742 651 450 300 drive 0;
#X obj 97 65 inlet~;
#X obj 97 224 outlet~;
#N canvas 778 528 450 300 fx 0;
#X obj 59 108 inlet~;
#X obj 59 133 atoms/overdrive~;
#X obj 59 158 outlet~;
#X obj 145 56 r \$0drive;
#X obj 261 80 inlet;
#X obj 261 105 switch~;
#X connect 0 0 1 0;
#X connect 1 0 2 0;
#X connect 3 0 1 0;
#X connect 4 0 5 0;
#X restore 122 147 pd fx;
#X obj 97 178 mux~;
#X obj 195 84 r \$0drive_sw;
#X text 70 19 TODO: fazer uma abstração com isso;
#X connect 0 0 3 0;
#X connect 0 0 2 0;
#X connect 2 0 3 1;
#X connect 3 0 1 0;
#X connect 4 0 3 0;
#X connect 4 0 2 1;
#X restore 41 48 pd drive;
#N canvas 738 507 450 300 delay 0;
#X obj 97 65 inlet~;
#X obj 97 224 outlet~;
#N canvas 777 492 450 300 fx 0;
#X obj 59 108 inlet~;
#X obj 59 158 outlet~;
#X obj 317 51 inlet;
#X obj 317 76 switch~;
#X obj 59 133 macros/delay~;
#X obj 197 101 r \$0delay;
#X connect 0 0 4 0;
#X connect 2 0 3 0;
#X connect 4 0 1 0;
#X connect 5 0 4 0;
#X restore 122 147 pd fx;
#X obj 97 178 mux~;
#X text 70 19 TODO: fazer uma abstração com isso;
#X obj 195 84 r \$0delay_sw;
#X connect 0 0 3 0;
#X connect 0 0 2 0;
#X connect 2 0 3 1;
#X connect 3 0 1 0;
#X connect 5 0 3 0;
#X connect 5 0 2 1;
#X restore 41 243 pd delay;
#X obj 41 400 outlet~;
#N canvas 740 579 450 300 filter 0;
#X obj 97 65 inlet~;
#X obj 97 204 outlet~;
#N canvas 780 600 450 300 fx 0;
#X obj 45 106 inlet~;
#X obj 59 188 outlet~;
#X obj 317 51 inlet;
#X obj 317 76 switch~;
#X obj 59 163 else/lowpass~;
#X obj 100 31 r \$0filter;
#X obj 100 56 route cutoff q;
#X obj 100 109 sig~;
#X obj 103 134 atoms/modulate~;
#X obj 205 102 inlet~;
#X connect 0 0 4 0;
#X connect 2 0 3 0;
#X connect 4 0 1 0;
#X connect 5 0 6 0;
#X connect 6 0 7 0;
#X connect 6 1 4 2;
#X connect 7 0 8 0;
#X connect 8 0 4 1;
#X connect 9 0 8 1;
#X restore 122 127 pd fx;
#X f 10;
#X obj 97 158 mux~;
#X text 70 19 TODO: fazer uma abstração com isso;
#X obj 230 63 r \$0filter_sw;
#X text 229 123 ideias \; state-variable \; seq/rand-seq/lfo \; envelope follow \;;
#X obj 155 65 inlet~;
#X connect 0 0 3 0;
#X connect 0 0 2 0;
#X connect 2 0 3 1;
#X connect 3 0 1 0;
#X connect 5 0 3 0;
#X connect 5 0 2 2;
#X connect 7 0 2 1;
#X restore 41 152 pd filter;
#X obj 131 399 outlet~;
#X obj 144 223 r \$0pan;
#X obj 312 120 r \$0volume;
#N canvas 744 690 450 300 verb-R 0;
#X obj 97 65 inlet~;
#X obj 97 224 outlet~;
#N canvas 785 690 450 300 fx 0;
#X obj 59 68 inlet~;
#X obj 59 218 outlet~;
#X obj 329 79 inlet;
#X obj 329 104 switch~;
#X obj 76 152 *~;
#X obj 76 177 throw~ verb-R;
#X obj 222 83 r \$0verb;
#X msg 222 108 \$1 5;
#X obj 222 133 line~;
#X connect 0 0 1 0;
#X connect 0 0 4 0;
#X connect 2 0 3 0;
#X connect 4 0 5 0;
#X connect 6 0 7 0;
#X connect 7 0 8 0;
#X connect 8 0 4 1;
#X restore 122 147 pd fx;
#X obj 97 178 mux~;
#X text 70 19 TODO: fazer uma abstração com isso;
#X obj 195 84 r \$0verb_sw;
#X connect 0 0 3 0;
#X connect 0 0 2 0;
#X connect 2 0 3 1;
#X connect 3 0 1 0;
#X connect 5 0 3 0;
#X connect 5 0 2 1;
#X restore 131 370 pd verb-R;
#N canvas 744 690 450 300 verb-L 0;
#X obj 97 65 inlet~;
#X obj 97 224 outlet~;
#N canvas 785 690 450 300 fx 0;
#X obj 59 68 inlet~;
#X obj 59 218 outlet~;
#X obj 329 79 inlet;
#X obj 329 104 switch~;
#X obj 76 152 *~;
#X obj 222 83 r \$0verb;
#X obj 76 177 throw~ verb-L;
#X msg 222 108 \$1 5;
#X obj 222 133 line~;
#X connect 0 0 1 0;
#X connect 0 0 4 0;
#X connect 2 0 3 0;
#X connect 4 0 6 0;
#X connect 5 0 7 0;
#X connect 7 0 8 0;
#X connect 8 0 4 1;
#X restore 122 147 pd fx;
#X obj 97 178 mux~;
#X text 70 19 TODO: fazer uma abstração com isso;
#X obj 195 84 r \$0verb_sw;
#X connect 0 0 3 0;
#X connect 0 0 2 0;
#X connect 2 0 3 1;
#X connect 3 0 1 0;
#X connect 5 0 3 0;
#X connect 5 0 2 1;
#X restore 41 371 pd verb-L;
#X obj 41 96 *~;
#X obj 312 171 line~;
#X msg 312 145 \$1 5;
#X obj 402 119 loadbang;
#X msg 402 144 1;
#X obj 248 58 demux~ . . . . .;
#N canvas 779 640 450 300 crusher 0;
#X obj 97 85 inlet~;
#X obj 97 214 outlet~;
#N canvas 746 535 450 344 fx 0;
#X obj 59 108 inlet~;
#X obj 59 298 outlet~;
#X obj 359 36 inlet;
#X obj 359 61 switch~;
#X obj 59 273 else/downsample~;
#X obj 59 154 else/quantizer~;
#X msg 230 82 interp \$1;
#X obj 106 27 r \$0crusher;
#X obj 106 52 route quant downsamp interp;
#X obj 186 143 loadbang;
#X obj 186 168 samplerate~;
#X obj 168 193 *;
#X obj 168 219 sig~;
#X obj 168 244 atoms/modulate~;
#X obj 270 125 inlet~;
#X connect 0 0 5 0;
#X connect 2 0 3 0;
#X connect 4 0 1 0;
#X connect 5 0 4 0;
#X connect 6 0 4 0;
#X connect 7 0 8 0;
#X connect 8 0 5 1;
#X connect 8 1 11 0;
#X connect 8 2 6 0;
#X connect 9 0 10 0;
#X connect 10 0 11 1;
#X connect 11 0 12 0;
#X connect 12 0 13 0;
#X connect 13 0 4 1;
#X connect 14 0 13 1;
#X restore 122 137 pd fx;
#X f 10;
#X obj 97 168 mux~;
#X text 70 39 TODO: fazer uma abstração com isso;
#X obj 214 88 r \$0crusher_sw;
#X obj 156 85 inlet~;
#X connect 0 0 3 0;
#X connect 0 0 2 0;
#X connect 2 0 3 1;
#X connect 3 0 1 0;
#X connect 5 0 3 0;
#X connect 5 0 2 2;
#X connect 6 0 2 1;
#X restore 41 123 pd crusher;
#X obj 144 250 sig~;
#X obj 144 275 atoms/modulate~;
#X obj 87 77 atoms/modulate~;
#N canvas 284 527 450 427 lfo 0;
#X obj 228 351 atoms/lfo2~;
#X obj 105 60 r \$0lfo;
#X obj 105 87 route target depth;
#X obj 228 378 outlet~;
#X obj 166 170 list prepend 1;
#X obj 175 115 t b f;
#X obj 166 144 f;
#X obj 166 195 route 2 1 3 4;
#X obj 264 271 * -1;
#X msg 264 296 range \$1 0;
#X obj 139 242 t f f, f 6;
#X obj 139 267 * -1;
#X obj 139 292 pack, f 6;
#X msg 139 317 range \$1 \$2;
#X text 20 15 1 = vol \, 2 = pan \, 3 = filt \, 4 = downsamp \;;
#X obj 105 377 outlet;
#X connect 0 0 3 0;
#X connect 1 0 2 0;
#X connect 2 0 5 0;
#X connect 2 0 15 0;
#X connect 2 1 6 0;
#X connect 2 2 0 0;
#X connect 4 0 7 0;
#X connect 5 0 6 0;
#X connect 5 1 4 1;
#X connect 6 0 4 0;
#X connect 7 0 10 0;
#X connect 7 1 8 0;
#X connect 7 2 8 0;
#X connect 7 3 8 0;
#X connect 8 0 9 0;
#X connect 9 0 0 0;
#X connect 10 0 11 0;
#X connect 10 1 12 1;
#X connect 11 0 12 0;
#X connect 12 0 13 0;
#X connect 13 0 0 0;
#X restore 248 31 pd lfo;
#X obj 41 310 else/xgate2~;
#N canvas 733 327 450 300 chorus 0;
#X obj 97 65 inlet~;
#X obj 97 204 outlet~;
#N canvas 780 600 450 300 fx 0;
#X obj 59 106 inlet~;
#X obj 59 188 outlet~;
#X obj 317 51 inlet;
#X obj 317 76 switch~;
#X obj 133 100 r \$0chorus;
#X obj 59 163 macros/chorus~;
#X connect 0 0 5 0;
#X connect 2 0 3 0;
#X connect 4 0 5 0;
#X connect 5 0 1 0;
#X restore 122 127 pd fx;
#X f 10;
#X obj 97 158 mux~;
#X text 70 19 TODO: fazer uma abstração com isso;
#X text 229 123 ideias \; state-variable \; seq/rand-seq/lfo \; envelope follow \;;
#X obj 230 63 r \$0chorus_sw;
#X connect 0 0 3 0;
#X connect 0 0 2 0;
#X connect 2 0 3 1;
#X connect 3 0 1 0;
#X connect 6 0 3 0;
#X connect 6 0 2 1;
#X restore 41 197 pd chorus;
#X connect 0 0 3 0;
#X connect 1 0 2 0;
#X connect 3 0 12 0;
#X connect 4 0 23 1;
#X connect 6 0 24 0;
#X connect 8 0 19 0;
#X connect 9 0 14 0;
#X connect 10 0 7 0;
#X connect 11 0 5 0;
#X connect 12 0 18 0;
#X connect 13 0 21 0;
#X connect 14 0 13 0;
#X connect 15 0 16 0;
#X connect 16 0 14 0;
#X connect 17 1 21 1;
#X connect 17 2 20 1;
#X connect 17 3 6 1;
#X connect 17 4 18 1;
#X connect 18 0 6 0;
#X connect 19 0 20 0;
#X connect 20 0 23 0;
#X connect 21 0 12 1;
#X connect 22 0 17 0;
#X connect 22 1 17 0;
#X connect 23 0 10 0;
#X connect 23 1 11 0;
#X connect 24 0 4 0;
