#N canvas 0 0 958 956 12;
#X obj 449 26 table \$1smp;
#X obj 156 594 outlet~;
#X obj 156 545 *~;
#X obj 48 47 inlet~;
#X obj 424 526 lop~ 5;
#X obj 406 556 *~;
#X obj 405 609 outlet;
#X obj 156 461 atoms/table-reader~ \$1smp;
#X obj 342 30 inlet;
#X obj 236 98 inlet~;
#X obj 221 322 mux~;
#X obj 433 87 tgl 20 0 empty empty empty 0 -10 0 12 #fcfcfc #000000 #000000 0 1;
#N canvas 765 473 450 481 pimp-mul 0;
#X obj 89 133 inlet~;
#X obj 195 134 inlet;
#X obj 89 396 else/pimpmul~;
#X obj 195 192 route bang;
#X obj 195 220 spigot;
#X obj 177 289 f;
#X obj 195 260 atoms/count;
#X obj 89 421 outlet~;
#X obj 336 188 sel 1 0;
#X obj 304 158 t f f;
#X msg 269 234 0;
#X msg 177 317 1 \$1;
#X obj 177 342 /;
#X msg 278 345 1 \$1;
#X obj 278 370 /;
#X obj 177 369 atoms/mul 1;
#X obj 304 133 r \$0rec;
#X obj 278 320 r \$0length;
#X text 34 14 each bang on 2nd inlet represents the end of 1 bar \; while recording \, count how many bars and use [pimpmul~] to multiply the main phase (1st inlet) by the inverse of the bar count \;, f 55;
#X connect 0 0 2 0;
#X connect 1 0 3 0;
#X connect 2 0 7 0;
#X connect 3 0 4 0;
#X connect 4 0 6 0;
#X connect 5 0 11 0;
#X connect 6 0 5 1;
#X connect 8 0 10 0;
#X connect 8 1 5 0;
#X connect 9 0 4 1;
#X connect 9 1 8 0;
#X connect 10 0 6 1;
#X connect 11 0 12 0;
#X connect 12 0 15 0;
#X connect 13 0 14 0;
#X connect 14 0 15 1;
#X connect 15 0 2 1;
#X connect 16 0 9 0;
#X connect 17 0 13 0;
#X restore 221 142 pd pimp-mul;
#X obj 524 89 scripts/sample_trimmer, f 19;
#X obj 433 113 s \$0sync;
#X obj 241 257 r \$0sync;
#X obj 48 111 s \$0size;
#X obj 213 435 r \$0size;
#N canvas 555 499 450 455 unsyncd_head 0;
#X obj 142 317 outlet~;
#X obj 196 158 r \$0size;
#X obj 270 158 r \$0length;
#X obj 142 123 inlet;
#X obj 196 186 atoms/mul 1;
#X obj 294 212 r \$0jump-time;
#X obj 142 243 phasor~;
#X obj 146 215 atoms/smp-size2hz;
#X connect 1 0 4 0;
#X connect 2 0 4 1;
#X connect 3 0 6 1;
#X connect 4 0 7 0;
#X connect 6 0 0 0;
#X connect 7 0 6 0;
#X restore 315 303 pd unsyncd_head;
#X obj 342 89 s \$0rec;
#X obj 164 50 r \$0rec;
#X obj 387 139 s \$0play;
#X obj 369 212 r \$0play;
#X obj 654 136 s \$0length;
#X obj 524 135 s \$0start;
#N canvas 735 399 450 300 trim 0;
#X obj 137 81 inlet~;
#X obj 137 106 *~ 1;
#X obj 137 131 +~;
#X obj 137 156 outlet~;
#X obj 200 124 r \$0start;
#X obj 201 97 r \$0length;
#X connect 0 0 1 0;
#X connect 1 0 2 0;
#X connect 2 0 3 0;
#X connect 4 0 2 1;
#X connect 5 0 1 1;
#X restore 221 402 pd trim;
#X obj 369 239 unpack f f;
#X obj 48 79 macros/rec~ \$1smp;
#X obj 156 503 *~;
#X obj 429 484 vline~;
#X msg 429 459 0 2 \, 1 2 2;
#X obj 315 279 pipe 2;
#X obj 405 583 atoms/ramp2slice 8;
#X obj 342 59 route rec play sync reverse range jump-time;
#X obj 550 211 s \$0jump-time;
#X floatatom 125 25 5 0 0 0 - - - 0;
#X floatatom 79 156 10 0 0 0 - - - 0;
#X obj 241 282 == 0;
#X connect 2 0 1 0;
#X connect 3 0 27 0;
#X connect 4 0 2 1;
#X connect 4 0 5 1;
#X connect 5 0 32 0;
#X connect 7 0 28 0;
#X connect 8 0 33 0;
#X connect 9 0 12 0;
#X connect 9 1 12 1;
#X connect 10 0 25 0;
#X connect 11 0 14 0;
#X connect 12 0 10 0;
#X connect 13 0 24 0;
#X connect 13 1 23 0;
#X connect 15 0 37 0;
#X connect 17 0 7 1;
#X connect 18 0 10 1;
#X connect 20 0 27 1;
#X connect 20 0 35 0;
#X connect 22 0 26 0;
#X connect 25 0 7 0;
#X connect 25 0 5 0;
#X connect 26 0 4 0;
#X connect 26 1 31 0;
#X connect 26 1 30 0;
#X connect 27 0 16 0;
#X connect 27 0 36 0;
#X connect 28 0 2 0;
#X connect 29 0 28 1;
#X connect 30 0 29 0;
#X connect 31 0 18 0;
#X connect 32 0 6 0;
#X connect 33 0 19 0;
#X connect 33 1 21 0;
#X connect 33 2 11 0;
#X connect 33 4 13 0;
#X connect 33 5 34 0;
#X connect 37 0 10 0;
