#N canvas 261 117 553 373 12;
#X obj 116 141 macros/load-file \$1b;
#X msg 79 210 size \$1;
#X obj 79 250 macros/playhead~ \$1b;
#X obj 116 32 inlet;
#X obj 455 61 table \$1b;
#X obj 147 310 outlet;
#X obj 79 310 outlet~;
#X obj 421 179 * 40;
#X obj 421 204 array size \$1b;
#X obj 171 86 delay 3, f 8;
#X obj 39 113 inlet~;
#X obj 147 285 atoms/ramp2slice 8;
#X obj 288 205 scripts/find_bpm;
#X obj 288 230 v \$0bpm;
#X obj 306 45 v \$0bpm;
#X obj 306 20 b;
#X obj 306 70 s set-global-bpm;
#X obj 421 152 v sr;
#X msg 171 114 0;
#X obj 116 57 route load clear set-bpm;
#X obj 421 126 loadbang;
#X connect 0 0 12 0;
#X connect 0 0 1 0;
#X connect 1 0 2 0;
#X connect 2 0 6 0;
#X connect 2 1 11 0;
#X connect 2 2 12 0;
#X connect 3 0 19 0;
#X connect 7 0 8 0;
#X connect 9 0 17 0;
#X connect 9 0 18 0;
#X connect 10 0 2 1;
#X connect 10 0 6 0;
#X connect 11 0 5 0;
#X connect 12 0 13 0;
#X connect 14 0 16 0;
#X connect 15 0 14 0;
#X connect 17 0 7 0;
#X connect 18 0 2 0;
#X connect 19 0 0 0;
#X connect 19 1 9 0;
#X connect 19 2 15 0;
#X connect 19 3 2 0;
#X connect 20 0 17 0;
