#N canvas 360 102 569 540 12;
#X obj 116 191 macros/load-file \$1b;
#X msg 116 221 size \$1;
#X obj 116 350 macros/playhead~ \$1b;
#X obj 116 32 inlet;
#X obj 445 28 table \$1b;
#X obj 184 410 outlet;
#X obj 116 410 outlet~;
#X obj 421 179 * 40;
#X obj 421 204 array size \$1b;
#X obj 171 86 delay 3, f 8;
#X obj 28 171 inlet~;
#X obj 184 385 atoms/ramp2slice 8;
#X obj 305 318 scripts/find_bpm;
#X obj 305 343 v \$0bpm;
#X obj 306 45 v \$0bpm;
#X obj 306 20 b;
#X obj 306 70 s set-global-bpm;
#X msg 171 114 0;
#X obj 116 57 route load clear set-bpm;
#X obj 421 126 loadbang;
#X obj 421 152 samplerate~;
#X obj 445 56 table \$1vis 128;
#X obj 314 429 atoms/table-resample \$1b \$1vis;
#X msg 340 170 const 0;
#X obj 352 198 s \$1b;
#X obj 340 223 s \$1vis;
#X connect 0 0 12 0;
#X connect 0 0 1 0;
#X connect 1 0 2 0;
#X connect 2 0 6 0;
#X connect 2 1 11 0;
#X connect 2 2 12 0;
#X connect 3 0 18 0;
#X connect 7 0 8 0;
#X connect 9 0 17 0;
#X connect 9 0 20 0;
#X connect 9 0 23 0;
#X connect 10 0 2 1;
#X connect 10 0 6 0;
#X connect 11 0 5 0;
#X connect 12 0 13 0;
#X connect 14 0 16 0;
#X connect 15 0 14 0;
#X connect 17 0 2 0;
#X connect 18 0 0 0;
#X connect 18 1 9 0;
#X connect 18 2 15 0;
#X connect 18 3 2 0;
#X connect 19 0 20 0;
#X connect 20 0 7 0;
#X connect 23 0 24 0;
#X connect 23 0 25 0;
