#N canvas 360 102 595 560 12;
#X obj 182 210 macros/load-file \$1b;
#X msg 182 237 size \$1;
#X obj 58 75 inlet;
#X obj 460 26 table \$1b;
#X obj 173 440 outlet;
#X obj 101 440 outlet~;
#X obj 416 188 * 40;
#X obj 416 213 array size \$1b;
#X obj 245 141 delay 3, f 8;
#X obj 40 200 inlet~;
#X obj 173 415 atoms/ramp2slice 8;
#X obj 326 333 scripts/find_bpm;
#X obj 326 358 v \$0bpm;
#X obj 389 70 v \$0bpm;
#X obj 389 45 b;
#X obj 389 95 s set-global-bpm;
#X msg 245 173 0;
#X obj 416 135 loadbang;
#X obj 416 161 samplerate~;
#X obj 460 54 table \$1vis 128;
#X obj 324 390 atoms/table-resample \$1b \$1vis;
#X msg 468 283 const 0;
#X obj 480 311 s \$1b;
#X obj 468 336 s \$1vis;
#X obj 40 439 outlet~;
#X obj 40 284 *~;
#X msg 58 229 \$1 10;
#X obj 58 254 line~;
#X obj 324 425 array get \$1vis;
#X obj 324 450 list prepend graph_\$1;
#X obj 324 475 atoms/send-osc buffer;
#X obj 101 370 macros/playhead3~ \$1b;
#X obj 436 258 t b b;
#X obj 40 368 *~;
#X obj 58 100 route input_vol direct_out load clear set_bpm;
#X msg 120 230 \$1 10;
#X obj 120 255 line~;
#X connect 0 0 1 0;
#X connect 1 0 31 1;
#X connect 2 0 34 0;
#X connect 6 0 7 0;
#X connect 8 0 16 0;
#X connect 8 0 18 0;
#X connect 8 0 32 0;
#X connect 9 0 25 0;
#X connect 10 0 4 0;
#X connect 11 0 12 0;
#X connect 13 0 15 0;
#X connect 14 0 13 0;
#X connect 16 0 31 1;
#X connect 17 0 18 0;
#X connect 18 0 6 0;
#X connect 20 0 28 0;
#X connect 21 0 22 0;
#X connect 21 0 23 0;
#X connect 25 0 31 0;
#X connect 25 0 33 0;
#X connect 26 0 27 0;
#X connect 27 0 25 1;
#X connect 28 0 29 0;
#X connect 29 0 30 0;
#X connect 31 0 5 0;
#X connect 31 1 10 0;
#X connect 31 2 11 0;
#X connect 31 2 20 0;
#X connect 32 0 28 0;
#X connect 32 1 21 0;
#X connect 33 0 24 0;
#X connect 34 0 26 0;
#X connect 34 1 35 0;
#X connect 34 2 0 0;
#X connect 34 3 8 0;
#X connect 34 4 14 0;
#X connect 34 5 31 1;
#X connect 35 0 36 0;
#X connect 36 0 33 1;
