#N canvas 20 12 582 432 12;
#X obj 194 180 macros/load-file \$1b;
#X msg 194 233 size \$1;
#X obj 242 266 macros/playhead~ \$1b;
#X obj 146 42 inlet;
#X obj 460 38 table \$1b;
#X obj 379 317 outlet;
#X obj 242 301 outlet~;
#X obj 44 180 macros/rec~ \$1b;
#X obj 242 121 samplerate~;
#X obj 364 141 * 40;
#X obj 364 166 array size \$1b;
#X obj 242 96 delay 3, f 8;
#X obj 44 43 inlet~;
#X msg 262 233 smprate \$1;
#X msg 242 148 0 \, smprate \$1;
#X obj 379 292 atoms/ramp2slice 8;
#X obj 146 67 route rec load clear set-bpm;
#X obj 44 232 scripts/find_bpm;
#X obj 44 257 v \$0bpm;
#X obj 384 61 v \$0bpm;
#X obj 384 36 b;
#X obj 384 86 s set-global-bpm;
#X connect 0 0 1 0;
#X connect 0 0 17 0;
#X connect 0 1 13 0;
#X connect 0 1 17 1;
#X connect 1 0 2 0;
#X connect 2 0 6 0;
#X connect 2 1 15 0;
#X connect 3 0 16 0;
#X connect 7 0 1 0;
#X connect 7 0 17 0;
#X connect 8 0 9 0;
#X connect 8 0 14 0;
#X connect 8 0 17 1;
#X connect 9 0 10 0;
#X connect 11 0 8 0;
#X connect 12 0 7 0;
#X connect 13 0 2 0;
#X connect 14 0 2 0;
#X connect 15 0 5 0;
#X connect 16 0 7 1;
#X connect 16 1 0 0;
#X connect 16 2 11 0;
#X connect 16 3 20 0;
#X connect 16 4 2 0;
#X connect 17 0 18 0;
#X connect 19 0 21 0;
#X connect 20 0 19 0;
