#N canvas 664 424 624 304 12;
#X declare -path drumkit;
#N canvas 843 310 775 680 (subpatch) 0;
#X obj 21 101 cnv 20 584 245 empty \$0bg empty 20 12 0 12 #a8a39d #404040 0;
#X obj 26 105 drumpad;
#X obj 171 105 drumpad;
#X obj 26 165 drumpad;
#X obj 171 165 drumpad;
#X obj 316 105 drumpad;
#X obj 461 105 drumpad;
#X obj 316 165 drumpad;
#X obj 461 165 drumpad;
#X obj 26 225 drumpad;
#X obj 171 225 drumpad;
#X obj 26 285 drumpad;
#X obj 171 285 drumpad;
#X obj 316 225 drumpad;
#X obj 461 225 drumpad;
#X obj 316 285 drumpad;
#X obj 461 285 drumpad;
#X obj 100 404 outlet~;
#X obj 73 42 route 1 3 5 7 0 2 4 6 9 11 13 15 8 10 12 14;
#X obj 631 66 notein 17;
#X obj 631 91 - 36;
#X obj 691 91 / 127;
#X obj 631 116 stripnote;
#X obj 631 141 pack;
#X obj 220 404 outlet~;
#X obj 631 222 loadbang;
#X msg 631 247 color #a8a39d;
#X obj 631 272 s \$0bg;
#X obj 73 15 r pads;
#X obj 631 166 s pads;
#X obj 637 450 r load_sample;
#N canvas 667 767 335 223 \$0choose-slot 0;
#N canvas 739 568 325 412 (subpatch) 0;
#X obj 11 11 cnv 20 186 182 empty empty empty 20 12 0 12 #a8a39d #404040 0;
#X obj 15 60 bng 40 250 50 0 empty empty empty 0 -10 0 12 #000000 #ff8300 #000000;
#X obj 61 15 bng 40 250 50 0 empty empty empty 0 -10 0 12 #000000 #ff8300 #000000;
#X obj 61 60 bng 40 250 50 0 empty empty empty 0 -10 0 12 #000000 #ff8300 #000000;
#X obj 107 15 bng 40 250 50 0 empty empty empty 0 -10 0 12 #000000 #ff8300 #000000;
#X obj 107 60 bng 40 250 50 0 empty empty empty 0 -10 0 12 #000000 #ff8300 #000000;
#X obj 153 15 bng 40 250 50 0 empty empty empty 0 -10 0 12 #000000 #ff8300 #000000;
#X obj 153 60 bng 40 250 50 0 empty empty empty 0 -10 0 12 #000000 #ff8300 #000000;
#X obj 15 105 bng 40 250 50 0 empty empty empty 0 -10 0 12 #000000 #ff8300 #000000;
#X obj 15 150 bng 40 250 50 0 empty empty empty 0 -10 0 12 #000000 #ff8300 #000000;
#X obj 61 105 bng 40 250 50 0 empty empty empty 0 -10 0 12 #000000 #ff8300 #000000;
#X obj 61 150 bng 40 250 50 0 empty empty empty 0 -10 0 12 #000000 #ff8300 #000000;
#X obj 107 105 bng 40 250 50 0 empty empty empty 0 -10 0 12 #000000 #ff8300 #000000;
#X obj 107 150 bng 40 250 50 0 empty empty empty 0 -10 0 12 #000000 #ff8300 #000000;
#X obj 153 105 bng 40 250 50 0 empty empty empty 0 -10 0 12 #000000 #ff8300 #000000;
#X obj 153 150 bng 40 250 50 0 empty empty empty 0 -10 0 12 #000000 #ff8300 #000000;
#X obj 15 15 bng 40 250 50 0 empty empty empty 0 -10 0 12 #000000 #ff8300 #000000;
#X msg 24 220 1, f 2;
#X msg 64 220 3, f 2;
#X msg 104 220 5, f 2;
#X msg 144 220 7, f 2;
#X msg 24 250 0, f 2;
#X msg 64 250 2, f 2;
#X msg 104 250 4, f 2;
#X msg 144 250 6, f 2;
#X msg 24 283 9, f 2;
#X msg 64 283 11, f 2;
#X msg 104 283 13, f 2;
#X msg 144 283 15, f 2;
#X msg 24 313 8, f 2;
#X msg 64 313 10, f 2;
#X msg 104 313 12, f 2;
#X msg 144 313 14, f 2;
#X obj 87 370 s \$0slot-choice;
#X connect 1 0 21 0;
#X connect 2 0 18 0;
#X connect 3 0 22 0;
#X connect 4 0 19 0;
#X connect 5 0 23 0;
#X connect 6 0 20 0;
#X connect 7 0 24 0;
#X connect 8 0 25 0;
#X connect 9 0 29 0;
#X connect 10 0 26 0;
#X connect 11 0 30 0;
#X connect 12 0 27 0;
#X connect 13 0 31 0;
#X connect 14 0 28 0;
#X connect 15 0 32 0;
#X connect 16 0 17 0;
#X connect 17 0 33 0;
#X connect 18 0 33 0;
#X connect 19 0 33 0;
#X connect 20 0 33 0;
#X connect 21 0 33 0;
#X connect 22 0 33 0;
#X connect 23 0 33 0;
#X connect 24 0 33 0;
#X connect 25 0 33 0;
#X connect 26 0 33 0;
#X connect 27 0 33 0;
#X connect 28 0 33 0;
#X connect 29 0 33 0;
#X connect 30 0 33 0;
#X connect 31 0 33 0;
#X connect 32 0 33 0;
#X coords 0 1 100 -1 188 184 1 10 10;
#X restore 57 14 graph;
#X restore 616 374 pd \$0choose-slot;
#X obj 482 448 r \$0slot-choice;
#X msg 637 578 vis 1;
#X obj 511 613 s pd-\$0choose-slot;
#X obj 482 473 t b f;
#X msg 452 574 vis 0;
#X obj 514 524 list append;
#X obj 514 549 list trim;
#X obj 514 574 s pads;
#X msg 588 495 list file \$1;
#X obj 462 31 declare -path drumkit;
#X connect 1 0 17 0;
#X connect 1 1 24 0;
#X connect 2 0 17 0;
#X connect 2 1 24 0;
#X connect 3 0 17 0;
#X connect 3 1 24 0;
#X connect 4 0 17 0;
#X connect 4 1 24 0;
#X connect 5 0 17 0;
#X connect 5 1 24 0;
#X connect 6 0 17 0;
#X connect 6 1 24 0;
#X connect 7 0 17 0;
#X connect 7 1 24 0;
#X connect 8 0 17 0;
#X connect 8 1 24 0;
#X connect 9 0 17 0;
#X connect 9 1 24 0;
#X connect 10 0 17 0;
#X connect 10 1 24 0;
#X connect 11 0 17 0;
#X connect 11 1 24 0;
#X connect 12 0 17 0;
#X connect 12 1 24 0;
#X connect 13 0 17 0;
#X connect 13 1 24 0;
#X connect 14 0 17 0;
#X connect 14 1 24 0;
#X connect 15 0 17 0;
#X connect 15 1 24 0;
#X connect 16 0 17 0;
#X connect 16 1 24 0;
#X connect 18 0 1 0;
#X connect 18 1 2 0;
#X connect 18 2 5 0;
#X connect 18 3 6 0;
#X connect 18 4 3 0;
#X connect 18 5 4 0;
#X connect 18 6 7 0;
#X connect 18 7 8 0;
#X connect 18 8 9 0;
#X connect 18 9 10 0;
#X connect 18 10 13 0;
#X connect 18 11 14 0;
#X connect 18 12 11 0;
#X connect 18 13 12 0;
#X connect 18 14 15 0;
#X connect 18 15 16 0;
#X connect 19 0 20 0;
#X connect 19 1 21 0;
#X connect 20 0 22 0;
#X connect 21 0 22 1;
#X connect 22 0 23 0;
#X connect 22 1 23 1;
#X connect 23 0 29 0;
#X connect 25 0 26 0;
#X connect 26 0 27 0;
#X connect 28 0 18 0;
#X connect 30 0 33 0;
#X connect 30 0 40 0;
#X connect 32 0 35 0;
#X connect 33 0 34 0;
#X connect 35 0 36 0;
#X connect 35 1 37 0;
#X connect 36 0 34 0;
#X connect 37 0 38 0;
#X connect 38 0 39 0;
#X connect 40 0 37 1;
#X coords 0 1 100 -1 586 249 1 20 100;
#X restore 16 13 graph;
#X obj 16 269 outlet~;
#X obj 549 271 outlet~;
#X connect 0 0 1 0;
#X connect 0 1 2 0;
