#N canvas 449 134 400 699 12;
#X obj 21 21 cnv 20 138 54 empty \$0bg empty 20 12 0 12 #e2ddd9 #ffffff 0;
#X obj 31 241 atoms/smp-size2hz;
#X obj 186 35 table \$0smp;
#X obj 31 384 atoms/table-reader~ \$0smp;
#X obj 31 657 outlet~;
#X obj 197 233 atoms/filename;
#X obj 197 310 s \$0showname;
#X obj 31 51 bng 20 250 50 0 empty empty empty 0 -10 0 12 #fcfcfc #000000 #000000;
#X obj 25 50 cnv 20 28 22 empty empty LOAD 3 11 0 10 #feaa02 #000000 0;
#X obj 100 91 inlet;
#X obj 100 154 s \$0lvl;
#X obj 31 184 atoms/load-file \$0smp;
#X obj 98 657 outlet~;
#X obj 31 628 atoms/pan~;
#X obj 98 601 r \$0pan;
#X obj 161 154 s \$0pan;
#X obj 25 26 cnv 15 130 20 empty \$0showname hat01 2 10 0 12 #a8a39d #000000 0;
#X msg 197 284 label \$1;
#X obj 197 258 atoms/trim-symbol 18;
#N canvas 2 72 450 300 style 0;
#X obj 189 54 loadbang;
#X msg 100 98 color #e2ddd9;
#X obj 100 123 s \$0bg;
#X msg 237 103 label -;
#X obj 237 128 s \$0showname;
#X connect 0 0 1 0;
#X connect 0 0 3 0;
#X connect 1 0 2 0;
#X connect 3 0 4 0;
#X restore 309 36 pd style;
#X obj 133 50 bng 22 250 50 0 empty empty empty 0 -10 0 12 #e2ddd9 #feaa02 #000000;
#X msg 59 91 1;
#X obj 31 358 else/pimp~;
#X obj 145 422 r \$0lvl;
#X obj 100 124 route float pan file;
#X msg 64 333 0;
#X obj 31 489 *~;
#X obj 166 457 t b b;
#X msg 198 481 stop;
#X obj 166 508 delay;
#X msg 166 533 0;
#X connect 1 0 22 0;
#X connect 1 1 29 1;
#X connect 3 0 26 0;
#X connect 5 0 18 0;
#X connect 7 0 11 0;
#X connect 9 0 24 0;
#X connect 11 0 1 0;
#X connect 11 0 3 1;
#X connect 11 1 5 0;
#X connect 11 2 1 1;
#X connect 13 0 4 0;
#X connect 13 1 12 0;
#X connect 14 0 13 1;
#X connect 17 0 6 0;
#X connect 18 0 17 0;
#X connect 20 0 21 0;
#X connect 21 0 24 0;
#X connect 22 0 3 0;
#X connect 23 0 25 0;
#X connect 23 0 27 0;
#X connect 23 0 26 1;
#X connect 24 0 10 0;
#X connect 24 1 15 0;
#X connect 24 2 11 2;
#X connect 25 0 22 1;
#X connect 26 0 13 0;
#X connect 27 0 29 0;
#X connect 27 1 28 0;
#X connect 28 0 29 0;
#X connect 29 0 30 0;
#X connect 30 0 26 1;
#X coords 0 -1 1 1 140 56 2 20 20;
