#N canvas 1049 115 630 491 12;
#X obj 45 262 snake~ in 6, f 13;
#X obj 478 409 macros/seq-bank;
#X obj 45 37 atoms/global-bpm;
#X obj 293 201 loadbang;
#X obj 293 230 samplerate~;
#X obj 293 255 v sr;
#X obj 247 281 scripts/multichannel_state 6 fx, f 20;
#X msg 247 255 dump;
#X obj 45 89 atoms/click~;
#X obj 45 140 demux~ . . . .;
#X obj 45 165 dac~ 1 2 3 4, f 14;
#X obj 45 114 *~;
#X obj 191 83 r click;
#X msg 191 108 \$1 5;
#X obj 191 133 line~;
#X obj 158 160 r click-output;
#X obj 443 307 bng 20 250 50 0 empty empty empty 0 -10 0 12 #fcfcfc #000000 #000000;
#X obj 443 332 atoms/send-osc reset;
#X obj 45 406 snake~ out 6, f 17;
#X obj 45 443 dac~ 5 6 7 8 9 10;
#X text 51 387 dry input meter;
#X obj 199 445 dac~ 1 2 11 12 13 14 15 16;
#N canvas 733 327 450 300 average6 0;
#X obj 235 36 inlet~;
#X obj 34 40 inlet~;
#X obj 34 65 snake~ out 6;
#X obj 235 66 snake~ out 6;
#X obj 38 200 +~;
#X obj 38 250 outlet~;
#X obj 38 225 *~ 0.5;
#X obj 99 200 +~;
#X obj 99 250 outlet~;
#X obj 99 225 *~ 0.5;
#X obj 158 200 +~;
#X obj 158 250 outlet~;
#X obj 158 225 *~ 0.5;
#X obj 219 200 +~;
#X obj 219 250 outlet~;
#X obj 219 225 *~ 0.5;
#X obj 278 200 +~;
#X obj 278 250 outlet~;
#X obj 278 225 *~ 0.5;
#X obj 339 200 +~;
#X obj 339 250 outlet~;
#X obj 339 225 *~ 0.5;
#X connect 0 0 3 0;
#X connect 1 0 2 0;
#X connect 2 0 4 0;
#X connect 2 1 7 0;
#X connect 2 2 10 0;
#X connect 2 3 13 0;
#X connect 2 4 16 0;
#X connect 2 5 19 0;
#X connect 3 0 4 1;
#X connect 3 1 7 1;
#X connect 3 2 10 1;
#X connect 3 3 13 1;
#X connect 3 4 16 1;
#X connect 3 5 19 1;
#X connect 4 0 6 0;
#X connect 6 0 5 0;
#X connect 7 0 9 0;
#X connect 9 0 8 0;
#X connect 10 0 12 0;
#X connect 12 0 11 0;
#X connect 13 0 15 0;
#X connect 15 0 14 0;
#X connect 16 0 18 0;
#X connect 18 0 17 0;
#X connect 19 0 21 0;
#X connect 21 0 20 0;
#X restore 265 403 pd average6;
#X text 393 445 output 3 & 4 are vacant;
#X obj 45 194 adc~ 1 2 3 4;
#X obj 45 228 else/mtx~ 4 6;
#X obj 45 293 clone -d mlrv/chan~ 6;
#X obj 117 326 clone -d mlrv/fx~ 6;
#X obj 318 77 atoms/receive-osc;
#X obj 318 102 scripts/vanilla_ctl;
#N canvas 733 327 450 300 send 0;
#X obj 187 156 atoms/send-osc param;
#X msg 86 121 beat \$1;
#X obj 86 95 + 1;
#X obj 187 70 r global-bpm;
#X msg 187 95 bpm \$1;
#X floatatom 297 60 5 0 0 0 - - - 0;
#X obj 286 105 s global-bpm-bar;
#X msg 297 129 bar_size \$1;
#X obj 86 70 r master-beat;
#X connect 1 0 0 0;
#X connect 2 0 1 0;
#X connect 3 0 4 0;
#X connect 4 0 0 0;
#X connect 5 0 6 0;
#X connect 5 0 7 0;
#X connect 7 0 0 0;
#X connect 8 0 2 0;
#X restore 508 380 pd send;
#X connect 0 0 26 0;
#X connect 2 0 8 0;
#X connect 3 0 4 0;
#X connect 3 0 7 0;
#X connect 4 0 5 0;
#X connect 6 0 27 1;
#X connect 7 0 6 0;
#X connect 8 0 11 0;
#X connect 9 0 10 0;
#X connect 9 1 10 1;
#X connect 9 2 10 2;
#X connect 9 3 10 3;
#X connect 11 0 9 0;
#X connect 12 0 13 0;
#X connect 13 0 14 0;
#X connect 14 0 11 1;
#X connect 15 0 9 0;
#X connect 16 0 17 0;
#X connect 18 0 19 0;
#X connect 18 1 19 1;
#X connect 18 2 19 2;
#X connect 18 3 19 3;
#X connect 18 4 19 4;
#X connect 18 5 19 5;
#X connect 22 0 21 2;
#X connect 22 1 21 3;
#X connect 22 2 21 4;
#X connect 22 3 21 5;
#X connect 22 4 21 6;
#X connect 22 5 21 7;
#X connect 24 0 25 0;
#X connect 24 1 25 1;
#X connect 24 2 25 2;
#X connect 24 3 25 3;
#X connect 25 0 0 0;
#X connect 25 1 0 1;
#X connect 25 2 0 2;
#X connect 25 3 0 3;
#X connect 25 4 0 4;
#X connect 25 5 0 5;
#X connect 26 0 18 0;
#X connect 26 0 27 0;
#X connect 26 1 27 0;
#X connect 27 0 21 0;
#X connect 27 0 22 0;
#X connect 27 1 21 1;
#X connect 27 1 22 1;
#X connect 28 0 29 0;
