#N canvas 962 48 956 1000 12;
#X obj 55 99 adc~ 1;
#X obj 55 154 else/mtx~ 6 6;
#X obj 55 179 snake~ in 6, f 13;
#X obj 108 297 dac~;
#X obj 182 43 notein 1;
#X obj 182 68 pack;
#X obj 182 153 scripts/grid_sampler 6;
#X obj 182 178 route io_matrix seq;
#X obj 193 99 macros/seq-bank;
#X obj 32 38 atoms/global-bpm;
#X obj 257 127 r master-beat;
#X obj 333 188 noteout;
#X obj 131 339 loadbang;
#X msg 131 364 \; pd dsp 1;
#X obj 217 359 samplerate~;
#X obj 217 384 v sr;
#X obj 378 122 hradio 20 1 0 8 empty empty empty 0 -10 0 12 #fcfcfc #000000 #000000 0;
#X msg 378 147 clear \$1;
#X obj 55 234 clone -d mlrv/chan~ 6;
#X obj 55 261 clone -di mlrv/fx~ 6;
#X obj 279 300 scripts/multichannel_state 6 fx;
#X msg 279 274 dump;
#X connect 0 0 1 0;
#X connect 1 0 2 0;
#X connect 1 1 2 1;
#X connect 1 2 2 2;
#X connect 1 3 2 3;
#X connect 1 4 2 4;
#X connect 1 5 2 5;
#X connect 2 0 18 0;
#X connect 4 0 5 0;
#X connect 4 1 5 1;
#X connect 5 0 6 0;
#X connect 5 0 8 0;
#X connect 6 0 7 0;
#X connect 6 1 11 0;
#X connect 7 0 1 0;
#X connect 7 1 8 1;
#X connect 7 2 18 1;
#X connect 8 0 6 0;
#X connect 10 0 6 1;
#X connect 12 0 13 0;
#X connect 12 0 14 0;
#X connect 12 0 21 0;
#X connect 14 0 15 0;
#X connect 16 0 17 0;
#X connect 17 0 6 0;
#X connect 18 0 19 0;
#X connect 18 1 6 2;
#X connect 19 0 3 0;
#X connect 19 1 3 1;
#X connect 20 0 19 1;
#X connect 21 0 20 0;
