#N canvas 1084 0 833 956 12;
#X obj 35 259 adc~ 1;
#X obj 35 314 else/mtx~ 6 6;
#X obj 35 339 snake~ in 6, f 13;
#X obj 88 457 dac~;
#X obj 162 203 notein 1;
#X obj 162 228 pack;
#X obj 162 313 scripts/grid_sampler 6;
#X obj 162 338 route io_matrix seq;
#X obj 173 259 macros/seq-bank;
#X obj 19 18 atoms/global-bpm;
#X obj 237 287 r master-beat;
#X obj 313 348 noteout;
#X obj 111 499 loadbang;
#X msg 111 524 \; pd dsp 1;
#X obj 197 519 samplerate~;
#X obj 197 544 v sr;
#X obj 35 394 clone -d mlrv/chan~ 6;
#X obj 35 421 clone -di mlrv/fx~ 6;
#X obj 259 460 scripts/multichannel_state 6 fx;
#X msg 259 434 dump;
#X text 327 255 TODO: sequencer diz qual pagina;
#X text 400 137 SAVE/LOAD Project \; fx params \; ch. params \; salvar os samples em arquivo \;;
#X obj 19 84 atoms/click~;
#X text 406 1 FOR UI \; vol. click + sel. output \; tap-tempo \; bar size \; sel. output (1 \, 2 \, 3..) \; direct. out on/off (per CHANNEL) \; fx params (agrupar legal) \; ch. params \;;
#X obj 19 135 demux~ . . . .;
#X obj 19 160 dac~ 1 2 3 4, f 14;
#X obj 19 109 *~;
#X obj 165 78 r click;
#X msg 165 103 \$1 5;
#X obj 165 128 line~;
#X obj 132 155 r click-output;
#X obj 239 42 atoms/panel-input;
#X obj 451 345 atoms/send-osc navigate;
#X msg 451 320 grid/home;
#X obj 480 741 atoms/send-osc param;
#X msg 428 644 beat \$1;
#X obj 428 593 r global-beat-count;
#X obj 428 618 + 1;
#X obj 568 593 r global-bpm;
#X msg 568 618 bpm \$1;
#X floatatom 637 631 5 0 0 0 - - - 0;
#X obj 685 664 s global-bpm-bar;
#X msg 596 668 bar_size \$1;
#X obj 534 292 bng 20 250 50 0 empty empty empty 0 -10 0 12 #fcfcfc #000000 #000000;
#X obj 534 317 atoms/send-osc reset;
#X obj 337 681 atoms/filename;
#X msg 337 706 filename \$1;
#X connect 0 0 1 0;
#X connect 1 0 2 0;
#X connect 1 1 2 1;
#X connect 1 2 2 2;
#X connect 1 3 2 3;
#X connect 1 4 2 4;
#X connect 1 5 2 5;
#X connect 2 0 16 0;
#X connect 4 0 5 0;
#X connect 4 1 5 1;
#X connect 5 0 6 0;
#X connect 5 0 8 0;
#X connect 6 0 7 0;
#X connect 6 1 11 0;
#X connect 7 0 1 0;
#X connect 7 1 8 1;
#X connect 7 2 16 1;
#X connect 8 0 6 0;
#X connect 9 0 22 0;
#X connect 10 0 6 1;
#X connect 12 0 13 0;
#X connect 12 0 14 0;
#X connect 12 0 19 0;
#X connect 14 0 15 0;
#X connect 16 0 17 0;
#X connect 16 1 6 2;
#X connect 17 0 3 0;
#X connect 17 1 3 1;
#X connect 18 0 17 1;
#X connect 19 0 18 0;
#X connect 22 0 26 0;
#X connect 24 0 25 0;
#X connect 24 1 25 1;
#X connect 24 2 25 2;
#X connect 24 3 25 3;
#X connect 26 0 24 0;
#X connect 27 0 28 0;
#X connect 28 0 29 0;
#X connect 29 0 26 1;
#X connect 30 0 24 0;
#X connect 33 0 32 0;
#X connect 35 0 34 0;
#X connect 36 0 37 0;
#X connect 37 0 35 0;
#X connect 38 0 39 0;
#X connect 39 0 34 0;
#X connect 40 0 41 0;
#X connect 40 0 42 0;
#X connect 42 0 34 0;
#X connect 43 0 44 0;
#X connect 45 0 46 0;
#X connect 46 0 34 0;
