#N struct 1858-cell float x float y float cellsize float color;
#N canvas 894 0 1023 956 12;
#X obj 27 273 clone -d mlrv/chan~ 6;
#X obj 27 301 clone -di mlrv/fx~ 6;
#X obj 27 437 output~;
#N canvas 1171 570 436 349 (subpatch) 0;
#X obj 11 13 cnv 20 127 150 empty empty 1\ \ 2\ \ 3\ \ 4\ \ 1\ \ 2 4 22 0 12 #e0e0e0 #404040 0;
#X obj 141 282 snake~ in 6;
#X obj 112 177 adc~ 1 2 3 4;
#X obj 14 41 else/mtx.ctl 6 6 20 0 0 0 0 0 0 0 0 0 0 0 0;
#X obj 211 176 inlet~;
#X obj 261 176 inlet~;
#X obj 141 307 outlet~;
#X obj 36 13 cnv 15 15 15 empty empty adc~ 4 8 0 12 #e0e0e0 #404040 0;
#X obj 90 13 cnv 15 15 15 empty empty inlet~ 4 8 0 12 #e0e0e0 #404040 0;
#X obj 141 247 else/mtx~ 6 6;
#X obj 331 94 inlet;
#X connect 1 0 6 0;
#X connect 2 0 9 0;
#X connect 2 1 9 1;
#X connect 2 2 9 2;
#X connect 2 3 9 3;
#X connect 3 0 9 0;
#X connect 4 0 9 4;
#X connect 5 0 9 5;
#X connect 9 0 1 0;
#X connect 9 1 1 1;
#X connect 9 2 1 2;
#X connect 9 3 1 3;
#X connect 9 4 1 4;
#X connect 9 5 1 5;
#X connect 10 0 3 0;
#X coords 0 1 100 -1 129 156 2 10 10;
#X restore 27 99 graph;
#X obj 234 155 r master-beat;
#X obj 261 250 noteout 1;
#X obj 184 301 r fx;
#X obj 171 154 r core;
#X obj 29 545 atoms/global-bpm;
#X obj 29 593 hradio 20 1 0 4 empty empty empty 0 -10 0 12 #fcfcfc #000000 #000000 0;
#X obj 29 618 atoms/click~;
#X obj 29 644 output~;
#X obj 19 763 catch~ verb-L;
#X obj 29 792 catch~ verb-R;
#X obj 19 822 else/giga.rev~, f 15;
#X obj 141 725 vradio 15 1 0 10 empty empty empty 0 -8 0 10 #dcdcdc #000000 #000000 0;
#N canvas 729 186 712 728 presets 0;
#X obj 73 21 inlet;
#X obj 88 576 s \$0-set;
#X obj 103 516 s \$0-set;
#X obj 118 453 s \$0-set;
#X obj 134 393 s \$0-set;
#X text 145 577 bathroom;
#X text 162 518 living room;
#X msg 73 608 size 40 \, decay 4 \, damp 0.9 \, bw 0.75 \, dry 1 \, early 0.795 \, late 0.04, f 66;
#X obj 73 633 s \$0-set;
#X text 130 634 "quick fix";
#X obj 149 333 s \$0-set;
#X obj 164 277 s \$0-set;
#X text 234 217 Last row of the church;
#X msg 180 194 size 200 \, decay 9 \, damp 0.7 \, bw 0.8 \, dry 0.1 \, early 0.18 \, late 0.4, f 66;
#X obj 180 216 s \$0-set;
#X obj 195 163 s \$0-set;
#X obj 210 109 s \$0-set;
#X obj 73 62 select 0 1 2 3 4 5 6 7 8 9;
#X msg 118 427 size 50 \, decay 1.5 \, damp 0.1 \, bw 0.75 \, dry 0.84 \, early 0.31 \, late 0.1, f 69;
#X text 179 453 Bright \, small hall;
#X msg 134 369 size 40 \, decay 20 \, damp 0.5 \, bw 0.75 \, dry 1 \, early 0.31 \, late 0.031, f 67;
#X text 191 395 Nice hall effect;
#X msg 149 309 size 6 \, decay 15 \, damp 0.9 \, bw 0.1 \, dry 0.31 \, early 0.31 \, late 0.31, f 67;
#X text 207 333 Singing in the Sewer;
#X text 220 278 church;
#X text 251 164 cathedral;
#X text 264 110 canyon;
#X msg 210 86 size 300 \, decay 103 \, damp 0.43 \, bw 0.51 \, dry 0.55 \, early 0.05 \, late 0.1, f 71;
#X msg 195 141 size 143 \, decay 7 \, damp 0.71 \, bw 0.34 \, dry 0.7 \, early 0.28 \, late 0.35, f 69;
#X msg 164 252 size 80 \, decay 4.85 \, damp 0.41 \, bw 0.69 \, dry 0.7 \, early 0.35 \, late 0.28, f 71;
#X msg 103 492 size 16 \, decay 1.24 \, damp 0.18 \, bw 0.95 \, dry 0.7 \, early 0.18 \, late 0.14, f 71;
#X msg 88 550 size 5 \, decay 0.6 \, damp 0.62 \, bw 0.48 \, dry 0.5 \, early 0.25 \, late 0.25, f 69;
#X obj 328 679 outlet;
#X obj 328 648 r \$0-set;
#X connect 0 0 17 0;
#X connect 7 0 8 0;
#X connect 13 0 14 0;
#X connect 17 0 7 0;
#X connect 17 1 31 0;
#X connect 17 2 30 0;
#X connect 17 3 18 0;
#X connect 17 4 20 0;
#X connect 17 5 22 0;
#X connect 17 6 29 0;
#X connect 17 7 13 0;
#X connect 17 8 28 0;
#X connect 17 9 27 0;
#X connect 18 0 3 0;
#X connect 20 0 4 0;
#X connect 22 0 10 0;
#X connect 27 0 16 0;
#X connect 28 0 15 0;
#X connect 29 0 11 0;
#X connect 30 0 2 0;
#X connect 31 0 1 0;
#X connect 33 0 32 0;
#X restore 141 887 pd presets;
#X text 161 740 - bathroom, f 13;
#X text 161 724 - "quick fix";
#X text 161 755 - living room;
#X text 161 815 - church;
#X text 161 800 - singing in the Sewer;
#X text 161 786 - nice hall effect;
#X text 161 770 - bright \, small hall;
#X text 161 830 - last row of the church;
#X text 161 845 - cathedral;
#X text 161 860 - canyon;
#X obj 19 849 output~;
#N canvas 559 173 460 546 fx-gui 0;
#X obj 20 20 panels/slider volume fx-ctrl 0 1 3 1 0 0 volume;
#X obj 20 68 panels/slider pan fx-ctrl 0 1 1 1 0 0 pan;
#X obj 20 116 panels/slider verb fx-ctrl 0 1 3 1 0 0 verb;
#X obj 20 164 panels/slider drive/gain fx-ctrl 0 100 1 1 0 0 drive gain;
#X obj 20 212 panels/slider chorus/level fx-ctrl 0 1 1 1 0 0 chorus level;
#X obj 20 260 panels/slider chorus/depth fx-ctrl 2 12 1 1 0 0 chorus depth;
#X obj 20 308 panels/slider chorus/rate fx-ctrl 0 1 2 18 0 0 chorus rate;
#X obj 20 356 panels/slider crusher/quant fx-ctrl 0 1 4 1 0 0 crusher quant;
#X obj 20 404 panels/slider crusher/downsamp fx-ctrl 0 1 3 1 0 0 crusher downsamp;
#X obj 20 452 panels/slider crusher/interp fx-ctrl 0 1 1 1 1 0 crusher interp;
#X obj 160 20 panels/slider delay/dry fx-ctrl 0 1 3 1 0 0 delay dry;
#X obj 160 68 panels/slider delay/level fx-ctrl 0 1 3 1 0 0 delay level;
#X obj 160 116 panels/slider delay/feedback fx-ctrl 0 1 3 1 0 0 delay feedback;
#X obj 160 164 panels/slider delay/time fx-ctrl 0 1 2 2000 0 0 delay time;
#X obj 160 212 panels/slider delay/modInt fx-ctrl 0 1 2 12 0 0 delay modInt;
#X obj 160 260 panels/slider delay/modRate fx-ctrl 0 10 1 1 0 0 delay modRate;
#X obj 160 308 panels/slider delay/lp fx-ctrl 0 1 3 21000 0 0 delay lp;
#X obj 160 356 panels/slider delay/hp fx-ctrl 0 1 3 21000 0 0 delay hp;
#X obj 160 404 panels/slider delay/pitch fx-ctrl -24 24 1 1 1 0 delay pitch;
#X obj 160 452 panels/slider delay/magic fx-ctrl 0 1 3 1 0 0 delay magic;
#X obj 300 20 panels/slider filter/cutoff fx-ctrl 0.001 1 3 21000 0 0 filter cutoff;
#X obj 300 68 panels/slider filter/q fx-ctrl 0.5 4 1 1 0 0 filter q;
#X obj 300 116 panels/slider lfo/rate fx-ctrl 0 25 1 1 0 0 lfo rate;
#X obj 300 164 panels/slider lfo/target fx-ctrl 0 4 1 1 1 0 lfo target;
#X obj 300 212 panels/slider lfo/wave fx-ctrl 0 5 1 1 1 0 lfo wave;
#X obj 300 260 panels/slider lfo/sr-seq fx-ctrl 1 64 1 1 1 0 lfo sr-seq;
#X obj 300 308 panels/slider lfo/depth fx-ctrl 0 1 1 1 0 0 lfo depth;
#X coords 0 -1 1 1 431 494 2 10 10;
#X restore 344 115 pd fx-gui;
#N canvas 740 431 418 333 (subpatch) 0;
#X obj 14 30 hradio 20 1 0 6 empty empty FX\ channel 0 -10 0 12 #fcfcfc #000000 #000000 0;
#X obj 204 174 r fx-ctrl;
#X obj 14 106 + 1;
#X obj 14 198 unpack s f;
#X obj 14 294 send, f 5;
#X obj 14 267 f;
#X obj 14 223 t b s;
#X obj 204 206 list prepend 0;
#X obj 14 164 route list;
#X obj 14 60 t f f;
#X obj 157 75 r raw-values;
#X obj 204 239 s fx;
#X obj 166 17 s selected-fx;
#X obj 14 137 scripts/multichannel_state 6 fx;
#X obj 274 65 loadbang;
#X obj 274 90 atoms/num-seq 6;
#X connect 0 0 9 0;
#X connect 0 0 12 0;
#X connect 1 0 7 0;
#X connect 2 0 13 0;
#X connect 3 0 6 0;
#X connect 3 1 5 1;
#X connect 5 0 4 0;
#X connect 6 0 5 0;
#X connect 6 1 4 1;
#X connect 7 0 11 0;
#X connect 8 0 3 0;
#X connect 9 0 2 0;
#X connect 9 1 7 1;
#X connect 10 0 13 0;
#X connect 13 0 8 0;
#X connect 14 0 15 0;
#X connect 15 0 0 0;
#X coords 0 1 100 -1 129 45 1 10 10;
#X restore 344 14 graph;
#N canvas 325 565 512 257 (subpatch) 0;
#X obj 20 27 tgl 20 0 empty drive_sw drive -5 -7 0 12 #fcfcfc #000000 #000000 0 1;
#X obj 66 27 tgl 20 0 empty crusher_sw crusher -10 -7 0 12 #fcfcfc #000000 #000000 0 1;
#X obj 116 27 tgl 20 0 empty filter_sw filter -7 -7 0 12 #fcfcfc #000000 #000000 0 1;
#X obj 205 27 tgl 20 0 empty verb_sw reverb -10 -7 0 12 #fcfcfc #000000 #000000 0 1;
#X obj 161 27 tgl 20 0 empty delay_sw delay -5 -7 0 12 #fcfcfc #000000 #000000 0 1;
#X msg 20 128 drive_sw \$1;
#X obj 177 210 s fx-ctrl;
#X msg 66 102 crusher_sw \$1;
#X msg 116 73 filter_sw \$1;
#X msg 161 134 delay_sw \$1;
#X msg 205 106 verb_sw \$1;
#X obj 378 42 r reset_sw;
#X msg 378 67 set 0;
#X obj 250 27 tgl 20 0 empty chorus_sw chorus -10 -7 0 12 #fcfcfc #000000 #000000 0 1;
#X msg 250 134 chorus_sw \$1;
#X obj 66 214 s raw-values;
#X obj 66 190 list;
#X connect 0 0 5 0;
#X connect 1 0 7 0;
#X connect 2 0 8 0;
#X connect 3 0 10 0;
#X connect 4 0 9 0;
#X connect 5 0 6 0;
#X connect 5 0 16 0;
#X connect 7 0 6 0;
#X connect 7 0 16 0;
#X connect 8 0 6 0;
#X connect 8 0 16 0;
#X connect 9 0 6 0;
#X connect 9 0 16 0;
#X connect 10 0 6 0;
#X connect 10 0 16 0;
#X connect 11 0 12 0;
#X connect 12 0 3 0;
#X connect 12 0 4 0;
#X connect 12 0 2 0;
#X connect 12 0 1 0;
#X connect 12 0 0 0;
#X connect 12 0 13 0;
#X connect 13 0 14 0;
#X connect 14 0 6 0;
#X connect 14 0 16 0;
#X connect 16 0 15 0;
#X coords 0 1 100 -1 274 42 1 10 10;
#X restore 344 66 graph;
#X obj 630 61 scripts/gen_panel;
#X obj 630 36 bng 20 250 50 0 empty empty empty 0 -10 0 12 #fcfcfc #000000 #000000;
#X obj 630 86 s pd-fx-gui;
#X obj 797 416 hradio 20 1 0 4 empty empty empty 0 -10 0 12 #fcfcfc #000000 #000000 0;
#X obj 883 416 tgl 20 0 empty empty dotted 22 10 0 12 #fcfcfc #000000 #000000 0 1;
#X obj 797 362 hradio 20 1 0 4 empty empty empty 0 -10 0 12 #fcfcfc #000000 #000000 0;
#X obj 883 362 tgl 20 0 empty empty dotted 22 10 0 12 #fcfcfc #000000 #000000 0 1;
#X obj 171 36 notein 1;
#X obj 171 64 pack, f 8;
#X obj 171 90 s core;
#X obj 17 68 macros/harpsichord~;
#X obj 730 790 s core;
#X obj 741 734 hradio 20 1 0 6 empty empty empty 0 -10 0 12 #fcfcfc #000000 #000000 0;
#X msg 741 759 clear \$1;
#N canvas 509 87 450 300 len 0;
#X msg 31 133 0 \$1;
#X msg 41 155 1 \$1;
#X msg 111 133 2 \$1;
#X msg 121 155 3 \$1;
#X msg 191 133 4 \$1;
#X msg 201 155 5 \$1;
#X obj 161 274 outlet;
#X obj 161 246 list trim;
#X floatatom 85 50 6 0 0 2 length - - 0;
#X floatatom 135 50 6 0 0 0 - - - 0;
#X floatatom 84 74 6 0 0 0 - - - 0;
#X floatatom 134 74 6 0 0 0 - - - 0;
#X floatatom 185 50 6 0 0 0 - - - 0;
#X floatatom 185 74 6 0 0 0 - - - 0;
#X obj 161 219 list prepend length;
#X connect 0 0 14 0;
#X connect 1 0 14 0;
#X connect 2 0 14 0;
#X connect 3 0 14 0;
#X connect 4 0 14 0;
#X connect 5 0 14 0;
#X connect 7 0 6 0;
#X connect 8 0 0 0;
#X connect 9 0 1 0;
#X connect 10 0 3 0;
#X connect 11 0 4 0;
#X connect 12 0 2 0;
#X connect 13 0 5 0;
#X connect 14 0 7 0;
#X coords 0 -1 1 1 154 68 2 80 30;
#X restore 730 659 pd len;
#X obj 171 187 scripts/grid_sampler 6;
#N canvas 733 327 450 398 lfo-ratio 0;
#X obj 73 34 inlet;
#X obj 73 59 expr 1 / pow(2 \, $f1);
#X obj 329 65 inlet;
#X obj 73 121 expr if ($f2 == 0 \, $f1 \, $f1+($f1*.5));
#X obj 255 97 t b f;
#X obj 73 224 s lfo/rate;
#X obj 223 156 r global-bpm;
#X obj 73 146 atoms/mul;
#X msg 73 171 1000 \$1;
#X obj 73 196 /;
#X msg 223 181 60000 \$1;
#X obj 223 206 /;
#X connect 0 0 1 0;
#X connect 1 0 3 0;
#X connect 2 0 4 0;
#X connect 3 0 7 0;
#X connect 4 0 3 0;
#X connect 4 1 3 1;
#X connect 6 0 10 0;
#X connect 7 0 8 0;
#X connect 8 0 9 0;
#X connect 9 0 5 0;
#X connect 10 0 11 0;
#X connect 11 0 7 1;
#X restore 797 386 pd lfo-ratio;
#N canvas 733 327 450 446 delay-ratio 0;
#X obj 73 54 inlet;
#X obj 73 84 expr 1 / pow(2 \, $f1);
#X obj 225 55 inlet;
#X obj 73 121 expr if ($f2 == 0 \, $f1 \, $f1+($f1*.5));
#X obj 225 87 t b f;
#X obj 73 293 s delay/time;
#X obj 168 160 r global-bpm;
#X msg 168 185 60000 \$1;
#X obj 168 210 /;
#X obj 73 168 atoms/mul;
#X obj 73 203 / 2000;
#X obj 73 228 sqrt;
#X connect 0 0 1 0;
#X connect 1 0 3 0;
#X connect 2 0 4 0;
#X connect 3 0 9 0;
#X connect 4 0 3 0;
#X connect 4 1 3 1;
#X connect 6 0 7 0;
#X connect 7 0 8 0;
#X connect 8 0 9 1;
#X connect 9 0 10 0;
#X connect 10 0 11 0;
#X connect 11 0 5 0;
#X restore 797 440 pd delay-ratio;
#X obj 826 142 atoms/k t;
#X obj 826 167 sel 1;
#X obj 826 192 atoms/tap-tempo;
#X obj 826 217 s set-global-bpm;
#X obj 216 122 macros/seq-bank;
#X obj 264 313 print seq;
#X obj 171 213 route seq io_matrix;
#X obj 27 343 atoms/IR~;
#X obj 218 350 else/meter~;
#X obj 27 369 hip~ 400;
#X obj 27 394 hip~ 400;
#X floatatom 185 571 5 0 0 0 - - - 0;
#X obj 185 595 s global-bpm-bar;
#X text 372 636 randomização nos sequencers \; UI do overdub \; modo que ao tocar um slice \, ele muda o trim-start ao invés da fase - qualonome? e sefor qndo length > 0? \; melhorar a matrix do output \; hipass filter no FX \;, f 47;
#X connect 0 0 1 0;
#X connect 0 1 46 2;
#X connect 1 0 56 0;
#X connect 1 1 2 1;
#X connect 3 0 0 0;
#X connect 4 0 46 1;
#X connect 6 0 1 1;
#X connect 7 0 46 0;
#X connect 8 0 9 0;
#X connect 9 0 10 0;
#X connect 10 0 11 0;
#X connect 12 0 14 0;
#X connect 13 0 14 0;
#X connect 14 0 27 0;
#X connect 14 1 27 1;
#X connect 15 0 16 0;
#X connect 16 0 14 0;
#X connect 31 0 33 0;
#X connect 32 0 31 0;
#X connect 34 0 48 0;
#X connect 35 0 48 1;
#X connect 36 0 47 0;
#X connect 37 0 47 1;
#X connect 38 0 39 0;
#X connect 38 1 39 1;
#X connect 39 0 40 0;
#X connect 39 0 53 0;
#X connect 41 0 3 0;
#X connect 43 0 44 0;
#X connect 44 0 42 0;
#X connect 45 0 42 0;
#X connect 46 0 55 0;
#X connect 46 1 5 0;
#X connect 49 0 50 0;
#X connect 50 0 51 0;
#X connect 51 0 52 0;
#X connect 53 0 46 0;
#X connect 55 0 53 1;
#X connect 55 0 54 0;
#X connect 55 1 3 2;
#X connect 55 2 0 1;
#X connect 56 0 58 0;
#X connect 58 0 59 0;
#X connect 59 0 2 0;
#X connect 59 0 57 0;
#X connect 60 0 61 0;
