#N canvas 258 197 477 300 12;
#X declare -path atoms;
#X obj 216 41 r pads;
#X obj 216 144 outlet~;
#X obj 29 45 bng 20 250 50 0 empty empty empty 0 -10 0 12 #fcfcfc #000000 #000000;
#X obj 55 45 bng 20 250 50 0 empty empty empty 0 -10 0 12 #fcfcfc #000000 #000000;
#X obj 29 45 cnv 20 20 20 empty reclbl\$0 REC 1 10 0 10 #d5d7e8 #000000 0;
#X obj 55 45 cnv 20 20 20 empty playlbl\$0 PLAY 1 10 0 8 #9c00ff #ffffff 0;
#X msg 28 131 all rec;
#X msg 45 168 all play;
#X obj 80 45 bng 20 250 50 0 empty empty empty 0 -10 0 12 #fcfcfc #000000 #000000;
#X obj 276 247 s reclbl\$0;
#X obj 326 169 route 0;
#X obj 326 194 route rec play;
#X obj 366 247 s playlbl\$0;
#X obj 20 230 declare -path atoms;
#X obj 216 94 hold 1;
#X obj 216 68 limit-range 0 8;
#X obj 276 222 color-blink;
#X obj 366 222 color-blink;
#X obj 80 90 macros/load-kit;
#X obj 80 45 cnv 20 20 20 empty empty LOAD 1 10 0 9 #d5d7e8 #000000 0;
#X obj 216 121 clone mpc/sample-pad~ 8;
#X connect 0 0 15 0;
#X connect 2 0 6 0;
#X connect 3 0 7 0;
#X connect 6 0 20 0;
#X connect 7 0 20 0;
#X connect 8 0 18 0;
#X connect 10 0 11 0;
#X connect 11 0 16 0;
#X connect 11 1 17 0;
#X connect 14 0 20 0;
#X connect 15 0 14 0;
#X connect 16 0 9 0;
#X connect 17 0 12 0;
#X connect 18 0 20 0;
#X connect 20 0 1 0;
#X connect 20 1 10 0;
#X coords 0 -1 1 1 85 50 1 20 20;
