#N canvas 476 396 652 518 12;
#X msg 193 227 1 \$1 \, 0 \$2 \$1;
#X obj 193 252 vline~;
#X obj 192 281 *~;
#X obj 192 306 delwrite~ \$0b 100;
#X obj 193 460 delread4~ \$0b;
#X msg 193 201 1 1;
#X msg 32 270 \$1;
#X obj 32 295 mtof;
#X obj 32 345 /;
#X msg 32 320 1000 \$1;
#X obj 32 370 sig~;
#X obj 251 122 inlet;
#X obj 251 181 t b f;
#X obj 193 485 outlet~;
#X obj 315 358 *~;
#X msg 333 306 \$1 10;
#X obj 333 331 line~;
#X obj 413 339 pow 3;
#X obj 413 364 * 22000;
#X obj 315 384 lop~ 10000;
#X obj 315 409 lop~ 10000;
#X obj 360 114 inlet~;
#X obj 251 147 route float sustain cutoff;
#X obj 333 237 min 0.9999;
#X obj 333 212 pow 0.1;
#X obj 251 89 block~ 1;
#X obj 453 45 loadbang;
#X msg 453 70 args;
#X obj 453 95 pdcontrol;
#X obj 453 120 route list;
#X obj 453 145 unpack f f f;
#X obj 76 428 atoms/modulate~;
#X connect 0 0 1 0;
#X connect 1 0 2 0;
#X connect 2 0 3 0;
#X connect 4 0 13 0;
#X connect 4 0 14 0;
#X connect 5 0 0 0;
#X connect 6 0 7 0;
#X connect 7 0 9 0;
#X connect 8 0 10 0;
#X connect 9 0 8 0;
#X connect 10 0 31 0;
#X connect 11 0 22 0;
#X connect 12 0 5 0;
#X connect 12 1 6 0;
#X connect 14 0 19 0;
#X connect 15 0 16 0;
#X connect 16 0 14 1;
#X connect 17 0 18 0;
#X connect 18 0 19 1;
#X connect 18 0 20 1;
#X connect 19 0 20 0;
#X connect 20 0 3 0;
#X connect 21 0 2 1;
#X connect 22 0 12 0;
#X connect 22 1 24 0;
#X connect 22 2 17 0;
#X connect 23 0 15 0;
#X connect 24 0 23 0;
#X connect 26 0 27 0;
#X connect 27 0 28 0;
#X connect 28 0 29 0;
#X connect 29 0 30 0;
#X connect 30 1 24 0;
#X connect 30 2 17 0;
#X connect 31 0 4 0;
