#N canvas 998 395 731 558 12;
#X obj 60 485 output~;
#X msg 239 20 next;
#X obj 94 250 pack;
#X msg 195 20 prev;
#X floatatom 345 135 12 0 0 0 - - - 0;
#X obj 260 228 list prepend filter;
#X obj 260 253 list trim;
#X obj 348 84 hsl 170 20 0 135 0 0 empty empty empty -2 -10 0 12 #fcfcfc #000000 #000000 0 1;
#X obj 345 109 mtof;
#X msg 590 110 key \$1;
#X floatatom 590 86 5 0 0 0 - - - 0;
#X floatatom 131 199 5 0 0 0 - - - 0;
#X obj 190 379 reverbs/reverbCH~;
#X obj 183 485 output~;
#X obj 119 321 macros/delay~;
#X obj 94 96 tgl 20 0 empty empty empty 0 -10 0 12 #fcfcfc #000000 #000000 0 1;
#X obj 448 224 hsl 170 20 0 135 0 0 empty empty empty -2 -10 0 12 #fcfcfc #000000 #000000 0 1;
#X msg 340 409 time 400 \, modRate 0.8 \, modInt 4 \, feedback 0.4 \, lp 3000 \, level 0.6, f 34;
#X floatatom 445 250 5 0 0 0 - - - 0;
#X obj 564 166 loadbang;
#X msg 564 191 53;
#X obj 530 64 hsl 50 15 0.5 4 0 0 empty empty empty -2 -10 0 12 #fcfcfc #000000 #000000 0 1;
#X floatatom 527 84 5 0 0 0 - - - 0;
#X msg 527 108 q \$1;
#X msg 345 159 cutoff \$1;
#X obj 593 64 hsl 50 15 0 1 0 0 empty empty empty -2 -10 0 12 #fcfcfc #000000 #000000 0 1;
#X obj 94 144 atoms/rand-seq 110 20 30;
#X floatatom 23 311 5 0 0 0 - - - 0;
#X obj 26 289 hsl 50 15 0 1 0 0 empty empty empty -2 -10 0 12 #fcfcfc #000000 #000000 0 1;
#X msg 23 335 level \$1;
#X msg 202 73 20 30;
#X obj 202 98 atoms/iramp 300;
#X obj 292 23 tgl 20 0 empty empty empty 0 -10 0 12 #fcfcfc #000000 #000000 0 1;
#X obj 292 48 metro 3100;
#X msg 445 274 env_lvl \$1 \, env 20 500 0 100;
#X msg 17 365 time 150;
#X msg 401 28 rate 200 \, steps 32 \, missBy 5 \, amount 2;
#X msg 13 124 get_seed;
#X floatatom 282 144 5 0 0 0 - - - 0;
#X obj 94 198 +;
#X msg 500 467 sawsynth;
#X obj 500 492 atoms/send-osc navigate;
#X obj 349 468 bng 20 250 50 0 empty empty empty 0 -10 0 12 #fcfcfc #000000 #000000;
#X obj 349 493 atoms/send-osc reset;
#X floatatom 18 175 5 0 0 0 - - - 0;
#X msg 325 311 detune 7 \, osc2 1 \, env 10 300 0.3 20 \, filter cutoff 0 \, filter q 2 \, filter key 0.5, f 24;
#X obj 94 225 makenote 1 200;
#X obj 119 284 instruments/sawsynth;
#X obj 94 170 atoms/scale 0 5 7 10;
#X msg 56 53 min 20 \, max 30;
#X msg 31 13 amount 3 \, missBy 20 \, rate 120 \, steps 32, f 20;
#X connect 1 0 26 0;
#X connect 2 0 47 0;
#X connect 3 0 26 0;
#X connect 4 0 24 0;
#X connect 5 0 6 0;
#X connect 6 0 47 1;
#X connect 7 0 8 0;
#X connect 8 0 4 0;
#X connect 9 0 5 0;
#X connect 10 0 9 0;
#X connect 11 0 39 1;
#X connect 12 0 13 0;
#X connect 12 1 13 1;
#X connect 14 0 0 0;
#X connect 14 0 12 0;
#X connect 15 0 26 0;
#X connect 16 0 18 0;
#X connect 17 0 14 0;
#X connect 18 0 34 0;
#X connect 19 0 20 0;
#X connect 20 0 16 0;
#X connect 21 0 22 0;
#X connect 22 0 23 0;
#X connect 23 0 5 0;
#X connect 24 0 5 0;
#X connect 25 0 10 0;
#X connect 26 0 44 0;
#X connect 26 0 48 0;
#X connect 26 2 38 0;
#X connect 27 0 29 0;
#X connect 28 0 27 0;
#X connect 29 0 14 0;
#X connect 30 0 31 0;
#X connect 31 0 48 0;
#X connect 32 0 33 0;
#X connect 33 0 30 0;
#X connect 34 0 5 0;
#X connect 35 0 14 0;
#X connect 36 0 26 0;
#X connect 37 0 26 0;
#X connect 39 0 46 0;
#X connect 40 0 41 0;
#X connect 42 0 43 0;
#X connect 45 0 47 1;
#X connect 46 0 2 0;
#X connect 46 1 2 1;
#X connect 47 0 14 0;
#X connect 48 0 39 0;
#X connect 49 0 26 0;
#X connect 50 0 26 0;
