#N canvas 633 262 598 551 12;
#X declare -path sawsynth;
#X obj 133 382 *~;
#X obj 133 448 outlet~;
#X obj 261 312 loadbang;
#X obj 261 362 /;
#X obj 123 46 inlet;
#X obj 87 241 pack f f f;
#X obj 87 216 poly 8 1, f 10;
#X msg 261 337 1 8;
#X obj 186 175 inlet;
#X obj 267 237 list prepend all;
#X obj 267 262 list trim;
#X obj 186 269 sig~;
#X obj 186 205 route detune;
#X obj 186 242 / 100;
#X obj 207 410 output~;
#X obj 287 25 declare -path sawsynth;
#X obj 87 102 scripts/sequencer;
#X msg 201 72 rec;
#X msg 235 72 stop;
#X msg 275 72 play;
#X obj 87 130 route list;
#X obj 231 131 route rec play;
#X obj 270 103 tgl 20 0 empty empty empty 0 -10 0 12 #fcfcfc #000000 #000000 0 1;
#X obj 313 103 tgl 20 0 empty empty empty 0 -10 0 12 #fcfcfc #000000 #000000 0 1;
#X obj 133 307 clone -s 1 sawsynth-voice 8, f 16;
#X obj 409 165 theme;
#X msg 409 140 symbol neon_abyss;
#X connect 0 0 1 0;
#X connect 0 0 14 0;
#X connect 2 0 7 0;
#X connect 3 0 0 1;
#X connect 4 0 6 0;
#X connect 4 0 16 0;
#X connect 5 0 24 0;
#X connect 6 0 5 0;
#X connect 6 1 5 1;
#X connect 6 2 5 2;
#X connect 7 0 3 0;
#X connect 8 0 12 0;
#X connect 9 0 10 0;
#X connect 10 0 24 2;
#X connect 11 0 24 1;
#X connect 12 0 13 0;
#X connect 12 1 9 0;
#X connect 13 0 11 0;
#X connect 16 0 20 0;
#X connect 16 1 21 0;
#X connect 17 0 16 1;
#X connect 18 0 16 1;
#X connect 19 0 16 1;
#X connect 20 0 6 0;
#X connect 21 0 22 0;
#X connect 21 1 23 0;
#X connect 24 0 0 0;
#X connect 26 0 25 0;
