#N canvas 733 327 744 455 12;
#N canvas 0 50 450 250 (subpatch) 0;
#X array ar 69632 float 2;
#X coords 0 1 69632 -1 159 69 1;
#X restore 102 82 graph;
#X obj 280 197 atoms/load-file ar;
#X obj 101 254 atoms/table-reader~ ar;
#X obj 101 279 output~;
#X obj 101 177 hradio 20 1 0 8 empty empty empty 0 -10 0 12 #fcfcfc #000000 #000000 0;
#X obj 101 202 / 8;
#X obj 333 167 bng 20 250 50 0 empty empty empty 0 -10 0 12 #fcfcfc #000000 #000000;
#X obj 104 154 hsl 155 20 0 1 0 0 empty empty empty -2 -10 0 12 #fcfcfc #000000 #000000 0 1;
#X obj 15 135 else/s2f~;
#X obj 101 229 atoms/seek-head~;
#X floatatom 300 249 5 0 0 0 - - - 0;
#X obj 178 367 atoms/scratch-head~;
#N canvas 0 50 450 250 (subpatch) 0;
#X array ar2 69632 float 2;
#X coords 0 1 69632 -1 159 69 1;
#X restore 429 98 graph;
#X obj 431 170 hsl 155 20 0 1 0 0 empty empty empty -2 -10 0 12 #fcfcfc #000000 #000000 0 1;
#X obj 428 245 atoms/scratch-head~;
#X obj 428 270 atoms/table-reader~ ar2;
#X obj 663 214 bng 20 250 50 0 empty empty empty 0 -10 0 12 #fcfcfc #000000 #000000;
#X obj 598 238 atoms/load-file ar2;
#X obj 428 295 output~;
#X floatatom 609 196 5 0 0 0 - - - 0;
#X connect 1 0 2 3;
#X connect 1 0 9 1;
#X connect 2 0 3 0;
#X connect 4 0 5 0;
#X connect 5 0 9 0;
#X connect 6 0 1 1;
#X connect 8 0 7 0;
#X connect 9 0 2 0;
#X connect 9 0 8 0;
#X connect 10 0 9 2;
#X connect 13 0 14 0;
#X connect 14 0 15 0;
#X connect 14 1 13 0;
#X connect 15 0 18 0;
#X connect 16 0 17 1;
#X connect 17 0 14 1;
#X connect 17 0 15 3;
#X connect 19 0 14 2;
