#N canvas 796 498 743 492 12;
#X obj 449 26 table \$1smp;
#X obj 146 420 outlet~;
#X obj 146 361 *~;
#X obj 48 79 macros/audio-rec~ \$1smp, f 13;
#X obj 48 47 inlet~;
#X obj 367 342 lop~ 5;
#X obj 318 372 *~;
#X obj 318 425 outlet;
#X obj 146 334 atoms/table-reader~ \$1smp;
#X obj 342 30 inlet;
#X obj 251 46 inlet~;
#X obj 211 243 mux~;
#X obj 433 87 tgl 20 0 empty empty empty 0 -10 0 12 #fcfcfc #000000 #000000 0 1;
#N canvas 745 583 450 407 pimp-mul 0;
#X obj 99 53 inlet~;
#X obj 205 54 inlet;
#X obj 99 316 else/pimpmul~;
#X obj 205 112 route bang;
#X obj 205 140 spigot;
#X obj 187 209 f;
#X obj 205 180 atoms/count;
#X obj 99 341 outlet~;
#X obj 346 108 sel 1 0;
#X obj 314 78 t f f;
#X msg 279 154 0;
#X msg 187 237 1 \$1;
#X obj 187 262 /;
#X msg 288 265 1 \$1;
#X obj 288 290 /;
#X obj 187 289 atoms/mul 1;
#X obj 314 53 r \$0rec;
#X obj 288 240 r \$0length;
#X connect 0 0 2 0;
#X connect 1 0 3 0;
#X connect 2 0 7 0;
#X connect 3 0 4 0;
#X connect 4 0 6 0;
#X connect 5 0 11 0;
#X connect 6 0 5 1;
#X connect 8 0 10 0;
#X connect 8 1 5 0;
#X connect 9 0 4 1;
#X connect 9 1 8 0;
#X connect 10 0 6 1;
#X connect 11 0 12 0;
#X connect 12 0 15 0;
#X connect 13 0 14 0;
#X connect 14 0 15 1;
#X connect 15 0 2 1;
#X connect 16 0 9 0;
#X connect 17 0 13 0;
#X restore 236 104 pd pimp-mul;
#X obj 524 115 lua-scripts/sample_trimmer, f 19;
#X obj 433 113 s \$0sync;
#X obj 141 188 r \$0sync;
#X obj 48 124 s \$0size;
#X obj 232 306 r \$0size;
#N canvas 735 399 450 300 ramp2lights 0;
#X obj 172 122 else/s2f~;
#X obj 172 147 * 8;
#X obj 172 172 i;
#X obj 172 197 change;
#X obj 172 222 outlet;
#X obj 172 96 inlet~;
#X connect 0 0 1 0;
#X connect 1 0 2 0;
#X connect 2 0 3 0;
#X connect 3 0 4 0;
#X connect 5 0 0 0;
#X restore 318 399 pd ramp2lights;
#N canvas 738 507 450 300 unsyncd_head 0;
#X obj 117 138 atoms/smp-size2hz;
#X obj 117 169 phasor~;
#X obj 117 194 outlet~;
#X obj 117 105 r \$0size;
#X obj 267 176 inlet;
#X obj 233 105 r \$0length;
#X connect 0 0 1 0;
#X connect 1 0 2 0;
#X connect 3 0 0 0;
#X connect 4 0 1 1;
#X connect 5 0 0 2;
#X restore 211 210 pd unsyncd_head;
#X obj 342 89 s \$0rec;
#X obj 136 46 r \$0rec;
#X obj 387 146 s \$0play;
#X obj 367 190 r \$0play;
#X obj 654 162 s \$0length;
#X obj 524 161 s \$0start;
#N canvas 735 399 450 300 trim 0;
#X obj 137 81 inlet~;
#X obj 137 106 *~ 1;
#X obj 137 131 +~;
#X obj 137 156 outlet~;
#X obj 200 124 r \$0start;
#X obj 201 97 r \$0length;
#X connect 0 0 1 0;
#X connect 1 0 2 0;
#X connect 2 0 3 0;
#X connect 4 0 2 1;
#X connect 5 0 1 1;
#X restore 211 275 pd trim;
#X obj 367 217 unpack f f;
#X obj 342 59 route rec play sync reverse range;
#X connect 2 0 1 0;
#X connect 3 0 17 0;
#X connect 4 0 3 0;
#X connect 5 0 2 1;
#X connect 5 0 6 1;
#X connect 6 0 19 0;
#X connect 8 0 2 0;
#X connect 9 0 29 0;
#X connect 10 0 13 0;
#X connect 10 1 13 1;
#X connect 11 0 27 0;
#X connect 12 0 15 0;
#X connect 13 0 11 1;
#X connect 14 0 26 0;
#X connect 14 1 25 0;
#X connect 16 0 11 0;
#X connect 18 0 8 1;
#X connect 19 0 7 0;
#X connect 20 0 11 0;
#X connect 22 0 3 1;
#X connect 24 0 28 0;
#X connect 27 0 8 0;
#X connect 27 0 6 0;
#X connect 28 0 5 0;
#X connect 28 1 20 0;
#X connect 29 0 21 0;
#X connect 29 1 23 0;
#X connect 29 2 12 0;
#X connect 29 4 14 0;
