#N struct 1535-cell float x float y float cellsize float color;
#N struct 1536-cell float x float y float cellsize float color;
#N canvas 958 0 959 956 12;
#X declare -path SSD;
#X obj 653 483 atoms/bpm2hz;
#X text 1 20 ..//::SuperSamplerDestroyer::\\\\..;
#X text 6 38 ~*Depending on BDSM \; Binary Damage State Machine*~;
#X obj 460 841 output~;
#X obj 653 594 atoms/click~;
#X obj 653 523 hradio 20 1 0 4 empty empty empty 0 -10 0 12 #fcfcfc #000000 #000000 0;
#X obj 497 10 declare -path SSD;
#N canvas 198 347 623 438 core 0;
#X obj 119 109 else/pimp~;
#X obj 187 136 else/trig2bang~;
#X obj 240 238 lua-scripts/BDSM;
#X obj 436 78 notein 1;
#X msg 127 230 all bang;
#X msg 395 239 1;
#X obj 349 264 noteout;
#X obj 395 214 loadbang;
#X obj 47 258 clone -d SSD-strip~ 8;
#X obj 47 323 outlet~;
#X obj 47 53 inlet~;
#X obj 119 53 inlet;
#X obj 251 331 outlet;
#X obj 436 134 lua-scripts/sequencer;
#X obj 436 106 pack, f 8;
#X obj 480 165 route rec play;
#X obj 480 190 tgl 20 0 empty empty empty 0 -10 0 12 #fcfcfc #000000 #000000 0 1;
#X obj 527 190 tgl 20 0 empty empty empty 0 -10 0 12 #fcfcfc #000000 #000000 0 1;
#X obj 335 99 r core;
#X obj 251 305 atoms/ramp2slice 4;
#X obj 505 89 r slice-seq;
#X connect 0 0 19 0;
#X connect 0 0 8 1;
#X connect 0 1 1 0;
#X connect 1 0 4 0;
#X connect 1 0 2 1;
#X connect 2 0 8 2;
#X connect 2 1 6 0;
#X connect 3 0 14 0;
#X connect 3 1 14 1;
#X connect 4 0 8 1;
#X connect 5 0 6 2;
#X connect 7 0 5 0;
#X connect 8 0 9 0;
#X connect 8 1 2 2;
#X connect 10 0 8 0;
#X connect 11 0 0 0;
#X connect 13 0 2 0;
#X connect 13 1 15 0;
#X connect 14 0 13 0;
#X connect 14 0 2 0;
#X connect 15 0 16 0;
#X connect 15 1 17 0;
#X connect 18 0 2 0;
#X connect 19 0 12 0;
#X connect 20 0 13 1;
#X restore 469 503 pd core;
#X obj 460 739 clone -di fx~ 8;
#X obj 583 739 catch~ verb-L;
#X obj 593 768 catch~ verb-R;
#X obj 464 41 lua-scripts/gen_panel;
#X obj 464 16 bng 20 250 50 0 empty empty empty 0 -10 0 12 #fcfcfc #000000 #000000;
#N canvas 519 462 343 492 fx-gui 0;
#X obj 20 20 panels/slider volume 0 1 3 1 0 0 volume;
#X obj 20 68 panels/slider pan 0 1 1 1 0 0 pan;
#X obj 20 116 panels/slider verb 0 1 3 1 0 0 verb;
#X obj 20 164 panels/slider drive/gain 0 100 1 1 0 0 drive gain;
#X obj 20 212 panels/slider chorus/level 0 1 1 1 0 0 chorus level;
#X obj 20 260 panels/slider chorus/depth 2 20 1 1 0 0 chorus depth;
#X obj 20 308 panels/slider chorus/rate 0 1 2 18 0 0 chorus rate;
#X obj 20 356 panels/slider chorus/waveform 0 1 1 1 0 0 chorus waveform;
#X obj 20 404 panels/slider crusher/quant 0 1 4 1 0 0 crusher quant;
#X obj 20 452 panels/slider crusher/downsamp 0 1 3 1 0 0 crusher downsamp;
#X obj 160 20 panels/slider crusher/interp 0 1 1 1 1 0 crusher interp;
#X obj 160 68 panels/slider delay/dry 0 1 3 1 0 0 delay dry;
#X obj 160 116 panels/slider delay/level 0 1 3 1 0 0 delay level;
#X obj 160 164 panels/slider delay/feedback 0 1 3 1 0 0 delay feedback;
#X obj 160 212 panels/slider delay/time 0 1 2 2000 0 0 delay time;
#X obj 160 260 panels/slider delay/modInt 0 1 2 12 0 0 delay modInt;
#X obj 160 308 panels/slider delay/modRate 0 10 1 1 0 0 delay modRate;
#X obj 160 356 panels/slider delay/lp 0 1 3 21000 0 0 delay lp;
#X obj 160 404 panels/slider delay/hp 0 1 3 21000 0 0 delay hp;
#X obj 160 452 panels/slider delay/pitch -24 24 1 1 1 0 delay pitch;
#X obj 300 20 panels/slider delay/magic 0 1 3 1 0 0 delay magic;
#X obj 300 68 panels/slider filter/cutoff 0.001 1 3 21000 0 0 filter cutoff;
#X obj 300 116 panels/slider filter/q 0.5 4 1 1 0 0 filter q;
#X obj 300 164 panels/slider lfo/rate 0 25 1 1 0 0 lfo rate;
#X obj 300 212 panels/slider lfo/target 0 4 1 1 1 0 lfo target;
#X obj 300 260 panels/slider lfo/wave 0 5 1 1 1 0 lfo wave;
#X obj 300 308 panels/slider lfo/sr-seq 1 64 1 1 1 0 lfo sr-seq;
#X obj 300 356 panels/slider lfo/depth 0 1 1 1 0 0 lfo depth;
#X coords 0 -1 1 1 431 494 2 10 10;
#X restore 11 201 pd fx-gui;
#X obj 464 66 s pd-fx-gui;
#X obj 660 548 atoms/vol db;
#N canvas 740 431 346 404 (subpatch) 0;
#X obj 14 30 hradio 20 1 0 8 empty empty FX\ channel 0 -10 0 12 #fcfcfc #000000 #000000 0;
#X obj 204 34 r fx-ctrl;
#X obj 44 106 list;
#X obj 14 106 + 1;
#X obj 14 164 route list empty;
#X obj 89 195 s reset_slider;
#X obj 14 218 unpack s f;
#X obj 14 353 send, f 5;
#X obj 14 287 f;
#X obj 14 243 t b s;
#X msg 14 320 set \$1;
#X obj 204 269 s to_fx~;
#X obj 204 206 list prepend 0;
#X obj 104 221 s reset_sw;
#X obj 14 137 lua-scripts/multichannel_state 8 fx;
#X connect 0 0 3 0;
#X connect 0 0 12 1;
#X connect 1 0 2 0;
#X connect 1 0 12 0;
#X connect 2 0 14 0;
#X connect 3 0 14 0;
#X connect 4 0 6 0;
#X connect 4 1 5 0;
#X connect 4 1 13 0;
#X connect 6 0 9 0;
#X connect 6 1 8 1;
#X connect 8 0 10 0;
#X connect 9 0 8 0;
#X connect 9 1 7 1;
#X connect 10 0 7 0;
#X connect 12 0 11 0;
#X connect 14 0 4 0;
#X coords 0 1 100 -1 170 45 1 10 10;
#X restore 11 100 graph;
#X obj 562 710 r to_fx~;
#N canvas 325 565 512 257 (subpatch) 0;
#X obj 20 27 tgl 20 0 empty drive_sw drive -5 -7 0 12 #fcfcfc #000000 #000000 0 1;
#X obj 66 27 tgl 20 0 empty crusher_sw crusher -10 -7 0 12 #fcfcfc #000000 #000000 0 1;
#X obj 116 27 tgl 20 0 empty filter_sw filter -7 -7 0 12 #fcfcfc #000000 #000000 0 1;
#X obj 205 27 tgl 20 0 empty verb_sw reverb -10 -7 0 12 #fcfcfc #000000 #000000 0 1;
#X obj 161 27 tgl 20 0 empty delay_sw delay -5 -7 0 12 #fcfcfc #000000 #000000 0 1;
#X msg 20 128 drive_sw \$1;
#X obj 162 185 s fx-ctrl;
#X msg 66 102 crusher_sw \$1;
#X msg 116 73 filter_sw \$1;
#X msg 161 134 delay_sw \$1;
#X msg 205 106 verb_sw \$1;
#X obj 378 42 r reset_sw;
#X msg 378 67 set 0;
#X obj 250 27 tgl 20 0 empty chorus_sw chorus -10 -7 0 12 #fcfcfc #000000 #000000 0 1;
#X msg 250 134 chorus_sw \$1;
#X connect 0 0 5 0;
#X connect 1 0 7 0;
#X connect 2 0 8 0;
#X connect 3 0 10 0;
#X connect 4 0 9 0;
#X connect 5 0 6 0;
#X connect 7 0 6 0;
#X connect 8 0 6 0;
#X connect 9 0 6 0;
#X connect 10 0 6 0;
#X connect 11 0 12 0;
#X connect 12 0 3 0;
#X connect 12 0 4 0;
#X connect 12 0 2 0;
#X connect 12 0 1 0;
#X connect 12 0 0 0;
#X connect 12 0 13 0;
#X connect 13 0 14 0;
#X connect 14 0 6 0;
#X coords 0 1 100 -1 274 42 1 10 10;
#X restore 11 152 graph;
#X obj 583 798 else/giga.rev~;
#X obj 653 620 dac~ 1;
#N canvas 747 688 490 302 (subpatch) 0;
#X obj 267 98 else/mtx~ 8 8, f 18;
#X obj 267 73 snake~ out 8, f 18;
#X obj 268 123 snake~ in 8, f 16;
#X obj 17 17 else/mtx.ctl 8 8 20 0 0 0 0 0 0 0 0 0 0 0 0;
#X obj 267 43 inlet~;
#X obj 267 152 outlet~;
#X msg 195 205 0 0 1 \, 1 1 1 \, 2 2 1 \, 3 3 1 \, 4 4 1 \, 5 5 1 \, 6 6 1 \, 7 7 1, f 27;
#X obj 195 178 loadbang;
#X connect 0 0 2 0;
#X connect 0 1 2 1;
#X connect 0 2 2 2;
#X connect 0 3 2 3;
#X connect 0 4 2 4;
#X connect 0 5 2 5;
#X connect 0 6 2 6;
#X connect 0 7 2 7;
#X connect 1 0 0 0;
#X connect 1 1 0 1;
#X connect 1 2 0 2;
#X connect 1 3 0 3;
#X connect 1 4 0 4;
#X connect 1 5 0 5;
#X connect 1 6 0 6;
#X connect 1 7 0 7;
#X connect 2 0 5 0;
#X connect 3 0 0 0;
#X connect 4 0 1 0;
#X connect 6 0 3 0;
#X connect 7 0 6 0;
#X coords 0 1 100 -1 176 175 1 10 10;
#X restore 470 530 graph;
#N canvas 743 454 531 500 (subpatch) 0;
#X obj 80 230 inlet~;
#X obj 130 230 inlet~;
#X obj 180 230 inlet~;
#X obj 230 230 inlet~;
#X obj 280 230 inlet~;
#X obj 330 230 inlet~;
#X obj 380 230 inlet~;
#X obj 430 230 inlet~;
#X obj 105 361 snake~ in 8, f 14;
#X obj 105 336 else/mtx~ 8 8, f 16;
#X obj 105 386 outlet~;
#X obj 13 14 else/mtx.ctl 8 8 20 0 0 0 0 0 0 0 0 0 0 0 0;
#X msg 226 71 0 0 1 \, 1 1 1 \, 2 2 1 \, 3 3 1 \, 4 4 1 \, 5 5 1 \, 6 6 1 \, 7 7 1, f 27;
#X obj 226 44 loadbang;
#X connect 0 0 9 0;
#X connect 1 0 9 1;
#X connect 2 0 9 2;
#X connect 3 0 9 3;
#X connect 4 0 9 4;
#X connect 5 0 9 5;
#X connect 6 0 9 6;
#X connect 7 0 9 7;
#X connect 8 0 10 0;
#X connect 9 0 8 0;
#X connect 9 1 8 1;
#X connect 9 2 8 2;
#X connect 9 3 8 3;
#X connect 9 4 8 4;
#X connect 9 5 8 5;
#X connect 9 6 8 6;
#X connect 9 7 8 7;
#X connect 11 0 9 0;
#X connect 12 0 11 0;
#X connect 13 0 12 0;
#X coords 0 1 100 -1 169 170 1 10 10;
#X restore 460 324 graph;
#X obj 694 715 vradio 15 1 0 10 empty empty empty 0 -8 0 10 #dcdcdc #000000 #000000 0;
#N canvas 729 186 712 728 presets 0;
#X obj 73 21 inlet;
#X obj 88 576 s \$0-set;
#X obj 103 516 s \$0-set;
#X obj 118 453 s \$0-set;
#X obj 134 393 s \$0-set;
#X text 145 577 bathroom;
#X text 162 518 living room;
#X msg 73 608 size 40 \, decay 4 \, damp 0.9 \, bw 0.75 \, dry 1 \, early 0.795 \, late 0.04, f 66;
#X obj 73 633 s \$0-set;
#X text 130 634 "quick fix";
#X obj 149 333 s \$0-set;
#X obj 164 277 s \$0-set;
#X text 234 217 Last row of the church;
#X msg 180 194 size 200 \, decay 9 \, damp 0.7 \, bw 0.8 \, dry 0.1 \, early 0.18 \, late 0.4, f 66;
#X obj 180 216 s \$0-set;
#X obj 195 163 s \$0-set;
#X obj 210 109 s \$0-set;
#X obj 73 62 select 0 1 2 3 4 5 6 7 8 9;
#X msg 118 427 size 50 \, decay 1.5 \, damp 0.1 \, bw 0.75 \, dry 0.84 \, early 0.31 \, late 0.1, f 69;
#X text 179 453 Bright \, small hall;
#X msg 134 369 size 40 \, decay 20 \, damp 0.5 \, bw 0.75 \, dry 1 \, early 0.31 \, late 0.031, f 67;
#X text 191 395 Nice hall effect;
#X msg 149 309 size 6 \, decay 15 \, damp 0.9 \, bw 0.1 \, dry 0.31 \, early 0.31 \, late 0.31, f 67;
#X text 207 333 Singing in the Sewer;
#X text 220 278 church;
#X text 251 164 cathedral;
#X text 264 110 canyon;
#X msg 210 86 size 300 \, decay 103 \, damp 0.43 \, bw 0.51 \, dry 0.55 \, early 0.05 \, late 0.1, f 71;
#X msg 195 141 size 143 \, decay 7 \, damp 0.71 \, bw 0.34 \, dry 0.7 \, early 0.28 \, late 0.35, f 69;
#X msg 164 252 size 80 \, decay 4.85 \, damp 0.41 \, bw 0.69 \, dry 0.7 \, early 0.35 \, late 0.28, f 71;
#X msg 103 492 size 16 \, decay 1.24 \, damp 0.18 \, bw 0.95 \, dry 0.7 \, early 0.18 \, late 0.14, f 71;
#X msg 88 550 size 5 \, decay 0.6 \, damp 0.62 \, bw 0.48 \, dry 0.5 \, early 0.25 \, late 0.25, f 69;
#X obj 328 679 outlet;
#X obj 328 648 r \$0-set;
#X connect 0 0 17 0;
#X connect 7 0 8 0;
#X connect 13 0 14 0;
#X connect 17 0 7 0;
#X connect 17 1 31 0;
#X connect 17 2 30 0;
#X connect 17 3 18 0;
#X connect 17 4 20 0;
#X connect 17 5 22 0;
#X connect 17 6 29 0;
#X connect 17 7 13 0;
#X connect 17 8 28 0;
#X connect 17 9 27 0;
#X connect 18 0 3 0;
#X connect 20 0 4 0;
#X connect 22 0 10 0;
#X connect 27 0 16 0;
#X connect 28 0 15 0;
#X connect 29 0 11 0;
#X connect 30 0 2 0;
#X connect 31 0 1 0;
#X connect 33 0 32 0;
#X restore 694 877 pd presets;
#X text 714 730 - bathroom, f 13;
#X text 714 714 - "quick fix";
#X text 714 745 - living room;
#X text 714 805 - church;
#X text 714 790 - singing in the Sewer;
#X text 714 776 - nice hall effect;
#X text 714 760 - bright \, small hall;
#X text 714 820 - last row of the church;
#X text 714 835 - cathedral;
#X text 714 850 - canyon;
#X obj 455 190 cnv 20 180 130 empty empty sources 4 8 0 12 #e0e0e0 #404040 0;
#X obj 653 433 atoms/global-bpm;
#X obj 653 407 s core;
#X obj 653 252 hradio 20 1 0 8 empty empty empty 0 -10 0 12 #fcfcfc #000000 #000000 0;
#X msg 653 277 clear \$1;
#X obj 664 303 panels/toggle8 sync 1;
#X obj 664 354 panels/toggle8 reverse;
#X text 260 12 FALTA \; controles do [core] \; sequencer controls \; melhorar a troca do FX ch \;;
#X obj 688 30 keyname, f 8;
#X obj 688 55 pack f s;
#X msg 688 80 \$2 \$1;
#X obj 688 105 route t;
#X obj 688 130 sel 1;
#X obj 460 260 adc~ 1 2;
#X msg 766 151 rec;
#X obj 766 176 s slice-seq;
#X msg 789 119 stop;
#X msg 829 136 play;
#X connect 0 0 7 1;
#X connect 4 0 20 0;
#X connect 5 0 4 0;
#X connect 7 0 21 0;
#X connect 7 1 5 0;
#X connect 8 0 3 0;
#X connect 8 1 3 1;
#X connect 9 0 19 0;
#X connect 10 0 19 0;
#X connect 11 0 14 0;
#X connect 12 0 11 0;
#X connect 15 0 4 1;
#X connect 17 0 8 1;
#X connect 19 0 3 0;
#X connect 19 1 3 1;
#X connect 21 0 8 0;
#X connect 22 0 7 0;
#X connect 22 0 8 0;
#X connect 23 0 24 0;
#X connect 24 0 19 0;
#X connect 36 0 0 0;
#X connect 38 0 39 0;
#X connect 39 0 37 0;
#X connect 40 0 37 0;
#X connect 41 0 37 0;
#X connect 43 0 44 0;
#X connect 43 1 44 1;
#X connect 44 0 45 0;
#X connect 45 0 46 0;
#X connect 46 0 47 0;
#X connect 48 0 22 0;
#X connect 48 1 22 1;
#X connect 49 0 50 0;
#X connect 51 0 50 0;
#X connect 52 0 50 0;
