#N canvas 473 281 450 460 12;
#X obj 102 199 lua-scripts/file_menu;
#X obj 102 224 print files;
#X obj 246 225 print folders;
#X obj 102 159 bng 20 250 50 0 empty empty empty 0 -10 0 12 #fcfcfc #000000 #000000;
#X obj 99 311 lua-scripts/file_menu ~/samples/FX, f 21;
#X obj 99 280 bng 20 250 50 0 empty empty empty 0 -10 0 12 #fcfcfc #000000 #000000;
#X text 23 15 [file_menu] optionally takes a symbol as argument \, which must be a valid directory path. Default is $HOME/samples \;;
#X text 22 64 A Bang on 1st inlet makes 1st outlet to output files from the root path and 2nd outlet to output subfolders \; a List of symbols in 1st outlet must be a valid path and does the same for this target location \;;
#X obj 99 357 print FX_files;
#X obj 243 358 print FX_folders;
#X msg 132 159 list FX;
#X connect 0 0 1 0;
#X connect 0 1 2 0;
#X connect 3 0 0 0;
#X connect 4 0 8 0;
#X connect 4 1 9 0;
#X connect 5 0 4 0;
#X connect 10 0 0 0;
