#N canvas 738 507 527 271 12;
#X obj 131 17 inlet;
#X obj 23 177 expr ($f8*pow(2 \, 7)) + ($f7*pow(2 \, 6)) + ($f6*pow(2 \, 5)) + ($f5*pow(2 \, 4)) + ($f4*pow(2 \, 3)) + ($f3*pow(2 \, 2)) + ($f2*pow(2 \, 1)) + ($f1*pow(2 \, 0));
#X obj 23 232 outlet;
#X obj 131 55 unpack f f f f f f f f;
#X obj 60 133 == 0;
#X obj 99 133 == 0;
#X obj 140 133 == 0;
#X obj 179 133 == 0;
#X obj 220 133 == 0;
#X obj 259 133 == 0;
#X obj 300 133 == 0;
#X obj 339 133 == 0;
#X obj 406 17 inlet;
#X text 451 16 invert;
#X obj 406 72 tgl 20 0 empty empty empty 0 -10 0 12 #fcfcfc #000000 #000000 0 1;
#X obj 406 45 == 0;
#X connect 0 0 3 0;
#X connect 1 0 2 0;
#X connect 3 0 4 0;
#X connect 3 1 5 0;
#X connect 3 2 6 0;
#X connect 3 3 7 0;
#X connect 3 4 8 0;
#X connect 3 5 9 0;
#X connect 3 6 10 0;
#X connect 3 7 11 0;
#X connect 4 0 1 0;
#X connect 5 0 1 1;
#X connect 6 0 1 2;
#X connect 7 0 1 3;
#X connect 8 0 1 4;
#X connect 9 0 1 5;
#X connect 10 0 1 6;
#X connect 11 0 1 7;
#X connect 12 0 15 0;
#X connect 14 0 11 1;
#X connect 14 0 10 1;
#X connect 14 0 9 1;
#X connect 14 0 8 1;
#X connect 14 0 7 1;
#X connect 14 0 6 1;
#X connect 14 0 5 1;
#X connect 14 0 4 1;
#X connect 15 0 14 0;
