#N canvas 0 134 450 300 12;
#X obj 115 182 f;
#X obj 194 175 +;
#X obj 106 82 inlet;
#X obj 106 107 t b f;
#X obj 115 253 outlet;
#X obj 194 201 atoms/AB;
#X obj 247 256 clip 0 127;
#X obj 307 83 inlet;
#X obj 307 184 unpack;
#X obj 247 151 -;
#X obj 247 176 != 0;
#X obj 159 81 inlet;
#X text 38 6 inlet1: number to be added \; inlet2: set value and output \; inlet3: range. If difference is == 0 \, range is disabled \;;
#X obj 159 107 route float set;
#X connect 0 0 1 0;
#X connect 0 0 4 0;
#X connect 1 0 5 0;
#X connect 2 0 3 0;
#X connect 3 0 0 0;
#X connect 3 1 1 1;
#X connect 5 0 0 1;
#X connect 5 1 6 0;
#X connect 6 0 0 1;
#X connect 7 0 8 0;
#X connect 7 0 9 0;
#X connect 8 0 6 1;
#X connect 8 1 6 2;
#X connect 9 0 10 0;
#X connect 10 0 5 1;
#X connect 11 0 13 0;
#X connect 13 0 0 0;
#X connect 13 1 0 1;
