#N canvas 1065 287 729 704 12;
#X obj 472 404 table \$0buffer;
#X obj 481 271 samplerate~;
#X obj 481 296 * 2, f 5;
#X obj 481 380 s \$0buffer;
#X obj 34 211 tabwrite~ \$0buffer;
#X obj 45 180 metro 2000, f 11;
#X msg 481 355 resize \$1;
#X obj 20 397 *~;
#X obj 20 422 +~ 1;
#X obj 20 447 tabread4~ \$0buffer;
#X obj 38 373 - 2;
#X obj 45 156 b;
#X obj 34 96 inlet~;
#X obj 481 27 loadbang;
#X msg 481 52 args;
#X obj 481 77 pdcontrol;
#X obj 481 102 route float;
#X obj 513 240 / 1000;
#X obj 481 131 f;
#X msg 555 127 2000;
#X obj 481 208 t b f;
#X msg 407 151 1000 \$1;
#X obj 407 176 /;
#X obj 235 89 inlet;
#X obj 20 307 phasor~ 0.5;
#X obj 492 327 s \$0size;
#X obj 38 348 r \$0size;
#X obj 235 147 s \$0phase;
#X obj 94 281 r \$0phase;
#X obj 20 281 r \$0speed;
#X obj 407 201 s \$0speed;
#X obj 45 130 r \$0phase;
#X obj 119 154 r \$0length;
#X obj 490 160 s \$0length;
#X obj 197 388 snapshot~;
#X obj 197 334 tgl 20 0 empty empty empty 0 -10 0 12 #fcfcfc #000000 #000000 0 1;
#X obj 387 271 / 1000;
#X obj 387 296 s \$0bin-size;
#X floatatom 262 272 5 0 0 0 - - - 0;
#X obj 262 296 s \$0grain-size;
#X floatatom 257 334 5 0 0 0 - - - 0;
#X msg 197 418 next \$1;
#X obj 320 384 r \$0grain-size;
#X obj 320 434 r \$0bin-size;
#X obj 320 484 r \$0size;
#X obj 197 612 clone grain~ 16 \$0buffer;
#X obj 197 361 metro 100;
#X obj 201 659 outlet~;
#X floatatom 448 484 5 0 0 0 - - - 0;
#X msg 448 508 speed \$1;
#X obj 206 558 list prepend all;
#X obj 206 583 list trim;
#X msg 320 509 samp-size \$1;
#X msg 320 459 bin-size \$1;
#X msg 320 409 grain-size \$1;
#X floatatom 440 539 5 0 0 0 - - - 0;
#X msg 440 564 rand-pos \$1;
#X obj 163 496 tgl 20 0 empty empty empty 0 -10 0 12 #fcfcfc #000000 #000000 0 0.4;
#X msg 262 240 200;
#X obj 235 116 clip 0.01 0.99;
#X msg 407 228 0.99;
#X obj 138 566 *~;
#X floatatom 305 50 12 0 0 0 - - - 0;
#X connect 1 0 2 0;
#X connect 1 0 36 0;
#X connect 2 0 6 0;
#X connect 2 0 25 0;
#X connect 5 0 4 0;
#X connect 6 0 3 0;
#X connect 7 0 8 0;
#X connect 8 0 9 0;
#X connect 10 0 7 1;
#X connect 11 0 5 0;
#X connect 12 0 4 0;
#X connect 13 0 14 0;
#X connect 13 0 58 0;
#X connect 13 0 35 0;
#X connect 14 0 15 0;
#X connect 15 0 16 0;
#X connect 16 0 18 0;
#X connect 16 1 19 0;
#X connect 17 0 2 1;
#X connect 18 0 20 0;
#X connect 18 0 21 0;
#X connect 18 0 33 0;
#X connect 19 0 18 0;
#X connect 20 0 1 0;
#X connect 20 0 60 0;
#X connect 20 1 17 0;
#X connect 21 0 22 0;
#X connect 22 0 30 0;
#X connect 23 0 59 0;
#X connect 24 0 7 0;
#X connect 24 0 34 0;
#X connect 26 0 10 0;
#X connect 28 0 24 1;
#X connect 29 0 24 0;
#X connect 31 0 11 0;
#X connect 32 0 5 1;
#X connect 34 0 41 0;
#X connect 35 0 46 0;
#X connect 36 0 37 0;
#X connect 38 0 39 0;
#X connect 40 0 46 1;
#X connect 41 0 45 0;
#X connect 42 0 54 0;
#X connect 43 0 53 0;
#X connect 44 0 52 0;
#X connect 45 0 47 0;
#X connect 45 0 61 0;
#X connect 46 0 34 0;
#X connect 48 0 49 0;
#X connect 49 0 50 0;
#X connect 50 0 51 0;
#X connect 51 0 45 0;
#X connect 52 0 50 0;
#X connect 53 0 50 0;
#X connect 54 0 50 0;
#X connect 55 0 56 0;
#X connect 56 0 50 0;
#X connect 57 0 61 1;
#X connect 58 0 38 0;
#X connect 59 0 27 0;
#X connect 60 0 27 0;
#X connect 61 0 4 0;
#X connect 62 0 59 0;
