#N canvas 265 190 450 300 12;
#X obj 50 39 inlet~;
#X obj 68 190 lop~ 50;
#X obj 50 215 *~;
#X obj 50 240 outlet~;
#X obj 254 190 lop~ 50;
#X obj 236 215 *~;
#X obj 236 240 outlet~;
#X obj 68 165 sqrt;
#X obj 254 165 sqrt;
#X obj 254 116 clip 0 0.5;
#X obj 68 90 clip 0.5 1;
#X obj 254 141 * 2;
#X obj 68 115 * -2;
#X obj 68 140 + 2;
#X obj 172 40 inlet;
#X obj 229 45 loadbang;
#X msg 229 70 0.5;
#X obj 172 63 f;
#X connect 0 0 5 0;
#X connect 0 0 2 0;
#X connect 1 0 2 1;
#X connect 2 0 3 0;
#X connect 4 0 5 1;
#X connect 5 0 6 0;
#X connect 7 0 1 0;
#X connect 8 0 4 0;
#X connect 9 0 11 0;
#X connect 10 0 12 0;
#X connect 11 0 8 0;
#X connect 12 0 13 0;
#X connect 13 0 7 0;
#X connect 14 0 17 0;
#X connect 15 0 16 0;
#X connect 16 0 17 0;
#X connect 17 0 10 0;
#X connect 17 0 9 0;
