#N canvas 458 221 450 300 12;
#X obj 170 49 bendin;
#X obj 170 74 - 8192;
#X obj 170 99 / 8192;
#X obj 170 179 line~;
#X obj 170 204 outlet~;
#X obj 170 127 * 1;
#X obj 297 115 inlet;
#X msg 170 154 \$1 10;
#X connect 0 0 1 0;
#X connect 1 0 2 0;
#X connect 2 0 5 0;
#X connect 3 0 4 0;
#X connect 5 0 7 0;
#X connect 6 0 5 1;
#X connect 7 0 3 0;
