#N canvas 737 471 450 300 12;
#X obj 109 27 r global-bpm;
#X msg 109 52 60000 \$1;
#X obj 109 77 /;
#X obj 180 103 t b f;
#X obj 109 166 outlet;
#X obj 180 77 inlet;
#X obj 109 136 expr $f1 * (1/max(0.001 \, $f2));
#X connect 0 0 1 0;
#X connect 1 0 2 0;
#X connect 2 0 6 0;
#X connect 3 0 6 0;
#X connect 3 1 6 1;
#X connect 5 0 3 0;
#X connect 6 0 4 0;
