#N canvas 737 471 368 314 12;
#X obj 48 101 /;
#X msg 48 76 60000 \$1;
#X obj 48 226 /;
#X msg 48 201 1000 \$1;
#X obj 48 166 * 4;
#X obj 48 251 outlet;
#X obj 48 49 inlet;
#X obj 143 54 inlet;
#X obj 143 79 t b f;
#X obj 224 71 loadbang;
#X msg 224 96 args;
#X obj 224 121 pdcontrol;
#X obj 224 146 route float;
#X text 129 34 bar length;
#X text 53 29 bpm;
#X connect 0 0 4 0;
#X connect 1 0 0 0;
#X connect 2 0 5 0;
#X connect 3 0 2 0;
#X connect 4 0 3 0;
#X connect 6 0 1 0;
#X connect 7 0 8 0;
#X connect 8 0 4 0;
#X connect 8 1 4 1;
#X connect 9 0 10 0;
#X connect 10 0 11 0;
#X connect 11 0 12 0;
#X connect 12 0 4 1;
