#N canvas 735 399 450 300 12;
#X obj 154 36 netreceive 7779;
#X obj 154 61 list split 1;
#X obj 161 165 send;
#X obj 169 112 list;
#X obj 154 86 t b a;
#X obj 161 137 list trim;
#X connect 0 0 1 0;
#X connect 1 0 4 0;
#X connect 1 1 3 1;
#X connect 3 0 5 0;
#X connect 4 0 3 0;
#X connect 4 1 2 1;
#X connect 5 0 2 0;
