#N canvas 770 322 488 529 12;
#X obj 147 205 inlet;
#X obj 147 230 list split 1;
#X obj 162 313 list;
#X obj 154 367 send;
#X obj 154 341 list trim;
#X obj 289 142 loadbang;
#X msg 289 167 args;
#X obj 289 192 pdcontrol;
#X obj 147 255 t b a;
#X obj 289 217 route float symbol;
#X obj 289 242 expr sym($i1);
#X text 48 27 Inlet can receive any message \; it uses the 1st item in message as a send address \, and rest of message as values to be sent. 1st argument can be set as a prefix (e.g. \$0) - only symbols and integers, f 57;
#X obj 179 282 expr strcat($s2 \, $s1);
#X connect 0 0 1 0;
#X connect 1 0 8 0;
#X connect 1 1 2 1;
#X connect 2 0 4 0;
#X connect 4 0 3 0;
#X connect 5 0 6 0;
#X connect 6 0 7 0;
#X connect 7 0 9 0;
#X connect 8 0 2 0;
#X connect 8 1 12 0;
#X connect 9 0 10 0;
#X connect 9 1 12 1;
#X connect 10 0 12 1;
#X connect 12 0 3 1;
