#N canvas 735 399 450 300 12;
#X obj 141 47 loadbang;
#X obj 141 72 tgl 20 0 empty empty empty 0 -10 0 12 #fcfcfc #000000 #000000 0 1;
#X obj 141 97 metro 125;
#X obj 141 122 random 100;
#X obj 141 147 > 50;
#X obj 141 172 outlet;
#X msg 292 57 args;
#X obj 292 82 pdcontrol;
#X obj 292 107 route float list;
#X obj 324 164 unpack;
#X obj 81 31 inlet;
#X connect 0 0 1 0;
#X connect 0 0 6 0;
#X connect 1 0 2 0;
#X connect 2 0 3 0;
#X connect 3 0 4 0;
#X connect 4 0 5 0;
#X connect 6 0 7 0;
#X connect 7 0 8 0;
#X connect 8 0 2 1;
#X connect 8 1 9 0;
#X connect 9 0 2 1;
#X connect 9 1 4 1;
#X connect 10 0 1 0;
