#N canvas 172 327 334 490 12;
#X obj 51 109 list 0 4 7;
#X obj 51 82 t b f;
#X obj 51 159 +, f 5;
#X obj 217 85 loadbang;
#X msg 217 110 args;
#X obj 217 135 pdcontrol;
#X obj 51 32 inlet;
#X obj 65 218 outlet;
#X obj 118 81 inlet;
#X obj 51 134 list-stream;
#X obj 217 160 route list;
#X connect 0 0 9 0;
#X connect 1 0 0 0;
#X connect 1 1 2 1;
#X connect 2 0 7 0;
#X connect 3 0 4 0;
#X connect 4 0 5 0;
#X connect 5 0 10 0;
#X connect 6 0 1 0;
#X connect 8 0 0 1;
#X connect 9 0 2 0;
#X connect 10 0 0 1;
