#N canvas 539 169 323 386 12;
#X obj 54 118 else/parabolic~;
#X obj 54 143 *~;
#X obj 175 117 pow~ 4;
#X obj 175 92 vline~;
#X msg 175 67 1 4 \, 0 130 4;
#X msg 77 83 900;
#X msg 31 83 1800;
#X obj 31 52 sel 0, f 7;
#X obj 55 271 gain~;
#A saved 0;
#X obj 165 277 r click;
#X obj 44 322 dac~;
#X obj 109 19 r beat;
#X obj 175 142 *~ 0.25;
#X obj 103 185 r tempo;
#X text 161 177 duck down when changing!, f 14;
#X obj 54 215 *~;
#X obj 103 235 vline~;
#X msg 103 210 0 \, 1 200 200;
#X obj 223 237 loadbang;
#X obj 167 305 del 20;
#X msg 167 330 0;
#X connect 0 0 1 0;
#X connect 1 0 15 0;
#X connect 2 0 12 0;
#X connect 3 0 2 0;
#X connect 4 0 3 0;
#X connect 5 0 0 0;
#X connect 6 0 0 0;
#X connect 7 0 6 0;
#X connect 7 1 5 0;
#X connect 8 0 10 0;
#X connect 8 0 10 1;
#X connect 9 0 8 1;
#X connect 11 0 7 0;
#X connect 11 0 4 0;
#X connect 12 0 1 1;
#X connect 13 0 17 0;
#X connect 15 0 8 0;
#X connect 16 0 15 1;
#X connect 17 0 16 0;
#X connect 18 0 17 0;
#X connect 18 0 19 0;
#X connect 19 0 20 0;
#X connect 20 0 8 1;
