#N canvas 458 275 450 300 12;
#X obj 110 32 inlet;
#X obj 142 95 metro 250;
#X obj 142 120 tgl 20 0 empty empty empty 0 -10 0 12 #fcfcfc #000000 #000000 0 1;
#X obj 110 64 t f f;
#X obj 110 176 outlet;
#X obj 110 151 color-toggle;
#X connect 0 0 3 0;
#X connect 1 0 2 0;
#X connect 2 0 5 0;
#X connect 3 0 5 0;
#X connect 3 1 1 0;
#X connect 5 0 4 0;
