#N canvas 458 275 450 300 12;
#X obj 119 68 inlet;
#X obj 119 103 sel 1 0;
#X msg 119 128 list #fcba03 #000000;
#X msg 119 195 color \$1 0 \$2;
#X obj 119 220 outlet;
#X msg 138 163 list #061930 #ffffff;
#X connect 0 0 1 0;
#X connect 1 0 2 0;
#X connect 1 1 5 0;
#X connect 2 0 3 0;
#X connect 3 0 4 0;
#X connect 5 0 3 0;
