#N canvas 458 221 450 300 12;
#X obj 152 57 inlet;
#X obj 152 137 unpack f f;
#X obj 152 162 mtof;
#X obj 152 187 outlet;
#X obj 219 162 / 127;
#X obj 219 187 outlet;
#X obj 231 57 inlet;
#X obj 152 82 route list float;
#X obj 206 108 pack;
#X connect 0 0 7 0;
#X connect 1 0 2 0;
#X connect 1 1 4 0;
#X connect 2 0 3 0;
#X connect 4 0 5 0;
#X connect 6 0 8 1;
#X connect 7 0 1 0;
#X connect 7 1 8 0;
#X connect 8 0 1 0;
