#N canvas 736 435 450 300 12;
#X obj 54 104 inlet;
#X obj 54 169 f;
#X obj 112 189 + 1;
#X obj 54 254 outlet;
#X obj 108 78 inlet;
#X msg 122 149 0, f 2;
#X obj 112 215 AB;
#X obj 113 241 % \$1;
#X obj 283 120 loadbang;
#X msg 283 145 args;
#X obj 283 170 pdcontrol;
#X obj 283 195 route float;
#X obj 108 103 route set bang float;
#X text 210 11 inlet 1 bang: increment \; inlet 1 float: set and output \; inlet 2 float: set max \; inlet 2 set: set \, no output \; inlet 2 bang: reset \;;
#X connect 0 0 1 0;
#X connect 1 0 2 0;
#X connect 1 0 3 0;
#X connect 2 0 6 0;
#X connect 4 0 12 0;
#X connect 5 0 1 1;
#X connect 6 0 1 1;
#X connect 6 1 7 0;
#X connect 7 0 1 1;
#X connect 8 0 9 0;
#X connect 9 0 10 0;
#X connect 10 0 11 0;
#X connect 11 0 6 1;
#X connect 12 0 1 1;
#X connect 12 1 5 0;
#X connect 12 2 6 1;
#X connect 12 2 7 1;
