#N canvas 734 363 450 300 12;
#X obj 128 95 inlet;
#X obj 128 160 f;
#X obj 186 180 + 1;
#X obj 128 215 outlet;
#X obj 182 69 inlet;
#X msg 236 140 0, f 2;
#X obj 182 94 route float bang;
#X connect 0 0 1 0;
#X connect 1 0 2 0;
#X connect 1 0 3 0;
#X connect 2 0 1 1;
#X connect 4 0 6 0;
#X connect 5 0 1 1;
#X connect 6 0 1 0;
#X connect 6 1 5 0;
