#N canvas 458 221 530 357 12;
#X obj 35 48 inlet;
#X obj 35 100 f;
#X obj 76 103 + 1;
#X obj 76 130 AB;
#X obj 263 49 broadcast \$0;
#X obj 43 219 +;
#X obj 43 244 outlet;
#X obj 153 35 r \$0max;
#X obj 124 101 != 0;
#X obj 204 120 r \$0min;
#X obj 153 60 --;
#X obj 35 73 b;
#X obj 263 21 inlet;
#X obj 392 23 loadbang;
#X msg 392 48 args;
#X obj 392 73 pdcontrol;
#X obj 392 98 t l l;
#X obj 424 124 list length;
#X obj 424 149 >= 2;
#X obj 392 169 AB;
#X obj 410 196 unpack;
#X obj 410 221 s \$0min;
#X obj 392 252 s \$0max;
#X obj 135 129 %;
#X obj 92 52 r \$0set;
#X connect 0 0 11 0;
#X connect 1 0 2 0;
#X connect 1 0 5 0;
#X connect 2 0 3 0;
#X connect 3 0 1 1;
#X connect 3 1 23 0;
#X connect 5 0 6 0;
#X connect 7 0 10 0;
#X connect 8 0 3 1;
#X connect 9 0 5 1;
#X connect 9 0 10 1;
#X connect 10 0 8 0;
#X connect 10 0 23 1;
#X connect 11 0 1 0;
#X connect 12 0 4 0;
#X connect 13 0 14 0;
#X connect 14 0 15 0;
#X connect 15 0 16 0;
#X connect 16 0 19 0;
#X connect 16 1 17 0;
#X connect 17 0 18 0;
#X connect 18 0 19 1;
#X connect 19 0 22 0;
#X connect 19 1 20 0;
#X connect 20 0 21 0;
#X connect 20 1 22 0;
#X connect 23 0 1 1;
#X connect 24 0 1 1;
