#N canvas 736 435 450 300 12;
#X obj 54 74 inlet;
#X obj 54 139 f;
#X obj 112 159 + 1;
#X obj 54 224 outlet;
#X obj 108 48 inlet;
#X msg 122 119 0, f 2;
#X obj 112 185 AB;
#X obj 113 211 % \$1;
#X obj 283 90 loadbang;
#X msg 283 115 args;
#X obj 283 140 pdcontrol;
#X obj 283 165 route float;
#X obj 108 73 route float bang max;
#X connect 0 0 1 0;
#X connect 1 0 2 0;
#X connect 1 0 3 0;
#X connect 2 0 6 0;
#X connect 4 0 12 0;
#X connect 5 0 1 1;
#X connect 6 0 1 1;
#X connect 6 1 7 0;
#X connect 7 0 1 1;
#X connect 8 0 9 0;
#X connect 9 0 10 0;
#X connect 10 0 11 0;
#X connect 11 0 6 1;
#X connect 12 0 1 1;
#X connect 12 1 5 0;
#X connect 12 2 6 1;
#X connect 12 2 7 1;
