#N canvas 734 363 388 357 12;
#X obj 108 196 cputime;
#X obj 108 140 metro 1000;
#X obj 108 168 t b b;
#X obj 108 256 * 0.1;
#X obj 108 225 int;
#X obj 108 107 tgl 19 0 empty empty empty 17 7 0 10 #dfdfdf #000000 #000000 0 1;
#X text 132 107 <-- on/off;
#X obj 108 317 atoms/send-osc param;
#X msg 108 286 cpu \$1;
#X obj 108 76 inlet;
#X text 31 30 hijacked from PD utility;
#X connect 0 0 4 0;
#X connect 1 0 2 0;
#X connect 2 0 0 0;
#X connect 2 1 0 1;
#X connect 3 0 8 0;
#X connect 4 0 3 0;
#X connect 5 0 1 0;
#X connect 8 0 7 0;
#X connect 9 0 5 0;
