#N canvas 733 327 450 300 12;
#X obj 117 81 keyname, f 8;
#X obj 117 106 pack f s;
#X obj 117 131 route 1;
#X obj 117 156 scripts/if_float;
#X obj 117 181 outlet;
#X connect 0 0 1 0;
#X connect 0 1 1 1;
#X connect 1 0 2 0;
#X connect 2 0 3 0;
#X connect 3 0 4 0;
