#N canvas 1181 604 450 300 12;
#X obj 123 39 keyname, f 8;
#X obj 123 142 scripts/if_float;
#X obj 123 64 pack f s;
#X msg 123 89 \$2 \$1;
#X obj 123 114 unpack s f;
#X obj 123 167 pack f f, f 10;
#X obj 123 193 outlet;
#X connect 0 0 2 0;
#X connect 0 1 2 1;
#X connect 1 0 5 0;
#X connect 2 0 3 0;
#X connect 3 0 4 0;
#X connect 4 0 1 0;
#X connect 4 1 5 1;
#X connect 5 0 6 0;
