#N canvas 733 327 450 300 12;
#X obj 114 78 inlet;
#X obj 114 158 delay \$1, f 9;
#X obj 114 183 atoms/tap;
#X obj 55 178 inlet;
#X obj 55 203 spigot;
#X obj 55 228 outlet;
#X msg 160 128 stop;
#X obj 114 103 t b b b;
#X connect 0 0 7 0;
#X connect 1 0 2 0;
#X connect 2 0 4 1;
#X connect 3 0 4 0;
#X connect 4 0 5 0;
#X connect 6 0 1 0;
#X connect 7 0 1 0;
#X connect 7 1 2 1;
#X connect 7 2 6 0;
