#N canvas 462 365 426 401 12;
#X obj 49 159 abs~;
#X obj 49 93 pow~ 1;
#X obj 49 184 lop~ 5;
#X obj 49 267 outlet~;
#X obj 49 30 inlet~ fwd;
#X obj 49 211 +~ 0;
#X obj 49 130 *~ 1;
#X obj 282 143 loadbang;
#X msg 282 168 args;
#X obj 282 193 pdcontrol;
#X obj 282 218 route list;
#X obj 282 243 unpack f f f f;
#X obj 49 239 clip~ 0 1;
#X obj 116 57 route decay gain min max;
#X connect 0 0 2 0;
#X connect 1 0 6 0;
#X connect 2 0 5 0;
#X connect 4 0 1 0;
#X connect 4 1 13 0;
#X connect 5 0 12 0;
#X connect 6 0 0 0;
#X connect 7 0 8 0;
#X connect 8 0 9 0;
#X connect 9 0 10 0;
#X connect 10 0 11 0;
#X connect 11 0 6 1;
#X connect 11 2 5 1;
#X connect 11 3 12 2;
#X connect 12 0 3 0;
#X connect 13 0 1 1;
#X connect 13 1 6 1;
#X connect 13 2 5 1;
#X connect 13 2 12 1;
#X connect 13 3 12 2;
