#N canvas 736 435 632 338 12;
#X obj 19 114 inlet~;
#X obj 19 179 *~;
#X obj 19 244 outlet~;
#X obj 204 20 inlet;
#X obj 336 230 vline~;
#X obj 336 260 expr~ pow($v1 \, $f2);
#X msg 336 198 \$1 \$2 \, \$3 \$4 \$2;
#X msg 204 191 stop \, 0 \$1;
#X obj 204 85 sel 0;
#X obj 336 142 t f b;
#X obj 466 162 2;
#X obj 236 295 2;
#X obj 336 173 pack f 5 0.5 1000;
#X obj 204 117 t b b;
#X obj 204 152 f;
#X obj 255 151 r \$0rel;
#X obj 392 114 r \$0atk;
#X obj 433 88 r \$0sus;
#X obj 452 113 r \$0dec;
#X obj 511 160 r \$0atk.curv;
#X obj 317 305 r \$0rel.curv;
#X obj 278 74 atoms/broadcast \$0;
#X obj 204 48 route float;
#X connect 0 0 1 0;
#X connect 1 0 2 0;
#X connect 3 0 22 0;
#X connect 4 0 5 0;
#X connect 5 0 1 1;
#X connect 6 0 4 0;
#X connect 7 0 4 0;
#X connect 8 0 13 0;
#X connect 8 1 9 0;
#X connect 9 0 12 0;
#X connect 9 1 10 0;
#X connect 10 0 5 1;
#X connect 11 0 5 1;
#X connect 12 0 6 0;
#X connect 13 0 14 0;
#X connect 13 1 11 0;
#X connect 14 0 7 0;
#X connect 15 0 14 1;
#X connect 16 0 12 1;
#X connect 17 0 12 2;
#X connect 18 0 12 3;
#X connect 19 0 10 1;
#X connect 20 0 11 1;
#X connect 22 0 8 0;
#X connect 22 1 21 0;
