#N canvas 246 206 481 696 12;
#X obj 29 137 notein, f 10;
#X obj 29 162 pack f f f;
#X msg 29 187 \$3 \$1 \$2;
#X obj 29 212 route 1 17 33;
#X listbox 29 241 10 0 0 0 - - - 0;
#X listbox 58 263 10 0 0 0 - - - 0;
#X listbox 87 285 10 0 0 0 - - - 0;
#X obj 92 607 noteout;
#X obj 92 575 list append;
#X msg 184 505 1;
#X msg 184 530 17;
#X msg 184 555 33;
#X obj 90 375 unpack;
#X obj 90 425 pack, f 6;
#X floatatom 179 390 5 0 0 0 - - - 0;
#X listbox 126 467 20 0 0 0 - - - 0;
#X obj 90 400 +;
#X text 30 13 inputs \; 1: minilogue \; 17: nanopad \; 33: apc mini \;;
#X text 200 13 outputs \; 1: minilogue \; 17: volca sample (umc midi out) \; 33: apc mini \;;
#X connect 0 0 1 0;
#X connect 0 1 1 1;
#X connect 0 2 1 2;
#X connect 1 0 2 0;
#X connect 2 0 3 0;
#X connect 3 0 4 0;
#X connect 3 1 5 0;
#X connect 3 2 6 0;
#X connect 5 0 12 0;
#X connect 8 0 7 0;
#X connect 9 0 8 1;
#X connect 10 0 8 1;
#X connect 11 0 8 1;
#X connect 12 0 16 0;
#X connect 12 1 13 1;
#X connect 13 0 8 0;
#X connect 13 0 15 0;
#X connect 14 0 16 1;
#X connect 16 0 13 0;
