#N canvas 459 257 450 450 12;
#X obj 147 31 inlet;
#X obj 147 84 s2l /;
#X obj 147 109 t l l;
#X obj 147 178 list split;
#X obj 214 129 list length;
#X obj 214 154 - 1;
#X obj 155 309 s2l .;
#X msg 155 334 \$1;
#X obj 155 385 outlet;
#X obj 155 359 symbol;
#X obj 155 282 list;
#X obj 196 228 t b a;
#X obj 280 312 outlet;
#X obj 280 285 l2s /;
#X text 274 260 path at right outlet;
#X obj 147 58 symbol;
#X connect 0 0 15 0;
#X connect 1 0 2 0;
#X connect 2 0 3 0;
#X connect 2 1 4 0;
#X connect 3 0 11 0;
#X connect 3 1 10 1;
#X connect 4 0 5 0;
#X connect 5 0 3 1;
#X connect 6 0 7 0;
#X connect 7 0 9 0;
#X connect 9 0 8 0;
#X connect 10 0 6 0;
#X connect 11 0 10 0;
#X connect 11 1 13 0;
#X connect 13 0 12 0;
#X connect 15 0 1 0;
