#N canvas 496 147 443 446 12;
#X obj 37 28 inlet;
#X obj 230 50 inlet;
#X obj 282 11 loadbang;
#X msg 282 36 args;
#X obj 282 61 pdcontrol;
#X obj 37 91 list;
#X obj 37 53 t b a;
#X obj 37 143 t a b;
#X obj 213 267 f;
#X obj 251 267 + 1;
#X obj 66 262 b;
#X obj 66 287 f;
#X obj 66 336 outlet;
#X msg 231 241 0;
#X obj 37 213 route;
#X obj 101 213 route symbol;
#X obj 37 180 AB;
#X msg 121 149 0;
#X msg 148 174 1;
#X text 250 110 the ugly mess is because [route] can't be set freely between floats and symbols. pure gambiarra., f 21;
#X obj 121 120 route float list;
#X obj 182 154 symbol;
#X obj 213 316 spigot, f 10;
#X msg 280 261 1, f 1;
#X obj 66 312 t f b;
#X msg 156 314 0;
#X text 293 281 a match stops the 'not found' msg, f 14;
#X obj 318 218 list length;
#X obj 318 243 - 1;
#X obj 213 341 ==;
#X obj 213 366 sel 1;
#X obj 116 71 r \$0base;
#X obj 318 192 r \$0base;
#X obj 282 86 s \$0base;
#X obj 213 416 outlet;
#X obj 265 371 r \$0reject;
#X obj 104 38 s \$0reject;
#X obj 213 291 pipe 2;
#X obj 213 391 list;
#X obj 37 117 list-stream;
#X connect 0 0 6 0;
#X connect 1 0 33 0;
#X connect 2 0 3 0;
#X connect 3 0 4 0;
#X connect 4 0 33 0;
#X connect 5 0 39 0;
#X connect 6 0 5 0;
#X connect 6 1 13 0;
#X connect 6 1 20 0;
#X connect 6 1 36 0;
#X connect 7 0 16 0;
#X connect 7 1 8 0;
#X connect 8 0 9 0;
#X connect 8 0 11 1;
#X connect 8 0 37 0;
#X connect 9 0 8 1;
#X connect 10 0 11 0;
#X connect 11 0 24 0;
#X connect 13 0 8 1;
#X connect 13 0 23 0;
#X connect 14 0 10 0;
#X connect 15 0 10 0;
#X connect 16 0 14 0;
#X connect 16 1 15 0;
#X connect 17 0 16 1;
#X connect 18 0 16 1;
#X connect 20 0 14 1;
#X connect 20 0 17 0;
#X connect 20 2 21 0;
#X connect 21 0 15 1;
#X connect 21 0 18 0;
#X connect 22 0 29 0;
#X connect 23 0 22 1;
#X connect 24 0 12 0;
#X connect 24 1 25 0;
#X connect 25 0 22 1;
#X connect 27 0 28 0;
#X connect 28 0 29 1;
#X connect 29 0 30 0;
#X connect 30 0 38 0;
#X connect 31 0 5 1;
#X connect 32 0 27 0;
#X connect 35 0 38 1;
#X connect 37 0 22 0;
#X connect 38 0 34 0;
#X connect 39 0 7 0;
