#N canvas 737 471 535 406 12;
#X obj 63 30 inlet~;
#X obj 63 276 *~;
#X obj 63 301 outlet~;
#X obj 210 36 loadbang;
#X msg 210 61 args;
#X obj 210 86 pdcontrol;
#X obj 102 171 dbtorms;
#X obj 102 124 inlet;
#X obj 210 151 + 100;
#X obj 210 111 route float;
#X msg 284 149 0;
#X msg 81 225 \$1 10;
#X obj 81 250 line~;
#X connect 0 0 1 0;
#X connect 1 0 2 0;
#X connect 3 0 4 0;
#X connect 4 0 5 0;
#X connect 5 0 9 0;
#X connect 6 0 11 0;
#X connect 7 0 6 0;
#X connect 8 0 6 0;
#X connect 9 0 8 0;
#X connect 9 1 10 0;
#X connect 10 0 8 0;
#X connect 11 0 12 0;
#X connect 12 0 1 1;
