#N canvas 735 399 535 406 12;
#X obj 63 30 inlet~;
#X obj 63 236 *~;
#X obj 63 261 outlet~;
#X obj 102 217 lop~ 50;
#X obj 210 36 loadbang;
#X msg 210 61 args;
#X obj 210 86 pdcontrol;
#X obj 210 111 route float bang;
#X obj 102 131 dbtorms;
#X obj 135 64 inlet;
#X connect 0 0 1 0;
#X connect 1 0 2 0;
#X connect 3 0 1 1;
#X connect 4 0 5 0;
#X connect 5 0 6 0;
#X connect 6 0 7 0;
#X connect 7 0 8 0;
#X connect 8 0 3 0;
#X connect 9 0 8 0;
