#N canvas 997 228 578 696 12;
#X obj 469 108 bng 20 250 50 0 empty theme.obj empty 0 -10 0 12 #272822 #f92672 #e6db74;
#X obj 469 133 samplerate~;
#X obj 469 158 * 2;
#X msg 469 183 resize \$1;
#X obj 339 437 noise~;
#X obj 339 462 samphold~;
#X obj 255 470 >~ 0;
#X obj 115 423 *~;
#X obj 255 404 <~ 0;
#X obj 52 468 +~;
#X floatatom 369 627 5 0 0 0 - - - 0;
#X obj 115 274 phasor~;
#X obj 115 331 *~;
#X obj 115 356 +~ 1;
#X obj 161 58 bng 20 250 50 0 empty theme.obj empty 0 -10 0 12 #272822 #f92672 #e6db74;
#X obj 284 52 bng 20 250 50 0 empty theme.obj empty 0 -10 0 12 #272822 #f92672 #e6db74;
#X msg 80 119 stop;
#X obj 284 128 timer;
#X obj 399 437 phasor~ 10;
#X floatatom 399 337 5 0 0 0 - - - 0;
#X obj 161 24 threshold~ 1 0 1 0;
#X obj 395 267 / 1000;
#X msg 161 122 0, f 1;
#X floatatom 344 183 5 0 0 0 - - - 0;
#X obj 52 493 outlet~;
#X obj 52 27 inlet~;
#X obj 469 208 s \$0buff;
#X obj 469 232 table \$0buff;
#X obj 115 382 tabread4~ \$0buff;
#X obj 68 151 tabwrite~ \$0buff;
#X obj 469 80 loadbang;
#X obj 343 43 atoms/broadcast \$0;
#X obj 343 16 inlet;
#X obj 344 94 r \$0length;
#X obj 369 550 * 2;
#X obj 369 575 - 1;
#X obj 369 600 clip -1 1;
#N canvas 674 414 766 425 transform 0;
#X obj 45 67 inlet~;
#X obj 132 117 samphold~;
#X obj 45 377 outlet~;
#X obj 240 36 noise~;
#X obj 240 119 samphold~;
#X obj 241 209 phasor~ 4000;
#X obj 300 87 phasor~ 0.6;
#X obj 240 61 abs~;
#X obj 241 89 sqrt~;
#X obj 240 148 lop~ 1;
#X obj 300 61 r \$0degrade.freq;
#X obj 437 61 r \$0degrade.amt;
#X obj 437 111 - 1;
#X obj 437 136 abs;
#X obj 437 161 * 48000;
#X obj 437 86 clip 0 0.95;
#X obj 437 188 lop~ 50;
#X obj 241 180 *~;
#X obj 554 142 loadbang;
#X obj 554 167 0;
#X obj 120 30 r \$0degrade;
#X obj 45 146 else/xselect~ 2 20 1, f 13;
#X obj 120 55 + 1;
#X obj 133 259 wrap~;
#X obj 69 218 tgl 20 0 empty empty empty 0 -10 0 12 #fcfcfc #000000 #000000 0 1;
#X obj 69 243 + 1;
#X floatatom 211 239 5 0 0 0 - - - 0;
#X obj 133 234 *~;
#X obj 250 314 lop~ 1;
#X obj 45 286 else/xselect~ 2 1000 1, f 13;
#X obj 326 265 expr pow(2 \, $f1/120);
#X connect 0 0 1 0;
#X connect 0 0 21 0;
#X connect 1 0 21 1;
#X connect 3 0 7 0;
#X connect 4 0 9 0;
#X connect 5 0 1 1;
#X connect 6 0 4 1;
#X connect 7 0 8 0;
#X connect 8 0 4 0;
#X connect 9 0 17 0;
#X connect 10 0 6 0;
#X connect 11 0 15 0;
#X connect 12 0 13 0;
#X connect 13 0 14 0;
#X connect 14 0 16 0;
#X connect 15 0 12 0;
#X connect 16 0 17 1;
#X connect 17 0 5 0;
#X connect 18 0 19 0;
#X connect 19 0 15 0;
#X connect 20 0 22 0;
#X connect 21 0 27 0;
#X connect 21 0 29 0;
#X connect 22 0 21 0;
#X connect 23 0 29 1;
#X connect 24 0 25 0;
#X connect 25 0 29 0;
#X connect 26 0 30 0;
#X connect 27 0 23 0;
#X connect 28 0 27 1;
#X connect 29 0 2 0;
#X connect 30 0 28 0;
#X restore 115 301 pd transform;
#X obj 284 287 *~;
#X obj 115 221 sig~ 1000;
#X obj 115 247 /~;
#X obj 344 209 sig~ 1;
#X obj 284 228 *~;
#X obj 369 495 r \$0chance;
#X obj 284 312 -~ 2;
#X obj 399 312 r \$0bpm;
#X obj 399 361 atoms/bpm;
#X msg 399 386 1000 \$1;
#X obj 399 411 /;
#X obj 52 439 *~ 1;
#X obj 369 522 / 100;
#X obj 344 124 / 100;
#X obj 344 153 clip 0 1;
#X connect 0 0 1 0;
#X connect 1 0 2 0;
#X connect 1 0 21 0;
#X connect 2 0 3 0;
#X connect 3 0 26 0;
#X connect 4 0 5 0;
#X connect 5 0 6 0;
#X connect 5 0 8 0;
#X connect 7 0 9 1;
#X connect 8 0 7 1;
#X connect 8 0 20 0;
#X connect 9 0 24 0;
#X connect 10 0 8 1;
#X connect 10 0 6 1;
#X connect 11 0 37 0;
#X connect 12 0 13 0;
#X connect 13 0 28 0;
#X connect 14 0 16 0;
#X connect 14 0 17 1;
#X connect 14 0 22 0;
#X connect 15 0 17 0;
#X connect 15 0 29 0;
#X connect 16 0 29 0;
#X connect 17 0 42 0;
#X connect 18 0 5 1;
#X connect 19 0 46 0;
#X connect 20 0 14 0;
#X connect 20 1 15 0;
#X connect 21 0 38 1;
#X connect 22 0 11 1;
#X connect 23 0 41 0;
#X connect 25 0 29 0;
#X connect 25 0 49 0;
#X connect 28 0 7 0;
#X connect 30 0 0 0;
#X connect 32 0 31 0;
#X connect 33 0 51 0;
#X connect 34 0 35 0;
#X connect 35 0 36 0;
#X connect 36 0 10 0;
#X connect 37 0 12 0;
#X connect 38 0 44 0;
#X connect 39 0 40 0;
#X connect 40 0 11 0;
#X connect 41 0 42 1;
#X connect 42 0 38 0;
#X connect 42 0 40 1;
#X connect 43 0 50 0;
#X connect 44 0 12 1;
#X connect 45 0 19 0;
#X connect 46 0 47 0;
#X connect 47 0 48 0;
#X connect 48 0 18 0;
#X connect 49 0 9 0;
#X connect 50 0 34 0;
#X connect 51 0 52 0;
#X connect 52 0 23 0;
#X coords 0 696 1 695 85 60 0;
