#N canvas 735 399 450 300 12;
#X floatatom 104 105 5 0 0 1 BPM - - 24;
#X obj 104 45 loadbang;
#X msg 104 70 95;
#X obj 80 177 outlet;
#X obj 143 177 s global-bpm;
#X connect 0 0 3 0;
#X connect 0 0 4 0;
#X connect 1 0 2 0;
#X connect 2 0 0 0;
#X coords 0 -1 1 1 124 42 2 100 100;
