#N canvas 735 399 506 394 12;
#X floatatom 104 105 5 0 0 1 BPM - - 24;
#X obj 104 45 loadbang;
#X msg 104 70 95;
#X obj 147 165 outlet;
#X obj 208 162 s global-bpm;
#X obj 199 59 r set-global-bpm;
#X obj 30 155 atoms/bpm2hz;
#X obj 30 242 atoms/ramp2slice 4;
#X obj 30 304 outlet;
#X obj 153 215 r global-bpm-bar;
#X obj 30 180 phasor~;
#X obj 96 304 s master-beat;
#X connect 0 0 3 0;
#X connect 0 0 4 0;
#X connect 0 0 6 0;
#X connect 1 0 2 0;
#X connect 2 0 0 0;
#X connect 5 0 0 0;
#X connect 6 0 10 0;
#X connect 7 0 8 0;
#X connect 7 0 11 0;
#X connect 9 0 7 1;
#X connect 10 0 7 0;
#X coords 0 -1 1 1 124 42 2 100 100;
