#N canvas 738 444 503 547 12;
#X obj 56 492 outlet~;
#X obj 56 292 *~, f 6;
#X obj 56 387 +~, f 6;
#X msg 56 238 0 \, 1 \$1;
#X obj 56 213 f;
#X obj 56 69 t b f;
#X obj 151 292 *;
#X obj 143 240 *;
#X obj 56 17 inlet;
#X obj 56 415 tabread4~ \$2;
#X obj 56 264 line~;
#X obj 55 457 *~;
#X obj 373 359 line~;
#X obj 373 242 t b b;
#X msg 405 296 1, f 2;
#X obj 373 271 del;
#X msg 373 296 0, f 2;
#X obj 151 367 +, f 5;
#X obj 183 342 random;
#X obj 151 317 t f b;
#X obj 56 42 route float grain-size bin-size samp-size speed rand-pos;
#X obj 74 187 modulate;
#X obj 222 268 *;
#X obj 391 214 - 5;
#X obj 371 335 pack f 5;
#X connect 1 0 2 0;
#X connect 2 0 9 0;
#X connect 3 0 10 0;
#X connect 4 0 3 0;
#X connect 5 0 4 0;
#X connect 5 1 6 0;
#X connect 5 1 13 0;
#X connect 6 0 19 0;
#X connect 7 0 1 1;
#X connect 8 0 20 0;
#X connect 9 0 11 0;
#X connect 10 0 1 0;
#X connect 11 0 0 0;
#X connect 12 0 11 1;
#X connect 13 0 15 0;
#X connect 13 1 14 0;
#X connect 14 0 24 0;
#X connect 15 0 16 0;
#X connect 16 0 24 0;
#X connect 17 0 2 1;
#X connect 18 0 17 1;
#X connect 19 0 17 0;
#X connect 19 1 18 0;
#X connect 20 0 5 0;
#X connect 20 1 7 0;
#X connect 20 1 21 0;
#X connect 20 1 23 0;
#X connect 20 2 7 1;
#X connect 20 2 22 1;
#X connect 20 3 6 1;
#X connect 20 4 21 1;
#X connect 20 5 22 0;
#X connect 21 0 4 1;
#X connect 22 0 18 1;
#X connect 23 0 15 1;
#X connect 24 0 12 0;
