#N canvas 738 507 501 363 12;
#X obj 113 25 inlet;
#X obj 145 78 route float symbol list;
#X obj 38 100 del \$1;
#X obj 30 227 spigot;
#X obj 151 221 spigot;
#X obj 260 230 spigot;
#X obj 183 297 outlet;
#X obj 69 202 tap;
#X obj 190 196 tap;
#X obj 299 205 tap;
#X obj 30 202 f;
#X obj 139 196 symbol;
#X obj 260 205 list;
#X obj 398 240 spigot;
#X obj 437 215 tap;
#X obj 398 165 list;
#X obj 398 190 list trim;
#X obj 113 50 t b a;
#X text 200 23 delays any kind of message in \$1 ms \;;
#X connect 0 0 17 0;
#X connect 1 0 10 1;
#X connect 1 0 7 0;
#X connect 1 0 8 1;
#X connect 1 0 14 1;
#X connect 1 0 9 1;
#X connect 1 1 11 1;
#X connect 1 1 8 0;
#X connect 1 1 7 1;
#X connect 1 1 14 1;
#X connect 1 1 9 1;
#X connect 1 2 12 1;
#X connect 1 2 9 0;
#X connect 1 2 8 1;
#X connect 1 2 14 1;
#X connect 1 2 7 1;
#X connect 1 3 15 1;
#X connect 1 3 14 0;
#X connect 1 3 8 1;
#X connect 1 3 7 1;
#X connect 1 3 9 1;
#X connect 2 0 10 0;
#X connect 2 0 11 0;
#X connect 2 0 12 0;
#X connect 2 0 15 0;
#X connect 3 0 6 0;
#X connect 4 0 6 0;
#X connect 5 0 6 0;
#X connect 7 0 3 1;
#X connect 8 0 4 1;
#X connect 9 0 5 1;
#X connect 10 0 3 0;
#X connect 11 0 4 0;
#X connect 12 0 5 0;
#X connect 13 0 6 0;
#X connect 14 0 13 1;
#X connect 15 0 16 0;
#X connect 16 0 13 0;
#X connect 17 0 2 0;
#X connect 17 1 1 0;
