#N canvas 773 348 450 411 12;
#X obj 144 37 inlet;
#X obj 144 62 route float list;
#X obj 144 194 atoms/count;
#X obj 244 201 b;
#X obj 144 219 +;
#X obj 193 278 sel;
#X obj 211 307 t b f;
#X obj 144 136 unpack f f;
#X obj 144 161 t b f;
#X obj 211 164 + 1;
#X obj 109 258 pipe;
#X msg 144 97 0 \$1;
#X obj 217 30 inlet;
#X obj 36 63 loadbang;
#X msg 36 88 args;
#X obj 36 113 pdcontrol;
#X obj 36 138 route float;
#X obj 243 335 outlet;
#X connect 0 0 1 0;
#X connect 1 0 11 0;
#X connect 1 1 7 0;
#X connect 2 0 4 0;
#X connect 3 0 2 1;
#X connect 4 0 10 0;
#X connect 5 0 3 0;
#X connect 5 1 6 0;
#X connect 6 0 2 0;
#X connect 6 1 17 0;
#X connect 7 0 8 0;
#X connect 7 1 9 0;
#X connect 8 0 2 0;
#X connect 8 1 4 1;
#X connect 9 0 5 1;
#X connect 10 0 5 0;
#X connect 11 0 7 0;
#X connect 12 0 10 1;
#X connect 13 0 14 0;
#X connect 14 0 15 0;
#X connect 15 0 16 0;
#X connect 16 0 10 1;
