#N canvas 347 211 383 347 12;
#X obj 22 24 inlet~ fwd;
#X obj 89 48 symbol;
#X obj 89 125 soundfiler;
#X obj 89 150 t b b;
#X msg 156 292 0;
#X obj 22 275 *~;
#X obj 22 300 outlet~;
#X msg 121 292 1;
#X obj 60 275 lop~ 20;
#X obj 254 153 block~ 64 1 1;
#X obj 22 245 convolve~ 512;
#X obj 121 265 del 1000;
#X obj 200 66 openpanel;
#X obj 254 202 table \$0ir;
#X obj 254 178 table \$0dummy 1;
#X obj 89 176 \$0;
#X msg 89 201 analyze \$1dummy \, analyze \$1ir, f 16;
#X obj 89 74 pack s \$0;
#X msg 89 100 read -resize \$1 \$2ir;
#X obj 240 279 array get \$0ir;
#X obj 240 304 outlet;
#X obj 240 253 b;
#X obj 200 14 else/click;
#X msg 200 40 symbol ~/IRs;
#X connect 0 0 10 0;
#X connect 0 1 1 0;
#X connect 1 0 17 0;
#X connect 2 0 3 0;
#X connect 3 0 15 0;
#X connect 3 1 4 0;
#X connect 3 1 11 0;
#X connect 4 0 8 0;
#X connect 5 0 6 0;
#X connect 7 0 8 0;
#X connect 8 0 5 1;
#X connect 10 0 5 0;
#X connect 11 0 7 0;
#X connect 12 0 1 0;
#X connect 15 0 16 0;
#X connect 16 0 10 0;
#X connect 16 0 21 0;
#X connect 17 0 18 0;
#X connect 18 0 2 0;
#X connect 19 0 20 0;
#X connect 21 0 19 0;
#X connect 22 0 23 0;
#X connect 23 0 12 0;
