#N canvas 0 59 450 300 12;
#X obj 238 82 keyname, f 8;
#X obj 238 107 pack f s;
#X msg 238 132 \$2 \$1;
#X obj 238 157 route \$1;
#X obj 238 182 outlet;
#X connect 0 0 1 0;
#X connect 0 1 1 1;
#X connect 1 0 2 0;
#X connect 2 0 3 0;
#X connect 3 0 4 0;
