#N canvas 602 488 579 464 12;
#X obj 96 6 keyup;
#X obj 28 6 key;
#X obj 377 117 table \$0kboard 231;
#X obj 291 139 loadbang;
#X obj 324 307 list split 1;
#X obj 291 214 t b f;
#X obj 291 281 list split;
#X obj 329 419 tabwrite \$0kboard;
#X obj 28 193 tabread \$0kboard;
#X obj 28 131 t f b;
#X obj 96 131 t f b;
#X obj 50 366 outlet;
#X obj 50 338 pack;
#X msg 178 282 0;
#X obj 329 392 f;
#X obj 364 339 t b f;
#X obj 192 19 inlet;
#X obj 18 223 sel 0;
#X obj 50 253 + 47;
#X obj 162 126 - 1;
#X obj 291 189 num-seq;
#X obj 292 332 + 1;
#X obj 192 44 + 1;
#X obj 192 69 * 12;
#X text 231 18 hradio for octave;
#X obj 359 37 inlet;
#X text 401 35 detune;
#X obj 359 64 / 100;
#X obj 192 95 ++;
#X obj 111 281 f;
#X msg 193 189 args;
#X obj 193 214 pdcontrol;
#X obj 193 239 route float;
#X msg 214 312 1;
#X floatatom 58 85 5 0 0 0 - - - 0;
#X msg 291 240 97 119 115 101 100 102 116 103 121 104 117 106 107 111 108 112 231 126, f 35;
#X msg 291 164 18;
#X connect 0 0 10 0;
#X connect 1 0 9 0;
#X connect 1 0 34 0;
#X connect 3 0 36 0;
#X connect 3 0 30 0;
#X connect 4 0 15 0;
#X connect 5 0 35 0;
#X connect 5 1 6 1;
#X connect 5 1 21 0;
#X connect 6 1 4 0;
#X connect 8 0 17 0;
#X connect 9 0 8 0;
#X connect 9 1 29 0;
#X connect 10 0 8 0;
#X connect 10 1 13 0;
#X connect 12 0 11 0;
#X connect 13 0 12 1;
#X connect 14 0 7 0;
#X connect 15 0 14 0;
#X connect 15 1 7 1;
#X connect 16 0 22 0;
#X connect 17 1 18 0;
#X connect 18 0 12 0;
#X connect 19 0 18 1;
#X connect 20 0 5 0;
#X connect 21 0 14 1;
#X connect 22 0 23 0;
#X connect 23 0 28 0;
#X connect 25 0 27 0;
#X connect 27 0 28 1;
#X connect 28 0 19 0;
#X connect 29 0 12 1;
#X connect 30 0 31 0;
#X connect 31 0 32 0;
#X connect 32 0 29 1;
#X connect 32 1 33 0;
#X connect 33 0 29 1;
#X connect 35 0 6 0;
#X connect 36 0 20 0;
