#N canvas 743 538 491 452 12;
#X obj 96 6 keyup;
#X obj 28 6 key;
#X obj 292 110 table \$0kboard 231;
#X obj 221 139 loadbang;
#X obj 254 307 list split 1;
#X obj 221 214 t b f;
#X obj 221 281 list split;
#X obj 259 419 tabwrite \$0kboard;
#X obj 28 193 tabread \$0kboard;
#X obj 28 131 t f b;
#X obj 96 131 t f b;
#X obj 50 366 outlet;
#X obj 50 338 pack;
#X msg 101 283 1;
#X msg 178 282 0;
#X obj 259 392 f;
#X obj 294 339 t b f;
#X msg 221 164 17;
#X obj 192 19 inlet;
#X obj 18 223 sel 0;
#X obj 50 253 + 47;
#X obj 162 126 - 1;
#X obj 221 189 num-seq;
#X msg 221 240 97 119 115 101 100 102 116 103 121 104 117 106 107 111 108 112 231, f 35;
#X obj 222 332 + 1;
#X obj 192 44 + 1;
#X obj 192 69 * 12;
#X text 231 18 hradio for octave;
#X obj 359 37 inlet;
#X text 401 35 detune;
#X obj 359 64 / 100;
#X obj 192 95 ++;
#X connect 0 0 10 0;
#X connect 1 0 9 0;
#X connect 3 0 17 0;
#X connect 4 0 16 0;
#X connect 5 0 23 0;
#X connect 5 1 6 1;
#X connect 5 1 24 0;
#X connect 6 1 4 0;
#X connect 8 0 19 0;
#X connect 9 0 8 0;
#X connect 9 1 13 0;
#X connect 10 0 8 0;
#X connect 10 1 14 0;
#X connect 12 0 11 0;
#X connect 13 0 12 1;
#X connect 14 0 12 1;
#X connect 15 0 7 0;
#X connect 16 0 15 0;
#X connect 16 1 7 1;
#X connect 17 0 22 0;
#X connect 18 0 25 0;
#X connect 19 1 20 0;
#X connect 20 0 12 0;
#X connect 21 0 20 1;
#X connect 22 0 5 0;
#X connect 23 0 6 0;
#X connect 24 0 15 1;
#X connect 25 0 26 0;
#X connect 26 0 31 0;
#X connect 28 0 30 0;
#X connect 30 0 31 1;
#X connect 31 0 21 0;
