#N canvas 200 108 449 424 12;
#X obj 57 130 t s s;
#X msg 89 155 label \$1;
#X obj 57 182 list fromsymbol;
#X obj 57 207 list length;
#X obj 57 232 *;
#X msg 57 294 vis_size \$1 \$2;
#X obj 206 212 / 1.63;
#X obj 57 15 inlet;
#X obj 206 373 outlet;
#X obj 174 157 t b f;
#X obj 57 104 symbol;
#X obj 57 40 route symbol;
#X obj 138 65 broadcast \$0;
#X obj 174 132 r \$0font;
#X obj 323 35 loadbang;
#X obj 252 71 \$1;
#X obj 252 96 sel 0;
#X msg 252 123 10, f 4;
#X obj 252 148 s \$0font;
#X obj 295 71 \$2;
#X obj 295 96 s \$0width;
#X obj 323 123 \$3;
#X obj 323 147 s \$0align-right;
#X msg 206 345 label_pos \$1 \$2;
#X obj 206 318 pack, f 5;
#X obj 206 251 t b f;
#N canvas 199 203 379 358 fixed-size-align 0;
#X obj 25 128 inlet;
#X obj 25 188 spigot 1;
#X obj 70 319 outlet;
#X obj 166 23 r \$0width;
#X obj 78 71 < 1;
#X obj 247 85 r \$0align-right;
#X obj 203 80 --;
#X obj 203 105 max 0;
#X obj 203 130 mul;
#X text 218 55 if align right = 1 \;;
#X obj 247 110 > 0;
#X obj 203 155 outlet;
#X obj 120 216 inlet;
#X obj 70 293 pack;
#X obj 120 267 max 15;
#X obj 218 230 r \$0height;
#X obj 120 242 spigot 1;
#X obj 173 216 <= 0;
#X obj 120 291 t b f;
#X connect 0 0 1 0;
#X connect 0 0 6 1;
#X connect 1 0 13 0;
#X connect 3 0 4 0;
#X connect 3 0 6 0;
#X connect 3 0 13 0;
#X connect 4 0 1 1;
#X connect 5 0 10 0;
#X connect 6 0 7 0;
#X connect 7 0 8 0;
#X connect 8 0 11 0;
#X connect 10 0 8 1;
#X connect 12 0 16 0;
#X connect 13 0 2 0;
#X connect 14 0 18 0;
#X connect 15 0 17 0;
#X connect 15 0 18 0;
#X connect 16 0 14 0;
#X connect 17 0 16 1;
#X connect 18 0 13 0;
#X connect 18 1 13 1;
#X restore 57 258 pd fixed-size-align;
#X msg 267 212 label_font 0 \$1;
#X obj 275 291 r \$0y-off;
#X obj 275 316 t b f;
#X obj 238 285 ++;
#X connect 0 0 2 0;
#X connect 0 1 1 0;
#X connect 1 0 8 0;
#X connect 2 0 3 0;
#X connect 3 0 4 0;
#X connect 4 0 26 0;
#X connect 5 0 8 0;
#X connect 6 0 4 1;
#X connect 6 0 25 0;
#X connect 7 0 11 0;
#X connect 9 0 10 0;
#X connect 9 1 6 0;
#X connect 9 1 26 1;
#X connect 9 1 27 0;
#X connect 10 0 0 0;
#X connect 11 0 10 0;
#X connect 11 1 12 0;
#X connect 13 0 9 0;
#X connect 14 0 15 0;
#X connect 14 0 19 0;
#X connect 14 0 21 0;
#X connect 15 0 16 0;
#X connect 16 0 17 0;
#X connect 16 1 18 0;
#X connect 17 0 18 0;
#X connect 19 0 20 0;
#X connect 21 0 22 0;
#X connect 23 0 8 0;
#X connect 24 0 23 0;
#X connect 25 0 24 0;
#X connect 25 1 30 0;
#X connect 26 0 5 0;
#X connect 26 1 24 0;
#X connect 27 0 8 0;
#X connect 28 0 29 0;
#X connect 29 0 24 0;
#X connect 29 1 30 1;
#X connect 30 0 24 1;
