#N canvas 845 346 522 438 12;
#X obj 103 32 inlet~;
#X msg 136 93 0;
#X obj 192 295 lop~ 50;
#X obj 192 320 lop~ 50;
#X obj 192 370 outlet~;
#N canvas 319 488 450 343 tri 0;
#X obj 36 111 inlet~;
#X obj 60 142 *~ -1;
#X obj 60 167 wrap~;
#X obj 36 194 min~;
#X obj 133 102 inlet;
#X obj 36 245 +~;
#X obj 36 270 outlet~;
#X obj 36 219 *~;
#X msg 277 173 \$1 5;
#X obj 277 198 line~;
#X msg 133 175 \$1 5;
#X obj 133 200 line~;
#X text 129 81 list min - max;
#X obj 133 130 expr ($f2 - $f1) * 2 \; $f1;
#X obj 330 85 inlet;
#X obj 330 110 == 0;
#X obj 330 135 switch~;
#X connect 0 0 3 0;
#X connect 0 0 1 0;
#X connect 1 0 2 0;
#X connect 2 0 3 1;
#X connect 3 0 7 0;
#X connect 4 0 13 0;
#X connect 5 0 6 0;
#X connect 7 0 5 0;
#X connect 8 0 9 0;
#X connect 9 0 5 1;
#X connect 10 0 11 0;
#X connect 11 0 7 1;
#X connect 13 0 10 0;
#X connect 13 1 8 0;
#X connect 14 0 15 0;
#X connect 15 0 16 0;
#X restore 31 220 pd tri;
#N canvas 320 524 450 325 sqr 0;
#X obj 46 41 inlet~;
#X obj 143 92 inlet;
#X obj 46 235 +~;
#X obj 46 260 outlet~;
#X obj 46 209 *~;
#X msg 259 191 \$1 5;
#X obj 259 216 line~;
#X msg 143 165 \$1 5;
#X obj 143 190 line~;
#X text 139 71 list min - max;
#X obj 344 69 inlet;
#X obj 344 119 switch~;
#X obj 344 94 == 1;
#X obj 46 154 +~;
#X obj 64 99 wrap~;
#X obj 64 126 *~ -1;
#X obj 143 120 expr ($f2 - $f1) \; $f1;
#X obj 46 182 +~ 0.5;
#X obj 64 74 +~;
#X obj 171 37 inlet~;
#X connect 0 0 13 0;
#X connect 0 0 18 0;
#X connect 1 0 16 0;
#X connect 2 0 3 0;
#X connect 4 0 2 0;
#X connect 5 0 6 0;
#X connect 6 0 2 1;
#X connect 7 0 8 0;
#X connect 8 0 4 1;
#X connect 10 0 12 0;
#X connect 12 0 11 0;
#X connect 13 0 17 0;
#X connect 14 0 15 0;
#X connect 15 0 13 1;
#X connect 16 0 7 0;
#X connect 16 1 5 0;
#X connect 17 0 4 0;
#X connect 18 0 14 0;
#X connect 19 0 18 1;
#X restore 81 220 pd sqr;
#X f 9;
#N canvas 342 370 450 429 sin 0;
#X obj 36 111 inlet~;
#X obj 133 102 inlet;
#X obj 36 245 +~;
#X obj 36 270 outlet~;
#X obj 36 219 *~;
#X msg 291 173 \$1 5;
#X obj 291 198 line~;
#X msg 133 175 \$1 5;
#X obj 133 200 line~;
#X text 129 81 list min - max;
#X obj 330 85 inlet;
#X obj 330 135 switch~;
#X obj 330 110 == 2;
#X obj 36 166 cos~;
#X obj 36 138 +~ 0.25;
#X obj 36 192 +~ 1;
#X obj 133 130 expr ($f2 - $f1) * 0.5 \; $f1;
#X connect 0 0 14 0;
#X connect 1 0 16 0;
#X connect 2 0 3 0;
#X connect 4 0 2 0;
#X connect 5 0 6 0;
#X connect 6 0 2 1;
#X connect 7 0 8 0;
#X connect 8 0 4 1;
#X connect 10 0 12 0;
#X connect 12 0 11 0;
#X connect 13 0 15 0;
#X connect 14 0 13 0;
#X connect 15 0 4 0;
#X connect 16 0 7 0;
#X connect 16 1 5 0;
#X restore 152 220 pd sin;
#N canvas 319 488 450 343 rmp 0;
#X obj 36 111 inlet~;
#X obj 133 102 inlet;
#X obj 36 245 +~;
#X obj 36 270 outlet~;
#X obj 36 219 *~;
#X msg 277 173 \$1 5;
#X obj 277 198 line~;
#X msg 133 175 \$1 5;
#X obj 133 200 line~;
#X text 129 81 list min - max;
#X obj 330 85 inlet;
#X obj 330 135 switch~;
#X obj 133 130 expr ($f2 - $f1) \; $f1;
#X obj 330 110 == 3;
#X connect 0 0 4 0;
#X connect 1 0 12 0;
#X connect 2 0 3 0;
#X connect 4 0 2 0;
#X connect 5 0 6 0;
#X connect 6 0 2 1;
#X connect 7 0 8 0;
#X connect 8 0 4 1;
#X connect 10 0 13 0;
#X connect 12 0 7 0;
#X connect 12 1 5 0;
#X connect 13 0 11 0;
#X restore 202 220 pd rmp;
#N canvas 320 524 450 343 saw 0;
#X obj 36 91 inlet~;
#X obj 36 122 *~ -1;
#X obj 133 102 inlet;
#X obj 36 245 +~;
#X obj 36 270 outlet~;
#X obj 36 219 *~;
#X msg 277 173 \$1 5;
#X obj 277 198 line~;
#X msg 133 175 \$1 5;
#X obj 133 200 line~;
#X text 129 81 list min - max;
#X obj 330 85 inlet;
#X obj 330 135 switch~;
#X obj 133 130 expr ($f2 - $f1) \; $f1;
#X obj 330 110 == 4;
#X obj 37 172 +~ 1;
#X connect 0 0 1 0;
#X connect 1 0 15 0;
#X connect 2 0 13 0;
#X connect 3 0 4 0;
#X connect 5 0 3 0;
#X connect 6 0 7 0;
#X connect 7 0 3 1;
#X connect 8 0 9 0;
#X connect 9 0 5 1;
#X connect 11 0 14 0;
#X connect 13 0 8 0;
#X connect 13 1 6 0;
#X connect 14 0 12 0;
#X connect 15 0 5 0;
#X restore 252 220 pd saw;
#N canvas 322 596 477 378 s&r 0;
#X obj 112 166 inlet~;
#X obj 198 135 inlet;
#X obj 51 278 +~;
#X obj 51 303 outlet~;
#X obj 51 252 *~;
#X msg 356 234 \$1 5;
#X obj 356 259 line~;
#X msg 198 208 \$1 5;
#X obj 198 233 line~;
#X text 194 114 list min - max;
#X obj 375 118 inlet;
#X obj 375 168 switch~;
#X obj 51 170 noise~;
#X obj 51 195 samphold~;
#X obj 375 143 == 5;
#X obj 162 16 inlet;
#X obj 162 42 route bang float;
#X obj 162 68 atoms/count 8;
#X obj 162 93 sel 0;
#X obj 51 120 \$0;
#X msg 51 145 seed \$1;
#X obj 198 163 expr ($f2 - $f1) * 0.5 \; $f1;
#X obj 51 223 +~ 1;
#X connect 0 0 13 1;
#X connect 1 0 21 0;
#X connect 2 0 3 0;
#X connect 4 0 2 0;
#X connect 5 0 6 0;
#X connect 6 0 2 1;
#X connect 7 0 8 0;
#X connect 8 0 4 1;
#X connect 10 0 14 0;
#X connect 12 0 13 0;
#X connect 13 0 22 0;
#X connect 14 0 11 0;
#X connect 15 0 16 0;
#X connect 16 0 17 0;
#X connect 16 1 17 1;
#X connect 17 0 18 0;
#X connect 18 0 19 0;
#X connect 19 0 20 0;
#X connect 20 0 12 0;
#X connect 21 0 7 0;
#X connect 21 1 5 0;
#X connect 22 0 4 0;
#X restore 302 220 pd s&r;
#X f 11;
#X obj 103 117 else/pimp~;
#X obj 445 112 inlet~;
#X obj 445 61 loadbang;
#X msg 445 86 0.5;
#X text 492 111 PW;
#X obj 309 183 else/trig2bang~;
#X obj 142 61 route rate phase range wave sr-seq ratio;
#N canvas 733 327 450 300 ratio 0;
#X obj 146 89 inlet;
#X obj 248 91 r global-bpm;
#X msg 248 116 60000 \$1;
#X obj 248 141 /;
#X obj 146 142 mul, f 4;
#X obj 146 257 outlet;
#X msg 146 189 1000 \$1;
#X obj 146 214 /;
#X connect 0 0 4 0;
#X connect 1 0 2 0;
#X connect 2 0 3 0;
#X connect 3 0 4 1;
#X connect 4 0 6 0;
#X connect 6 0 7 0;
#X connect 7 0 5 0;
#X restore 218 29 pd ratio;
#X connect 0 0 11 0;
#X connect 0 1 17 0;
#X connect 1 0 11 1;
#X connect 2 0 3 0;
#X connect 3 0 4 0;
#X connect 5 0 2 0;
#X connect 6 0 2 0;
#X connect 7 0 2 0;
#X connect 8 0 2 0;
#X connect 9 0 2 0;
#X connect 10 0 2 0;
#X connect 11 0 5 0;
#X connect 11 0 6 0;
#X connect 11 0 10 0;
#X connect 11 0 9 0;
#X connect 11 0 8 0;
#X connect 11 0 7 0;
#X connect 11 1 16 0;
#X connect 12 0 6 2;
#X connect 13 0 14 0;
#X connect 14 0 12 0;
#X connect 16 0 10 1;
#X connect 17 0 0 0;
#X connect 17 1 1 0;
#X connect 17 2 5 1;
#X connect 17 2 6 1;
#X connect 17 2 10 2;
#X connect 17 2 9 1;
#X connect 17 2 8 1;
#X connect 17 2 7 1;
#X connect 17 3 5 2;
#X connect 17 3 10 3;
#X connect 17 3 9 2;
#X connect 17 3 8 2;
#X connect 17 3 7 2;
#X connect 17 3 6 3;
#X connect 17 4 10 1;
#X connect 17 5 18 0;
#X connect 18 0 0 0;
