#N canvas 1340 517 491 438 12;
#X obj 93 82 inlet~;
#X msg 139 141 0;
#X obj 222 327 lop~ 50;
#X obj 222 352 lop~ 50;
#X obj 222 382 outlet~;
#N canvas 320 524 450 343 tri 0;
#X obj 36 111 inlet~;
#X obj 60 142 *~ -1;
#X obj 60 167 wrap~;
#X obj 36 194 min~;
#X obj 133 102 inlet;
#X obj 36 245 +~;
#X obj 36 270 outlet~;
#X obj 36 219 *~;
#X msg 277 173 \$1 5;
#X obj 277 198 line~;
#X msg 133 175 \$1 5;
#X obj 133 200 line~;
#X text 129 81 list min - max;
#X obj 133 130 expr ($f2 - $f1) * 2 \; $f1;
#X obj 330 85 inlet;
#X obj 330 110 == 0;
#X obj 330 135 switch~;
#X connect 0 0 3 0;
#X connect 0 0 1 0;
#X connect 1 0 2 0;
#X connect 2 0 3 1;
#X connect 3 0 7 0;
#X connect 4 0 13 0;
#X connect 5 0 6 0;
#X connect 7 0 5 0;
#X connect 8 0 9 0;
#X connect 9 0 5 1;
#X connect 10 0 11 0;
#X connect 11 0 7 1;
#X connect 13 0 10 0;
#X connect 13 1 8 0;
#X connect 14 0 15 0;
#X connect 15 0 16 0;
#X restore 61 252 pd tri;
#N canvas 321 560 450 325 sqr 0;
#X obj 46 41 inlet~;
#X obj 143 92 inlet;
#X obj 46 235 +~;
#X obj 46 260 outlet~;
#X obj 46 209 *~;
#X msg 259 191 \$1 5;
#X obj 259 216 line~;
#X msg 143 165 \$1 5;
#X obj 143 190 line~;
#X text 139 71 list min - max;
#X obj 344 69 inlet;
#X obj 344 119 switch~;
#X obj 344 94 == 1;
#X obj 46 154 +~;
#X obj 64 99 wrap~;
#X obj 64 126 *~ -1;
#X obj 143 120 expr ($f2 - $f1) \; $f1;
#X obj 46 182 +~ 0.5;
#X obj 64 74 +~;
#X obj 171 37 inlet~;
#X connect 0 0 13 0;
#X connect 0 0 18 0;
#X connect 1 0 16 0;
#X connect 2 0 3 0;
#X connect 4 0 2 0;
#X connect 5 0 6 0;
#X connect 6 0 2 1;
#X connect 7 0 8 0;
#X connect 8 0 4 1;
#X connect 10 0 12 0;
#X connect 12 0 11 0;
#X connect 13 0 17 0;
#X connect 14 0 15 0;
#X connect 15 0 13 1;
#X connect 16 0 7 0;
#X connect 16 1 5 0;
#X connect 17 0 4 0;
#X connect 18 0 14 0;
#X connect 19 0 18 1;
#X restore 111 252 pd sqr;
#X f 9;
#N canvas 343 406 450 429 sin 0;
#X obj 36 111 inlet~;
#X obj 133 102 inlet;
#X obj 36 245 +~;
#X obj 36 270 outlet~;
#X obj 36 219 *~;
#X msg 291 173 \$1 5;
#X obj 291 198 line~;
#X msg 133 175 \$1 5;
#X obj 133 200 line~;
#X text 129 81 list min - max;
#X obj 330 85 inlet;
#X obj 330 135 switch~;
#X obj 330 110 == 2;
#X obj 36 166 cos~;
#X obj 36 138 +~ 0.25;
#X obj 36 192 +~ 1;
#X obj 133 130 expr ($f2 - $f1) * 0.5 \; $f1;
#X connect 0 0 14 0;
#X connect 1 0 16 0;
#X connect 2 0 3 0;
#X connect 4 0 2 0;
#X connect 5 0 6 0;
#X connect 6 0 2 1;
#X connect 7 0 8 0;
#X connect 8 0 4 1;
#X connect 10 0 12 0;
#X connect 12 0 11 0;
#X connect 13 0 15 0;
#X connect 14 0 13 0;
#X connect 15 0 4 0;
#X connect 16 0 7 0;
#X connect 16 1 5 0;
#X restore 182 252 pd sin;
#N canvas 320 524 450 343 rmp 0;
#X obj 36 111 inlet~;
#X obj 133 102 inlet;
#X obj 36 245 +~;
#X obj 36 270 outlet~;
#X obj 36 219 *~;
#X msg 277 173 \$1 5;
#X obj 277 198 line~;
#X msg 133 175 \$1 5;
#X obj 133 200 line~;
#X text 129 81 list min - max;
#X obj 330 85 inlet;
#X obj 330 135 switch~;
#X obj 133 130 expr ($f2 - $f1) \; $f1;
#X obj 330 110 == 3;
#X connect 0 0 4 0;
#X connect 1 0 12 0;
#X connect 2 0 3 0;
#X connect 4 0 2 0;
#X connect 5 0 6 0;
#X connect 6 0 2 1;
#X connect 7 0 8 0;
#X connect 8 0 4 1;
#X connect 10 0 13 0;
#X connect 12 0 7 0;
#X connect 12 1 5 0;
#X connect 13 0 11 0;
#X restore 232 252 pd rmp;
#N canvas 320 524 450 343 saw 0;
#X obj 36 91 inlet~;
#X obj 36 122 *~ -1;
#X obj 133 102 inlet;
#X obj 36 245 +~;
#X obj 36 270 outlet~;
#X obj 36 219 *~;
#X msg 277 173 \$1 5;
#X obj 277 198 line~;
#X msg 133 175 \$1 5;
#X obj 133 200 line~;
#X text 129 81 list min - max;
#X obj 330 85 inlet;
#X obj 330 135 switch~;
#X obj 133 130 expr ($f2 - $f1) \; $f1;
#X obj 330 110 == 4;
#X obj 37 172 +~ 1;
#X connect 0 0 1 0;
#X connect 1 0 15 0;
#X connect 2 0 13 0;
#X connect 3 0 4 0;
#X connect 5 0 3 0;
#X connect 6 0 7 0;
#X connect 7 0 3 1;
#X connect 8 0 9 0;
#X connect 9 0 5 1;
#X connect 11 0 14 0;
#X connect 13 0 8 0;
#X connect 13 1 6 0;
#X connect 14 0 12 0;
#X connect 15 0 5 0;
#X restore 282 252 pd saw;
#X obj 341 136 inlet~;
#X msg 341 110 0.5;
#X text 388 135 PW;
#X obj 93 167 phasor~;
#N canvas 737 471 450 300 init 0;
#X obj 126 52 loadbang;
#X msg 126 77 args;
#X obj 126 102 pdcontrol;
#X obj 126 184 outlet;
#X obj 126 132 pack 1 -1 1 0;
#X msg 126 159 rate \$1 \, range \$2 \$3 \, wave \$4;
#X connect 0 0 1 0;
#X connect 1 0 2 0;
#X connect 2 0 4 0;
#X connect 4 0 5 0;
#X connect 5 0 3 0;
#X restore 212 59 pd init;
#X text 20 10 args: rate <f> \, range <f f> \, wave <f> \; tbm sao init params - nessa ordem;
#X obj 132 111 route rate reset range wave;
#X connect 0 0 13 0;
#X connect 0 1 16 0;
#X connect 1 0 13 1;
#X connect 2 0 3 0;
#X connect 3 0 4 0;
#X connect 5 0 2 0;
#X connect 6 0 2 0;
#X connect 7 0 2 0;
#X connect 8 0 2 0;
#X connect 9 0 2 0;
#X connect 10 0 6 2;
#X connect 11 0 10 0;
#X connect 13 0 5 0;
#X connect 13 0 6 0;
#X connect 13 0 9 0;
#X connect 13 0 8 0;
#X connect 13 0 7 0;
#X connect 14 0 11 0;
#X connect 14 0 16 0;
#X connect 16 0 0 0;
#X connect 16 1 1 0;
#X connect 16 2 5 1;
#X connect 16 2 6 1;
#X connect 16 2 9 1;
#X connect 16 2 8 1;
#X connect 16 2 7 1;
#X connect 16 3 5 2;
#X connect 16 3 9 2;
#X connect 16 3 8 2;
#X connect 16 3 7 2;
#X connect 16 3 6 3;
