#N canvas 1110 325 607 476 12;
#X obj 94 88 inlet~;
#X obj 299 312 inlet~;
#X obj 131 429 outlet~;
#N canvas 458 275 450 300 saw 0;
#X obj 73 81 inlet~;
#X obj 73 211 outlet~;
#X obj 269 73 inlet;
#X obj 269 138 switch~;
#X obj 269 107 == 0;
#X obj 73 144 *~ 0.5;
#X obj 73 169 +~ 0.5;
#X obj 73 106 else/bl.saw~;
#X obj 137 19 r \$0phase;
#X obj 137 75 else/impseq~;
#X msg 137 45 1;
#X connect 0 0 7 0;
#X connect 2 0 4 0;
#X connect 4 0 3 0;
#X connect 5 0 6 0;
#X connect 6 0 1 0;
#X connect 7 0 5 0;
#X connect 8 0 10 0;
#X connect 9 0 7 1;
#X connect 10 0 9 0;
#X restore 24 268 pd saw;
#N canvas 458 275 450 300 tri 0;
#X obj 133 81 inlet~;
#X obj 133 106 else/bl.tri~;
#X obj 133 201 outlet~;
#X obj 289 73 inlet;
#X obj 289 138 switch~;
#X obj 289 107 == 1;
#X obj 133 142 *~ 0.5;
#X obj 133 167 +~ 0.5;
#X obj 208 21 r \$0phase;
#X obj 188 77 else/impseq~;
#X msg 208 46 1;
#X connect 0 0 1 0;
#X connect 1 0 6 0;
#X connect 3 0 5 0;
#X connect 5 0 4 0;
#X connect 6 0 7 0;
#X connect 7 0 2 0;
#X connect 8 0 10 0;
#X connect 9 0 1 1;
#X connect 10 0 9 0;
#X restore 94 268 pd tri;
#N canvas 458 275 450 377 square 0;
#X obj 107 52 inlet~;
#X obj 135 258 outlet~;
#X obj 195 33 inlet~;
#X obj 309 63 inlet;
#X obj 309 128 switch~;
#X obj 309 97 == 2;
#X obj 135 149 *~ 0.5;
#X obj 135 174 +~ 0.5;
#X obj 135 123 else/bl.square~;
#X obj 169 93 +~ 0.5;
#X obj 169 64 clip~ -0.4 0.4;
#X obj 135 202 lop~ 600;
#X obj 135 227 lop~ 600;
#X obj 296 174 r \$0phase;
#X obj 296 224 else/impseq~;
#X msg 296 199 1;
#X connect 0 0 8 0;
#X connect 2 0 10 0;
#X connect 3 0 5 0;
#X connect 5 0 4 0;
#X connect 6 0 7 0;
#X connect 7 0 11 0;
#X connect 8 0 6 0;
#X connect 9 0 8 1;
#X connect 10 0 9 0;
#X connect 11 0 12 0;
#X connect 12 0 1 0;
#X connect 13 0 15 0;
#X connect 14 0 8 2;
#X connect 15 0 14 0;
#X restore 164 268 pd square;
#X obj 432 157 loadbang;
#X msg 432 182 args;
#X obj 432 207 pdcontrol;
#X obj 446 398 swap;
#X obj 446 424 -, f 4;
#X obj 131 346 *~ 1;
#X obj 131 374 +~ 0;
#N canvas 458 275 450 300 sine 0;
#X obj 133 81 inlet~;
#X obj 133 201 outlet~;
#X obj 300 84 inlet;
#X obj 300 149 switch~;
#X obj 133 142 *~ 0.5;
#X obj 133 167 +~ 0.5;
#X obj 133 106 osc~;
#X obj 300 118 == 3;
#X obj 196 83 r \$0phase;
#X msg 196 108 0;
#X connect 0 0 6 0;
#X connect 2 0 7 0;
#X connect 4 0 5 0;
#X connect 5 0 1 0;
#X connect 6 0 4 0;
#X connect 7 0 3 0;
#X connect 8 0 9 0;
#X connect 9 0 6 1;
#X restore 242 268 pd sine;
#X obj 155 86 broadcast \$0;
#X obj 288 55 r \$0wave;
#X text 27 26 args: type \, min \, max \, freq \, (cents | db | empty);
#X obj 94 54 r \$0freq;
#X obj 440 283 s \$0freq;
#X obj 131 401 modulate~;
#X obj 212 389 inlet~;
#N canvas 459 311 427 399 setup-min-max 0;
#X obj 291 169 list trim;
#X obj 193 283 cents2ratio;
#X obj 86 279 cents2ratio;
#X msg 291 221 1, f 2;
#X obj 70 148 inlet;
#X obj 177 148 inlet;
#X obj 291 140 inlet;
#X obj 70 340 outlet;
#X obj 177 350 outlet;
#X obj 86 309 - 1;
#X obj 193 321 - 1;
#X obj 291 196 route cents db;
#X obj 70 173 ABC, f 5;
#X obj 177 173 ABC, f 5;
#X obj 209 253 dbtorms;
#X obj 102 235 dbtorms;
#X msg 338 223 2, f 2;
#X obj 102 209 + 100;
#X obj 209 226 + 100;
#X obj 23 104 r \$0min;
#X obj 125 106 r \$0max;
#X obj 213 26 r \$0unit;
#X obj 125 131 1;
#X obj 23 129 0;
#X obj 213 51 t b f;
#X connect 0 0 11 0;
#X connect 1 0 10 0;
#X connect 2 0 9 0;
#X connect 3 0 13 1;
#X connect 3 0 12 1;
#X connect 4 0 12 0;
#X connect 5 0 13 0;
#X connect 6 0 0 0;
#X connect 9 0 7 0;
#X connect 10 0 8 0;
#X connect 11 0 3 0;
#X connect 11 1 16 0;
#X connect 12 0 7 0;
#X connect 12 1 2 0;
#X connect 12 2 17 0;
#X connect 13 0 8 0;
#X connect 13 1 1 0;
#X connect 13 2 18 0;
#X connect 14 0 10 0;
#X connect 15 0 9 0;
#X connect 16 0 13 1;
#X connect 16 0 12 1;
#X connect 17 0 15 0;
#X connect 18 0 14 0;
#X connect 19 0 23 0;
#X connect 20 0 22 0;
#X connect 21 0 24 0;
#X connect 22 0 13 0;
#X connect 23 0 12 0;
#X connect 24 0 22 0;
#X connect 24 0 23 0;
#X connect 24 1 13 1;
#X connect 24 1 12 1;
#X restore 446 326 pd setup-min-max;
#N canvas 1234 283 450 300 samphold 0;
#X obj 57 106 noise~;
#X obj 57 131 samphold~;
#X obj 117 76 phasor~;
#X obj 118 31 inlet~;
#X obj 269 73 inlet;
#X obj 269 138 switch~;
#X obj 269 107 == 4;
#X obj 57 156 *~ 0.5;
#X obj 57 181 +~ 0.5;
#X obj 57 276 outlet~;
#X obj 71 213 lop~ 100;
#X obj 71 238 lop~ 100;
#X connect 0 0 1 0;
#X connect 1 0 7 0;
#X connect 2 0 1 1;
#X connect 3 0 2 0;
#X connect 4 0 6 0;
#X connect 6 0 5 0;
#X connect 7 0 8 0;
#X connect 8 0 10 0;
#X connect 10 0 11 0;
#X connect 11 0 9 0;
#X restore 305 268 pd samphold;
#X obj 362 108 find-index saw tri square sine sh, f 18;
#X obj 288 80 route float;
#X obj 467 366 t b f;
#X obj 432 237 unpack s f f f s;
#X connect 0 0 4 0;
#X connect 0 0 5 0;
#X connect 0 0 3 0;
#X connect 0 0 13 0;
#X connect 0 0 22 0;
#X connect 0 1 14 0;
#X connect 1 0 5 1;
#X connect 3 0 11 0;
#X connect 4 0 11 0;
#X connect 5 0 11 0;
#X connect 6 0 7 0;
#X connect 7 0 8 0;
#X connect 8 0 26 0;
#X connect 9 0 10 0;
#X connect 9 1 10 1;
#X connect 10 0 11 1;
#X connect 11 0 12 0;
#X connect 12 0 19 0;
#X connect 13 0 11 0;
#X connect 15 0 24 0;
#X connect 17 0 0 0;
#X connect 19 0 2 0;
#X connect 20 0 19 1;
#X connect 21 0 9 0;
#X connect 21 0 12 1;
#X connect 21 1 25 0;
#X connect 22 0 11 0;
#X connect 23 0 5 2;
#X connect 23 0 4 1;
#X connect 23 0 3 1;
#X connect 23 0 13 1;
#X connect 23 0 22 1;
#X connect 24 0 22 1;
#X connect 24 0 13 1;
#X connect 24 0 5 1;
#X connect 24 0 4 1;
#X connect 24 0 3 1;
#X connect 24 1 23 0;
#X connect 25 0 9 0;
#X connect 25 1 9 1;
#X connect 26 0 23 0;
#X connect 26 1 18 0;
#X connect 26 2 21 0;
#X connect 26 3 21 1;
#X connect 26 4 21 2;
