#N canvas 872 293 406 374 12;
#X obj 43 90 inlet;
#X obj 161 214 list store;
#X obj 301 194 b;
#X obj 301 136 spigot;
#X msg 309 164 0;
#X obj 43 116 t b a b;
#X msg 301 105 1;
#X obj 161 239 outlet;
#X obj 111 257 inlet;
#X obj 43 250 sel \$1;
#X obj 43 153 f;
#X obj 43 178 + 1;
#X msg 93 175 0;
#X obj 161 146 list prepend append, f 12;
#X obj 161 187 list trim;
#X text 10 11 arg1: list size \; When reaches arg1 \, output the list and allow next input to reset \;, f 35;
#X connect 0 0 5 0;
#X connect 1 0 7 0;
#X connect 2 0 1 1;
#X connect 3 0 2 0;
#X connect 3 0 4 0;
#X connect 4 0 3 1;
#X connect 5 0 10 0;
#X connect 5 1 13 0;
#X connect 5 2 3 0;
#X connect 6 0 3 1;
#X connect 8 0 9 1;
#X connect 9 0 6 0;
#X connect 9 0 1 0;
#X connect 9 0 12 0;
#X connect 10 0 11 0;
#X connect 11 0 10 1;
#X connect 11 0 9 0;
#X connect 12 0 10 1;
#X connect 13 0 14 0;
#X connect 14 0 1 0;
