#N canvas 159 197 365 381 12;
#X obj 41 105 inlet;
#X obj 41 130 bng 15 250 50 0 empty empty empty 17 7 0 10 -262144 -1
-1;
#X obj 41 151 1;
#X obj 41 176 until;
#X obj 74 331 outlet;
#X obj 41 202 random 2;
#X obj 41 253 list 0 1;
#X obj 154 78 loadbang;
#X msg 154 103 args;
#X obj 154 128 pdcontrol;
#X obj 154 153 list split 1;
#X obj 97 131 max 1;
#X obj 97 105 inlet;
#X obj 205 179 inlet;
#X msg 303 239 0 1;
#X obj 194 282 list length;
#X obj 194 208 route list float;
#X msg 248 239 0 \$1;
#X obj 41 227 t b f;
#X obj 41 279 list split;
#X msg 74 304 \$1;
#X text 57 17 1st arg sets iterations \, rest of args is a list that
contains the random choices, f 28;
#X connect 0 0 1 0;
#X connect 1 0 2 0;
#X connect 2 0 3 0;
#X connect 3 0 5 0;
#X connect 5 0 18 0;
#X connect 6 0 19 0;
#X connect 7 0 8 0;
#X connect 8 0 9 0;
#X connect 9 0 10 0;
#X connect 10 0 11 0;
#X connect 10 1 16 0;
#X connect 11 0 2 1;
#X connect 12 0 11 0;
#X connect 13 0 16 0;
#X connect 14 0 6 1;
#X connect 14 0 15 0;
#X connect 15 0 5 1;
#X connect 16 0 6 1;
#X connect 16 0 15 0;
#X connect 16 1 17 0;
#X connect 16 2 14 0;
#X connect 17 0 6 1;
#X connect 17 0 15 0;
#X connect 18 0 6 0;
#X connect 18 1 19 1;
#X connect 19 1 20 0;
#X connect 20 0 4 0;
