#N canvas 1211 618 450 372 12;
#X obj 192 41 else/click;
#X msg 192 66 symbol ~/samples;
#X obj 192 91 openpanel;
#X obj 192 166 soundfiler;
#X obj 192 116 list append \$1;
#X msg 192 141 read -resize \$1 \$2;
#X obj 202 215 f;
#X obj 142 215 symbol;
#X obj 85 83 inlet;
#X obj 85 108 b;
#X obj 142 240 outlet;
#X obj 85 240 outlet;
#X obj 202 240 outlet;
#X text 25 11 arg 1 is table \, bang outputs all file info;
#X obj 38 46 inlet;
#X obj 85 215 f;
#X msg 94 186 \$1;
#X floatatom 40 280 5 0 0 0 - - - 0;
#X connect 0 0 1 0;
#X connect 1 0 2 0;
#X connect 2 0 4 0;
#X connect 2 0 7 0;
#X connect 3 0 16 0;
#X connect 3 1 6 0;
#X connect 4 0 5 0;
#X connect 5 0 3 0;
#X connect 6 0 12 0;
#X connect 7 0 10 0;
#X connect 8 0 9 0;
#X connect 9 0 7 0;
#X connect 9 0 6 0;
#X connect 9 0 15 0;
#X connect 14 0 1 0;
#X connect 15 0 11 0;
#X connect 16 0 15 0;
