#N canvas 5 92 372 264 12;
#X obj 103 195 outlet;
#X obj 103 170 pack f f, f 16;
#X obj 180 60 loadbang;
#X obj 180 85 \$1;
#X obj 103 110 unpack;
#X obj 103 85 inlet;
#X obj 180 110 sel 0;
#X obj 103 145 makenote 100 200;
#X obj 238 125 inlet;
#X text 75 14 convenience over makenote;
#X connect 1 0 0 0;
#X connect 2 0 3 0;
#X connect 3 0 6 0;
#X connect 4 0 7 0;
#X connect 4 1 7 1;
#X connect 5 0 4 0;
#X connect 6 1 7 2;
#X connect 7 0 1 0;
#X connect 7 1 1 1;
#X connect 8 0 7 2;
