#N canvas 115 160 394 202 12;
#X obj 75 48 inlet~;
#X obj 75 113 +~;
#X obj 75 138 outlet~;
#X obj 93 86 *~;
#X obj 128 66 inlet~;
#X text 58 28 add a ratio of itself \;;
#X connect 0 0 1 0;
#X connect 0 0 3 0;
#X connect 1 0 2 0;
#X connect 3 0 1 1;
#X connect 4 0 3 1;
