#N canvas 735 327 450 398 12;
#X obj 201 254 *~ 0.7;
#X obj 202 67 noise~;
#X obj 202 92 lop~ 1;
#X obj 202 117 lop~ 1;
#X obj 147 42 delwrite~ \$1-d 100000;
#X obj 201 227 delread4~ \$1-d;
#X obj 144 14 inlet~;
#X obj 201 279 outlet~;
#X obj 290 113 inlet;
#X obj 202 201 +~ 50;
#X obj 201 145 pow~ 2;
#X obj 202 172 *~ \$2;
#X connect 0 0 4 0;
#X connect 0 0 7 0;
#X connect 1 0 2 0;
#X connect 2 0 3 0;
#X connect 3 0 10 0;
#X connect 5 0 0 0;
#X connect 6 0 4 0;
#X connect 8 0 11 1;
#X connect 9 0 5 0;
#X connect 10 0 11 0;
#X connect 11 0 9 0;
