#N canvas 0 95 430 299 12;
#X obj 106 173 until;
#X obj 126 200 f;
#X obj 164 200 + 1;
#X msg 152 172 0;
#X obj 113 142 t f f;
#X obj 113 27 inlet;
#X obj 126 255 outlet;
#X obj 198 207 inlet;
#X text 241 209 starting number;
#X obj 126 227 + \$2;
#X obj 113 86 \$1;
#X connect 0 0 1 0;
#X connect 1 0 2 0;
#X connect 1 0 9 0;
#X connect 2 0 1 1;
#X connect 3 0 1 1;
#X connect 4 0 0 0;
#X connect 4 1 3 0;
#X connect 5 0 10 0;
#X connect 7 0 9 1;
#X connect 9 0 6 0;
#X connect 10 0 4 0;
