#N canvas 0 95 430 222 12;
#X obj 106 113 until;
#X obj 126 140 f;
#X obj 164 140 + 1;
#X msg 152 112 0;
#X obj 113 82 t f f;
#X obj 113 27 inlet;
#X obj 126 195 outlet;
#X obj 198 147 inlet;
#X text 241 149 starting number;
#X obj 126 167 + \$1;
#X obj 113 56 route float;
#X connect 0 0 1 0;
#X connect 1 0 2 0;
#X connect 1 0 9 0;
#X connect 2 0 1 1;
#X connect 3 0 1 1;
#X connect 4 0 0 0;
#X connect 4 1 3 0;
#X connect 5 0 10 0;
#X connect 7 0 9 1;
#X connect 9 0 6 0;
#X connect 10 0 4 0;
