#N canvas 71 163 412 408 12;
#X obj 45 187 inlet;
#X obj 45 307 outlet;
#X obj 234 319 outlet;
#X obj 234 282 spigot;
#X obj 273 251 == 0;
#X msg 119 272 0;
#X obj 190 131 inlet;
#X msg 190 156 1;
#X obj 45 252 spigot 1;
#X text 57 26 fist message goes left \, rest goes right \; bang on 2nd inlet resets behavior \;;
#X text 64 72 Argument = default open or close;
#X obj 289 122 loadbang;
#X msg 289 147 args;
#X obj 289 172 pdcontrol;
#X obj 289 197 route float;
#X connect 0 0 3 0;
#X connect 0 0 8 0;
#X connect 3 0 2 0;
#X connect 4 0 3 1;
#X connect 5 0 8 1;
#X connect 5 0 4 0;
#X connect 6 0 7 0;
#X connect 7 0 4 0;
#X connect 7 0 8 1;
#X connect 8 0 1 0;
#X connect 8 0 5 0;
#X connect 11 0 12 0;
#X connect 12 0 13 0;
#X connect 13 0 14 0;
#X connect 14 0 8 1;
