#N canvas 70 127 412 269 12;
#X obj 93 94 inlet;
#X obj 93 214 outlet;
#X obj 214 216 outlet;
#X obj 214 179 spigot;
#X obj 253 148 == 0;
#X msg 167 179 0;
#X obj 188 81 inlet;
#X msg 188 106 1;
#X obj 93 159 spigot 1;
#X text 57 26 fist message goes left \, rest goes right \; bang on
2nd inlet resets behavior \;;
#X connect 0 0 3 0;
#X connect 0 0 8 0;
#X connect 3 0 2 0;
#X connect 4 0 3 1;
#X connect 5 0 8 1;
#X connect 5 0 4 0;
#X connect 6 0 7 0;
#X connect 7 0 4 0;
#X connect 7 0 8 1;
#X connect 8 0 1 0;
#X connect 8 0 5 0;
