#N canvas 740 579 450 300 12;
#X obj 73 94 unpack s f;
#X obj 73 119 list fromsymbol;
#X obj 73 170 - 48;
#X obj 73 195 pack f f, f 10;
#X obj 73 43 inlet;
#X obj 73 220 outlet;
#X obj 73 69 route \$1;
#X obj 207 53 loadbang;
#X obj 207 78 symbol \$1;
#X obj 207 103 sel seq-buttons;
#X obj 158 175 clip 0 1;
#X obj 140 148 AB;
#X obj 207 128 tgl 20 0 empty empty empty 0 -10 0 12 #fcfcfc #000000 #000000 0 1;
#X connect 0 0 1 0;
#X connect 0 1 11 0;
#X connect 1 0 2 0;
#X connect 2 0 3 0;
#X connect 3 0 5 0;
#X connect 4 0 6 0;
#X connect 6 0 0 0;
#X connect 7 0 8 0;
#X connect 8 0 9 0;
#X connect 9 0 12 0;
#X connect 10 0 3 1;
#X connect 11 0 3 1;
#X connect 11 1 10 0;
#X connect 12 0 11 1;
