#N canvas 459 257 450 300 12;
#X obj 100 70 inlet~;
#X obj 100 173 dac~;
#X obj 101 101 cnv 18 92 18 empty empty output~ 2 7 0 12 #e0e0e0 #404040 0;
#X obj 100 120 panels/gain~;
#A saved 0.629961;
#X connect 0 0 3 0;
#X connect 3 0 1 0;
#X connect 3 0 1 1;
#X coords 0 -1 1 1 94 58 2 100 100;
