#N canvas 631 265 459 378 12;
#X obj 287 137 max 1;
#X obj 73 245 outlet~;
#X obj 73 61 inlet~ fwd;
#X floatatom 287 108 5 0 0 0 - - - 0;
#X obj 73 216 expr~ atan($v1*$v2) / atan($v2);
#X obj 287 81 route gain;
#X msg 287 162 \$1 5;
#X obj 287 187 line~;
#X connect 0 0 6 0;
#X connect 2 0 4 0;
#X connect 2 1 5 0;
#X connect 3 0 0 0;
#X connect 4 0 1 0;
#X connect 5 0 3 0;
#X connect 6 0 7 0;
#X connect 7 0 4 1;
