#N canvas 640 265 450 378 12;
#X obj 201 167 max 1;
#X obj 201 192 sig~ 1;
#X obj 201 277 lop~ 50;
#X obj 73 331 outlet~;
#X obj 73 303 expr~ atan($v1*$v2) * pow(1/$v2 \, $f3);
#X obj 329 244 loadbang;
#X obj 73 61 inlet~ fwd;
#X obj 201 81 route gain compensation;
#X msg 329 269 0.4;
#X floatatom 201 128 5 0 0 0 - - - 0;
#X obj 121 192 inlet~;
#X obj 200 238 modulate~;
#X connect 0 0 1 0;
#X connect 1 0 11 0;
#X connect 2 0 4 1;
#X connect 4 0 3 0;
#X connect 5 0 8 0;
#X connect 6 0 4 0;
#X connect 6 1 7 0;
#X connect 7 0 9 0;
#X connect 7 1 4 2;
#X connect 8 0 4 2;
#X connect 9 0 0 0;
#X connect 10 0 11 1;
#X connect 11 0 2 0;
