#N canvas 396 613 459 378 12;
#X obj 73 275 outlet~;
#X obj 73 61 inlet~ fwd;
#X floatatom 343 138 5 0 0 0 - - - 0;
#X msg 343 192 \$1 5;
#X obj 343 217 line~;
#X obj 343 44 inlet;
#X obj 168 17 loadbang;
#X obj 73 246 expr~ atan($v1*$v2) / atan(max(1 \, $v2));
#X obj 168 42 expr if(\$1 == 0 \, 1 \, \$1);
#X obj 343 75 + 100;
#X obj 343 102 dbtorms;
#X connect 1 0 7 0;
#X connect 2 0 3 0;
#X connect 3 0 4 0;
#X connect 4 0 7 1;
#X connect 5 0 9 0;
#X connect 6 0 8 0;
#X connect 7 0 0 0;
#X connect 8 0 2 0;
#X connect 9 0 10 0;
#X connect 10 0 2 0;
