#N canvas 420 441 450 300 12;
#X obj 62 88 route seq_buttons nav_buttons encoders;
#X obj 20 190 f;
#X obj 20 215 pack, f 6;
#X obj 277 184 f;
#X obj 277 209 pack, f 6;
#X obj 20 240 outlet;
#X obj 140 241 outlet;
#X obj 277 234 outlet;
#X obj 60 190 > 0;
#X obj 62 19 atoms/receive-osc;
#X obj 20 135 list split 1;
#X obj 60 162 f;
#X obj 140 190 f;
#X obj 140 215 pack, f 6;
#X obj 180 190 > 0;
#X obj 140 135 list split 1;
#X obj 180 162 f;
#X obj 277 159 list split 1;
#X connect 0 0 10 0;
#X connect 0 1 15 0;
#X connect 0 2 17 0;
#X connect 1 0 2 0;
#X connect 2 0 5 0;
#X connect 3 0 4 0;
#X connect 4 0 7 0;
#X connect 8 0 2 1;
#X connect 9 0 0 0;
#X connect 10 0 1 0;
#X connect 10 1 11 0;
#X connect 11 0 8 0;
#X connect 12 0 13 0;
#X connect 13 0 6 0;
#X connect 14 0 13 1;
#X connect 15 0 12 0;
#X connect 15 1 16 0;
#X connect 16 0 14 0;
#X connect 17 0 3 0;
#X connect 17 1 4 1;
