#N canvas 1187 58 530 591 12;
#X obj 66 91 atoms/send-osc navigate;
#X msg 286 71 192.168.1.23 7777;
#X msg 66 31 blinking;
#X msg 154 52 home;
#X obj 149 525 atoms/send-osc param;
#X obj 65 358 tgl 20 0 empty empty empty 0 -10 0 12 #fcfcfc #000000 #000000 0 1;
#X obj 89 358 tgl 20 0 empty empty empty 0 -10 0 12 #fcfcfc #000000 #000000 0 1;
#X obj 115 358 tgl 20 0 empty empty empty 0 -10 0 12 #fcfcfc #000000 #000000 0 1;
#X obj 139 358 tgl 20 0 empty empty empty 0 -10 0 12 #fcfcfc #000000 #000000 0 1;
#X obj 165 358 tgl 20 0 empty empty empty 0 -10 0 12 #fcfcfc #000000 #000000 0 1;
#X obj 189 358 tgl 20 0 empty empty empty 0 -10 0 12 #fcfcfc #000000 #000000 0 1;
#X obj 215 358 tgl 20 0 empty empty empty 0 -10 0 12 #fcfcfc #000000 #000000 0 1;
#X obj 239 358 tgl 20 0 empty empty empty 0 -10 0 12 #fcfcfc #000000 #000000 0 1;
#X obj 65 428 pack f f f f f f f f;
#X obj 35 404 b;
#X obj 65 453 atoms/8bit2byte;
#X msg 65 505 l \$1;
#X obj 65 158 atoms/receive-osc;
#X floatatom 65 479 5 0 0 0 - - - 0;
#X obj 65 319 route 1 2 3 4 5 6 7 8;
#X obj 308 156 atoms/accum;
#X obj 308 181 vsl 20 170 0 127 0 0 empty empty empty 0 -9 0 12 #fcfcfc #000000 #000000 0 1;
#X obj 65 193 atoms/panel-input;
#X obj 308 124 route 1 2 3 4;
#X obj 339 182 atoms/accum;
#X obj 339 207 vsl 20 170 0 127 0 0 empty empty empty 0 -9 0 12 #fcfcfc #000000 #000000 0 1;
#X obj 369 205 atoms/accum;
#X obj 369 230 vsl 20 170 0 127 0 0 empty empty empty 0 -9 0 12 #fcfcfc #000000 #000000 0 1;
#X obj 400 231 atoms/accum;
#X obj 400 256 vsl 20 170 0 127 0 0 empty empty empty 0 -9 0 12 #fcfcfc #000000 #000000 0 1;
#X obj 81 240 route 2 3 4 5 6;
#X obj 81 265 tgl 20 0 empty empty empty 0 -10 0 12 #fcfcfc #000000 #000000 0 1;
#X obj 111 265 tgl 20 0 empty empty empty 0 -10 0 12 #fcfcfc #000000 #000000 0 1;
#X obj 141 265 tgl 20 0 empty empty empty 0 -10 0 12 #fcfcfc #000000 #000000 0 1;
#X obj 171 265 tgl 20 0 empty empty empty 0 -10 0 12 #fcfcfc #000000 #000000 0 1;
#X obj 201 265 tgl 20 0 empty empty empty 0 -10 0 12 #fcfcfc #000000 #000000 0 1;
#X connect 1 0 0 1;
#X connect 1 0 4 1;
#X connect 2 0 0 0;
#X connect 3 0 0 0;
#X connect 5 0 13 0;
#X connect 6 0 13 1;
#X connect 6 0 14 0;
#X connect 7 0 13 2;
#X connect 7 0 14 0;
#X connect 8 0 13 3;
#X connect 8 0 14 0;
#X connect 9 0 13 4;
#X connect 9 0 14 0;
#X connect 10 0 13 5;
#X connect 10 0 14 0;
#X connect 11 0 13 6;
#X connect 11 0 14 0;
#X connect 12 0 13 7;
#X connect 12 0 14 0;
#X connect 13 0 15 0;
#X connect 14 0 13 0;
#X connect 15 0 18 0;
#X connect 16 0 4 0;
#X connect 17 0 22 0;
#X connect 18 0 16 0;
#X connect 19 0 5 0;
#X connect 19 1 6 0;
#X connect 19 2 7 0;
#X connect 19 3 8 0;
#X connect 19 4 9 0;
#X connect 19 5 10 0;
#X connect 19 6 11 0;
#X connect 19 7 12 0;
#X connect 20 0 21 0;
#X connect 22 0 19 0;
#X connect 22 1 30 0;
#X connect 22 2 23 0;
#X connect 23 0 20 0;
#X connect 23 1 24 0;
#X connect 23 2 26 0;
#X connect 23 3 28 0;
#X connect 24 0 25 0;
#X connect 26 0 27 0;
#X connect 28 0 29 0;
#X connect 30 0 31 0;
#X connect 30 1 32 0;
#X connect 30 2 33 0;
#X connect 30 3 34 0;
#X connect 30 4 35 0;
