#N canvas 1146 400 601 345 12;
#X obj 350 40 hradio 20 1 0 2 empty empty empty 0 -10 0 12 #fcfcfc #000000 #000000 0;
#X obj 350 65 * 2;
#X obj 350 90 - 1;
#X obj 401 40 hradio 20 1 0 2 empty empty empty 0 -10 0 12 #fcfcfc #000000 #000000 0;
#X obj 401 65 * 2;
#X obj 401 90 - 1;
#X obj 450 40 hradio 20 1 0 2 empty empty empty 0 -10 0 12 #fcfcfc #000000 #000000 0;
#X obj 450 65 * 2;
#X obj 450 90 - 1;
#X obj 501 40 hradio 20 1 0 2 empty empty empty 0 -10 0 12 #fcfcfc #000000 #000000 0;
#X obj 501 65 * 2;
#X obj 501 90 - 1;
#X obj 116 59 bng 30 250 50 0 empty empty empty 0 -10 0 12 #fcfcfc #000000 #000000;
#X obj 350 123 oscformat encoders 1;
#X obj 350 269 netsend -u -b;
#X obj 399 218 loadbang;
#X obj 363 146 oscformat encoders 2;
#X obj 376 170 oscformat encoders 3;
#X obj 389 194 oscformat encoders 4;
#X obj 41 218 oscformat nav-buttons 1, f 13;
#X obj 150 59 bng 30 250 50 0 empty empty empty 0 -10 0 12 #fcfcfc #000000 #000000;
#X obj 116 92 bng 30 250 50 0 empty empty empty 0 -10 0 12 #fcfcfc #000000 #000000;
#X obj 150 92 bng 30 250 50 0 empty empty empty 0 -10 0 12 #fcfcfc #000000 #000000;
#X obj 183 59 bng 30 250 50 0 empty empty empty 0 -10 0 12 #fcfcfc #000000 #000000;
#X obj 183 92 bng 30 250 50 0 empty empty empty 0 -10 0 12 #fcfcfc #000000 #000000;
#X obj 142 218 oscformat nav-buttons 2, f 13;
#X obj 243 218 oscformat nav-buttons 3, f 13;
#X obj 41 256 oscformat nav-buttons 4, f 13;
#X obj 142 256 oscformat nav-buttons 5, f 13;
#X obj 243 256 oscformat nav-buttons 6, f 13;
#X msg 399 242 connect localhost 7778;
#X connect 0 0 1 0;
#X connect 1 0 2 0;
#X connect 2 0 13 0;
#X connect 3 0 4 0;
#X connect 4 0 5 0;
#X connect 5 0 16 0;
#X connect 6 0 7 0;
#X connect 7 0 8 0;
#X connect 8 0 17 0;
#X connect 9 0 10 0;
#X connect 10 0 11 0;
#X connect 11 0 18 0;
#X connect 12 0 19 0;
#X connect 13 0 14 0;
#X connect 15 0 30 0;
#X connect 16 0 14 0;
#X connect 17 0 14 0;
#X connect 18 0 14 0;
#X connect 19 0 14 0;
#X connect 20 0 25 0;
#X connect 21 0 27 0;
#X connect 22 0 28 0;
#X connect 23 0 26 0;
#X connect 24 0 29 0;
#X connect 25 0 14 0;
#X connect 26 0 14 0;
#X connect 27 0 14 0;
#X connect 28 0 14 0;
#X connect 29 0 14 0;
#X connect 30 0 14 0;
