#N canvas 743 687 450 300 12;
#X obj 62 58 route seq_buttons nav_buttons encoders;
#X obj 20 160 f;
#X obj 20 185 pack, f 10;
#X obj 20 135 unpack s f;
#X obj 141 160 f;
#X obj 141 185 pack, f 10;
#X obj 141 135 unpack s f;
#X obj 277 154 f;
#X obj 277 179 pack, f 10;
#X obj 277 129 unpack s f;
#X obj 20 210 outlet;
#X obj 141 210 outlet;
#X obj 277 204 outlet;
#X obj 208 160 < 0;
#X obj 87 160 > 0;
#X obj 62 19 atoms/receive-osc;
#X connect 0 0 3 0;
#X connect 0 1 6 0;
#X connect 0 2 9 0;
#X connect 1 0 2 0;
#X connect 2 0 10 0;
#X connect 3 0 1 0;
#X connect 3 1 14 0;
#X connect 4 0 5 0;
#X connect 5 0 11 0;
#X connect 6 0 4 0;
#X connect 6 1 13 0;
#X connect 7 0 8 0;
#X connect 8 0 12 0;
#X connect 9 0 7 0;
#X connect 9 1 8 1;
#X connect 13 0 5 1;
#X connect 14 0 2 1;
#X connect 15 0 0 0;
