#N canvas 736 363 450 352 12;
#X obj 63 190 inlet~;
#X obj 63 263 outlet~;
#X obj 253 263 outlet~;
#X obj 135 69 clip 0.5 1;
#X obj 271 126 clip 0 0.5;
#X obj 135 94 - 1;
#X obj 135 119 abs;
#X obj 135 144 * 2;
#X obj 135 169 sqrt;
#X obj 135 194 lop~ 50;
#X obj 63 235 *~;
#X obj 271 151 * 2;
#X obj 271 176 sqrt;
#X obj 271 201 lop~ 50;
#X obj 253 235 *~;
#X obj 224 23 inlet;
#X obj 281 37 loadbang;
#X msg 281 62 0.5;
#X connect 0 0 10 0;
#X connect 0 0 14 0;
#X connect 3 0 5 0;
#X connect 4 0 11 0;
#X connect 5 0 6 0;
#X connect 6 0 7 0;
#X connect 7 0 8 0;
#X connect 8 0 9 0;
#X connect 9 0 10 1;
#X connect 10 0 1 0;
#X connect 11 0 12 0;
#X connect 12 0 13 0;
#X connect 13 0 14 1;
#X connect 14 0 2 0;
#X connect 15 0 4 0;
#X connect 15 0 3 0;
#X connect 16 0 17 0;
#X connect 17 0 4 0;
#X connect 17 0 3 0;
