#N canvas 1166 295 450 352 12;
#X obj 63 190 inlet~;
#X obj 63 263 outlet~;
#X obj 253 263 outlet~;
#X obj 63 235 *~;
#X obj 253 235 *~;
#X obj 224 22 loadbang;
#X msg 224 47 0.5;
#X obj 271 176 sqrt~;
#X obj 271 151 *~ 2;
#X obj 271 126 clip~ 0 0.5;
#X obj 224 73 inlet~;
#X obj 185 126 clip~ 0.5 1;
#X obj 128 167 expr~ sqrt(abs($v1-1)*2), f 18;
#X connect 0 0 3 0;
#X connect 0 0 4 0;
#X connect 3 0 1 0;
#X connect 4 0 2 0;
#X connect 5 0 6 0;
#X connect 6 0 10 0;
#X connect 7 0 4 1;
#X connect 8 0 7 0;
#X connect 9 0 8 0;
#X connect 10 0 9 0;
#X connect 10 0 11 0;
#X connect 11 0 12 0;
#X connect 12 0 3 1;
