#N canvas 458 221 450 300 12;
#X obj 144 70 inlet;
#X obj 144 95 list split 1;
#X obj 144 124 s2l /;
#X obj 144 149 list append;
#X obj 144 174 list trim;
#X obj 144 199 outlet;
#X connect 0 0 1 0;
#X connect 1 0 2 0;
#X connect 1 1 3 1;
#X connect 2 0 3 0;
#X connect 3 0 4 0;
#X connect 4 0 5 0;
