#N canvas 736 435 450 300 12;
#X obj 75 44 inlet~;
#X obj 146 196 sig~ 0.0001;
#X obj 75 168 fftease/pvharm~;
#X obj 75 227 outlet~;
#X obj 114 99 expr pow(2 \, $f1/12);
#X obj 294 55 loadbang;
#X msg 294 80 args;
#X obj 294 105 pdcontrol;
#X obj 294 130 route float;
#X msg 294 170 0;
#X msg 207 232 97;
#X obj 207 257 dbtorms;
#X obj 76 196 *~;
#X obj 114 73 route tone;
#X connect 0 0 2 0;
#X connect 0 1 13 0;
#X connect 1 0 2 3;
#X connect 2 0 12 0;
#X connect 4 0 2 1;
#X connect 4 0 2 2;
#X connect 5 0 6 0;
#X connect 5 0 10 0;
#X connect 6 0 7 0;
#X connect 7 0 8 0;
#X connect 8 0 4 0;
#X connect 8 1 9 0;
#X connect 9 0 4 0;
#X connect 10 0 11 0;
#X connect 11 0 12 1;
#X connect 12 0 3 0;
#X connect 13 0 4 0;
