#N canvas 736 435 529 426 12;
#X obj 17 201 inlet~;
#X obj 17 281 fftease/pvharm~;
#X obj 17 340 outlet~;
#X obj 100 236 expr pow(2 \, $f1/12);
#X obj 336 115 loadbang;
#X msg 173 84 args;
#X obj 173 109 pdcontrol;
#X obj 173 134 route float;
#X msg 247 162 0;
#X msg 314 283 97;
#X obj 314 308 dbtorms;
#X obj 18 309 *~;
#X obj 138 279 sig~ 0.001;
#X obj 100 200 inlet;
#X obj 249 236 expr pow(2 \, $f1/12);
#X obj 249 199 inlet;
#X obj 173 161 f;
#X obj 338 51 block~ 512 1 0.5;
#X connect 0 0 1 0;
#X connect 1 0 11 0;
#X connect 3 0 1 1;
#X connect 4 0 5 0;
#X connect 4 0 9 0;
#X connect 5 0 6 0;
#X connect 6 0 7 0;
#X connect 7 0 16 0;
#X connect 7 1 8 0;
#X connect 8 0 16 0;
#X connect 9 0 10 0;
#X connect 10 0 11 1;
#X connect 11 0 2 0;
#X connect 12 0 1 3;
#X connect 13 0 3 0;
#X connect 14 0 1 2;
#X connect 15 0 14 0;
#X connect 16 0 14 0;
#X connect 16 0 3 0;
