#N canvas 366 416 529 426 12;
#X obj 17 201 inlet~;
#X obj 17 281 fftease/pvharm~;
#X obj 17 340 outlet~;
#X obj 82 229 expr pow(2 \, $f1/12);
#X obj 390 128 loadbang;
#X msg 138 37 args;
#X obj 138 62 pdcontrol;
#X msg 247 112 0;
#X msg 432 264 97;
#X obj 432 289 dbtorms;
#X obj 18 309 *~;
#X obj 138 279 sig~ 0.001;
#X obj 76 147 inlet;
#X obj 254 230 expr pow(2 \, $f1/12);
#X obj 254 193 inlet;
#X obj 138 114 f;
#X obj 335 19 inlet;
#X obj 138 87 route float list;
#X obj 192 148 unpack;
#X obj 338 51 switch~ 128 1 0.25;
#X connect 0 0 1 0;
#X connect 1 0 10 0;
#X connect 3 0 1 1;
#X connect 4 0 5 0;
#X connect 4 0 8 0;
#X connect 5 0 6 0;
#X connect 6 0 17 0;
#X connect 7 0 15 0;
#X connect 8 0 9 0;
#X connect 9 0 10 1;
#X connect 10 0 2 0;
#X connect 11 0 1 3;
#X connect 12 0 3 0;
#X connect 13 0 1 2;
#X connect 14 0 13 0;
#X connect 15 0 13 0;
#X connect 15 0 3 0;
#X connect 16 0 19 0;
#X connect 17 0 15 0;
#X connect 17 1 18 0;
#X connect 17 2 7 0;
#X connect 18 0 3 0;
#X connect 18 1 13 0;
