#N canvas 1041 270 450 300 12;
#N canvas 0 50 450 250 (subpatch) 0;
#X array a 282590 float 2;
#X coords 0 1 282590 -1 423 46 1;
#X restore 12 26 graph;
#X obj 216 112 atoms/load-file a;
#X obj 54 241 output~;
#X obj 54 165 / 8;
#X msg 54 190 1 \$1;
#X obj 54 86 atoms/digits;
#X obj 209 145 tgl 20 0 empty empty empty 0 -10 0 12 #fcfcfc #000000 #000000 0 1;
#X msg 209 174 loop \$1;
#X obj 319 147 tgl 20 0 empty empty empty 0 -10 0 12 #fcfcfc #000000 #000000 0 1;
#X msg 319 172 reverse \$1;
#X obj 226 265 hsl 170 20 0 1 0 0 empty empty empty -2 -10 0 12 #fcfcfc #000000 #000000 0 1;
#X obj 54 111 moses 9;
#X obj 107 143 b;
#X obj 54 216 atoms/playhead2~ a;
#X connect 3 0 4 0;
#X connect 4 0 13 0;
#X connect 5 0 11 0;
#X connect 6 0 7 0;
#X connect 7 0 13 0;
#X connect 8 0 9 0;
#X connect 9 0 13 0;
#X connect 11 0 3 0;
#X connect 11 1 12 0;
#X connect 12 0 8 0;
#X connect 13 0 2 0;
#X connect 13 1 10 0;
