#N canvas 1235 307 450 300 12;
#X obj 155 120 inlet;
#X msg 183 159 \$1 10;
#X obj 183 193 line~;
#X obj 183 248 outlet~;
#X obj 202 120 r \$1;
#X obj 88 120 loadbang;
#X obj 88 145 \$2;
#X obj 183 220 modulate~;
#X obj 243 119 inlet~;
#X text 56 61 arg1 sets internal [receive] \, arg2 sets init value;
#X connect 0 0 1 0;
#X connect 1 0 2 0;
#X connect 2 0 7 0;
#X connect 4 0 1 0;
#X connect 5 0 6 0;
#X connect 6 0 2 0;
#X connect 7 0 3 0;
#X connect 8 0 7 1;
