#N canvas 261 388 576 300 12;
#X obj 84 89 inlet;
#X obj 84 209 lop~ 50;
#X obj 84 234 outlet~;
#X obj 136 87 r \$1;
#X obj 84 124 atoms/AB;
#X obj 137 155 dbtorms;
#X obj 334 62 loadbang;
#X msg 334 87 args;
#X obj 334 112 pdcontrol;
#X obj 84 184 sig~ \$3;
#X connect 0 0 4 0;
#X connect 1 0 2 0;
#X connect 3 0 4 0;
#X connect 4 0 9 0;
#X connect 4 1 5 0;
#X connect 5 0 9 0;
#X connect 6 0 7 0;
#X connect 7 0 8 0;
#X connect 9 0 1 0;
