#N canvas 0 95 450 300 12;
#X obj 221 129 makefilename %.2fs, f 9;
#X obj 221 103 / 1000;
#X msg 140 164 label \$1;
#X obj 140 83 moses 2000;
#X obj 140 111 makefilename %.1fms, f 10;
#X obj 140 189 outlet;
#X obj 140 55 inlet;
#X obj 62 63 loadbang;
#X msg 62 88 0;
#X connect 0 0 2 0;
#X connect 1 0 0 0;
#X connect 2 0 5 0;
#X connect 3 0 4 0;
#X connect 3 1 1 0;
#X connect 4 0 2 0;
#X connect 6 0 3 0;
#X connect 7 0 8 0;
#X connect 8 0 3 0;
