#N canvas 735 399 450 300 12;
#X obj 172 122 else/s2f~;
#X obj 172 172 i;
#X obj 172 197 change;
#X obj 172 222 outlet;
#X obj 172 96 inlet~;
#X obj 172 147 * \$1;
#X obj 347 127 inlet;
#X connect 0 0 5 0;
#X connect 1 0 2 0;
#X connect 2 0 3 0;
#X connect 4 0 0 0;
#X connect 5 0 1 0;
#X connect 6 0 5 1;
