#N canvas 1020 154 566 467 12;
#X obj 39 168 tgl 15 0 empty empty empty 17 7 0 10 #fcfcfc #000000 #000000 0 1;
#X obj 39 420 outlet;
#X obj 317 192 loadbang;
#X obj 317 217 \$0;
#X obj 170 194 sel 0;
#X msg 170 244 seed \$1;
#X obj 39 214 t b b;
#X obj 39 106 inlet;
#X obj 39 394 +;
#X obj 237 189 outlet;
#X obj 317 265 v seed\$0;
#X obj 170 219 v seed\$0;
#X msg 343 324 1, f 2;
#X msg 273 325 -1, f 2;
#X obj 310 356 expr seed\$0 = seed\$0 + $f1, f 13;
#X obj 39 241 1;
#X obj 39 266 until;
#X obj 39 291 random 127;
#X obj 39 188 metro 90;
#X obj 343 300 r \$0next;
#X obj 273 300 r \$0prev;
#X obj 57 361 r \$0min;
#X obj 176 302 r \$0max;
#X obj 334 240 r \$0seed;
#X obj 39 131 route bang float;
#X obj 176 339 --;
#X obj 92 162 r \$0rate;
#X obj 170 169 count 16;
#X obj 243 133 r \$0steps;
#X obj 77 241 r \$0amount;
#X obj 151 273 r \$0missBy;
#X obj 133 302 ++;
#X obj 39 320 moses 127;
#X obj 327 107 broadcast \$0;
#N canvas 738 436 450 300 init 0;
#X obj 83 27 loadbang;
#X msg 83 52 args;
#X obj 83 77 pdcontrol;
#X obj 83 102 route float list;
#X obj 120 247 outlet;
#X msg 137 142 rate \$1 \, min \$2 \, max \$3 \, steps 16;
#X msg 83 173 rate \$1 \, min 0 \, max 1 \, steps 16;
#X connect 0 0 1 0;
#X connect 1 0 2 0;
#X connect 2 0 3 0;
#X connect 3 0 6 0;
#X connect 3 1 5 0;
#X connect 5 0 4 0;
#X connect 6 0 4 0;
#X restore 327 79 pd init;
#X text 434 70 rate <f> \; steps <f> \; prev <> (seed) \; next <> (seed) \; missBy <f> \; amount <f> \; min <f> \; max <f> \; seed <f> \;;
#X text 39 30 arg 1: rate \; arg 2&3: range \;;
#X connect 0 0 18 0;
#X connect 2 0 3 0;
#X connect 3 0 10 0;
#X connect 4 0 11 0;
#X connect 5 0 17 0;
#X connect 6 0 15 0;
#X connect 6 1 27 0;
#X connect 7 0 24 0;
#X connect 8 0 1 0;
#X connect 11 0 5 0;
#X connect 12 0 14 0;
#X connect 13 0 14 0;
#X connect 15 0 16 0;
#X connect 16 0 17 0;
#X connect 17 0 32 0;
#X connect 18 0 6 0;
#X connect 19 0 12 0;
#X connect 20 0 13 0;
#X connect 21 0 8 1;
#X connect 21 0 25 1;
#X connect 22 0 25 0;
#X connect 23 0 10 0;
#X connect 24 0 0 0;
#X connect 24 1 0 0;
#X connect 24 2 33 0;
#X connect 25 0 31 0;
#X connect 25 0 32 1;
#X connect 26 0 18 1;
#X connect 27 0 4 0;
#X connect 27 0 9 0;
#X connect 28 0 27 1;
#X connect 29 0 15 1;
#X connect 30 0 31 1;
#X connect 31 0 17 1;
#X connect 32 0 8 0;
#X connect 34 0 33 0;
