#N canvas 682 357 580 570 12;
#X obj 40 29 table \$0wav 1024;
#X obj 71 189 sig~;
#X obj 70 240 phasor~;
#X obj 70 216 modulate~;
#X obj 70 264 *~ 1024;
#X obj 70 288 tabread~ \$0wav;
#X obj 290 237 t b b f;
#X msg 266 281 seed \$1;
#X obj 266 305 noise~;
#X obj 266 329 samphold~;
#X obj 267 488 tabwrite~ \$0wav;
#X obj 433 269 samplerate~;
#X obj 433 293 / 1024;
#X obj 433 317 * 16;
#X obj 433 351 phasor~;
#X obj 410 231 t b b f;
#X obj 120 368 *~;
#X obj 140 407 +~;
#X obj 140 431 outlet~;
#X obj 188 349 --;
#X obj 70 313 +~ 1;
#X obj 70 337 *~ 0.5;
#N canvas 128 128 567 370 init 0;
#X obj 42 46 loadbang;
#X msg 42 70 args;
#X obj 42 94 pdcontrol;
#X obj 42 118 route float list;
#X obj 57 243 outlet;
#X msg 85 186 1;
#X msg 42 215 function 0 \, rate \$1 \, max 1 \, min 0 \, seed 0 \, steps 8;
#X msg 75 155 function 0 \, rate \$1 \, min \$2 \, max \$3 \, seed 0 \, steps 8;
#X connect 0 0 1 0;
#X connect 1 0 2 0;
#X connect 2 0 3 0;
#X connect 3 0 6 0;
#X connect 3 1 7 0;
#X connect 3 2 5 0;
#X connect 5 0 6 0;
#X connect 6 0 4 0;
#X connect 7 0 4 0;
#X restore 160 91 pd init;
#N canvas 193 228 517 400 function 1;
#X obj 74 48 inlet~;
#X obj 405 32 inlet~;
#X obj 123 315 outlet~;
#N canvas 225 260 450 300 weightened-saw 0;
#X obj 290 59 inlet;
#X obj 290 83 == 1;
#X obj 290 107 switch~;
#X obj 59 82 inlet~;
#X obj 176 81 inlet~;
#X obj 99 239 outlet~;
#X obj 98 198 *~;
#X obj 98 138 +~ 1;
#X obj 98 164 *~ 0.5;
#X obj 174 112 *~ -1;
#X obj 174 140 +~ 1;
#X obj 172 168 pow~ 3;
#X obj 172 192 *~ 2;
#X obj 172 216 -~ 1;
#X connect 0 0 1 0;
#X connect 1 0 2 0;
#X connect 3 0 7 0;
#X connect 4 0 9 0;
#X connect 6 0 5 0;
#X connect 7 0 8 0;
#X connect 8 0 6 0;
#X connect 9 0 10 0;
#X connect 10 0 11 0;
#X connect 11 0 12 0;
#X connect 12 0 13 0;
#X connect 13 0 6 1;
#X restore 123 186 pd weightened-saw;
#N canvas 33 68 450 300 flat 0;
#X obj 61 76 inlet~;
#X obj 61 100 outlet~;
#X obj 293 64 inlet;
#X obj 293 88 == 0;
#X obj 293 112 switch~;
#X connect 0 0 1 0;
#X connect 2 0 3 0;
#X connect 3 0 4 0;
#X restore 38 179 pd flat;
#X obj 202 44 r \$0function;
#N canvas 32 32 450 300 cosine 0;
#X obj 100 68 inlet~;
#X obj 100 92 +~ 1;
#X obj 100 116 *~ 0.5;
#X obj 212 61 inlet~;
#X obj 336 58 inlet;
#X obj 336 82 == 2;
#X obj 336 106 switch~;
#X obj 169 246 outlet~;
#X obj 166 203 *~;
#X obj 212 85 cos~;
#X connect 0 0 1 0;
#X connect 1 0 2 0;
#X connect 2 0 8 0;
#X connect 3 0 9 0;
#X connect 4 0 5 0;
#X connect 5 0 6 0;
#X connect 8 0 7 0;
#X connect 9 0 8 1;
#X restore 296 178 pd cosine;
#N canvas 32 32 450 300 hann 0;
#X obj 100 68 inlet~;
#X obj 100 92 +~ 1;
#X obj 100 116 *~ 0.5;
#X obj 212 81 inlet~;
#X obj 336 58 inlet;
#X obj 336 106 switch~;
#X obj 169 246 outlet~;
#X obj 166 203 *~;
#X obj 212 135 cos~;
#X obj 336 82 == 3;
#X obj 212 108 +~ 0.5;
#X connect 0 0 1 0;
#X connect 1 0 2 0;
#X connect 2 0 7 0;
#X connect 3 0 10 0;
#X connect 4 0 9 0;
#X connect 7 0 6 0;
#X connect 8 0 7 1;
#X connect 9 0 5 0;
#X connect 10 0 8 0;
#X restore 326 218 pd hann;
#X connect 0 0 4 0;
#X connect 0 0 3 0;
#X connect 0 0 6 0;
#X connect 0 0 7 0;
#X connect 1 0 3 1;
#X connect 1 0 6 1;
#X connect 1 0 7 1;
#X connect 3 0 2 0;
#X connect 4 0 2 0;
#X connect 5 0 3 2;
#X connect 5 0 4 1;
#X connect 5 0 6 2;
#X connect 5 0 7 2;
#X connect 6 0 2 0;
#X connect 7 0 2 0;
#X restore 266 369 pd function;
#X obj 322 197 s \$0function;
#X obj 290 172 t b f;
#X msg 363 312 0;
#X obj 290 457 delay;
#X obj 322 431 /;
#X msg 322 407 1000 \$1;
#X obj 14 80 inlet~ fwd;
#X obj 71 130 route rate max min seed steps function reset;
#X msg 207 216 0;
#X text 420 14 functions \; 0 - flat(square wv) \; 1 - weighed saw \; 2 - cosine \; 3 - hanning \;;
#X connect 1 0 3 0;
#X connect 2 0 4 0;
#X connect 3 0 2 0;
#X connect 4 0 5 0;
#X connect 5 0 20 0;
#X connect 6 0 27 0;
#X connect 6 1 26 0;
#X connect 6 2 7 0;
#X connect 7 0 8 0;
#X connect 8 0 9 0;
#X connect 9 0 23 0;
#X connect 11 0 12 0;
#X connect 12 0 13 0;
#X connect 13 0 14 0;
#X connect 13 0 29 0;
#X connect 14 0 9 1;
#X connect 14 0 23 1;
#X connect 15 0 6 0;
#X connect 15 1 11 0;
#X connect 15 2 13 1;
#X connect 16 0 17 0;
#X connect 17 0 18 0;
#X connect 19 0 16 1;
#X connect 20 0 21 0;
#X connect 21 0 16 0;
#X connect 22 0 31 0;
#X connect 23 0 10 0;
#X connect 25 0 6 0;
#X connect 25 1 24 0;
#X connect 26 0 14 1;
#X connect 27 0 10 0;
#X connect 28 0 27 1;
#X connect 29 0 28 0;
#X connect 30 0 3 1;
#X connect 30 1 31 0;
#X connect 31 0 1 0;
#X connect 31 1 19 0;
#X connect 31 2 19 1;
#X connect 31 2 17 1;
#X connect 31 3 6 0;
#X connect 31 4 15 0;
#X connect 31 5 25 0;
#X connect 31 6 32 0;
#X connect 32 0 2 1;
