#N canvas 91 288 450 300 12;
#X obj 99 73 inlet;
#X obj 99 100 list split 1;
#X obj 131 207 list append;
#X obj 43 250 outlet;
#X obj 99 129 route float;
#X obj 216 73 inlet;
#X obj 269 136 unpack;
#X obj 163 250 outlet;
#X obj 99 250 outlet;
#X obj 99 156 moses;
#X obj 131 181 moses;
#X obj 308 161 + 1;
#X obj 292 23 loadbang;
#X msg 292 48 args;
#X obj 292 73 pdcontrol;
#X obj 292 98 route list;
#X connect 0 0 1 0;
#X connect 1 0 4 0;
#X connect 1 1 2 1;
#X connect 2 0 3 0;
#X connect 4 0 9 0;
#X connect 5 0 6 0;
#X connect 6 0 9 1;
#X connect 6 1 11 0;
#X connect 9 0 8 0;
#X connect 9 1 10 0;
#X connect 10 0 2 0;
#X connect 10 1 7 0;
#X connect 11 0 10 1;
#X connect 12 0 13 0;
#X connect 13 0 14 0;
#X connect 14 0 15 0;
#X connect 15 0 6 0;
