#N canvas 790 363 394 416 12;
#X obj 100 100 tgl 20 0 empty empty REC 0 -10 0 12 #ff0400 #ffffff #000000 0 1;
#X msg 271 163 set \$1;
#X obj 132 250 tgl 20 0 empty empty empty 0 -10 0 12 #fcfcfc #000000 #000000 0 1;
#X obj 132 227 metro 300;
#X obj 100 165 t f f;
#X obj 20 126 sel 0;
#X msg 20 151 set 0;
#X obj 152 185 v on_\$0;
#X obj 100 129 expr if( on_\$0 == 1 \, 0 \, 1);
#X obj 100 285 outlet;
#X obj 100 36 inlet;
#X connect 0 0 8 0;
#X connect 1 0 0 0;
#X connect 2 0 1 0;
#X connect 3 0 2 0;
#X connect 4 0 5 0;
#X connect 4 0 9 0;
#X connect 4 1 3 0;
#X connect 4 1 7 0;
#X connect 5 0 6 0;
#X connect 6 0 0 0;
#X connect 8 0 4 0;
#X connect 10 0 0 0;
#X coords 0 -1 1 1 20 20 2 100 100;
