#N canvas 458 275 450 377 12;
#X obj 110 32 inlet;
#X obj 142 95 metro 250;
#X obj 142 120 tgl 20 0 empty empty empty 0 -10 0 12 #fcfcfc #000000 #000000 0 1;
#X obj 110 151 sel 1 0;
#X obj 110 64 t f f;
#X text 202 23 bg: #1629cc || #d5d7e8 \; fg: #ffffff || #000000 \;;
#X msg 110 230 color #1629cc 0 #fffffff;
#X msg 133 255 color #d5d7e8 0 #000000;
#X obj 110 286 outlet;
#X connect 0 0 4 0;
#X connect 1 0 2 0;
#X connect 2 0 3 0;
#X connect 3 0 6 0;
#X connect 3 1 7 0;
#X connect 4 0 3 0;
#X connect 4 1 1 0;
#X connect 6 0 8 0;
#X connect 7 0 8 0;
