#N canvas 508 620 383 310 12;
#X obj 84 97 netreceive -u -b;
#X obj 84 132 oscparse;
#X obj 84 167 list trim;
#X obj 84 27 loadbang;
#X obj 84 202 outlet;
#X msg 84 62 listen 7779;
#X obj 185 10 inlet;
#X connect 0 0 1 0;
#X connect 1 0 2 0;
#X connect 2 0 4 0;
#X connect 3 0 5 0;
#X connect 5 0 0 0;
#X connect 6 0 0 0;
