#N canvas 501 368 383 407 12;
#X msg 129 74 listen 7778;
#X obj 129 99 netreceive -u -b;
#X obj 129 124 oscparse;
#X obj 129 149 list trim;
#X obj 129 49 loadbang;
#X obj 204 350 outlet;
#X connect 0 0 1 0;
#X connect 1 0 2 0;
#X connect 2 0 3 0;
#X connect 3 0 5 0;
#X connect 4 0 0 0;
