#N canvas 154 190 874 321 12;
#X obj 585 222 namecanvas here;
#X obj 707 226 s here;
#X msg 707 201 obj \$1 \$2 table smp\$3;
#X obj 707 69 t f f;
#X obj 707 149 + 20;
#X obj 747 149 + 20;
#X obj 707 97 % 8;
#X obj 747 97 div 8;
#X obj 707 124 * 84;
#X obj 747 124 * 23;
#X obj 707 43 num-seq;
#X obj 707 175 pack f f f, f 12;
#X obj 20 40 table smp0;
#X obj 104 40 table smp1;
#X obj 188 40 table smp2;
#X obj 272 40 table smp3;
#X obj 356 40 table smp4;
#X obj 440 40 table smp5;
#X obj 524 40 table smp6;
#X obj 608 40 table smp7;
#X obj 20 63 table smp8;
#X obj 104 63 table smp9;
#X obj 188 63 table smp10;
#X obj 272 63 table smp11;
#X obj 356 63 table smp12;
#X obj 440 63 table smp13;
#X obj 524 63 table smp14;
#X obj 608 63 table smp15;
#X obj 20 86 table smp16;
#X obj 104 86 table smp17;
#X obj 188 86 table smp18;
#X obj 272 86 table smp19;
#X obj 356 86 table smp20;
#X obj 440 86 table smp21;
#X obj 524 86 table smp22;
#X obj 608 86 table smp23;
#X obj 20 109 table smp24;
#X obj 104 109 table smp25;
#X obj 188 109 table smp26;
#X obj 272 109 table smp27;
#X obj 356 109 table smp28;
#X obj 440 109 table smp29;
#X obj 524 109 table smp30;
#X obj 608 109 table smp31;
#X obj 20 132 table smp32;
#X obj 104 132 table smp33;
#X obj 188 132 table smp34;
#X obj 272 132 table smp35;
#X obj 356 132 table smp36;
#X obj 440 132 table smp37;
#X obj 524 132 table smp38;
#X obj 608 132 table smp39;
#X obj 20 155 table smp40;
#X obj 104 155 table smp41;
#X obj 188 155 table smp42;
#X obj 272 155 table smp43;
#X obj 356 155 table smp44;
#X obj 440 155 table smp45;
#X obj 524 155 table smp46;
#X obj 608 155 table smp47;
#X obj 20 178 table smp48;
#X obj 104 178 table smp49;
#X obj 188 178 table smp50;
#X obj 272 178 table smp51;
#X obj 356 178 table smp52;
#X obj 440 178 table smp53;
#X obj 524 178 table smp54;
#X obj 608 178 table smp55;
#X msg 707 18 56;
#X obj 686 260 table sample-rates 56;
#X connect 2 0 1 0;
#X connect 3 0 6 0;
#X connect 3 1 7 0;
#X connect 3 1 11 2;
#X connect 4 0 11 0;
#X connect 5 0 11 1;
#X connect 6 0 8 0;
#X connect 7 0 9 0;
#X connect 8 0 4 0;
#X connect 9 0 5 0;
#X connect 10 0 3 0;
#X connect 11 0 2 0;
#X connect 68 0 10 0;
