#N canvas 194 171 481 422 12;
#X obj 46 52 phasor~;
#X obj 46 101 +~ 1;
#X obj 46 26 r rate\$0;
#X obj 91 101 r start-point\$0;
#X obj 46 76 *~;
#X obj 84 76 r sample-length\$0;
#X obj 120 32 r phase\$0;
#X obj 46 251 *~;
#X obj 46 299 pan~;
#X obj 46 127 tabread4~ buff\$0;
#X obj 364 17 table buff\$0;
#X obj 88 296 r \$0pan;
#X obj 88 237 vline~;
#X obj 88 210 r env\$0;
#X obj 88 262 pow~ 3;
#X obj 46 361 outlet~;
#X obj 71 335 outlet~;
#N canvas 525 218 605 436 play 0;
#X obj 293 206 mul 1;
#X obj 268 264 list;
#X obj 293 237 pack f f f;
#X text 375 236 length \, atk \, dec;
#X msg 268 292 1 \$2 \, 0 \$3 \$1;
#X msg 33 184 0;
#X obj 33 209 s phase\$0;
#X obj 393 206 mul 0;
#X obj 337 206 mul 0;
#X obj 293 131 r duration\$0;
#X obj 425 180 r dec\$0;
#X obj 425 156 r atk\$0;
#X obj 425 131 r time-before-decay\$0;
#X text 376 100 one-shot;
#X obj 97 92 t b b;
#X obj 193 203 spigot 1;
#X obj 246 176 == 0;
#X obj 168 238 == 1;
#X obj 129 266 spigot;
#X msg 129 291 1;
#X obj 200 361 s env\$0;
#X obj 246 53 r \$0loop;
#X obj 97 67 r \$0play;
#X obj 316 341 r \$0stop;
#X msg 316 366 0;
#X connect 0 0 2 0;
#X connect 1 0 4 0;
#X connect 2 0 1 1;
#X connect 4 0 20 0;
#X connect 5 0 6 0;
#X connect 7 0 2 2;
#X connect 8 0 2 1;
#X connect 9 0 8 0;
#X connect 9 0 7 0;
#X connect 9 0 0 0;
#X connect 10 0 7 1;
#X connect 11 0 8 1;
#X connect 12 0 0 1;
#X connect 14 0 5 0;
#X connect 14 1 15 0;
#X connect 14 1 18 0;
#X connect 15 0 1 0;
#X connect 16 0 15 1;
#X connect 17 0 18 1;
#X connect 18 0 19 0;
#X connect 19 0 20 0;
#X connect 21 0 16 0;
#X connect 21 0 17 0;
#X connect 22 0 14 0;
#X connect 23 0 24 0;
#X connect 24 0 20 0;
#X restore 276 142 pd play;
#N canvas 188 161 655 358 params 0;
#X obj 94 254 r \$0speed;
#X obj 279 86 r \$0length;
#X obj 444 171 r \$0atk;
#X obj 541 171 r \$0dec;
#X obj 279 127 expr $f1 - max(0 \, $f1 + $f2 - 1), f 17;
#X obj 404 54 t b f;
#X obj 436 91 * 48;
#X obj 436 116 s start-point\$0;
#X obj 348 209 expr max(0 \, $f1 - ($f2+$f3));
#X obj 348 233 s time-before-decay\$0;
#X obj 62 166 r duration\$0;
#X obj 62 221 swap 1000;
#X obj 62 246 /;
#X obj 62 311 s rate\$0;
#X obj 168 215 *;
#X obj 168 240 - 2;
#X obj 168 265 mul 1;
#X obj 168 290 s sample-length\$0;
#X obj 224 216 mul 1;
#X obj 224 241 s real-dur\$0;
#X obj 186 103 loadbang;
#X obj 186 151 samplerate~;
#X obj 186 176 / 1000;
#X obj 186 128 bng 20 250 50 0 empty empty empty 0 -10 0 12 #fcfcfc #000000 #000000;
#X obj 404 23 r \$0start;
#X obj 62 281 mul 1;
#X connect 0 0 25 1;
#X connect 1 0 4 0;
#X connect 2 0 8 1;
#X connect 3 0 8 2;
#X connect 4 0 8 0;
#X connect 4 0 16 1;
#X connect 4 0 18 1;
#X connect 5 0 4 0;
#X connect 5 1 4 1;
#X connect 5 1 6 0;
#X connect 6 0 7 0;
#X connect 8 0 9 0;
#X connect 10 0 11 0;
#X connect 10 0 14 0;
#X connect 10 0 18 0;
#X connect 11 0 12 0;
#X connect 12 0 25 0;
#X connect 14 0 15 0;
#X connect 15 0 16 0;
#X connect 16 0 17 0;
#X connect 18 0 19 0;
#X connect 20 0 23 0;
#X connect 21 0 22 0;
#X connect 22 0 14 1;
#X connect 23 0 21 0;
#X connect 24 0 5 0;
#X connect 25 0 13 0;
#X restore 267 96 pd params;
#X obj 243 21 inlet;
#X obj 243 46 broadcast \$0;
#X obj 46 158 gain~;
#A saved 0.629961;
#X obj 156 161 r \$0level;
#X connect 0 0 4 0;
#X connect 1 0 9 0;
#X connect 2 0 0 0;
#X connect 3 0 1 1;
#X connect 4 0 1 0;
#X connect 5 0 4 1;
#X connect 6 0 0 1;
#X connect 7 0 8 0;
#X connect 8 0 15 0;
#X connect 8 1 16 0;
#X connect 9 0 21 0;
#X connect 11 0 8 1;
#X connect 12 0 14 0;
#X connect 13 0 12 0;
#X connect 14 0 7 1;
#X connect 19 0 20 0;
#X connect 21 0 7 0;
#X connect 22 0 21 1;
