#N canvas 1167 284 450 487 12;
#X obj 49 375 line~;
#X obj 49 400 *~;
#X obj 181 350 atoms/tap;
#X obj 107 438 outlet~;
#X obj 181 379 == 0;
#X obj 163 406 *~;
#X obj 291 347 else/s2f~;
#X msg 291 372 set \$1;
#X obj 291 399 spigot;
#X obj 163 285 phasor~;
#X obj 49 119 inlet;
#X obj 291 424 outlet;
#X obj 209 259 f;
#X obj 163 114 inlet;
#X obj 163 143 atoms/smp-size2hz;
#X text 27 12 1st inlet - seek \; 2nd inlet - smp size \; 3rd inlet - ramp time \; 1st outlet - ramp~ \; 2nd outlet - ramp;
#X msg 241 179 stop;
#X obj 49 322 pack f 100;
#X obj 49 146 t f b;
#X msg 49 347 stop \, \$1 \$2;
#X obj 241 219 delay 200;
#X obj 323 167 * 2;
#X obj 323 131 inlet;
#X connect 0 0 1 0;
#X connect 1 0 3 0;
#X connect 2 0 1 1;
#X connect 2 0 4 0;
#X connect 4 0 5 1;
#X connect 4 0 8 1;
#X connect 5 0 3 0;
#X connect 6 0 7 0;
#X connect 7 0 8 0;
#X connect 8 0 11 0;
#X connect 9 0 6 0;
#X connect 9 0 5 0;
#X connect 10 0 18 0;
#X connect 12 0 9 1;
#X connect 13 0 14 0;
#X connect 14 0 9 0;
#X connect 16 0 20 0;
#X connect 17 0 19 0;
#X connect 18 0 12 1;
#X connect 18 0 17 0;
#X connect 18 1 2 0;
#X connect 18 1 16 0;
#X connect 18 1 20 0;
#X connect 19 0 0 0;
#X connect 20 0 2 1;
#X connect 20 0 12 0;
#X connect 21 0 20 1;
#X connect 22 0 17 1;
#X connect 22 0 21 0;
