#N canvas 1167 284 450 598 12;
#X obj 49 425 line~;
#X obj 49 450 *~;
#X obj 181 400 atoms/tap;
#X obj 107 488 outlet~;
#X obj 181 429 == 0;
#X obj 163 456 *~;
#X obj 173 315 else/s2f~;
#X msg 291 422 set \$1;
#X obj 291 449 spigot;
#X obj 163 285 phasor~;
#X obj 49 119 inlet;
#X obj 291 474 outlet;
#X obj 209 259 f;
#X obj 284 56 inlet;
#X obj 284 100 atoms/smp-size2hz;
#X obj 241 232 delay 100;
#X text 27 12 1st inlet - seek \; 2nd inlet - smp size \; 3rd inlet - ramp time \; 1st outlet - ramp~ \; 2nd outlet - ramp;
#X obj 49 146 t f b f;
#X obj 186 103 -;
#X obj 186 128 *;
#X obj 186 152 abs;
#X obj 245 99 / 48;
#X msg 241 185 stop;
#X obj 49 323 pack f f 100;
#X msg 49 398 stop \, \$2 \, \$1 \$3;
#X obj 361 58 inlet;
#X obj 186 181 / 2;
#X connect 0 0 1 0;
#X connect 1 0 3 0;
#X connect 2 0 1 1;
#X connect 2 0 4 0;
#X connect 4 0 5 1;
#X connect 4 0 8 1;
#X connect 5 0 3 0;
#X connect 6 0 7 0;
#X connect 6 0 18 1;
#X connect 6 0 23 1;
#X connect 7 0 8 0;
#X connect 8 0 11 0;
#X connect 9 0 6 0;
#X connect 9 0 5 0;
#X connect 10 0 17 0;
#X connect 12 0 9 1;
#X connect 13 0 14 0;
#X connect 13 0 21 0;
#X connect 14 0 9 0;
#X connect 15 0 2 1;
#X connect 15 0 12 0;
#X connect 17 0 12 1;
#X connect 17 0 23 0;
#X connect 17 1 2 0;
#X connect 17 1 15 0;
#X connect 17 2 18 0;
#X connect 18 0 19 0;
#X connect 19 0 20 0;
#X connect 20 0 22 0;
#X connect 20 0 26 0;
#X connect 21 0 19 1;
#X connect 22 0 15 0;
#X connect 23 0 24 0;
#X connect 24 0 0 0;
#X connect 25 0 26 1;
#X connect 26 0 23 2;
#X connect 26 0 15 1;
