#N canvas 486 647 436 299 12;
#X obj 78 111 inlet;
#X obj 78 136 list;
#X obj 78 186 netsend -u -b;
#X obj 195 166 loadbang;
#X obj 195 191 bng 20 250 50 0 empty empty empty 0 -10 0 12 #fcfcfc #000000 #000000;
#X msg 195 216 connect localhost 7777;
#X obj 78 161 oscformat \$1;
#X obj 171 74 inlet;
#X obj 171 99 list;
#X msg 171 125 disconnect \, connect \$1 \$2;
#X msg 145 47 192.168.1.23 7777;
#X connect 0 0 1 0;
#X connect 1 0 6 0;
#X connect 3 0 4 0;
#X connect 4 0 5 0;
#X connect 5 0 2 0;
#X connect 6 0 2 0;
#X connect 7 0 8 0;
#X connect 8 0 9 0;
#X connect 9 0 2 0;
#X connect 10 0 8 0;
