#N canvas 439 528 494 429 12;
#X obj 74 141 inlet;
#X obj 74 166 list;
#X obj 74 216 netsend -u -b;
#X obj 74 191 oscformat \$1;
#X obj 196 85 inlet;
#X obj 196 170 list;
#X msg 196 196 disconnect \, connect \$1 \$2;
#X msg 208 141 192.168.1.23 7777;
#X obj 198 227 loadbang;
#X msg 198 252 args;
#X obj 198 277 pdcontrol;
#X msg 198 358 connect localhost \$2;
#X text 333 140 <- to pi's UI;
#X text 55 14 1st arg is address (required) \; caveat: fails with composite addresses \; 2nd arg is port (optional), f 41;
#X msg 210 115 localhost 7778;
#X text 317 115 <-to py_system;
#X obj 198 330 list;
#X obj 198 302 route list;
#X msg 265 329 0 7777;
#X connect 0 0 1 0;
#X connect 1 0 3 0;
#X connect 3 0 2 0;
#X connect 4 0 5 0;
#X connect 5 0 6 0;
#X connect 6 0 2 0;
#X connect 7 0 5 0;
#X connect 8 0 9 0;
#X connect 9 0 10 0;
#X connect 10 0 17 0;
#X connect 11 0 2 0;
#X connect 14 0 5 0;
#X connect 16 0 11 0;
#X connect 17 0 16 0;
#X connect 17 1 18 0;
#X connect 18 0 11 0;
