#N canvas 736 399 450 425 12;
#X obj 177 82 inlet;
#X obj 177 173 spigot 1;
#X obj 177 198 t a b;
#X obj 177 109 t b a;
#X obj 262 172 atoms/tap;
#X obj 177 276 outlet;
#X obj 209 229 del \$1;
#X connect 0 0 3 0;
#X connect 1 0 2 0;
#X connect 2 0 5 0;
#X connect 2 1 6 0;
#X connect 3 0 4 1;
#X connect 3 1 1 0;
#X connect 4 0 1 1;
#X connect 6 0 4 0;
