#N canvas 746 647 378 343 12;
#X obj 47 87 samplerate~;
#X obj 47 112 / 1000;
#X obj 47 62 bng 20 250 50 0 empty empty empty 0 -10 0 12 #fcfcfc #000000 #000000;
#X obj 47 191 /;
#X msg 47 216 1000 \$1;
#X obj 47 37 loadbang;
#X obj 157 68 inlet;
#X obj 47 137 t b f;
#X obj 47 242 /;
#X obj 47 307 outlet;
#X obj 276 69 inlet;
#X msg 276 230 1 \$1;
#X obj 276 255 /;
#X obj 47 275 atoms/mul 1;
#X obj 209 117 / 1000;
#X obj 209 68 inlet;
#X text 204 42 smp rate;
#X obj 168 236 outlet;
#X obj 168 211 atoms/mul 1;
#X connect 0 0 1 0;
#X connect 1 0 7 0;
#X connect 2 0 0 0;
#X connect 3 0 4 0;
#X connect 3 0 18 0;
#X connect 4 0 8 0;
#X connect 5 0 2 0;
#X connect 6 0 3 0;
#X connect 7 0 3 0;
#X connect 7 1 3 1;
#X connect 8 0 13 0;
#X connect 10 0 11 0;
#X connect 10 0 18 1;
#X connect 11 0 12 0;
#X connect 12 0 13 1;
#X connect 13 0 9 0;
#X connect 14 0 7 0;
#X connect 15 0 14 0;
#X connect 18 0 17 0;
