#N canvas 722 300 495 600 12;
#X obj 136 85 inlet;
#X obj 136 110 list fromsymbol;
#X obj 294 130 table buf\$0;
#X obj 326 182 list length;
#X floatatom 326 207 5 0 0 0 - - - 0;
#X obj 326 231 array size buf\$0;
#X obj 294 258 array set buf\$0;
#X obj 294 155 t l l;
#X obj 140 519 list store;
#X obj 136 135 t l l;
#X obj 136 171 list length;
#X obj 136 196 until;
#X obj 136 231 f;
#X obj 174 231 + 1;
#X obj 136 305 tabread buf\$0;
#X obj 136 330 sel 47;
#X msg 242 192 0, f 2;
#X obj 140 399 list store;
#X msg 175 361 append \$1;
#X obj 108 361 t b b;
#X obj 140 424 list tosymbol;
#X obj 108 279 sel;
#X obj 247 259 - 1;
#X msg 140 449 append \$1;
#X obj 242 499 bng 20 250 50 0 empty empty empty 0 -10 0 12 #fcfcfc #000000 #000000;
#X obj 76 318 t b b;
#X obj 140 544 outlet;
#X obj 289 17 inlet;
#X text 335 15 divider;
#X obj 289 42 list fromsymbol;
#X obj 289 67 s \$0divider;
#X obj 300 342 r \$0divider;
#X text 23 4 VANILLA solution for symbol splitting \; one less dependency of zexy. Don't touch!!, f 29;
#X connect 0 0 1 0;
#X connect 1 0 9 0;
#X connect 3 0 4 0;
#X connect 3 0 22 0;
#X connect 4 0 5 0;
#X connect 7 0 6 0;
#X connect 7 0 16 0;
#X connect 7 0 24 0;
#X connect 7 1 3 0;
#X connect 8 0 26 0;
#X connect 9 0 10 0;
#X connect 9 1 7 0;
#X connect 10 0 11 0;
#X connect 11 0 12 0;
#X connect 12 0 13 0;
#X connect 12 0 14 0;
#X connect 12 0 21 0;
#X connect 13 0 12 1;
#X connect 14 0 15 0;
#X connect 15 0 19 0;
#X connect 15 1 18 0;
#X connect 16 0 12 1;
#X connect 17 0 20 0;
#X connect 18 0 17 0;
#X connect 19 0 17 1;
#X connect 19 1 17 0;
#X connect 20 0 23 0;
#X connect 21 0 25 0;
#X connect 22 0 21 1;
#X connect 23 0 8 0;
#X connect 24 0 8 1;
#X connect 25 0 8 0;
#X connect 25 1 19 0;
#X connect 27 0 29 0;
#X connect 29 0 30 0;
#X connect 31 0 15 1;
