#N canvas 445 418 483 411 12;
#X obj 117 321 snake~ in 8, f 28;
#X obj 185 368 outlet~;
#X obj 41 134 inlet~;
#X obj 210 29 inlet;
#X obj 210 54 route 1 2 3 4 5 6 7 8;
#X msg 60 231 \$1 5;
#X obj 60 256 line~;
#X obj 42 282 *~;
#X msg 110 231 \$1 5;
#X obj 110 256 line~;
#X obj 92 282 *~;
#X msg 160 231 \$1 5;
#X obj 160 256 line~;
#X obj 142 282 *~;
#X msg 210 231 \$1 5;
#X obj 210 256 line~;
#X obj 192 282 *~;
#X msg 260 231 \$1 5;
#X obj 260 256 line~;
#X obj 242 282 *~;
#X msg 310 231 \$1 5;
#X obj 310 256 line~;
#X obj 292 282 *~;
#X msg 360 231 \$1 5;
#X obj 360 256 line~;
#X obj 342 282 *~;
#X msg 410 231 \$1 5;
#X obj 410 256 line~;
#X obj 392 282 *~;
#X obj 191 122 tgl 20 0 empty empty empty 0 -10 0 12 #fcfcfc #000000 #000000 0 1;
#X obj 214 122 tgl 20 0 empty empty empty 0 -10 0 12 #fcfcfc #000000 #000000 0 1;
#X obj 237 122 tgl 20 0 empty empty empty 0 -10 0 12 #fcfcfc #000000 #000000 0 1;
#X obj 260 122 tgl 20 0 empty empty empty 0 -10 0 12 #fcfcfc #000000 #000000 0 1;
#X obj 283 122 tgl 20 0 empty empty empty 0 -10 0 12 #fcfcfc #000000 #000000 0 1;
#X obj 306 122 tgl 20 0 empty empty empty 0 -10 0 12 #fcfcfc #000000 #000000 0 1;
#X obj 329 122 tgl 20 0 empty empty empty 0 -10 0 12 #fcfcfc #000000 #000000 0 1;
#X obj 352 122 tgl 20 0 empty empty empty 0 -10 0 12 #fcfcfc #000000 #000000 0 1;
#X obj 357 104 tgl 15 0 empty empty all -22 7 0 12 #ffc7c6 #000000 #000000 0 1;
#X connect 0 0 1 0;
#X connect 2 0 7 0;
#X connect 2 0 28 0;
#X connect 2 0 25 0;
#X connect 2 0 22 0;
#X connect 2 0 19 0;
#X connect 2 0 16 0;
#X connect 2 0 13 0;
#X connect 2 0 10 0;
#X connect 3 0 4 0;
#X connect 4 0 29 0;
#X connect 4 1 30 0;
#X connect 4 2 31 0;
#X connect 4 3 32 0;
#X connect 4 4 33 0;
#X connect 4 5 34 0;
#X connect 4 6 35 0;
#X connect 4 7 36 0;
#X connect 5 0 6 0;
#X connect 6 0 7 1;
#X connect 7 0 0 0;
#X connect 8 0 9 0;
#X connect 9 0 10 1;
#X connect 10 0 0 1;
#X connect 11 0 12 0;
#X connect 12 0 13 1;
#X connect 13 0 0 2;
#X connect 14 0 15 0;
#X connect 15 0 16 1;
#X connect 16 0 0 3;
#X connect 17 0 18 0;
#X connect 18 0 19 1;
#X connect 19 0 0 4;
#X connect 20 0 21 0;
#X connect 21 0 22 1;
#X connect 22 0 0 5;
#X connect 23 0 24 0;
#X connect 24 0 25 1;
#X connect 25 0 0 6;
#X connect 26 0 27 0;
#X connect 27 0 28 1;
#X connect 28 0 0 7;
#X connect 29 0 5 0;
#X connect 30 0 8 0;
#X connect 31 0 11 0;
#X connect 32 0 14 0;
#X connect 33 0 17 0;
#X connect 34 0 20 0;
#X connect 35 0 23 0;
#X connect 36 0 26 0;
#X connect 37 0 36 0;
#X connect 37 0 35 0;
#X connect 37 0 34 0;
#X connect 37 0 33 0;
#X connect 37 0 32 0;
#X connect 37 0 31 0;
#X connect 37 0 30 0;
#X connect 37 0 29 0;
#X coords 0 -1 1 1 190 46 1 186 100;
