#N canvas 226 452 456 352 12;
#X obj 60 162 inlet;
#X obj 60 187 list split 1;
#X obj 82 254 f;
#X obj 81 282 value;
#X obj 60 212 t b a, f 8;
#X text 27 26 accepts a list of 2 items. 1st value is the name of the variable \, 2nd vaue is the float value. 1st argument can be a postfix for the variable name \;, f 57;
#X obj 240 114 loadbang;
#X msg 240 139 args;
#X obj 240 164 pdcontrol;
#X obj 113 253 expr strcat($s1 \, $s2);
#X obj 240 189 route float symbol;
#X obj 240 216 expr sym($i1);
#X connect 0 0 1 0;
#X connect 1 0 4 0;
#X connect 1 1 2 1;
#X connect 2 0 3 0;
#X connect 4 0 2 0;
#X connect 4 1 9 0;
#X connect 6 0 7 0;
#X connect 7 0 8 0;
#X connect 8 0 10 0;
#X connect 9 0 3 1;
#X connect 10 0 11 0;
#X connect 10 1 9 1;
#X connect 11 0 9 1;
