#N canvas 773 348 450 300 12;
#X obj 129 67 inlet;
#X obj 129 92 atoms/AB;
#X obj 129 177 outlet;
#X obj 219 56 inlet;
#X obj 219 81 mod 2;
#X obj 182 130 pipe;
#X obj 274 110 inlet;
#X connect 0 0 1 0;
#X connect 1 0 2 0;
#X connect 1 1 5 0;
#X connect 3 0 4 0;
#X connect 4 0 1 1;
#X connect 5 0 2 0;
#X connect 6 0 5 1;
