#N canvas 1073 239 562 555 12;
#X obj 232 37 inlet;
#X msg 432 478 0;
#X obj 153 103 f;
#X obj 211 103 + 1;
#X obj 204 419 f;
#X obj 204 448 +;
#X obj 204 381 t b f;
#X obj 165 172 t f f;
#X obj 129 232 select;
#X obj 129 207 %;
#X obj 365 233 - 1;
#X obj 22 325 f;
#X obj 63 331 + 1;
#X obj 117 270 t b b;
#X obj 118 387 f;
#X msg 282 348 0;
#X obj 118 416 /;
#X obj 228 63 t b b;
#X obj 25 126 moses;
#X obj 25 151 b;
#X obj 365 199 / 128;
#X obj 322 141 array size \$1;
#X obj 197 263 tabread \$1;
#X obj 47 498 tabwrite \$2;
#X obj 118 441 sqrt;
#X obj 236 428 pow 2;
#X text 15 8 arg1: array from \; arg2: array to \;;
#X obj 427 188 loadbang;
#X obj 427 213 array size \$2;
#X obj 25 178 del 0.01;
#X obj 365 258 i;
#X connect 0 0 17 0;
#X connect 1 0 2 1;
#X connect 1 0 11 1;
#X connect 1 0 23 1;
#X connect 2 0 3 0;
#X connect 2 0 7 0;
#X connect 3 0 2 1;
#X connect 4 0 5 0;
#X connect 5 0 4 1;
#X connect 5 0 14 1;
#X connect 6 0 4 0;
#X connect 6 1 25 0;
#X connect 7 0 9 0;
#X connect 7 0 18 0;
#X connect 7 1 22 0;
#X connect 8 0 13 0;
#X connect 9 0 8 0;
#X connect 10 0 30 0;
#X connect 11 0 12 0;
#X connect 12 0 11 1;
#X connect 12 0 23 1;
#X connect 13 0 11 0;
#X connect 13 0 15 0;
#X connect 13 1 14 0;
#X connect 14 0 16 0;
#X connect 15 0 4 1;
#X connect 16 0 24 0;
#X connect 17 0 2 0;
#X connect 17 1 1 0;
#X connect 17 1 21 0;
#X connect 18 0 19 0;
#X connect 19 0 29 0;
#X connect 20 0 9 1;
#X connect 20 0 10 0;
#X connect 20 0 16 1;
#X connect 21 0 18 1;
#X connect 21 0 20 0;
#X connect 22 0 6 0;
#X connect 24 0 23 0;
#X connect 25 0 5 1;
#X connect 27 0 28 0;
#X connect 28 0 20 1;
#X connect 29 0 2 0;
#X connect 30 0 8 1;
