#N canvas 724 522 380 377 12;
#X obj 64 234 tabread4~ \$1;
#X obj 64 259 outlet~;
#X obj 64 35 inlet~;
#X obj 227 129 array size \$1;
#X obj 64 174 *~;
#X obj 64 199 +~ 1;
#X obj 238 72 loadbang;
#X obj 124 35 inlet;
#X obj 174 35 inlet;
#X obj 132 136 max 1;
#X obj 227 154 - 2;
#X obj 82 137 min;
#X obj 227 35 inlet;
#X obj 227 103 b;
#X connect 0 0 1 0;
#X connect 2 0 4 0;
#X connect 3 0 10 0;
#X connect 4 0 5 0;
#X connect 5 0 0 0;
#X connect 6 0 13 0;
#X connect 7 0 11 0;
#X connect 8 0 9 0;
#X connect 9 0 5 1;
#X connect 10 0 11 1;
#X connect 10 0 4 1;
#X connect 11 0 4 1;
#X connect 12 0 13 0;
#X connect 13 0 3 0;
