#N canvas 484 366 575 553 12;
#X obj 232 15 inlet;
#X obj 389 93 array size \$1;
#X obj 330 188 /;
#X obj 232 46 t b b b;
#X obj 408 168 array size \$2;
#X obj 330 214 - 1;
#X obj 330 239 i;
#X obj 141 129 atoms/count;
#X obj 141 156 t f f;
#X obj 320 293 tabread \$1;
#X obj 320 318 t b f;
#X obj 320 363 f;
#X obj 320 388 +;
#X obj 352 368 pow 2;
#X obj 151 318 f;
#X obj 151 343 /;
#X obj 151 368 sqrt;
#X obj 131 421 tabwrite \$2;
#X obj 119 208 %;
#X obj 119 236 select;
#X obj 119 265 t b b;
#X obj 61 333 atoms/count;
#X msg 285 318 0, f 2;
#X msg 205 393 0, f 2;
#X obj 61 511 outlet;
#X obj 61 452 select;
#X obj 408 432 - 1;
#X obj 27 141 moses;
#X obj 27 166 b;
#X obj 27 191 del 0.01;
#X msg 139 497 normalize;
#X obj 139 522 s \$2;
#X obj 61 477 t b b;
#X obj 330 20 inlet;
#X obj 389 66 spigot 1;
#X obj 442 40 == 0;
#X text 35 8 arg1: array from \; arg2: array to \; inlet2: custom size \;;
#X obj 330 158 v src\$0;
#X obj 59 115 v src\$0;
#X connect 0 0 3 0;
#X connect 1 0 37 0;
#X connect 2 0 5 0;
#X connect 2 0 15 1;
#X connect 2 0 18 1;
#X connect 3 0 7 0;
#X connect 3 1 37 0;
#X connect 3 1 38 0;
#X connect 3 2 7 1;
#X connect 3 2 21 1;
#X connect 3 2 23 0;
#X connect 3 2 4 0;
#X connect 3 2 34 0;
#X connect 4 0 26 0;
#X connect 4 0 2 1;
#X connect 5 0 6 0;
#X connect 6 0 19 1;
#X connect 7 0 8 0;
#X connect 8 0 18 0;
#X connect 8 0 27 0;
#X connect 8 1 9 0;
#X connect 9 0 10 0;
#X connect 10 0 11 0;
#X connect 10 1 13 0;
#X connect 11 0 12 0;
#X connect 12 0 11 1;
#X connect 12 0 14 1;
#X connect 13 0 12 1;
#X connect 14 0 15 0;
#X connect 15 0 16 0;
#X connect 16 0 17 0;
#X connect 18 0 19 0;
#X connect 19 0 20 0;
#X connect 20 0 21 0;
#X connect 20 0 22 0;
#X connect 20 1 14 0;
#X connect 21 0 17 1;
#X connect 21 0 25 0;
#X connect 22 0 11 1;
#X connect 23 0 17 1;
#X connect 25 0 32 0;
#X connect 26 0 25 1;
#X connect 27 0 28 0;
#X connect 28 0 29 0;
#X connect 29 0 7 0;
#X connect 30 0 31 0;
#X connect 32 0 24 0;
#X connect 32 1 30 0;
#X connect 33 0 35 0;
#X connect 33 0 37 0;
#X connect 34 0 1 0;
#X connect 35 0 34 1;
#X connect 37 0 2 0;
#X connect 38 0 27 1;
