#N canvas 472 257 450 488 12;
#X obj 148 60 bng 20 250 50 0 empty empty empty 0 -10 0 12 #fcfcfc #000000 #000000;
#X obj 148 85 atoms/count 4;
#X obj 148 110 sel 0 1 2 3;
#X obj 148 190 timer;
#X obj 166 144 t b b;
#X obj 256 303 list store;
#X msg 148 215 append \$1;
#X obj 296 144 t b b b;
#X msg 158 375 60000 \$1;
#X obj 158 400 /;
#X obj 236 60 delay 2000;
#X msg 236 35 stop \, bang;
#X obj 158 425 outlet;
#X obj 148 36 inlet;
#X obj 105 303 list store;
#X obj 105 328 expr ($f1+$f2)/2;
#X obj 226 144 t b b b;
#X obj 256 328 expr ($f1+$f2+$f3)/3;
#X connect 0 0 1 0;
#X connect 0 0 11 0;
#X connect 1 0 2 0;
#X connect 2 0 3 0;
#X connect 2 1 4 0;
#X connect 2 2 16 0;
#X connect 2 3 7 0;
#X connect 3 0 6 0;
#X connect 4 0 3 0;
#X connect 4 1 3 1;
#X connect 5 0 17 0;
#X connect 6 0 5 0;
#X connect 6 0 14 0;
#X connect 7 0 5 1;
#X connect 7 0 14 1;
#X connect 7 1 5 0;
#X connect 7 2 3 1;
#X connect 8 0 9 0;
#X connect 9 0 12 0;
#X connect 10 0 1 1;
#X connect 11 0 10 0;
#X connect 13 0 0 0;
#X connect 14 0 15 0;
#X connect 15 0 8 0;
#X connect 16 0 14 1;
#X connect 16 0 3 0;
#X connect 16 1 14 0;
#X connect 16 2 3 1;
#X connect 17 0 8 0;
