#N canvas 777 492 450 300 12;
#X obj 152 82 inlet;
#X msg 152 107 1;
#X obj 152 132 outlet;
#X obj 221 87 inlet;
#X msg 221 112 0;
#X connect 0 0 1 0;
#X connect 1 0 2 0;
#X connect 3 0 4 0;
#X connect 4 0 2 0;
