#N canvas 408 230 394 300 10;
#X obj 168 30 inlet;
#X obj 222 94 time, f 12;
#X obj 124 93 date, f 15;
#X obj 222 117 pack f f f;
#X obj 124 116 pack f f f;
#X obj 168 54 t b b;
#X obj 222 161 l2s :;
#X obj 124 160 l2s -;
#X obj 162 203 pack s s;
#X msg 124 138 \$3 \$2 \$1;
#X obj 162 248 outlet;
#X msg 162 225 symbol \$1_\$2;
#X connect 0 0 5 0;
#X connect 1 0 3 0;
#X connect 1 1 3 1;
#X connect 1 2 3 2;
#X connect 2 0 4 0;
#X connect 2 1 4 1;
#X connect 2 2 4 2;
#X connect 3 0 6 0;
#X connect 4 0 9 0;
#X connect 5 0 2 0;
#X connect 5 1 1 0;
#X connect 6 0 8 1;
#X connect 7 0 8 0;
#X connect 8 0 11 0;
#X connect 9 0 7 0;
#X connect 11 0 10 0;
