#N canvas 737 471 450 300 12;
#X obj 122 44 inlet;
#X obj 122 69 t f b, f 8;
#X obj 122 141 outlet;
#X obj 175 141 outlet;
#X obj 175 111 \$1;
#X connect 0 0 1 0;
#X connect 1 0 2 0;
#X connect 1 0 4 1;
#X connect 1 1 4 0;
#X connect 4 0 3 0;
