#N canvas 739 543 450 300 12;
#X obj 169 113 inlet;
#X obj 169 138 t f b, f 8;
#X obj 169 210 outlet;
#X obj 222 210 outlet;
#X obj 222 180 \$1;
#X text 30 16 outputs received value and last stored value \;;
#X connect 0 0 1 0;
#X connect 1 0 2 0;
#X connect 1 0 4 1;
#X connect 1 1 4 0;
#X connect 4 0 3 0;
