#N canvas 843 549 450 300 12;
#X obj 101 143 t b b;
#X obj 101 193 atoms/send-osc navigate;
#X msg 199 123 192.168.1.23 7777;
#X obj 101 118 bng 20 250 50 0 empty empty empty 0 -10 0 12 #fcfcfc #000000 #000000;
#X obj 101 92 loadbang;
#X msg 101 168 slave-controller;
#X connect 0 0 5 0;
#X connect 0 1 2 0;
#X connect 2 0 1 1;
#X connect 3 0 0 0;
#X connect 4 0 3 0;
#X connect 5 0 1 0;
