#N canvas 0 95 450 300 12;
#X obj 74 60 inlet;
#X obj 74 85 t b f;
#X obj 88 180 +;
#X obj 88 205 outlet;
#X obj 74 146 -;
#X obj 74 110 random;
#X obj 237 15 loadbang;
#X msg 237 40 args;
#X obj 237 65 pdcontrol;
#X obj 237 90 route float list;
#X obj 221 126 / 2;
#X obj 221 173 unpack;
#X obj 168 58 inlet;
#X obj 221 198 +;
#X connect 0 0 1 0;
#X connect 1 0 5 0;
#X connect 1 1 2 1;
#X connect 2 0 3 0;
#X connect 4 0 2 0;
#X connect 5 0 4 0;
#X connect 6 0 7 0;
#X connect 7 0 8 0;
#X connect 8 0 9 0;
#X connect 9 0 5 1;
#X connect 9 0 10 0;
#X connect 9 1 11 0;
#X connect 10 0 4 1;
#X connect 11 0 13 0;
#X connect 11 0 4 1;
#X connect 11 1 13 1;
#X connect 12 0 9 0;
#X connect 13 0 5 1;
