#N canvas 736 435 450 300 12;
#X obj 107 121 hsl 80 15 0 1 0 0 empty empty empty -2 -10 0 12 #fcfcfc #000000 #000000 0 1;
#X obj 104 151 pow 3;
#X obj 104 256 outlet;
#X obj 213 98 loadbang;
#X msg 213 123 args;
#X obj 213 148 pdcontrol;
#X obj 213 173 route symbol;
#X obj 213 198 sel db;
#X obj 213 223 tgl 20 0 empty empty empty 0 -10 0 12 #fcfcfc #000000 #000000 0 1;
#X obj 104 183 AB;
#X obj 122 212 * 100;
#X connect 0 0 1 0;
#X connect 1 0 9 0;
#X connect 3 0 4 0;
#X connect 4 0 5 0;
#X connect 5 0 6 0;
#X connect 6 0 7 0;
#X connect 7 0 8 0;
#X connect 8 0 9 1;
#X connect 9 0 2 0;
#X connect 9 1 10 0;
#X connect 10 0 2 0;
#X coords 0 -1 1 1 94 40 1 100 100;
