#N canvas 741 615 450 300 12;
#X obj 78 165 inlet~;
#X obj 78 190 *~;
#X obj 78 215 outlet~;
#X obj 165 78 inlet;
#X msg 197 191 \$1 10;
#X obj 197 216 line~;
#X obj 229 79 r \$1;
#X text 63 22 1st argument: sets internal [receive] \; 2nd argument: sets initial value;
#X obj 281 80 loadbang;
#X obj 281 105 \$2;
#X obj 197 137 + 100;
#X obj 197 162 dbtorms;
#X connect 0 0 1 0;
#X connect 1 0 2 0;
#X connect 3 0 10 0;
#X connect 4 0 5 0;
#X connect 5 0 1 1;
#X connect 6 0 10 0;
#X connect 8 0 9 0;
#X connect 9 0 10 0;
#X connect 10 0 11 0;
#X connect 11 0 4 0;
