#N canvas 180 310 604 681 12;
#N canvas 735 388 450 250 (subpatch) 0;
#X array \$0-shaper 1024 float 0;
#A color 0;
#A width 1;
#X coords 0 1 1023 -1 217 55 1;
#X restore 28 37 graph;
#X obj 21 180 inlet~;
#X obj 21 335 tabread4~ \$0-shaper;
#X obj 21 360 outlet~;
#X msg 22 592 normalize;
#X obj 54 627 s \$0-shaper;
#X obj 22 567 t b a;
#X obj 341 385 samplerate~;
#X obj 341 465 phasor~;
#X obj 341 515 *~ 2;
#X obj 341 540 -~ 1;
#X obj 378 602 tabwrite~ \$0-shaper;
#X obj 387 214 noise~;
#X obj 387 239 samphold~;
#X obj 387 264 tabwrite~ \$0-shaper;
#X obj 447 211 phasor~ 1000;
#X floatatom 415 154 5 0 0 0 - - - 0;
#X obj 415 178 t b f;
#X obj 187 261 load-file \$0-shaper;
#X obj 341 440 / 1024, f 7;
#X obj 407 551 cos~;
#X obj 21 207 *~ 0.5;
#X obj 21 232 +~ 0.5;
#X obj 21 257 +~;
#X obj 21 282 wrap~;
#X floatatom 87 214 5 0 0 0 - - - 0;
#X obj 87 238 lop~ 10;
#X obj 90 189 hsl 80 20 0 1 0 0 empty empty empty -2 -10 0 12 #fcfcfc #000000 #000000 0 1;
#X msg 432 385 1024;
#X obj 432 410 array size \$0-shaper;
#X msg 187 286 \$1;
#X msg 410 445 0;
#X obj 378 343 t b b;
#X obj 378 312 bng 20 250 50 0 empty empty empty 0 -10 0 12 #fcfcfc #000000 #000000;
#X msg 42 446 sinesum 1024 1 0.5 0.25 0.125 0.0625;
#X msg 42 475 sinesum 1024 1 0 0.5 0 0.25 0 0.125 0 0.0625, f 34;
#X msg 42 525 sinesum 1024 1 0.5 0 0.25 0 0.125 0 0.0625, f 34;
#X obj 21 306 *~ 1024;
#X obj 187 162 list store sawtooth sine square triangle, f 20;
#X obj 186 112 hradio 20 1 0 4 empty empty empty 0 -10 0 12 #fcfcfc #000000 #000000 0;
#X msg 186 137 get \$1;
#X msg 187 205 symbol ~/samples/Waveforms/\$1.wav, f 19;
#X obj 438 25 inlet;
#X text 431 50 TODO;
#X connect 1 0 21 0;
#X connect 2 0 3 0;
#X connect 4 0 5 0;
#X connect 6 0 4 0;
#X connect 6 1 5 0;
#X connect 7 0 19 0;
#X connect 8 0 9 0;
#X connect 8 0 20 0;
#X connect 9 0 10 0;
#X connect 12 0 13 0;
#X connect 13 0 14 0;
#X connect 15 0 13 1;
#X connect 16 0 17 0;
#X connect 17 0 14 0;
#X connect 17 1 15 0;
#X connect 18 0 30 0;
#X connect 19 0 8 0;
#X connect 20 0 11 0;
#X connect 21 0 22 0;
#X connect 22 0 23 0;
#X connect 23 0 24 0;
#X connect 24 0 37 0;
#X connect 25 0 26 0;
#X connect 26 0 23 1;
#X connect 27 0 25 0;
#X connect 28 0 29 0;
#X connect 30 0 37 1;
#X connect 31 0 8 1;
#X connect 32 0 11 0;
#X connect 32 1 7 0;
#X connect 32 1 28 0;
#X connect 32 1 31 0;
#X connect 33 0 32 0;
#X connect 34 0 6 0;
#X connect 35 0 6 0;
#X connect 36 0 6 0;
#X connect 37 0 2 0;
#X connect 38 0 41 0;
#X connect 39 0 40 0;
#X connect 40 0 38 0;
#X connect 41 0 18 0;
