#N canvas 1380 184 515 687 12;
#X obj 165 132 tgl 20 0 empty empty empty 0 -10 0 12 #fcfcfc #000000 #000000 0 1;
#X obj 165 157 metro 500;
#X floatatom 225 132 5 0 0 0 - - - 0;
#X obj 286 117 until;
#X obj 286 169 t b f;
#X msg 412 160 const 0;
#X obj 106 184 bng 20 250 50 0 empty empty empty 0 -10 0 12 #fcfcfc #000000 #000000;
#X obj 37 309 atoms/send-osc buffer;
#X obj 37 257 array get game;
#X obj 37 282 list prepend game;
#X msg 251 34 0;
#X msg 290 35 1;
#X obj 286 194 f;
#X obj 209 343 atoms/send-osc navigate;
#X text 291 320 <- click to open the UI!;
#X msg 209 318 gameoflife;
#X obj 251 60 t b b f, f 8;
#X text 323 32 populate;
#X text 217 34 kill;
#X obj 277 88 f;
#X text 336 90 how many cells;
#X floatatom 340 69 5 0 0 0 - - - 0;
#X text 409 139 reset;
#X obj 165 183 b;
#X text 116 133 auto->;
#X obj 330 418 bng 20 250 50 0 empty empty empty 0 -10 0 12 #fcfcfc #000000 #000000;
#X obj 330 443 atoms/send-osc reset;
#X obj 214 462 t b f;
#X msg 214 487 1;
#X msg 214 437 33 \, 34 \, 35;
#X obj 286 220 tabwrite ref;
#X obj 73 496 bng 20 250 50 0 empty empty empty 0 -10 0 12 #fcfcfc #000000 #000000;
#X obj 60 525 array get ref;
#X obj 60 550 array set game;
#X obj 214 512 tabwrite ref;
#X obj 412 185 s ref;
#X obj 73 446 atoms/count 16;
#X obj 73 471 sel 0;
#X obj 144 218 t b b b;
#X obj 331 470 bng 20 250 50 0 empty empty empty 0 -10 0 12 #fcfcfc #000000 #000000;
#X text 101 163 iterate;
#X obj 331 495 atoms/send-osc print;
#X obj 37 80 t b b b;
#X obj 83 607 array get game;
#X obj 83 632 array set ref;
#X obj 39 30 table game 40000;
#X obj 39 54 table ref 40000;
#X obj 286 142 random 40000;
#X obj 167 254 scripts/game_of_life game 200;
#X connect 0 0 1 0;
#X connect 1 0 23 0;
#X connect 2 0 1 1;
#X connect 3 0 47 0;
#X connect 4 0 12 0;
#X connect 4 1 30 1;
#X connect 5 0 35 0;
#X connect 6 0 38 0;
#X connect 8 0 9 0;
#X connect 9 0 7 0;
#X connect 10 0 16 0;
#X connect 11 0 16 0;
#X connect 12 0 30 0;
#X connect 15 0 13 0;
#X connect 16 0 42 0;
#X connect 16 1 19 0;
#X connect 16 2 12 1;
#X connect 19 0 3 0;
#X connect 21 0 19 1;
#X connect 23 0 38 0;
#X connect 25 0 26 0;
#X connect 27 0 28 0;
#X connect 27 1 34 1;
#X connect 28 0 34 0;
#X connect 29 0 27 0;
#X connect 31 0 32 0;
#X connect 32 0 33 0;
#X connect 36 0 37 0;
#X connect 37 0 31 0;
#X connect 38 0 8 0;
#X connect 38 1 48 0;
#X connect 39 0 41 0;
#X connect 42 0 8 0;
#X connect 42 1 32 0;
#X connect 43 0 44 0;
#X connect 47 0 4 0;
