#N struct 1005-cell float x float y float cellsize float color;
#N canvas 0 0 958 956 12;
#X obj 17 495 list prepend set;
#X obj 17 520 list trim;
#X obj 17 360 tgl 20 0 empty empty empty 0 -10 0 12 #fcfcfc #000000 #000000 0 1;
#X obj 17 385 metro 400;
#X obj 17 410 bng 20 250 50 0 empty empty empty 0 -10 0 12 #fcfcfc #000000 #000000;
#X floatatom 71 354 5 0 0 0 - - - 0;
#X obj 270 57 until;
#X obj 270 107 t f f;
#X obj 268 165 pack;
#X obj 264 219 else/mtx.ctl 32 32 20 0 0 0 0 0 0 0 0 0 0 0 0;
#X obj 17 470 scripts/game_of_life2 32 32;
#X msg 139 139 32;
#X obj 139 164 * 32;
#X floatatom 139 189 5 0 0 0 - - - 0;
#X obj 270 82 random 1024;
#X msg 270 32 200;
#X obj 268 140 % 32;
#X obj 304 146 div 32;
#X msg 268 190 \$1 \$2 1;
#X connect 0 0 1 0;
#X connect 1 0 9 0;
#X connect 2 0 3 0;
#X connect 3 0 4 0;
#X connect 4 0 10 0;
#X connect 5 0 3 1;
#X connect 6 0 14 0;
#X connect 7 0 16 0;
#X connect 7 1 17 0;
#X connect 8 0 18 0;
#X connect 9 0 10 0;
#X connect 10 0 0 0;
#X connect 11 0 12 0;
#X connect 12 0 13 0;
#X connect 14 0 7 0;
#X connect 15 0 6 0;
#X connect 16 0 8 0;
#X connect 17 0 8 1;
#X connect 18 0 9 0;
