#N canvas 527 252 376 309 12;
#X obj 57 164 grid_control;
#X obj 57 102 notein;
#X obj 57 127 pack;
#X obj 57 233 noteout;
#X obj 217 209 until;
#X obj 217 234 f;
#X obj 264 244 + 1;
#X msg 217 259 \$1 0;
#X listbox 57 195 20 0 0 0 - - - 0;
#X obj 123 22 metronome;
#X obj 138 68 r beat;
#X floatatom 138 93 5 0 0 0 - - - 0;
#X obj 138 117 sel 0;
#X obj 138 142 bng 15 250 50 0 empty empty empty 17 7 0 10 #fcfcfc
#000000 #000000;
#N canvas 458 221 450 300 beep 0;
#X obj 184 12 inlet;
#X obj 184 37 b;
#X obj 184 87 line~;
#X obj 108 182 outlet~;
#X obj 184 137 *~ 0.2;
#X obj 108 131 osc~;
#X obj 108 156 *~;
#X obj 99 60 sel 0;
#X msg 99 85 800;
#X msg 131 89 400;
#X msg 184 62 1 \, 0 200;
#X obj 184 112 pow~ 4;
#X connect 0 0 1 0;
#X connect 0 0 7 0;
#X connect 1 0 10 0;
#X connect 2 0 11 0;
#X connect 4 0 6 1;
#X connect 5 0 6 0;
#X connect 6 0 3 0;
#X connect 7 0 8 0;
#X connect 7 1 9 0;
#X connect 8 0 5 0;
#X connect 9 0 5 0;
#X connect 10 0 2 0;
#X connect 11 0 4 0;
#X restore 243 41 pd beep;
#X obj 243 66 out~;
#X msg 189 139 mode-set columnsAsTracks;
#X msg 244 173 64;
#X msg 272 210 0;
#X connect 0 0 8 0;
#X connect 1 0 2 0;
#X connect 1 1 2 1;
#X connect 2 0 0 0;
#X connect 4 0 5 0;
#X connect 5 0 6 0;
#X connect 5 0 7 0;
#X connect 6 0 5 1;
#X connect 7 0 3 0;
#X connect 8 0 3 0;
#X connect 10 0 11 0;
#X connect 10 0 14 0;
#X connect 11 0 12 0;
#X connect 12 0 13 0;
#X connect 13 0 0 1;
#X connect 14 0 15 0;
#X connect 16 0 0 1;
#X connect 17 0 18 0;
#X connect 17 0 4 0;
#X connect 18 0 5 1;
