#N canvas 457 201 450 300 12;
#X obj 186 202 narray;
#X obj 66 102 prepend add;
#X msg 335 191 getAll;
#X floatatom 350 217 5 0 0 0 - - - 0;
#X msg 350 241 get \$1;
#X msg 325 165 clear;
#X obj 186 227 print;
#X obj 163 102 prepend insert 1;
#X obj 289 100 prepend replace 1;
#X msg 87 45 a b c;
#X msg 307 53 1 2 3;
#X msg 168 56 x y z;
#X connect 0 0 6 0;
#X connect 1 0 0 0;
#X connect 2 0 0 0;
#X connect 3 0 4 0;
#X connect 4 0 0 0;
#X connect 5 0 0 0;
#X connect 7 0 0 0;
#X connect 8 0 0 0;
#X connect 9 0 1 0;
#X connect 10 0 8 0;
#X connect 11 0 7 0;
