#N canvas 458 221 450 300 12;
#X obj 144 145 slice_control;
#X obj 250 58 env~;
#X obj 250 83 dbtorms;
#X obj 40 37 loadbang;
#X msg 40 62 \; pd dsp 1;
#X msg 250 108 0 \$1;
#X obj 63 220 noteout;
#X listbox 144 177 20 0 0 0 - - - 0;
#X obj 250 33 phasor~ 0.4;
#X obj 144 201 bng 15 250 50 0 empty empty empty 17 7 0 10 #fcfcfc
#000000 #000000;
#X obj 320 98 env~;
#X obj 320 123 dbtorms;
#X obj 320 73 phasor~ 0.4;
#X msg 320 148 1 \$1;
#X obj 144 82 notein;
#X obj 144 107 pack;
#X listbox 227 221 20 0 0 0 - - - 0;
#X connect 0 0 7 0;
#X connect 0 1 16 0;
#X connect 1 0 2 0;
#X connect 2 0 5 0;
#X connect 3 0 4 0;
#X connect 5 0 0 1;
#X connect 7 0 6 0;
#X connect 7 0 9 0;
#X connect 8 0 1 0;
#X connect 10 0 11 0;
#X connect 11 0 13 0;
#X connect 12 0 10 0;
#X connect 13 0 0 1;
#X connect 14 0 15 0;
#X connect 14 1 15 1;
#X connect 15 0 0 0;
