#N canvas 98 132 450 453 12;
#X obj 81 21 cnv 15 83 122 empty \$0cnv ::..Amp..:: 2 8 0 12 #e0e0e0
#404040 0;
#X obj 86 51 vsl 16 60 0 1 0 0 empty empty A 5 -9 0 10 #fcfcfc #000000
#000000 0 1;
#X obj 105 51 vsl 16 60 0 1 0 0 empty empty D 5 -9 0 10 #fcfcfc #000000
#000000 0 1;
#X obj 124 51 vsl 16 60 0 1 0 0 empty empty S 5 -9 0 10 #fcfcfc #000000
#000000 0 1;
#X obj 143 51 vsl 16 60 0 1 0 0 empty empty R 5 -9 0 10 #fcfcfc #000000
#000000 0 1;
#X obj 124 291 pack f f f f;
#X obj 124 265 b;
#X obj 124 365 outlet;
#X obj 158 221 sqrt;
#X obj 93 223 * 20000;
#X obj 36 223 * 20000;
#X obj 205 225 * 20000;
#X obj 36 198 pow 4;
#X obj 93 194 pow 4;
#X obj 205 198 pow 4;
#X obj 124 316 list prepend env;
#X obj 124 341 list trim;
#X obj 287 221 loadbang;
#X msg 287 246 args;
#X obj 287 271 pdcontrol;
#X symbolatom 86 120 10 0 0 0 - - - 0;
#X msg 220 121 set \$1;
#X obj 287 296 route symbol bang;
#X msg 242 90 set env;
#X connect 1 0 12 0;
#X connect 2 0 6 0;
#X connect 2 0 13 0;
#X connect 3 0 6 0;
#X connect 3 0 8 0;
#X connect 4 0 6 0;
#X connect 4 0 14 0;
#X connect 5 0 15 0;
#X connect 6 0 5 0;
#X connect 8 0 5 2;
#X connect 9 0 5 1;
#X connect 10 0 5 0;
#X connect 11 0 5 3;
#X connect 12 0 10 0;
#X connect 13 0 9 0;
#X connect 14 0 11 0;
#X connect 15 0 16 0;
#X connect 16 0 7 0;
#X connect 17 0 18 0;
#X connect 18 0 19 0;
#X connect 19 0 22 0;
#X connect 20 0 15 1;
#X connect 21 0 20 0;
#X connect 22 0 15 1;
#X connect 22 0 21 0;
#X connect 22 1 23 0;
#X connect 23 0 20 0;
#X coords 0 -1 1 1 85 124 2 80 20;
