#N canvas 112 88 597 631 12;
#X obj 329 227 tgl 15 0 empty empty empty 17 7 0 10 #fcfcfc #000000 #000000 0 1;
#X obj 389 272 sel 1 0;
#X obj 25 482 timer;
#X obj 453 171 loadbang;
#X obj 453 197 samplerate~;
#X obj 389 429 t b b;
#X msg 458 324 stop;
#X obj 412 298 t b b b;
#X obj 210 381 t b b, f 10;
#X obj 210 486 pack s f f;
#X msg 16 367 stop;
#X obj 46 293 r recording\$0;
#X obj 243 435 v size\$0;
#X obj 277 461 v sr\$0;
#X obj 453 222 v sr\$0;
#X obj 25 455 r beginCount\$0;
#X obj 57 400 r endCount\$0;
#X obj 421 486 expr 60 * sr\$0;
#X obj 389 542 s recording\$0;
#X obj 458 349 s recording\$0;
#X obj 435 375 s endCount\$0;
#X obj 430 458 s beginCount\$0;
#X obj 25 507 expr size\$0 = $f1*( sr\$0 / 1000), f 18;
#X obj 25 158 inlet~ fwd;
#X obj 329 536 outlet;
#X obj 25 319 tabwrite~;
#X obj 25 550 array size;
#X obj 421 514 array size;
#X obj 210 409 symbol;
#X msg 36 267 set \$1;
#X obj 92 232 symbol;
#X obj 210 275 b;
#X obj 329 252 change;
#X obj 92 183 route symbol bang;
#X obj 210 244 inlet;
#X obj 210 529 outlet;
#X text 31 24 Basic audio recorder abstraction. Resizes array \, to max. 60 seconds \;, f 68;
#X text 32 58 1st inlet: bang starts/stops recording \, symbol sets array \; 2nd inlet: triggers output table info \; 1st outlet outputs table info \; 2nd outlet: rec state (0-1) \;;
#X obj 119 353 delay 30 1 sec;
#X connect 0 0 32 0;
#X connect 1 0 5 0;
#X connect 1 1 7 0;
#X connect 2 0 22 0;
#X connect 3 0 4 0;
#X connect 4 0 14 0;
#X connect 5 0 18 0;
#X connect 5 1 17 0;
#X connect 5 1 21 0;
#X connect 6 0 19 0;
#X connect 7 0 8 0;
#X connect 7 1 20 0;
#X connect 7 2 6 0;
#X connect 8 0 28 0;
#X connect 8 1 12 0;
#X connect 8 1 13 0;
#X connect 9 0 35 0;
#X connect 10 0 38 0;
#X connect 11 0 25 0;
#X connect 12 0 9 1;
#X connect 13 0 9 2;
#X connect 15 0 2 0;
#X connect 15 0 38 0;
#X connect 16 0 2 1;
#X connect 16 0 10 0;
#X connect 17 0 27 0;
#X connect 22 0 26 0;
#X connect 23 0 25 0;
#X connect 23 1 33 0;
#X connect 28 0 9 0;
#X connect 29 0 25 0;
#X connect 30 0 29 0;
#X connect 30 0 26 1;
#X connect 30 0 27 1;
#X connect 30 0 28 1;
#X connect 31 0 8 0;
#X connect 32 0 24 0;
#X connect 32 0 1 0;
#X connect 33 0 30 0;
#X connect 33 1 0 0;
#X connect 34 0 31 0;
#X connect 38 0 0 0;
