#N canvas 287 389 450 300 12;
#X obj 203 167 / 1000;
#X msg 203 192 1 \$1;
#X msg 42 175 size \$1;
#X obj 203 142 atoms/rand-seq 125 0 1000;
#X obj 312 34 table \$0b;
#X obj 42 148 macros/load-file \$0b;
#X obj 59 239 macros/playhead2~ \$0b;
#X obj 59 264 outlet~;
#X obj 120 56 inlet;
#X obj 316 82 loadbang;
#X msg 316 107 loop 0;
#X obj 42 111 else/click;
#X obj 296 198 r slices;
#X obj 296 223 max 1;
#X msg 296 248 max \$1;
#X obj 203 36 r seq;
#X connect 0 0 1 0;
#X connect 1 0 6 1;
#X connect 2 0 6 1;
#X connect 3 0 0 0;
#X connect 5 0 2 0;
#X connect 6 0 7 0;
#X connect 8 0 3 0;
#X connect 9 0 10 0;
#X connect 10 0 6 1;
#X connect 11 0 5 0;
#X connect 12 0 13 0;
#X connect 13 0 0 1;
#X connect 13 0 14 0;
#X connect 14 0 3 0;
#X connect 15 0 3 0;
