#N canvas 133 108 496 407 12;
#X obj 34 180 outlet~;
#X obj 53 82 delwrite~ \$0buff 100;
#X obj 57 121 delread4~ \$0buff;
#N canvas 458 221 450 300 tri 0;
#X obj 157 80 *~ -1;
#X obj 156 106 wrap~;
#X obj 131 132 min~;
#X obj 132 51 inlet~;
#X obj 131 186 outlet~;
#X obj 131 158 *~ 2;
#X connect 0 0 1 0;
#X connect 1 0 2 1;
#X connect 2 0 5 0;
#X connect 3 0 0 0;
#X connect 3 0 2 0;
#X connect 5 0 4 0;
#X restore 215 141 pd tri;
#N canvas 833 201 450 300 sine 0;
#X obj 126 37 inlet~;
#X obj 126 88 cos~;
#X obj 126 113 *~ 0.5;
#X obj 126 138 +~ 0.5;
#X obj 126 163 outlet~;
#X obj 126 63 +~ 0.5;
#X connect 0 0 5 0;
#X connect 1 0 2 0;
#X connect 2 0 3 0;
#X connect 3 0 4 0;
#X connect 5 0 1 0;
#X restore 271 141 pd sine;
#X obj 252 202 *~;
#X obj 230 106 phasor~;
#X obj 230 76 pot~ \$0rate 0.8;
#X obj 128 337 s \$0rate;
#X obj 208 337 s \$0intensity;
#X floatatom 37 313 5 0 0 0 - - - 0;
#X floatatom 319 313 5 0 0 0 - - - 0;
#X obj 371 255 *~ 0.5;
#X obj 40 292 hsl 60 15 0 1 0 0 empty empty empty -2 -8 0 10 #fcfcfc #000000 #000000 0 1;
#X obj 323 291 hsl 60 15 0 1 0 0 empty empty empty -2 -8 0 10 #fcfcfc #000000 #000000 0 1;
#X obj 34 28 inlet~ fwd;
#X obj 101 55 broadcast \$0;
#X obj 37 337 s \$0level;
#X obj 101 157 r \$0level;
#X obj 371 202 r \$0intensity;
#X obj 309 169 r \$0waveform;
#X obj 319 337 s \$0waveform;
#X obj 371 229 pot~;
#X obj 34 149 xfader~;
#X obj 215 169 xfader~ flat;
#X obj 128 312 ms2hz;
#X obj 211 292 hsl 60 15 0 12 0 0 empty empty empty -2 -8 0 10 #fcfcfc #000000 #000000 0 1;
#X floatatom 208 312 5 0 0 0 - - - 0;
#X floatatom 128 289 5 0 0 0 - - - 0;
#X obj 252 228 +~ 4;
#X connect 2 0 23 1;
#X connect 3 0 24 0;
#X connect 4 0 24 1;
#X connect 5 0 29 0;
#X connect 6 0 3 0;
#X connect 6 0 4 0;
#X connect 7 0 6 0;
#X connect 10 0 17 0;
#X connect 11 0 21 0;
#X connect 13 0 10 0;
#X connect 14 0 11 0;
#X connect 15 0 1 0;
#X connect 15 0 23 0;
#X connect 15 1 16 0;
#X connect 18 0 23 2;
#X connect 19 0 22 0;
#X connect 20 0 24 2;
#X connect 22 0 5 1;
#X connect 22 0 12 0;
#X connect 23 0 0 0;
#X connect 23 1 0 0;
#X connect 24 0 5 0;
#X connect 24 1 5 0;
#X connect 25 0 8 0;
#X connect 26 0 27 0;
#X connect 27 0 9 0;
#X connect 28 0 25 0;
#X connect 29 0 2 0;
