#N canvas 390 265 424 285 12;
#X obj 24 211 *~;
#X obj 24 236 outlet~;
#X obj 42 184 lop~ 50;
#X obj 24 51 inlet~ fwd;
#X obj 250 98 r \$0threshold;
#X obj 333 124 r \$0ratio;
#X obj 168 123 env~ 512;
#X obj 168 150 expr (($f1 - $f2) / $f3) - $f1 + $f2 + 100, f 24;
#X floatatom 168 190 5 0 0 0 - - - 0;
#X obj 168 214 dbtorms;
#X obj 168 239 clip 0 1;
#X obj 24 93 atoms/feed-forward~ 512, f 13;
#X obj 133 71 atoms/broadcast \$0;
#N canvas 964 248 450 300 init 1;
#X obj 140 81 loadbang;
#X msg 140 106 args;
#X obj 140 131 pdcontrol;
#X obj 140 156 pack 94 2;
#X obj 140 181 unpack, f 9;
#X obj 140 206 s \$0threshold;
#X obj 200 235 s \$0ratio;
#X connect 0 0 1 0;
#X connect 1 0 2 0;
#X connect 2 0 3 0;
#X connect 3 0 4 0;
#X connect 4 0 5 0;
#X connect 4 1 6 0;
#X restore 200 17 pd init;
#X connect 0 0 1 0;
#X connect 2 0 0 1;
#X connect 3 0 6 0;
#X connect 3 0 11 0;
#X connect 3 1 12 0;
#X connect 4 0 7 1;
#X connect 5 0 7 2;
#X connect 6 0 7 0;
#X connect 7 0 8 0;
#X connect 8 0 9 0;
#X connect 9 0 10 0;
#X connect 10 0 2 0;
#X connect 11 0 0 0;
