#N canvas 389 229 424 285 12;
#X obj 24 181 *~;
#X obj 24 206 outlet~;
#X obj 42 154 lop~ 50;
#X obj 24 21 inlet~ fwd;
#X obj 133 41 broadcast \$0;
#X obj 250 68 r \$0threshold;
#X obj 333 94 r \$0ratio;
#X obj 168 93 env~ 512;
#X obj 24 63 feed-forward~ 512, f 13;
#X obj 168 120 expr (($f1 - $f2) / $f3) - $f1 + $f2 + 100, f 24;
#X floatatom 168 160 5 0 0 0 - - - 0;
#X obj 168 184 dbtorms;
#X obj 168 209 clip 0 1;
#X obj 297 12 loadbang;
#X msg 316 37 1;
#X msg 277 39 100;
#X connect 0 0 1 0;
#X connect 2 0 0 1;
#X connect 3 0 7 0;
#X connect 3 0 8 0;
#X connect 3 1 4 0;
#X connect 5 0 9 1;
#X connect 6 0 9 2;
#X connect 7 0 9 0;
#X connect 8 0 0 0;
#X connect 9 0 10 0;
#X connect 10 0 11 0;
#X connect 11 0 12 0;
#X connect 12 0 2 0;
#X connect 13 0 14 0;
#X connect 13 0 15 0;
#X connect 14 0 9 2;
#X connect 15 0 9 1;
