#N canvas 849 293 369 471 12;
#N canvas 779 528 678 432 6-sqr-trn 0;
#X obj 30 159 phasor~;
#X obj 164 325 /~ 6;
#X obj 163 391 outlet~;
#X obj 89 161 phasor~;
#X obj 154 161 phasor~;
#X obj 221 162 phasor~;
#X obj 291 160 phasor~;
#X obj 357 158 phasor~;
#X obj 30 30 inlet~;
#X obj 30 134 *~ 1;
#X obj 89 136 *~ 1.243;
#X obj 154 136 *~ 1.442;
#X obj 221 137 *~ 1.532;
#X obj 291 135 *~ 2.687;
#X obj 357 133 *~ 2.1254;
#X obj 30 185 >~ 0.55;
#X obj 89 186 >~ 0.55;
#X obj 154 186 >~ 0.55;
#X obj 221 186 >~ 0.55;
#X obj 291 186 >~ 0.55;
#X obj 357 183 >~ 0.55;
#X obj 455 73 bng 20 250 50 0 empty empty empty 0 -10 0 12 #fcfcfc #000000 #000000;
#X msg 455 98 5;
#X obj 455 123 until;
#X obj 455 148 atoms/count 5;
#X obj 455 173 t f b;
#X obj 455 278 pack f f;
#X obj 455 303 route 0 1 2 3 4;
#X obj 486 223 / 1000;
#X obj 486 198 random 1200;
#X obj 486 248 + 1;
#X obj 162 356 hip~ 5;
#X connect 0 0 15 0;
#X connect 1 0 31 0;
#X connect 3 0 16 0;
#X connect 4 0 17 0;
#X connect 5 0 18 0;
#X connect 6 0 19 0;
#X connect 7 0 20 0;
#X connect 8 0 9 0;
#X connect 8 0 10 0;
#X connect 8 0 11 0;
#X connect 8 0 12 0;
#X connect 8 0 13 0;
#X connect 8 0 14 0;
#X connect 9 0 0 0;
#X connect 10 0 3 0;
#X connect 11 0 4 0;
#X connect 12 0 5 0;
#X connect 13 0 6 0;
#X connect 14 0 7 0;
#X connect 15 0 1 0;
#X connect 16 0 1 0;
#X connect 17 0 1 0;
#X connect 18 0 1 0;
#X connect 19 0 1 0;
#X connect 20 0 1 0;
#X connect 21 0 22 0;
#X connect 22 0 23 0;
#X connect 23 0 24 0;
#X connect 24 0 25 0;
#X connect 25 0 26 0;
#X connect 25 1 29 0;
#X connect 26 0 27 0;
#X connect 27 0 10 1;
#X connect 27 1 11 1;
#X connect 27 2 12 1;
#X connect 27 3 13 1;
#X connect 27 4 14 1;
#X connect 28 0 30 0;
#X connect 29 0 28 0;
#X connect 30 0 26 1;
#X connect 31 0 2 0;
#X restore 100 175 pd 6-sqr-trn;
#X floatatom 100 129 8 0 0 0 - - - 0;
#X obj 119 283 vline~;
#X obj 100 372 *~;
#X obj 119 207 bng 20 250 50 0 empty empty empty 0 -10 0 12 #fcfcfc #000000 #000000;
#X obj 119 232 f;
#X floatatom 199 213 10 0 0 0 - - - 0;
#X msg 119 257 0 \, 1 2 \, 0 \$1 2;
#X obj 118 308 pow~ 3;
#N canvas 736 399 450 300 filtering 0;
#X obj 117 81 inlet~;
#X obj 117 106 else/lowpass~ 7000 0.6;
#X obj 117 131 else/highpass~ 6800 1.5;
#X obj 117 156 else/highpass~ 6800 1.5;
#X obj 117 206 outlet~;
#X obj 117 181 else/highpass~ 1200 1.5;
#X connect 0 0 1 0;
#X connect 1 0 2 0;
#X connect 2 0 3 0;
#X connect 3 0 5 0;
#X connect 5 0 4 0;
#X restore 100 335 pd filtering;
#X obj 100 397 outlet~;
#X obj 119 35 inlet;
#X obj 119 87 t b f;
#X obj 199 124 loadbang;
#X msg 199 149 1500;
#X obj 215 90 unpack f f;
#X obj 119 62 route float bang list;
#X connect 0 0 9 0;
#X connect 1 0 0 0;
#X connect 2 0 8 0;
#X connect 3 0 10 0;
#X connect 4 0 5 0;
#X connect 5 0 7 0;
#X connect 6 0 5 1;
#X connect 7 0 2 0;
#X connect 8 0 3 1;
#X connect 9 0 3 0;
#X connect 11 0 16 0;
#X connect 12 0 4 0;
#X connect 12 1 1 0;
#X connect 13 0 14 0;
#X connect 14 0 6 0;
#X connect 15 0 12 0;
#X connect 15 1 6 0;
#X connect 16 0 12 0;
#X connect 16 1 4 0;
#X connect 16 2 15 0;
