#N canvas 739 572 470 419 12;
#X obj 62 13 inlet~;
#X obj 62 300 outlet~;
#X obj 97 68 delwrite~ \$0dly 2000;
#X obj 159 177 delread4~ \$0dly;
#N canvas 739 543 450 300 filtering 0;
#X obj 81 32 inlet~;
#X obj 81 72 hip~;
#X obj 81 97 hip~;
#X obj 81 199 outlet~;
#X obj 191 116 r \$0lop;
#X obj 192 50 r \$0hip;
#X obj 81 122 lop~ 21000;
#X obj 81 147 lop~ 21000;
#X obj 191 145 mtof;
#X obj 192 77 mtof;
#X connect 0 0 1 0;
#X connect 1 0 2 0;
#X connect 2 0 6 0;
#X connect 4 0 8 0;
#X connect 5 0 9 0;
#X connect 6 0 7 0;
#X connect 7 0 3 0;
#X connect 8 0 6 1;
#X connect 8 0 7 1;
#X connect 9 0 1 1;
#X connect 9 0 2 1;
#X restore 159 202 pd filtering;
#X obj 101 39 atoms/broadcast \$0;
#X obj 159 101 r \$0time;
#X obj 159 126 sig~;
#N canvas 414 493 535 278 modulation 0;
#X obj 170 87 r \$0lfo;
#X obj 68 127 inlet~;
#X obj 68 208 outlet~;
#X obj 335 79 r \$0mod.depth;
#X obj 231 79 r \$0mod.rate;
#X msg 231 104 rate \$1;
#X obj 170 154 atoms/lfo~ 1 0 0 2;
#X obj 68 173 +~;
#X msg 335 104 range 0 \$1;
#X connect 0 0 6 0;
#X connect 1 0 7 0;
#X connect 3 0 8 0;
#X connect 4 0 5 0;
#X connect 5 0 6 0;
#X connect 6 0 7 1;
#X connect 7 0 2 0;
#X connect 8 0 6 0;
#X restore 159 151 pd modulation;
#X obj 62 237 atoms/vol~ \$0dry 0, f 10;
#X obj 159 236 atoms/vol~ \$0level -100, f 12;
#X obj 324 133 atoms/vol~ \$0fdbk -100, f 11;
#X obj 324 203 expr~ atan($v1);
#X obj 324 174 atoms/limit~ 98 8;
#X connect 0 0 2 0;
#X connect 0 0 9 0;
#X connect 0 1 5 0;
#X connect 3 0 4 0;
#X connect 4 0 10 0;
#X connect 4 0 11 0;
#X connect 6 0 7 0;
#X connect 7 0 8 0;
#X connect 8 0 3 0;
#X connect 9 0 1 0;
#X connect 10 0 1 0;
#X connect 11 0 13 0;
#X connect 12 0 2 0;
#X connect 13 0 12 0;
