#N canvas 785 162 404 339 12;
#X obj 42 81 writesf~;
#X msg 85 175 open -bytes 3 /tmp/\$1_rec.wav, f 15;
#X obj 85 150 \$0;
#X obj 42 22 inlet~;
#X obj 52 51 r recording\$0;
#X obj 37 217 s recording\$0;
#X obj 195 44 sel 1 0;
#X obj 37 120 t b b;
#X msg 37 150 start;
#X obj 218 71 t b b;
#X msg 122 150 stop;
#X obj 251 133 \$0;
#X obj 251 108 del 50;
#X msg 251 158 file /tmp/\$1_rec.wav;
#X obj 251 183 outlet;
#X obj 195 18 inlet;
#X connect 1 0 5 0;
#X connect 2 0 1 0;
#X connect 3 0 0 0;
#X connect 4 0 0 0;
#X connect 6 0 7 0;
#X connect 6 1 9 0;
#X connect 7 0 8 0;
#X connect 7 1 2 0;
#X connect 8 0 5 0;
#X connect 9 0 12 0;
#X connect 9 1 10 0;
#X connect 10 0 5 0;
#X connect 11 0 13 0;
#X connect 12 0 11 0;
#X connect 13 0 14 0;
#X connect 15 0 6 0;
