#N canvas 458 221 450 300 12;
#X obj 120 137 inlet~;
#X obj 120 182 *~;
#X obj 120 217 outlet~;
#X obj 191 48 inlet;
#X msg 300 100 1;
#X obj 218 163 EG~;
#X obj 191 74 route list float;
#X obj 236 218 outlet;
#X msg 290 175 5 2000 0.3 200;
#X obj 290 149 loadbang;
#X connect 0 0 1 0;
#X connect 1 0 2 0;
#X connect 3 0 6 0;
#X connect 4 0 5 0;
#X connect 5 0 1 1;
#X connect 5 1 7 0;
#X connect 6 0 5 1;
#X connect 6 1 5 0;
#X connect 6 2 4 0;
#X connect 8 0 5 1;
#X connect 9 0 8 0;
