#N canvas 737 471 450 436 12;
#X obj 55 286 inlet~;
#X obj 55 311 else/freeze~;
#X obj 55 336 atoms/envelope~;
#X obj 55 361 outlet~;
#X obj 136 100 sel 0;
#X msg 168 291 1, f 2;
#X obj 136 262 delay, f 7;
#X msg 136 287 0, f 2;
#X obj 334 189 inlet;
#X obj 131 69 route float rel;
#X text 41 10 ADSR Freeze - nonzero freezes \, zero releases \; accepts atk \, dec \, sus and rel parameters \; "rel" also delays unfreeze \;;
#X msg 136 133 stop \, bang;
#X msg 200 201 stop;
#X obj 168 167 t b b;
#X connect 0 0 1 0;
#X connect 1 0 2 0;
#X connect 2 0 3 0;
#X connect 4 0 11 0;
#X connect 4 1 13 0;
#X connect 5 0 1 1;
#X connect 6 0 7 0;
#X connect 7 0 1 1;
#X connect 8 0 2 1;
#X connect 8 0 9 0;
#X connect 9 0 4 0;
#X connect 9 1 6 1;
#X connect 11 0 6 0;
#X connect 12 0 6 0;
#X connect 13 0 5 0;
#X connect 13 1 7 0;
#X connect 13 1 12 0;
