#N canvas 584 481 450 509 12;
#X obj 69 52 inlet~;
#X obj 233 62 inlet;
#X obj 233 87 atoms/broadcast \$0;
#N canvas 738 507 450 300 drive 0;
#X obj 97 65 inlet~;
#X obj 97 224 outlet~;
#N canvas 776 456 450 300 fx 0;
#X obj 59 108 inlet~;
#X obj 59 133 atoms/overdrive~;
#X obj 59 158 outlet~;
#X obj 155 78 r \$0drive;
#X obj 261 80 inlet;
#X obj 261 105 switch~;
#X connect 0 0 1 0;
#X connect 1 0 2 0;
#X connect 3 0 1 1;
#X connect 4 0 5 0;
#X restore 122 147 pd fx;
#X obj 97 178 mux~;
#X obj 195 84 r \$0drive_sw;
#X text 70 19 TODO: fazer uma abstração com isso;
#X connect 0 0 3 0;
#X connect 0 0 2 0;
#X connect 2 0 3 1;
#X connect 3 0 1 0;
#X connect 4 0 3 0;
#X connect 4 0 2 1;
#X restore 69 120 pd drive;
#N canvas 736 435 450 300 delay 0;
#X obj 97 65 inlet~;
#X obj 97 224 outlet~;
#N canvas 776 456 450 300 fx 0;
#X obj 59 108 inlet~;
#X obj 59 158 outlet~;
#X obj 317 51 inlet;
#X obj 317 76 switch~;
#X obj 59 133 macros/delay~;
#X obj 197 101 r \$0delay;
#X connect 0 0 4 0;
#X connect 2 0 3 0;
#X connect 4 0 1 0;
#X connect 5 0 4 0;
#X restore 122 147 pd fx;
#X obj 97 178 mux~;
#X text 70 19 TODO: fazer uma abstração com isso;
#X obj 195 84 r \$0delay_sw;
#X connect 0 0 3 0;
#X connect 0 0 2 0;
#X connect 2 0 3 1;
#X connect 3 0 1 0;
#X connect 5 0 3 0;
#X connect 5 0 2 1;
#X restore 69 254 pd delay;
#N canvas 737 471 450 300 verb 0;
#X obj 97 65 inlet~;
#X obj 97 224 outlet~;
#N canvas 778 528 450 300 fx 0;
#X obj 59 68 inlet~;
#X obj 59 218 outlet~;
#X obj 329 79 inlet;
#X obj 329 104 switch~;
#X obj 76 123 else/plate.rev~;
#X obj 76 152 *~;
#X obj 222 164 lop~ 50;
#X obj 222 79 r \$0verb;
#X obj 58 179 +~;
#X obj 222 124 route level;
#X connect 0 0 4 0;
#X connect 0 0 8 0;
#X connect 2 0 3 0;
#X connect 4 0 5 0;
#X connect 5 0 8 1;
#X connect 6 0 5 1;
#X connect 7 0 9 0;
#X connect 8 0 1 0;
#X connect 9 0 6 0;
#X restore 122 147 pd fx;
#X obj 97 178 mux~;
#X text 70 19 TODO: fazer uma abstração com isso;
#X obj 195 84 r \$0verb_sw;
#X connect 0 0 3 0;
#X connect 0 0 2 0;
#X connect 2 0 3 1;
#X connect 3 0 1 0;
#X connect 5 0 3 0;
#X connect 5 0 2 1;
#X restore 69 281 pd verb;
#N canvas 737 471 450 300 chorus 0;
#X obj 97 65 inlet~;
#X obj 97 224 outlet~;
#N canvas 777 492 450 300 fx 0;
#X obj 59 108 inlet~;
#X obj 59 158 outlet~;
#X obj 261 80 inlet;
#X obj 261 105 switch~;
#X obj 59 133 macros/chorus~;
#X obj 155 78 r \$0chorus;
#X connect 0 0 4 0;
#X connect 2 0 3 0;
#X connect 4 0 1 0;
#X connect 5 0 4 0;
#X restore 122 147 pd fx;
#X obj 97 178 mux~;
#X text 70 19 TODO: fazer uma abstração com isso;
#X obj 195 84 r \$0chorus_sw;
#X connect 0 0 3 0;
#X connect 0 0 2 0;
#X connect 2 0 3 1;
#X connect 3 0 1 0;
#X connect 5 0 3 0;
#X connect 5 0 2 1;
#X restore 69 200 pd chorus;
#N canvas 737 471 450 300 flanger 0;
#X obj 97 65 inlet~;
#X obj 97 224 outlet~;
#N canvas 779 564 450 300 fx 0;
#X obj 59 108 inlet~;
#X obj 59 198 outlet~;
#X obj 326 191 inlet;
#X obj 326 216 switch~;
#X obj 59 173 else/flanger~;
#X obj 286 19 r \$0flanger;
#X obj 161 73 route rate depth coeff;
#X connect 0 0 4 0;
#X connect 2 0 3 0;
#X connect 4 0 1 0;
#X connect 5 0 6 0;
#X connect 6 0 4 1;
#X connect 6 1 4 2;
#X connect 6 2 4 3;
#X restore 122 147 pd fx;
#X obj 97 178 mux~;
#X text 70 19 TODO: fazer uma abstração com isso;
#X obj 195 84 r \$0flanger_sw;
#X connect 0 0 3 0;
#X connect 0 0 2 0;
#X connect 2 0 3 1;
#X connect 3 0 1 0;
#X connect 5 0 3 0;
#X connect 5 0 2 1;
#X restore 69 173 pd flanger;
#N canvas 737 471 450 300 tremolo 0;
#X obj 97 65 inlet~;
#X obj 97 224 outlet~;
#N canvas 777 492 450 300 fx 0;
#X obj 59 108 inlet~;
#X obj 59 188 outlet~;
#X obj 261 80 inlet;
#X obj 261 105 switch~;
#X obj 59 133 *~;
#X obj 155 78 r \$0tremolo;
#X obj 128 147 atoms/lfo~ tri 0 1 0.5;
#X connect 0 0 4 0;
#X connect 2 0 3 0;
#X connect 4 0 1 0;
#X connect 5 0 6 0;
#X connect 6 0 4 1;
#X restore 122 147 pd fx;
#X obj 97 178 mux~;
#X text 70 19 TODO: fazer uma abstração com isso;
#X obj 195 84 r \$0tremolo_sw;
#X connect 0 0 3 0;
#X connect 0 0 2 0;
#X connect 2 0 3 1;
#X connect 3 0 1 0;
#X connect 5 0 3 0;
#X connect 5 0 2 1;
#X restore 69 148 pd tremolo;
#N canvas 737 471 450 300 shifter 0;
#X obj 97 65 inlet~;
#X obj 97 224 outlet~;
#N canvas 777 492 450 300 fx 0;
#X obj 59 108 inlet~;
#X obj 59 158 outlet~;
#X obj 261 80 inlet;
#X obj 261 105 switch~;
#X obj 59 133 atoms/pitchshift~;
#X obj 155 78 r \$0shifter;
#X connect 0 0 4 0;
#X connect 2 0 3 0;
#X connect 4 0 1 0;
#X connect 5 0 4 0;
#X restore 122 147 pd fx;
#X obj 97 178 mux~;
#X text 70 19 TODO: fazer uma abstração com isso;
#X obj 195 84 r \$0shifter_sw;
#X connect 0 0 3 0;
#X connect 0 0 2 0;
#X connect 2 0 3 1;
#X connect 3 0 1 0;
#X connect 5 0 3 0;
#X connect 5 0 2 1;
#X restore 69 93 pd shifter;
#N canvas 738 507 450 300 pd 0;
#X obj 97 65 inlet~;
#X obj 97 224 outlet~;
#N canvas 778 528 450 300 fx 0;
#X obj 59 88 inlet~;
#X obj 59 188 outlet~;
#X obj 359 36 inlet;
#X obj 359 61 switch~;
#X obj 59 163 else/downsample~;
#X obj 59 134 else/quantizer~;
#X msg 199 216 interp \$1;
#X obj 148 92 route bitcrush downsamp interp;
#X obj 148 67 r \$0crusher_pre;
#X connect 0 0 5 0;
#X connect 2 0 3 0;
#X connect 4 0 1 0;
#X connect 5 0 4 0;
#X connect 6 0 4 0;
#X connect 7 0 5 1;
#X connect 7 1 4 1;
#X connect 7 2 6 0;
#X connect 8 0 7 0;
#X restore 122 147 pd fx;
#X obj 97 178 mux~;
#X text 70 19 TODO: fazer uma abstração com isso;
#X obj 195 84 r \$0crusher_pre_sw;
#X connect 0 0 3 0;
#X connect 0 0 2 0;
#X connect 2 0 3 1;
#X connect 3 0 1 0;
#X connect 5 0 3 0;
#X restore 69 227 pd pd crusher-pre-amb;
#N canvas 743 687 450 300 pd 1;
#X obj 97 65 inlet~;
#X obj 97 224 outlet~;
#N canvas 782 672 450 300 fx 1;
#X obj 59 88 inlet~;
#X obj 59 188 outlet~;
#X obj 359 36 inlet;
#X obj 359 61 switch~;
#X obj 59 163 else/downsample~;
#X obj 59 134 else/quantizer~;
#X msg 199 216 interp \$1;
#X obj 148 67 r \$0crusher_post;
#X obj 148 92 route bitcrush downsamp interp;
#X obj 212 152 *;
#X obj 298 145 loadbang;
#X obj 298 170 samplerate~;
#X connect 0 0 5 0;
#X connect 2 0 3 0;
#X connect 4 0 1 0;
#X connect 5 0 4 0;
#X connect 6 0 4 0;
#X connect 7 0 8 0;
#X connect 8 0 5 1;
#X connect 8 1 9 0;
#X connect 8 2 6 0;
#X connect 9 0 4 1;
#X connect 10 0 11 0;
#X connect 11 0 9 1;
#X restore 122 147 pd fx;
#X obj 97 178 mux~;
#X text 70 19 TODO: fazer uma abstração com isso;
#X obj 195 84 r \$0crusher_post_sw;
#X connect 0 0 3 0;
#X connect 0 0 2 0;
#X connect 2 0 3 1;
#X connect 3 0 1 0;
#X connect 5 0 3 0;
#X connect 5 0 2 1;
#X restore 69 311 pd pd crusher-post-amb;
#X obj 41 413 outlet~;
#X obj 225 414 outlet~;
#X obj 251 344 r \$0chan-vol;
#N canvas 737 471 450 300 channel-volume 0;
#X obj 51 43 inlet~;
#X obj 53 164 atoms/gain~ 100;
#X obj 53 189 outlet~;
#X obj 198 163 atoms/gain~ 0;
#X obj 198 188 outlet~;
#X obj 257 52 inlet;
#X obj 257 77 route 1 2;
#X connect 0 0 1 0;
#X connect 0 0 3 0;
#X connect 1 0 2 0;
#X connect 3 0 4 0;
#X connect 5 0 6 0;
#X connect 6 0 1 1;
#X connect 6 1 3 1;
#X restore 84 364 pd channel-volume;
#X connect 0 0 9 0;
#X connect 1 0 2 0;
#X connect 3 0 8 0;
#X connect 4 0 5 0;
#X connect 5 0 11 0;
#X connect 6 0 10 0;
#X connect 7 0 6 0;
#X connect 8 0 7 0;
#X connect 9 0 3 0;
#X connect 10 0 4 0;
#X connect 11 0 15 0;
#X connect 14 0 15 1;
#X connect 15 0 12 0;
#X connect 15 1 13 0;
