#N canvas 871 288 465 468 12;
#X obj 71 129 atoms/overdrive~;
#X obj 71 154 atoms/chorus~;
#N canvas 734 363 450 300 more 0;
#X obj 37 37 switch~;
#X obj 196 96 else/flanger~;
#X obj 204 153 else/freeze~;
#X restore 325 51 pd more;
#X obj 71 279 atoms/gain~;
#X obj 249 298 else/meter~;
#X obj 71 64 adc~ 1;
#X obj 70 352 outlet~;
#X floatatom 311 348 5 0 0 1 dB - - 16;
#X obj 311 196 vsl 20 80 0 112 0 0 empty empty empty 0 -9 0 12 #fcfcfc #000000 #000000 0 1;
#X obj 163 351 dac~ 1 2;
#X obj 311 284 - 100;
#X msg 311 316 set \$1;
#X obj 379 284 + 100;
#N canvas 740 579 450 300 cabinet-sim 0;
#X obj 59 108 else/lowpass~ 4249 1.1;
#X obj 59 187 hip~ 120;
#X obj 59 162 hip~ 120;
#X obj 59 251 outlet~;
#X obj 59 49 inlet~;
#X obj 59 83 else/lowpass~ 2800 1.2;
#X connect 0 0 2 0;
#X connect 1 0 3 0;
#X connect 2 0 1 0;
#X connect 4 0 5 0;
#X connect 5 0 0 0;
#X restore 71 183 pd cabinet-sim;
#X f 15;
#X obj 71 97 macros/tremolo2~;
#X obj 216 20 hsl 80 20 0 1 0 0 empty empty empty -2 -10 0 12 #fcfcfc #000000 #000000 0 1;
#X msg 213 45 depth \$1;
#X obj 213 77 hradio 20 1 0 8 empty empty empty 0 -10 0 12 #fcfcfc #000000 #000000 0;
#X obj 213 102 + 1;
#X msg 213 127 ratio \$1;
#X obj 24 392 atoms/vol~ gt.rev 0.4;
#X obj 24 421 reverbs/reverb282~ 2000;
#X obj 71 213 macros/delay~;
#X connect 0 0 1 0;
#X connect 1 0 13 0;
#X connect 3 0 4 0;
#X connect 3 0 6 0;
#X connect 3 0 9 0;
#X connect 3 0 9 1;
#X connect 3 0 20 0;
#X connect 5 0 14 0;
#X connect 7 0 12 0;
#X connect 8 0 3 1;
#X connect 8 0 10 0;
#X connect 10 0 11 0;
#X connect 11 0 7 0;
#X connect 12 0 8 0;
#X connect 13 0 22 0;
#X connect 14 0 0 0;
#X connect 15 0 16 0;
#X connect 16 0 14 1;
#X connect 17 0 18 0;
#X connect 18 0 19 0;
#X connect 19 0 14 1;
#X connect 20 0 21 0;
#X connect 21 0 9 0;
#X connect 21 1 9 1;
#X connect 22 0 3 0;
