#N canvas 144 63 488 608 12;
#X declare -path atoms;
#X obj 114 139 moses 0;
#X obj 126 497 fftease/pvharm~;
#X obj 247 496 sig~ 0.0001;
#X obj 160 220 % 12;
#X obj 160 463 expr pow(2 \, $f1/12);
#X obj 160 193 +;
#X obj 160 251 t f f;
#X obj 160 278 find-index 0 2 4 5 7 9 11;
#X obj 160 306 +;
#X obj 160 385 list-find 0 2 4 5 7 9 11;
#X obj 23 234 inlet~;
#X obj 126 522 outlet~;
#X obj 223 209 outlet;
#X obj 190 49 inlet;
#X obj 190 74 route offset interval scale;
#X obj 160 166 + 0.5;
#X obj 160 361 % 7;
#X obj 199 360 div 7;
#X obj 160 331 t f f, f 6;
#X obj 160 437 -, f 5;
#X obj 237 325 list length;
#X obj 160 411 +;
#X obj 216 418 * 12;
#X obj 114 114 sigmund~ -npts 4096;
#X floatatom 356 160 5 0 0 0 - - - 0;
#X obj 272 24 declare -path atoms;
#X connect 0 1 15 0;
#X connect 1 0 11 0;
#X connect 2 0 1 3;
#X connect 3 0 12 0;
#X connect 3 0 6 0;
#X connect 4 0 1 2;
#X connect 4 0 1 1;
#X connect 5 0 3 0;
#X connect 6 0 7 0;
#X connect 6 1 19 1;
#X connect 7 0 8 0;
#X connect 8 0 18 0;
#X connect 9 0 21 0;
#X connect 10 0 1 0;
#X connect 10 0 23 0;
#X connect 13 0 14 0;
#X connect 14 0 5 1;
#X connect 14 1 8 1;
#X connect 14 2 7 1;
#X connect 14 2 9 1;
#X connect 14 2 20 0;
#X connect 15 0 5 0;
#X connect 16 0 9 0;
#X connect 17 0 22 0;
#X connect 18 0 16 0;
#X connect 18 1 17 0;
#X connect 19 0 4 0;
#X connect 20 0 17 1;
#X connect 20 0 16 1;
#X connect 21 0 19 0;
#X connect 22 0 21 1;
#X connect 23 0 0 0;
#X connect 23 1 24 0;
