#N canvas 360 157 450 519 12;
#X obj 44 474 outlet~;
#X msg 45 333 next \$1;
#X obj 294 260 noise~;
#X obj 45 255 + 45;
#X obj 45 224 scripts/list_arp;
#X msg 129 161 stop;
#X msg 128 134 play;
#X msg 77 28 0 12 19 12 17 12 17 19;
#X msg 86 51 0 12 19 12 17 12 17 12;
#X msg 110 106 -2 12 19 12 17 12 17 12;
#X msg 100 78 -4 12 19 12 17 12 17 19;
#X obj 44 422 else/xfade~;
#X obj 155 420 hsl 100 20 -1 1 0 0 empty empty empty -2 -10 0 12 #fcfcfc #000000 #000000 0 1;
#X obj 152 445 sig~;
#X msg 132 188 rate 387;
#X obj 45 363 clone instruments/pluck~ 16 0.95 0.7;
#X obj 81 394 else/flanger~ 0.1 20 -0.4 -tri;
#X obj 179 277 atoms/keybed;
#X obj 179 332 stripnote;
#X obj 44 448 *~ 0.5;
#N canvas 733 327 450 300 2string 0;
#X obj 186 162 pipe 32;
#X obj 186 136 +;
#X obj 98 100 inlet;
#X obj 98 195 outlet;
#X obj 213 78 inlet;
#X obj 273 84 inlet;
#X connect 0 0 3 0;
#X connect 1 0 0 0;
#X connect 2 0 3 0;
#X connect 2 0 1 0;
#X connect 4 0 1 1;
#X connect 5 0 0 1;
#X restore 62 302 pd 2string;
#X floatatom 89 276 5 0 0 0 - - - 0;
#X floatatom 129 256 4 0 0 0 - - - 0;
#X obj 179 225 hradio 20 1 0 5 empty empty empty 0 -10 0 12 #fcfcfc #000000 #000000 0;
#X obj 179 252 + 1;
#X obj 294 286 sqrt~;
#X obj 179 305 spigot;
#X obj 235 303 tgl 20 0 empty empty empty 0 -10 0 12 #fcfcfc #000000 #000000 0 1;
#X connect 1 0 15 0;
#X connect 2 0 25 0;
#X connect 3 0 1 0;
#X connect 3 0 20 0;
#X connect 4 0 3 0;
#X connect 5 0 4 0;
#X connect 6 0 4 0;
#X connect 7 0 4 0;
#X connect 8 0 4 0;
#X connect 9 0 4 0;
#X connect 10 0 4 0;
#X connect 11 0 19 0;
#X connect 12 0 13 0;
#X connect 13 0 11 2;
#X connect 14 0 4 0;
#X connect 15 0 11 0;
#X connect 15 0 16 0;
#X connect 16 0 11 1;
#X connect 17 0 26 0;
#X connect 18 0 1 0;
#X connect 18 0 20 0;
#X connect 19 0 0 0;
#X connect 20 0 1 0;
#X connect 21 0 20 1;
#X connect 22 0 20 2;
#X connect 23 0 24 0;
#X connect 24 0 17 0;
#X connect 25 0 15 1;
#X connect 26 0 18 0;
#X connect 27 0 26 1;
