#N canvas 73 196 459 253 12;
#X declare -path atoms;
#X obj 28 19 inlet;
#X obj 28 44 broadcast \$0;
#X obj 203 90 vline~;
#X obj 203 146 tabread4~;
#X obj 203 171 *~;
#X obj 329 206 EG~;
#X obj 210 119 r setTable\$0;
#X obj 203 196 outlet~;
#N canvas 459 257 480 355 cook-msg 0;
#X obj 41 316 outlet;
#X obj 351 31 r totalLength\$0;
#X obj 180 31 r \$0start;
#X obj 261 31 r \$0end;
#X msg 41 292 \$1 \, \$2 \$3;
#X text 116 291 start \, end \, speed;
#X obj 345 227 r \$0speed;
#X obj 41 68 r \$0play;
#X obj 169 118 r \$0dec;
#X obj 369 57 r smprate\$0;
#X obj 351 84 /;
#X obj 351 113 * 1000;
#X text 362 134 length in ms;
#X obj 180 56 clip 0 1;
#X obj 180 195 *;
#X obj 288 136 ++;
#X obj 41 267 pack f f f;
#X obj 41 237 f;
#X obj 261 58 clip 0 1;
#X obj 226 196 *;
#X obj 225 233 --;
#X msg 288 161 1 \$1;
#X obj 288 186 -;
#X obj 288 247 mul 1;
#X obj 52 196 s env\$0;
#X msg 52 170 1, f 2;
#X obj 288 220 mul, f 5;
#X obj 89 143 delay;
#X msg 89 170 0, f 2;
#X obj 151 146 --;
#X msg 89 117 stop;
#X obj 41 93 t b b;
#X connect 1 0 10 0;
#X connect 1 0 14 1;
#X connect 1 0 19 1;
#X connect 1 0 20 0;
#X connect 2 0 13 0;
#X connect 3 0 18 0;
#X connect 4 0 0 0;
#X connect 6 0 23 1;
#X connect 7 0 31 0;
#X connect 8 0 29 1;
#X connect 9 0 10 1;
#X connect 10 0 11 0;
#X connect 11 0 26 1;
#X connect 13 0 14 0;
#X connect 13 0 15 0;
#X connect 14 0 17 1;
#X connect 15 0 21 0;
#X connect 16 0 4 0;
#X connect 17 0 16 0;
#X connect 18 0 19 0;
#X connect 18 0 15 1;
#X connect 19 0 20 1;
#X connect 20 0 16 1;
#X connect 21 0 22 0;
#X connect 22 0 26 0;
#X connect 23 0 16 2;
#X connect 23 0 29 0;
#X connect 25 0 24 0;
#X connect 26 0 23 0;
#X connect 27 0 28 0;
#X connect 28 0 24 0;
#X connect 29 0 27 1;
#X connect 30 0 27 0;
#X connect 31 0 17 0;
#X connect 31 0 25 0;
#X connect 31 0 27 0;
#X connect 31 1 30 0;
#X restore 203 51 pd cook-msg;
#X obj 347 101 r \$0atk;
#X obj 372 127 r \$0dec;
#X obj 372 153 t b f;
#X obj 28 81 r \$0table;
#X obj 28 106 unpack s f f;
#X obj 28 206 s setTable\$0;
#X msg 28 181 set \$1;
#X obj 68 156 s totalLength\$0;
#X obj 109 130 s smprate\$0;
#X obj 329 76 r env\$0;
#X obj 347 180 pack f 0 1 f;
#X obj 254 21 declare -path atoms;
#X connect 0 0 1 0;
#X connect 2 0 3 0;
#X connect 3 0 4 0;
#X connect 4 0 7 0;
#X connect 5 0 4 1;
#X connect 6 0 3 0;
#X connect 8 0 2 0;
#X connect 9 0 19 0;
#X connect 10 0 11 0;
#X connect 11 0 19 0;
#X connect 11 1 19 3;
#X connect 12 0 13 0;
#X connect 13 0 15 0;
#X connect 13 1 16 0;
#X connect 13 2 17 0;
#X connect 15 0 14 0;
#X connect 18 0 5 0;
#X connect 19 0 5 1;
