#N canvas 1133 415 450 460 12;
#X obj 192 151 else/click;
#X msg 192 176 symbol ~/samples;
#X obj 192 201 openpanel;
#X obj 192 276 soundfiler;
#X obj 192 226 list append \$1;
#X msg 192 251 read -resize \$1 \$2;
#X obj 143 325 f;
#X obj 234 325 symbol;
#X obj 85 193 inlet;
#X obj 85 218 b;
#X obj 234 350 outlet;
#X obj 85 350 outlet;
#X obj 143 350 outlet;
#X obj 38 106 inlet;
#X obj 85 325 f;
#X msg 94 296 \$1;
#X text 25 21 arg 1 is table \; inlet1 bang = openapanel \; inlet2 bang = output file info \; inlet3 symbol = direct load file \;;
#X obj 38 131 route bang symbol;
#X connect 0 0 1 0;
#X connect 1 0 2 0;
#X connect 2 0 4 0;
#X connect 2 0 7 0;
#X connect 3 0 15 0;
#X connect 3 1 6 0;
#X connect 4 0 5 0;
#X connect 5 0 3 0;
#X connect 6 0 12 0;
#X connect 7 0 10 0;
#X connect 8 0 9 0;
#X connect 9 0 7 0;
#X connect 9 0 6 0;
#X connect 9 0 14 0;
#X connect 13 0 17 0;
#X connect 14 0 11 0;
#X connect 15 0 14 0;
#X connect 17 0 1 0;
#X connect 17 1 4 0;
#X connect 17 1 7 0;
