#N canvas 464 69 356 541 12;
#X obj 43 53 inlet;
#X obj 43 131 b;
#X obj 61 225 openpanel 1;
#X obj 61 313 else/dir, f 14;
#X obj 79 131 else/click;
#X msg 61 284 open \$1 \, dump;
#X obj 61 254 t s s, f 8;
#X obj 61 342 pack s s;
#X msg 61 371 symbol \$2/\$1;
#X obj 61 424 f;
#X obj 132 425 + 1;
#X obj 61 396 t b s, f 8;
#X obj 61 454 pack f s;
#X obj 61 508 outlet;
#X obj 61 169 t b b;
#X msg 61 481 \$1 file \$2;
#X obj 197 371 0;
#X obj 61 197 symbol ~/samples;
#X obj 43 81 route bang offset symbol;
#X obj 216 169 t s b;
#X text 37 17 this is meant to be used with clone;
#X connect 0 0 18 0;
#X connect 1 0 14 0;
#X connect 2 0 6 0;
#X connect 3 0 7 0;
#X connect 4 0 14 0;
#X connect 5 0 3 0;
#X connect 6 0 5 0;
#X connect 6 1 7 1;
#X connect 7 0 8 0;
#X connect 8 0 11 0;
#X connect 9 0 10 0;
#X connect 9 0 12 0;
#X connect 10 0 9 1;
#X connect 11 0 9 0;
#X connect 11 1 12 1;
#X connect 12 0 15 0;
#X connect 14 0 17 0;
#X connect 14 1 16 0;
#X connect 15 0 13 0;
#X connect 16 0 9 1;
#X connect 17 0 2 0;
#X connect 18 0 1 0;
#X connect 18 1 16 1;
#X connect 18 2 19 0;
#X connect 19 0 6 0;
#X connect 19 1 16 0;
