#N canvas 458 221 425 311 12;
#X obj 29 271 outlet~;
#X obj 29 66 inlet~ fwd;
#X obj 249 99 inlet~;
#X obj 189 125 modulate~;
#X obj 96 93 broadcast \$0;
#X obj 171 32 r \$0cutoff;
#X obj 189 70 pack f 20;
#X obj 189 95 line~;
#X obj 312 141 clip 0.75 4;
#X obj 312 166 pack f 20;
#X obj 312 191 line~;
#X obj 185 222 r \$0poles;
#X obj 185 247 clip 0 1;
#X obj 29 181 else/lowpass~;
#X obj 69 210 else/lowpass~;
#X obj 312 28 loadbang;
#X msg 268 58 21000;
#X msg 312 87 0.75;
#X obj 322 111 r \$0q;
#X msg 46 144 clear;
#X obj 189 151 max~ 20;
#X obj 29 237 xfader~ flat;
#X obj 46 119 r \$0clear;
#X connect 1 0 13 0;
#X connect 1 1 4 0;
#X connect 2 0 3 1;
#X connect 3 0 20 0;
#X connect 5 0 6 0;
#X connect 6 0 7 0;
#X connect 7 0 3 0;
#X connect 8 0 9 0;
#X connect 9 0 10 0;
#X connect 10 0 13 2;
#X connect 10 0 14 2;
#X connect 11 0 12 0;
#X connect 12 0 21 2;
#X connect 13 0 14 0;
#X connect 13 0 21 0;
#X connect 14 0 21 1;
#X connect 15 0 16 0;
#X connect 15 0 17 0;
#X connect 16 0 6 0;
#X connect 17 0 8 0;
#X connect 18 0 8 0;
#X connect 19 0 13 0;
#X connect 19 0 14 0;
#X connect 20 0 14 1;
#X connect 20 0 13 1;
#X connect 21 0 0 0;
#X connect 21 1 0 0;
#X connect 22 0 19 0;
