#N canvas 480 44 790 841 12;
#X obj 18 105 inlet~;
#X obj 129 105 inlet~;
#X obj 189 105 inlet~;
#X obj 249 105 inlet~;
#X obj 309 105 inlet~;
#X obj 369 105 inlet~;
#X obj 13 786 outlet~;
#X obj 83 786 outlet~;
#X obj 153 786 outlet~;
#X obj 223 786 outlet~;
#X obj 293 786 outlet~;
#X obj 363 786 outlet~;
#X obj 77 199 *~;
#X msg 444 114 \$1 10;
#X obj 444 139 line~;
#X obj 128 199 *~;
#X msg 495 114 \$1 10;
#X obj 495 139 line~;
#X obj 187 199 *~;
#X msg 554 114 \$1 10;
#X obj 554 139 line~;
#X obj 238 199 *~;
#X msg 605 114 \$1 10;
#X obj 605 139 line~;
#X obj 297 199 *~;
#X msg 664 114 \$1 10;
#X obj 664 139 line~;
#X obj 348 199 *~;
#X msg 715 114 \$1 10;
#X obj 715 139 line~;
#X obj 77 279 *~;
#X msg 443 206 \$1 10;
#X obj 443 231 line~;
#X obj 128 279 *~;
#X msg 494 206 \$1 10;
#X obj 494 231 line~;
#X obj 187 279 *~;
#X msg 553 206 \$1 10;
#X obj 553 231 line~;
#X obj 238 279 *~;
#X msg 604 206 \$1 10;
#X obj 604 231 line~;
#X obj 297 279 *~;
#X msg 663 206 \$1 10;
#X obj 663 231 line~;
#X obj 348 279 *~;
#X msg 714 206 \$1 10;
#X obj 714 231 line~;
#X obj 77 389 *~;
#X msg 443 306 \$1 10;
#X obj 443 331 line~;
#X obj 128 389 *~;
#X msg 494 306 \$1 10;
#X obj 494 331 line~;
#X obj 187 389 *~;
#X msg 553 306 \$1 10;
#X obj 553 331 line~;
#X obj 238 389 *~;
#X msg 604 306 \$1 10;
#X obj 604 331 line~;
#X obj 297 389 *~;
#X msg 663 306 \$1 10;
#X obj 663 331 line~;
#X obj 348 389 *~;
#X msg 714 306 \$1 10;
#X obj 714 331 line~;
#X obj 77 489 *~;
#X msg 443 406 \$1 10;
#X obj 443 431 line~;
#X obj 128 489 *~;
#X msg 494 406 \$1 10;
#X obj 494 431 line~;
#X obj 187 489 *~;
#X msg 553 406 \$1 10;
#X obj 553 431 line~;
#X obj 238 489 *~;
#X msg 604 406 \$1 10;
#X obj 604 431 line~;
#X obj 297 489 *~;
#X msg 663 406 \$1 10;
#X obj 663 431 line~;
#X obj 348 489 *~;
#X msg 714 406 \$1 10;
#X obj 714 431 line~;
#X obj 77 589 *~;
#X msg 443 506 \$1 10;
#X obj 443 531 line~;
#X obj 128 589 *~;
#X msg 494 506 \$1 10;
#X obj 494 531 line~;
#X obj 187 589 *~;
#X msg 553 506 \$1 10;
#X obj 553 531 line~;
#X obj 238 589 *~;
#X msg 604 506 \$1 10;
#X obj 604 531 line~;
#X obj 297 589 *~;
#X msg 663 506 \$1 10;
#X obj 663 531 line~;
#X obj 348 589 *~;
#X msg 714 506 \$1 10;
#X obj 714 531 line~;
#X obj 77 689 *~;
#X msg 443 606 \$1 10;
#X obj 443 631 line~;
#X obj 128 689 *~;
#X msg 494 606 \$1 10;
#X obj 494 631 line~;
#X obj 187 689 *~;
#X msg 553 606 \$1 10;
#X obj 553 631 line~;
#X obj 238 689 *~;
#X msg 604 606 \$1 10;
#X obj 604 631 line~;
#X obj 297 689 *~;
#X msg 663 606 \$1 10;
#X obj 663 631 line~;
#X obj 348 689 *~;
#X msg 714 606 \$1 10;
#X obj 714 631 line~;
#X obj 456 19 route list;
#X obj 456 44 route 0 1 2 3 4 5;
#X obj 444 76 route 0 1 2 3 4 5;
#X obj 444 176 route 0 1 2 3 4 5;
#X obj 444 266 route 0 1 2 3 4 5;
#X obj 444 366 route 0 1 2 3 4 5;
#X obj 444 466 route 0 1 2 3 4 5;
#X obj 444 570 route 0 1 2 3 4 5;
#X connect 0 0 12 0;
#X connect 0 0 27 0;
#X connect 0 0 24 0;
#X connect 0 0 21 0;
#X connect 0 0 18 0;
#X connect 0 0 15 0;
#X connect 0 1 120 0;
#X connect 1 0 30 0;
#X connect 1 0 45 0;
#X connect 1 0 42 0;
#X connect 1 0 39 0;
#X connect 1 0 36 0;
#X connect 1 0 33 0;
#X connect 2 0 63 0;
#X connect 2 0 60 0;
#X connect 2 0 57 0;
#X connect 2 0 54 0;
#X connect 2 0 51 0;
#X connect 2 0 48 0;
#X connect 3 0 81 0;
#X connect 3 0 78 0;
#X connect 3 0 75 0;
#X connect 3 0 72 0;
#X connect 3 0 69 0;
#X connect 3 0 66 0;
#X connect 4 0 99 0;
#X connect 4 0 96 0;
#X connect 4 0 93 0;
#X connect 4 0 90 0;
#X connect 4 0 87 0;
#X connect 4 0 84 0;
#X connect 5 0 117 0;
#X connect 5 0 114 0;
#X connect 5 0 111 0;
#X connect 5 0 108 0;
#X connect 5 0 105 0;
#X connect 5 0 102 0;
#X connect 12 0 6 0;
#X connect 13 0 14 0;
#X connect 14 0 12 1;
#X connect 15 0 7 0;
#X connect 16 0 17 0;
#X connect 17 0 15 1;
#X connect 18 0 8 0;
#X connect 19 0 20 0;
#X connect 20 0 18 1;
#X connect 21 0 9 0;
#X connect 22 0 23 0;
#X connect 23 0 21 1;
#X connect 24 0 10 0;
#X connect 25 0 26 0;
#X connect 26 0 24 1;
#X connect 27 0 11 0;
#X connect 28 0 29 0;
#X connect 29 0 27 1;
#X connect 30 0 6 0;
#X connect 31 0 32 0;
#X connect 32 0 30 1;
#X connect 33 0 7 0;
#X connect 34 0 35 0;
#X connect 35 0 33 1;
#X connect 36 0 8 0;
#X connect 37 0 38 0;
#X connect 38 0 36 1;
#X connect 39 0 9 0;
#X connect 40 0 41 0;
#X connect 41 0 39 1;
#X connect 42 0 10 0;
#X connect 43 0 44 0;
#X connect 44 0 42 1;
#X connect 45 0 11 0;
#X connect 46 0 47 0;
#X connect 47 0 45 1;
#X connect 48 0 6 0;
#X connect 49 0 50 0;
#X connect 50 0 48 1;
#X connect 51 0 7 0;
#X connect 52 0 53 0;
#X connect 53 0 51 1;
#X connect 54 0 8 0;
#X connect 55 0 56 0;
#X connect 56 0 54 1;
#X connect 57 0 9 0;
#X connect 58 0 59 0;
#X connect 59 0 57 1;
#X connect 60 0 10 0;
#X connect 61 0 62 0;
#X connect 62 0 60 1;
#X connect 63 0 11 0;
#X connect 64 0 65 0;
#X connect 65 0 63 1;
#X connect 66 0 6 0;
#X connect 67 0 68 0;
#X connect 68 0 66 1;
#X connect 69 0 7 0;
#X connect 70 0 71 0;
#X connect 71 0 69 1;
#X connect 72 0 8 0;
#X connect 73 0 74 0;
#X connect 74 0 72 1;
#X connect 75 0 9 0;
#X connect 76 0 77 0;
#X connect 77 0 75 1;
#X connect 78 0 10 0;
#X connect 79 0 80 0;
#X connect 80 0 78 1;
#X connect 81 0 11 0;
#X connect 82 0 83 0;
#X connect 83 0 81 1;
#X connect 84 0 6 0;
#X connect 85 0 86 0;
#X connect 86 0 84 1;
#X connect 87 0 7 0;
#X connect 88 0 89 0;
#X connect 89 0 87 1;
#X connect 90 0 8 0;
#X connect 91 0 92 0;
#X connect 92 0 90 1;
#X connect 93 0 9 0;
#X connect 94 0 95 0;
#X connect 95 0 93 1;
#X connect 96 0 10 0;
#X connect 97 0 98 0;
#X connect 98 0 96 1;
#X connect 99 0 11 0;
#X connect 100 0 101 0;
#X connect 101 0 99 1;
#X connect 102 0 6 0;
#X connect 103 0 104 0;
#X connect 104 0 102 1;
#X connect 105 0 7 0;
#X connect 106 0 107 0;
#X connect 107 0 105 1;
#X connect 108 0 8 0;
#X connect 109 0 110 0;
#X connect 110 0 108 1;
#X connect 111 0 9 0;
#X connect 112 0 113 0;
#X connect 113 0 111 1;
#X connect 114 0 10 0;
#X connect 115 0 116 0;
#X connect 116 0 114 1;
#X connect 117 0 11 0;
#X connect 118 0 119 0;
#X connect 119 0 117 1;
#X connect 120 0 121 0;
#X connect 121 0 122 0;
#X connect 121 1 123 0;
#X connect 121 2 124 0;
#X connect 121 3 125 0;
#X connect 121 4 126 0;
#X connect 121 5 127 0;
#X connect 122 0 13 0;
#X connect 122 1 16 0;
#X connect 122 2 19 0;
#X connect 122 3 22 0;
#X connect 122 4 25 0;
#X connect 122 5 28 0;
#X connect 123 0 31 0;
#X connect 123 1 34 0;
#X connect 123 2 37 0;
#X connect 123 3 40 0;
#X connect 123 4 43 0;
#X connect 123 5 46 0;
#X connect 124 0 49 0;
#X connect 124 1 52 0;
#X connect 124 2 55 0;
#X connect 124 3 58 0;
#X connect 124 4 61 0;
#X connect 124 5 64 0;
#X connect 125 0 67 0;
#X connect 125 1 70 0;
#X connect 125 2 73 0;
#X connect 125 3 76 0;
#X connect 125 4 79 0;
#X connect 125 5 82 0;
#X connect 126 0 85 0;
#X connect 126 1 88 0;
#X connect 126 2 91 0;
#X connect 126 3 94 0;
#X connect 126 4 97 0;
#X connect 126 5 100 0;
#X connect 127 0 103 0;
#X connect 127 1 106 0;
#X connect 127 2 109 0;
#X connect 127 3 112 0;
#X connect 127 4 115 0;
#X connect 127 5 118 0;
