#N canvas 173 72 835 586 12;
#X obj 301 156 timer;
#X obj 301 131 t b b;
#N canvas 205 156 451 349 minimum-taps 0;
#X obj 226 57 t b f, f 6;
#X msg 87 143 0;
#X obj 264 202 f, f 6;
#X obj 196 118 f;
#X obj 251 119 + 1;
#X obj 87 94 b;
#X obj 264 227 outlet;
#X obj 226 27 inlet;
#X obj 87 118 delay 1000;
#X obj 196 172 sel 1;
#X obj 196 147 % 2;
#X connect 0 0 3 0;
#X connect 0 1 2 1;
#X connect 1 0 3 1;
#X connect 2 0 6 0;
#X connect 3 0 4 0;
#X connect 3 0 5 0;
#X connect 3 0 10 0;
#X connect 4 0 3 1;
#X connect 5 0 8 0;
#X connect 7 0 0 0;
#X connect 8 0 1 0;
#X connect 9 0 2 0;
#X connect 10 0 9 0;
#X restore 301 235 pd minimum-taps;
#X obj 301 105 inlet;
#X obj 135 63 bng 14 250 50 0 empty empty tap -1 20 0 10 #202020 #ffe3c6 #000000;
#X obj 154 359 s tempo;
#X obj 43 77 nbx 3 20 -1e+37 1e+37 0 0 empty empty Bpm 58 11 0 16 #202020 #feffc6 #000000 0 256;
#X msg 175 305 set \$1;
#X msg 175 255 60000 \$1;
#X obj 175 280 /;
#X msg 154 198 60000 \$1;
#X obj 154 223 /;
#X obj 421 21 loadbang;
#X obj 421 134 metro;
#X obj 430 77 / 8;
#X obj 421 414 s tick;
#X obj 433 303 sel 0;
#X obj 433 389 s beat;
#X obj 430 51 r tempo;
#X obj 486 389 s bar;
#X obj 486 363 sel 0;
#X msg 260 71 120;
#X obj 433 329 else/count 3;
#X obj 43 101 nbx 3 15 1 1e+09 0 0 empty empty beats 54 8 0 14 #202020 #ff8300 #000000 0 256;
#X msg 260 97 4;
#X obj 421 231 else/count 7;
#X obj 534 84 * 2;
#X obj 534 109 - 1;
#X msg 458 180 max \$1;
#X obj 617 146 - 1;
#X msg 541 228 max \$1;
#X obj 516 155 f;
#X msg 516 180 set \$1;
#X obj 599 203 f;
#X msg 599 228 set \$1;
#X obj 430 105 t b f b;
#X obj 463 77 t b f;
#X obj 160 63 bng 14 250 50 0 empty empty rst -1 20 0 10 #feffc6 #202020 #000000;
#X msg 375 158 set 0;
#X obj 370 66 t b b;
#X obj 43 120 hradio 12 1 0 4 empty empty empty 0 -8 0 10 #606060 #ffe3c6 #000000 0;
#X msg 6 187 number \$1;
#X obj 135 6 r taptempo;
#X obj 160 31 r resetmetro;
#X obj 109 120 tgl 14 0 clk-out\$0 empty empty 0 21 0 12 #606060 #ff8300 #000000 0 1;
#X text 124 116 midi clk out, f 7;
#X obj 653 494 metro;
#X obj 653 549 midiout;
#X obj 719 524 loadbang;
#X msg 719 549 2;
#X obj 685 466 / 24;
#X obj 736 303 r tempo;
#X obj 607 261 r clk-out\$0;
#X obj 542 422 spigot;
#X obj 607 288 t f f;
#X obj 607 314 route 1;
#X obj 182 67 vsl 12 60 0 0.6 0 0 click click-vis\$0 empty 0 -9 0 12 #dfdfdf #000000 #000000 0 1;
#X obj 712 26 ctlin, f 10;
#X obj 712 51 pack f f f;
#X msg 712 76 \$3 \$2 \$1;
#X obj 712 101 route 1;
#X obj 712 126 route 56;
#X obj 712 151 / 127;
#X obj 712 176 * 0.6;
#X obj 712 201 s click-vis\$0;
#X obj 43 218 s n-beats;
#X obj 617 121 r n-beats;
#X msg 653 522 248;
#X msg 604 420 0, f 2;
#X obj 663 365 spigot;
#X obj 75 411 keyname, f 8;
#X obj 75 436 pack f s;
#X obj 75 461 route 1;
#X obj 75 486 route t;
#X obj 75 511 s taptempo;
#X obj 282 325 r set-tempo;
#X obj 282 350 s tempo;
#X connect 0 0 2 0;
#X connect 1 0 0 0;
#X connect 1 1 0 1;
#X connect 2 0 5 0;
#X connect 2 0 8 0;
#X connect 3 0 1 0;
#X connect 4 0 1 0;
#X connect 6 0 10 0;
#X connect 7 0 6 0;
#X connect 8 0 9 0;
#X connect 9 0 7 0;
#X connect 10 0 11 0;
#X connect 11 0 5 0;
#X connect 12 0 13 0;
#X connect 12 0 21 0;
#X connect 12 0 24 0;
#X connect 13 0 25 0;
#X connect 14 0 35 0;
#X connect 16 0 22 0;
#X connect 18 0 14 0;
#X connect 20 0 19 0;
#X connect 20 0 53 0;
#X connect 21 0 6 0;
#X connect 22 0 17 0;
#X connect 22 0 20 0;
#X connect 22 0 40 0;
#X connect 23 0 41 0;
#X connect 23 0 65 0;
#X connect 24 0 23 0;
#X connect 25 0 16 0;
#X connect 25 0 15 0;
#X connect 26 0 27 0;
#X connect 26 0 36 0;
#X connect 27 0 28 0;
#X connect 27 0 31 1;
#X connect 28 0 25 0;
#X connect 29 0 30 0;
#X connect 29 0 33 1;
#X connect 30 0 22 0;
#X connect 31 0 32 0;
#X connect 32 0 25 0;
#X connect 33 0 34 0;
#X connect 34 0 22 0;
#X connect 35 0 13 0;
#X connect 35 1 13 1;
#X connect 35 2 31 0;
#X connect 35 2 33 0;
#X connect 36 0 14 0;
#X connect 36 1 14 1;
#X connect 37 0 39 0;
#X connect 38 0 25 0;
#X connect 38 0 22 0;
#X connect 39 0 13 0;
#X connect 39 1 38 0;
#X connect 41 0 40 0;
#X connect 42 0 4 0;
#X connect 43 0 37 0;
#X connect 46 0 67 0;
#X connect 48 0 49 0;
#X connect 49 0 47 1;
#X connect 50 0 46 1;
#X connect 51 0 50 0;
#X connect 51 0 69 0;
#X connect 52 0 54 0;
#X connect 53 0 46 0;
#X connect 53 0 68 0;
#X connect 54 0 55 0;
#X connect 54 1 53 1;
#X connect 54 1 69 1;
#X connect 55 1 46 0;
#X connect 57 0 58 0;
#X connect 57 1 58 1;
#X connect 57 2 58 2;
#X connect 58 0 59 0;
#X connect 59 0 60 0;
#X connect 60 0 61 0;
#X connect 61 0 62 0;
#X connect 62 0 63 0;
#X connect 63 0 64 0;
#X connect 66 0 26 0;
#X connect 66 0 29 0;
#X connect 67 0 47 0;
#X connect 68 0 53 1;
#X connect 69 0 53 1;
#X connect 70 0 71 0;
#X connect 70 1 71 1;
#X connect 71 0 72 0;
#X connect 72 0 73 0;
#X connect 73 0 74 0;
#X connect 75 0 76 0;
#X connect 75 0 8 0;
#X coords 0 -1 1 1 160 90 1 40 60;
