#N canvas 738 507 398 426 12;
#X obj 69 35 inlet~;
#X obj 267 243 table \$0buf;
#X obj 175 30 inlet;
#X obj 69 359 outlet~;
#X obj 69 332 mux~;
#X obj 175 81 > 0;
#X obj 134 196 macros/audio-rec~ \$0buf;
#X obj 134 313 tabread4~ \$0buf;
#X obj 134 281 atoms/tapehead~ \$0buf;
#X obj 190 120 sel 1;
#X obj 175 56 route float size;
#X obj 134 221 b;
#X obj 190 155 del 100 1 msec;
#X obj 134 246 del 100 1 msec;
#X connect 0 0 4 0;
#X connect 0 0 6 0;
#X connect 2 0 10 0;
#X connect 4 0 3 0;
#X connect 5 0 4 0;
#X connect 5 0 9 0;
#X connect 6 0 11 0;
#X connect 7 0 4 1;
#X connect 8 0 7 0;
#X connect 9 0 6 0;
#X connect 9 0 12 0;
#X connect 10 0 5 0;
#X connect 10 1 12 1;
#X connect 10 1 13 1;
#X connect 11 0 13 0;
#X connect 12 0 6 0;
#X connect 13 0 8 0;
