#N canvas 406 135 623 737 12;
#X obj 408 292 env~ 2048;
#X obj 390 555 del 800;
#X msg 390 580 stop;
#X msg 58 102 1000 \$1;
#X obj 58 215 *~;
#X obj 58 240 +~ 1;
#X obj 147 195 - 2;
#X obj 390 482 t b b;
#X msg 422 510 stop;
#X obj 408 268 *~;
#X msg 442 61 const 0;
#X obj 172 21 loadbang;
#X obj 172 46 samplerate~;
#X obj 172 71 / 1000;
#X msg 273 36 resize \$1;
#X obj 269 249 tabwrite~ \$0t;
#X obj 353 35 table \$0t;
#X obj 442 86 s \$0t;
#X obj 58 381 outlet~;
#X obj 273 61 s \$0t;
#X obj 58 266 tabread4~ \$0t;
#X obj 442 35 r \$0clear;
#X obj 426 243 r \$0capture;
#X obj 484 295 r \$0sens;
#X obj 270 195 inlet~ fwd;
#X obj 337 222 broadcast \$0;
#X obj 453 535 r \$0-length;
#X obj 58 44 r \$0-length;
#X obj 58 522 s \$0-length;
#X obj 58 446 r tempo;
#X obj 165 440 r \$0tempo-ratio;
#X msg 165 465 1 \$1;
#X obj 165 490 /;
#X obj 224 105 r \$0pitch;
#X obj 224 132 cents2ratio;
#X obj 408 317 > 70;
#X obj 29 614 tgl 20 0 empty empty empty 0 -10 0 12 #fcfcfc #000000 #000000 0 1;
#X obj 29 639 s \$0capture;
#X floatatom 115 615 5 0 0 0 - - - 0;
#X obj 115 639 s \$0tempo-ratio;
#X floatatom 228 615 5 0 0 1 dB - - 0;
#X obj 228 639 s \$0sens;
#X obj 293 614 bng 20 250 50 0 empty empty empty 0 -10 0 12 #fcfcfc #000000 #000000;
#X obj 293 639 s \$0clear;
#X floatatom 365 615 6 0 0 1 c - - 0;
#X obj 365 639 s \$0pitch;
#X obj 58 472 500;
#X obj 58 497 * 1;
#X obj 165 515 t b f;
#X obj 147 142 * 48;
#X obj 58 127 /;
#X obj 58 152 mul 1;
#X obj 464 460 r \$0attack;
#X floatatom 437 615 5 0 0 0 - - - 0;
#X obj 437 639 s \$0attack;
#X obj 390 455 delay;
#X obj 390 343 f;
#X obj 390 368 sel 1;
#N canvas 735 327 450 300 hann 1;
#X obj 245 94 inlet~;
#X obj 190 234 outlet~;
#X obj 245 119 -~ 0.5;
#X obj 245 144 *~ 0.5;
#X obj 245 169 cos~;
#X obj 154 45 r \$0use-hanning;
#X obj 81 141 sig~ 1;
#X obj 245 194 *~;
#X obj 88 80 == 0;
#X obj 323 90 lop~ 50;
#X connect 0 0 2 0;
#X connect 2 0 3 0;
#X connect 3 0 4 0;
#X connect 4 0 7 0;
#X connect 5 0 8 0;
#X connect 5 0 9 0;
#X connect 6 0 1 0;
#X connect 7 0 1 0;
#X connect 8 0 6 0;
#X connect 9 0 7 1;
#X restore 89 297 pd hann;
#X obj 58 69 mul 1;
#X obj 147 170 i;
#X obj 152 575 s smp-spd\$0;
#X obj 58 180 else/pimp~;
#X obj 180 293 else/trig2bang~;
#X obj 390 404 spigot 1;
#X msg 501 357 0;
#X obj 501 382 b;
#X obj 501 407 delay;
#X msg 501 432 1;
#X obj 534 383 r smp-spd\$0;
#X obj 195 169 r \$0direct-out;
#X obj 196 253 *~;
#X obj 195 194 lop~ 50;
#X obj 29 664 tgl 20 0 empty empty empty 0 -10 0 12 #fcfcfc #000000 #000000 0 1;
#X obj 29 689 s \$0direct-out;
#X obj 59 341 *~;
#X obj 139 664 tgl 20 0 empty empty empty 0 -10 0 12 #fcfcfc #000000 #000000 0 1;
#X obj 139 689 s \$0direct-out;
#X connect 0 0 35 0;
#X connect 1 0 2 0;
#X connect 2 0 15 0;
#X connect 3 0 50 0;
#X connect 4 0 5 0;
#X connect 5 0 20 0;
#X connect 6 0 4 1;
#X connect 7 0 1 0;
#X connect 7 1 8 0;
#X connect 7 1 15 0;
#X connect 8 0 1 0;
#X connect 9 0 0 0;
#X connect 10 0 17 0;
#X connect 11 0 12 0;
#X connect 12 0 13 0;
#X connect 12 0 14 0;
#X connect 13 0 49 1;
#X connect 14 0 19 0;
#X connect 20 0 75 0;
#X connect 21 0 10 0;
#X connect 22 0 9 1;
#X connect 23 0 35 1;
#X connect 24 0 9 0;
#X connect 24 0 15 0;
#X connect 24 0 71 0;
#X connect 24 1 25 0;
#X connect 26 0 1 1;
#X connect 27 0 59 0;
#X connect 29 0 46 0;
#X connect 30 0 31 0;
#X connect 31 0 32 0;
#X connect 32 0 48 0;
#X connect 33 0 34 0;
#X connect 34 0 51 1;
#X connect 34 0 59 1;
#X connect 35 0 56 1;
#X connect 36 0 37 0;
#X connect 38 0 39 0;
#X connect 40 0 41 0;
#X connect 42 0 43 0;
#X connect 44 0 45 0;
#X connect 46 0 47 0;
#X connect 47 0 28 0;
#X connect 47 0 61 0;
#X connect 48 0 46 0;
#X connect 48 1 47 1;
#X connect 49 0 60 0;
#X connect 50 0 51 0;
#X connect 51 0 62 0;
#X connect 52 0 55 1;
#X connect 53 0 54 0;
#X connect 55 0 7 0;
#X connect 56 0 57 0;
#X connect 57 0 64 0;
#X connect 58 0 75 1;
#X connect 59 0 49 0;
#X connect 59 0 3 0;
#X connect 60 0 6 0;
#X connect 62 0 4 0;
#X connect 62 0 58 0;
#X connect 62 1 63 0;
#X connect 63 0 56 0;
#X connect 64 0 55 0;
#X connect 64 0 65 0;
#X connect 65 0 66 0;
#X connect 65 0 64 1;
#X connect 66 0 67 0;
#X connect 67 0 68 0;
#X connect 68 0 64 1;
#X connect 69 0 67 1;
#X connect 70 0 72 0;
#X connect 71 0 18 0;
#X connect 72 0 71 1;
#X connect 73 0 74 0;
#X connect 75 0 18 0;
#X connect 76 0 77 0;
