#N canvas 324 54 620 511 12;
#X obj 23 49 notein, f 10;
#X obj 23 74 pack f f f;
#X obj 157 49 ctlin, f 10;
#X obj 157 74 pack f f f;
#X obj 157 123 route 17;
#X obj 256 198 vsl 15 70 0 127 0 0 empty empty 5 0 80 0 12 #fcfcfc #000000 #000000 0 1;
#X obj 274 198 vsl 15 70 0 127 0 0 empty empty 7 0 80 0 12 #fcfcfc #000000 #000000 0 1;
#X obj 292 198 vsl 15 70 0 127 0 0 empty empty 10 0 80 0 12 #fcfcfc #000000 #000000 0 1;
#X obj 310 198 vsl 15 70 0 127 0 0 empty empty 12 0 80 0 12 #fcfcfc #000000 #000000 0 1;
#X obj 328 198 vsl 15 70 0 127 0 0 empty empty 13 0 80 0 12 #fcfcfc #000000 #000000 0 1;
#X obj 144 194 bng 20 250 50 0 empty empty empty 0 -10 0 12 #fcfcfc #000000 #000000;
#X obj 180 194 bng 20 250 50 0 empty empty empty 0 -10 0 12 #fcfcfc #000000 #000000;
#X msg 157 99 \$3 \$2 \$1;
#X obj 214 253 - 64;
#X msg 23 99 \$3 \$1 \$2;
#X obj 23 124 route 17 26;
#X obj 23 263 s keys;
#X obj 60 235 s pads;
#X obj 124 243 s click1;
#X obj 141 271 s click2;
#X obj 279 439 s sliders;
#X msg 223 384 5 \$1;
#X msg 177 384 1 \$1;
#X msg 264 384 7 \$1;
#X msg 304 384 10 \$1;
#X msg 354 384 12 \$1;
#X msg 401 383 13 \$1;
#X obj 347 198 vsl 15 70 0 127 0 0 empty empty mod 0 80 0 12 #fcfcfc #000000 #000000 0 1;
#X msg 449 383 mod \$1;
#X obj 350 42 bendin;
#X obj 350 67 - 8192;
#X obj 350 92 / 8191;
#X obj 350 117 s bend;
#X obj 423 17 polytouchin;
#X obj 423 42 pack f f f, f 11;
#X msg 423 67 \$3 \$2 \$1;
#X obj 423 92 route 26;
#X obj 423 117 s aftertouch;
#X obj 223 318 / 127;
#X obj 264 347 / 127;
#X obj 449 338 / 127;
#X obj 401 353 / 127;
#X obj 354 330 / 127;
#X obj 310 358 / 127;
#X obj 157 148 route 113 115 112 77 73 18 16 17 1 22 23 24 25 26 27 28 29;
#X msg 388 191 1 \$1;
#X msg 402 219 2 \$1;
#X msg 438 191 3 \$1;
#X msg 452 219 4 \$1;
#X msg 488 191 5 \$1;
#X msg 502 219 6 \$1;
#X msg 538 192 7 \$1;
#X msg 552 219 8 \$1;
#X obj 463 265 s switches;
#X obj 60 155 unpack;
#X obj 60 180 - 36;
#X obj 60 205 pack, f 6;
#X connect 0 0 1 0;
#X connect 0 1 1 1;
#X connect 0 2 1 2;
#X connect 1 0 14 0;
#X connect 2 0 3 0;
#X connect 2 1 3 1;
#X connect 2 2 3 2;
#X connect 3 0 12 0;
#X connect 4 0 44 0;
#X connect 5 0 38 0;
#X connect 6 0 39 0;
#X connect 7 0 43 0;
#X connect 8 0 42 0;
#X connect 9 0 41 0;
#X connect 10 0 18 0;
#X connect 11 0 19 0;
#X connect 12 0 4 0;
#X connect 13 0 22 0;
#X connect 14 0 15 0;
#X connect 15 0 16 0;
#X connect 15 1 54 0;
#X connect 21 0 20 0;
#X connect 22 0 20 0;
#X connect 23 0 20 0;
#X connect 24 0 20 0;
#X connect 25 0 20 0;
#X connect 26 0 20 0;
#X connect 27 0 40 0;
#X connect 28 0 20 0;
#X connect 29 0 30 0;
#X connect 30 0 31 0;
#X connect 31 0 32 0;
#X connect 33 0 34 0;
#X connect 33 1 34 1;
#X connect 33 2 34 2;
#X connect 34 0 35 0;
#X connect 35 0 36 0;
#X connect 36 0 37 0;
#X connect 38 0 21 0;
#X connect 39 0 23 0;
#X connect 40 0 28 0;
#X connect 41 0 26 0;
#X connect 42 0 25 0;
#X connect 43 0 24 0;
#X connect 44 0 10 0;
#X connect 44 1 11 0;
#X connect 44 2 13 0;
#X connect 44 3 5 0;
#X connect 44 4 6 0;
#X connect 44 5 7 0;
#X connect 44 6 8 0;
#X connect 44 7 9 0;
#X connect 44 8 27 0;
#X connect 44 9 45 0;
#X connect 44 10 46 0;
#X connect 44 11 47 0;
#X connect 44 12 48 0;
#X connect 44 13 49 0;
#X connect 44 14 50 0;
#X connect 44 15 51 0;
#X connect 44 16 52 0;
#X connect 45 0 53 0;
#X connect 46 0 53 0;
#X connect 47 0 53 0;
#X connect 48 0 53 0;
#X connect 49 0 53 0;
#X connect 50 0 53 0;
#X connect 51 0 53 0;
#X connect 52 0 53 0;
#X connect 54 0 55 0;
#X connect 54 1 56 1;
#X connect 55 0 56 0;
#X connect 56 0 17 0;
