#N canvas 479 117 450 301 12;
#X obj 50 79 inlet~;
#X obj 50 142 +~;
#X obj 50 167 outlet~;
#N canvas 458 221 553 351 allpasses 0;
#X obj 32 73 rzero_rev~;
#X obj 32 98 rpole~;
#X obj 32 133 rzero_rev~;
#X obj 32 158 rpole~;
#X obj 32 193 rzero_rev~;
#X obj 32 218 rpole~;
#X obj 32 253 rzero_rev~;
#X obj 32 278 rpole~;
#X obj 32 47 inlet~;
#X obj 438 73 rzero_rev~;
#X obj 438 98 rpole~;
#X obj 438 133 rzero_rev~;
#X obj 438 158 rpole~;
#X obj 438 193 rzero_rev~;
#X obj 438 218 rpole~;
#X obj 438 253 rzero_rev~;
#X obj 438 278 rpole~;
#X obj 438 303 outlet~;
#X obj 266 16 inlet~;
#X connect 0 0 1 0;
#X connect 1 0 2 0;
#X connect 2 0 3 0;
#X connect 3 0 4 0;
#X connect 4 0 5 0;
#X connect 5 0 6 0;
#X connect 6 0 7 0;
#X connect 7 0 9 0;
#X connect 8 0 0 0;
#X connect 9 0 10 0;
#X connect 10 0 11 0;
#X connect 11 0 12 0;
#X connect 12 0 13 0;
#X connect 13 0 14 0;
#X connect 14 0 15 0;
#X connect 15 0 16 0;
#X connect 16 0 17 0;
#X connect 18 0 16 1;
#X connect 18 0 15 1;
#X connect 18 0 14 1;
#X connect 18 0 13 1;
#X connect 18 0 12 1;
#X connect 18 0 11 1;
#X connect 18 0 10 1;
#X connect 18 0 9 1;
#X connect 18 0 7 1;
#X connect 18 0 6 1;
#X connect 18 0 5 1;
#X connect 18 0 4 1;
#X connect 18 0 3 1;
#X connect 18 0 2 1;
#X connect 18 0 1 1;
#X connect 18 0 0 1;
#X restore 68 117 pd allpasses;
#X obj 215 64 inlet;
#X obj 215 89 osc~ 0.8;
#X obj 215 114 +~ 1;
#X obj 215 139 *~ 0.5;
#X obj 215 214 clip~ 0 1;
#X obj 215 164 *~ 0.3;
#X obj 215 189 +~ 0.6;
#X obj 295 59 loadbang;
#X msg 295 84 args;
#X obj 295 109 pdcontrol;
#X obj 295 134 route float;
#X connect 0 0 1 0;
#X connect 0 0 3 0;
#X connect 1 0 2 0;
#X connect 3 0 1 1;
#X connect 4 0 5 0;
#X connect 5 0 6 0;
#X connect 6 0 7 0;
#X connect 7 0 9 0;
#X connect 8 0 3 1;
#X connect 9 0 10 0;
#X connect 10 0 8 0;
#X connect 11 0 12 0;
#X connect 12 0 13 0;
#X connect 13 0 14 0;
#X connect 14 0 5 0;
