#N canvas 903 201 634 399 12;
#X obj 44 64 inlet~;
#X obj 44 129 tabwrite~ \$1;
#X obj 231 41 inlet;
#N canvas 431 151 450 436 rec/dub 0;
#X obj 124 199 tgl 20 0 empty empty empty 0 -10 0 12 #fcfcfc #000000 #000000 0 1;
#X obj 124 226 sel 1;
#X obj 156 251 b;
#X msg 156 276 stop;
#X obj 156 376 outlet;
#X obj 124 251 b;
#X obj 249 238 timer;
#X obj 249 294 spigot;
#X obj 154 73 t a b;
#X obj 298 235 atoms/tap;
#X obj 91 306 v dub-start\$0;
#X msg 91 337 start \$1;
#X msg 32 133 0;
#X obj 236 71 t b b;
#X obj 236 46 r \$0dub;
#X obj 154 45 r \$0rec;
#X obj 268 111 s dub_\$0;
#X obj 32 158 v dub-start_\$0;
#X obj 301 376 s \$0size;
#X obj 249 376 outlet;
#X obj 313 271 loadbang;
#X obj 313 296 samplerate~;
#X obj 249 323 expr $f1 * ($f2/1000);
#X connect 0 0 1 0;
#X connect 1 0 5 0;
#X connect 1 1 2 0;
#X connect 2 0 3 0;
#X connect 2 0 6 1;
#X connect 3 0 4 0;
#X connect 5 0 6 0;
#X connect 5 0 10 0;
#X connect 6 0 7 0;
#X connect 7 0 22 0;
#X connect 8 0 0 0;
#X connect 8 1 9 0;
#X connect 8 1 12 0;
#X connect 9 0 7 1;
#X connect 10 0 11 0;
#X connect 11 0 4 0;
#X connect 12 0 17 0;
#X connect 13 0 5 0;
#X connect 13 1 9 1;
#X connect 13 1 16 0;
#X connect 14 0 13 0;
#X connect 15 0 8 0;
#X connect 20 0 21 0;
#X connect 21 0 22 1;
#X connect 22 0 18 0;
#X connect 22 0 19 0;
#X restore 60 95 pd rec/dub;
#X obj 181 194 *~;
#X obj 181 219 +~;
#X obj 181 310 outlet~;
#X obj 181 255 tabread4~ \$1;
#X obj 319 284 else/s2f~;
#X obj 319 309 outlet;
#X obj 88 236 *~;
#X msg 89 182 \$1 10;
#X obj 89 207 line~;
#X obj 89 157 r \$0dub-lvl;
#X obj 56 309 snapshot~;
#X obj 56 335 v dub-start\$0;
#X obj 56 281 r dub_\$0;
#X obj 434 239 r \$0size;
#X obj 434 310 outlet;
#X obj 434 273 list trim;
#X obj 182 144 vline~;
#X text 405 33 --params-- \; rec <1/0/bang> \; dub <bang> \; length <float> \; start <float> \; size <float>(when loading from disk) \; reverse <1/0> \; loop <1/0> \; speed <float> \;, f 28;
#X obj 321 163 snapshot~;
#X msg 168 74 size \$1;
#X obj 247 70 atoms/broadcast \$0;
#X obj 231 106 scripts/playhead2_ctl;
#X connect 0 0 1 0;
#X connect 2 0 24 0;
#X connect 2 0 25 0;
#X connect 3 0 1 0;
#X connect 3 1 23 0;
#X connect 4 0 5 0;
#X connect 5 0 7 0;
#X connect 5 0 14 0;
#X connect 7 0 10 1;
#X connect 7 0 6 0;
#X connect 8 0 9 0;
#X connect 10 0 1 0;
#X connect 11 0 12 0;
#X connect 12 0 10 0;
#X connect 13 0 11 0;
#X connect 14 0 15 0;
#X connect 16 0 14 0;
#X connect 17 0 19 0;
#X connect 19 0 18 0;
#X connect 20 0 4 0;
#X connect 20 0 8 0;
#X connect 20 0 22 0;
#X connect 22 0 25 1;
#X connect 23 0 25 0;
#X connect 25 0 20 0;
#X connect 25 1 4 1;
#X connect 25 2 5 1;
#X connect 25 3 22 0;
