#N canvas 27 32 620 791 12;
#X obj 49 293 *~;
#X obj 49 363 else/pimp~;
#X obj 48 494 *~;
#X obj 48 519 +~;
#X obj 48 544 tabread4~ \$1;
#X obj 48 679 *~;
#X obj 48 710 *~;
#X obj 48 735 outlet~;
#X obj 137 733 vline~;
#X obj 146 645 else/envelope~ trap 0.001 0.995, f 16;
#X obj 394 332 scripts/sample_trimmer;
#X obj 531 425 *;
#X obj 531 450 + 1;
#X obj 531 475 pack f 0;
#X obj 531 500 line~;
#X obj 462 400 *;
#X obj 462 450 pack f 0;
#X obj 462 475 line~;
#X msg 388 384 1 \$1;
#X obj 388 409 /;
#X obj 388 434 pack f 0;
#X obj 388 459 line~;
#X obj 169 79 inlet;
#X msg 82 313 0, f 2;
#X obj 82 337 pipe 3;
#X obj 462 425 - 2;
#X obj 49 231 atoms/smp-size2hz;
#X obj 49 266 sig~;
#X obj 116 398 else/trig2bang~;
#X obj 137 171 unpack f f;
#X msg 137 694 0 3 \, \$1 3 3;
#X msg 137 141 \$1 0;
#X obj 221 584 spigot;
#X obj 260 559 == 0;
#X obj 305 195 + 1;
#X obj 305 167 * -2;
#X obj 305 220 pack f 0;
#X obj 305 245 line~;
#X obj 287 274 *~;
#X obj 239 52 loadbang;
#X msg 239 77 reverse 0;
#X obj 394 191 t f b;
#X msg 221 609 0;
#X obj 116 425 atoms/duck 20;
#X obj 410 602 *~;
#X obj 410 628 else/s2f~;
#X obj 410 723 outlet;
#X obj 410 664 *;
#X obj 410 689 +;
#X obj 394 303 wrap;
#X obj 513 236 sel 0;
#X text 29 17 igual [playhead~] no funcionamento \, mas é melhor se quiser um efeito de jump/seek, f 81;
#X obj 328 51 array size \$1;
#X obj 480 211 f;
#X msg 328 76 size \$1;
#X obj 394 247 atoms/AB;
#X obj 169 104 route float list loop reverse size length jump;
#X obj 437 148 v len\$0;
#X obj 248 427 expr 0 \; len\$0;
#X obj 248 467 pack;
#X msg 513 261 1, f 2;
#X obj 394 273 t f b;
#X obj 441 303 v len\$0;
#X obj 441 274 v len\$0;
#X obj 513 291 t b f;
#X connect 0 0 1 0;
#X connect 1 0 2 0;
#X connect 1 0 9 0;
#X connect 1 0 44 0;
#X connect 1 1 28 0;
#X connect 2 0 3 0;
#X connect 3 0 4 0;
#X connect 4 0 5 0;
#X connect 5 0 6 0;
#X connect 6 0 7 0;
#X connect 8 0 6 1;
#X connect 8 0 44 1;
#X connect 9 0 5 1;
#X connect 10 0 11 0;
#X connect 10 0 48 1;
#X connect 10 1 15 0;
#X connect 10 1 18 0;
#X connect 10 1 47 1;
#X connect 11 0 12 0;
#X connect 12 0 13 0;
#X connect 13 0 14 0;
#X connect 14 0 3 1;
#X connect 15 0 25 0;
#X connect 16 0 17 0;
#X connect 17 0 2 1;
#X connect 18 0 19 0;
#X connect 19 0 20 0;
#X connect 20 0 21 0;
#X connect 21 0 38 0;
#X connect 22 0 56 0;
#X connect 23 0 24 0;
#X connect 24 0 1 1;
#X connect 25 0 16 0;
#X connect 26 0 27 0;
#X connect 27 0 0 0;
#X connect 28 0 43 0;
#X connect 29 0 30 0;
#X connect 29 0 23 0;
#X connect 29 1 41 0;
#X connect 29 1 43 1;
#X connect 30 0 8 0;
#X connect 31 0 29 0;
#X connect 32 0 42 0;
#X connect 33 0 32 1;
#X connect 34 0 36 0;
#X connect 35 0 34 0;
#X connect 36 0 37 0;
#X connect 37 0 38 1;
#X connect 38 0 0 1;
#X connect 39 0 40 0;
#X connect 39 0 52 0;
#X connect 40 0 56 0;
#X connect 41 0 55 0;
#X connect 41 1 53 0;
#X connect 42 0 8 0;
#X connect 43 0 32 0;
#X connect 43 0 58 0;
#X connect 44 0 45 0;
#X connect 45 0 47 0;
#X connect 47 0 48 0;
#X connect 48 0 46 0;
#X connect 49 0 10 0;
#X connect 50 0 60 0;
#X connect 50 1 64 0;
#X connect 52 0 54 0;
#X connect 53 0 15 1;
#X connect 53 0 11 1;
#X connect 53 0 26 0;
#X connect 54 0 56 0;
#X connect 55 0 61 0;
#X connect 55 1 50 0;
#X connect 56 0 31 0;
#X connect 56 1 29 0;
#X connect 56 2 33 0;
#X connect 56 3 35 0;
#X connect 56 3 55 1;
#X connect 56 4 53 0;
#X connect 56 5 57 0;
#X connect 58 0 59 0;
#X connect 58 1 59 1;
#X connect 59 0 10 0;
#X connect 60 0 64 0;
#X connect 61 0 49 0;
#X connect 61 1 62 0;
#X connect 62 0 10 1;
#X connect 63 0 49 0;
#X connect 64 0 63 0;
#X connect 64 1 10 1;
