#N canvas 431 41 710 791 12;
#X obj 35 322 *~;
#X obj 35 363 else/pimp~;
#X obj 34 494 *~;
#X obj 34 544 tabread4~ \$1;
#X obj 34 679 *~;
#X obj 34 710 *~;
#X obj 34 735 outlet~;
#X obj 123 733 vline~;
#X obj 132 645 else/envelope~ trap 0.001 0.995, f 16;
#X obj 155 67 inlet;
#X obj 68 337 pipe 3;
#X obj 35 269 atoms/smp-size2hz;
#X obj 35 295 sig~;
#X obj 102 449 else/trig2bang~;
#X obj 123 175 unpack f f;
#X msg 123 145 \$1 0;
#X obj 219 584 spigot;
#X obj 258 559 == 0;
#X obj 309 221 + 1;
#X obj 309 196 * -2;
#X obj 309 246 pack f 0;
#X obj 309 271 line~;
#X obj 212 25 loadbang;
#X obj 102 478 atoms/duck 20;
#X obj 396 602 *~;
#X obj 396 628 else/s2f~;
#X obj 396 723 outlet;
#X obj 158 213 t f b;
#X obj 212 50 array size \$1;
#X msg 219 609 stop \, 0;
#X obj 392 135 v len\$0;
#N canvas 733 327 450 300 envelope 0;
#X obj 162 29 inlet;
#X obj 162 146 atoms/AB;
#X msg 143 195 0 3 \, \$1 3 3;
#X msg 234 195 0 3 \, \$1 3 3 \, 0 3 \$2;
#X obj 186 238 outlet;
#X obj 162 54 t f b;
#X obj 215 74 v len\$0;
#X obj 234 166 pack f f;
#X obj 215 120 > 0;
#X connect 0 0 5 0;
#X connect 1 0 2 0;
#X connect 1 1 7 0;
#X connect 2 0 4 0;
#X connect 3 0 4 0;
#X connect 5 0 1 0;
#X connect 5 1 6 0;
#X connect 6 0 7 1;
#X connect 6 0 8 0;
#X connect 7 0 3 0;
#X connect 8 0 1 1;
#X restore 123 575 pd envelope;
#X obj 155 104 route float list loop reverse size length trim-start trim-end attack decay, f 74;
#X obj 535 137 v atk\$0;
#X obj 599 135 v dec\$0;
#X obj 413 577 >~ 0;
#X obj 420 375 scripts/sample_trimmer, f 14;
#X obj 224 285 v size\$0;
#X obj 279 464 expr $f1 * size\$0 + 1;
#X obj 279 500 samphold~;
#X obj 34 519 +~;
#X obj 309 303 *~;
#X msg 212 75 size \$1 \, reverse 0 \, trim-start 0;
#X obj 146 378 -~ 2;
#X msg 383 314 1 \$1;
#X obj 383 339 /;
#X obj 146 350 *~;
#X obj 203 352 samphold~;
#X connect 0 0 1 0;
#X connect 1 0 2 0;
#X connect 1 0 8 0;
#X connect 1 0 24 0;
#X connect 1 0 39 1;
#X connect 1 0 47 1;
#X connect 1 1 13 0;
#X connect 2 0 40 0;
#X connect 3 0 4 0;
#X connect 4 0 5 0;
#X connect 5 0 6 0;
#X connect 7 0 5 1;
#X connect 7 0 35 0;
#X connect 8 0 4 1;
#X connect 9 0 32 0;
#X connect 10 0 1 1;
#X connect 11 0 12 0;
#X connect 12 0 0 0;
#X connect 13 0 23 0;
#X connect 14 0 31 0;
#X connect 14 1 27 0;
#X connect 15 0 14 0;
#X connect 16 0 29 0;
#X connect 17 0 16 1;
#X connect 18 0 20 0;
#X connect 19 0 18 0;
#X connect 20 0 21 0;
#X connect 21 0 41 0;
#X connect 22 0 28 0;
#X connect 23 0 16 0;
#X connect 24 0 25 0;
#X connect 25 0 26 0;
#X connect 27 0 10 0;
#X connect 27 1 23 1;
#X connect 27 1 37 0;
#X connect 28 0 42 0;
#X connect 29 0 7 0;
#X connect 31 0 7 0;
#X connect 32 0 15 0;
#X connect 32 1 14 0;
#X connect 32 2 17 0;
#X connect 32 3 19 0;
#X connect 32 4 37 0;
#X connect 32 5 30 0;
#X connect 32 6 36 0;
#X connect 32 7 36 1;
#X connect 32 8 33 0;
#X connect 32 9 34 0;
#X connect 35 0 24 1;
#X connect 36 0 38 0;
#X connect 36 1 44 0;
#X connect 36 1 47 0;
#X connect 37 0 11 0;
#X connect 37 0 46 0;
#X connect 38 0 39 0;
#X connect 39 0 40 1;
#X connect 40 0 3 0;
#X connect 41 0 0 1;
#X connect 42 0 32 0;
#X connect 43 0 2 1;
#X connect 44 0 45 0;
#X connect 45 0 41 1;
#X connect 46 0 43 0;
#X connect 47 0 46 1;
