#N canvas 688 86 778 606 12;
#X obj 44 64 inlet~;
#X obj 44 129 tabwrite~ \$1;
#X obj 479 64 inlet;
#X obj 536 22 loadbang;
#X obj 536 47 array size \$1;
#X obj 609 140 atoms/broadcast \$0;
#X obj 479 141 route float list;
#N canvas 733 327 450 436 rec/dub 0;
#X obj 124 199 tgl 20 0 empty empty empty 0 -10 0 12 #fcfcfc #000000 #000000 0 1;
#X obj 124 226 sel 1;
#X obj 156 251 b;
#X msg 156 276 stop;
#X obj 156 376 outlet;
#X obj 124 251 b;
#X obj 249 238 timer;
#X obj 249 323 expr $f1 * (sr/1000);
#X obj 249 294 spigot;
#X obj 154 73 t a b;
#X obj 298 235 atoms/tap;
#X obj 91 306 v dub-start\$0;
#X msg 91 337 start \$1;
#X msg 32 133 0;
#X obj 236 71 t b b;
#X obj 236 46 r \$0dub;
#X obj 154 45 r \$0rec;
#X obj 268 111 s dub_\$0;
#X obj 32 158 v dub-start_\$0;
#X obj 249 369 s \$0size;
#X connect 0 0 1 0;
#X connect 1 0 5 0;
#X connect 1 1 2 0;
#X connect 2 0 3 0;
#X connect 2 0 6 1;
#X connect 3 0 4 0;
#X connect 5 0 6 0;
#X connect 5 0 11 0;
#X connect 6 0 8 0;
#X connect 7 0 19 0;
#X connect 8 0 7 0;
#X connect 9 0 0 0;
#X connect 9 1 10 0;
#X connect 9 1 13 0;
#X connect 10 0 8 1;
#X connect 11 0 12 0;
#X connect 12 0 4 0;
#X connect 13 0 18 0;
#X connect 14 0 5 0;
#X connect 14 1 10 1;
#X connect 14 1 17 0;
#X connect 15 0 14 0;
#X connect 16 0 9 0;
#X restore 95 63 pd rec/dub;
#X obj 181 151 atoms/smp-size2hz;
#X obj 181 176 *~;
#X obj 181 324 *~;
#X obj 181 349 +~;
#X obj 181 470 *~;
#X obj 181 501 *~;
#X obj 181 536 outlet~;
#X obj 181 405 tabread4~ \$1;
#X obj 181 85 r \$0size;
#X obj 181 120 v size\$0;
#X obj 327 114 r phase_\$0;
#X obj 327 139 t f b;
#N canvas 773 348 536 307 trim 0;
#X obj 162 63 scripts/sample_trimmer, f 16;
#X obj 162 37 r \$0trim-start;
#X obj 271 37 r \$0trim-end;
#X obj 38 203 expr $f1 * size\$0 + 1;
#X obj 367 230 s adjust_speed_\$0;
#X msg 367 180 1 \$1;
#X obj 367 205 /;
#X obj 38 228 s trim_start_\$0;
#X obj 202 230 s trim_end_\$0;
#X obj 202 204 expr $f1 * size\$0 - 2;
#X obj 38 41 inlet;
#X obj 38 66 b;
#X connect 0 0 3 0;
#X connect 0 1 5 0;
#X connect 0 1 9 0;
#X connect 1 0 0 0;
#X connect 2 0 0 1;
#X connect 3 0 7 0;
#X connect 5 0 6 0;
#X connect 6 0 4 0;
#X connect 9 0 8 0;
#X connect 10 0 11 0;
#X connect 11 0 3 0;
#X connect 11 0 9 0;
#X restore 359 175 pd trim;
#X obj 242 291 samphold~;
#X obj 242 350 samphold~;
#X obj 242 322 r trim_start_\$0;
#X obj 242 262 r trim_end_\$0;
#X obj 607 224 s phase_\$0;
#X obj 533 196 unpack f f, f 11;
#X msg 479 166 \$1 0;
#N canvas 733 327 450 300 envelope 0;
#X obj 142 146 atoms/AB;
#X msg 123 195 0 3 \, \$1 3 3;
#X msg 214 195 0 3 \, \$1 3 3 \, 0 3 \$2;
#X obj 123 265 outlet;
#X obj 142 54 t f b;
#X obj 214 166 pack f f;
#X obj 195 120 > 0;
#X obj 213 40 r \$0length;
#X obj 195 74 f;
#X obj 142 29 r play_\$0;
#X connect 0 0 1 0;
#X connect 0 1 5 0;
#X connect 1 0 3 0;
#X connect 2 0 3 0;
#X connect 4 0 0 0;
#X connect 4 1 8 0;
#X connect 5 0 2 0;
#X connect 6 0 0 1;
#X connect 7 0 8 1;
#X connect 8 0 5 1;
#X connect 8 0 6 0;
#X connect 9 0 4 0;
#X restore 381 386 pd envelope;
#X obj 371 416 vline~;
#X obj 533 224 s play_\$0;
#X obj 236 436 else/envelope~ trap 0.001 0.995, f 16;
#X obj 353 488 *~;
#X obj 353 513 else/s2f~;
#X obj 353 538 outlet;
#X obj 371 460 expr~ if($v1>0 \, 1 \, 0);
#X obj 371 228 else/trig2bang~;
#X obj 371 331 spigot;
#X obj 410 306 == 0;
#X obj 371 254 atoms/duck 20;
#X msg 371 356 stop \, 0;
#X obj 410 280 r \$0loop;
#X obj 76 249 *~;
#X msg 77 195 \$1 10;
#X obj 77 220 line~;
#X obj 77 170 r \$0dub-lvl;
#X obj 42 368 snapshot~;
#X obj 42 394 v dub-start\$0;
#X obj 42 340 r dub_\$0;
#X obj 534 466 r \$0size;
#X obj 534 537 outlet;
#X obj 534 500 list trim;
#X text 517 263 --params-- \; rec <1/0/bang> \; dub <bang> \; length <float> \; trim-start <float> \; trim-end <float> \; size <float>(when loading from disk) \; reverse <1/0> \; loop <1/0> \; speed <float> \;, f 28;
#N canvas 733 327 450 300 reverse_speed 0;
#X obj 69 82 + 1;
#X obj 69 57 * -2;
#X obj 69 107 pack f 0;
#X obj 69 132 line~;
#X obj 69 158 *~;
#X obj 69 31 r \$0reverse;
#X obj 69 183 outlet~;
#X obj 255 119 r adjust_speed_\$0;
#X obj 177 64 r \$0speed;
#X msg 177 89 \$1 10;
#X obj 177 114 line~;
#X obj 177 139 *~ 1;
#X connect 0 0 2 0;
#X connect 1 0 0 0;
#X connect 2 0 3 0;
#X connect 3 0 4 0;
#X connect 4 0 6 0;
#X connect 5 0 1 0;
#X connect 7 0 11 1;
#X connect 8 0 9 0;
#X connect 9 0 10 0;
#X connect 10 0 11 0;
#X connect 11 0 4 1;
#X restore 220 177 pd reverse_speed;
#X msg 536 72 size \$1 \, reverse 0 \, trim-start 0 \, speed 1, f 21;
#N canvas 733 327 527 420 seek-or-ramp 0;
#X obj 245 48 r \$0seek;
#X obj 55 213 else/pimp~;
#X obj 55 111 inlet~;
#X obj 117 111 inlet;
#X obj 117 136 pipe 3;
#X obj 307 295 vline~;
#X obj 56 314 mux~ . .;
#X obj 56 339 outlet~;
#X obj 245 73 unpack f f;
#X text 251 29 phase \, time;
#X obj 122 339 outlet~;
#X obj 307 244 pack f f f;
#X msg 307 269 stop \, \$2 \, \$1 \$3;
#X obj 175 274 snapshot~;
#X obj 173 240 atoms/tap;
#X obj 307 188 expr $f1 * size\$0;
#X obj 340 217 expr $f1 * size\$0;
#X obj 204 102 t f b;
#X obj 163 163 pipe;
#X connect 0 0 8 0;
#X connect 1 0 6 0;
#X connect 1 0 13 0;
#X connect 1 1 10 0;
#X connect 2 0 1 0;
#X connect 3 0 4 0;
#X connect 4 0 1 1;
#X connect 5 0 6 1;
#X connect 6 0 7 0;
#X connect 8 0 17 0;
#X connect 8 1 11 2;
#X connect 8 1 18 1;
#X connect 11 0 12 0;
#X connect 12 0 5 0;
#X connect 13 0 16 0;
#X connect 14 0 6 0;
#X connect 15 0 11 0;
#X connect 16 0 11 1;
#X connect 17 0 15 0;
#X connect 17 0 18 0;
#X connect 17 1 14 0;
#X connect 17 1 13 0;
#X connect 18 0 1 1;
#X connect 18 0 14 1;
#X restore 283 49 pd seek-or-ramp;
#N canvas 162 262 498 414 phase 0;
#X obj 227 92 r \$0seek;
#X obj 55 213 else/pimp~;
#X obj 55 111 inlet~;
#X obj 118 63 inlet;
#X obj 118 88 pipe 3;
#X obj 56 339 outlet~;
#X text 233 73 phase \, time;
#X obj 122 339 outlet~;
#X obj 178 156 line~;
#X msg 178 131 \$1 \$2;
#X obj 172 291 else/numbox~ 6 12 100 #C0C0C4 #440008 10 0 0 0;
#X obj 178 181 else/numbox~ 6 12 100 #C0C0C4 #440008 10 0 0 0;
#X connect 0 0 9 0;
#X connect 1 0 5 0;
#X connect 1 0 10 0;
#X connect 1 1 7 0;
#X connect 2 0 1 0;
#X connect 3 0 4 0;
#X connect 4 0 1 1;
#X connect 8 0 11 0;
#X connect 8 0 1 1;
#X connect 9 0 8 0;
#X restore 181 209 pd phase;
#X connect 0 0 1 0;
#X connect 2 0 6 0;
#X connect 3 0 4 0;
#X connect 4 0 54 0;
#X connect 6 0 27 0;
#X connect 6 1 26 0;
#X connect 6 2 5 0;
#X connect 7 0 1 0;
#X connect 8 0 9 0;
#X connect 9 0 56 0;
#X connect 10 0 11 0;
#X connect 11 0 15 0;
#X connect 11 0 46 0;
#X connect 12 0 13 0;
#X connect 13 0 14 0;
#X connect 13 0 42 1;
#X connect 15 0 12 0;
#X connect 16 0 17 0;
#X connect 17 0 8 0;
#X connect 18 0 19 0;
#X connect 19 0 56 1;
#X connect 19 1 17 0;
#X connect 19 1 20 0;
#X connect 19 1 39 1;
#X connect 21 0 10 1;
#X connect 22 0 11 1;
#X connect 23 0 22 0;
#X connect 24 0 21 0;
#X connect 26 0 30 0;
#X connect 26 1 25 0;
#X connect 27 0 26 0;
#X connect 28 0 29 0;
#X connect 29 0 13 1;
#X connect 29 0 35 0;
#X connect 31 0 12 1;
#X connect 32 0 33 0;
#X connect 33 0 34 0;
#X connect 35 0 32 1;
#X connect 36 0 39 0;
#X connect 37 0 40 0;
#X connect 38 0 37 1;
#X connect 39 0 37 0;
#X connect 40 0 29 0;
#X connect 41 0 38 0;
#X connect 42 0 1 0;
#X connect 43 0 44 0;
#X connect 44 0 42 0;
#X connect 45 0 43 0;
#X connect 46 0 47 0;
#X connect 48 0 46 0;
#X connect 49 0 51 0;
#X connect 51 0 50 0;
#X connect 53 0 9 1;
#X connect 54 0 6 0;
#X connect 56 0 10 0;
#X connect 56 0 31 0;
#X connect 56 0 21 1;
#X connect 56 0 22 1;
#X connect 56 0 32 0;
#X connect 56 1 36 0;
