#N canvas 981 276 601 502 12;
#X obj 140 62 inlet~;
#X obj 31 191 tabwrite~ \$1;
#X obj 90 62 inlet;
#N canvas 270 497 670 435 rec/dub 0;
#X obj 153 99 tgl 20 0 empty empty empty 0 -10 0 12 #fcfcfc #000000 #000000 0 1;
#X obj 153 142 sel 1;
#X obj 218 162 b;
#X msg 218 232 stop;
#X obj 218 332 outlet;
#X obj 153 196 b;
#X obj 305 216 timer;
#X obj 305 245 spigot;
#X obj 224 79 t a b;
#X obj 344 187 atoms/tap;
#X msg 153 293 start \$1;
#X msg 256 161 0;
#X obj 305 77 t b b;
#X obj 271 379 outlet;
#X obj 449 200 loadbang;
#X obj 449 225 samplerate~;
#X obj 305 274 expr $f1 * ($f2/1000);
#X obj 337 117 s capture_\$0;
#X msg 552 165 40;
#X obj 552 190 *;
#X obj 552 215 array size \$1;
#X msg 562 108 const 0;
#X obj 562 133 s \$1;
#N canvas 737 471 450 300 time-limit 0;
#X obj 111 176 delay 40000;
#X msg 111 125 stop \, bang;
#X msg 203 125 stop;
#X obj 111 68 inlet;
#X obj 111 93 sel 1 0;
#X obj 111 201 outlet;
#X connect 0 0 5 0;
#X connect 1 0 0 0;
#X connect 2 0 0 0;
#X connect 3 0 4 0;
#X connect 4 0 1 0;
#X connect 4 1 2 0;
#X restore 99 65 pd time-limit;
#X obj 224 50 r \$0rec;
#X obj 305 50 r \$0dub;
#X obj 539 58 r \$0clear;
#X obj 390 327 s rec.size_\$0;
#X obj 33 306 s rec.state_\$0;
#X obj 153 262 v rec.start_\$0;
#X msg 539 359 0;
#X msg 305 325 size \$1;
#X msg 53 359 rec_state \$1;
#X connect 0 0 1 0;
#X connect 0 0 23 0;
#X connect 0 0 28 0;
#X connect 0 0 32 0;
#X connect 1 0 5 0;
#X connect 1 1 2 0;
#X connect 2 0 3 0;
#X connect 2 0 6 1;
#X connect 3 0 4 0;
#X connect 5 0 6 0;
#X connect 5 0 29 0;
#X connect 6 0 7 0;
#X connect 7 0 16 0;
#X connect 8 0 0 0;
#X connect 8 1 9 0;
#X connect 8 1 11 0;
#X connect 9 0 7 1;
#X connect 10 0 4 0;
#X connect 11 0 29 0;
#X connect 12 0 5 0;
#X connect 12 1 9 1;
#X connect 12 1 17 0;
#X connect 14 0 15 0;
#X connect 15 0 16 1;
#X connect 15 0 19 1;
#X connect 16 0 27 0;
#X connect 16 0 31 0;
#X connect 18 0 19 0;
#X connect 19 0 20 0;
#X connect 21 0 22 0;
#X connect 23 0 0 0;
#X connect 24 0 8 0;
#X connect 25 0 12 0;
#X connect 26 0 18 0;
#X connect 26 0 21 0;
#X connect 26 0 30 0;
#X connect 29 0 10 0;
#X connect 30 0 13 0;
#X connect 31 0 13 0;
#X connect 32 0 13 0;
#X restore 31 141 pd rec/dub;
#X obj 168 286 *~;
#X obj 168 311 +~;
#X obj 168 432 outlet~;
#X obj 168 377 tabread4~ \$1;
#X obj 75 308 *~;
#X msg 76 254 \$1 10;
#X obj 76 279 line~;
#X obj 76 229 r \$0dub-lvl;
#X obj 42 406 snapshot~;
#X obj 374 430 outlet;
#X obj 374 403 list trim;
#X obj 169 196 vline~;
#X obj 249 215 snapshot~;
#X msg 238 72 size \$1;
#X obj 169 161 scripts/playhead2_ctl;
#X obj 238 21 loadbang;
#X obj 238 46 array size \$1;
#X obj 42 378 r capture_\$0;
#N canvas 433 520 344 249 lofi 0;
#X obj 78 59 inlet~;
#X obj 78 194 outlet~;
#X obj 162 58 phasor~ 16000;
#X obj 102 93 samphold~;
#X obj 162 31 r \$0resolution;
#X obj 178 130 r \$0lofi;
#X obj 77 158 mux~;
#X connect 0 0 3 0;
#X connect 0 0 6 0;
#X connect 2 0 3 1;
#X connect 3 0 6 1;
#X connect 4 0 2 0;
#X connect 5 0 6 0;
#X connect 6 0 1 0;
#X restore 168 225 pd lofi;
#X text 366 40 --params-- \; rec <1/0/bang> \; dub <bang> \; clear <bang> \; trim_start <float> \; trim_end <float> \; size <float>(when loading from disk) \; reverse <1/0> \; loop <1/0> \; speed <float> \; seek <pos> <time> \; cue <pos> <time> \; pause <1/0> \; lofi <1/0> \; resolution <float> \;, f 22;
#X obj 480 431 outlet;
#X obj 294 430 outlet~;
#X obj 168 404 *~;
#N canvas 737 471 450 300 env 0;
#X obj 158 77 route float list;
#X obj 158 143 > 0;
#X msg 158 168 \$1 2;
#X obj 158 193 line~;
#X obj 158 218 outlet~;
#X msg 167 114 \$1;
#X obj 158 37 inlet;
#X connect 0 0 1 0;
#X connect 0 1 5 0;
#X connect 1 0 2 0;
#X connect 2 0 3 0;
#X connect 3 0 4 0;
#X connect 5 0 1 0;
#X connect 6 0 0 0;
#X restore 253 123 pd env;
#X obj 53 105 atoms/broadcast \$0;
#X obj 374 379 r rec.size_\$0;
#X obj 480 406 r rec.state_\$0;
#X obj 42 432 v rec.start_\$0;
#X connect 0 0 1 0;
#X connect 2 0 18 0;
#X connect 2 0 27 0;
#X connect 2 0 28 0;
#X connect 3 0 1 0;
#X connect 3 1 18 0;
#X connect 4 0 5 0;
#X connect 5 0 7 0;
#X connect 5 0 12 0;
#X connect 7 0 8 1;
#X connect 7 0 26 0;
#X connect 8 0 1 0;
#X connect 9 0 10 0;
#X connect 10 0 8 0;
#X connect 11 0 9 0;
#X connect 12 0 31 0;
#X connect 14 0 13 0;
#X connect 15 0 16 0;
#X connect 15 0 22 0;
#X connect 16 0 18 1;
#X connect 17 0 18 0;
#X connect 18 0 15 0;
#X connect 18 1 4 1;
#X connect 18 2 5 1;
#X connect 18 3 16 0;
#X connect 19 0 20 0;
#X connect 20 0 17 0;
#X connect 21 0 12 0;
#X connect 22 0 4 0;
#X connect 22 0 25 0;
#X connect 26 0 6 0;
#X connect 27 0 26 1;
#X connect 29 0 14 0;
#X connect 30 0 24 0;
