#N canvas 652 95 519 447 12;
#X obj 24 55 inlet;
#X obj 285 396 outlet;
#X obj 234 59 inlet;
#X obj 234 84 route save load;
#X obj 63 134 text search \$0preset 0, f 11;
#X obj 63 176 sel -1;
#X obj 24 251 text set \$0preset;
#X obj 24 82 t a a;
#X obj 396 59 loadbang;
#X msg 396 84 args;
#X obj 396 109 pdcontrol;
#X obj 396 213 text set \$0preset 1e+09, f 14;
#X obj 396 162 list-stream;
#X obj 396 187 symbol;
#X obj 185 263 text define \$0preset;
#X obj 63 109 symbol;
#X obj 24 109 list;
#X obj 24 227 spigot;
#X msg 63 201 0, f 1;
#X msg 102 207 1, f 1;
#N canvas 458 221 450 300 savestate 0;
#X obj 255 74 inlet;
#X obj 156 75 savestate;
#X obj 216 115 symbol;
#X obj 156 223 outlet;
#X obj 188 198 print loading;
#X obj 156 141 route symbol;
#X obj 156 170 t s s;
#X connect 0 0 2 1;
#X connect 1 0 5 0;
#X connect 1 1 2 0;
#X connect 2 0 1 0;
#X connect 5 0 6 0;
#X connect 6 0 3 0;
#X connect 6 1 4 0;
#X restore 222 176 pd savestate;
#N canvas 458 221 450 300 load 0;
#X obj 142 61 inlet;
#X obj 142 86 route symbol bang;
#X obj 200 147 openpanel;
#X obj 142 167 outlet;
#X msg 200 117 symbol ~/Pd/core-lib/presets;
#X connect 0 0 1 0;
#X connect 1 0 3 0;
#X connect 1 1 4 0;
#X connect 2 0 3 0;
#X connect 4 0 2 0;
#X restore 285 110 pd load;
#X obj 285 343 text sequence \$0preset;
#X msg 308 238 read \$1;
#X msg 285 316 line 0 \, bang;
#X msg 185 236 write \$1;
#X obj 396 136 spigot 1;
#X msg 352 150 0;
#X obj 285 369 list trim;
#X obj 396 287 outlet;
#X obj 396 261 trim-filename;
#N canvas 210 138 450 300 save 0;
#X obj 207 35 inlet;
#X msg 207 60 symbol ~/Pd/core-lib/presets;
#X obj 207 85 savepanel;
#X obj 207 110 outlet;
#X connect 0 0 1 0;
#X connect 1 0 2 0;
#X connect 2 0 3 0;
#X restore 205 110 pd save;
#X text 92 10 Arguments are the parameter list. Loads the last saved/loaded
preset file at start \;, f 44;
#X obj 285 209 t b s;
#X obj 285 290 del 50;
#X connect 0 0 7 0;
#X connect 2 0 3 0;
#X connect 3 0 31 0;
#X connect 3 1 21 0;
#X connect 4 0 5 0;
#X connect 5 0 18 0;
#X connect 5 1 19 0;
#X connect 5 1 6 1;
#X connect 7 0 16 0;
#X connect 7 1 15 0;
#X connect 8 0 9 0;
#X connect 9 0 10 0;
#X connect 10 0 26 0;
#X connect 12 0 13 0;
#X connect 13 0 11 0;
#X connect 15 0 4 0;
#X connect 16 0 17 0;
#X connect 17 0 6 0;
#X connect 18 0 17 1;
#X connect 19 0 17 1;
#X connect 20 0 27 0;
#X connect 20 0 33 0;
#X connect 21 0 20 0;
#X connect 21 0 33 0;
#X connect 22 0 28 0;
#X connect 23 0 14 0;
#X connect 24 0 22 0;
#X connect 25 0 14 0;
#X connect 26 0 12 0;
#X connect 27 0 26 1;
#X connect 28 0 1 0;
#X connect 30 0 29 0;
#X connect 31 0 25 0;
#X connect 31 0 30 0;
#X connect 31 0 20 0;
#X connect 33 0 34 0;
#X connect 33 1 23 0;
#X connect 33 1 30 0;
#X connect 34 0 24 0;
