#N canvas 211 411 582 579 12;
#X obj 269 227 tgl 15 0 empty empty empty 17 7 0 10 #fcfcfc #000000 #000000 0 1;
#X obj 329 302 sel 1 0;
#X obj 45 363 timer;
#X obj 360 173 loadbang;
#X obj 360 199 samplerate~;
#X obj 329 434 t b b;
#X msg 384 356 stop;
#X msg 36 278 stop;
#X obj 50 185 r recording\$0;
#X obj 360 224 v sr\$0;
#X obj 45 336 r beginCount\$0;
#X obj 77 311 r endCount\$0;
#X obj 329 487 s recording\$0;
#X obj 384 381 s recording\$0;
#X obj 352 407 s endCount\$0;
#X obj 361 460 s beginCount\$0;
#X obj 269 487 outlet;
#X obj 269 282 change;
#X obj 34 221 tabwrite~ \$1;
#X obj 416 255 array size \$1;
#X obj 352 328 t b b;
#X obj 269 156 inlet;
#X obj 34 146 inlet~;
#X obj 416 227 expr 40 * sr\$0;
#X obj 87 271 delay 40 1 sec;
#X text 31 20 Basic audio recorder abstraction. Resizes array \, to max. 40 seconds \;, f 69;
#X obj 45 493 outlet;
#X obj 153 152 route bang;
#X obj 45 464 f;
#X obj 153 177 s \$0send;
#X obj 57 432 r \$0send;
#X obj 45 388 expr $f1*( sr\$0 / 1000), f 18;
#X text 35 46 1st inlet - audio in/ bangs outputs recorded duration \; 2nd inlet - float starts/stop recording \; 1st outlet - outputs recorded smp length \; 2nd outlet - outputs rec state \;;
#X connect 0 0 17 0;
#X connect 1 0 5 0;
#X connect 1 1 20 0;
#X connect 2 0 31 0;
#X connect 3 0 4 0;
#X connect 3 0 23 0;
#X connect 4 0 9 0;
#X connect 5 0 12 0;
#X connect 5 1 15 0;
#X connect 6 0 13 0;
#X connect 7 0 24 0;
#X connect 8 0 18 0;
#X connect 10 0 2 0;
#X connect 10 0 24 0;
#X connect 11 0 2 1;
#X connect 11 0 7 0;
#X connect 17 0 16 0;
#X connect 17 0 1 0;
#X connect 20 0 14 0;
#X connect 20 1 6 0;
#X connect 21 0 0 0;
#X connect 22 0 18 0;
#X connect 22 1 27 0;
#X connect 23 0 19 0;
#X connect 24 0 0 0;
#X connect 27 0 29 0;
#X connect 28 0 26 0;
#X connect 30 0 28 0;
#X connect 31 0 28 0;
