#N canvas 867 331 641 415 12;
#X declare -path sample-library;
#X obj 379 30 r smp_preview;
#X obj 379 83 readsf~ 2;
#X obj 379 108 dac~;
#X obj 358 229 scripts/gen_file_tree;
#X obj 197 192 scripts/file_menu;
#X obj 372 260 else/click;
#X msg 372 285 vis 1;
#X msg 475 315 clear;
#X msg 475 287 loadbang;
#X obj 197 16 r folder_view;
#N canvas 17 0 310 956 dir_window 1;
#X obj 40 20 folder-file deprecated /home/me/samples/deprecated;
#X obj 40 44 folder-file 41\ -\ 1017\ Bricksquad\ Drum\ Kit\ Grátis\ +\ SoundFonts /home/me/samples/41\ -\ 1017\ Bricksquad\ Drum\ Kit\ Grátis\ +\ SoundFonts;
#X obj 60 68 folder-file FX /home/me/samples/41\ -\ 1017\ Bricksquad\ Drum\ Kit\ Grátis\ +\ SoundFonts/FX;
#X obj 60 92 folder-file Snares /home/me/samples/41\ -\ 1017\ Bricksquad\ Drum\ Kit\ Grátis\ +\ SoundFonts/Snares;
#X obj 60 116 folder-file Vocals\ And\ Chants /home/me/samples/41\ -\ 1017\ Bricksquad\ Drum\ Kit\ Grátis\ +\ SoundFonts/Vocals\ And\ Chants;
#X obj 60 140 folder-file Hi\\\ Hats\\\,\\\ Crashes\\\,\\\ &\\\ Percs /home/me/samples/41\\\ -\\\ 1017\\\ Bricksquad\\\ Drum\\\ Kit\\\ Grátis\\\ +\\\ SoundFonts/Hi\\\ Hats\\\,\\\ Crashes\\\,\\\ &\\\ Percs;
#X obj 60 164 folder-file 808's /home/me/samples/41\ -\ 1017\ Bricksquad\ Drum\ Kit\ Grátis\ +\ SoundFonts/808's;
#X obj 60 188 folder-file Soundfonts /home/me/samples/41\ -\ 1017\ Bricksquad\ Drum\ Kit\ Grátis\ +\ SoundFonts/Soundfonts;
#X obj 60 212 folder-file Producer\ Tags /home/me/samples/41\ -\ 1017\ Bricksquad\ Drum\ Kit\ Grátis\ +\ SoundFonts/Producer\ Tags;
#X obj 60 236 folder-file Claps /home/me/samples/41\ -\ 1017\ Bricksquad\ Drum\ Kit\ Grátis\ +\ SoundFonts/Claps;
#X obj 60 260 folder-file Channel\ States /home/me/samples/41\ -\ 1017\ Bricksquad\ Drum\ Kit\ Grátis\ +\ SoundFonts/Channel\ States;
#X obj 60 284 folder-file Kicks /home/me/samples/41\ -\ 1017\ Bricksquad\ Drum\ Kit\ Grátis\ +\ SoundFonts/Kicks;
#X obj 40 308 folder-file Shakers /home/me/samples/Shakers;
#X obj 40 332 folder-file 49\ -\ Young\ Chop\ Drum\ Kit\ Grátis /home/me/samples/49\ -\ Young\ Chop\ Drum\ Kit\ Grátis;
#X obj 60 356 folder-file INSTRUMENTS /home/me/samples/49\ -\ Young\ Chop\ Drum\ Kit\ Grátis/INSTRUMENTS;
#X obj 80 380 folder-file 01wav /home/me/samples/49\ -\ Young\ Chop\ Drum\ Kit\ Grátis/INSTRUMENTS/01wav;
#X obj 60 404 folder-file FX /home/me/samples/49\ -\ Young\ Chop\ Drum\ Kit\ Grátis/FX;
#X obj 60 428 folder-file DRUMS /home/me/samples/49\ -\ Young\ Chop\ Drum\ Kit\ Grátis/DRUMS;
#X obj 40 452 folder-file IRs /home/me/samples/IRs;
#X obj 60 476 folder-file AC30\ normal\ SNB /home/me/samples/IRs/AC30\ normal\ SNB;
#X obj 60 500 folder-file BGLex480 /home/me/samples/IRs/BGLex480;
#X obj 80 524 folder-file __MACOSX /home/me/samples/IRs/BGLex480/__MACOSX;
#X obj 100 548 folder-file Big\ Gee's\ Lexicon\ 480L\ Reverb /home/me/samples/IRs/BGLex480/__MACOSX/Big\ Gee's\ Lexicon\ 480L\ Reverb;
#X obj 80 572 folder-file Big\ Gee's\ Lexicon\ 480L\ Reverb /home/me/samples/IRs/BGLex480/Big\ Gee's\ Lexicon\ 480L\ Reverb;
#X obj 100 596 folder-file BG\ Lexicon\ 480L /home/me/samples/IRs/BGLex480/Big\ Gee's\ Lexicon\ 480L\ Reverb/BG\ Lexicon\ 480L;
#X obj 100 620 folder-file Big\ Gee's\ Lexicon\ 480L /home/me/samples/IRs/BGLex480/Big\ Gee's\ Lexicon\ 480L\ Reverb/Big\ Gee's\ Lexicon\ 480L;
#X obj 60 644 folder-file Shift_Line_Bass_IR_Pack /home/me/samples/IRs/Shift_Line_Bass_IR_Pack;
#X obj 60 668 folder-file GuitarHacks\ Impulses /home/me/samples/IRs/GuitarHacks\ Impulses;
#X obj 80 692 folder-file JJ\ Powertube\ Impulses /home/me/samples/IRs/GuitarHacks\ Impulses/JJ\ Powertube\ Impulses;
#X obj 80 716 folder-file Louder\ JJ\ Powertube\ Impulses\ Full\ Set\ Straight /home/me/samples/IRs/GuitarHacks\ Impulses/Louder\ JJ\ Powertube\ Impulses\ Full\ Set\ Straight;
#X obj 80 740 folder-file Louder\ JJ\ Powertube\ Impulses\ Samples /home/me/samples/IRs/GuitarHacks\ Impulses/Louder\ JJ\ Powertube\ Impulses\ Samples;
#X obj 80 764 folder-file Single\ Fredman\ Style\ and\ Sneap\ Edge /home/me/samples/IRs/GuitarHacks\ Impulses/Single\ Fredman\ Style\ and\ Sneap\ Edge;
#X obj 80 788 folder-file Original\ 3\ Impulses /home/me/samples/IRs/GuitarHacks\ Impulses/Original\ 3\ Impulses;
#X obj 80 812 folder-file Multiple\\\ Fredman\\\,\\\ Straight\\\ and\\\ 45 /home/me/samples/IRs/GuitarHacks\\\ Impulses/Multiple\\\ Fredman\\\,\\\ Straight\\\ and\\\ 45;
#X obj 60 836 folder-file IMreverbs /home/me/samples/IRs/IMreverbs;
#X obj 40 860 folder-file Tuned\ Percs /home/me/samples/Tuned\ Percs;
#X obj 40 884 folder-file 53\ -\ J\ Cole\ Hip\ Hop\ Sample\ Pack\ e\ Drum\ Kit /home/me/samples/53\ -\ J\ Cole\ Hip\ Hop\ Sample\ Pack\ e\ Drum\ Kit;
#X obj 60 908 folder-file One\ Shots /home/me/samples/53\ -\ J\ Cole\ Hip\ Hop\ Sample\ Pack\ e\ Drum\ Kit/One\ Shots;
#X obj 60 932 folder-file Old\ School\ Drum\ Breaks /home/me/samples/53\ -\ J\ Cole\ Hip\ Hop\ Sample\ Pack\ e\ Drum\ Kit/Old\ School\ Drum\ Breaks;
#X obj 60 956 folder-file Loops\ 90BPM /home/me/samples/53\ -\ J\ Cole\ Hip\ Hop\ Sample\ Pack\ e\ Drum\ Kit/Loops\ 90BPM;
#X obj 60 980 folder-file Synth\ Sounds /home/me/samples/53\ -\ J\ Cole\ Hip\ Hop\ Sample\ Pack\ e\ Drum\ Kit/Synth\ Sounds;
#X obj 40 1004 folder-file Custom-Kit /home/me/samples/Custom-Kit;
#X obj 40 1028 folder-file FX /home/me/samples/FX;
#X obj 40 1052 folder-file Kicks /home/me/samples/Kicks;
#X obj 40 1076 folder-file Waveforms /home/me/samples/Waveforms;
#X obj 40 1100 folder-file Hats /home/me/samples/Hats;
#X obj 40 1124 folder-file VOLCA_SAMPLE2 /home/me/samples/VOLCA_SAMPLE2;
#X obj 40 1148 folder-file Voices /home/me/samples/Voices;
#X obj 40 1172 folder-file Drums /home/me/samples/Drums;
#X obj 40 1196 folder-file 54\ -\ Drake\ Sample\ e\ Drum\ Kit\ -\ Trap\ e\ Hip-Hop /home/me/samples/54\ -\ Drake\ Sample\ e\ Drum\ Kit\ -\ Trap\ e\ Hip-Hop;
#X obj 60 1220 folder-file Loops\ 148\ BPM\ Half\ Time /home/me/samples/54\ -\ Drake\ Sample\ e\ Drum\ Kit\ -\ Trap\ e\ Hip-Hop/Loops\ 148\ BPM\ Half\ Time;
#X obj 60 1244 folder-file Drum\ One\ Shots /home/me/samples/54\ -\ Drake\ Sample\ e\ Drum\ Kit\ -\ Trap\ e\ Hip-Hop/Drum\ One\ Shots;
#X obj 60 1268 folder-file Synth\ Sounds /home/me/samples/54\ -\ Drake\ Sample\ e\ Drum\ Kit\ -\ Trap\ e\ Hip-Hop/Synth\ Sounds;
#X obj 40 1292 folder-file Loops /home/me/samples/Loops;
#X obj 40 1316 folder-file recorded /home/me/samples/recorded;
#X obj 60 1340 folder-file bonobete /home/me/samples/recorded/bonobete;
#X obj 40 1364 folder-file Snares /home/me/samples/Snares;
#X obj 40 1388 folder-file Shorts /home/me/samples/Shorts;
#X obj 40 1412 folder-file loops /home/me/samples/loops;
#X obj 40 1436 folder-file Cymbals /home/me/samples/Cymbals;
#X coords 0 956 1 955 144 236 0;
#X restore 37 30 pd dir_window;
#X obj 358 315 s pd-dir_window;
#N canvas 329 36 329 956 smp_window 0;
#X obj 20 20 sample-file allalongthewatchtower.wav /home/me/samples/recorded;
#X obj 20 44 sample-file aromatizador\ de\ ambientes.wav /home/me/samples/recorded;
#X obj 20 68 sample-file cantoria-direct.mp3 /home/me/samples/recorded;
#X obj 20 92 sample-file cantoria-direct.wav /home/me/samples/recorded;
#X obj 20 116 sample-file cantoria-mic2.wav /home/me/samples/recorded;
#X obj 20 140 sample-file cantoria-mic.mp3 /home/me/samples/recorded;
#X obj 20 164 sample-file cantoria-mic.wav /home/me/samples/recorded;
#X obj 20 188 sample-file caralho.wav /home/me/samples/recorded;
#X obj 20 212 sample-file drumloop.wav /home/me/samples/recorded;
#X obj 20 236 sample-file fresh_uke.mp3 /home/me/samples/recorded;
#X obj 20 260 sample-file fresh_uke.wav /home/me/samples/recorded;
#X obj 20 284 sample-file guitchop.wav /home/me/samples/recorded;
#X obj 20 308 sample-file in\ the\ wake?.mp3 /home/me/samples/recorded;
#X obj 20 332 sample-file jessicaralho.wav /home/me/samples/recorded;
#X obj 20 356 sample-file juzzjazz.wav /home/me/samples/recorded;
#X obj 20 380 sample-file kick+rim.seq /home/me/samples/recorded;
#X obj 20 404 sample-file minimal.seq /home/me/samples/recorded;
#X obj 20 428 sample-file miso-48kHz.mp3 /home/me/samples/recorded;
#X obj 20 452 sample-file miso-no\ bass.wav /home/me/samples/recorded;
#X obj 20 476 sample-file miso.wav /home/me/samples/recorded;
#X obj 20 500 sample-file nao_me_deixe_brocoxo.wav /home/me/samples/recorded;
#X obj 20 524 sample-file Oh\ Darling!.mp3 /home/me/samples/recorded;
#X obj 20 548 sample-file outbosta.wav /home/me/samples/recorded;
#X obj 20 572 sample-file outlier.mid /home/me/samples/recorded;
#X obj 20 596 sample-file OW-L.wav /home/me/samples/recorded;
#X obj 20 620 sample-file OW.mp3 /home/me/samples/recorded;
#X obj 20 644 sample-file OW-R.wav /home/me/samples/recorded;
#X obj 20 668 sample-file pesadao.wav /home/me/samples/recorded;
#X obj 20 692 sample-file Piece\ of\ my\ heart.mp3 /home/me/samples/recorded;
#X obj 20 716 sample-file Play\ that\ Funk\ Music.mp3 /home/me/samples/recorded;
#X obj 20 740 sample-file plucker.wav /home/me/samples/recorded;
#X obj 20 764 sample-file porra_sempé.wav /home/me/samples/recorded;
#X obj 20 788 sample-file quelquechose.wav /home/me/samples/recorded;
#X obj 20 812 sample-file Rockixe.mp3 /home/me/samples/recorded;
#X obj 20 836 sample-file solo1.wav /home/me/samples/recorded;
#X obj 20 860 sample-file solo2.wav /home/me/samples/recorded;
#X obj 20 884 sample-file spiraldown.wav /home/me/samples/recorded;
#X obj 20 908 sample-file spiralout.wav /home/me/samples/recorded;
#X obj 20 932 sample-file synth-loop44.wav /home/me/samples/recorded;
#X obj 20 956 sample-file synth-loop.wav /home/me/samples/recorded;
#X obj 20 980 sample-file synth-wave1.wav /home/me/samples/recorded;
#X obj 20 1004 sample-file synth-wave3.mp3 /home/me/samples/recorded;
#X obj 20 1028 sample-file synth-wave3.wav /home/me/samples/recorded;
#X obj 20 1052 sample-file synth-wave4.mp3 /home/me/samples/recorded;
#X obj 20 1076 sample-file synth-wave4.wav /home/me/samples/recorded;
#X obj 20 1100 sample-file tartan-bass2.WAV /home/me/samples/recorded;
#X obj 20 1124 sample-file tartan-bass3.WAV /home/me/samples/recorded;
#X obj 20 1148 sample-file tartan-bass4.WAV /home/me/samples/recorded;
#X obj 20 1172 sample-file tartan-bass.WAV /home/me/samples/recorded;
#X obj 20 1196 sample-file teletrabalho.wav /home/me/samples/recorded;
#X obj 20 1220 sample-file teste.mp3 /home/me/samples/recorded;
#X obj 20 1244 sample-file transits.mp3 /home/me/samples/recorded;
#X obj 20 1268 sample-file trimteste.wav /home/me/samples/recorded;
#X obj 20 1292 sample-file ukugration.mp3 /home/me/samples/recorded;
#X obj 20 1316 sample-file vacuum-off.wav /home/me/samples/recorded;
#X obj 20 1340 sample-file vacuum-on.wav /home/me/samples/recorded;
#X obj 20 1364 sample-file vaidarerrado.wav /home/me/samples/recorded;
#X obj 20 1388 sample-file violao-midi.seq /home/me/samples/recorded;
#X obj 20 1412 sample-file violao-midi.wav /home/me/samples/recorded;
#X obj 20 1436 sample-file violine.wav /home/me/samples/recorded;
#X obj 20 1460 sample-file wannabeapopshit.wav /home/me/samples/recorded;
#X obj 20 1484 sample-file What's\ goin'\ on.mp3 /home/me/samples/recorded;
#X obj 20 1508 sample-file /home/me/samples/recorded;
#X obj 20 1532 folder-file bonobete /home/me/samples/recorded/bonobete;
#X restore 515 27 pd smp_window;
#X obj 530 201 bng 20 250 50 0 empty empty empty 0 -10 0 12 #fcfcfc #000000 #000000;
#X obj 27 243 scripts/gen_file_tree;
#X obj 229 253 bng 20 250 50 0 empty empty empty 0 -10 0 12 #fcfcfc #000000 #000000;
#X obj 57 351 s pd-smp_window;
#X obj 197 41 t a b;
#X msg 197 166 path \$1;
#X obj 27 193 list append 0;
#X obj 27 218 list trim;
#X obj 197 141 atoms/hinder 5;
#X msg 176 303 clear;
#X obj 101 107 del 10;
#X msg 101 132 loadbang;
#X obj 101 80 b;
#X msg 114 303 vis 1;
#X msg 379 58 open \$1 \, start;
#X obj 432 150 declare -path sample-library;
#X connect 0 0 27 0;
#X connect 1 0 2 0;
#X connect 1 1 2 1;
#X connect 3 0 11 0;
#X connect 4 0 19 0;
#X connect 4 1 3 0;
#X connect 5 0 6 0;
#X connect 6 0 11 0;
#X connect 7 0 11 0;
#X connect 8 0 11 0;
#X connect 9 0 17 0;
#X connect 13 0 3 1;
#X connect 14 0 16 0;
#X connect 15 0 14 1;
#X connect 15 0 22 0;
#X connect 17 0 21 0;
#X connect 17 0 25 0;
#X connect 17 0 26 0;
#X connect 17 1 15 0;
#X connect 18 0 4 0;
#X connect 19 0 20 0;
#X connect 20 0 14 0;
#X connect 21 0 18 0;
#X connect 22 0 16 0;
#X connect 23 0 24 0;
#X connect 24 0 16 0;
#X connect 25 0 23 0;
#X connect 26 0 16 0;
#X connect 27 0 1 0;
