#N canvas 596 430 516 436 12;
#X obj 38 113 notein;
#X obj 38 139 pack;
#X obj 21 278 sel 127;
#X obj 21 303 s taptempo;
#X obj 31 206 sel 127;
#X obj 31 233 s resetmetro, f 10;
#X obj 21 176 route 88 87 98;
#X obj 134 107 sel 127;
#X obj 134 132 tgl 15 0 empty empty empty 17 7 0 10 #fcfcfc #000000
#000000 0 1;
#X obj 244 94 sel 0;
#X msg 244 119 flush;
#X msg 290 119 reset;
#X obj 116 215 AB;
#X obj 116 249 grid_control;
#X obj 214 249 slice_control;
#X obj 116 364 noteout;
#X obj 214 274 spigot;
#X obj 214 310 spigot 1;
#X obj 214 364 s grid;
#X obj 267 162 t b a b;
#X msg 313 204 0, f 1;
#X msg 267 204 1, f 1;
#X obj 209 162 r beat;
#X obj 209 187 sel 0;
#X obj 302 280 s slicer;
#X obj 386 80 swap, f 6;
#X obj 386 51 ctlin;
#X obj 386 130 pack, f 6;
#X obj 425 105 / 127;
#X obj 386 105 - 48;
#X obj 386 155 route 8;
#X obj 386 180 s click;
#X obj 431 207 s slider;
#N canvas 458 221 381 363 prepare-message 0;
#X obj 124 195 t f f;
#X msg 205 220 stop;
#X msg 279 220 play;
#X msg 244 220 rec;
#X obj 124 166 limit-range 0 63;
#X obj 124 220 % 8;
#X obj 156 220 div 8;
#X msg 124 42 \$2 \$1;
#X obj 124 109 t f b;
#X obj 168 109 t f b;
#X obj 211 109 t f b;
#X obj 156 252 list prepend;
#X obj 124 279 list append;
#X obj 124 304 outlet;
#X obj 124 16 inlet;
#X obj 124 67 route 0 1 3 5;
#X connect 0 0 5 0;
#X connect 0 1 6 0;
#X connect 1 0 11 1;
#X connect 2 0 11 1;
#X connect 3 0 11 1;
#X connect 4 0 0 0;
#X connect 5 0 12 0;
#X connect 6 0 11 0;
#X connect 7 0 15 0;
#X connect 8 0 4 0;
#X connect 8 1 1 0;
#X connect 9 0 4 0;
#X connect 9 1 3 0;
#X connect 10 0 4 0;
#X connect 10 1 2 0;
#X connect 11 0 12 1;
#X connect 12 0 13 0;
#X connect 14 0 7 0;
#X connect 15 0 8 0;
#X connect 15 1 8 0;
#X connect 15 2 9 0;
#X connect 15 3 10 0;
#X restore 214 338 pd prepare-message;
#X obj 325 229 r positions;
#X obj 197 25 loadbang;
#X msg 197 51 mode columnsAsTracks \, reset, f 21;
#X obj 134 152 t f f b;
#X obj 21 86 inlet;
#X obj 127 322 outlet;
#X connect 0 0 1 0;
#X connect 0 1 1 1;
#X connect 1 0 6 0;
#X connect 2 0 3 0;
#X connect 4 0 5 0;
#X connect 6 0 2 0;
#X connect 6 1 4 0;
#X connect 6 2 7 0;
#X connect 6 3 12 0;
#X connect 7 0 8 0;
#X connect 8 0 37 0;
#X connect 9 0 10 0;
#X connect 10 0 19 0;
#X connect 11 0 19 0;
#X connect 12 0 13 0;
#X connect 12 1 14 0;
#X connect 13 0 15 0;
#X connect 13 0 17 0;
#X connect 13 0 39 0;
#X connect 14 0 16 0;
#X connect 14 1 24 0;
#X connect 16 0 15 0;
#X connect 16 0 39 0;
#X connect 17 0 33 0;
#X connect 19 0 21 0;
#X connect 19 1 13 1;
#X connect 19 2 20 0;
#X connect 20 0 17 1;
#X connect 21 0 17 1;
#X connect 22 0 23 0;
#X connect 23 0 13 1;
#X connect 25 0 29 0;
#X connect 25 1 28 0;
#X connect 26 0 25 0;
#X connect 26 1 25 1;
#X connect 27 0 30 0;
#X connect 28 0 27 1;
#X connect 29 0 27 0;
#X connect 30 0 31 0;
#X connect 30 1 32 0;
#X connect 33 0 18 0;
#X connect 34 0 14 1;
#X connect 35 0 36 0;
#X connect 36 0 13 1;
#X connect 37 0 12 1;
#X connect 37 1 9 0;
#X connect 37 1 16 1;
#X connect 37 2 11 0;
#X connect 38 0 6 0;
