#N canvas 464 240 589 625 12;
#X obj 284 476 outlet~;
#X obj 442 225 inlet~;
#X msg 24 234 size \$1;
#X obj 414 59 loadbang;
#X msg 414 179 clear;
#X obj 284 218 r smp.ctl_\$1;
#X obj 429 119 s slot\$1;
#X obj 180 31 table buf\$1;
#X obj 34 168 atoms/table-resample buf\$1 slot\$1, f 20;
#X obj 24 79 macros/load-file buf\$1;
#X obj 24 44 r load.smp_\$1;
#X obj 284 254 macros/playhead2~ buf\$1;
#X obj 198 103 s smp.label_\$1;
#X obj 408 384 r delay.ctl_\$1;
#X msg 429 94 edit 0 \, const 0;
#X msg 198 76 set \$1;
#X obj 284 377 atoms/overdrive~;
#X obj 393 349 r drive.ctl_\$1;
#X obj 139 135 t b f;
#X msg 139 110 0;
#X obj 414 152 delay 5;
#X obj 442 281 list append \$1;
#X obj 442 308 s is.rec;
#X obj 284 443 atoms/gain~;
#X obj 393 423 r vol_\$1;
#X obj 26 406 r save.smp_\$1;
#X obj 26 431 savepanel;
#X obj 26 582 soundfiler;
#X msg 59 507 symbol buf\$1;
#X obj 26 457 t s b;
#X obj 26 534 pack s s f;
#X msg 26 557 write -wave -bytes 3 -nframes \$3 \$1 \$2;
#X obj 59 482 \$1;
#X obj 284 404 macros/delay~;
#X msg 19 329 const 0;
#X obj 19 354 s slot\$1;
#X msg 84 328 set -;
#X obj 84 353 s smp.label_\$1;
#X obj 19 293 route clear;
#X obj 139 308 v has.audio\$0;
#X msg 139 278 1, f 2;
#X msg 114 278 0, f 2;
#X connect 1 0 11 1;
#X connect 2 0 11 0;
#X connect 3 0 14 0;
#X connect 3 0 20 0;
#X connect 4 0 11 0;
#X connect 5 0 11 0;
#X connect 5 0 38 0;
#X connect 9 0 2 0;
#X connect 9 0 19 0;
#X connect 9 2 15 0;
#X connect 10 0 9 0;
#X connect 11 0 16 0;
#X connect 11 2 18 0;
#X connect 11 2 30 2;
#X connect 11 3 21 0;
#X connect 13 0 33 0;
#X connect 14 0 6 0;
#X connect 15 0 12 0;
#X connect 16 0 33 0;
#X connect 17 0 16 1;
#X connect 18 0 8 0;
#X connect 18 0 40 0;
#X connect 18 1 8 1;
#X connect 19 0 18 0;
#X connect 20 0 4 0;
#X connect 21 0 22 0;
#X connect 23 0 0 0;
#X connect 24 0 23 1;
#X connect 25 0 26 0;
#X connect 26 0 29 0;
#X connect 28 0 30 1;
#X connect 29 0 30 0;
#X connect 29 1 32 0;
#X connect 30 0 31 0;
#X connect 31 0 27 0;
#X connect 32 0 28 0;
#X connect 33 0 23 0;
#X connect 34 0 35 0;
#X connect 36 0 37 0;
#X connect 38 0 34 0;
#X connect 38 0 36 0;
#X connect 38 0 41 0;
#X connect 40 0 39 0;
#X connect 41 0 39 0;
