#N canvas 733 327 527 444 12;
#X obj 29 163 scripts/sequencer;
#X obj 29 35 inlet;
#X obj 29 109 route 0 1 2 3 4 5;
#X obj 154 36 inlet;
#X obj 249 109 route 0 1 2 3 4 5;
#X obj 145 188 list prepend 0;
#X obj 29 216 scripts/sequencer;
#X obj 259 163 scripts/sequencer;
#X obj 259 216 scripts/sequencer;
#X obj 29 274 scripts/sequencer;
#X obj 259 274 scripts/sequencer;
#X obj 85 373 outlet;
#X obj 309 363 outlet;
#X obj 145 241 list prepend 1;
#X obj 145 299 list prepend 2;
#X obj 375 188 list prepend 3;
#X obj 375 241 list prepend 4;
#X obj 375 299 list prepend 5;
#X obj 154 74 route selected;
#X obj 29 76 list prepend;
#X connect 0 0 11 0;
#X connect 0 1 5 0;
#X connect 1 0 19 0;
#X connect 2 0 0 0;
#X connect 2 1 6 0;
#X connect 2 2 9 0;
#X connect 2 3 7 0;
#X connect 2 4 8 0;
#X connect 2 5 10 0;
#X connect 3 0 18 0;
#X connect 4 0 0 1;
#X connect 4 1 6 1;
#X connect 4 2 9 1;
#X connect 4 3 7 1;
#X connect 4 4 8 1;
#X connect 4 5 10 1;
#X connect 5 0 12 0;
#X connect 6 0 11 0;
#X connect 6 1 13 0;
#X connect 7 0 11 0;
#X connect 7 1 15 0;
#X connect 8 0 11 0;
#X connect 8 1 16 0;
#X connect 9 0 11 0;
#X connect 9 1 14 0;
#X connect 10 0 11 0;
#X connect 10 1 17 0;
#X connect 13 0 12 0;
#X connect 14 0 12 0;
#X connect 15 0 12 0;
#X connect 16 0 12 0;
#X connect 17 0 12 0;
#X connect 18 0 19 1;
#X connect 18 1 4 0;
#X connect 19 0 2 0;
