#N canvas 30 55 450 384 12;
#X obj 74 273 fftease/pvharm~;
#X floatatom 142 220 5 0 0 0 - - - 0;
#X obj 204 254 sig~ 0.001;
#X obj 142 130 random-seq;
#X obj 142 193 expr pow(2 \, $f1/12);
#X msg 142 103 min -3 \, max 4;
#X obj 142 162 scale;
#X obj 74 235 inlet~;
#X obj 74 318 outlet~;
#X obj 142 67 loadbang;
#X obj 282 103 inlet;
#X obj 282 128 route scale;
#X connect 0 0 8 0;
#X connect 1 0 0 1;
#X connect 1 0 0 2;
#X connect 2 0 0 3;
#X connect 3 0 6 0;
#X connect 4 0 1 0;
#X connect 5 0 3 0;
#X connect 6 0 4 0;
#X connect 7 0 0 0;
#X connect 9 0 5 0;
#X connect 10 0 11 0;
#X connect 11 0 6 0;
#X connect 11 1 3 0;
