#N canvas 747 123 426 638 12;
#X declare -path core-lib;
#X obj 94 429 *~;
#X obj 94 115 mtof;
#X obj 207 140 / 127;
#X obj 143 470 rev3~ 94 94 6000 30;
#X obj 94 387 else/lowpass~ 1600 1.2;
#X obj 104 206 mtof;
#X obj 115 286 mtof;
#X obj 53 63 monophonic;
#X obj 94 346 else/lowpass~ 1200 1;
#X obj 115 311 else/bl.square~;
#X floatatom 272 331 5 0 0 0 - - - 0;
#X obj 272 355 mtof;
#X obj 104 231 else/bl.square~;
#X obj 94 141 else/bl.saw~;
#X obj 104 181 + 0.1;
#X obj 115 261 + 0.18;
#X obj 53 35 inlet;
#X obj 94 535 outlet~;
#X obj 142 432 blocks/delay;
#X obj 142 502 blocks/modulation;
#X obj 230 45 declare -path core-lib;
#X obj 207 165 atoms/EG~ 0 200 0.1 180;
#X connect 0 0 17 0;
#X connect 0 0 18 0;
#X connect 1 0 13 0;
#X connect 2 0 21 0;
#X connect 3 0 19 0;
#X connect 4 0 0 0;
#X connect 5 0 12 0;
#X connect 6 0 9 0;
#X connect 7 0 1 0;
#X connect 7 0 14 0;
#X connect 7 0 15 0;
#X connect 7 1 2 0;
#X connect 8 0 4 0;
#X connect 9 0 8 0;
#X connect 10 0 11 0;
#X connect 11 0 4 1;
#X connect 11 0 8 1;
#X connect 13 0 8 0;
#X connect 14 0 5 0;
#X connect 15 0 6 0;
#X connect 16 0 7 0;
#X connect 18 0 3 0;
#X connect 18 0 17 0;
#X connect 19 0 17 0;
#X connect 21 0 0 1;
