#N canvas 155 79 610 532 12;
#X obj 37 37 inlet~;
#X obj 152 41 block~ 512 4;
#X obj 37 62 else/hann~;
#X obj 38 124 delwrite~ \$0amp 1000;
#X obj 125 152 delwrite~ \$0phase 1000;
#X obj 319 153 delread4~ \$0amp;
#X obj 440 153 delread4~ \$0phase;
#X obj 38 91 rfft~;
#X obj 429 307 rifft~;
#X obj 429 362 else/hann~;
#X obj 429 387 outlet~;
#X obj 429 335 /~ 512;
#X msg 243 295 const 0.01;
#N canvas 458 246 450 250 (subpatch) 0;
#X array delays\$0 51 float 3;
#A 0 190.641 143.622 146.365 146.02 146.021 146.021 146.021 145.334 145.331 145.675 145.669 145.669 124.511 124.353 134.716 124.353 124.353 121.827 121.827 121.807 122.436 122.436 122.397 143.38 143.38 143.38 143.38 143.423 143.423 143.423 8.26107 8.2707 8.27074 1.75314 21.4758 21.4758 21.4758 21.4748 21.7342 21.7341 21.8644 21.7341 21.8644 17.8971 17.8898 17.8898 17.8893 17.8896 17.8896 17.8894 17.8748;
#X coords 0 215 51 1 188 74 1 0 0;
#X restore 23 272 graph;
#X obj 226 250 *~ 0.4;
#X obj 308 251 *~ 0.4;
#N canvas 385 154 355 295 random 0;
#X obj 121 154 bng 15 250 50 0 empty empty empty 17 7 0 10 #fcfcfc #000000 #000000;
#X obj 59 164 *~ 214;
#X obj 59 136 pow~ 2;
#X obj 59 192 +~ 1;
#X obj 117 33 else/brown~;
#X obj 205 33 else/gray~;
#X obj 110 231 tabwrite~ delays\$0;
#X obj 165 142 else/click 1;
#X obj 70 97 mux~ . . .;
#X obj 160 100 inlet;
#X obj 29 33 else/white~;
#X connect 0 0 6 0;
#X connect 1 0 3 0;
#X connect 2 0 1 0;
#X connect 3 0 6 0;
#X connect 4 0 8 1;
#X connect 5 0 8 2;
#X connect 7 0 0 0;
#X connect 8 0 2 0;
#X connect 9 0 0 0;
#X connect 9 0 8 0;
#X connect 10 0 8 0;
#X restore 23 225 pd random;
#N canvas 458 246 450 250 (subpatch) 0;
#X array filter\$0 51 float 3;
#A 0 1 1 1 1 1 1 1 1 1 1 1 1 1 1 1 1 1 1 1 1 1 1 1 1 1 1 1 1 1 1 1 1 1 1 1 1 1 1 1 1 1 1 1 1 1 1 1 1 1 1 1;
#X coords 0 1 51 0.01 188 73 1 0 0;
#X restore 23 367 graph;
#X obj 486 233 tabreceive~ filter\$0, f 11;
#X obj 428 281 *~;
#X obj 468 281 *~;
#X msg 250 462 const 1;
#X obj 250 487 s filter\$0;
#X floatatom 239 372 5 0 0 0 - - - 0;
#X obj 239 433 array size filter\$0;
#X obj 380 48 tabreceive~ delays\$0;
#X obj 252 402 array size delays\$0;
#X obj 243 337 s delays\$0;
#N canvas 458 275 450 300 scale 0;
#X obj 152 165 /~ 48;
#X obj 151 112 -~;
#X obj 169 86 wrap~;
#X obj 152 140 *~ 512;
#X obj 151 52 inlet~;
#X obj 152 190 outlet~;
#X connect 0 0 5 0;
#X connect 1 0 3 0;
#X connect 2 0 1 1;
#X connect 3 0 0 0;
#X connect 4 0 2 0;
#X connect 4 0 1 0;
#X restore 380 106 pd scale;
#X obj 380 75 *~ 1;
#X floatatom 423 75 5 0 0 0 - - - 0;
#X msg 328 294 const 215;
#X floatatom 247 181 5 0 0 0 - - - 0;
#X obj 23 199 hradio 20 1 0 3 empty empty empty 0 -10 0 12 #fcfcfc #000000 #000000 0;
#X connect 0 0 2 0;
#X connect 2 0 7 0;
#X connect 5 0 14 0;
#X connect 5 0 19 0;
#X connect 6 0 15 0;
#X connect 6 0 20 0;
#X connect 7 0 3 0;
#X connect 7 1 4 0;
#X connect 8 0 11 0;
#X connect 9 0 10 0;
#X connect 11 0 9 0;
#X connect 12 0 27 0;
#X connect 14 0 3 0;
#X connect 15 0 4 0;
#X connect 18 0 19 1;
#X connect 18 0 20 1;
#X connect 19 0 8 0;
#X connect 20 0 8 1;
#X connect 21 0 22 0;
#X connect 23 0 24 0;
#X connect 23 0 26 0;
#X connect 23 0 21 0;
#X connect 25 0 29 0;
#X connect 28 0 5 0;
#X connect 28 0 6 0;
#X connect 29 0 28 0;
#X connect 30 0 29 1;
#X connect 31 0 27 0;
#X connect 32 0 14 1;
#X connect 32 0 15 1;
#X connect 33 0 16 0;
