#N canvas 996 517 485 473 12;
#X obj 62 419 outlet~;
#X obj 62 145 inlet~;
#X text 50 18 inlet is phasor~! \; phasor freq needs to be adjusted with bpm2hz \; which is the length of one bar;
#X msg 164 133 1 \$1;
#X obj 164 158 /;
#X obj 62 220 else/pimpmul~ 1;
#X obj 62 322 +~;
#X obj 62 347 *~ 1;
#X obj 287 204 lua-scripts/sample_trimmer, f 18;
#X msg 410 252 1 \$1;
#X obj 410 277 /;
#X obj 164 192 atoms/mul 1;
#X obj 164 102 route bar start end size;
#X obj 62 377 atoms/table-reader~ \$1;
#X obj 309 366 outlet~;
#X connect 1 0 5 0;
#X connect 1 1 12 0;
#X connect 3 0 4 0;
#X connect 4 0 11 0;
#X connect 5 0 6 0;
#X connect 6 0 7 0;
#X connect 7 0 13 0;
#X connect 7 0 14 0;
#X connect 8 0 6 1;
#X connect 8 1 7 1;
#X connect 8 1 9 0;
#X connect 9 0 10 0;
#X connect 10 0 11 1;
#X connect 11 0 5 1;
#X connect 12 0 3 0;
#X connect 12 1 8 0;
#X connect 12 2 8 1;
#X connect 12 3 13 1;
#X connect 13 0 0 0;
