#N canvas 416 165 572 404 12;
#X obj 26 151 inlet~;
#X obj 26 304 *~;
#X obj 26 329 outlet~;
#X msg 222 268 min \$1;
#X msg 369 273 symbol tri;
#X msg 389 301 symbol square;
#X floatatom 222 239 5 0 0 0 - - - 0;
#X floatatom 148 243 5 0 0 0 - - - 0;
#X obj 369 220 hradio 20 1 0 3 empty empty empty 0 -10 0 12 #fcfcfc #000000 #000000 0;
#X msg 369 355 wave \$1;
#X obj 148 270 modulate~;
#X msg 403 106 gain \$1;
#X obj 208 208 env-follower~ 0 2 0 2;
#X floatatom 403 80 5 0 0 0 - - - 0;
#X floatatom 474 82 5 0 0 0 - - - 0;
#X msg 474 106 ceil \$1;
#X obj 148 304 lfo~ square 0 0 5 db, f 11;
#X msg 409 327 symbol saw;
#X obj 369 247 sel 0 1 2;
#X text 339 7 intensity 0 ~ -100db;
#X obj 189 47 route rate intensity wave env env-growth phase;
#X msg 272 353 phase;
#X connect 0 0 1 0;
#X connect 0 0 12 0;
#X connect 0 1 20 0;
#X connect 1 0 2 0;
#X connect 3 0 16 0;
#X connect 4 0 9 0;
#X connect 5 0 9 0;
#X connect 6 0 3 0;
#X connect 7 0 10 0;
#X connect 8 0 18 0;
#X connect 9 0 16 0;
#X connect 10 0 16 0;
#X connect 11 0 12 0;
#X connect 12 0 10 1;
#X connect 13 0 11 0;
#X connect 14 0 15 0;
#X connect 15 0 12 0;
#X connect 16 0 1 1;
#X connect 17 0 9 0;
#X connect 18 0 4 0;
#X connect 18 1 5 0;
#X connect 18 2 17 0;
#X connect 20 0 7 0;
#X connect 20 1 6 0;
#X connect 20 2 8 0;
#X connect 20 3 13 0;
#X connect 20 4 14 0;
#X connect 20 5 21 0;
#X connect 21 0 16 0;
