#N canvas 779 564 508 332 12;
#X obj 89 140 inlet~;
#X obj 89 225 *~;
#X obj 256 216 atoms/lfo2~ 4 1 1 0;
#X obj 89 250 outlet~;
#X obj 198 22 inlet;
#X obj 198 47 route depth ratio;
#X obj 168 72 clip 0 1;
#X obj 168 122 abs;
#X obj 168 97 - 1;
#X msg 168 177 range \$1 1;
#X msg 256 132 rate \$1;
#X obj 168 151 pow 2;
#X obj 256 76 atoms/bpm-ratio;
#X obj 256 104 atoms/ms2hz;
#X connect 0 0 1 0;
#X connect 1 0 3 0;
#X connect 2 0 1 1;
#X connect 4 0 5 0;
#X connect 5 0 6 0;
#X connect 5 1 12 0;
#X connect 5 2 2 0;
#X connect 6 0 8 0;
#X connect 7 0 11 0;
#X connect 8 0 7 0;
#X connect 9 0 2 0;
#X connect 10 0 2 0;
#X connect 11 0 9 0;
#X connect 12 0 13 0;
#X connect 13 0 10 0;
