#N canvas 653 320 450 300 12;
#X obj 181 75 inlet;
#X obj 181 150 outlet;
#X obj 237 55 inlet;
#X obj 237 80 t b f;
#X obj 181 125 -;
#X text 73 24 convenience for operator- with hot inlets;
#X connect 0 0 4 0;
#X connect 2 0 3 0;
#X connect 3 0 4 0;
#X connect 3 1 4 1;
#X connect 4 0 1 0;
