#N canvas 458 275 450 300 12;
#X obj 31 72 inlet;
#X obj 31 127 spigot 1;
#X obj 31 152 outlet;
#X obj 237 34 inlet;
#X obj 151 152 outlet;
#X obj 151 127 spigot;
#X obj 84 74 == 0;
#X obj 241 152 outlet;
#X obj 241 127 spigot;
#X obj 190 92 == 1;
#X obj 280 92 == 2;
#X connect 0 0 1 0;
#X connect 0 0 5 0;
#X connect 0 0 8 0;
#X connect 1 0 2 0;
#X connect 3 0 6 0;
#X connect 3 0 9 0;
#X connect 3 0 10 0;
#X connect 5 0 4 0;
#X connect 6 0 1 1;
#X connect 8 0 7 0;
#X connect 9 0 5 1;
#X connect 10 0 8 1;
