#N canvas 458 275 450 300 12;
#X obj 134 55 inlet;
#X obj 134 90 t b f;
#X obj 134 155 f;
#X obj 198 134 +;
#X obj 134 203 outlet;
#X obj 233 55 inlet;
#X obj 233 90 t b f;
#X obj 198 162 clip 0 127;
#X obj 183 55 inlet;
#X obj 183 90 t b f;
#X connect 0 0 1 0;
#X connect 1 0 2 0;
#X connect 1 1 3 1;
#X connect 2 0 4 0;
#X connect 2 0 3 0;
#X connect 3 0 7 0;
#X connect 5 0 6 0;
#X connect 6 0 2 0;
#X connect 6 1 7 2;
#X connect 7 0 2 1;
#X connect 8 0 9 0;
#X connect 9 0 2 0;
#X connect 9 1 7 1;
