#N canvas 458 221 450 300 12;
#X obj 170 49 bendin;
#X obj 170 74 - 8192;
#X obj 170 99 / 8192;
#X obj 170 154 t2r;
#X msg 170 179 \$1 10;
#X obj 170 204 line~;
#X obj 170 229 outlet~;
#X obj 170 127 * 1;
#X obj 253 120 inlet;
#X connect 0 0 1 0;
#X connect 1 0 2 0;
#X connect 2 0 7 0;
#X connect 3 0 4 0;
#X connect 4 0 5 0;
#X connect 5 0 6 0;
#X connect 7 0 3 0;
#X connect 8 0 7 1;
