#N canvas 5 92 450 300 12;
#X obj 88 59 inlet;
#X obj 88 156 spigot 1;
#X obj 88 181 outlet;
#X obj 169 181 outlet;
#X obj 169 156 spigot;
#X obj 88 84 t a b;
#X obj 208 129 == 0;
#X obj 173 55 inlet;
#X obj 141 129 <= \$1;
#X obj 141 104 random 101;
#X connect 0 0 5 0;
#X connect 1 0 2 0;
#X connect 4 0 3 0;
#X connect 5 0 1 0;
#X connect 5 0 4 0;
#X connect 5 1 9 0;
#X connect 6 0 4 1;
#X connect 7 0 8 1;
#X connect 8 0 1 1;
#X connect 8 0 6 0;
#X connect 9 0 8 0;
