#N canvas 458 221 450 300 12;
#X obj 135 49 inlet;
#X obj 110 146 else/parabolic~;
#X obj 110 171 *~;
#X obj 110 196 outlet~;
#X obj 186 51 inlet;
#X obj 234 164 pow~ 4;
#X obj 234 189 *~ 0.2;
#X obj 234 139 vline~;
#X msg 234 114 1 4 \, 0 130 4;
#X msg 110 114 900;
#X msg 146 114 1800;
#X connect 0 0 9 0;
#X connect 0 0 8 0;
#X connect 1 0 2 0;
#X connect 2 0 3 0;
#X connect 4 0 8 0;
#X connect 4 0 10 0;
#X connect 5 0 6 0;
#X connect 6 0 2 1;
#X connect 7 0 5 0;
#X connect 8 0 7 0;
#X connect 9 0 1 0;
#X connect 10 0 1 0;
