#N canvas 0 95 450 300 12;
#X obj 109 35 inlet;
#X obj 109 60 symbol;
#X obj 109 85 list fromsymbol;
#X obj 109 120 list split \$1;
#X obj 226 100 inlet;
#X obj 109 154 list tosymbol;
#X obj 109 179 outlet;
#X connect 0 0 1 0;
#X connect 1 0 2 0;
#X connect 2 0 3 0;
#X connect 3 0 5 0;
#X connect 3 2 5 0;
#X connect 4 0 3 1;
#X connect 5 0 6 0;
