#N canvas 458 221 450 300 12;
#X floatatom 104 118 5 0 0 0 - - - 0;
#X floatatom 144 118 5 0 0 0 - - - 0;
#X obj 104 172 pack;
#X obj 104 222 s \$1;
#X obj 120 146 t b f;
#X msg 104 197 vis_size \$1 \$2;
#X obj 211 87 savestate;
#X obj 134 66 unpack;
#X obj 271 115 list;
#X connect 0 0 2 0;
#X connect 1 0 4 0;
#X connect 2 0 5 0;
#X connect 2 0 8 1;
#X connect 4 0 2 0;
#X connect 4 1 2 1;
#X connect 5 0 3 0;
#X connect 6 0 7 0;
#X connect 6 1 8 0;
#X connect 7 0 0 0;
#X connect 7 1 1 0;
#X connect 8 0 6 0;
#X coords 0 -1 1 1 85 40 1 100 100;
