#N canvas 311 201 381 365 10;
#X obj 50 66 inlet;
#X obj 77 154 t b f;
#X obj 77 187 f;
#X msg 88 239 1 \$1 \, \$3 \$2 \$1;
#X obj 77 268 vline~;
#X obj 77 314 *~, f 5;
#X obj 77 337 outlet~;
#X msg 36 209 0 \$1;
#X obj 36 145 f;
#X obj 50 113 sel 0;
#X obj 88 216 pack f f 1;
#X obj 77 291 pow~ 3;
#X obj 121 169 max 1;
#X obj 151 117 unpack f f f f;
#X obj 232 144 max 1;
#X msg 250 207 1;
#X obj 250 255 outlet;
#X obj 217 206 del;
#X msg 217 229 0;
#X msg 280 172 stop;
#X obj 167 87 inlet;
#N canvas 735 337 450 300 init-args 0;
#X obj 144 67 loadbang;
#X msg 144 90 args;
#X obj 144 113 pdcontrol;
#X obj 144 136 outlet;
#X connect 0 0 1 0;
#X connect 1 0 2 0;
#X connect 2 0 3 0;
#X restore 173 22 pd init-args;
#X connect 0 0 9 0;
#X connect 1 0 2 0;
#X connect 1 1 5 1;
#X connect 2 0 10 0;
#X connect 3 0 4 0;
#X connect 4 0 11 0;
#X connect 5 0 6 0;
#X connect 7 0 4 0;
#X connect 8 0 7 0;
#X connect 9 0 8 0;
#X connect 9 0 17 0;
#X connect 9 1 1 0;
#X connect 9 1 15 0;
#X connect 10 0 3 0;
#X connect 11 0 5 0;
#X connect 12 0 2 1;
#X connect 13 0 12 0;
#X connect 13 1 10 1;
#X connect 13 2 10 2;
#X connect 13 3 14 0;
#X connect 14 0 8 1;
#X connect 14 0 17 1;
#X connect 15 0 19 0;
#X connect 15 0 16 0;
#X connect 17 0 18 0;
#X connect 18 0 16 0;
#X connect 19 0 17 0;
#X connect 20 0 13 0;
#X connect 21 0 13 0;
