#N canvas 671 239 450 300 12;
#X obj 128 170 inlet~;
#X obj 128 195 delwrite~ \$0ff 100;
#X obj 128 245 outlet~;
#X obj 128 220 delread~ \$0ff 30;
#X obj 82 75 samplerate~;
#X obj 82 100 / 1000;
#X obj 64 156 /;
#X obj 32 81 \$1;
#X obj 32 106 sel 0;
#X obj 32 55 t b b;
#X obj 32 29 loadbang;
#X msg 32 131 1024;
#X floatatom 64 181 5 0 0 0 - - - 0;
#X text 186 21 non-recursive delay \, best used for analysis compensation
\; \$1: window size \, default to 1024, f 32;
#X connect 0 0 1 0;
#X connect 3 0 2 0;
#X connect 4 0 5 0;
#X connect 5 0 6 1;
#X connect 6 0 12 0;
#X connect 7 0 8 0;
#X connect 8 0 11 0;
#X connect 8 1 6 0;
#X connect 9 0 7 0;
#X connect 9 1 4 0;
#X connect 10 0 9 0;
#X connect 11 0 6 0;
#X connect 12 0 3 0;
