#N canvas 115 154 687 533 12;
#X obj 82 60 keyup;
#X obj 128 60 key;
#X msg 82 136 \$1 0;
#X obj 430 329 text define -k \$0.keyboard;
#A set 122 \; 115 \; 120 \; 100 \; 99 \; 118 \; 103 \; 98 \; 104 \; 110 \; 106 \; 109 \; 44 \; 108 \; 46 \; 231 \; 59 \;;
#X f 14;
#X obj 214 161 text set \$0.keyboard 1e+06, f 17;
#X obj 214 131 spigot;
#X obj 253 96 tgl 15 0 empty empty empty 17 7 0 10 #fcfcfc #000000 #000000 0 1;
#X text 270 92 build!;
#X obj 342 111 sel 1;
#X msg 342 136 -1;
#X obj 342 161 text delete \$0.keyboard, f 11;
#X obj 82 174 unpack;
#X obj 223 422 pack;
#X obj 82 227 text search \$0.keyboard, f 11;
#X obj 142 321 + \$1;
#X obj 223 472 outlet;
#X obj 189 20 loadbang;
#X obj 189 45 \$2;
#X obj 189 74 sel 0;
#X obj 128 136 pack f 127;
#X obj 304 326 text define -k \$0.keyboard2;
#A set 113 \; 50 \; 119 \; 51 \; 101 \; 114 \; 53 \; 116 \; 54 \; 121 \; 55 \; 117 \; 105 \; 57 \; 111 \; 48 \; 112 \;;
#X f 14;
#X obj 82 267 sel -1;
#X obj 32 348 sel -1;
#X obj 287 257 spigot;
#X obj 326 222 tgl 15 0 empty empty empty 17 7 0 10 #fcfcfc #000000 #000000 0 1;
#X text 343 218 build!;
#X obj 435 237 sel 1;
#X msg 435 262 -1;
#X obj 287 287 text set \$0.keyboard2 1e+06, f 18;
#X obj 435 287 text delete \$0.keyboard2, f 12;
#X obj 71 377 + 12;
#X obj 71 402 + \$1;
#X obj 25 250 f;
#X obj 82 200 t f f;
#X obj 32 308 text search \$0.keyboard2, f 12;
#X obj 223 447 limit-range 0 128;
#X obj 517 217 * 12;
#X obj 502 52 sel 1;
#X obj 527 109 t b f;
#X obj 517 138 f;
#X obj 517 163 +;
#X obj 566 52 sel 1;
#X msg 502 77 1;
#X msg 566 77 -1;
#X obj 297 64 s oct\$0;
#X obj 216 301 r oct\$0;
#X floatatom 297 40 3 0 0 0 - - - 0;
#X obj 517 190 max 0;
#X obj 502 27 stroke +;
#X obj 566 27 stroke -;
#X connect 0 0 2 0;
#X connect 1 0 5 0;
#X connect 1 0 23 0;
#X connect 1 0 19 0;
#X connect 2 0 11 0;
#X connect 5 0 4 0;
#X connect 6 0 5 1;
#X connect 6 0 8 0;
#X connect 8 0 9 0;
#X connect 9 0 10 0;
#X connect 11 0 33 0;
#X connect 11 1 12 1;
#X connect 12 0 35 0;
#X connect 13 0 21 0;
#X connect 14 0 12 0;
#X connect 16 0 17 0;
#X connect 17 0 18 0;
#X connect 18 1 19 1;
#X connect 19 0 11 0;
#X connect 21 0 32 0;
#X connect 21 1 14 0;
#X connect 22 1 30 0;
#X connect 23 0 28 0;
#X connect 24 0 23 1;
#X connect 24 0 26 0;
#X connect 26 0 27 0;
#X connect 27 0 29 0;
#X connect 30 0 31 0;
#X connect 31 0 12 0;
#X connect 32 0 34 0;
#X connect 33 0 13 0;
#X connect 33 1 32 1;
#X connect 34 0 22 0;
#X connect 35 0 15 0;
#X connect 36 0 46 0;
#X connect 37 0 42 0;
#X connect 38 0 39 0;
#X connect 38 1 40 1;
#X connect 39 0 40 0;
#X connect 40 0 47 0;
#X connect 41 0 43 0;
#X connect 42 0 38 0;
#X connect 43 0 38 0;
#X connect 45 0 14 1;
#X connect 45 0 31 1;
#X connect 46 0 44 0;
#X connect 47 0 39 1;
#X connect 47 0 36 0;
#X connect 48 0 37 0;
#X connect 49 0 41 0;
#X coords 0 -1 1 1 60 20 1 260 40;
