#N canvas 647 233 450 300 12;
#N canvas 806 394 378 215 sine 0;
#X obj 52 36 inlet~;
#X obj 52 61 +~ 0.25;
#X obj 52 86 cos~;
#X obj 52 164 outlet~;
#X obj 52 137 +~;
#X obj 122 109 / 2;
#X obj 52 111 *~ 1;
#X obj 273 88 == 0;
#X obj 273 113 switch~;
#X obj 122 138 +;
#X obj 273 62 r \$0wave;
#X obj 122 80 --;
#X obj 122 51 r set-max\$0;
#X obj 169 89 r set-min\$0;
#X connect 0 0 1 0;
#X connect 1 0 2 0;
#X connect 2 0 6 0;
#X connect 4 0 3 0;
#X connect 5 0 6 1;
#X connect 5 0 9 0;
#X connect 6 0 4 0;
#X connect 7 0 8 0;
#X connect 9 0 4 1;
#X connect 10 0 7 0;
#X connect 11 0 5 0;
#X connect 12 0 11 0;
#X connect 13 0 11 1;
#X connect 13 0 9 1;
#X restore 45 151 pd sine;
#N canvas 158 275 334 300 square 0;
#X obj 50 89 wrap~;
#X obj 32 113 -~;
#X obj 97 119 lop~ 20;
#X obj 32 138 +~;
#X obj 50 64 +~;
#X obj 106 90 sig~ 0.5;
#X obj 97 66 inlet~;
#X obj 33 27 inlet~;
#X obj 32 213 outlet~;
#X obj 208 112 switch~;
#X obj 208 87 == 2;
#X obj 90 176 -, f 5;
#X obj 143 209 t b f;
#X obj 32 188 +~;
#X obj 32 163 *~ 1;
#X obj 208 62 r \$0wave;
#X obj 90 149 r set-max\$0;
#X obj 143 176 r set-min\$0;
#X connect 0 0 1 1;
#X connect 1 0 3 0;
#X connect 2 0 4 1;
#X connect 2 0 3 1;
#X connect 3 0 14 0;
#X connect 4 0 0 0;
#X connect 5 0 2 0;
#X connect 6 0 2 0;
#X connect 7 0 4 0;
#X connect 7 0 1 0;
#X connect 10 0 9 0;
#X connect 11 0 14 1;
#X connect 12 0 11 0;
#X connect 12 1 11 1;
#X connect 12 1 13 1;
#X connect 13 0 8 0;
#X connect 14 0 13 0;
#X connect 15 0 10 0;
#X connect 16 0 11 0;
#X connect 17 0 12 0;
#X restore 161 151 pd square;
#N canvas 814 208 371 236 tri 0;
#X obj 29 24 inlet~;
#X obj 84 171 outlet~;
#X obj 28 77 min~ 0;
#X obj 29 50 -~ 0.5;
#X obj 85 43 *~ -0.5;
#X obj 84 96 +~ 0.5;
#X obj 157 76 -;
#X obj 200 102 t b f;
#X obj 84 146 +~;
#X obj 84 121 *~ 1;
#X obj 290 160 switch~;
#X obj 290 135 == 1;
#X obj 157 101 * 4;
#X obj 290 111 r \$0wave;
#X obj 157 51 r set-max\$0;
#X obj 200 76 r set-min\$0;
#X connect 0 0 3 0;
#X connect 0 0 4 0;
#X connect 2 0 5 0;
#X connect 3 0 2 0;
#X connect 4 0 5 0;
#X connect 5 0 9 0;
#X connect 6 0 12 0;
#X connect 7 0 6 0;
#X connect 7 1 6 1;
#X connect 7 1 8 1;
#X connect 8 0 1 0;
#X connect 9 0 8 0;
#X connect 11 0 10 0;
#X connect 12 0 9 1;
#X connect 13 0 11 0;
#X connect 14 0 6 0;
#X connect 15 0 7 0;
#X restore 107 151 pd tri;
#N canvas 780 303 377 197 ramp 0;
#X obj 16 16 inlet~;
#X obj 71 40 -;
#X obj 103 81 t b f;
#X obj 16 42 *~ 1;
#X obj 16 67 +~;
#X obj 16 92 outlet~;
#X obj 218 62 == 3;
#X obj 218 87 switch~;
#X obj 218 37 r \$0wave;
#X obj 71 15 r set-max\$0;
#X obj 122 41 r set-min\$0;
#X connect 0 0 3 0;
#X connect 1 0 3 1;
#X connect 2 0 1 0;
#X connect 2 1 1 1;
#X connect 2 1 4 1;
#X connect 3 0 4 0;
#X connect 4 0 5 0;
#X connect 6 0 7 0;
#X connect 8 0 6 0;
#X connect 9 0 1 0;
#X connect 10 0 2 0;
#X restore 238 151 pd ramp;
#N canvas 242 404 328 202 saw 0;
#X obj 27 57 inlet~;
#X obj 27 132 outlet~;
#X obj 247 121 == 4;
#X obj 27 82 *~ -1;
#X obj 27 107 +~ 1;
#X obj 247 146 switch~;
#X obj 81 56 -;
#X obj 133 107 t b f;
#X obj 81 82 * -1;
#X obj 123 138 +;
#X obj 247 96 r \$0wave;
#X obj 81 31 r set-max\$0;
#X obj 154 68 r set-min\$0;
#X connect 0 0 3 0;
#X connect 2 0 5 0;
#X connect 3 0 4 0;
#X connect 4 0 1 0;
#X connect 6 0 8 0;
#X connect 6 0 9 0;
#X connect 7 0 6 0;
#X connect 7 1 6 1;
#X connect 7 1 9 1;
#X connect 8 0 3 1;
#X connect 9 0 4 1;
#X connect 10 0 2 0;
#X connect 11 0 6 0;
#X connect 12 0 7 0;
#X restore 298 151 pd saw;
#X obj 289 51 broadcast \$0;
#X obj 190 27 inlet~ fwd;
#X obj 161 229 outlet~;
#X obj 161 204 lop~ 3000;
#X obj 161 107 phasor~;
#X obj 207 57 r \$0reset;
#X msg 207 82 0;
#N canvas 458 221 328 291 unit 1;
#X obj 28 52 r \$0max;
#X obj 168 53 r \$0min;
#X obj 102 25 r \$0unit;
#X obj 205 211 expr pow(2 \, $f1/1200) - 1, f 13;
#X obj 65 211 expr pow(2 \, $f1/1200) - 1, f 13;
#X obj 28 256 s set-max\$0;
#X obj 168 256 s set-min\$0;
#X obj 28 108 demux . . .;
#X obj 168 108 demux . . .;
#X obj 242 133 + 100;
#X obj 242 158 dbtorms;
#X obj 242 183 - 1;
#X obj 102 133 + 100;
#X obj 102 158 dbtorms;
#X obj 102 183 - 1;
#X obj 28 81 f;
#X obj 168 82 f;
#X obj 102 50 t b f;
#X connect 0 0 15 0;
#X connect 1 0 16 0;
#X connect 2 0 17 0;
#X connect 3 0 6 0;
#X connect 4 0 5 0;
#X connect 7 0 5 0;
#X connect 7 1 4 0;
#X connect 7 2 12 0;
#X connect 8 0 6 0;
#X connect 8 1 3 0;
#X connect 8 2 9 0;
#X connect 9 0 10 0;
#X connect 10 0 11 0;
#X connect 11 0 6 0;
#X connect 12 0 13 0;
#X connect 13 0 14 0;
#X connect 14 0 5 0;
#X connect 15 0 7 0;
#X connect 16 0 8 0;
#X connect 17 0 16 0;
#X connect 17 0 15 0;
#X connect 17 1 7 1;
#X connect 17 1 8 1;
#X restore 293 92 pd unit;
#X obj 130 50 r \$0rate;
#X obj 130 75 modulate~;
#X connect 0 0 8 0;
#X connect 1 0 8 0;
#X connect 2 0 8 0;
#X connect 3 0 8 0;
#X connect 4 0 8 0;
#X connect 6 0 14 1;
#X connect 6 1 5 0;
#X connect 8 0 7 0;
#X connect 9 0 0 0;
#X connect 9 0 4 0;
#X connect 9 0 3 0;
#X connect 9 0 2 0;
#X connect 9 0 1 0;
#X connect 10 0 11 0;
#X connect 11 0 9 1;
#X connect 13 0 14 0;
#X connect 14 0 9 0;
