#N canvas 647 233 450 300 12;
#X obj 158 88 modulate~;
#X obj 158 113 phasor~;
#N canvas 806 394 378 215 sine 1;
#X obj 52 36 inlet~;
#X obj 52 61 +~ 0.25;
#X obj 52 86 cos~;
#X obj 52 164 outlet~;
#X obj 52 137 +~;
#X obj 122 109 / 2;
#X obj 52 111 *~ 1;
#X obj 273 88 == 0;
#X obj 273 113 switch~;
#X obj 122 138 +;
#X obj 122 51 r \$0max;
#X obj 169 89 r \$0min;
#X obj 273 62 r \$0wave;
#X obj 122 80 --;
#X connect 0 0 1 0;
#X connect 1 0 2 0;
#X connect 2 0 6 0;
#X connect 4 0 3 0;
#X connect 5 0 6 1;
#X connect 5 0 9 0;
#X connect 6 0 4 0;
#X connect 7 0 8 0;
#X connect 9 0 4 1;
#X connect 10 0 13 0;
#X connect 11 0 13 1;
#X connect 11 0 9 1;
#X connect 12 0 7 0;
#X connect 13 0 5 0;
#X restore 42 181 pd sine;
#N canvas 158 275 334 300 square 0;
#X obj 50 89 wrap~;
#X obj 32 113 -~;
#X obj 97 119 lop~ 20;
#X obj 32 138 +~;
#X obj 50 64 +~;
#X obj 106 90 sig~ 0.5;
#X obj 97 66 inlet~;
#X obj 33 27 inlet~;
#X obj 32 213 outlet~;
#X obj 208 112 switch~;
#X obj 208 87 == 2;
#X obj 90 176 -, f 5;
#X obj 143 209 t b f;
#X obj 32 188 +~;
#X obj 32 163 *~ 1;
#X obj 208 62 r \$0setWave;
#X obj 90 149 r \$0setmax;
#X obj 143 176 r \$0setmin;
#X connect 0 0 1 1;
#X connect 1 0 3 0;
#X connect 2 0 4 1;
#X connect 2 0 3 1;
#X connect 3 0 14 0;
#X connect 4 0 0 0;
#X connect 5 0 2 0;
#X connect 6 0 2 0;
#X connect 7 0 4 0;
#X connect 7 0 1 0;
#X connect 10 0 9 0;
#X connect 11 0 14 1;
#X connect 12 0 11 0;
#X connect 12 1 11 1;
#X connect 12 1 13 1;
#X connect 13 0 8 0;
#X connect 14 0 13 0;
#X connect 15 0 10 0;
#X connect 16 0 11 0;
#X connect 17 0 12 0;
#X restore 158 181 pd square;
#N canvas 814 208 371 236 tri 0;
#X obj 29 24 inlet~;
#X obj 84 171 outlet~;
#X obj 28 77 min~ 0;
#X obj 29 50 -~ 0.5;
#X obj 85 43 *~ -0.5;
#X obj 84 96 +~ 0.5;
#X obj 157 76 -;
#X obj 200 102 t b f;
#X obj 84 146 +~;
#X obj 84 121 *~ 1;
#X obj 284 77 switch~;
#X obj 284 52 == 1;
#X obj 157 101 * 4;
#X obj 284 28 r \$0setWave;
#X obj 157 51 r \$0setmax;
#X obj 200 76 r \$0setmin;
#X connect 0 0 3 0;
#X connect 0 0 4 0;
#X connect 2 0 5 0;
#X connect 3 0 2 0;
#X connect 4 0 5 0;
#X connect 5 0 9 0;
#X connect 6 0 12 0;
#X connect 7 0 6 0;
#X connect 7 1 6 1;
#X connect 7 1 8 1;
#X connect 8 0 1 0;
#X connect 9 0 8 0;
#X connect 11 0 10 0;
#X connect 12 0 9 1;
#X connect 13 0 11 0;
#X connect 14 0 6 0;
#X connect 15 0 7 0;
#X restore 104 181 pd tri;
#N canvas 780 303 377 197 ramp 0;
#X obj 16 16 inlet~;
#X obj 71 40 -;
#X obj 103 81 t b f;
#X obj 16 42 *~ 1;
#X obj 16 67 +~;
#X obj 16 92 outlet~;
#X obj 218 62 == 3;
#X obj 218 87 switch~;
#X obj 218 37 r \$0setWave;
#X obj 71 15 r \$0setmax;
#X obj 123 41 r \$0setmin;
#X connect 0 0 3 0;
#X connect 1 0 3 1;
#X connect 2 0 1 0;
#X connect 2 1 1 1;
#X connect 2 1 4 1;
#X connect 3 0 4 0;
#X connect 4 0 5 0;
#X connect 6 0 7 0;
#X connect 8 0 6 0;
#X connect 9 0 1 0;
#X connect 10 0 2 0;
#X restore 235 181 pd ramp;
#N canvas 242 404 328 202 saw 0;
#X obj 27 57 inlet~;
#X obj 27 132 outlet~;
#X obj 231 75 == 4;
#X obj 27 82 *~ -1;
#X obj 27 107 +~ 1;
#X obj 231 100 switch~;
#X obj 81 56 -;
#X obj 133 107 t b f;
#X obj 81 82 * -1;
#X obj 123 138 +;
#X obj 231 50 r \$0setWave;
#X obj 81 31 r \$0setmax;
#X obj 153 68 r \$0setmin;
#X connect 0 0 3 0;
#X connect 2 0 5 0;
#X connect 3 0 4 0;
#X connect 4 0 1 0;
#X connect 6 0 8 0;
#X connect 6 0 9 0;
#X connect 7 0 6 0;
#X connect 7 1 6 1;
#X connect 7 1 9 1;
#X connect 8 0 3 1;
#X connect 9 0 4 1;
#X connect 10 0 2 0;
#X connect 11 0 6 0;
#X connect 12 0 7 0;
#X restore 295 181 pd saw;
#X obj 150 60 r \$0rate;
#X obj 218 33 inlet~ fwd;
#X obj 170 234 outlet~;
#X connect 0 0 1 0;
#X connect 1 0 2 0;
#X connect 1 0 6 0;
#X connect 1 0 5 0;
#X connect 1 0 4 0;
#X connect 1 0 3 0;
#X connect 2 0 9 0;
#X connect 3 0 9 0;
#X connect 4 0 9 0;
#X connect 5 0 9 0;
#X connect 6 0 9 0;
#X connect 7 0 0 0;
#X connect 8 0 0 1;
