#N canvas 623 137 543 407 12;
#X obj 79 96 inlet~;
#X obj 179 153 inlet~;
#X obj 79 332 outlet~;
#N canvas 458 275 450 300 saw 0;
#X obj 133 81 inlet~;
#X obj 133 211 outlet~;
#X obj 269 73 inlet;
#X obj 269 138 switch~;
#X obj 269 107 == 0;
#X obj 133 144 *~ 0.5;
#X obj 133 169 +~ 0.5;
#X obj 133 106 else/bl.saw~;
#X connect 0 0 7 0;
#X connect 2 0 4 0;
#X connect 4 0 3 0;
#X connect 5 0 6 0;
#X connect 6 0 1 0;
#X connect 7 0 5 0;
#X restore 9 186 pd saw;
#N canvas 458 275 450 300 tri 0;
#X obj 133 81 inlet~;
#X obj 133 106 else/bl.tri~;
#X obj 133 201 outlet~;
#X obj 269 73 inlet;
#X obj 269 138 switch~;
#X obj 269 107 == 1;
#X obj 133 142 *~ 0.5;
#X obj 133 167 +~ 0.5;
#X connect 0 0 1 0;
#X connect 1 0 6 0;
#X connect 3 0 5 0;
#X connect 5 0 4 0;
#X connect 6 0 7 0;
#X connect 7 0 2 0;
#X restore 79 186 pd tri;
#N canvas 458 275 450 300 square 0;
#X obj 107 52 inlet~;
#X obj 135 258 outlet~;
#X obj 195 33 inlet~;
#X obj 309 63 inlet;
#X obj 309 128 switch~;
#X obj 309 97 == 2;
#X obj 135 149 *~ 0.5;
#X obj 135 174 +~ 0.5;
#X obj 135 123 else/bl.square~;
#X obj 169 93 +~ 0.5;
#X obj 169 64 clip~ -0.4 0.4;
#X obj 135 202 lop~ 600;
#X obj 135 227 lop~ 600;
#X connect 0 0 8 0;
#X connect 2 0 10 0;
#X connect 3 0 5 0;
#X connect 5 0 4 0;
#X connect 6 0 7 0;
#X connect 7 0 11 0;
#X connect 8 0 6 0;
#X connect 9 0 8 1;
#X connect 10 0 9 0;
#X connect 11 0 12 0;
#X connect 12 0 1 0;
#X restore 149 186 pd square;
#X obj 327 92 loadbang;
#X msg 327 117 args;
#X obj 327 142 pdcontrol;
#X obj 334 298 swap;
#X obj 334 324 -, f 4;
#X obj 79 276 *~ 1;
#X obj 79 304 +~ 0;
#X obj 327 172 unpack s f f f s;
#X text 12 14 args: type \, min \, max \, freq \, cents | db | empty;
#N canvas 458 275 450 300 toggle-unit 0;
#X obj 291 89 list trim;
#X obj 193 203 cents2ratio;
#X obj 86 199 cents2ratio;
#X msg 291 141 1, f 2;
#X obj 70 68 inlet;
#X obj 177 68 inlet;
#X obj 291 60 inlet;
#X obj 70 260 outlet;
#X obj 177 260 outlet;
#X obj 86 229 - 1;
#X obj 193 231 - 1;
#X obj 291 116 route cents db;
#X obj 70 93 ABC, f 5;
#X obj 177 93 ABC, f 5;
#X obj 209 173 dbtorms;
#X obj 102 155 dbtorms;
#X msg 338 143 2, f 2;
#X obj 102 129 + 100;
#X obj 209 146 + 100;
#X obj 22 29 r \$0min;
#X obj 124 31 r \$0max;
#X connect 0 0 11 0;
#X connect 1 0 10 0;
#X connect 2 0 9 0;
#X connect 3 0 13 1;
#X connect 3 0 12 1;
#X connect 4 0 12 0;
#X connect 5 0 13 0;
#X connect 6 0 0 0;
#X connect 9 0 7 0;
#X connect 10 0 8 0;
#X connect 11 0 3 0;
#X connect 11 1 16 0;
#X connect 12 0 7 0;
#X connect 12 1 2 0;
#X connect 12 2 17 0;
#X connect 13 0 8 0;
#X connect 13 1 1 0;
#X connect 13 2 18 0;
#X connect 14 0 8 0;
#X connect 15 0 7 0;
#X connect 16 0 13 1;
#X connect 16 0 12 1;
#X connect 17 0 15 0;
#X connect 18 0 14 0;
#X connect 19 0 12 0;
#X connect 20 0 13 0;
#X restore 334 226 pd toggle-unit;
#X obj 179 83 find-index saw tri square sine, f 16;
#N canvas 458 275 450 300 sine 0;
#X obj 133 81 inlet~;
#X obj 133 201 outlet~;
#X obj 269 73 inlet;
#X obj 269 138 switch~;
#X obj 133 142 *~ 0.5;
#X obj 133 167 +~ 0.5;
#X obj 133 106 osc~;
#X obj 269 107 == 3;
#X connect 0 0 6 0;
#X connect 2 0 7 0;
#X connect 4 0 5 0;
#X connect 5 0 1 0;
#X connect 6 0 4 0;
#X connect 7 0 3 0;
#X restore 227 186 pd sine;
#X obj 410 66 inlet;
#X obj 410 91 broadcast \$0;
#X obj 179 51 r \$0wave;
#X connect 0 0 4 0;
#X connect 0 0 5 0;
#X connect 0 0 3 0;
#X connect 0 0 17 0;
#X connect 1 0 5 1;
#X connect 3 0 11 0;
#X connect 4 0 11 0;
#X connect 5 0 11 0;
#X connect 6 0 7 0;
#X connect 7 0 8 0;
#X connect 8 0 13 0;
#X connect 9 0 10 0;
#X connect 9 1 10 1;
#X connect 10 0 11 1;
#X connect 11 0 12 0;
#X connect 12 0 2 0;
#X connect 13 0 16 0;
#X connect 13 1 15 0;
#X connect 13 2 15 1;
#X connect 13 3 0 0;
#X connect 13 4 15 2;
#X connect 15 0 9 0;
#X connect 15 0 12 1;
#X connect 15 1 9 1;
#X connect 16 0 5 2;
#X connect 16 0 4 1;
#X connect 16 0 3 1;
#X connect 16 0 17 1;
#X connect 17 0 11 0;
#X connect 18 0 19 0;
#X connect 20 0 16 0;
