#N canvas 567 203 413 370 10;
#X obj 201 128 inlet;
#X obj 32 98 inlet;
#X obj 112 30 list length;
#X obj 94 216 list split;
#X obj 112 76 until;
#X obj 112 103 f;
#X obj 152 103 + 1;
#X obj 112 52 t f b;
#X msg 150 76 0, f 2;
#X obj 94 193 list;
#X msg 122 240 \$1;
#X obj 32 121 t a a;
#X obj 163 216 list split;
#X obj 163 193 list;
#X obj 122 263 list prepend;
#X obj 112 131 t b b f;
#X obj 122 288 list trim;
#X obj 122 311 outlet;
#X obj 274 30 loadbang;
#X msg 274 53 args;
#X obj 274 76 pdcontrol;
#X obj 191 239 list split 1;
#X connect 0 0 13 1;
#X connect 1 0 11 0;
#X connect 2 0 7 0;
#X connect 3 1 10 0;
#X connect 4 0 5 0;
#X connect 5 0 6 0;
#X connect 5 0 15 0;
#X connect 6 0 5 1;
#X connect 7 0 4 0;
#X connect 7 1 8 0;
#X connect 8 0 5 1;
#X connect 9 0 3 0;
#X connect 10 0 14 0;
#X connect 11 0 2 0;
#X connect 11 1 9 1;
#X connect 12 1 21 0;
#X connect 13 0 12 0;
#X connect 14 0 16 0;
#X connect 15 0 9 0;
#X connect 15 1 13 0;
#X connect 15 2 12 1;
#X connect 15 2 3 1;
#X connect 16 0 17 0;
#X connect 18 0 19 0;
#X connect 19 0 20 0;
#X connect 20 0 13 1;
#X connect 21 0 14 1;
