#N canvas 555 211 315 275 10;
#X obj 143 43 inlet;
#X obj 143 90 list length;
#X obj 149 181 list split;
#X obj 74 46 until;
#X obj 74 73 f;
#X obj 114 73 + 1;
#X obj 74 22 t f b;
#X msg 112 46 0, f 2;
#X obj 149 157 list;
#X msg 177 203 \$1;
#X obj 143 66 t a a;
#X obj 177 226 outlet;
#X obj 74 102 t f b f, f 8;
#X obj 194 120 outlet;
#X connect 0 0 10 0;
#X connect 1 0 6 0;
#X connect 2 1 9 0;
#X connect 3 0 4 0;
#X connect 4 0 5 0;
#X connect 4 0 12 0;
#X connect 5 0 4 1;
#X connect 6 0 3 0;
#X connect 6 1 7 0;
#X connect 7 0 4 1;
#X connect 8 0 2 0;
#X connect 9 0 11 0;
#X connect 10 0 1 0;
#X connect 10 1 8 1;
#X connect 12 1 8 0;
#X connect 12 2 2 1;
#X connect 12 2 13 0;
