#N canvas 458 221 450 300 12;
#X obj 51 27 inlet;
#X msg 51 52 symbol ~/samples;
#X obj 51 77 openpanel;
#X msg 51 128 read -resize \$1 \$2;
#X obj 51 153 soundfiler;
#X obj 51 178 pack f f;
#X obj 51 203 prepend table \$1;
#X obj 51 228 outlet;
#X obj 118 178 f;
#X obj 51 103 pack s s;
#X obj 191 27 loadbang;
#X msg 191 52 args;
#X obj 191 77 pdcontrol;
#X obj 191 102 route symbol;
#X text 237 153 \$1 = array name;
#X connect 0 0 1 0;
#X connect 1 0 2 0;
#X connect 2 0 9 0;
#X connect 3 0 4 0;
#X connect 4 0 5 0;
#X connect 4 1 8 0;
#X connect 5 0 6 0;
#X connect 6 0 7 0;
#X connect 8 0 5 1;
#X connect 9 0 3 0;
#X connect 10 0 11 0;
#X connect 11 0 12 0;
#X connect 12 0 13 0;
#X connect 13 0 9 1;
