#N canvas 464 69 356 492 12;
#X obj 42 22 inlet;
#X obj 42 70 b;
#X obj 60 164 openpanel 1;
#X obj 60 252 else/dir, f 14;
#X obj 78 70 else/click;
#X msg 60 223 open \$1 \, dump;
#X obj 60 193 t s s, f 8;
#X obj 60 281 pack s s;
#X msg 60 310 symbol \$2/\$1;
#X obj 60 363 f;
#X obj 131 364 + 1;
#X obj 60 335 t b s, f 8;
#X obj 60 393 pack f s;
#X obj 60 447 outlet;
#X obj 60 108 t b b;
#X msg 60 420 \$1 file \$2;
#X obj 196 310 0;
#X obj 42 50 route bang offset;
#X obj 208 251 print loading;
#X obj 60 136 symbol ~/samples;
#X connect 0 0 17 0;
#X connect 1 0 14 0;
#X connect 2 0 6 0;
#X connect 3 0 7 0;
#X connect 3 0 18 0;
#X connect 4 0 14 0;
#X connect 5 0 3 0;
#X connect 6 0 5 0;
#X connect 6 1 7 1;
#X connect 7 0 8 0;
#X connect 8 0 11 0;
#X connect 9 0 10 0;
#X connect 9 0 12 0;
#X connect 10 0 9 1;
#X connect 11 0 9 0;
#X connect 11 1 12 1;
#X connect 12 0 15 0;
#X connect 14 0 19 0;
#X connect 14 1 16 0;
#X connect 15 0 13 0;
#X connect 16 0 9 1;
#X connect 17 0 1 0;
#X connect 17 1 16 1;
#X connect 19 0 2 0;
