#N canvas 602 156 340 324 12;
#X obj 70 15 inlet;
#X msg 70 68 symbol ~/samples;
#X obj 70 93 openpanel;
#X msg 118 181 read -resize \$1 \$2;
#X obj 118 206 soundfiler;
#X obj 118 231 pack f f;
#X obj 118 256 prepend table \$1;
#X obj 118 281 outlet;
#X obj 185 231 f;
#X obj 118 156 pack s s;
#X obj 166 127 t b s;
#X obj 70 40 route bang file table reload;
#X connect 0 0 11 0;
#X connect 1 0 2 0;
#X connect 2 0 9 0;
#X connect 3 0 4 0;
#X connect 4 0 5 0;
#X connect 4 1 8 0;
#X connect 5 0 6 0;
#X connect 6 0 7 0;
#X connect 8 0 5 1;
#X connect 9 0 3 0;
#X connect 10 0 9 0;
#X connect 10 1 9 1;
#X connect 11 0 1 0;
#X connect 11 1 9 0;
#X connect 11 2 10 0;
#X connect 11 3 9 0;
