#N canvas 399 115 322 363 12;
#X obj 57 25 inlet;
#X msg 57 123 symbol ~/samples;
#X obj 57 148 openpanel;
#X msg 57 199 read -resize \$1 \$2;
#X obj 57 224 soundfiler;
#X obj 57 269 pack f f;
#X obj 57 322 outlet;
#X obj 124 249 f;
#X obj 57 174 pack s s;
#X obj 57 297 prepend;
#X msg 166 277 table \$1;
#X obj 211 231 b;
#X obj 57 55 route bang table reload;
#X obj 109 88 symbol;
#X connect 0 0 12 0;
#X connect 1 0 2 0;
#X connect 2 0 8 0;
#X connect 3 0 4 0;
#X connect 4 0 5 0;
#X connect 4 1 7 0;
#X connect 5 0 9 0;
#X connect 7 0 5 1;
#X connect 8 0 3 0;
#X connect 9 0 6 0;
#X connect 10 0 9 1;
#X connect 11 0 5 0;
#X connect 12 0 1 0;
#X connect 12 1 13 0;
#X connect 12 2 11 0;
#X connect 13 0 8 1;
#X connect 13 0 10 0;
