#N canvas 458 221 450 300 12;
#X obj 39 168 inlet~;
#X obj 39 218 dac~;
#X obj 107 119 hsl 50 15 0 1 0 0 empty empty empty -2 -8 0 10 #fcfcfc
#000000 #000000 0 1;
#X obj 104 149 pow 3;
#X obj 104 174 lop~ 50;
#X obj 39 193 *~;
#X obj 104 49 loadbang;
#X msg 104 74 1;
#X connect 0 0 5 0;
#X connect 2 0 3 0;
#X connect 3 0 4 0;
#X connect 4 0 5 1;
#X connect 5 0 1 0;
#X connect 5 0 1 1;
#X connect 6 0 7 0;
#X connect 7 0 2 0;
#X coords 0 -1 1 1 64 40 1 100 100;
