#N canvas 639 229 450 300 12;
#X obj 201 107 max 1;
#X obj 201 132 sig~ 1;
#X obj 201 157 lop~ 50;
#X obj 73 211 outlet~;
#X obj 73 183 expr~ atan($v1*$v2) * pow(1/$v2 \, $f3);
#X obj 329 124 loadbang;
#X msg 329 149 0.6;
#X obj 73 61 inlet~ fwd;
#X obj 201 81 route gain compensation;
#X connect 0 0 1 0;
#X connect 1 0 2 0;
#X connect 2 0 4 1;
#X connect 4 0 3 0;
#X connect 5 0 6 0;
#X connect 6 0 4 2;
#X connect 7 0 4 0;
#X connect 7 1 8 0;
#X connect 8 0 0 0;
#X connect 8 1 4 2;
