#N canvas 154 190 995 335 12;
#X obj 706 294 namecanvas here;
#X obj 707 267 s here;
#X msg 707 242 obj \$1 \$2 table smp\$3;
#X obj 707 69 t f f;
#X obj 707 190 + 20;
#X obj 747 190 + 20;
#X obj 707 97 % 8;
#X obj 747 97 div 8;
#X msg 707 18 48;
#X obj 707 165 * 84;
#X obj 747 165 * 23;
#X obj 707 122 t f f;
#X obj 805 180 makefilename;
#X obj 707 216 pack f f s, f 12;
#X msg 826 153 set \$1;
#X obj 826 127 makefilename %d%%d;
#X obj 826 100 + 1;
#X obj 805 73 + 1;
#X obj 20 18 table smp11;
#X obj 104 18 table smp12;
#X obj 188 18 table smp13;
#X obj 272 18 table smp14;
#X obj 356 18 table smp15;
#X obj 440 18 table smp16;
#X obj 524 18 table smp17;
#X obj 608 18 table smp18;
#X obj 20 41 table smp21;
#X obj 104 41 table smp22;
#X obj 188 41 table smp23;
#X obj 272 41 table smp24;
#X obj 356 41 table smp25;
#X obj 440 41 table smp26;
#X obj 524 41 table smp27;
#X obj 608 41 table smp28;
#X obj 20 64 table smp31;
#X obj 104 64 table smp32;
#X obj 188 64 table smp33;
#X obj 272 64 table smp34;
#X obj 356 64 table smp35;
#X obj 440 64 table smp36;
#X obj 524 64 table smp37;
#X obj 608 64 table smp38;
#X obj 20 87 table smp41;
#X obj 104 87 table smp42;
#X obj 188 87 table smp43;
#X obj 272 87 table smp44;
#X obj 356 87 table smp45;
#X obj 440 87 table smp46;
#X obj 524 87 table smp47;
#X obj 608 87 table smp48;
#X obj 20 110 table smp51;
#X obj 104 110 table smp52;
#X obj 188 110 table smp53;
#X obj 272 110 table smp54;
#X obj 356 110 table smp55;
#X obj 440 110 table smp56;
#X obj 524 110 table smp57;
#X obj 608 110 table smp58;
#X obj 20 133 table smp61;
#X obj 104 133 table smp62;
#X obj 188 133 table smp63;
#X obj 272 133 table smp64;
#X obj 356 133 table smp65;
#X obj 440 133 table smp66;
#X obj 524 133 table smp67;
#X obj 608 133 table smp68;
#X obj 707 43 num-seq;
#X connect 2 0 1 0;
#X connect 3 0 6 0;
#X connect 3 1 7 0;
#X connect 4 0 13 0;
#X connect 5 0 13 1;
#X connect 6 0 11 0;
#X connect 7 0 10 0;
#X connect 7 0 16 0;
#X connect 8 0 66 0;
#X connect 9 0 4 0;
#X connect 10 0 5 0;
#X connect 11 0 9 0;
#X connect 11 1 17 0;
#X connect 12 0 13 2;
#X connect 13 0 2 0;
#X connect 14 0 12 0;
#X connect 15 0 14 0;
#X connect 16 0 15 0;
#X connect 17 0 12 0;
#X connect 66 0 3 0;
