#N canvas 0 95 450 335 12;
#X obj 51 32 inlet;
#X obj 51 57 t f f;
#X obj 207 79 inlet;
#X obj 207 104 t a a;
#X obj 120 59 list length;
#X obj 102 126 * 12;
#X obj 51 195 list split;
#X obj 51 140 t b f;
#X obj 84 221 f;
#X obj 84 246 +;
#X obj 84 271 outlet;
#X obj 262 34 loadbang;
#X msg 262 59 args;
#X obj 262 84 pdcontrol;
#X obj 51 170 list 0 2 4 5 7 9 11;
#X text 206 164 map linear ramp into scale \, defaults at major scale, f 27;
#X obj 51 101 mod 7;
#X obj 102 101 div 7;
#X obj 262 110 route list;
#X connect 0 0 1 0;
#X connect 1 0 16 0;
#X connect 1 1 17 0;
#X connect 2 0 3 0;
#X connect 3 0 4 0;
#X connect 3 1 14 1;
#X connect 4 0 16 1;
#X connect 4 0 17 1;
#X connect 5 0 9 1;
#X connect 6 1 8 0;
#X connect 7 0 14 0;
#X connect 7 1 6 1;
#X connect 8 0 9 0;
#X connect 9 0 10 0;
#X connect 11 0 12 0;
#X connect 12 0 13 0;
#X connect 13 0 18 0;
#X connect 14 0 6 0;
#X connect 16 0 7 0;
#X connect 17 0 5 0;
#X connect 18 0 3 0;
