#N canvas 693 168 378 453 12;
#X floatatom 201 225 8 0 0 0 - - - 0;
#X obj 119 138 t f f;
#X obj 151 174 / 512;
#X obj 119 205 until;
#X obj 119 230 else/count;
#X obj 119 255 t f f;
#X msg 254 181 set 0;
#X obj 183 382 else/count;
#X obj 215 258 - 1;
#X obj 183 290 %;
#X obj 183 315 sel, f 5;
#N canvas 663 153 310 307 block-average 0;
#X obj 65 44 inlet;
#X obj 65 182 f;
#X obj 112 182 +;
#X obj 94 219 f;
#X obj 217 132 inlet;
#X obj 159 203 inlet;
#X obj 94 269 outlet;
#X obj 65 69 t b f;
#X obj 94 244 /;
#X obj 217 156 b;
#X msg 143 102 0;
#X obj 97 100 abs;
#X obj 130 153 sqrt;
#X text 51 6 mean of squares have a better graph than RMS!, f 23;
#X connect 0 0 7 0;
#X connect 1 0 2 0;
#X connect 2 0 1 1;
#X connect 2 0 3 1;
#X connect 3 0 8 0;
#X connect 4 0 9 0;
#X connect 5 0 8 1;
#X connect 7 0 1 0;
#X connect 7 1 11 0;
#X connect 8 0 6 0;
#X connect 9 0 3 0;
#X connect 9 0 10 0;
#X connect 10 0 1 1;
#X connect 11 0 12 0;
#X connect 12 0 2 1;
#X restore 51 382 pd block-average;
#X obj 183 340 t b b;
#X obj 201 200 i;
#X obj 119 110 array size \$1;
#X obj 51 310 tabread \$1;
#X obj 81 415 tabwrite \$2;
#X obj 236 113 loadbang;
#X obj 236 138 array size \$2;
#X obj 119 59 inlet;
#X obj 119 84 b;
#X msg 284 298 edit 0;
#X obj 284 323 s \$2;
#X obj 207 64 inlet;
#X obj 51 57 symbol;
#X msg 51 251 set \$1;
#X text 13 14 arg1: source table \; arg2: target table \;;
#X connect 0 0 9 1;
#X connect 0 0 8 0;
#X connect 0 0 11 1;
#X connect 1 0 3 0;
#X connect 1 1 2 0;
#X connect 1 1 6 0;
#X connect 2 0 13 0;
#X connect 3 0 4 0;
#X connect 4 0 5 0;
#X connect 5 0 15 0;
#X connect 5 1 9 0;
#X connect 6 0 7 0;
#X connect 6 0 4 0;
#X connect 7 0 16 1;
#X connect 8 0 10 1;
#X connect 9 0 10 0;
#X connect 10 0 12 0;
#X connect 11 0 16 0;
#X connect 12 0 7 0;
#X connect 12 1 11 2;
#X connect 13 0 0 0;
#X connect 14 0 1 0;
#X connect 15 0 11 0;
#X connect 17 0 18 0;
#X connect 17 0 21 0;
#X connect 18 0 2 1;
#X connect 19 0 20 0;
#X connect 20 0 14 0;
#X connect 21 0 22 0;
#X connect 23 0 24 0;
#X connect 24 0 14 1;
#X connect 24 0 25 0;
#X connect 25 0 15 0;
