#N canvas 458 221 450 300 12;
#X obj 171 125 timer;
#X obj 171 100 t b b;
#N canvas 205 156 451 349 minimum-taps 0;
#X obj 226 57 t b f, f 6;
#X msg 87 143 0;
#X obj 264 202 f, f 6;
#X obj 196 118 f;
#X obj 251 119 + 1;
#X obj 87 94 b;
#X obj 264 227 outlet;
#X obj 226 27 inlet;
#X obj 87 118 delay 1000;
#X obj 196 172 sel 1;
#X obj 196 147 % 2;
#X connect 0 0 3 0;
#X connect 0 1 2 1;
#X connect 1 0 3 1;
#X connect 2 0 6 0;
#X connect 3 0 4 0;
#X connect 3 0 5 0;
#X connect 3 0 10 0;
#X connect 4 0 3 1;
#X connect 5 0 8 0;
#X connect 7 0 0 0;
#X connect 8 0 1 0;
#X connect 9 0 2 0;
#X connect 10 0 9 0;
#X restore 171 152 pd minimum-taps;
#X obj 171 74 inlet;
#X obj 171 177 outlet;
#X obj 240 61 tecla T;
#X obj 240 96 sel 1;
#X obj 88 23 bng 14 250 50 0 empty empty empty 17 7 0 10 #fcfcfc #000000
#000000;
#X connect 0 0 2 0;
#X connect 1 0 0 0;
#X connect 1 0 7 0;
#X connect 1 1 0 1;
#X connect 2 0 4 0;
#X connect 3 0 1 0;
#X connect 5 0 6 0;
#X connect 6 0 1 0;
#X coords 0 -1 1 1 85 20 1 20 20;
