#N canvas 458 221 450 300 12;
#X obj 241 142 timer;
#X obj 241 117 t b b;
#N canvas 205 156 451 349 minimum-taps 0;
#X obj 226 57 t b f, f 6;
#X msg 87 143 0;
#X obj 264 202 f, f 6;
#X obj 196 118 f;
#X obj 251 119 + 1;
#X obj 87 94 b;
#X obj 264 227 outlet;
#X obj 226 27 inlet;
#X obj 87 118 delay 1000;
#X obj 196 172 sel 1;
#X obj 196 147 % 2;
#X connect 0 0 3 0;
#X connect 0 1 2 1;
#X connect 1 0 3 1;
#X connect 2 0 6 0;
#X connect 3 0 4 0;
#X connect 3 0 5 0;
#X connect 3 0 10 0;
#X connect 4 0 3 1;
#X connect 5 0 8 0;
#X connect 7 0 0 0;
#X connect 8 0 1 0;
#X connect 9 0 2 0;
#X connect 10 0 9 0;
#X restore 241 169 pd minimum-taps;
#X obj 241 91 inlet;
#X obj 239 32 tecla T;
#X obj 239 57 sel 1;
#X obj 88 23 bng 14 250 50 0 empty empty empty 17 7 0 10 #fcfcfc #000000
#000000;
#X obj 103 207 s tempo;
#X obj 23 37 nbx 3 20 -1e+37 1e+37 0 0 empty empty Bpm 52 11 0 14 #202020
#feffc6 #000000 0 256;
#X msg 114 137 set \$1;
#X msg 114 87 60000 \$1;
#X obj 114 112 /;
#X msg 23 124 60000 \$1;
#X obj 23 149 /;
#X connect 0 0 2 0;
#X connect 0 0 10 0;
#X connect 1 0 0 0;
#X connect 1 1 0 1;
#X connect 2 0 7 0;
#X connect 3 0 1 0;
#X connect 4 0 5 0;
#X connect 5 0 6 0;
#X connect 6 0 1 0;
#X connect 8 0 12 0;
#X connect 9 0 8 0;
#X connect 10 0 11 0;
#X connect 11 0 9 0;
#X connect 12 0 13 0;
#X connect 13 0 7 0;
#X coords 0 -1 1 1 85 40 1 20 20;
