#N canvas 458 221 450 300 12;
#X obj 147 31 inlet;
#X obj 147 56 s2l /;
#X obj 147 81 t l l;
#X obj 147 150 list split;
#X obj 214 101 list length;
#X obj 214 126 - 1;
#X obj 180 177 s2l .;
#X msg 180 202 \$1;
#X obj 180 253 outlet;
#X obj 180 227 symbol;
#X connect 0 0 1 0;
#X connect 1 0 2 0;
#X connect 2 0 3 0;
#X connect 2 1 4 0;
#X connect 3 1 6 0;
#X connect 4 0 5 0;
#X connect 5 0 3 1;
#X connect 6 0 7 0;
#X connect 7 0 9 0;
#X connect 9 0 8 0;
