#N canvas 458 221 450 300 12;
#X obj 200 31 inlet;
#X obj 200 56 list split 1;
#X obj 166 95 symbol;
#X msg 166 145 \$2/\$1;
#X obj 166 171 list append;
#X obj 166 196 list trim;
#X obj 166 221 outlet;
#X obj 166 120 pack s s;
#X obj 263 102 loadbang;
#X obj 263 127 symbol \$1;
#X connect 0 0 1 0;
#X connect 1 0 2 0;
#X connect 1 1 4 1;
#X connect 2 0 7 0;
#X connect 3 0 4 0;
#X connect 4 0 5 0;
#X connect 5 0 6 0;
#X connect 7 0 3 0;
#X connect 8 0 9 0;
#X connect 9 0 7 1;
