#N canvas 71 154 373 371 12;
#X obj 59 228 inlet~;
#X obj 59 263 *~;
#X obj 59 288 outlet~;
#X obj 139 263 *~;
#X obj 139 288 outlet~;
#X obj 128 192 lop~ 50;
#X obj 218 193 lop~ 50;
#X obj 139 228 inlet~;
#X text 51 31 defaults to equal POWER;
#N canvas 444 154 450 300 args 0;
#X obj 112 34 loadbang;
#X msg 112 59 args;
#X obj 112 84 pdcontrol;
#X obj 112 189 outlet;
#X obj 164 189 sel flat;
#X msg 164 214 1;
#X obj 164 239 outlet;
#X obj 112 109 route float symbol list;
#X obj 217 145 unpack;
#X connect 0 0 1 0;
#X connect 1 0 2 0;
#X connect 2 0 7 0;
#X connect 4 0 5 0;
#X connect 5 0 6 0;
#X connect 7 0 3 0;
#X connect 7 1 4 0;
#X connect 7 2 8 0;
#X connect 8 0 3 0;
#X connect 8 1 4 0;
#X restore 263 57 pd args;
#X text 57 49 1 arg: init or flat \; 2 args: init + flat;
#X obj 218 98 inlet~;
#X obj 218 126 clip~ 0 1;
#X obj 218 164 pow~ 0.5;
#X obj 128 101 -~ 1;
#X obj 128 126 abs~;
#X obj 128 163 pow~ 0.5;
#X connect 0 0 1 0;
#X connect 1 0 2 0;
#X connect 3 0 4 0;
#X connect 5 0 1 1;
#X connect 6 0 3 1;
#X connect 7 0 3 0;
#X connect 9 0 12 0;
#X connect 9 1 13 1;
#X connect 9 1 16 1;
#X connect 11 0 12 0;
#X connect 12 0 13 0;
#X connect 12 0 14 0;
#X connect 13 0 6 0;
#X connect 14 0 15 0;
#X connect 15 0 16 0;
#X connect 16 0 5 0;
