#N canvas 71 154 373 371 12;
#X obj 59 228 inlet~;
#X obj 59 263 *~;
#X obj 59 288 outlet~;
#X obj 139 263 *~;
#X obj 139 288 outlet~;
#X obj 198 88 inlet;
#X obj 138 91 - 1;
#X obj 138 116 abs;
#X obj 138 168 sig~ 1;
#X obj 138 193 lop~ 50;
#X obj 198 193 lop~ 50;
#X obj 198 168 sig~;
#X obj 139 228 inlet~;
#X obj 198 116 clip 0 1;
#X obj 138 143 pow 0.5;
#X obj 198 143 pow 0.5;
#X text 51 31 defaults to equal POWER;
#N canvas 444 154 450 300 args 0;
#X obj 112 34 loadbang;
#X msg 112 59 args;
#X obj 112 84 pdcontrol;
#X obj 112 189 outlet;
#X obj 164 189 sel flat;
#X msg 164 214 1;
#X obj 164 239 outlet;
#X obj 112 109 route float symbol list;
#X obj 217 145 unpack;
#X connect 0 0 1 0;
#X connect 1 0 2 0;
#X connect 2 0 7 0;
#X connect 4 0 5 0;
#X connect 5 0 6 0;
#X connect 7 0 3 0;
#X connect 7 1 4 0;
#X connect 7 2 8 0;
#X connect 8 0 3 0;
#X connect 8 1 4 0;
#X restore 263 57 pd args;
#X text 57 49 1 arg: init or flat \; 2 args: init + flat;
#X connect 0 0 1 0;
#X connect 1 0 2 0;
#X connect 3 0 4 0;
#X connect 5 0 13 0;
#X connect 6 0 7 0;
#X connect 7 0 14 0;
#X connect 8 0 9 0;
#X connect 9 0 1 1;
#X connect 10 0 3 1;
#X connect 11 0 10 0;
#X connect 12 0 3 0;
#X connect 13 0 6 0;
#X connect 13 0 15 0;
#X connect 14 0 8 0;
#X connect 15 0 11 0;
#X connect 17 0 13 0;
#X connect 17 1 15 1;
#X connect 17 1 14 1;
